<svg xmlns="http://www.w3.org/2000/svg" viewBox="0 0 200 50"><defs><style>.cls-1{fill:#231815;}</style></defs><title>btn_print</title><g id="レイヤー_2" data-name="レイヤー 2"><g id="レイヤー_1-2" data-name="レイヤー 1"><path class="cls-1" d="M198,2V48H2V2H198m2-2H0V50H200V0Z"/><path class="cls-1" d="M198,2V48H2V2H198m2-2H0V50H200V0Z"/><path class="cls-1" d="M71.54,21c-.11.12-.28.14-.56.05a16.06,16.06,0,0,1-3.32.74v2.88h1.53L70,23.56s.9.73,1.43,1.24c0,.14-.17.2-.36.2H67.66v3.59h1.5L70,27.46s1,.77,1.51,1.29c0,.14-.18.21-.38.21H67.66V30.2c0,.11-.42.43-1.29.43h-.2V20.53l1.62.65a27.47,27.47,0,0,0,2.39-1.64Zm6,.3a1,1,0,0,1-.52.27v6.7c0,1-.22,1.6-1.92,1.75a2.09,2.09,0,0,0-.27-1.06,1.74,1.74,0,0,0-1.07-.5v-.17s1.21.07,1.48.07.26-.08.26-.25v-6.8h-2.3v9.79c0,.12-.45.48-1.22.48h-.27V20.12l1.67.79h2L76,20.1Z"/><path class="cls-1" d="M87.09,22.87v.89c0,2.19,0,5.22-1.91,7.28L85,31a22.41,22.41,0,0,0,.75-7.19v-4l1.55.57h3.36l.63-.68,1.35,1a.91.91,0,0,1-.49.25v2.21a2,2,0,0,1-1.14.37H90.8v-.61Zm0-2.18v1.82H90.8V20.69Zm4.45,3.63,1.32,1a1,1,0,0,1-.54.24V28.8c0,.94-.16,1.47-1.34,1.6a2.85,2.85,0,0,0-.12-1,.68.68,0,0,0-.52-.4v-.2l.57,0c.15,0,.18-.06.18-.19v-3.3h-.8v5.77c0,.13-.53.39-1,.39h-.23V25.36h-.74V30.1c0,.09-.39.38-1,.38h-.2v-6l1.37.53h.58V23.39l1.7.17c0,.18-.13.31-.48.35V25H91Zm2.9,3.8c0,.13-.59.41-1.11.41h-.26V20.42l1.85.18c0,.18-.13.31-.48.36Zm2.86-8.45c0,.2-.16.32-.49.37v9.72c0,1-.2,1.58-1.82,1.72a1.9,1.9,0,0,0-.28-1A1.94,1.94,0,0,0,93.62,30V29.8s1.27.09,1.53.09.27-.07.27-.24V19.49Z"/><path class="cls-1" d="M109.55,20.42a2.16,2.16,0,0,1,1.17-.47c.75,0,1.68.34,1.68.76s-.22.63-.26.94c0,.12,0,.31,0,.56,2.39-.27,2.65-.44,2.86-.44.68,0,1.56.37,1.56,1,0,.44-.26.51-.65.51a15.64,15.64,0,0,0-3.8-.17c0,.64,0,1.37,0,2a2.68,2.68,0,0,1,.54,1.78c0,2.69-2.19,4.08-5.05,4.48l-.11-.24a5.51,5.51,0,0,0,3.42-2.63c-1.3.36-2.26-.72-2.26-2a1.9,1.9,0,0,1,1.87-2,2.39,2.39,0,0,1,.55.05c0-.34-.06-.81-.08-1.29a20.86,20.86,0,0,0-3,.61c-.62.18-.89.46-1.34.46a2,2,0,0,1-1.41-1.21,2.72,2.72,0,0,1-.07-.94l.19-.08c.47.54.66.76,1.12.76s3-.29,4.48-.47c0-.44-.07-.86-.11-1.12a.45.45,0,0,0-.32-.4,4,4,0,0,0-.88-.22Zm1.59,5.87c0-.63-.25-1.16-.79-1.16a1.09,1.09,0,0,0-1,1.2,1,1,0,0,0,1,1.09C110.92,27.42,111.14,27.05,111.14,26.29Z"/><path class="cls-1" d="M126.46,20.56c.22.41.54.79.88.79a13.3,13.3,0,0,0,2.53-.54c.51-.17.51-.37.78-.37.61,0,1.64.82,1.64,1.38,0,.36-.45.47-.88.77A23.79,23.79,0,0,0,128.46,25c-.15.15-.07.24.06.2a6.36,6.36,0,0,1,2.17-.44,3,3,0,0,1,3.21,3c0,1.74-1.56,3.15-4.23,3.15-1.53,0-2.66-.67-2.66-1.8a1.56,1.56,0,0,1,1.75-1.42A2.27,2.27,0,0,1,131,29.54a2.27,2.27,0,0,0,1.53-2.17,2,2,0,0,0-2.25-2c-1.78,0-3,1.3-4.13,2.73-.31.41-.44.52-.77.51s-.57-.35-.54-.84.23-.64.66-1.06c1.27-1.25,4-3.82,4.68-4.74.22-.29.09-.38-.12-.34a7.31,7.31,0,0,0-1.78.8,1.5,1.5,0,0,1-.74.36,1.64,1.64,0,0,1-1.39-1.34,3.23,3.23,0,0,1,.1-.85Zm3.35,9.26c-.16-.88-.68-1.44-1.39-1.44-.5,0-.82.25-.82.66s.6.8,1.6.8Z"/></g></g></svg>