<svg xmlns="http://www.w3.org/2000/svg" viewBox="0 0 200 50"><defs><style>.cls-1{fill:#231815;}</style></defs><title>btn_close</title><g id="レイヤー_2" data-name="レイヤー 2"><g id="レイヤー_1-2" data-name="レイヤー 1"><path class="cls-1" d="M198,2V48H2V2H198m2-2H0V50H200V0Z"/><path class="cls-1" d="M198,2V48H2V2H198m2-2H0V50H200V0Z"/><path class="cls-1" d="M77.75,23.94v7c0,.2-.56.57-1.23.57h-.25V19.67l1.53.67h1.78l.64-.7,1.35,1a.79.79,0,0,1-.47.25V24.3a2.19,2.19,0,0,1-1.15.35h-.24v-.71Zm0-3.23V22h2V20.71Zm2,2.87V22.3h-2v1.28Zm3.4,5.7c0,.92-.21,1.65-1.68,1.78a2,2,0,0,0-.21-1,1.22,1.22,0,0,0-1-.48V29.4s1,.06,1.3.06.23-.06.23-.2l0-1.76a9.39,9.39,0,0,1-3.51,2.38l-.1-.18a8.33,8.33,0,0,0,2.79-3.27H78.44l-.1-.37h3.38l0-1.42,1.82.16c0,.18-.14.31-.47.36v.9h.36l.62-.9s.71.63,1.13,1.07c0,.14-.16.2-.34.2H83.07Zm4.47-8.59a.87.87,0,0,1-.53.26v8.8c0,1-.21,1.64-1.86,1.78a2.17,2.17,0,0,0-.25-1.08,1.48,1.48,0,0,0-1-.49v-.2s1.1.09,1.35.09.26-.1.26-.27V23.94h-2v.14c0,.13-.62.46-1.22.46h-.19V19.75l1.46.59h1.85l.69-.81Zm-4.06,0V22h2V20.71Zm2,2.87V22.3h-2v1.28Z"/><path class="cls-1" d="M96.56,20.69v-.21a2.94,2.94,0,0,1,1-.25c.89,0,2.12,1,2.12,1.51,0,.37-.35.57-.49,1.24a23.18,23.18,0,0,0-.56,4.52c0,1.48.4,2,1.94,2a6.9,6.9,0,0,0,5-2.6l.23.17a6,6,0,0,1-5.46,3.94c-1.82,0-2.94-.95-2.94-3.38,0-1.86.28-4.5.28-5.47,0-.64-.07-.87-.3-1.08A2.47,2.47,0,0,0,96.56,20.69ZM102.32,24a6.83,6.83,0,0,0-1.3-1.52l.14-.18a4.52,4.52,0,0,1,1.86,1,1,1,0,0,1,.42.79.46.46,0,0,1-.5.48C102.72,24.55,102.54,24.37,102.32,24Zm1.33-1.24a5.51,5.51,0,0,0-1.36-1.39l.13-.18a4,4,0,0,1,1.84.78,1.09,1.09,0,0,1,.5.87.44.44,0,0,1-.45.47C104.05,23.34,103.89,23.16,103.65,22.79Z"/><path class="cls-1" d="M116.27,20.56c.22.41.55.79.88.79a13.38,13.38,0,0,0,2.54-.54c.51-.17.51-.37.78-.37.61,0,1.64.82,1.64,1.38,0,.36-.46.47-.89.77a25.37,25.37,0,0,0-3,2.45c-.14.15-.06.24.07.2a6.36,6.36,0,0,1,2.17-.44,3,3,0,0,1,3.21,3c0,1.74-1.56,3.15-4.24,3.15-1.52,0-2.65-.67-2.65-1.8a1.56,1.56,0,0,1,1.74-1.42,2.27,2.27,0,0,1,2.26,1.77,2.28,2.28,0,0,0,1.54-2.17,2,2,0,0,0-2.25-2c-1.78,0-3,1.3-4.14,2.73-.31.41-.44.52-.76.51s-.57-.35-.55-.84a1.75,1.75,0,0,1,.66-1.06c1.28-1.25,4-3.82,4.69-4.74.22-.29.09-.38-.12-.34a7.14,7.14,0,0,0-1.78.8,1.5,1.5,0,0,1-.74.36,1.66,1.66,0,0,1-1.4-1.34,2.88,2.88,0,0,1,.11-.85Zm3.35,9.26c-.15-.88-.67-1.44-1.39-1.44-.49,0-.82.25-.82.66s.6.8,1.6.8Z"/></g></g></svg>