<svg xmlns="http://www.w3.org/2000/svg" viewBox="0 0 219.6 66.22"><defs><style>.cls-1{fill:#588f45;}.cls-2{fill:none;stroke:#588f45;stroke-miterlimit:10;stroke-width:2px;}</style></defs><title>logo_bus_access_main_logo</title><g id="レイヤー_2" data-name="レイヤー 2"><g id="wire"><path class="cls-1" d="M6.14,7c0-3.55-.19-4.46-2.35-4.66L2.26,2.21A.77.77,0,0,1,2.3,1C4.9.77,8.16.62,12.62.62c3,0,5.91.24,8.07,1.35a6.31,6.31,0,0,1,3.65,6c0,3.46-2,5.23-4.9,6.58,0,.48.39.62.91.72a7.94,7.94,0,0,1,6.44,8c0,5.57-4.13,9.31-12.77,9.31-1.4,0-3.75-.14-5.76-.14s-3.75.1-5.52.14a.91.91,0,0,1-.1-1.19l.86-.15c2.55-.43,2.64-1,2.64-6Zm3.94,6.38c0,1.35.05,1.44,2.5,1.35,4.89-.19,7.53-1.63,7.53-6.15,0-4.7-3.5-6.48-7.15-6.48a6,6,0,0,0-2.21.29c-.48.15-.67.38-.67,1.25Zm0,11.14c0,1.73.1,4.18,1,5.23a4.64,4.64,0,0,0,3.79,1.35c4.27,0,7.54-1.92,7.54-6.72,0-3.8-1.92-8.21-9.56-8.21-2.59,0-2.78.29-2.78,1.25Z"/><path class="cls-1" d="M39.07,25.39c0,3.32.82,5.53,4.47,5.53a6.27,6.27,0,0,0,3.89-1.45,3.33,3.33,0,0,0,1-2.78V18.82c0-3.12-.34-3.22-1.78-3.79L46,14.79a.66.66,0,0,1,0-1.06,19.31,19.31,0,0,0,5.62-.86.46.46,0,0,1,.43.33c-.09.91-.14,2.4-.14,4.18v8.06c0,3.8.14,5.23,1.49,5.23a8.72,8.72,0,0,0,1.87-.24c.29.24.33,1.2,0,1.4-1.87.38-4.66.86-6.29,1.77a.65.65,0,0,1-.57-.33v-2c0-.43-.15-.67-.44-.67-1.44.91-3.79,2.49-6.62,2.49-4.23,0-5.81-2.11-5.81-6v-8c0-3,0-3.46-1.44-4.08l-.57-.24a.72.72,0,0,1,.09-1.06,17.25,17.25,0,0,0,5.14-.86c.28,0,.43.14.48.33a34.89,34.89,0,0,0-.15,4.18Z"/><path class="cls-1" d="M71.57,13.73a11.27,11.27,0,0,1,.77,3.89.84.84,0,0,1-1.15.14c-.82-2.11-2.26-3.5-4.23-3.5a2.84,2.84,0,0,0-3.07,2.93c0,2,2,3,3.69,4,2.55,1.44,4.9,3.07,4.9,6.48,0,3.65-3.36,5.47-6.91,5.47a8,8,0,0,1-5.14-1.44,14.5,14.5,0,0,1-.58-4.85.83.83,0,0,1,1.11,0c.81,2.64,2.35,4.94,5.09,4.94a3,3,0,0,0,3.21-3.07c0-2.21-1.92-3.41-3.69-4.42-2.79-1.58-4.75-3.26-4.75-5.9,0-3.51,2.87-5.47,6.52-5.47A8.56,8.56,0,0,1,71.57,13.73Z"/><path class="cls-1" d="M110.26,21.31c-.34-1-.53-1.2-2-1.2H101c-1.2,0-1.49.15-1.82,1.16l-1.69,5a18.79,18.79,0,0,0-1,4c0,.58.24.87,1.39,1l1.58.15a.76.76,0,0,1-.09,1.19c-1.25-.09-2.74-.09-5-.14-1.59,0-3.32.1-4.61.14a.93.93,0,0,1-.1-1.19l1.59-.15a3.19,3.19,0,0,0,2.88-2.35c.86-2.21,2.21-5.33,4.22-10.71l4.9-13c.67-1.73,1-2.64.81-3.41A5.35,5.35,0,0,0,106.56,0a.68.68,0,0,1,.72.43c.62,2.12,1.39,4.32,2.11,6.44L116,26.16c1.39,4.13,2,4.85,4.08,5.09l1.3.15c.33.23.24,1,0,1.19-2-.09-3.65-.14-5.81-.14-2.31,0-4.13.1-5.52.14a.79.79,0,0,1-.1-1.19l1.39-.15c1-.09,1.68-.38,1.68-.86a10,10,0,0,0-.62-2.55ZM100.75,17c-.38,1.11-.33,1.15,1,1.15h5.9c1.4,0,1.49-.19,1.06-1.48l-2.59-7.83a31.91,31.91,0,0,0-1.11-3h-.09a27.3,27.3,0,0,0-1.16,2.83Z"/><path class="cls-1" d="M140.64,13.68a2.76,2.76,0,0,1,.72,1.92c0,.87-.48,1.78-1.06,1.78a.84.84,0,0,1-.67-.34,6.55,6.55,0,0,0-4.8-2.54c-3.36,0-6.62,2.64-6.62,7.73,0,3.74,2.59,8.2,7.73,8.2a5.83,5.83,0,0,0,5.32-2.88.77.77,0,0,1,.87.68,8.74,8.74,0,0,1-8,4.89,9.28,9.28,0,0,1-6.58-2.45,9.54,9.54,0,0,1-2.78-7.1c0-5.18,3.65-10.7,11.62-10.7A12.11,12.11,0,0,1,140.64,13.68Z"/><path class="cls-1" d="M162.24,13.68A2.76,2.76,0,0,1,163,15.6c0,.87-.48,1.78-1.06,1.78a.85.85,0,0,1-.67-.34,6.55,6.55,0,0,0-4.8-2.54c-3.36,0-6.62,2.64-6.62,7.73,0,3.74,2.59,8.2,7.73,8.2a5.83,5.83,0,0,0,5.32-2.88.77.77,0,0,1,.87.68,8.74,8.74,0,0,1-8,4.89,9.26,9.26,0,0,1-6.57-2.45,9.51,9.51,0,0,1-2.79-7.1c0-5.18,3.65-10.7,11.62-10.7A12.11,12.11,0,0,1,162.24,13.68Z"/><path class="cls-1" d="M172.46,20.16c-1.25,0-1.29.1-1.29,1.3,0,4.85,2.83,9,8,9a5.15,5.15,0,0,0,4.42-2.35.64.64,0,0,1,.87.58,8.41,8.41,0,0,1-7.54,4.46,8.61,8.61,0,0,1-7-3.16,10.22,10.22,0,0,1-2-6.25c0-5.9,3.89-10.84,9.65-10.84,4.13,0,6.82,2.83,6.82,5.71a3.13,3.13,0,0,1-.19,1.25c-.15.28-.82.33-2.84.33Zm3-1.44c3.55,0,4.61-.19,5-.48.15-.09.29-.29.29-.91,0-1.34-.91-3-3.7-3s-5.28,2.59-5.33,4.17c0,.1,0,.24.34.24Z"/><path class="cls-1" d="M200.78,13.73a11.27,11.27,0,0,1,.77,3.89.84.84,0,0,1-1.15.14c-.82-2.11-2.26-3.5-4.22-3.5a2.84,2.84,0,0,0-3.08,2.93c0,2,2,3,3.7,4,2.54,1.44,4.89,3.07,4.89,6.48,0,3.65-3.35,5.47-6.91,5.47a8,8,0,0,1-5.13-1.44,14,14,0,0,1-.58-4.85.82.82,0,0,1,1.1,0c.82,2.64,2.36,4.94,5.09,4.94a3,3,0,0,0,3.22-3.07c0-2.21-1.92-3.41-3.7-4.42C192,22.66,190,21,190,18.34c0-3.51,2.88-5.47,6.53-5.47A8.51,8.51,0,0,1,200.78,13.73Z"/><path class="cls-1" d="M218.69,13.73a11.27,11.27,0,0,1,.76,3.89.84.84,0,0,1-1.15.14c-.81-2.11-2.25-3.5-4.22-3.5A2.84,2.84,0,0,0,211,17.19c0,2,2,3,3.69,4,2.55,1.44,4.9,3.07,4.9,6.48,0,3.65-3.36,5.47-6.91,5.47a8,8,0,0,1-5.14-1.44,14.5,14.5,0,0,1-.58-4.85.83.83,0,0,1,1.11,0c.81,2.64,2.35,4.94,5.09,4.94a3,3,0,0,0,3.21-3.07c0-2.21-1.92-3.41-3.69-4.42-2.79-1.58-4.76-3.26-4.76-5.9,0-3.51,2.88-5.47,6.53-5.47A8.59,8.59,0,0,1,218.69,13.73Z"/><line class="cls-2" y1="65.22" x2="217.84" y2="65.22"/></g></g></svg>