<svg xmlns="http://www.w3.org/2000/svg" viewBox="0 0 390 127.06"><defs><style>.cls-1{fill:#e50044;}.cls-2{fill:#fff;}</style></defs><g id="レイヤー_2" data-name="レイヤー 2"><g id="head"><rect class="cls-1" x="0.95" y="0.95" width="388.1" height="125.16"/><path class="cls-2" d="M388.1,1.9V125.16H1.9V1.9H388.1M390,0H0V127.06H390V0Z"/><path class="cls-2" d="M137.62,70.22a83.66,83.66,0,0,1,7.76,3.18l-3.76,1.44a55.27,55.27,0,0,0-7.07-3.21L137,70.22h-7.95l2.48,1.08a33.35,33.35,0,0,1-8.5,3.57,31.47,31.47,0,0,0-2.39-2.37,32.22,32.22,0,0,0,7.48-2.28h-4V59.16h5.69a8,8,0,0,0-1.28-1.87l0,.1c-2.34.69-4.87,1.42-6.92,2l-1.19-2.83c2-.38,4.92-1.06,7.81-1.74l.27,2.45c4.33-.71,5.77-1.88,6.37-3.81h-2a15,15,0,0,1-2.18,2.18,8.4,8.4,0,0,0-2.42-1.53,11.83,11.83,0,0,0,4-4.74l2.86.47a12.16,12.16,0,0,1-.71,1.33h8l.49-.08,2.15.54a18.76,18.76,0,0,1-2.58,4.11l-2.51-.79a13.52,13.52,0,0,0,1.06-1.49h-3c.6,1.77,2.13,3.24,7.63,3.89A9,9,0,0,0,144.13,60c-.65-.11-1.25-.22-1.8-.35V70.22Zm-10.29-16a34.59,34.59,0,0,0-5.69-2.2l1.42-2.21a36,36,0,0,1,5.74,2Zm-.08,8.09H139V61.1H127.25Zm0,3H139V64.09H127.25Zm0,3H139V67.09H127.25Zm13.56-9.12a8.18,8.18,0,0,1-4.17-2.94,8.73,8.73,0,0,1-4.95,2.94Z"/><path class="cls-2" d="M170.94,68.69a36.47,36.47,0,0,0-2-3.54v9.56h-3V65.1a27.83,27.83,0,0,1-3.13,6.69,18.73,18.73,0,0,0-1.47-3.34A25.21,25.21,0,0,0,165,61.4h-3.1v-3H166V49.47h3v8.91h4v3h-4v.19c.79.79,3.38,3.83,4,4.6Zm-7.86-10.83a27.09,27.09,0,0,0-1.23-6.26l2.26-.6a27.34,27.34,0,0,1,1.39,6.23Zm10.42-6.4c-.71,2.18-1.49,4.76-2.17,6.34l-2.05-.57a46.3,46.3,0,0,0,1.5-6.37Zm10.56,15.95v7.35h-3V68l-7.6,1.36-.49-3L181,64.85V49.34h3v15l2.78-.52.49,3Zm-9.31-9.88a24.35,24.35,0,0,1,4.58,3.13l-1.64,2.59a22.84,22.84,0,0,0-4.46-3.38Zm3.95-1A21.86,21.86,0,0,0,174.48,53L176,50.83a20.28,20.28,0,0,1,4.33,3.3Z"/><path class="cls-2" d="M213.41,56.41H203.07V53.86h10.34Zm-.87,16.94H207v1.06h-2.73V65.13h8.28Zm0-13.23h-8.16V57.64h8.16Zm-8.16,1.25h8.16v2.42h-8.16Zm8.08-8.71h-8V50.21h8Zm-5.44,15v3.13h2.8V67.68Zm21.37-10.29v2.32h-15V57.39h5.91V56.31h-4.58V54.13h4.58v-1h-5.26V50.83h5.26V49.36h3.07v1.47h5.48v2.32h-5.48v1h5.07v2.18h-5.07v1.08Zm-1.47,14.38c0,1.36-.25,2.07-1.17,2.47a9.57,9.57,0,0,1-3.92.47,9.49,9.49,0,0,0-.85-2.59c1,0,2.13,0,2.48,0s.43-.11.43-.41v-2h-5.63v5h-3v-14h11.63ZM218.23,63v1.22h5.63V63Zm5.63,4.6V66.35h-5.63v1.28Z"/><path class="cls-2" d="M254.44,67.28c-2.7,1.74-5.72,3.59-8.09,5l-2-3c2.26-1.11,5.77-3.07,9-5Zm14-8.17A62.07,62.07,0,0,1,263,64.5a19.6,19.6,0,0,0,7,5.55,13.24,13.24,0,0,0-2.4,2.89,22.47,22.47,0,0,1-8.95-9.42v7.29c0,1.91-.36,2.81-1.5,3.33s-2.89.68-5.31.65a13.5,13.5,0,0,0-1.11-3.4c1.66.08,3.37,0,3.92,0s.7-.16.7-.65V56.61H245.18V53.47h10.26V49.39h3.3v4.08h5.55a38.76,38.76,0,0,0-3.76-2.2l1.88-2a33.41,33.41,0,0,1,5.06,2.83l-1.25,1.41h3v3.14h-10.5v.27a27.77,27.77,0,0,0,2.53,5.2,34,34,0,0,0,4.27-5Zm-18.07,5a26.45,26.45,0,0,0-4.09-4.93l2.48-1.74A25.82,25.82,0,0,1,253,62.24Z"/></g></g></svg>