<svg xmlns="http://www.w3.org/2000/svg" viewBox="0 0 390 127.06"><defs><style>.cls-1{isolation:isolate;}.cls-2{fill:#6fb92c;mix-blend-mode:multiply;}.cls-3{fill:#fff;}</style></defs><g class="cls-1"><g id="レイヤー_2" data-name="レイヤー 2"><g id="head"><rect class="cls-2" x="0.94" y="0.94" width="388.13" height="125.18"/><path class="cls-3" d="M388.13,1.88v123.3H1.88V1.88H388.13M390,0H0V127.06H390V0Z"/><path class="cls-3" d="M136.67,64.28a25.21,25.21,0,0,0,9.23,6.86,14.85,14.85,0,0,0-2.26,2.72,27.36,27.36,0,0,1-8.9-7.46v8.36h-3.43v-8.3a28.19,28.19,0,0,1-8.93,7.35,15.44,15.44,0,0,0-2.29-2.72,25.7,25.7,0,0,0,9.31-6.81h-8.55v-3.1H126a19,19,0,0,0-2-4.68l2.8-1.07h-4.63v-3.1h9.18v-3h3.43v3h9.42v3.1h-4.52l3.13.93a50.45,50.45,0,0,1-2.86,4.82h5.28v3.1Zm-9.8-8.85a19.42,19.42,0,0,1,2.31,4.74l-2.58,1h4.71V55.43Zm7.87,0v5.75h4.57L137,60.39a31.38,31.38,0,0,0,2.32-5Z"/><path class="cls-3" d="M176.28,63c-.22.44-.49.87-.76,1.31h11s0,.73-.06,1.11c-.38,5.31-.81,7.49-1.55,8.28a2.53,2.53,0,0,1-1.79.93,18,18,0,0,1-2.75.05,6.53,6.53,0,0,0-.74-2.53c.87.08,1.58.08,1.93.08a.92.92,0,0,0,.82-.3c.38-.41.71-1.8,1-5.09h-1.06a19.43,19.43,0,0,1-5.45,8.06,8.94,8.94,0,0,0-2.28-1.8,15.06,15.06,0,0,0,5.06-6.26H178.1a20.71,20.71,0,0,1-6.37,6.83,9.5,9.5,0,0,0-2.12-1.9,16.41,16.41,0,0,0,5.55-4.93h-1.63a16.72,16.72,0,0,1-3.16,2.67,11.33,11.33,0,0,0-2.12-1.91l-5.58,2.78-1.2-3.27c.93-.35,2.07-.81,3.35-1.33V58.1H162.1V55.05h2.72V49.69h3v5.36h2.56V58.1h-2.56v6.43l2.18-1,.57,2.32A13.48,13.48,0,0,0,173.07,63H170V60.28h17.12V63Zm9-3.75H172.39V50h12.87Zm-3-7h-7v1.3h7Zm0,3.43h-7V57h7Z"/><path class="cls-3" d="M228.38,60.63A36.12,36.12,0,0,1,224,67.74l-2.78-1.61a35.61,35.61,0,0,0,2.12-3.34h-5.74v8.46c0,1.71-.38,2.53-1.69,3a16.77,16.77,0,0,1-5.36.49,10.92,10.92,0,0,0-1.17-3.1c1.61.06,3.62.06,4.16.06s.69-.14.69-.55V62.79H203.5V59.71h12.39c-2-.84-4.22-1.72-6-2.37l1.6-2.45c1.23.44,2.75,1,4.28,1.52a28.16,28.16,0,0,0,3.45-2.55H206.12v-3h16.27l.74-.19,2.31,1.82a45.08,45.08,0,0,1-6.28,5.17c.89.36,1.71.66,2.34,1l-.66,1.06h4.3l.6-.22Z"/><path class="cls-3" d="M248.15,65.75a25.52,25.52,0,0,1-1.64,7A16.11,16.11,0,0,0,244,71.6a19.74,19.74,0,0,0,1.44-6.31ZM269.33,54s0,1.09,0,1.5c-.36,11.92-.74,16.23-1.88,17.67a3.4,3.4,0,0,1-2.61,1.5,27,27,0,0,1-4.25.08,7.68,7.68,0,0,0-1.09-3.27c1.72.16,3.27.16,4,.16a1.34,1.34,0,0,0,1.15-.46c.81-.84,1.22-4.82,1.52-14.1h-7.51a22.25,22.25,0,0,1-2.32,3.51,20.24,20.24,0,0,0-2.56-1.79,21.21,21.21,0,0,1,2.13,5.09L253.43,65a14.62,14.62,0,0,0-.38-1.47l-1.55.11V74.82h-2.86v-11l-4,.27-.27-2.83,2-.08c.41-.52.84-1.09,1.25-1.69a25.91,25.91,0,0,0-3.26-3.73l1.52-2.23.65.57a31.21,31.21,0,0,0,2-4.74l2.86,1c-1,1.88-2.1,4-3.08,5.5.36.38.68.79,1,1.14a41.53,41.53,0,0,0,2.5-4.46l2.75,1.14a86.64,86.64,0,0,1-5.2,7.38L252,61c-.3-.66-.63-1.31-.95-1.88l2.28-1,.19.33a21.74,21.74,0,0,0,4.5-9.07l3.32.71A31.28,31.28,0,0,1,260,54ZM254,65.13a30.8,30.8,0,0,1,1.76,5.11l-2.55.9a27.86,27.86,0,0,0-1.61-5.25Zm6.37,2.77A25.91,25.91,0,0,0,257,61.61l2.59-1.3a25.5,25.5,0,0,1,3.54,6.09Z"/></g></g></g></svg>