<?xml version="1.0" encoding="utf-8"?>
<!-- Generator: Adobe Illustrator 23.0.4, SVG Export Plug-In . SVG Version: 6.00 Build 0)  -->
<svg version="1.1" id="レイヤー_1" xmlns="http://www.w3.org/2000/svg" xmlns:xlink="http://www.w3.org/1999/xlink" x="0px"
	 y="0px" viewBox="0 0 319.6 109.2" style="enable-background:new 0 0 319.6 109.2;" xml:space="preserve">
<style type="text/css">
	.st0{fill:#404040;}
</style>
<title>button_footer_nav_ul_li_02_a_sp</title>
<g>
	<g>
		<path d="M123.8,9c1.4-0.7,2.9-1.2,4.6-1.2c2,0,3.5,1.2,3.5,3.2c0,1.7-1.3,3.2-3.5,3.2c-1.3,0-2.4-0.6-3.2-1.9l0.3-0.3
			c0.6,0.6,1.5,1,2.7,1c1.6,0,2.5-1,2.5-2.4c0-1.2-0.8-2.2-2.6-2.2c-1.3,0-2.9,0.7-4.2,1.4c0.1,2.4,0.3,3,0.3,3.6
			c0,0.8-0.5,1.6-1.1,1.6c-0.4,0-0.5-0.6-1-1.1c-0.4-0.4-1.1-0.9-1.8-1.3c-0.5,0.5-0.7,0.7-1,0.7c-0.2,0-0.4-0.1-0.6-0.3
			c-0.3-0.3-0.4-0.5-0.4-0.8c0-0.5,0.1-0.6,0.5-0.6c0.5,0.1,0.7,0,1-0.2c0.6-0.3,1.9-1.4,3.1-2V8.4v-2c-0.6,0.1-1.4,0.3-1.9,0.3
			c-0.9,0-1.6-0.2-2.3-1.9l0.3-0.2c0.8,0.8,1.1,1,2,1c0.5,0,1.2-0.2,1.9-0.3c0-1.2,0-2.3,0-2.7c0-0.4-0.1-0.5-0.4-0.6
			c-0.3-0.1-0.6-0.1-1.1-0.1l-0.1-0.3c0.4-0.2,0.8-0.4,1.3-0.4c0.7,0,1.9,0.6,1.9,1c0,0.4-0.3,0.7-0.4,1.2c-0.1,0.3-0.2,0.9-0.2,1.5
			c1.2-0.5,1.7-1,2-1c0.3,0,0.9,0,1,0.5c0,0.3-0.2,0.5-0.6,0.7c-0.6,0.3-1.7,0.7-2.5,0.9c-0.1,0.7-0.1,1.5-0.1,2.2V9z M122.9,10.5
			c-0.8,0.6-1.6,1.3-2.3,2c0.6,0.3,1.3,0.6,1.8,0.9c0.4,0.1,0.5,0,0.5-0.3V10.5z M128.1,3.4c0.8-0.2,1.5-0.3,2.3-0.2
			c1.4,0.2,2.6,1.4,2.7,2.5c0,0.4-0.2,0.7-0.6,0.8c-0.4,0.1-0.6-0.4-1.1-0.3c-0.3,0-1,0.3-1.3,0.5l-0.2-0.3c0.3-0.2,1.1-0.7,1.3-0.9
			c0.2-0.2,0.2-0.4,0-0.6c-0.6-0.9-1.9-1.1-3.1-1L128.1,3.4z"/>
		<path d="M136.9,6v9.2c0,0.2-0.5,0.5-1.1,0.5h-0.2V0.5l1.4,0.7h3.1l0.7-0.7l1.4,1.1c-0.1,0.1-0.3,0.2-0.6,0.3v4.7
			c0,0.1-0.7,0.4-1.1,0.4h-0.2V6H136.9z M136.9,1.7v1.6h3.3V1.7H136.9z M140.2,5.5V3.8h-3.3v1.7H140.2z M146.3,8.7
			c-0.1,0.1-0.3,0.3-0.6,0.3v4c0,0.1-0.6,0.4-1.1,0.4h-0.2v-1h-3.8v0.9c0,0.1-0.6,0.4-1.1,0.4h-0.2v-6l1.4,0.6h3.6l0.7-0.7
			L146.3,8.7z M144.3,12V8.8h-3.8V12H144.3z M150.2,1.6c-0.1,0.1-0.4,0.3-0.7,0.3v12c0,1-0.2,1.5-1.9,1.7c-0.1-0.4-0.1-0.7-0.4-0.9
			c-0.2-0.2-0.6-0.4-1.4-0.5v-0.3c0,0,1.6,0.1,2,0.1c0.3,0,0.4-0.1,0.4-0.4V6h-3.5v0.4c0,0.1-0.6,0.4-1.1,0.4h-0.2V0.6l1.4,0.6h3.2
			l0.6-0.8L150.2,1.6z M144.7,1.7v1.6h3.5V1.7H144.7z M148.1,5.5V3.8h-3.5v1.7H148.1z"/>
		<path d="M161,0.5c-0.1,0.2-0.3,0.3-0.7,0.3c1.5,2.1,4.4,3.8,7.3,4.8l0,0.2c-0.6,0.2-1.1,0.7-1.2,1.2c-2.7-1.4-5.2-3.5-6.4-6
			c-1.6,2.5-4.9,5.3-8.2,6.7l-0.1-0.2c2.9-1.6,6.2-5.1,7.1-7.5L161,0.5z M163.7,8.6l1.6,1.2c-0.1,0.1-0.4,0.3-0.7,0.3v5
			c0,0.1-0.7,0.4-1.2,0.4h-0.2v-1.2H156v0.9c0,0.1-0.6,0.4-1.2,0.4h-0.2v-7l1.5,0.7h6.8L163.7,8.6z M162,5.2c0,0,1,0.8,1.6,1.4
			c-0.1,0.2-0.2,0.3-0.5,0.3h-7.5l-0.1-0.5h5.6L162,5.2z M163.1,13.9v-4H156v4H163.1z"/>
		<path d="M177.6,1.6c0.4-0.2,0.8-0.4,1.2-0.4c0.9,0,1.9,0.7,1.9,1.2c0,0.3-0.3,0.4-0.4,1c0,0.5-0.1,1.1-0.1,1.8
			c1.3-0.3,2.2-0.4,2.5-0.4c0.7,0,1.5,0.3,1.5,0.9c0,0.4-0.3,0.5-0.8,0.5c-0.7,0-1.3-0.2-2.6,0c-0.2,0-0.4,0.1-0.7,0.1
			c-0.1,1.2-0.2,2.7-0.3,3.4c-0.2,0.8-0.6,1.3-1.3,1.3c-0.3,0-0.5-0.1-0.6-0.4c-0.3-0.5-1-0.9-1.7-1.2l0.1-0.3
			c0.8,0.2,1.6,0.4,1.9,0.4c0.3,0,0.5-0.1,0.6-0.4c0.1-0.5,0.2-1.7,0.2-2.6c-1.6,0.3-3.4,0.7-4.7,1.1c-0.1,1.5-0.1,3.1-0.1,3.8
			c0.1,1.7,0.4,2,2.5,2c2.1,0,3.5-0.5,4-0.5c0.6,0,1.2,0.2,1.2,0.7c0,0.4-0.2,0.5-0.8,0.7c-0.7,0.2-2.1,0.3-3.9,0.3
			c-2.6,0-4-0.5-4.1-2.5c-0.1-1,0-2.5-0.1-4.1c-1.9,0.6-2.6,1.1-3.1,1.1c-0.5,0-1.2-0.6-1.4-1.3c-0.1-0.2-0.1-0.6-0.1-1l0.3-0.1
			c0.3,0.4,0.7,0.9,1.1,0.9c0.4,0,2.1-0.4,3.2-0.7c0-1.1,0-2.2-0.1-2.7c-0.1-0.5-0.1-0.6-0.4-0.7c-0.3-0.1-0.7-0.2-1-0.2l0-0.3
			c0.4-0.1,0.8-0.3,1.2-0.3c0.8,0,1.9,0.7,1.9,1.1c0,0.3-0.3,0.4-0.4,1.1c0,0.4-0.1,1-0.1,1.7c1.2-0.3,3.2-0.8,4.7-1.1
			c0-1,0-2.3,0-3c0-0.3-0.2-0.4-0.5-0.5c-0.3-0.1-0.6-0.1-1-0.1L177.6,1.6z"/>
		<path d="M190.6,8.3c-0.3,0.9-1,2.8-1.2,3.4c-0.2,0.6-0.2,0.9-0.2,1.2c0,0.5,0.3,1.1,0.3,1.5c0,0.4-0.2,0.6-0.6,0.6
			c-0.3,0-0.6-0.3-0.9-0.7c-0.5-0.7-1-2.3-1-4c0-1.9,0.5-3.7,0.8-4.7c0.2-0.8,0.4-1.4,0.4-2.1c0-0.7-0.4-1.3-1-1.9l0.3-0.2
			c0.4,0.2,0.7,0.3,1,0.5c0.4,0.3,1.2,1.2,1.2,2c0,0.4-0.3,0.7-0.7,1.7c-0.5,1-1.2,2.8-1.2,4.5c0,0.8,0.1,1.2,0.3,1.6
			c0.1,0.2,0.3,0.2,0.4,0c0.4-0.6,1.3-2.7,1.7-3.6L190.6,8.3z M197.4,6.2c0,1.7,0.1,3.3,0.2,4.5c1.4,0.4,2.3,1,2.8,1.5
			c0.4,0.3,0.5,0.7,0.5,1c0,0.4-0.2,0.6-0.5,0.6c-0.3,0-0.5-0.2-0.9-0.6c-0.6-0.6-1.2-1-1.9-1.4c0,0.1,0,0.3,0,0.4
			c0,1.4-0.9,2.3-3,2.3c-1.5,0-2.8-0.7-2.8-2c0-1.5,1.6-2.2,3.4-2.2c0.4,0,0.8,0,1.1,0.1c-0.1-1.2-0.2-2.9-0.2-4.3
			c-0.6,0.1-1.2,0.1-1.8,0.1c-1.1,0-1.8-0.2-2.7-1.7l0.2-0.2c0.7,0.5,1.5,0.9,2.3,0.9c0.7,0,1.4-0.1,2-0.2c0-0.8,0-1.7,0-2.1
			c0-0.5-0.1-0.6-0.3-0.6c-0.3-0.1-0.8-0.2-1.2-0.2l0-0.3c0.4-0.2,0.9-0.4,1.3-0.4c0.9,0,1.8,0.5,1.8,0.9c0,0.4-0.2,0.5-0.3,1.2
			c-0.1,0.3-0.1,0.8-0.2,1.3c0.3-0.1,0.6-0.2,0.8-0.3c0.9-0.3,1.2-0.5,1.3-0.5c0.4,0,1,0.2,1,0.6c0,0.4-0.3,0.5-0.9,0.8
			c-0.4,0.2-1.3,0.4-2.2,0.6V6.2z M196.5,11.5c-0.5-0.1-1.1-0.2-1.8-0.2c-1,0-2.1,0.4-2.1,1.2c0,0.7,0.8,1,1.7,1
			C196.2,13.6,196.5,12.9,196.5,11.5L196.5,11.5z"/>
		<path d="M0.7,23.8h5.3v0.6H1.3v10.4H0.7V23.8z"/>
		<path d="M10,27.7c0.5,0.5,1.1,0.8,1.7,0.8c0.7,0,2.2-0.2,3.8-0.4c2.5-0.4,2.4-0.8,2.8-0.8c0.7,0,1.8,0.4,1.8,0.9
			c0,0.3-0.2,0.5-0.7,0.6c-0.6,0.1-2.6,0.3-4.3,0.4c0.6,0.3,1,0.6,1,0.9c0,0.3-0.2,0.6-0.3,1.1c-0.1,0.7-0.2,2.2-0.3,3.3
			c1.2-0.1,2.5-0.2,3.5-0.3c0.8-0.1,1-0.2,1.2-0.2c0.7,0,2.2,0.7,2.2,1.3c0,0.4-0.2,0.6-0.6,0.6c-0.5,0-1.8-0.4-3.7-0.5
			c-1.8-0.1-5.4,0.3-7.1,0.7c-0.7,0.2-1.1,0.4-1.5,0.4c-0.5,0-1.4-0.8-1.6-1.2c-0.1-0.3-0.2-0.5-0.2-1l0.3-0.1
			c0.4,0.5,0.8,0.8,1.4,0.8c0.6,0,2.6-0.2,4.8-0.4c0.1-1.2,0.1-3,0.1-3.8c0-0.7-0.2-1.1-0.5-1.6c-1.1,0.2-2,0.3-2.4,0.3
			c-0.4,0-0.8-0.3-1.1-0.7c-0.3-0.3-0.5-0.7-0.7-1.2L10,27.7z"/>
		<path d="M30,24.9c0.3,0,0.6-0.1,1.1,0c0.8,0.1,1.8,0.7,1.8,1c0,0.3-0.2,0.5-0.5,0.9c-0.2,0.3-0.4,0.6-0.6,0.9c0.1,0,0.2,0,0.3,0
			c0.7,0,2.8-0.3,3.3-0.4c0.5-0.1,0.6-0.4,0.9-0.4c0.4,0,1.7,0.7,1.7,1.3c0,0.4-0.6,0.5-0.8,1c-2.4,4.3-5.8,7.8-10.8,9.7L26,38.6
			c4.4-2.3,8.3-6.6,9.7-10.1c0.1-0.2,0-0.3-0.2-0.3c-0.4,0-2,0.3-2.5,0.4c-0.4,0.1-0.7,0.2-1,0.2c-0.2,0-0.4-0.2-0.7-0.4
			c-1.4,1.8-3.1,3.4-5.2,4.4l-0.2-0.3c2.7-2,5.1-5.4,5.1-6.4c0-0.3-0.4-0.6-1-0.9L30,24.9z"/>
		<path d="M50.8,33.1c1.1-1.1,2-2.3,2.5-3.3c0.1-0.2,0-0.3-0.2-0.3c-0.9,0.1-3.4,1-4.9,1.5c-0.1,1.4-0.1,3-0.1,4
			c0,1.4,0.2,1.6,2.2,1.6c2.3,0,3.2-0.4,3.5-0.4c0.5,0,1.3,0.2,1.3,0.7c0,0.4-0.3,0.5-0.8,0.6c-0.8,0.2-2.3,0.3-3.5,0.3
			c-2.8,0-3.8-0.2-3.8-2.5c0-1.1,0-2.7,0-3.9c-0.8,0.3-1.7,0.6-2.3,0.9c-0.6,0.3-0.7,0.6-1.2,0.6c-0.4,0-1.4-0.8-1.7-1.3
			c-0.1-0.3-0.1-0.6-0.1-1l0.3-0.1c0.3,0.5,0.6,0.8,1.1,0.8c0.6,0,2.8-0.6,4-1c0-1.4,0.1-3.1,0-3.7c0-0.4-0.5-0.5-1.4-0.7l0-0.3
			c0.5-0.2,1-0.3,1.4-0.3c0.7,0,1.9,0.7,1.9,1.1c0,0.4-0.3,0.6-0.4,1.2c-0.1,0.5-0.1,1.3-0.2,2.4c1.4-0.4,3.5-1,4.4-1.2
			c0.5-0.2,0.7-0.5,1-0.5c0.6,0,1.8,1,1.8,1.5c0,0.4-0.6,0.5-1,0.8c-0.8,0.8-2.1,1.9-3.5,2.8L50.8,33.1z"/>
		<path d="M60.6,26.8c0.4-0.2,0.9-0.4,1.3-0.4c0.8,0,2,0.8,2,1.3c0,0.3-0.4,0.6-0.4,1.1c-0.1,0.9-0.2,5.3-0.2,6.9
			c0,0.2,0.1,0.2,0.2,0.2c2.9-0.9,7.1-3.7,9.5-6.1l0.3,0.3c-2.1,2.9-5.4,5.4-9,7.2c-0.6,0.3-0.6,0.7-1,0.7c-0.5,0-1.4-1.1-1.4-1.5
			c0-0.3,0.3-0.5,0.3-1.1c0.1-1.2,0.1-6.2,0-7.4c0-0.4-0.2-0.6-1.4-0.8L60.6,26.8z"/>
		<path d="M89.7,28l0.4,0.2c-2,3.7-5.2,6.5-8.9,8.9c-0.4,0.2-0.6,0.7-1,0.7c-0.7,0-1.8-0.8-2.2-1.4c-0.2-0.3-0.3-0.9-0.3-1.2
			l0.3-0.2c0.5,0.5,1,1.1,1.6,1.1C80.9,36.1,87.3,31.6,89.7,28z M77.9,26.4c2.1,0.5,4.5,1.6,4.5,3c0,0.5-0.3,0.8-0.7,0.8
			c-0.4,0-0.6-0.2-1.1-0.8c-0.8-1-1.4-1.6-2.9-2.7L77.9,26.4z"/>
		<path d="M96.9,25.4c0.5-0.1,0.8-0.3,1.2-0.3c0.8,0,2,0.7,2,1.1c0,0.4-0.3,0.5-0.4,1.1c-0.1,0.8-0.1,1.9-0.2,2.9
			c1.6,0.3,3.3,0.9,4.2,1.4c0.6,0.4,1,0.8,1,1.4c0,0.4-0.2,0.7-0.7,0.7c-0.7,0-0.9-0.7-2-1.6c-0.7-0.5-1.5-1-2.6-1.4
			c0,1.3,0,4,0,5.7c0,0.8,0.1,1.3,0.1,1.6c0,0.6-0.2,0.8-0.6,0.8c-0.7,0-1-0.9-1-1.7c0-0.4,0.2-0.7,0.2-1.4c0.1-1.3,0.1-3.9,0.1-5.1
			c0-1.4,0-3.3-0.1-4.1c-0.1-0.5-0.5-0.7-1.3-0.8L96.9,25.4z"/>
		<path d="M110.9,29.6l0.2-0.4c0.8,0.2,1.5,0.3,2.3,0.6c1.1,0.4,1.9,1,1.9,1.8c0,0.3-0.2,0.6-0.6,0.6c-0.6,0-0.9-0.6-1.8-1.3
			C112.2,30.4,111.6,30,110.9,29.6z M123.7,28.6l0.4,0.2c-1.9,3.4-5.5,6.5-9.3,8.7c-0.4,0.2-0.6,0.7-1.1,0.7c-0.6,0-1.7-0.7-2.1-1.3
			c-0.2-0.3-0.4-1-0.4-1.3l0.3-0.2c0.4,0.5,1,1.1,1.6,1.1C114.5,36.5,120.7,32.6,123.7,28.6z M113.1,26.3l0.2-0.4
			c0.6,0.1,1.4,0.3,2.2,0.6c1.2,0.5,1.8,1.1,1.8,1.8c0,0.4-0.3,0.7-0.6,0.7c-0.6,0-0.9-0.7-1.8-1.4C114.3,27,113.6,26.5,113.1,26.3z
			"/>
		<path d="M127.9,29.3c0.4,0.4,0.7,0.9,1.1,0.9c1.2,0,5.7-0.7,8.5-1c1.2-0.1,1.5-0.3,1.7-0.3c0.8,0,1.8,0.4,1.8,1
			c0,0.4-0.1,0.5-0.5,0.5c-0.3,0-1-0.1-1.9-0.1c-0.7,0-2.1,0.1-3.5,0.2c0.5,0.3,0.9,0.6,0.9,0.9c0,0.4-0.4,0.5-0.6,1.1
			c-0.7,1.8-1.9,4.6-5.9,6.7l-0.3-0.3c4-2.6,5-6.5,5-7.5c0-0.2-0.1-0.4-0.2-0.7c-1.3,0.2-2.8,0.5-3.3,0.6c-0.5,0.2-1,0.4-1.5,0.4
			c-0.4,0-1.2-0.7-1.4-1.2c-0.1-0.2-0.1-0.5-0.1-0.9L127.9,29.3z M130.4,25.7c0.7,0.5,1.2,0.6,1.7,0.6c1.1,0,2.3-0.2,3.1-0.4
			c1-0.2,1.2-0.5,1.5-0.5c0.8,0,1.5,0.3,1.5,0.8c0,0.3-0.2,0.4-0.7,0.5c-1.3,0.3-3.8,0.7-5.3,0.7c-0.9,0-1.4-0.5-2-1.5L130.4,25.7z"
			/>
		<path d="M152,28.4c0.3,0,0.6,0,1,0.1c0.6,0.2,1.3,0.8,1.3,1.3c0,0.3-0.3,0.3-0.6,0.7c-0.5,0.5-1.1,1.2-1.9,1.9
			c0.4,0.3,0.7,0.5,0.7,0.7c0,0.2-0.1,0.4-0.1,0.7c-0.1,1.8,0,3.7,0,4.4c0,0.5-0.2,0.8-0.6,0.8c-0.6,0-0.8-0.6-0.8-1.2
			c0-0.2,0.1-0.5,0.1-0.9c0.1-1.1,0.2-2.8,0.2-3.4c0-0.2-0.1-0.4-0.1-0.5c-0.9,0.7-2.8,2.2-5,3l-0.2-0.3c3.5-2,6.7-5.6,6.7-6.4
			c0-0.3-0.4-0.5-0.7-0.7L152,28.4z"/>
		<path d="M174.1,25c0,0,1.1,0.8,1.8,1.4c-0.1,0.2-0.2,0.3-0.5,0.3h-6.8v2.1h4.5l0.7-0.8l1.6,1.2c-0.1,0.1-0.4,0.3-0.7,0.3v8.2
			c0,1-0.2,1.6-2.1,1.8c-0.1-0.4-0.2-0.7-0.4-1c-0.3-0.2-0.7-0.4-1.6-0.5v-0.3c0,0,1.8,0.1,2.3,0.1c0.3,0,0.4-0.1,0.4-0.4v-8.3
			h-10.4V39c0,0.2-0.6,0.5-1.1,0.5h-0.2V28.1l1.5,0.7h4.3v-2.1h-6.9l-0.2-0.5h7.1v-2.3l2,0.2c0,0.2-0.2,0.4-0.6,0.5v1.6h4.5
			L174.1,25z M168.6,35.5v3.3c0,0.1-0.4,0.3-1.1,0.3h-0.2v-3.6h-3.5l-0.1-0.5h3.6v-2.1h-3.3l-0.1-0.5h4.7c0.4-0.8,0.7-2,1-2.9
			l1.8,0.6c-0.1,0.2-0.3,0.3-0.6,0.3c-0.4,0.6-1.1,1.4-1.7,2h1.3l0.7-0.9c0,0,0.8,0.6,1.3,1.1c-0.1,0.2-0.2,0.3-0.4,0.3h-3.3V35h1.6
			l0.8-1c0,0,0.9,0.7,1.5,1.2c-0.1,0.2-0.2,0.3-0.4,0.3H168.6z M165.1,29.6c3.1,1.1,1.9,3.4,0.8,2.4c-0.1-0.8-0.5-1.8-1-2.3
			L165.1,29.6z"/>
		<path d="M183.3,28.4c-0.1,0.2-0.3,0.3-0.7,0.2c-0.4,0.5-0.9,1.1-1.5,1.8l0.6,0.2c-0.1,0.1-0.2,0.3-0.5,0.3v8.2
			c0,0.1-0.6,0.4-1.1,0.4h-0.3v-7.9c-0.8,0.8-1.7,1.5-2.7,2.1l-0.2-0.2c1.8-1.7,3.6-4.4,4.5-6.1L183.3,28.4z M183.1,24.9
			c-0.1,0.2-0.3,0.2-0.6,0.2c-1.1,1.2-3,2.8-4.9,3.8l-0.2-0.2c1.5-1.3,3.2-3.4,4-4.8L183.1,24.9z M191.4,28.2c0,0,1,0.8,1.6,1.3
			c0,0.2-0.2,0.3-0.4,0.3h-2.7v7.6c0,1-0.3,1.8-2.3,1.9c0-0.4-0.2-0.8-0.5-1c-0.3-0.2-0.9-0.4-2-0.5v-0.3c0,0,2.4,0.2,2.9,0.2
			c0.4,0,0.5-0.1,0.5-0.4v-7.6h-5.4l-0.1-0.5h7.6L191.4,28.2z M184,25.9l-0.1-0.5h6l0.9-1.1c0,0,1,0.8,1.6,1.3
			c0,0.2-0.2,0.3-0.5,0.3H184z"/>
		<path d="M199.4,28.2c-0.1,0.2-0.3,0.3-0.7,0.2c-0.3,0.6-0.7,1.2-1.2,1.9l0.6,0.2c-0.1,0.2-0.2,0.3-0.5,0.3V39
			c0,0.1-0.5,0.5-1.1,0.5h-0.3v-7.7c-0.6,0.7-1.4,1.5-2.1,2.1l-0.2-0.2c1.5-1.8,2.8-4.6,3.4-6.4L199.4,28.2z M199.3,24.8
			c-0.1,0.2-0.3,0.3-0.7,0.2c-1,1.2-2.6,2.8-4.3,3.8l-0.2-0.2c1.3-1.4,2.7-3.4,3.4-4.8L199.3,24.8z M200.5,34.8
			c0.3,1.6-0.1,2.8-0.6,3.3c-0.3,0.4-1.1,0.4-1.3,0c-0.2-0.4,0-0.8,0.4-1c0.5-0.4,1.2-1.4,1.3-2.3L200.5,34.8z M200.8,32.7v0.6
			c0,0.1-0.4,0.4-1,0.4h-0.2V28l1.4,0.6h2.5v-1.8h-4.4l-0.1-0.5h4.5V24l2,0.2c0,0.2-0.2,0.4-0.6,0.5v1.6h2.6l0.9-1.1
			c0,0,1,0.8,1.6,1.3c-0.1,0.2-0.2,0.3-0.4,0.3h-4.6v1.8h2.9l0.6-0.7l1.3,1c-0.1,0.1-0.3,0.2-0.6,0.3v4c0,0.1-0.5,0.3-1.1,0.3h-0.2
			v-0.8H200.8z M200.8,29.1v3.1h1.5v-3.1H200.8z M207,37.9c0.4,0.1,0.5,0.3,0.5,0.5c0,0.5-0.5,0.8-2.8,0.8h-1.5
			c-1.3,0-1.5-0.3-1.5-1.1v-3.9l1.7,0.2c0,0.2-0.2,0.4-0.5,0.4v3c0,0.2,0,0.3,0.5,0.3h1.3h1.2c0.2,0,0.3-0.1,0.3-0.2
			c0.1-0.2,0.3-0.9,0.5-1.7h0.2L207,37.9z M202.8,33.1c3.9,0.5,3.2,3.2,1.8,2.4c-0.3-0.8-1.2-1.8-2-2.3L202.8,33.1z M205,32.2v-3.1
			h-1.6v3.1H205z M206.1,29.1v3.1h1.7v-3.1H206.1z M207,34.3c4.2,1.8,3.1,4.9,1.8,3.8c-0.1-1.2-1.1-2.8-2-3.7L207,34.3z"/>
		<path d="M216.4,39.6h-5.3V39h4.6V28.6h0.6V39.6z"/>
		<path d="M224.3,25c0.5,0.1,1,0.2,1.3,0.4c0.5,0.3,1.2,0.9,1.2,1.2c0,0.3-0.4,0.4-0.6,0.8c-0.4,0.7-0.7,1.3-1.2,1.9
			c0.2,0.1,0.4,0.1,0.6,0.1c0.9,0,4.6-0.5,5.5-0.7c0.7-0.1,0.9-0.4,1.2-0.4c0.6,0,1.6,0.4,1.6,0.9c0,0.3-0.1,0.5-0.7,0.5
			c-0.6,0-1.6,0-2.4,0c-0.6,0-1.5,0.1-2.4,0.2c0.7,0.3,1.3,0.8,1.3,1.1c0,0.3-0.3,0.5-0.5,0.8c-1.1,2.8-3.2,5.3-6.6,7l-0.3-0.3
			c3.3-2.2,5.6-6,5.6-7.7c0-0.4-0.2-0.6-0.5-0.8c-0.3,0-0.6,0.1-0.9,0.1c-0.4,0.1-0.8,0.2-1.1,0.2c-0.3,0-0.6-0.3-0.9-0.5
			c-1,1.3-2.3,2.5-3.9,3.6l-0.3-0.3c2.6-2.2,4.6-5.6,4.6-6.8c0-0.4-0.2-0.7-0.8-1.1L224.3,25z M231.1,25.2c0.9,0.3,1.5,0.7,1.9,1.1
			c0.4,0.4,0.6,0.7,0.6,1.1c0,0.3-0.2,0.5-0.5,0.5c-0.3,0-0.5-0.3-0.8-0.7c-0.3-0.5-0.7-1-1.5-1.6L231.1,25.2z M232.7,24.3
			c0.9,0.3,1.5,0.6,2,0.9c0.4,0.4,0.6,0.7,0.6,1.1c0,0.3-0.2,0.5-0.5,0.5c-0.3,0-0.5-0.4-0.8-0.8c-0.4-0.4-0.7-0.8-1.5-1.4
			L232.7,24.3z"/>
		<path d="M240,26.6c0.3,0.4,0.7,1,1.2,1c1,0,4.2-0.6,5.2-0.8c0.4-0.1,0.6-0.5,0.9-0.5c0.6,0,1.8,1,1.8,1.4c0,0.4-0.6,0.5-0.8,0.9
			c-0.6,0.9-1.5,2.4-2.8,3.8c2.8,1.1,5.5,2.9,5.5,4.5c0,0.4-0.2,0.7-0.7,0.7c-0.5,0-0.8-0.5-1.6-1.5c-1-1.3-2-2.3-3.5-3.3
			c-1.6,1.6-4,3.8-7.5,5.1l-0.2-0.4c4-2.1,8.1-6.2,9.6-9.6c0.1-0.2,0-0.3-0.2-0.3c-1.1,0.2-3.4,0.7-4.3,1c-0.5,0.2-0.6,0.5-1.1,0.5
			c-0.6,0-1.3-0.8-1.5-1.3c-0.1-0.3-0.2-0.6-0.2-1.1L240,26.6z"/>
		<path d="M258.4,25.4c0.5-0.1,0.8-0.3,1.2-0.3c0.8,0,2,0.7,2,1.1c0,0.4-0.3,0.5-0.4,1.1c-0.1,0.8-0.1,1.9-0.2,2.9
			c1.6,0.3,3.3,0.9,4.2,1.4c0.6,0.4,1,0.8,1,1.4c0,0.4-0.2,0.7-0.7,0.7c-0.7,0-0.9-0.7-2-1.6c-0.7-0.5-1.5-1-2.6-1.4
			c0,1.3,0,4,0,5.7c0,0.8,0.1,1.3,0.1,1.6c0,0.6-0.2,0.8-0.6,0.8c-0.7,0-1-0.9-1-1.7c0-0.4,0.2-0.7,0.2-1.4c0.1-1.3,0.1-3.9,0.1-5.1
			c0-1.4,0-3.3-0.1-4.1c-0.1-0.5-0.5-0.7-1.3-0.8L258.4,25.4z"/>
		<path d="M279,25.3c0.4-0.2,0.8-0.3,1.1-0.3c0.8,0,1.9,0.7,1.9,1.1c0,0.4-0.3,0.3-0.4,1.1c0,0.6,0,1.4-0.1,2.1
			c1.9-0.2,2-0.3,2.4-0.3c0.8,0,1.8,0.4,1.8,1c0,0.4-0.2,0.5-0.5,0.5c-0.5,0-1.2-0.2-2.6-0.2c-0.3,0-0.7,0-1.1,0
			c-0.1,2.2-0.2,4.2-1.2,5.7c-0.9,1.2-2.5,2.3-4.6,3l-0.2-0.4c1.3-0.7,2.8-1.6,3.8-3.1c0.8-1.3,1-3.2,1-5.2
			c-1.2,0.1-2.4,0.2-3.5,0.3c0,1.4,0,2.7,0,3.3c0,0.7-0.2,1-0.6,1c-0.5,0-0.8-0.8-0.8-1.3c0-0.5,0.3-1,0.3-2.8
			c-0.8,0.1-1.5,0.3-2,0.4c-0.4,0.1-0.8,0.4-1.2,0.4c-0.5,0-1.2-0.9-1.3-1.2c-0.1-0.2-0.1-0.7-0.1-1l0.3-0.1c0.3,0.5,0.6,1,1.1,1
			c0.6,0,2.2-0.2,3.2-0.3c0-0.9,0-2.1-0.1-2.5c-0.1-0.4-0.5-0.5-1.2-0.6v-0.3c0.3-0.2,0.7-0.3,1.1-0.3c0.6,0,1.7,0.5,1.7,1.1
			c0,0.4-0.2,0.4-0.3,0.9c0,0.3-0.1,1-0.1,1.6l3.5-0.3c0-1.5,0-2.5-0.1-3.2c-0.1-0.4-0.5-0.5-1.2-0.6L279,25.3z"/>
		<path d="M289.8,27.4c0.8,0.1,1.5,0.3,2.1,0.8c0,0,0.1,0.1,0.1,0.1c1.7-0.1,5.5-0.4,6.2-0.5c0.6-0.1,0.7-0.5,1.1-0.5
			c0.5,0,1.8,1.1,1.8,1.6c0,0.4-0.6,0.6-0.7,1.1c-0.2,0.8-0.5,2.9-0.9,4.6c0.6,0.1,1.1,0.3,1.1,0.7c0,0.3-0.2,0.6-0.6,0.6
			c-0.4,0-1.3-0.1-2.2-0.1c-1.3,0-3.5,0.1-5.5,0.3c0,0.2,0,0.4,0,0.6c0,0.4-0.2,0.7-0.6,0.7c-0.4,0-0.8-0.5-0.8-1.3
			c0-0.4,0.1-1.3,0.1-2c0-1.2-0.2-3.8-0.5-4.9c-0.2-0.6-0.4-1-1-1.4L289.8,27.4z M298.3,34.6c0.3-1.9,0.7-4.7,0.7-5.6
			c0-0.1-0.1-0.2-0.2-0.2c-1,0-3.6,0.2-4.5,0.3c-0.5,0.1-1.1,0.2-1.4,0.2c-0.2,0-0.5-0.1-0.7-0.2c0.1,1.2,0.2,4.2,0.2,5.9
			C294.1,34.9,296.7,34.7,298.3,34.6z"/>
		<path d="M319.2,28l0.4,0.2c-2,3.7-5.2,6.5-8.9,8.9c-0.4,0.2-0.6,0.7-1,0.7c-0.7,0-1.8-0.8-2.2-1.4c-0.2-0.3-0.3-0.9-0.3-1.2
			l0.3-0.2c0.5,0.5,1,1.1,1.6,1.1C310.4,36.1,316.8,31.6,319.2,28z M307.4,26.4c2.1,0.5,4.5,1.6,4.5,3c0,0.5-0.3,0.8-0.7,0.8
			c-0.4,0-0.6-0.2-1.1-0.8c-0.8-1-1.4-1.6-2.9-2.7L307.4,26.4z"/>
	</g>
</g>
<g>
	<g>
		<path d="M54.5,69.8c0-10,3.9-14.9,9.8-14.9c5.9,0,9.8,4.9,9.8,14.9c0,10-3.9,15.2-9.8,15.2C58.5,84.9,54.5,79.8,54.5,69.8z
			 M68.7,69.8c0-8.1-1.9-10.5-4.3-10.5c-2.5,0-4.4,2.4-4.4,10.5c0,8.2,1.9,10.7,4.4,10.7C66.8,80.4,68.7,77.9,68.7,69.8z"/>
		<path d="M79.9,79.7h6.2V61.4h-5.3v-3.6c2.9-0.5,4.9-1.3,6.7-2.4h4.3v24.3h5.4v4.7H79.9V79.7z"/>
		<path d="M102.2,81.1c7.9-7.1,12.5-12.5,12.5-17c0-2.9-1.6-4.7-4.3-4.7c-2.1,0-3.9,1.4-5.3,3l-3.1-3.1c2.7-2.8,5.3-4.4,9.2-4.4
			c5.5,0,9.1,3.5,9.1,8.9c0,5.3-4.3,10.9-9.6,16.1c1.5-0.2,3.4-0.3,4.7-0.3h6.3v4.9h-19.4V81.1z"/>
		<path d="M126.1,69.8c0-10,3.9-14.9,9.8-14.9c5.9,0,9.8,4.9,9.8,14.9c0,10-3.9,15.2-9.8,15.2C130,84.9,126.1,79.8,126.1,69.8z
			 M140.3,69.8c0-8.1-1.9-10.5-4.3-10.5c-2.5,0-4.4,2.4-4.4,10.5c0,8.2,1.9,10.7,4.4,10.7C138.4,80.4,140.3,77.9,140.3,69.8z"/>
		<path d="M150.2,67.9h10.7V72h-10.7V67.9z"/>
		<path d="M164.6,81l2.7-3.7c1.6,1.6,3.7,2.9,6.4,2.9c3,0,5.1-1.9,5.1-5.3c0-3.4-2-5.3-4.9-5.3c-1.7,0-2.7,0.4-4.3,1.5l-2.6-1.7
			l0.8-14.1h15.5v4.8h-10.5l-0.5,6.2c1.1-0.5,2.2-0.8,3.5-0.8c4.9,0,8.9,2.9,8.9,9.2c0,6.5-4.8,10.2-10.1,10.2
			C169.8,84.9,166.7,83.1,164.6,81z"/>
		<path d="M189.2,77.2c0-3.7,2.3-6.1,5-7.6v-0.2c-2.2-1.6-3.8-3.8-3.8-6.9c0-4.7,3.7-7.6,8.7-7.6c5.1,0,8.4,3.1,8.4,7.7
			c0,2.9-1.8,5.3-3.7,6.6v0.2c2.7,1.5,4.9,3.8,4.9,7.8c0,4.4-3.9,7.8-9.8,7.8C193.4,84.9,189.2,81.7,189.2,77.2z M203.3,77
			c0-3-2.7-4.3-6.4-5.8c-1.6,1.3-2.7,3.2-2.7,5.4c0,2.6,2.2,4.3,4.9,4.3C201.5,80.9,203.3,79.5,203.3,77z M202.8,63
			c0-2.4-1.4-4-3.8-4c-2,0-3.5,1.3-3.5,3.6c0,2.7,2.2,4.1,5.3,5.3C202.2,66.3,202.8,64.7,202.8,63z"/>
		<path d="M214.5,79.7h6.2V61.4h-5.3v-3.6c2.9-0.5,4.9-1.3,6.7-2.4h4.3v24.3h5.4v4.7h-17.4V79.7z"/>
		<path d="M237,67.9h10.7V72H237V67.9z"/>
		<path d="M253.6,79.7h6.2V61.4h-5.3v-3.6c2.9-0.5,4.9-1.3,6.7-2.4h4.3v24.3h5.4v4.7h-17.4V79.7z"/>
		<path d="M275.3,81l2.7-3.7c1.6,1.6,3.7,2.9,6.4,2.9c3,0,5.1-1.9,5.1-5.3c0-3.4-2-5.3-4.9-5.3c-1.7,0-2.7,0.4-4.3,1.5l-2.6-1.7
			l0.8-14.1h15.5v4.8h-10.5l-0.5,6.2c1.1-0.5,2.2-0.8,3.5-0.8c4.9,0,8.9,2.9,8.9,9.2c0,6.5-4.8,10.2-10.1,10.2
			C280.5,84.9,277.4,83.1,275.3,81z"/>
		<path d="M301.3,79.7h6.2V61.4h-5.3v-3.6c2.9-0.5,4.9-1.3,6.7-2.4h4.3v24.3h5.4v4.7h-17.4V79.7z"/>
	</g>
	<g>
		<path d="M46.1,79.8c-1.5,0-2.6,1.2-2.6,2.6c0,1.4,1.2,2.6,2.6,2.6c1.4,0,2.6-1.2,2.6-2.6C48.8,80.9,47.6,79.8,46.1,79.8z
			 M46.1,84.7c-1.3,0-2.3-1-2.3-2.3c0-1.3,1-2.3,2.3-2.3c1.3,0,2.3,1,2.3,2.3C48.5,83.7,47.4,84.7,46.1,84.7z"/>
		<path d="M46.9,82.1c0.1-0.2,0.2-0.4,0.2-0.6c0-0.3-0.1-0.5-0.3-0.7c-0.2-0.2-0.4-0.2-0.8-0.2h-1v3.5h0.4v-1.6h0.4l1,1.6h0.5
			l-1.1-1.7C46.5,82.4,46.7,82.3,46.9,82.1z M45.4,82.2V81H46c0.5,0,0.7,0.2,0.7,0.6c0,0.2-0.1,0.3-0.2,0.4
			c-0.1,0.1-0.3,0.2-0.5,0.2H45.4z"/>
		<path d="M10.6,78.5c2.3,0,5.2-1.8,5.2-5.4c0-2.8-2.8-5.1-5.2-6.5c-2.4,1.4-5.2,3.6-5.2,6.5C5.4,76.7,8.3,78.5,10.6,78.5z"/>
		<path d="M31.7,78.4c2.3,0,5.2-1.8,5.2-5.4c0-2.8-2.8-5.1-5.2-6.5c-2.4,1.4-5.2,3.6-5.2,6.5C26.5,76.7,29.4,78.4,31.7,78.4z"/>
		<path d="M0,61.4c4.4,0,8.1,1.1,10.7,2.4c2.6-1.3,6.2-2.4,10.4-2.4c4.3,0,7.9,1.1,10.4,2.4c2.5-1.3,6.3-2.4,10.7-2.4v-4.3H0V61.4z"
			/>
		<path d="M39.3,73.1c0,4.4-3.7,7.8-7.8,7.8c-4.1,0-7.6-3.4-7.6-7.8c0-3.3,2.4-6,5-7.7c-2.4-1-5.3-1.5-7.8-1.5
			c-2.5,0-5.4,0.5-7.8,1.5c2.6,1.7,5,4.4,5,7.7c0,4.4-3.6,7.8-7.6,7.8c-4.1,0-7.8-3.4-7.8-7.8c0-3.3,2.6-6,5.2-7.7
			c-2.4-1-5.3-1.5-8-1.5v20.8h42.2V63.8c-2.7,0-5.7,0.5-8,1.5C36.8,67.1,39.3,69.7,39.3,73.1z"/>
	</g>
</g>
<g>
	<path class="st0" d="M34.5,103.9c-0.6,1.3-1.6,2.3-2.7,3c1.3,0.6,2.8,1,4.4,1.2c-0.2,0.2-0.4,0.6-0.5,0.8c-1.8-0.3-3.4-0.7-4.8-1.5
		c-1.4,0.7-3.1,1.2-4.8,1.5c-0.1-0.2-0.3-0.6-0.5-0.8c1.6-0.2,3.2-0.6,4.5-1.2c-1-0.7-1.8-1.5-2.4-2.5l0.1,0h-0.5v-0.8h6.5l0.2,0
		L34.5,103.9z M26.6,103.8h-0.8v-2.4h1.9c-0.1-0.4-0.5-1.1-0.8-1.6l0.8-0.2c0.3,0.5,0.7,1.1,0.9,1.6l-0.7,0.2H33
		c0.4-0.6,0.9-1.4,1.1-2l0.9,0.3c-0.3,0.6-0.7,1.2-1.1,1.8H36v2.4h-0.9v-1.6h-8.5V103.8z M35.3,98.7c-2.4,0.5-6.1,0.8-9.2,0.9
		c0-0.2-0.1-0.6-0.2-0.8c3.1-0.1,6.7-0.4,8.8-0.9L35.3,98.7z M28.6,104.4c0.6,0.8,1.4,1.5,2.4,2.1c0.9-0.5,1.7-1.2,2.3-2.1H28.6z
		 M30.7,101.3c-0.1-0.5-0.3-1.2-0.6-1.8l0.8-0.2c0.3,0.6,0.6,1.3,0.6,1.7L30.7,101.3z"/>
	<path class="st0" d="M41.3,98.3c-0.4,0.9-0.8,1.8-1.3,2.6v8h-0.9v-6.6c-0.4,0.5-0.8,1-1.2,1.5c-0.1-0.2-0.4-0.7-0.6-0.9
		c1.2-1.2,2.4-3,3-4.8L41.3,98.3z M48.3,101.5h-1.5v6.2c0,0.7-0.2,0.9-0.6,1.1c-0.5,0.1-1.3,0.2-2.6,0.1c0-0.2-0.2-0.6-0.3-0.9
		c1,0,2,0,2.3,0c0.3,0,0.4-0.1,0.4-0.4v-6.2H41v-0.9h4.8v-2.5h0.9v2.5h1.5V101.5z M43.5,106.1c-0.4-0.7-1.1-2-1.7-3l0.8-0.4
		c0.6,0.9,1.4,2.2,1.8,2.9L43.5,106.1z"/>
	<path class="st0" d="M53.2,106.6h-2.6v1h-0.8v-8.8h3.4V106.6z M50.7,99.6v2.7h1.7v-2.7H50.7z M52.4,105.8V103h-1.7v2.8H52.4z
		 M58.9,102.5v1.4h1.4v0.8h-1.4v3.2c0,0.5-0.1,0.8-0.5,0.9c-0.4,0.1-1,0.1-1.9,0.1c0-0.2-0.2-0.6-0.3-0.8c0.7,0,1.4,0,1.6,0
		c0.2,0,0.3-0.1,0.3-0.2v-3.2h-4.5v-0.8H58v-1.4h-4.6v-0.8h3v-1.5H54v-0.8h2.5V98h0.9v1.4h2.6v0.8h-2.6v1.5h3.1v0.8H58.9z
		 M54.9,105.1c0.6,0.6,1.3,1.5,1.6,2l-0.8,0.5c-0.3-0.6-0.9-1.5-1.5-2.1L54.9,105.1z"/>
	<path class="st0" d="M62.9,102.6v6.4H62V98.5h4.3v4.1H62.9z M62.9,99.2v1h2.6v-1H62.9z M65.5,101.9v-1.1h-2.6v1.1H65.5z
		 M65.4,107.8v0.6h-0.8v-4.9h4.4v4.3H65.4z M65.4,104.2v1.1h2.8v-1.1H65.4z M68.3,107.1v-1.2h-2.8v1.2H68.3z M71.8,107.7
		c0,0.6-0.1,0.9-0.5,1c-0.4,0.1-1,0.2-2,0.2c0-0.3-0.2-0.7-0.3-0.9c0.7,0,1.5,0,1.7,0c0.2,0,0.3-0.1,0.3-0.3v-5.1h-3.5v-4.1h4.4
		V107.7z M68.3,99.2v1h2.7v-1H68.3z M70.9,101.9v-1.1h-2.7v1.1H70.9z"/>
	<path class="st0" d="M75,100.6c0-0.6,0.4-0.9,0.9-0.9c0.5,0,0.9,0.3,0.9,0.9s-0.4,0.9-0.9,0.9C75.4,101.5,75,101.1,75,100.6z
		 M75,106.5c0-0.6,0.4-0.9,0.9-0.9c0.5,0,0.9,0.4,0.9,0.9c0,0.5-0.4,0.9-0.9,0.9C75.4,107.4,75,107,75,106.5z"/>
	<path class="st0" d="M79.9,107.1h2v-6.6h-1.6v-0.7c0.8-0.1,1.3-0.3,1.8-0.6H83v7.9h1.8v0.9h-4.8V107.1z"/>
	<path class="st0" d="M86.1,103.6c0-3.1,1.1-4.5,2.7-4.5c1.7,0,2.7,1.5,2.7,4.5c0,3.1-1.1,4.6-2.7,4.6
		C87.2,108.2,86.1,106.6,86.1,103.6z M90.6,103.6c0-2.6-0.7-3.6-1.7-3.6c-1,0-1.7,1.1-1.7,3.6c0,2.6,0.7,3.7,1.7,3.7
		C89.9,107.3,90.6,106.2,90.6,103.6z"/>
	<path class="st0" d="M94.3,100.6c0-0.6,0.4-0.9,0.9-0.9c0.5,0,0.9,0.3,0.9,0.9s-0.4,0.9-0.9,0.9C94.7,101.5,94.3,101.1,94.3,100.6z
		 M94.3,106.5c0-0.6,0.4-0.9,0.9-0.9c0.5,0,0.9,0.4,0.9,0.9c0,0.5-0.4,0.9-0.9,0.9C94.7,107.4,94.3,107,94.3,106.5z"/>
	<path class="st0" d="M98.8,103.6c0-3.1,1.1-4.5,2.7-4.5c1.7,0,2.7,1.5,2.7,4.5c0,3.1-1.1,4.6-2.7,4.6
		C99.9,108.2,98.8,106.6,98.8,103.6z M103.2,103.6c0-2.6-0.7-3.6-1.7-3.6c-1,0-1.7,1.1-1.7,3.6c0,2.6,0.7,3.7,1.7,3.7
		C102.5,107.3,103.2,106.2,103.2,103.6z"/>
	<path class="st0" d="M105.5,103.6c0-3.1,1.1-4.5,2.7-4.5c1.7,0,2.7,1.5,2.7,4.5c0,3.1-1.1,4.6-2.7,4.6
		C106.5,108.2,105.5,106.6,105.5,103.6z M109.9,103.6c0-2.6-0.7-3.6-1.7-3.6c-1,0-1.7,1.1-1.7,3.6c0,2.6,0.7,3.7,1.7,3.7
		C109.2,107.3,109.9,106.2,109.9,103.6z"/>
	<path class="st0" d="M117.2,103.8c-0.6-0.6-1.2-1-2-1c-0.9,0-1.8,0.6-2.3,1.6l-0.9-0.5c0.8-1.4,1.9-2.1,3.1-2.1
		c1.1,0,1.9,0.4,2.7,1.3c0.6,0.6,1.2,1,2,1c0.9,0,1.8-0.6,2.3-1.6l0.9,0.5c-0.8,1.4-1.9,2.1-3.1,2.1
		C118.8,105.1,118,104.6,117.2,103.8z"/>
	<path class="st0" d="M124.6,107.1h2v-6.6H125v-0.7c0.8-0.1,1.3-0.3,1.8-0.6h0.8v7.9h1.8v0.9h-4.8V107.1z"/>
	<path class="st0" d="M131.5,106.6c0.4,0.4,0.9,0.7,1.5,0.7c1.1,0,2.1-0.9,2.2-3.7c-0.5,0.7-1.3,1.1-2,1.1c-1.5,0-2.4-0.9-2.4-2.8
		c0-1.7,1.2-2.9,2.5-2.9c1.7,0,3,1.4,3,4.2c0,3.6-1.5,4.9-3.2,4.9c-0.9,0-1.6-0.4-2.1-0.9L131.5,106.6z M135.2,102.7
		c-0.1-1.8-0.8-2.8-1.9-2.8c-0.8,0-1.5,0.8-1.5,2c0,1.2,0.5,2,1.6,2C133.9,103.9,134.6,103.5,135.2,102.7z"/>
	<path class="st0" d="M138.9,100.6c0-0.6,0.4-0.9,0.9-0.9c0.5,0,0.9,0.3,0.9,0.9s-0.4,0.9-0.9,0.9
		C139.4,101.5,138.9,101.1,138.9,100.6z M138.9,106.5c0-0.6,0.4-0.9,0.9-0.9c0.5,0,0.9,0.4,0.9,0.9c0,0.5-0.4,0.9-0.9,0.9
		C139.4,107.4,138.9,107,138.9,106.5z"/>
	<path class="st0" d="M143.4,103.6c0-3.1,1.1-4.5,2.7-4.5c1.7,0,2.7,1.5,2.7,4.5c0,3.1-1.1,4.6-2.7,4.6
		C144.5,108.2,143.4,106.6,143.4,103.6z M147.9,103.6c0-2.6-0.7-3.6-1.7-3.6c-1,0-1.7,1.1-1.7,3.6c0,2.6,0.7,3.7,1.7,3.7
		C147.2,107.3,147.9,106.2,147.9,103.6z"/>
	<path class="st0" d="M150.1,103.6c0-3.1,1.1-4.5,2.7-4.5c1.7,0,2.7,1.5,2.7,4.5c0,3.1-1.1,4.6-2.7,4.6
		C151.2,108.2,150.1,106.6,150.1,103.6z M154.5,103.6c0-2.6-0.7-3.6-1.7-3.6c-1,0-1.7,1.1-1.7,3.6c0,2.6,0.7,3.7,1.7,3.7
		C153.8,107.3,154.5,106.2,154.5,103.6z"/>
	<path class="st0" d="M162.6,102c0,1.4,0.9,4.7,5,6.1c-0.2,0.2-0.5,0.6-0.6,0.8c-3.5-1.3-4.6-4.1-4.9-5.2c-0.2,1.2-1.3,3.8-4.7,5.2
		c-0.1-0.2-0.4-0.6-0.6-0.7c4-1.5,4.8-4.8,4.8-6.2v-3.8h0.9V102z M159.5,100.6c-0.2,1.4-0.6,2.9-1.7,3.7l-0.8-0.5
		c1-0.7,1.4-2,1.6-3.3L159.5,100.6z M167,100.8c-0.6,1.1-1.3,2.5-2,3.3l-0.7-0.3c0.6-0.9,1.3-2.3,1.7-3.4L167,100.8z"/>
	<path class="st0" d="M171.2,102.2c0.7,0,1.3,0.6,1.3,1.3c0,0.7-0.6,1.3-1.3,1.3c-0.7,0-1.3-0.6-1.3-1.3
		C169.9,102.7,170.5,102.2,171.2,102.2z"/>
	<path class="st0" d="M179.1,101.2c-0.6,3.1-2.1,5.4-3.8,6.5c-0.1-0.2-0.5-0.6-0.7-0.7c1.6-1,2.8-2.8,3.4-5.1h-3.1V101h3.5l0.2,0
		L179.1,101.2z M185.3,100.5c-0.9,1-2.2,2.3-3.3,3.1c0.9,1.6,2.2,2.9,3.8,3.6c-0.2,0.2-0.5,0.5-0.7,0.8c-2.1-1-3.5-3-4.5-5.5v5.1
		c0,0.6-0.2,0.9-0.6,1.1c-0.4,0.2-1.1,0.2-2.2,0.2c0-0.3-0.2-0.7-0.4-1c0.9,0,1.6,0,1.9,0c0.2,0,0.3-0.1,0.3-0.3V98h0.9v2.2
		c0.3,0.9,0.6,1.9,1,2.7c1-0.8,2.1-2,2.8-3L185.3,100.5z"/>
	<path class="st0" d="M197.6,108.5h-5.5v0.4h-0.8v-4.2c-0.3,0.3-0.5,0.6-0.8,0.8c-0.1-0.1-0.2-0.2-0.3-0.3v1.6h-2.3v1h-0.8v-8.9h3.1
		v5.9c0.7-0.7,1.4-1.7,1.8-2.5h-1.3v-0.6h2.2v-0.9h-2v-0.6h2v-0.9h-2.2v-0.7h3v3.7h-1.1l0.3,0.1c-0.1,0.3-0.3,0.6-0.5,0.9h1.7
		c0.1-0.3,0.3-0.7,0.4-0.9h-0.3v-0.6h2.3v-0.9h-2.1v-0.6h2.1v-0.9h-2.3v-0.7h3v3.7h-2.3l0.5,0.1c-0.1,0.3-0.3,0.6-0.4,0.8h2.4v0.7
		h-2.6v0.9h2.3v0.6h-2.3v0.9h2.3v0.6h-2.3v1h2.9V108.5z M187.9,99.5v2.7h1.5v-2.7H187.9z M189.4,105.8V103h-1.5v2.8H189.4z
		 M194,103.7h-1.9v0.9h1.9V103.7z M194,105.3h-1.9v0.9h1.9V105.3z M192.1,107.8h1.9v-1h-1.9V107.8z"/>
	<path class="st0" d="M204.6,107.7c0.6,0.1,1.2,0.1,1.9,0.1c0.4,0,2.5,0,3.1,0c-0.1,0.2-0.3,0.6-0.3,0.9h-2.8
		c-2.5,0-4.3-0.4-5.4-2.5c-0.4,1.1-1,2-1.8,2.7c-0.1-0.2-0.5-0.5-0.7-0.6c1.3-1,2-2.7,2.2-4.9l0.9,0.1c-0.1,0.6-0.2,1.1-0.3,1.6
		c0.5,1.3,1.2,1.9,2.2,2.3v-5h-3v-0.8h6.9v0.8h-3.1v2h3.5v0.8h-3.5V107.7z M200.1,101.9h-0.9v-2.6h4.5V98h0.9v1.4h4.5v2.6h-0.9v-1.8
		h-8.2V101.9z"/>
	<path class="st0" d="M214.6,98.3c-0.4,0.9-0.8,1.8-1.3,2.6v8h-0.9v-6.7c-0.4,0.6-0.9,1.1-1.4,1.6c-0.1-0.2-0.4-0.7-0.5-0.9
		c1.3-1.1,2.5-2.9,3.2-4.8L214.6,98.3z M218.6,101.9c0.8,1.9,2,3.8,3.3,4.8c-0.2,0.2-0.5,0.5-0.7,0.7c-1.2-1.1-2.3-2.9-3.1-4.8v6.3
		h-0.9v-6.1c-0.8,1.9-1.9,3.6-3.1,4.6c-0.2-0.2-0.5-0.5-0.7-0.7c1.3-1,2.6-3,3.3-4.9h-2.9V101h3.4v-2.9h0.9v2.9h3.5v0.9H218.6z"/>
	<path class="st0" d="M224.5,103.5c0-2.3,0.9-4.2,2.4-5.7l0.7,0.4c-1.4,1.4-2.2,3.2-2.2,5.3s0.9,3.9,2.2,5.3l-0.7,0.4
		C225.5,107.7,224.5,105.8,224.5,103.5z"/>
	<path class="st0" d="M232.9,105.4c-0.3-0.4-0.9-1.1-1.4-1.6v5.1h-0.9v-4.6c-0.6,0.6-1.1,1.1-1.7,1.5c-0.1-0.2-0.3-0.6-0.5-0.8
		c1.4-0.8,2.8-2.4,3.6-3.9h-3.1v-0.8h1.7V98h0.9v2.2h1l0.2,0l0.5,0.3c-0.3,0.9-0.9,1.8-1.4,2.5c0.5,0.4,1.5,1.4,1.8,1.7L232.9,105.4
		z M238.8,108.1c0.3,0,0.3-0.3,0.4-1.7c0.2,0.1,0.5,0.3,0.7,0.3c-0.1,1.7-0.3,2.1-1,2.1h-1c-0.8,0-1-0.3-1-1.2v-4.3h-1.2
		c-0.1,2.7-0.5,4.5-2.6,5.5c-0.1-0.2-0.4-0.5-0.6-0.7c1.9-0.9,2.2-2.5,2.3-4.8h-1.2v-4.6h5.6v4.6h-1.5v4.3c0,0.4,0.1,0.4,0.3,0.4
		H238.8z M234.4,102.6h3.9v-3h-3.9V102.6z"/>
	<path class="st0" d="M250.1,98.8v9.9h-0.9V108h-5.9v0.8h-0.9v-10H250.1z M243.2,99.7v3.2h5.9v-3.2H243.2z M249.2,107.1v-3.3h-5.9
		v3.3H249.2z"/>
	<path class="st0" d="M255.3,98.9c-0.1,0.2-0.2,0.6-0.2,0.8c-0.2,1.1-0.6,3.5-0.6,4.8c0,0.6,0,1,0.1,1.6c0.2-0.5,0.5-1.2,0.7-1.7
		l0.5,0.4c-0.3,0.8-0.7,2-0.8,2.6c0,0.2-0.1,0.4-0.1,0.5c0,0.1,0,0.3,0,0.4l-0.9,0.1c-0.2-0.9-0.5-2.2-0.5-3.8c0-1.7,0.4-4,0.5-5
		c0-0.3,0.1-0.6,0.1-0.8L255.3,98.9z M263,107.5c-0.6-0.6-1.2-1-1.8-1.4v0.2c0,1-0.5,1.9-2.1,1.9c-1.6,0-2.5-0.7-2.5-1.7
		c0-1,0.9-1.8,2.4-1.8c0.4,0,0.8,0,1.1,0.1c0-0.9-0.1-2.1-0.1-3c-0.4,0-0.8,0-1.1,0c-0.7,0-1.3,0-2-0.1v-0.9c0.7,0.1,1.3,0.1,2,0.1
		c0.4,0,0.7,0,1.1,0v-1.5c0-0.2,0-0.5-0.1-0.7h1.1c0,0.2-0.1,0.5-0.1,0.7c0,0.3,0,0.9,0,1.4c0.7,0,1.4-0.1,2.1-0.3v0.9
		c-0.6,0.1-1.3,0.2-2.1,0.2c0,1.2,0.1,2.4,0.1,3.4c1,0.4,1.7,1,2.3,1.5L263,107.5z M260.3,105.8c-0.4-0.1-0.8-0.2-1.2-0.2
		c-0.9,0-1.5,0.4-1.5,0.9c0,0.6,0.6,0.9,1.4,0.9c1,0,1.3-0.5,1.3-1.3C260.3,106.1,260.3,105.9,260.3,105.8z"/>
	<path class="st0" d="M268.6,98.8c-0.4,1-0.8,2.2-1.2,3.2c0.9,1,1.1,1.8,1.1,2.6c0,0.6-0.1,1.1-0.5,1.4c-0.2,0.1-0.4,0.2-0.6,0.2
		s-0.5,0-0.8,0c0-0.2-0.1-0.6-0.2-0.8c0.3,0,0.5,0,0.7,0c0.2,0,0.3,0,0.4-0.1c0.2-0.1,0.2-0.5,0.2-0.8c0-0.6-0.2-1.5-1.1-2.4
		c0.3-0.9,0.7-1.9,0.9-2.8H266v9.6h-0.8V98.5h2.7l0.1,0L268.6,98.8z M270.4,105.3c-0.4,1.1-1.1,2.2-1.7,2.9
		c-0.1-0.1-0.5-0.4-0.6-0.5c0.7-0.6,1.2-1.6,1.6-2.5L270.4,105.3z M272.3,98c0.9,1.3,2.3,2.6,3.5,3.3c-0.2,0.2-0.4,0.5-0.5,0.7
		c-1.2-0.8-2.6-2.1-3.4-3.2c-0.7,1.1-2,2.5-3.3,3.3c-0.1-0.2-0.3-0.5-0.5-0.7c1.4-0.8,2.7-2.2,3.4-3.4H272.3z M272.3,104.5v3.4
		c0,0.5-0.1,0.7-0.4,0.9c-0.3,0.1-0.8,0.2-1.5,0.2c0-0.2-0.2-0.6-0.3-0.8c0.6,0,1.1,0,1.2,0s0.2,0,0.2-0.2v-3.4h-2.7v-0.8h2.7v-1.5
		h-1.8v-0.8h4.6v0.8h-1.9v1.5h2.9v0.8H272.3z M273.9,105.1c0.6,0.8,1.4,1.9,1.7,2.6l-0.7,0.4c-0.3-0.7-1-1.8-1.6-2.7L273.9,105.1z"
		/>
	<path class="st0" d="M284.6,99.2c-0.3,0.2-0.6,0.5-0.8,0.7c-0.8,0.7-2.5,2.1-3.4,2.8c-0.7,0.6-0.7,0.8,0,1.4
		c1.1,0.9,3.3,2.7,4.4,3.8l-0.9,0.8c-0.2-0.3-0.6-0.6-0.8-0.9c-0.6-0.7-2.6-2.4-3.7-3.3c-1.1-0.9-1-1.5,0.1-2.4
		c0.9-0.8,2.7-2.2,3.5-3c0.2-0.2,0.6-0.6,0.7-0.8L284.6,99.2z"/>
	<path class="st0" d="M291.8,103.5c0,2.3-0.9,4.2-2.4,5.7l-0.7-0.4c1.4-1.4,2.2-3.2,2.2-5.3s-0.9-3.9-2.2-5.3l0.7-0.4
		C290.9,99.2,291.8,101.1,291.8,103.5z"/>
</g>
</svg>
