<?xml version="1.0" encoding="utf-8"?>
<!-- Generator: Adobe Illustrator 24.0.1, SVG Export Plug-In . SVG Version: 6.00 Build 0)  -->
<svg version="1.1" id="レイヤー_1" xmlns="http://www.w3.org/2000/svg" xmlns:xlink="http://www.w3.org/1999/xlink" x="0px"
	 y="0px" viewBox="0 0 390 127.1" style="enable-background:new 0 0 390 127.1;" xml:space="preserve">
<style type="text/css">
	.st0{fill:#ED9100;}
	.st1{fill:#2CA1DB;}
	.st2{fill:#FFFFFF;}
</style>
<g>
	<g>
		<rect x="963.1" y="1526.5" class="st0" width="390" height="127.1"/>
	</g>
	<g>
		<rect x="1077.6" y="1575" style="fill:none;" width="161.1" height="26.7"/>
		
			<text transform="matrix(1 0 0 1 1082.4905 1598.958)" class="st2" style="font-family:'NotoSansJP-Bold-83pv-RKSJ-H'; font-size:27.2222px; letter-spacing:14;">来場予約</text>
	</g>
</g>
<g>
	<g>
		<rect x="0.5" y="0.9" class="st1" width="390" height="127.1"/>
	</g>
	<g>
		<g>
			<path class="st2" d="M138.1,71.1c2.8,1,5.9,2.3,7.8,3.2l-3.8,1.4c-1.6-0.9-4.3-2.2-7.1-3.2l2.5-1.4h-7.9l2.5,1.1
				c-2.3,1.5-5.7,2.8-8.5,3.6c-0.6-0.6-1.7-1.8-2.4-2.4c2.6-0.5,5.6-1.4,7.5-2.3h-4V60h5.7c-0.3-0.7-0.8-1.4-1.3-1.9l0,0.1
				c-2.3,0.7-4.9,1.4-6.9,2l-1.2-2.8c2-0.4,4.9-1.1,7.8-1.7l0.3,2.4c4.3-0.7,5.8-1.9,6.4-3.8h-2c-0.6,0.8-1.3,1.5-2.2,2.2
				c-0.6-0.6-1.7-1.2-2.4-1.5c2-1.4,3.3-3.2,4-4.7l2.9,0.5c-0.2,0.5-0.4,0.9-0.7,1.3h8l0.5-0.1l2.2,0.5c-0.7,1.5-1.7,3.1-2.6,4.1
				l-2.5-0.8c0.3-0.4,0.7-0.9,1.1-1.5h-3c0.6,1.8,2.1,3.2,7.6,3.9c-0.6,0.6-1.3,1.9-1.6,2.6c-0.7-0.1-1.3-0.2-1.8-0.4v10.6H138.1z
				 M127.8,55c-1.3-0.7-3.8-1.7-5.7-2.2l1.4-2.2c1.8,0.4,4.4,1.3,5.7,2L127.8,55z M127.8,63.1h11.8V62h-11.8V63.1z M127.8,66.1h11.8
				V65h-11.8V66.1z M127.8,69.1h11.8v-1.2h-11.8V69.1z M141.3,60c-2.1-0.8-3.3-1.8-4.2-2.9c-1,1.3-2.5,2.2-5,2.9H141.3z"/>
			<path class="st2" d="M171.4,69.6c-0.4-0.9-1.2-2.3-2-3.5v9.6h-3V66c-0.9,2.5-2,5.1-3.1,6.7c-0.3-1-1-2.5-1.5-3.3
				c1.4-1.7,2.8-4.6,3.6-7h-3.1v-3h4.1v-8.9h3v8.9h4v3h-4v0.2c0.8,0.8,3.4,3.8,3.9,4.6L171.4,69.6z M163.6,58.7
				c-0.1-1.7-0.6-4.3-1.2-6.3l2.3-0.6c0.7,2,1.3,4.5,1.4,6.2L163.6,58.7z M174,52.3c-0.7,2.2-1.5,4.8-2.2,6.3l-2-0.6
				c0.6-1.7,1.2-4.5,1.5-6.4L174,52.3z M184.6,68.3v7.3h-3v-6.8l-7.6,1.4l-0.5-3l8.1-1.4V50.2h3v15l2.8-0.5l0.5,3L184.6,68.3z
				 M175.3,58.4c1.6,0.8,3.6,2.2,4.6,3.1l-1.6,2.6c-0.9-1-2.9-2.4-4.5-3.4L175.3,58.4z M179.2,57.4c-0.8-1.1-2.7-2.5-4.2-3.5
				l1.6-2.2c1.5,0.9,3.5,2.3,4.3,3.3L179.2,57.4z"/>
			<path class="st2" d="M213.9,57.3h-10.3v-2.6h10.3V57.3z M213,74.2h-5.6v1.1h-2.7V66h8.3V74.2z M213,61h-8.2v-2.5h8.2V61z
				 M204.8,62.2h8.2v2.4h-8.2V62.2z M212.9,53.5h-8v-2.5h8V53.5z M207.5,68.5v3.1h2.8v-3.1H207.5z M228.9,58.3v2.3h-14.9v-2.3h5.9
				v-1.1h-4.6V55h4.6v-1h-5.3v-2.3h5.3v-1.5h3.1v1.5h5.5V54h-5.5v1h5.1v2.2h-5.1v1.1H228.9z M227.4,72.6c0,1.4-0.2,2.1-1.2,2.5
				c-0.9,0.4-2.2,0.5-3.9,0.5c-0.1-0.8-0.5-1.9-0.8-2.6c1,0,2.1,0,2.5,0c0.4,0,0.4-0.1,0.4-0.4v-2h-5.6v5h-3v-14h11.6V72.6z
				 M218.7,63.9v1.2h5.6v-1.2H218.7z M224.4,68.5v-1.3h-5.6v1.3H224.4z"/>
			<path class="st2" d="M254.9,68.1c-2.7,1.7-5.7,3.6-8.1,5l-2-3c2.3-1.1,5.8-3.1,9-5L254.9,68.1z M268.9,60
				c-1.6,1.9-3.7,3.9-5.4,5.4c1.9,2.4,4.3,4.3,7.1,5.6c-0.8,0.7-1.9,2-2.4,2.9c-3.8-2-6.8-5.4-9-9.4v7.3c0,1.9-0.4,2.8-1.5,3.3
				c-1.1,0.6-2.9,0.7-5.3,0.7c-0.1-0.9-0.6-2.4-1.1-3.4c1.7,0.1,3.4,0.1,3.9,0.1c0.5,0,0.7-0.2,0.7-0.7V57.5h-10.3v-3.1h10.3v-4.1
				h3.3v4.1h5.6c-1.1-0.8-2.6-1.6-3.8-2.2l1.9-2c1.6,0.8,3.9,2,5.1,2.8l-1.3,1.4h3v3.1h-10.5v0.3c0.7,1.8,1.5,3.6,2.5,5.2
				c1.5-1.5,3.2-3.4,4.3-5L268.9,60z M250.8,65c-0.8-1.4-2.6-3.5-4.1-4.9l2.5-1.7c1.5,1.4,3.4,3.3,4.2,4.8L250.8,65z"/>
		</g>
	</g>
</g>
</svg>
