<?xml version="1.0" encoding="utf-8"?>
<!-- Generator: Adobe Illustrator 24.0.1, SVG Export Plug-In . SVG Version: 6.00 Build 0)  -->
<svg version="1.1" id="レイヤー_1" xmlns="http://www.w3.org/2000/svg" xmlns:xlink="http://www.w3.org/1999/xlink" x="0px"
	 y="0px" viewBox="0 0 390 127.1" style="enable-background:new 0 0 390 127.1;" xml:space="preserve">
<style type="text/css">
	.st0{fill:#ED9100;}
	.st1{fill:#FFFFFF;}
</style>
<g>
	<g>
		<rect y="0.5" class="st0" width="390" height="127.1"/>
	</g>
	<g>
		<g>
			<path class="st1" d="M136.7,64.8c2.3,2.8,5.8,5.4,9.2,6.9c-0.7,0.7-1.8,1.9-2.3,2.7c-3.3-1.6-6.5-4.4-8.9-7.5v8.4h-3.4v-8.3
				c-2.5,3-5.7,5.7-8.9,7.3c-0.5-0.8-1.5-2.1-2.3-2.7c3.4-1.4,6.9-4,9.3-6.8h-8.5v-3.1h5.1c-0.3-1.3-1.2-3.2-2-4.7l2.8-1.1h-4.6
				v-3.1h9.2v-3h3.4v3h9.4v3.1h-4.5l3.1,0.9c-1,1.8-2,3.6-2.9,4.8h5.3v3.1H136.7z M126.9,55.9c1,1.5,2,3.4,2.3,4.7l-2.6,1h4.7v-5.7
				H126.9z M134.7,55.9v5.7h4.6l-2.3-0.8c0.8-1.3,1.8-3.4,2.3-5H134.7z"/>
			<path class="st1" d="M176.3,63.5c-0.2,0.4-0.5,0.9-0.8,1.3h11.1c0,0,0,0.7-0.1,1.1c-0.4,5.3-0.8,7.5-1.6,8.3
				c-0.5,0.6-1.1,0.8-1.8,0.9c-0.6,0.1-1.7,0.1-2.7,0.1c-0.1-0.8-0.3-1.9-0.7-2.5c0.9,0.1,1.6,0.1,1.9,0.1c0.4,0,0.6-0.1,0.8-0.3
				c0.4-0.4,0.7-1.8,1-5.1h-1.1c-1.1,3-3.2,6.3-5.4,8.1c-0.5-0.6-1.5-1.4-2.3-1.8c2.1-1.3,3.9-3.7,5.1-6.3h-1.6
				c-1.5,2.6-4,5.3-6.4,6.8c-0.5-0.6-1.4-1.4-2.1-1.9c2-1,4.1-2.9,5.6-4.9h-1.6c-1,1-2,2-3.2,2.7c-0.4-0.5-1.4-1.5-2.1-1.9
				c-2,1-3.9,2-5.6,2.8l-1.2-3.3c0.9-0.4,2.1-0.8,3.3-1.3v-7.7h-2.7v-3h2.7v-5.4h3v5.4h2.6v3h-2.6V65l2.2-1l0.6,2.3
				c1-0.8,1.8-1.8,2.5-2.9H170v-2.7h17.1v2.7H176.3z M185.3,59.7h-12.9v-9.2h12.9V59.7z M182.3,52.7h-7v1.3h7V52.7z M182.3,56.2h-7
				v1.3h7V56.2z"/>
			<path class="st1" d="M228.4,61.1c-1.2,2.6-2.8,5.3-4.4,7.1l-2.8-1.6c0.7-0.9,1.4-2.1,2.1-3.3h-5.7v8.5c0,1.7-0.4,2.5-1.7,3
				c-1.3,0.5-3,0.5-5.4,0.5c-0.2-0.9-0.7-2.3-1.2-3.1c1.6,0.1,3.6,0.1,4.2,0.1c0.5,0,0.7-0.1,0.7-0.5v-8.4h-10.8v-3.1h12.4
				c-2-0.8-4.2-1.7-6-2.4l1.6-2.4c1.2,0.4,2.7,1,4.3,1.5c1.2-0.7,2.4-1.6,3.5-2.6h-13.1v-3h16.3l0.7-0.2l2.3,1.8
				c-1.7,1.7-4,3.6-6.3,5.2c0.9,0.4,1.7,0.7,2.3,1l-0.7,1.1h4.3l0.6-0.2L228.4,61.1z"/>
			<path class="st1" d="M248.1,66.2c-0.3,2.6-0.8,5.3-1.6,7c-0.6-0.4-1.8-0.9-2.5-1.2c0.8-1.6,1.2-4,1.4-6.3L248.1,66.2z
				 M269.3,54.4c0,0,0,1.1,0,1.5c-0.4,11.9-0.7,16.2-1.9,17.7c-0.8,1-1.5,1.3-2.6,1.5c-1,0.2-2.7,0.1-4.2,0.1
				c-0.1-0.9-0.5-2.3-1.1-3.3c1.7,0.2,3.3,0.2,4,0.2c0.5,0,0.8-0.1,1.1-0.5c0.8-0.8,1.2-4.8,1.5-14.1h-7.5c-0.7,1.3-1.5,2.5-2.3,3.5
				c-0.5-0.5-1.7-1.3-2.6-1.8c1,1.7,1.8,3.7,2.1,5.1l-2.4,1.1c-0.1-0.4-0.2-0.9-0.4-1.5l-1.6,0.1v11.2h-2.9v-11l-4,0.3l-0.3-2.8
				l2-0.1c0.4-0.5,0.8-1.1,1.3-1.7c-0.8-1.2-2.1-2.6-3.3-3.7l1.5-2.2c0.2,0.2,0.4,0.4,0.7,0.6c0.8-1.5,1.6-3.3,2-4.7l2.9,1
				c-1,1.9-2.1,4-3.1,5.5c0.4,0.4,0.7,0.8,1,1.1c1-1.5,1.9-3.1,2.5-4.5l2.8,1.1c-1.5,2.4-3.4,5.2-5.2,7.4l2.7-0.1
				c-0.3-0.7-0.6-1.3-1-1.9l2.3-1l0.2,0.3c2-2.2,3.6-5.6,4.5-9.1l3.3,0.7c-0.4,1.3-0.8,2.6-1.3,3.9H269.3z M253.9,65.6
				c0.7,1.6,1.4,3.7,1.8,5.1l-2.6,0.9c-0.2-1.4-0.9-3.6-1.6-5.3L253.9,65.6z M260.3,68.4c-0.5-1.7-1.9-4.3-3.3-6.3l2.6-1.3
				c1.4,1.9,3,4.4,3.5,6.1L260.3,68.4z"/>
		</g>
	</g>
</g>
</svg>
