<svg xmlns="http://www.w3.org/2000/svg" viewBox="0 0 390 127.06"><defs><style>.cls-1{fill:#009fe8;}.cls-2{fill:#fff;}</style></defs><g id="レイヤー_2" data-name="レイヤー 2"><g id="telボタン"><rect class="cls-1" x="0.94" y="0.94" width="388.13" height="125.18"/><path class="cls-2" d="M388.13,1.88v123.3H1.88V1.88H388.13M390,0H0V127.06H390V0Z"/><path class="cls-2" d="M79.56,73.25c0-10.86,4.26-16.15,10.66-16.15s10.6,5.36,10.59,16.18-4.27,16.41-10.63,16.4S79.54,84.07,79.56,73.25Zm15.35,0c0-8.78-2-11.33-4.69-11.33s-4.76,2.54-4.77,11.32,2,11.54,4.74,11.54S94.9,82.1,94.91,73.27Z"/><path class="cls-2" d="M107,84.06h6.74l0-19.85h-5.68V60.35a20.28,20.28,0,0,0,7.3-2.62H120l0,26.34h5.9v5l-18.88,0Z"/><path class="cls-2" d="M131.17,85.54c8.54-7.63,13.59-13.52,13.6-18.35,0-3.19-1.73-5.1-4.7-5.1-2.29,0-4.2,1.48-5.78,3.22l-3.39-3.4c2.89-3,5.7-4.75,10-4.74,5.94,0,9.88,3.83,9.87,9.68,0,5.69-4.72,11.79-10.46,17.38,1.57-.17,3.65-.33,5.09-.33h6.83v5.26l-21,0Z"/><path class="cls-2" d="M157.06,73.35c0-10.86,4.27-16.15,10.67-16.15s10.6,5.36,10.59,16.18-4.27,16.41-10.63,16.4S157.05,84.17,157.06,73.35Zm15.36,0c0-8.78-2-11.33-4.69-11.33S163,64.58,163,73.36s2,11.54,4.74,11.54S172.41,82.2,172.42,73.37Z"/><path class="cls-2" d="M183.11,74.83h11.58V79.3l-11.58,0Z"/><path class="cls-2" d="M201.05,84.18h6.74l0-19.85h-5.68V60.47a20.35,20.35,0,0,0,7.3-2.62h4.62l0,26.34h5.89v5.05l-18.88,0Z"/><path class="cls-2" d="M239.68,63.11l-14.13,0V57.87l20.87,0v3.78c-7.3,8.89-8.29,15.3-8.81,27.6h-6.32C231.85,78.37,233.69,71.42,239.68,63.11Z"/><path class="cls-2" d="M252.72,84.25h6.74l0-19.85H253.8V60.54a20.35,20.35,0,0,0,7.3-2.62h4.62l0,26.34h5.9v5l-18.88,0Z"/><path class="cls-2" d="M277.17,75l11.58,0v4.45H277.16Z"/><path class="cls-2" d="M295.1,84.31h6.75l0-19.86h-5.68V60.6a20.47,20.47,0,0,0,7.3-2.62h4.63l0,26.34H314v5l-18.88,0Z"/><path class="cls-2" d="M319.46,81.58c0-4,2.47-6.61,5.39-8.18v-.21a8.93,8.93,0,0,1-4.14-7.47c0-5,4-8.27,9.47-8.26s9.11,3.36,9.11,8.37a9.16,9.16,0,0,1-4,7.16v.21c2.88,1.58,5.25,4.12,5.25,8.41,0,4.75-4.21,8.39-10.58,8.38C323.94,90,319.45,86.5,319.46,81.58Zm15.23-.19c0-3.27-2.88-4.63-6.95-6.29a7.55,7.55,0,0,0-2.89,5.81c0,2.84,2.32,4.67,5.25,4.67C332.73,85.59,334.68,84.1,334.69,81.39ZM334.2,66.2c0-2.54-1.52-4.37-4.16-4.37a3.65,3.65,0,0,0-3.82,3.9c0,3,2.41,4.41,5.72,5.73A7.55,7.55,0,0,0,334.2,66.2Z"/><path class="cls-2" d="M345.18,73.6c0-10.86,4.26-16.16,10.66-16.15s10.6,5.36,10.59,16.18S362.16,90,355.8,90,345.16,84.41,345.18,73.6Zm15.35,0c0-8.78-2-11.33-4.69-11.33s-4.76,2.53-4.77,11.31,2,11.55,4.74,11.55S360.52,82.44,360.53,73.62Z"/><path class="cls-2" d="M70.44,84a2.86,2.86,0,1,0,2.85,2.87A2.86,2.86,0,0,0,70.44,84Zm0,5.38A2.53,2.53,0,1,1,73,86.89,2.52,2.52,0,0,1,70.43,89.41Z"/><path class="cls-2" d="M71.24,86.57a1,1,0,0,0,.23-.62.9.9,0,0,0-.31-.72,1.26,1.26,0,0,0-.85-.27H69.24v3.78h.45V87h.48l1.11,1.72h.54l-1.2-1.81A1.22,1.22,0,0,0,71.24,86.57Zm-1.56.07v-1.3h.56c.51,0,.78.21.78.63a.64.64,0,0,1-.22.48.82.82,0,0,1-.57.19Z"/><path class="cls-2" d="M32,82.62a5.64,5.64,0,0,0,5.62-5.85c0-3.08-3-5.53-5.6-7-2.59,1.47-5.62,3.91-5.63,7A5.65,5.65,0,0,0,32,82.62Z"/><path class="cls-2" d="M54.83,82.59a5.66,5.66,0,0,0,5.62-5.86c0-3.07-3-5.52-5.6-7-2.59,1.47-5.63,3.92-5.63,7A5.66,5.66,0,0,0,54.83,82.59Z"/><path class="cls-2" d="M20.54,64.13a25.85,25.85,0,0,1,11.54,2.62,24.68,24.68,0,0,1,11.3-2.6,24.58,24.58,0,0,1,11.29,2.63,26,26,0,0,1,11.57-2.59V59.54l-45.7-.06Z"/><path class="cls-2" d="M63.07,76.8a8.48,8.48,0,0,1-8.42,8.4,8.38,8.38,0,0,1-8.27-8.42c0-3.61,2.62-6.47,5.44-8.36a22.15,22.15,0,0,0-8.44-1.66,21.9,21.9,0,0,0-8.44,1.64c2.81,1.89,5.41,4.76,5.41,8.37a8.37,8.37,0,0,1-8.3,8.4,8.54,8.54,0,0,1-8.46-8.42c0-3.61,2.81-6.47,5.64-8.36a23.54,23.54,0,0,0-8.7-1.65l0,22.57,45.7.06,0-22.57a23.44,23.44,0,0,0-8.7,1.63C60.35,70.32,63.07,73.19,63.07,76.8Z"/><path class="cls-2" d="M46,103v2.34h-.85V103.8H37v1.57h-.83V103h1.69a9.74,9.74,0,0,0-1-1.39l.75-.34a7.16,7.16,0,0,1,1.12,1.56l-.36.17h2.34a8.6,8.6,0,0,0-.89-1.64l.78-.27a8.5,8.5,0,0,1,.94,1.68L41,103h2.18a10.92,10.92,0,0,0,1.22-1.79l.93.32c-.36.5-.78,1-1.16,1.47Zm-4.68,4.45c-.12.34-.25.66-.38,1h4.22v3.65H44.3v-.45H37.93v.46H37.1v-3.66h3c.09-.3.2-.65.27-1H37.92v-2.77h6.32v2.77Zm3,1.74H37.93v1.63H44.3Zm-5.54-2.44h4.62v-1.37H38.76Z"/><path class="cls-2" d="M54.26,109.24a11,11,0,0,0,4.29,1.9,3.06,3.06,0,0,0-.6.79,11.39,11.39,0,0,1-4.51-2.46v2.62h-.88v-2.56a12,12,0,0,1-4.47,2.36,4.08,4.08,0,0,0-.58-.75,11.64,11.64,0,0,0,4.24-1.9H47.82v-.75h4.74v-.89H49v-.68h3.61V106H48.35v-.73H51a5.13,5.13,0,0,0-.59-1.2l.42-.08H47.87v-.77h1.91a9.49,9.49,0,0,0-1-1.74l.76-.25a8.61,8.61,0,0,1,1,1.76l-.62.23h1.48v-2.12h.83v2.12h1.42v-2.12h.84v2.12H56l-.45-.15a12.88,12.88,0,0,0,.91-1.82l.91.24a17.52,17.52,0,0,1-1,1.73H58.2V104H55.8c-.24.45-.5.92-.74,1.28h2.72V106H53.44v.88h3.75v.68H53.44v.89h4.81v.75Zm-3-5.21a4.8,4.8,0,0,1,.6,1.2l-.39.08h2.82l-.12,0A8.93,8.93,0,0,0,54.8,104Z"/><path class="cls-2" d="M63.37,109.75H60.8v1H60v-8.79h3.39Zm-2.57-7v2.66h1.73v-2.66Zm1.73,6.21v-2.77H60.8v2.77ZM69,105.67V107h1.39v.8H69V111c0,.5-.13.77-.49.9a7,7,0,0,1-1.94.14,2.77,2.77,0,0,0-.29-.82c.74,0,1.4,0,1.6,0s.26-.06.26-.24v-3.2H63.63V107h4.53v-1.35H63.57v-.79h3v-1.53h-2.5v-.79h2.5v-1.42h.87v1.42H70v.79H67.45v1.53h3.1v.79Zm-3.94,2.57a8.77,8.77,0,0,1,1.56,2l-.76.48a9.68,9.68,0,0,0-1.52-2.11Z"/><path class="cls-2" d="M73,105.74v6.36h-.88V101.65h4.33v4.09Zm0-3.39v1h2.59v-1Zm2.59,2.71V104H73v1.06Zm0,5.92v.6h-.81v-4.94h4.45V111Zm0-3.66v1.12H78.4v-1.12Zm2.82,3v-1.16H75.58v1.16Zm3.57.64c0,.56-.13.86-.53,1a6.89,6.89,0,0,1-2,.16,3.44,3.44,0,0,0-.31-.92c.73,0,1.46,0,1.67,0s.28-.08.28-.29v-5.15H77.53v-4.1H82Zm-3.59-8.56v1h2.69v-1Zm2.69,2.72V104H78.38v1.07Z"/><path class="cls-2" d="M86.76,110.26h2V103.7H87.16V103a5.59,5.59,0,0,0,1.82-.63h.84v7.88h1.77v.91H86.76Z"/><path class="cls-2" d="M93,106.75c0-3.06,1.06-4.53,2.74-4.53s2.74,1.48,2.74,4.53-1.07,4.58-2.74,4.58S93,109.81,93,106.75Zm4.41,0c0-2.57-.67-3.65-1.67-3.65S94,104.18,94,106.75s.68,3.7,1.68,3.7S97.37,109.34,97.37,106.75Z"/><path class="cls-2" d="M104.11,103.75a.92.92,0,1,1,.92.9A.89.89,0,0,1,104.11,103.75Zm0,5.88a.92.92,0,0,1,1.83,0,.92.92,0,0,1-1.83,0Z"/><path class="cls-2" d="M111.62,106.75c0-3.06,1.06-4.53,2.74-4.53s2.74,1.48,2.74,4.53-1.07,4.58-2.74,4.58S111.62,109.81,111.62,106.75Zm4.41,0c0-2.57-.67-3.65-1.67-3.65s-1.68,1.08-1.68,3.65.68,3.7,1.68,3.7S116,109.34,116,106.75Z"/><path class="cls-2" d="M118.28,106.75c0-3.06,1.06-4.53,2.74-4.53s2.74,1.48,2.74,4.53-1.07,4.58-2.74,4.58S118.28,109.81,118.28,106.75Zm4.41,0c0-2.57-.67-3.65-1.67-3.65s-1.68,1.08-1.68,3.65.68,3.7,1.68,3.7S122.69,109.34,122.69,106.75Z"/><path class="cls-2" d="M134.7,106.26v.82H126v-.82Z"/><path class="cls-2" d="M137.4,110.26h2V103.7H137.8V103a5.59,5.59,0,0,0,1.82-.63h.84v7.88h1.77v.91H137.4Z"/><path class="cls-2" d="M144.3,109.75a2,2,0,0,0,1.48.67c1.14,0,2.12-.94,2.21-3.67a2.72,2.72,0,0,1-2,1.09c-1.46,0-2.42-1-2.42-2.77a2.64,2.64,0,0,1,2.52-2.85c1.69,0,2.95,1.39,2.95,4.18,0,3.56-1.54,4.93-3.19,4.93a2.81,2.81,0,0,1-2.12-.9Zm3.67-3.9c-.12-1.81-.79-2.77-1.91-2.77-.84,0-1.49.79-1.49,2s.53,2,1.57,2A2.29,2.29,0,0,0,148,105.85Z"/><path class="cls-2" d="M154.75,103.75a.92.92,0,1,1,.92.9A.89.89,0,0,1,154.75,103.75Zm0,5.88a.92.92,0,0,1,1.83,0,.92.92,0,0,1-1.83,0Z"/><path class="cls-2" d="M162.26,106.75c0-3.06,1.06-4.53,2.74-4.53s2.74,1.48,2.74,4.53-1.07,4.58-2.74,4.58S162.26,109.81,162.26,106.75Zm4.41,0c0-2.57-.67-3.65-1.67-3.65s-1.68,1.08-1.68,3.65.68,3.7,1.68,3.7S166.67,109.34,166.67,106.75Z"/><path class="cls-2" d="M168.92,106.75c0-3.06,1.06-4.53,2.74-4.53s2.74,1.48,2.74,4.53-1.07,4.58-2.74,4.58S168.92,109.81,168.92,106.75Zm4.41,0c0-2.57-.67-3.65-1.67-3.65s-1.68,1.08-1.68,3.65.68,3.7,1.68,3.7S173.33,109.34,173.33,106.75Z"/><path class="cls-2" d="M183.53,101h3.05v.63h-2.22v9.91h2.22v.64h-3.05Z"/><path class="cls-2" d="M193.41,105.17c0,1.36.85,4.65,5,6.11a4.33,4.33,0,0,0-.58.82,7.56,7.56,0,0,1-4.87-5.21,7.51,7.51,0,0,1-4.7,5.21,5,5,0,0,0-.62-.73,7,7,0,0,0,4.85-6.2v-3.85h.95Zm-3.09-1.43a5.49,5.49,0,0,1-1.67,3.69l-.77-.53a4.93,4.93,0,0,0,1.56-3.34Zm7.55.18a31.33,31.33,0,0,1-2,3.32l-.74-.35a19,19,0,0,0,1.74-3.36Z"/><path class="cls-2" d="M205,105.35a1.27,1.27,0,1,1-1.27,1.27A1.27,1.27,0,0,1,205,105.35Z"/><path class="cls-2" d="M215.91,104.39a9.87,9.87,0,0,1-3.81,6.54,3.57,3.57,0,0,0-.7-.7,8.15,8.15,0,0,0,3.4-5.15h-3.11v-.89h3.45l.18,0Zm6.21-.74a28.76,28.76,0,0,1-3.27,3.11,8.17,8.17,0,0,0,3.75,3.61,3.24,3.24,0,0,0-.67.8,9.62,9.62,0,0,1-4.46-5.49v5.15c0,.63-.17.92-.57,1.09a7.36,7.36,0,0,1-2.19.18,3.69,3.69,0,0,0-.36-1c.86,0,1.63,0,1.87,0s.32-.08.32-.32v-9.66h.93v2.17a14.36,14.36,0,0,0,1,2.71,23.31,23.31,0,0,0,2.85-3Z"/><path class="cls-2" d="M234.47,111.65h-5.54V112h-.82v-4.24a6.55,6.55,0,0,1-.79.79l-.3-.34v1.56h-2.28v1H224V101.9H227v5.86a8.25,8.25,0,0,0,1.77-2.52h-1.28v-.65h2.23v-.89h-2v-.61h2v-.85h-2.22v-.66h3v3.66h-1.11l.28.08a9,9,0,0,1-.45.87H231a9.16,9.16,0,0,0,.37-1H231v-.65h2.29v-.89h-2.11v-.61h2.11v-.85H231v-.66h3v3.66h-2.31l.47.11c-.15.28-.3.57-.45.84h2.39v.69h-2.59v.92h2.3v.63h-2.3v.92h2.3V110h-2.3v1h2.89Zm-9.73-9v2.7h1.49v-2.7Zm1.49,6.32v-2.84h-1.49V109Zm4.56-2.12h-1.86v.92h1.86Zm0,1.55h-1.86v.92h1.86ZM228.93,111h1.86v-1h-1.86Z"/><path class="cls-2" d="M241.43,110.9a10.79,10.79,0,0,0,1.94.14h3.07a2.64,2.64,0,0,0-.33.9h-2.79c-2.48,0-4.26-.43-5.36-2.46a6.64,6.64,0,0,1-1.78,2.68,4.87,4.87,0,0,0-.73-.6c1.33-1,2-2.74,2.24-4.89l.91.09a14.53,14.53,0,0,1-.29,1.59,3.63,3.63,0,0,0,2.21,2.32v-5h-3v-.84h7v.84h-3.06v2H245v.83h-3.55Zm-4.55-5.79H236v-2.59h4.5v-1.37h.92v1.37H246v2.59h-.91v-1.76h-8.17Z"/><path class="cls-2" d="M251.42,101.5a18.17,18.17,0,0,1-1.31,2.56v8h-.88v-6.72a12.77,12.77,0,0,1-1.41,1.58,5,5,0,0,0-.54-.9,12.37,12.37,0,0,0,3.25-4.81Zm4,3.55a12.83,12.83,0,0,0,3.26,4.82,3.29,3.29,0,0,0-.67.72,14.64,14.64,0,0,1-3.1-4.82v6.33H254V106a13.24,13.24,0,0,1-3.12,4.61,4.78,4.78,0,0,0-.67-.68,12.1,12.1,0,0,0,3.32-4.9h-2.9v-.87H254V101.3h.88v2.88h3.46v.87Z"/><path class="cls-2" d="M267.32,106.62a8,8,0,0,1,2.39-5.71l.72.37a7.5,7.5,0,0,0,0,10.67l-.72.38A8,8,0,0,1,267.32,106.62Z"/><path class="cls-2" d="M275.74,108.57a19.5,19.5,0,0,0-1.43-1.57v5.09h-.87v-4.62a11.22,11.22,0,0,1-1.72,1.46,3.86,3.86,0,0,0-.45-.8,10.4,10.4,0,0,0,3.56-3.94H271.7v-.81h1.74v-2.23h.87v2.23h1l.15,0,.49.33a11.29,11.29,0,0,1-1.42,2.53c.52.44,1.52,1.38,1.77,1.65Zm5.84,2.7c.28,0,.32-.26.36-1.73a2.36,2.36,0,0,0,.74.34c-.07,1.67-.26,2.12-1,2.12h-1.05c-.84,0-1-.26-1-1.15v-4.27h-1.17c-.13,2.66-.54,4.49-2.6,5.54a2.74,2.74,0,0,0-.58-.71c1.89-.88,2.19-2.47,2.3-4.83h-1.17v-4.64H282v4.64h-1.55v4.27c0,.36.06.42.33.42Zm-4.34-5.5h3.88v-3h-3.88Z"/><path class="cls-2" d="M292.93,102v10H292v-.74h-5.95V112h-.9V102Zm-6.88.88v3.24H292v-3.24ZM292,110.3V107h-5.95v3.35Z"/><path class="cls-2" d="M298.08,102.05a6.68,6.68,0,0,0-.2.8,29.18,29.18,0,0,0-.59,4.79,11.12,11.12,0,0,0,.11,1.62c.19-.54.47-1.25.67-1.73l.51.39a25.67,25.67,0,0,0-.84,2.63,1.63,1.63,0,0,0-.06.53c0,.12,0,.29,0,.41l-.85.07a14.32,14.32,0,0,1-.46-3.77,37.78,37.78,0,0,1,.54-5A4.9,4.9,0,0,0,297,102Zm7.73,8.64a9.34,9.34,0,0,0-1.79-1.35v.22A1.8,1.8,0,0,1,302,111.5c-1.6,0-2.47-.66-2.47-1.72s.88-1.81,2.44-1.81a5.49,5.49,0,0,1,1.11.11c0-.91-.11-2-.12-3l-1.14,0c-.67,0-1.3,0-2-.07v-.91a19.05,19.05,0,0,0,2,.1l1.12,0v-1.48a5.67,5.67,0,0,0-.06-.71H304a5.19,5.19,0,0,0-.07.7c0,.33,0,.88,0,1.43a14.09,14.09,0,0,0,2.05-.28v.94c-.65.11-1.34.18-2.05.23,0,1.19.1,2.37.14,3.37a8,8,0,0,1,2.34,1.54Zm-2.74-1.76a3.74,3.74,0,0,0-1.21-.19c-.89,0-1.5.4-1.5,1s.58.92,1.43.92c1,0,1.3-.49,1.3-1.28A3,3,0,0,0,303.07,108.93Z"/><path class="cls-2" d="M311.4,102c-.36,1-.79,2.21-1.18,3.16a3.7,3.7,0,0,1,1.06,2.56,1.65,1.65,0,0,1-.46,1.37,1.39,1.39,0,0,1-.63.22,6.94,6.94,0,0,1-.8,0,1.83,1.83,0,0,0-.23-.79,3.33,3.33,0,0,0,.7,0,.74.74,0,0,0,.38-.09,1.08,1.08,0,0,0,.24-.82,3.34,3.34,0,0,0-1.07-2.37c.35-.88.7-2,.95-2.76h-1.57v9.62H308V101.65h2.68l.15,0Zm1.84,6.5a8.75,8.75,0,0,1-1.74,2.88,6.81,6.81,0,0,0-.65-.53,6.81,6.81,0,0,0,1.6-2.53Zm1.83-7.29a11,11,0,0,0,3.53,3.31,3.88,3.88,0,0,0-.49.75,12.27,12.27,0,0,1-3.4-3.25,11.21,11.21,0,0,1-3.31,3.31,3,3,0,0,0-.48-.7,9.79,9.79,0,0,0,3.36-3.42Zm.08,6.47v3.44c0,.47-.09.72-.4.85a4.24,4.24,0,0,1-1.55.16,3.08,3.08,0,0,0-.3-.83c.57,0,1.06,0,1.21,0s.21,0,.21-.19v-3.44h-2.65v-.77h2.65v-1.49h-1.85v-.77h4.61v.77h-1.93v1.49H318v.77Zm1.57.62a15,15,0,0,1,1.66,2.63l-.73.39a15.18,15.18,0,0,0-1.62-2.71Z"/><path class="cls-2" d="M327.42,102.36c-.26.19-.62.5-.81.67-.83.71-2.54,2.08-3.41,2.8-.72.62-.72.8.05,1.43,1.08.87,3.27,2.69,4.44,3.84l-.87.78c-.24-.29-.56-.59-.81-.86-.65-.7-2.63-2.39-3.75-3.3s-1-1.48.09-2.37c.89-.76,2.68-2.18,3.49-3a5.66,5.66,0,0,0,.68-.79Z"/><path class="cls-2" d="M334.65,106.62a8,8,0,0,1-2.39,5.71l-.72-.38a7.5,7.5,0,0,0,0-10.67l.72-.37A8,8,0,0,1,334.65,106.62Z"/><path class="cls-2" d="M346.44,112.21h-3v-.64h2.22v-9.91H343.4V101h3Z"/><path class="cls-2" d="M121.08,22.06c0,1.85.45,3.17,3.56,3.17a14.07,14.07,0,0,0,3.74-.56c.41,0,.94.22.94.6s-.14.46-.62.63a13.27,13.27,0,0,1-3.82.45c-3.73,0-4.72-1.75-4.15-4.28Zm1.77-2.62c.66-.43,1.48-1,2-1.34.14-.12.13-.16-.07-.16-1.58,0-2.65-.12-3.53-1.36l.18-.22a4.26,4.26,0,0,0,2.72.74,15.56,15.56,0,0,0,2.62-.31c.58,0,1.4.31,1.4.7s-.17.42-.56.49a10.29,10.29,0,0,0-1.5.37A30.72,30.72,0,0,0,123,19.71Zm5-4a5.15,5.15,0,0,1,1.66.93,1.09,1.09,0,0,1,.47.84.36.36,0,0,1-.38.39c-.23,0-.4-.28-.65-.63a7.14,7.14,0,0,0-1.27-1.29Zm1.23-.86a5.09,5.09,0,0,1,1.65.77,1.09,1.09,0,0,1,.51.87c0,.26-.12.4-.35.4s-.4-.29-.69-.64a6.51,6.51,0,0,0-1.29-1.18Z"/><path class="cls-2" d="M145.56,20.17a.88.88,0,0,1-.59.17,17.87,17.87,0,0,1-3.39,2.8l-.15-.11a20.06,20.06,0,0,0,2.1-2.94h-3.95v5.54c0,.87-.25,1.46-1.92,1.6a1.05,1.05,0,0,0-.41-.83,3.78,3.78,0,0,0-1.58-.45v-.19s2,.12,2.37.12.38-.08.38-.29v-5.5h-5.76l-.13-.4h7.1A8.4,8.4,0,0,0,136.27,17l.09-.19a9.1,9.1,0,0,1,2.85.84,23,23,0,0,0,2.55-1.88h-7.49l-.11-.41H142l.76-.7L144,15.84a1,1,0,0,1-.62.14,20.85,20.85,0,0,1-3.9,1.84c1.17.72,1.22,1.58.85,1.87h3.23l.74-.73Z"/><path class="cls-2" d="M146.45,25.9a16.22,16.22,0,0,0,1-3.88l1.41.36c-.05.17-.19.28-.5.3a9.26,9.26,0,0,1-1.7,3.33Zm4-7c2.89,1.35,2,3.38,1,2.57a4.88,4.88,0,0,0-.34-1.07l-1,.25v6.27a1,1,0,0,1-.87.33H149V20.86l-1.71.36a.45.45,0,0,1-.36.29l-.35-1.19c.35,0,.91,0,1.58-.07a31,31,0,0,0,2.3-4.3l1.51.61c-.07.15-.25.26-.56.22a22.7,22.7,0,0,1-2.8,3.45c.71-.06,1.51-.12,2.34-.17a7.71,7.71,0,0,0-.68-1.12Zm0-4c0,.15-.23.28-.53.25a13.34,13.34,0,0,1-1.61,2.06c1.19.87.58,2-.19,1.47a4.83,4.83,0,0,0-1.4-2l.12-.12A4.11,4.11,0,0,1,148,17a24,24,0,0,0,.94-2.66Zm.15,7.08c2.7,1.62,1.68,3.65.72,2.76a7.72,7.72,0,0,0-.89-2.67Zm8.85-4.31a.86.86,0,0,1-.6.24c-.13,4.62-.42,7.8-1.17,8.63a2.37,2.37,0,0,1-1.85.68,1,1,0,0,0-.29-.82,4.75,4.75,0,0,0-1.67-.52l0-.23c.75.07,2,.19,2.32.19a.7.7,0,0,0,.58-.21c.56-.49.82-3.74,1-7.89h-4.06a10.24,10.24,0,0,1-1.6,2.26l-.2-.13a19.46,19.46,0,0,0,1.77-5.46l1.62.49a.51.51,0,0,1-.51.29,21.72,21.72,0,0,1-.87,2.14h3.69l.65-.68Zm-5.77,1.92c3.32,1.57,2.28,4,1.19,3.07a6.25,6.25,0,0,0-1.35-3Z"/><path class="cls-2" d="M167,22.13a1.38,1.38,0,1,1,1.38-1.37A1.38,1.38,0,0,1,167,22.13Z"/><path class="cls-2" d="M179.59,21.68a8.48,8.48,0,0,1,3.78-1,2.61,2.61,0,0,1,2.87,2.65A2.69,2.69,0,0,1,183.33,26a3.11,3.11,0,0,1-2.66-1.56l.22-.21a3.19,3.19,0,0,0,2.19.84,1.92,1.92,0,0,0,2.1-2c0-1-.63-1.85-2.13-1.85a7.63,7.63,0,0,0-3.45,1.19c.06,1.95.23,2.45.23,3s-.42,1.36-.9,1.36-.38-.46-.83-.88a11.92,11.92,0,0,0-1.44-1.1c-.4.4-.57.58-.8.58a.72.72,0,0,1-.49-.27.91.91,0,0,1-.29-.68c0-.38.08-.49.42-.47a1.09,1.09,0,0,0,.83-.18c.47-.28,1.55-1.12,2.52-1.67V19.51a8.57,8.57,0,0,1-1.53.24c-.74,0-1.36-.18-1.89-1.53l.22-.17c.7.68.94.83,1.66.8a6.65,6.65,0,0,0,1.54-.28c0-1,0-1.86,0-2.2s-.09-.4-.31-.49a3.64,3.64,0,0,0-.91-.11l0-.25a2,2,0,0,1,1.07-.32c.58,0,1.53.46,1.53.82s-.21.56-.31,1a8.61,8.61,0,0,0-.16,1.26c1-.38,1.41-.8,1.68-.8s.77,0,.78.45c0,.24-.17.42-.48.58a16.42,16.42,0,0,1-2,.77c-.05.61-.06,1.24-.06,1.85Zm-.74,1.19a21.63,21.63,0,0,0-1.91,1.61c.51.26,1.11.54,1.5.7s.41,0,.41-.26ZM183.09,17a4.44,4.44,0,0,1,1.91-.13A2.57,2.57,0,0,1,187.2,19c0,.33-.13.61-.47.64s-.5-.35-.94-.29a5.69,5.69,0,0,0-1.1.4l-.16-.23a10.66,10.66,0,0,0,1.11-.77.35.35,0,0,0,0-.53,2.8,2.8,0,0,0-2.55-.84Z"/><path class="cls-2" d="M190.35,19.16v7.62c0,.14-.37.42-.88.42h-.2V14.68l1.14.54H193l.55-.6,1.16.91a1,1,0,0,1-.52.24v3.87a1.53,1.53,0,0,1-.89.31h-.17v-.79Zm0-3.54V17h2.75V15.62Zm2.75,3.13V17.37h-2.75v1.38Zm5,2.67a1,1,0,0,1-.53.25V25a1.35,1.35,0,0,1-.88.35h-.18v-.82h-3.14v.71a1.28,1.28,0,0,1-.91.34h-.16V20.63l1.12.49h3l.55-.6Zm-1.59,2.69v-2.6h-3.14v2.6Zm4.81-8.56a1,1,0,0,1-.58.26v9.92c0,.81-.19,1.27-1.6,1.4a.94.94,0,0,0-.31-.7,2.22,2.22,0,0,0-1.13-.38v-.21s1.33.1,1.61.1.33-.1.33-.32V19.16h-2.85v.35c0,.11-.47.34-.91.34h-.15V14.73l1.13.49h2.64l.54-.67Zm-4.53.07V17h2.85V15.62Zm2.85,3.13V17.37h-2.85v1.38Z"/><path class="cls-2" d="M204.2,18.53c0-.77-.17-1.18-1.09-1.86l.11-.2a4.12,4.12,0,0,1,1,.21c.56.25,1.33.93,1.33,1.53a18.76,18.76,0,0,0-.56,3A3,3,0,0,0,206.31,24a.37.37,0,0,0,.51-.11,21,21,0,0,0,1.36-2.53l.35.15a25.16,25.16,0,0,0-.8,2.59c-.1.69.13.73.13,1.08s-.47.7-1.13.43a4.49,4.49,0,0,1-2.59-4.27C204.1,20.3,204.2,19.26,204.2,18.53Zm6.54-.42.1-.31a4.53,4.53,0,0,1,2.79,1.37,4.78,4.78,0,0,1,1.22,3.13c0,.64-.23.95-.68.95a.55.55,0,0,1-.53-.5,8.85,8.85,0,0,0-.71-2.73A4,4,0,0,0,210.74,18.11Z"/><path class="cls-2" d="M224.18,14.68c0,.17-.22.24-.59.26a12.83,12.83,0,0,0,6,4l0,.19a1.36,1.36,0,0,0-1,1,11.29,11.29,0,0,1-5.27-5,16.47,16.47,0,0,1-6.78,5.49l-.1-.2c2.38-1.36,5.14-4.19,5.86-6.19Zm2.23,6.65,1.3,1a1.2,1.2,0,0,1-.6.28v4.13a1.8,1.8,0,0,1-1,.33H226v-1H220.1v.7c0,.1-.5.37-1,.37h-.18V21.46l1.25.54h5.6Zm-1.35-2.83s.83.65,1.35,1.12c0,.16-.18.21-.38.21h-6.21l-.11-.39h4.61Zm.89,7.22V22.41H220.1v3.31Z"/><path class="cls-2" d="M235.28,19.88a7.71,7.71,0,0,1,4.08-1.36,3.36,3.36,0,0,1,3.54,3.23c0,2.05-1.44,3.84-5.34,4.71l-.14-.31c3.53-1.34,4.26-3.15,4.26-4.72A2.37,2.37,0,0,0,239.16,19a6.57,6.57,0,0,0-3.95,1.64,27.81,27.81,0,0,0,.14,3.85c0,.42.07.69.07,1,0,.58-.25,1.26-.67,1.26s-.49-.18-.55-.51a4.8,4.8,0,0,0-.26-1,10,10,0,0,0-.93-1.58c-.26.39-.52.75-.75,1.09s-.35.5-.59.5-.45-.22-.45-.56a1,1,0,0,1,.34-.79,37.72,37.72,0,0,0,3-3.9c0-.33.05-.67.09-1-.44.23-.91.5-1.21.68s-.42.49-.68.49a1.65,1.65,0,0,1-1.23-1.06,2.39,2.39,0,0,1-.06-.63l.24-.09c.23.4.42.62.69.62a10.74,10.74,0,0,0,2.35-.92c.12-.93.21-1.68.21-2.09a.43.43,0,0,0-.33-.49,4,4,0,0,0-.8-.23v-.28a3,3,0,0,1,.92-.18c.66,0,1.42.66,1.42,1.11,0,.27-.17.45-.31,1-.06.2-.15.53-.24,1l0,0c.25.12.56.42.56.6s-.14.31-.34.52a8.28,8.28,0,0,0-.58.71Zm-.81,4.62c0-.62,0-1.77,0-2.93-.39.59-.82,1.23-1.26,1.85.38.46.84,1,1,1.19S234.45,24.74,234.47,24.5Z"/><path class="cls-2" d="M251.9,15.56a2.6,2.6,0,0,1,1-.29c.73,0,1.59.58,1.59,1,0,.23-.26.35-.29.85s-.06.91-.08,1.5a14.31,14.31,0,0,1,2.1-.35c.61,0,1.22.25,1.22.75,0,.34-.24.44-.66.44a13.86,13.86,0,0,0-2.13,0l-.58.07a16.89,16.89,0,0,1-.28,2.8c-.14.66-.5,1.1-1.07,1.1-.24,0-.38-.08-.52-.37-.21-.45-.84-.71-1.4-1l.09-.28a8.89,8.89,0,0,0,1.59.35.42.42,0,0,0,.49-.36,15,15,0,0,0,.19-2.12c-1.31.24-2.83.59-3.83.88-.06,1.21-.09,2.54-.06,3.16,0,1.4.32,1.61,2.1,1.61a21.64,21.64,0,0,0,3.28-.38c.5,0,.95.19.95.6s-.18.45-.66.56a16,16,0,0,1-3.18.24c-2.11,0-3.28-.44-3.34-2.09,0-.78,0-2.1,0-3.4a20.49,20.49,0,0,1-2.53.91c-.41,0-1-.51-1.18-1a1.88,1.88,0,0,1-.08-.78l.21-.09c.23.37.59.73.92.73a25.53,25.53,0,0,0,2.66-.59c0-.94,0-1.78,0-2.21s-.11-.49-.34-.59a2.85,2.85,0,0,0-.81-.15v-.28a2.88,2.88,0,0,1,1-.24c.63,0,1.55.55,1.55.94s-.24.33-.29.89c0,.3-.06.8-.09,1.39,1-.24,2.64-.63,3.84-.9,0-.81,0-1.89,0-2.46a.43.43,0,0,0-.37-.42,4.65,4.65,0,0,0-.83-.11Z"/><path class="cls-2" d="M262.6,21.08c-.27.74-.83,2.28-1,2.79a4.2,4.2,0,0,0-.2,1c0,.45.21.9.21,1.28a.47.47,0,0,1-.49.53c-.28,0-.52-.24-.74-.58a6.25,6.25,0,0,1-.83-3.33,14.36,14.36,0,0,1,.66-3.88,7.49,7.49,0,0,0,.35-1.69,2.53,2.53,0,0,0-.8-1.57l.21-.17a2.43,2.43,0,0,1,.83.43,2.56,2.56,0,0,1,1,1.63c0,.32-.21.59-.55,1.37a9.42,9.42,0,0,0-.95,3.71,2.73,2.73,0,0,0,.22,1.29c.09.18.21.2.34,0,.31-.47,1.06-2.24,1.4-2.95Zm5.57-1.7c0,1.41.11,2.71.2,3.72a5.34,5.34,0,0,1,2.32,1.27,1.14,1.14,0,0,1,.45.81c0,.34-.15.54-.43.54s-.43-.19-.75-.48a6,6,0,0,0-1.52-1.12c0,.11,0,.22,0,.32,0,1.15-.71,1.89-2.48,1.89-1.25,0-2.28-.6-2.28-1.68s1.29-1.79,2.83-1.79a5.28,5.28,0,0,1,.91.06c0-1-.13-2.39-.14-3.52a11.22,11.22,0,0,1-1.52.11,2.25,2.25,0,0,1-2.22-1.39l.19-.18a3.2,3.2,0,0,0,1.94.7,8,8,0,0,0,1.61-.15V16.75c0-.39-.07-.46-.28-.53a5.32,5.32,0,0,0-1-.17l0-.26a2.8,2.8,0,0,1,1.1-.36c.7,0,1.47.42,1.47.76a8.53,8.53,0,0,1-.23,1,11.09,11.09,0,0,0-.12,1.11l.63-.23c.71-.25.95-.42,1.08-.42.33,0,.82.19.82.51s-.21.43-.71.63a17.1,17.1,0,0,1-1.85.48Zm-.71,4.36a6,6,0,0,0-1.46-.17c-.84,0-1.74.35-1.74,1s.63.85,1.42.85c1.5,0,1.78-.54,1.78-1.62Z"/><path class="cls-2" d="M29.17,34h4.35v.51H29.71V43h-.54Z"/><path class="cls-2" d="M36.84,37.19a2.23,2.23,0,0,0,1.43.68,24.57,24.57,0,0,0,3.1-.32,7.23,7.23,0,0,0,2.31-.69c.59,0,1.5.37,1.5.72s-.16.45-.58.5-2.15.23-3.51.37c.47.21.85.47.85.75s-.19.51-.25.91c-.07.6-.17,1.78-.22,2.76,1-.08,2-.17,2.85-.21a7.79,7.79,0,0,0,1-.18c.61,0,1.8.56,1.8,1.08a.43.43,0,0,1-.49.46,27,27,0,0,0-3-.41,25.49,25.49,0,0,0-5.82.58,7.19,7.19,0,0,1-1.24.36c-.45,0-1.15-.68-1.31-1a1.63,1.63,0,0,1-.17-.83l.24-.09a1.59,1.59,0,0,0,1.17.7c.48,0,2.15-.17,3.95-.34.06-1,.1-2.45.1-3.11a1.88,1.88,0,0,0-.4-1.29c-.94.14-1.64.28-2,.28a1.35,1.35,0,0,1-.93-.56,3.3,3.3,0,0,1-.57-1Z"/><path class="cls-2" d="M53.34,34.94a3.32,3.32,0,0,1,.88,0c.66.1,1.48.56,1.48.84s-.18.38-.4.73-.32.51-.51.77H55A19.22,19.22,0,0,0,57.69,37c.38-.08.52-.35.77-.35s1.4.62,1.4,1.05-.47.42-.7.79a17.36,17.36,0,0,1-8.93,8L50,46.21c3.6-1.88,6.88-5.48,8-8.3,0-.18,0-.23-.14-.23a18.11,18.11,0,0,0-2.09.33,3,3,0,0,1-.79.18,1.32,1.32,0,0,1-.61-.33A12.68,12.68,0,0,1,50.1,41.5l-.2-.28c2.2-1.64,4.21-4.48,4.21-5.31,0-.27-.37-.52-.84-.73Z"/><path class="cls-2" d="M70.43,41.63a14.42,14.42,0,0,0,2.06-2.72c.1-.17,0-.27-.17-.24a36.92,36.92,0,0,0-4,1.22c-.07,1.18-.1,2.44-.1,3.26,0,1.18.2,1.29,1.78,1.29a12.65,12.65,0,0,0,2.9-.34c.45,0,1.08.19,1.08.61s-.28.45-.66.52a16.61,16.61,0,0,1-2.85.26c-2.29,0-3.15-.17-3.16-2.07,0-.93,0-2.26,0-3.2-.63.23-1.39.51-1.91.73s-.6.48-1,.48a2.32,2.32,0,0,1-1.37-1,1.71,1.71,0,0,1-.09-.83l.21-.07c.28.39.53.69.91.69a21.47,21.47,0,0,0,3.28-.83c0-1.13.06-2.52,0-3.07,0-.35-.44-.44-1.13-.57v-.25a3.33,3.33,0,0,1,1.13-.24c.59,0,1.53.56,1.53.91s-.28.52-.35,1-.11,1.11-.17,1.95L72,38c.42-.13.56-.4.78-.4.46,0,1.51.84,1.51,1.24s-.47.39-.78.68a18.38,18.38,0,0,1-2.87,2.3Z"/><path class="cls-2" d="M78.53,36.51a3.08,3.08,0,0,1,1-.32c.65,0,1.61.7,1.61,1.07s-.31.47-.35.92c-.08.76-.17,4.38-.17,5.69,0,.14,0,.18.17.15A21.82,21.82,0,0,0,88.62,39l.25.26a19.94,19.94,0,0,1-7.42,5.92c-.46.24-.48.59-.81.59s-1.19-.87-1.19-1.23.25-.45.26-.93c0-1,.06-5.08,0-6.13,0-.31-.14-.48-1.13-.69Z"/><path class="cls-2" d="M102.51,37.48l.31.2A20.76,20.76,0,0,1,95.45,45c-.32.2-.49.58-.83.58a2.81,2.81,0,0,1-1.79-1.16,3,3,0,0,1-.28-1l.21-.14c.39.44.85.91,1.32.91C95.28,44.13,100.51,40.39,102.51,37.48Zm-9.7-1.33c1.7.38,3.73,1.29,3.73,2.48a.59.59,0,0,1-.6.64c-.29,0-.52-.18-.87-.63a9.33,9.33,0,0,0-2.42-2.21Z"/><path class="cls-2" d="M108.41,35.29a3.93,3.93,0,0,1,1-.23c.63,0,1.66.57,1.66.93s-.26.41-.32.87c-.08.63-.11,1.59-.12,2.38a11.27,11.27,0,0,1,3.47,1.2,1.45,1.45,0,0,1,.85,1.17.55.55,0,0,1-.56.6c-.57,0-.71-.57-1.61-1.31a10.12,10.12,0,0,0-2.15-1.17c0,1.1,0,3.27,0,4.68,0,.65,0,1.08,0,1.31,0,.47-.14.67-.52.67-.55,0-.83-.76-.83-1.4,0-.32.13-.6.18-1.17.12-1,.12-3.2.12-4.21a34,34,0,0,0-.1-3.41c-.06-.44-.41-.56-1.09-.64Z"/><path class="cls-2" d="M120,38.78l.12-.29A12.73,12.73,0,0,1,122,39c.9.32,1.54.84,1.54,1.47a.49.49,0,0,1-.5.52c-.51,0-.75-.53-1.45-1.09A9.21,9.21,0,0,0,120,38.78Zm10.59-.84.29.2a20.07,20.07,0,0,1-7.65,7.13c-.32.19-.47.59-.88.59a2.84,2.84,0,0,1-1.72-1.11,2.6,2.6,0,0,1-.31-1.07l.21-.12c.35.42.8.91,1.29.91C122.92,44.47,128,41.28,130.54,37.94ZM121.8,36l.14-.31a15.71,15.71,0,0,1,1.82.52c.95.41,1.5.87,1.5,1.47a.52.52,0,0,1-.51.55c-.46,0-.73-.56-1.47-1.18A9.36,9.36,0,0,0,121.8,36Z"/><path class="cls-2" d="M133.92,38.56c.29.36.56.7.94.7.95,0,4.68-.56,7-.79a12.41,12.41,0,0,0,1.42-.25c.66,0,1.5.35,1.5.8,0,.29-.12.42-.45.42s-.84-.11-1.56-.11-1.72,0-2.91.15c.41.24.74.51.74.76s-.33.38-.53.87a9.43,9.43,0,0,1-4.89,5.49l-.26-.28a9,9,0,0,0,4.14-6.19.86.86,0,0,0-.19-.55c-1.11.15-2.32.38-2.75.49a5.68,5.68,0,0,1-1.2.32c-.37,0-1-.57-1.17-1a2.09,2.09,0,0,1-.1-.76Zm2.07-3a2.34,2.34,0,0,0,1.42.51,12.47,12.47,0,0,0,2.56-.35c.8-.18,1-.41,1.25-.41.68,0,1.2.24,1.2.65,0,.22-.15.36-.6.44a26.47,26.47,0,0,1-4.37.58c-.76,0-1.16-.45-1.64-1.25Z"/><path class="cls-2" d="M153.77,37.82a2.39,2.39,0,0,1,.83.08c.5.17,1.09.7,1.09,1s-.22.28-.52.57-.89,1-1.55,1.6c.32.22.57.42.57.6s-.09.34-.11.62c-.05,1.49,0,3.05,0,3.62s-.17.66-.49.66c-.48,0-.7-.53-.7-1,0-.2.08-.42.11-.77a26.42,26.42,0,0,0,.13-2.82,1.24,1.24,0,0,0-.1-.43,14.35,14.35,0,0,1-4.15,2.45l-.14-.23c2.86-1.62,5.55-4.59,5.55-5.23,0-.23-.32-.45-.62-.59Z"/><path class="cls-2" d="M165.57,37.77c-.08.14-.21.21-.56.16a15.46,15.46,0,0,1-1.21,1.45l.47.19a.52.52,0,0,1-.42.25V46.6a1.29,1.29,0,0,1-.91.33h-.21V40.44a15.16,15.16,0,0,1-2.2,1.72l-.15-.16a20.66,20.66,0,0,0,3.68-5Zm-.19-2.87c-.09.14-.23.2-.53.14a16.75,16.75,0,0,1-4,3.1l-.14-.16a16.83,16.83,0,0,0,3.28-3.93Zm6.89,2.75s.84.64,1.32,1.1c0,.16-.17.23-.37.23H171v6.29c0,.85-.25,1.47-1.9,1.59a1,1,0,0,0-.41-.81,3.92,3.92,0,0,0-1.61-.45v-.21s2,.14,2.39.14.4-.09.4-.3V39h-4.43l-.11-.41h6.26Zm-6.08-1.89-.11-.42H171l.71-.9s.8.64,1.29,1.09c0,.16-.18.23-.38.23Z"/><path class="cls-2" d="M178.83,37.61c-.08.15-.21.22-.54.19a18.06,18.06,0,0,1-1,1.56l.53.19c0,.13-.18.21-.4.25v6.74a1.19,1.19,0,0,1-.9.39h-.21V40.62a12.69,12.69,0,0,1-1.75,1.69l-.15-.14a18.71,18.71,0,0,0,2.83-5.29Zm-.1-2.79c-.09.15-.21.22-.54.15a14.73,14.73,0,0,1-3.57,3.15l-.14-.15a16.82,16.82,0,0,0,2.8-3.95Zm1,8.21a3,3,0,0,1-.53,2.74.71.71,0,0,1-1.08,0,.69.69,0,0,1,.33-.86,2.85,2.85,0,0,0,1-1.89Zm.28-1.71v.53c0,.07-.34.29-.86.29H179V37.45l1.17.49h2.06v-1.5h-3.63l-.11-.4h3.74V34.15l1.63.16c0,.2-.16.34-.52.38V36h2.14l.72-.91s.84.63,1.33,1.09a.34.34,0,0,1-.37.22h-3.82v1.5h2.39l.49-.59,1.1.82a.74.74,0,0,1-.51.23v3.27a1.17,1.17,0,0,1-.87.28h-.16v-.63Zm0-3v2.58h1.27V38.33Zm5.07,7.3c.31.11.38.24.38.44,0,.43-.44.63-2.33.63h-1.24c-1,0-1.24-.23-1.24-.94V42.55l1.42.15a.4.4,0,0,1-.38.34v2.49c0,.17,0,.21.43.21h2.08c.14,0,.21,0,.26-.15a12.59,12.59,0,0,0,.4-1.42H185Zm-3.42-3.93c3.18.42,2.61,2.61,1.51,2a4.42,4.42,0,0,0-1.62-1.89Zm1.82-.79V38.33h-1.33v2.58Zm.9-2.58v2.58h1.39V38.33Zm.69,4.33c3.48,1.5,2.56,4,1.47,3.14a6.12,6.12,0,0,0-1.64-3Z"/><path class="cls-2" d="M189.37,42.47c1,4-1.59,3.58-.82,2.41a4.07,4.07,0,0,0,.61-2.41Zm5.73-1.31a.73.73,0,0,1-.56.21c-.15,2.8-.52,4.19-1.1,4.7a2.07,2.07,0,0,1-1.32.4.87.87,0,0,0-.2-.66,1.83,1.83,0,0,0-.87-.33v-.23c.41,0,1,.09,1.29.09a.63.63,0,0,0,.48-.14c.33-.3.63-1.57.77-4h-3.35v.46a.92.92,0,0,1-.8.32h-.15V34.58l1.12.48h2.87l.66-.8s.73.56,1.18,1c-.05.14-.17.21-.37.21h-2.32V37h.82l.56-.71a13.3,13.3,0,0,1,1,.89c0,.16-.17.23-.35.23h-2.07v1.52h.77l.57-.72s.65.51,1,.91c0,.15-.17.22-.36.22h-2v1.55h1l.54-.57Zm-4.9,1.18c1.43,1.78.53,3.32-.07,2.58a7.09,7.09,0,0,0-.13-2.54Zm0-6.89V37h1.25V35.45Zm1.25,1.92h-1.25v1.52h1.25Zm-1.25,3.48h1.25V39.3h-1.25Zm.8,1.25c1.88,1.36,1.11,2.82.46,2.17a5,5,0,0,0-.66-2.1Zm.84-.31c2.06.62,1.44,2.09.74,1.59a2.89,2.89,0,0,0-.89-1.47Zm5.9-1.87c.59,2.59,1.9,4.87,3.88,5.8l0,.16a1.37,1.37,0,0,0-.93,1c-1.9-1.39-2.77-3.72-3.2-7h-.77c0,2.39-.41,5.14-2.65,7l-.21-.14c1.61-2.11,1.82-4.83,1.82-7.5v-4.7l1.23.51h2.72l.56-.63,1.23.94a1,1,0,0,1-.57.28v4.75a1.57,1.57,0,0,1-.93.33h-.15v-.85Zm-1.05-.41h3.05v-4h-3.05v4Z"/><path class="cls-2" d="M214.09,35.7s.88.69,1.4,1.16c0,.16-.17.23-.37.23H202.66l-.13-.41H207a1.18,1.18,0,0,1-.33-.15,5,5,0,0,0-1.43-2.36l.15-.11c2.78.69,2.66,2.45,1.88,2.62H210A18.34,18.34,0,0,0,211.2,34l1.73.47c-.06.17-.23.28-.54.28a17.89,17.89,0,0,1-2,1.92h3Zm-6.39,2.2,1.28,1a1.16,1.16,0,0,1-.61.28v6.4c0,.8-.15,1.26-1.43,1.38a1.19,1.19,0,0,0-.21-.74,1.49,1.49,0,0,0-.89-.36v-.21s1,.08,1.2.08.25-.08.25-.26V43.26h-2.46v3.27c0,.12-.42.39-.88.39h-.18V38l1.13.49h2.25ZM204.83,39v1.7h2.46V39Zm2.46,3.91V41h-2.46v1.82Zm3.9,1.53c0,.11-.45.32-.86.32h-.19v-6.4l1.57.16c0,.19-.16.34-.52.38ZM213.12,38l1.58.15c0,.2-.16.32-.5.36v7c0,.84-.18,1.32-1.64,1.46a1.08,1.08,0,0,0-.31-.74,2.55,2.55,0,0,0-1.22-.39v-.21s1.46.11,1.77.11.32-.09.32-.28Z"/><path class="cls-2" d="M220.83,47h-4.34v-.5h3.81V37.93h.53Z"/><path class="cls-2" d="M233.39,37.38c.88,0,5.08-.45,5.77-.59.42-.1.49-.31.77-.31.48,0,1.64.94,1.64,1.38s-.43.49-.64,1a13.6,13.6,0,0,1-8.31,7.65l-.2-.31c4-2,6.6-5.14,7.41-8.36.06-.18,0-.21-.15-.21-.72,0-4.43.59-5.23.78-.37.09-.68.34-1,.34-.47,0-1.16-.73-1.3-1.14a3.81,3.81,0,0,1-.13-.85l.26-.1A1.43,1.43,0,0,0,233.39,37.38Zm7.48-1.74a1.5,1.5,0,1,1,1.5,1.5A1.49,1.49,0,0,1,240.87,35.64Zm.49,0a1,1,0,1,0,1-1A1,1,0,0,0,241.36,35.64Z"/><path class="cls-2" d="M246.31,37a3.18,3.18,0,0,1,1.77.7l0,.06c1.4-.08,4.55-.36,5.11-.45s.61-.41.91-.41,1.5.89,1.5,1.31-.46.46-.56.87c-.14.67-.43,2.36-.72,3.81.49,0,.88.26.88.57a.43.43,0,0,1-.48.48c-.36,0-1.09-.1-1.78-.1-1.09,0-2.91.1-4.54.21v.47c0,.37-.12.61-.49.61s-.67-.45-.67-1.05c0-.31.06-1.07,0-1.64a24.79,24.79,0,0,0-.39-4,2.12,2.12,0,0,0-.8-1.19Zm7,5.9a44,44,0,0,0,.58-4.64c0-.11,0-.16-.18-.16-.84,0-3,.16-3.74.25-.45,0-.87.19-1.14.19a1.48,1.48,0,0,1-.59-.19c0,.95.14,3.5.19,4.89C249.85,43.12,252,43,253.31,42.9Z"/><path class="cls-2" d="M259.78,39l.12-.3a12.78,12.78,0,0,1,1.88.51c.9.32,1.54.84,1.54,1.47a.49.49,0,0,1-.5.52c-.51,0-.74-.54-1.44-1.1A9.57,9.57,0,0,0,259.78,39Zm10.59-.84.29.19A20,20,0,0,1,263,45.49c-.32.2-.47.59-.88.59A2.83,2.83,0,0,1,260.41,45a2.56,2.56,0,0,1-.31-1.06l.21-.13c.35.42.8.91,1.29.91C262.75,44.69,267.88,41.5,270.37,38.17Zm-8.74-1.92.14-.31a12.18,12.18,0,0,1,1.82.52c1,.4,1.5.87,1.5,1.47a.52.52,0,0,1-.51.54c-.46,0-.73-.56-1.47-1.17A8.22,8.22,0,0,0,261.63,36.25Zm6.93.89a7.82,7.82,0,0,0-1.27-1.36l.18-.22a5,5,0,0,1,1.68.95,1.16,1.16,0,0,1,.48.83.41.41,0,0,1-.42.42C269,37.76,268.84,37.49,268.56,37.14ZM270,36a7.67,7.67,0,0,0-1.28-1.23l.17-.23a5.27,5.27,0,0,1,1.67.83,1.15,1.15,0,0,1,.52.85.38.38,0,0,1-.38.41C270.44,36.64,270.27,36.36,270,36Z"/><path class="cls-2" d="M275.8,39.52a1.74,1.74,0,0,0,1.12.52,17.18,17.18,0,0,0,2.34-.25,5.79,5.79,0,0,0,1.7-.53c.51,0,1.29.32,1.29.63s-.12.42-.47.45-1.49.12-2.61.25c.37.15.65.36.65.62s-.13.43-.17.7c-.07.44-.16,1.23-.21,2,.74-.07,1.44-.13,2-.16a5.33,5.33,0,0,0,.85-.17c.51,0,1.49.51,1.49.93a.4.4,0,0,1-.44.42,22.75,22.75,0,0,0-2.6-.34,18.33,18.33,0,0,0-4,.42,5.52,5.52,0,0,1-1.05.31c-.38,0-1-.57-1.09-.87a1.71,1.71,0,0,1-.13-.67l.17-.07a1.32,1.32,0,0,0,1,.52c.4,0,1.65-.13,2.95-.24.05-.73.07-1.71.07-2.24a1.67,1.67,0,0,0-.26-1c-.72.1-1.21.21-1.5.21a1.12,1.12,0,0,1-.77-.49,3,3,0,0,1-.41-.77Z"/><path class="cls-2" d="M291.34,34.94a3.32,3.32,0,0,1,.88,0c.66.1,1.48.56,1.48.84s-.18.38-.4.73-.32.51-.51.77H293a19.22,19.22,0,0,0,2.69-.31c.38-.08.52-.35.77-.35s1.4.62,1.4,1.05-.47.42-.7.79a17.36,17.36,0,0,1-8.93,8l-.21-.29c3.6-1.88,6.88-5.48,8-8.3.05-.18,0-.23-.14-.23a18.11,18.11,0,0,0-2.09.33,3,3,0,0,1-.79.18,1.32,1.32,0,0,1-.61-.33,12.68,12.68,0,0,1-4.29,3.64l-.2-.28c2.2-1.64,4.21-4.48,4.21-5.31,0-.27-.37-.52-.84-.73Z"/><path class="cls-2" d="M304.41,35.29a3.93,3.93,0,0,1,1-.23c.63,0,1.66.57,1.66.93s-.26.41-.32.87c-.08.63-.11,1.59-.12,2.38a11.27,11.27,0,0,1,3.47,1.2,1.45,1.45,0,0,1,.85,1.17.55.55,0,0,1-.56.6c-.57,0-.71-.57-1.61-1.31a10.12,10.12,0,0,0-2.15-1.17c0,1.1,0,3.27,0,4.68,0,.65,0,1.08,0,1.31,0,.47-.14.67-.52.67-.55,0-.83-.76-.83-1.4,0-.32.13-.6.18-1.17.12-1,.12-3.2.12-4.21a34,34,0,0,0-.1-3.41c-.06-.44-.41-.56-1.09-.64Z"/><path class="cls-2" d="M314.55,35.91c2.87.24,2.14,2.24,1.1,1.65A3.73,3.73,0,0,0,314.42,36ZM326,42.49s.88.68,1.42,1.17a.37.37,0,0,1-.38.21h-5.51V46.6c0,.12-.5.33-.93.33h-.21V43.87h-5.69l-.13-.41h5.82v-1.4a1.39,1.39,0,0,1-.73.18h-.19V37.48a8.14,8.14,0,0,1-1.59,1.33l-.18-.17a11.81,11.81,0,0,0,2.6-4.69l1.54.59c-.05.15-.22.28-.53.24-.18.37-.38.72-.59,1.07h1.79A14.2,14.2,0,0,0,323,34l1.63.41c0,.16-.2.29-.51.28A9.3,9.3,0,0,1,323,35.85h2.12l.7-.86s.78.6,1.28,1c0,.15-.16.22-.37.22h-3.13v1.29h1.24l.64-.83s.73.59,1.19,1c0,.16-.17.23-.36.23h-2.71V39.3h1.28l.64-.84s.73.6,1.18,1c0,.14-.18.21-.38.21h-2.72v1.39h1.88l.69-.88s.79.61,1.26,1.06a.34.34,0,0,1-.37.23h-6.5v.4s0,.07-.1.13l1.48.14c0,.14-.13.25-.4.31v1h3.7Zm-10.56-3c.18,0,.24,0,.41-.23l2.88-3.86.21.11c-.54,1-1.87,3.12-2.08,3.56a2.11,2.11,0,0,0-.3.91c0,.46.39.88.35,1.68a.73.73,0,0,1-.8.77c-.24,0-.42-.18-.47-.53.14-1.11.07-1.8-.23-2a1.78,1.78,0,0,0-.66-.16V39.5Zm.22-5.42c2.9.35,2.13,2.36,1.11,1.73a3.86,3.86,0,0,0-1.23-1.62Zm4.89,2.18v1.29h2V36.26Zm2,1.7h-2V39.3h2Zm0,1.73h-2v1.39h2Z"/><path class="cls-2" d="M331.53,38c0,.11-.18.21-.43.24V46.6a1.33,1.33,0,0,1-.87.32h-.17V39.38a12,12,0,0,1-1.42,1.91l-.21-.13A25.85,25.85,0,0,0,331,34l1.64.49c-.05.17-.21.29-.53.29a21.51,21.51,0,0,1-1.18,3Zm8.7-1.08s.81.62,1.29,1.08c0,.14-.17.21-.35.21h-7.76v2c0,1.91-.09,4.74-1.8,6.63l-.16-.14a15.57,15.57,0,0,0,1-6.49V37.35l1.16.49h6Zm-7.94-1.23h2.38V34l1.5.15c0,.2-.14.34-.47.38v1.19h2V34l1.52.15c0,.18-.16.34-.49.38v1.19h1l.62-.79a13.74,13.74,0,0,1,1.16,1,.32.32,0,0,1-.35.23h-2.46v1c0,.07-.25.25-.84.26h-.19V36.15h-2v1c0,.09-.3.25-.85.25h-.18V36.15h-2.29Zm7.66,3,1.27.94a1.07,1.07,0,0,1-.59.29v5.51c0,.81-.14,1.26-1.35,1.38a1.37,1.37,0,0,0-.21-.75,1.13,1.13,0,0,0-.8-.35v-.23s.84.07,1.06.07.25-.08.25-.25v-1.5h-1.79v2.56a1,1,0,0,1-.8.31h-.17V43.88h-1.75v2.66c0,.11-.4.35-.82.35h-.17v-8l1.06.49h4.3Zm-4.88,1V41.4h1.75V39.79Zm1.75,3.68V41.82h-1.75v1.65Zm1-3.68V41.4h1.79V39.79Zm1.79,3.68V41.82h-1.79v1.65Z"/><path class="cls-2" d="M354,45.17s.85.64,1.37,1.11c0,.15-.17.21-.36.21H342.76l-.13-.4h5.79V43.75h-4.36l-.11-.39h4.47V41.42l1.62.15c0,.2-.14.32-.48.38v1.41h2.64l.7-.87s.81.61,1.3,1a.34.34,0,0,1-.36.21h-4.28v2.34h3.73Zm1.44-8.91c-.1.11-.25.13-.52.14a8.51,8.51,0,0,1-1.57,1.22c.17.14.34.28.48.41,0,.14-.18.21-.38.21h-4.66a14.39,14.39,0,0,1-2.1,2.28c1.54-.07,3.39-.18,5.28-.31a12.68,12.68,0,0,0-1.59-1.37l.14-.14c4.42,1.26,4,3.75,2.75,3.15a6.49,6.49,0,0,0-1-1.33c-1.89.35-4.33.73-7.63,1.13a.6.6,0,0,1-.38.3l-.56-1.35c.59,0,1.43,0,2.44-.07a12.15,12.15,0,0,0,1.2-2.29h-2.83l-.12-.4h7.49l.69-.82s.28.19.6.46a11.8,11.8,0,0,0,.49-1.28h-9.12a2.18,2.18,0,0,1-.62,1.74.63.63,0,1,1-.71-.95,2.5,2.5,0,0,0,.89-2h.21a4.86,4.86,0,0,1,.2.82h3.9V34l1.65.15c0,.2-.16.34-.51.4v1.21h4.09l.63-.64Z"/><path class="cls-2" d="M356.6,40.5l.21-.16a1.72,1.72,0,0,0,.88.49,1.18,1.18,0,0,0,.71-.39c.65-.61,1.86-1.94,2.36-2.5a1.36,1.36,0,0,1,1-.52A1.77,1.77,0,0,1,363,38c1.54,1.51,2.89,3.5,5.6,5a1.12,1.12,0,0,1,.65,1,.51.51,0,0,1-.55.57c-.6,0-1.79-.92-3-2.13s-2.28-2.74-3.29-3.8a1,1,0,0,0-.69-.36c-.17,0-.33.12-.56.37-.49.59-1.48,2-2,2.65-.33.48-.54.8-1,.8a2,2,0,0,1-1.35-.78A1.91,1.91,0,0,1,356.6,40.5Z"/></g></g></svg>