<?xml version="1.0" encoding="utf-8"?>
<!-- Generator: Adobe Illustrator 24.0.1, SVG Export Plug-In . SVG Version: 6.00 Build 0)  -->
<svg version="1.1" id="レイヤー_1" xmlns="http://www.w3.org/2000/svg" xmlns:xlink="http://www.w3.org/1999/xlink" x="0px"
	 y="0px" viewBox="0 0 178.3 48" style="enable-background:new 0 0 178.3 48;" xml:space="preserve">
<style type="text/css">
	.st0{fill:#ED9100;}
	.st1{fill:#FFFFFF;}
</style>
<g>
	<g>
		<rect class="st0" width="178.3" height="48"/>
	</g>
	<path class="st1" d="M156.7,21.7V20l6.4,3.7v0.7l-6.4,3.7v-1.8l4.1-2.2L156.7,21.7z"/>
</g>
<g>
	<g>
		<path class="st1" d="M58.8,24.2c1.2,1.6,3.2,3.1,5,3.9c-0.3,0.3-0.7,0.8-0.9,1.1c-1.8-0.9-3.6-2.5-4.9-4.2v4.7h-1.4V25
			c-1.3,1.7-3.1,3.3-4.9,4.1c-0.2-0.3-0.6-0.8-0.9-1.1c1.8-0.8,3.8-2.3,5-3.9h-4.7V23h5.5v-3.2h-4.8v-1.2h4.8v-1.6h1.4v1.6h4.9v1.2
			h-4.9V23h5.5v1.3H58.8z M53.9,19.9c0.5,0.8,1.1,1.8,1.3,2.5l-1.2,0.5c-0.2-0.7-0.7-1.8-1.2-2.6L53.9,19.9z M59.3,22.5
			c0.5-0.7,1-1.9,1.3-2.7l1.4,0.4c-0.5,1-1.1,2-1.6,2.7L59.3,22.5z"/>
		<path class="st1" d="M76.6,25.2c-1.4,0.7-2.9,1.5-4.1,2L72,26c0.5-0.2,1.1-0.5,1.8-0.8V21h-1.5v-1.2h1.5V17H75v2.8h1.4V21H75v3.6
			c0.4-0.2,0.9-0.4,1.3-0.6L76.6,25.2z M79.3,23.6c-0.2,0.3-0.3,0.6-0.5,0.8h5.9c0,0,0,0.3,0,0.5c-0.2,2.8-0.4,3.9-0.8,4.3
			c-0.2,0.3-0.5,0.4-0.8,0.4c-0.3,0-0.8,0-1.4,0c0-0.3-0.1-0.8-0.3-1.1c0.5,0.1,0.9,0.1,1.1,0.1c0.2,0,0.3,0,0.4-0.2
			c0.2-0.2,0.4-1,0.6-3h-0.8c-0.6,1.6-1.7,3.4-2.8,4.3c-0.2-0.2-0.6-0.5-0.9-0.7c1.1-0.7,2.1-2.1,2.7-3.5h-1.1
			c-0.8,1.4-2.1,2.9-3.3,3.7c-0.2-0.3-0.6-0.6-0.9-0.8c1.1-0.6,2.3-1.7,3-2.9H78c-0.5,0.6-1.1,1.1-1.7,1.5c-0.2-0.2-0.6-0.6-0.9-0.8
			c1.1-0.6,2-1.5,2.6-2.6h-1.8v-1.1H85v1.1H79.3z M84,21.8h-6.5v-4.6H84V21.8z M82.8,18.2h-4.1v0.9h4.1V18.2z M82.8,20h-4.1v0.9h4.1
			V20z"/>
		<path class="st1" d="M106.2,22.4c-0.7,1.2-1.6,2.6-2.4,3.5l-1.1-0.7c0.4-0.5,1-1.2,1.4-2h-3.5v4.9c0,0.7-0.2,1.1-0.7,1.3
			c-0.6,0.2-1.4,0.2-2.6,0.2c-0.1-0.4-0.3-0.9-0.5-1.3c0.9,0,1.9,0,2.2,0c0.3,0,0.3-0.1,0.3-0.3v-4.8h-5.6v-1.2h6.8
			c-1.1-0.5-2.5-1.1-3.6-1.6l0.7-1c0.7,0.3,1.5,0.6,2.4,1c0.8-0.4,1.6-1.1,2.3-1.7h-7.2v-1.2h8.5l0.3-0.1l1,0.7c-1,1-2.2,2-3.5,2.7
			c0.5,0.2,1,0.4,1.4,0.6l-0.3,0.4h2.6l0.2-0.1L106.2,22.4z"/>
		<path class="st1" d="M116.4,25.1c-0.2,1.3-0.5,2.7-0.9,3.6c-0.2-0.2-0.7-0.4-1-0.5c0.4-0.8,0.7-2.1,0.8-3.3L116.4,25.1z M119,21.3
			c0.6,0.9,1.1,2.1,1.3,2.9l-1,0.5c-0.1-0.2-0.1-0.5-0.3-0.8l-1,0.1v5.8h-1.2V24c-0.8,0-1.5,0.1-2.2,0.1l-0.1-1.1l1,0
			c0.3-0.3,0.5-0.7,0.8-1.1c-0.4-0.6-1.1-1.4-1.8-2l0.6-0.9c0.1,0.1,0.3,0.2,0.4,0.3c0.4-0.8,0.9-1.8,1.1-2.5l1.2,0.4
			c-0.5,1-1.1,2.1-1.6,2.8c0.3,0.3,0.5,0.6,0.7,0.8c0.5-0.8,1-1.7,1.4-2.4l1.1,0.5c-0.8,1.3-1.8,2.8-2.8,4l1.9-0.1
			c-0.2-0.4-0.4-0.8-0.6-1.1L119,21.3z M119.3,24.8c0.4,0.8,0.8,1.9,0.9,2.6l-1,0.4c-0.1-0.7-0.5-1.8-0.9-2.7L119.3,24.8z
			 M127.2,19.9c-0.2,6.2-0.4,8.4-1,9.1c-0.3,0.5-0.7,0.6-1.2,0.6c-0.5,0.1-1.3,0.1-2.2,0c0-0.4-0.2-0.9-0.4-1.3
			c0.9,0.1,1.8,0.1,2.1,0.1c0.3,0,0.4-0.1,0.6-0.2c0.4-0.4,0.7-2.5,0.9-7.7h-4.3c-0.4,0.7-0.8,1.4-1.2,1.9c-0.3-0.2-0.8-0.6-1.1-0.8
			c1.1-1.1,1.9-3,2.4-4.8l1.3,0.3c-0.2,0.7-0.5,1.5-0.8,2.1h5V19.9z M122.9,26.1c-0.3-0.9-1.1-2.2-1.8-3.2l1.1-0.5
			c0.8,1,1.6,2.3,1.9,3.2L122.9,26.1z"/>
	</g>
</g>
</svg>
