<svg xmlns="http://www.w3.org/2000/svg" viewBox="0 0 207.22 41.32"><defs><style>.cls-1,.cls-4{fill:none;}.cls-2{fill:#be0d23;}.cls-3{fill:#000003;}.cls-4{stroke:#be0d23;stroke-miterlimit:10;}</style></defs><title>title_index_add_pref_area_h2</title><g id="レイヤー_2" data-name="レイヤー 2"><g id="レイヤー_1-2" data-name="レイヤー 1"><rect class="cls-1" x="0.02" width="207.2" height="41.32"/><path class="cls-2" d="M6.47,3.77c-.09,2.7-.09,5.41-.09,8.17v1.32c0,2.71,0,5.47.09,8.17L9,21.68v.94H0v-.94l2.57-.25c.05-2.68.05-5.41.05-8.17V11.94c0-2.71,0-5.44-.05-8.17L0,3.52v-1H9v1Z"/><path class="cls-3" d="M32,21.78v.84H24.59v-.84l1.89-.24c.06-1.51.08-3.73.08-5.27V12.8c0-2.35-.67-3.16-2.13-3.16a5.58,5.58,0,0,0-3.55,1.76v4.87c0,1.48,0,3.76.06,5.3l1.76.21v.84H15.28v-.84l2-.24c0-1.54,0-3.79,0-5.27V14.32c0-1.76,0-2.73-.11-4l-2.13-.22V9.39l5.19-1.65.38.25.19,2.46c1.7-2,3.38-2.73,5.14-2.73,2.54,0,4.14,1.62,4.14,5.25v3.3c0,1.54,0,3.76.05,5.3Z"/><path class="cls-3" d="M39.93,8.12C40.2,5,41,3.25,42.28,2A6.39,6.39,0,0,1,46.85.17C48.37.17,49.72.68,50,2a1.62,1.62,0,0,1-1.81,1.6A2.69,2.69,0,0,1,45.85,2l-.57-.75a2.18,2.18,0,0,0-.84.78c-.83,1.25-1.13,3.09-1,6.17h3.73V9.29H43.44v7c0,1.75,0,3.49.06,5.22l2.57.29v.84H37.74v-.84l2.08-.24c0-1.73.08-3.49.08-5.27v-7H37.6v-.9Z"/><path class="cls-3" d="M52.4,15.35c0-4.85,3.35-7.63,7.3-7.63S67,10.48,67,15.35s-3.17,7.71-7.31,7.71S52.4,20.19,52.4,15.35Zm10.79,0c0-4.46-1.3-6.65-3.49-6.65s-3.49,2.19-3.49,6.65,1.25,6.69,3.49,6.69S63.19,19.86,63.19,15.37Z"/><path class="cls-3" d="M78.74,11.75c.87-2.6,2.68-4,4.3-4a2.26,2.26,0,0,1,2.44,1.73c-.08,1.22-.6,2.05-1.87,2.05a2.78,2.78,0,0,1-2.13-1.29l-.3-.33a7.3,7.3,0,0,0-2.44,4v2.41c0,1.46,0,3.65.06,5.19l2.49.32v.84H73.14v-.84l2-.24c0-1.54,0-3.79,0-5.27V14.32c0-1.76,0-2.73-.11-4l-2.13-.22V9.39l5.19-1.65L78.5,8Z"/><path class="cls-3" d="M116.16,21.78v.84h-7.31v-.84l1.87-.24c0-1.54,0-3.73,0-5.27V13c0-2.55-.7-3.31-2.11-3.31a5.11,5.11,0,0,0-3.51,1.79,9,9,0,0,1,.1,1.52v3.3c0,1.54,0,3.76.09,5.3l1.75.21v.84H99.76v-.84l1.95-.24c0-1.54.05-3.73.05-5.27V13c0-2.46-.67-3.33-2.11-3.33a5.24,5.24,0,0,0-3.4,1.82v4.79c0,1.48,0,3.76,0,5.3l1.76.21v.84H90.65v-.84l2-.24c0-1.54,0-3.79,0-5.27V14.32c0-1.79,0-2.76-.1-4l-2.14-.22V9.39l5.19-1.65L96,8l.19,2.43c1.57-1.81,3.17-2.7,5-2.7A3.54,3.54,0,0,1,105,10.53c1.73-2.06,3.35-2.81,5.14-2.81,2.78,0,4.16,1.65,4.16,5.3v3.25c0,1.54,0,3.76.06,5.3Z"/><path class="cls-3" d="M136.55,21.16A3.1,3.1,0,0,1,133.47,23a2.82,2.82,0,0,1-2.95-2.38C129,22.22,128,23.06,126,23.06c-2.27,0-3.92-1.36-3.92-3.63s1.24-3.57,5.41-4.87c.81-.27,1.9-.57,3-.81V12.37c0-2.87-.73-3.65-2.76-3.65a6.35,6.35,0,0,0-1.41.16l-.37,1.95c-.11,1.49-.84,2.08-1.76,2.08a1.49,1.49,0,0,1-1.63-1.24c.35-2.44,2.6-3.95,6.36-3.95,3.55,0,5,1.54,5,5.33v7c0,1.21.38,1.62,1,1.62.4,0,.73-.24,1.21-.89Zm-6.14-6.63c-.81.25-1.57.46-2,.65-2.14.84-2.95,2.09-2.95,3.76a2.06,2.06,0,0,0,2.17,2.36c.89,0,1.57-.41,2.81-1.44Z"/><path class="cls-3" d="M151.08,21.14a4.34,4.34,0,0,1-3.9,1.92c-2.49,0-3.87-1.22-3.87-4,0-.87,0-1.62,0-2.71V9.29H141v-.9l2.52-.27,1.16-4.24H147l-.08,4.27h3.57V9.29h-3.6v10c0,1.51.68,2.13,1.76,2.13a3,3,0,0,0,1.92-.81Z"/><path class="cls-3" d="M163.66,21.78v.84h-7.45v-.84l2-.24c0-1.54.05-3.79.05-5.27V14.35c0-1.74,0-2.76-.08-4.12L156,10V9.29l5.49-1.55.38.25-.05,4.22v4.06c0,1.48,0,3.76.05,5.3ZM157.78,2.71a2.14,2.14,0,0,1,4.28,0,2.14,2.14,0,0,1-4.28,0Z"/><path class="cls-3" d="M169.69,15.35c0-4.85,3.35-7.63,7.3-7.63s7.31,2.76,7.31,7.63-3.17,7.71-7.31,7.71S169.69,20.19,169.69,15.35Zm10.79,0c0-4.46-1.3-6.65-3.49-6.65s-3.49,2.19-3.49,6.65,1.25,6.69,3.49,6.69S180.48,19.86,180.48,15.37Z"/><path class="cls-3" d="M207.15,21.78v.84h-7.41v-.84l1.89-.24c.06-1.51.08-3.73.08-5.27V12.8c0-2.35-.67-3.16-2.13-3.16A5.58,5.58,0,0,0,196,11.4v4.87c0,1.48,0,3.76.06,5.3l1.76.21v.84h-7.42v-.84l2-.24c0-1.54.05-3.79.05-5.27V14.32c0-1.76,0-2.73-.11-4l-2.13-.22V9.39l5.19-1.65.38.25.19,2.46c1.7-2,3.38-2.73,5.14-2.73,2.54,0,4.14,1.62,4.14,5.25v3.3c0,1.54,0,3.76.05,5.3Z"/><line class="cls-4" x1="65.36" y1="40.81" x2="145.36" y2="40.81"/></g></g></svg>