<svg xmlns="http://www.w3.org/2000/svg" viewBox="0 0 390 127.06"><defs><style>.cls-1{fill:#ee9b19;}.cls-2{fill:#fff;}</style></defs><title>button_index_top_nav_ul_li_01</title><g id="レイヤー_2" data-name="レイヤー 2"><g id="指示"><rect class="cls-1" width="390" height="127.06"/><path class="cls-2" d="M129.76,55.71c-1.5.92-3.73,2.26-7,3.94a1.13,1.13,0,0,1-.71.68l-1.6-3.45c1.63-.19,5.41-.79,9.25-1.47Zm-8.61,18.78a25.64,25.64,0,0,0,9-4.74L133.59,72c-.24.3-.76.41-1.57.22a30.58,30.58,0,0,1-10.76,2.58Zm1.28-24.58c7.76.08,5.86,5.88,2.81,4.25a9.77,9.77,0,0,0-3-4Zm15.85,20.58V69.43H128.4v.73c0,.3-1.37,1-2.67,1h-.49V58.37l3.35,1.31H138l1.45-1.55,3,2.29a1.73,1.73,0,0,1-1,.49V69.7a5,5,0,0,1-2.67.79ZM137.49,53c.79,2.28,3.1,3.67,8.33,4.3l0,.35a2.34,2.34,0,0,0-2.21,2.48c-4.3-1.06-5.85-3.57-6.5-6.48-1.14,3.27-4.22,4.85-9.09,5.61l-.09-.36c3.87-1.3,5.72-3,6.32-5.9H132.4a13.86,13.86,0,0,1-4.25,2.5l-.22-.22a12.18,12.18,0,0,0,3.49-6l4.13.93c-.11.27-.3.41-1,.38a11.55,11.55,0,0,1-1.34,1.61h7.95l1.5-1.53,2.64,2.53a1.5,1.5,0,0,1-1.06.33,18.19,18.19,0,0,1-3.92,2l-.27-.13c.35-.66.79-1.64,1.11-2.45Zm-9.09,7.51v2.18h9.88V60.47Zm9.88,2.94H128.4v2.21h9.88Zm0,5.25V66.41H128.4v2.25Zm-4.2,1.91c15.28.19,9.8,5.83,6.92,3.73a19.4,19.4,0,0,0-7-3.38Z"/><path class="cls-2" d="M169.31,62.19c7.32,1.52,4.87,6.83,2.23,4.87a9.8,9.8,0,0,0-2.23-4.47V73.81c0,.33-1.25,1-2.34,1h-.57v-8.9a21.44,21.44,0,0,1-4.6,4.82l-.3-.33a25.57,25.57,0,0,0,4-9.69h-3.73l-.21-.79h4.87V49.34l3.92.38c-.06.41-.25.68-1,.79V60h.9l1.47-2s1.74,1.36,2.77,2.32c-.08.3-.35.43-.73.43h-4.41Zm-7.24-10.46c5.93,3.27,3.05,8,.87,5.66a15.63,15.63,0,0,0-1.17-5.55Zm7.87,6.18c.35-1.58.79-4.11,1.11-6.26l3.62,1.09c-.11.33-.43.57-1,.6a44,44,0,0,1-3.27,4.76ZM185,63.36s1.69,1.11,2.78,1.9a.63.63,0,0,1-.6.57l-3.43.68v7.22c0,.32-1.33,1.09-2.5,1.09h-.6V67.14l-7.11,1.44-.35-.71,7.46-1.49V49.31l4.05.41c-.05.38-.21.68-1,.79V65.75l.08,0Zm-10.91-5.12c7.54.82,5.47,6.37,2.69,4.57a9.22,9.22,0,0,0-2.91-4.38Zm.52-6.51c7.35,1.26,5,6.59,2.31,4.66a10.36,10.36,0,0,0-2.53-4.49Z"/><path class="cls-2" d="M211.51,52.9s1.57,1.28,2.53,2.21c-.06.3-.33.41-.71.41H203.09l-.21-.77h7.21Zm-1,3.6s1.53,1.25,2.45,2.12a.65.65,0,0,1-.71.44H204.4l-.22-.77h4.9Zm0,3.54s1.53,1.25,2.45,2.15c-.08.27-.35.4-.71.4H204.4l-.22-.76h4.9Zm.3,4,2.78,2.13a2,2,0,0,1-1.06.51V73a3.72,3.72,0,0,1-2.32.82h-.49V72.18H207V74c0,.27-1.23.89-2.4.89h-.41V64.31l2.92,1.2h2.34Zm-6.32-12-.21-.79h4.62l1.42-1.85s1.61,1.28,2.56,2.2a.62.62,0,0,1-.68.44Zm5.23,19.32V66.3H207v5.11ZM226,56.33s1.74,1.36,2.8,2.34c0,.3-.35.44-.73.44H213.41l-.22-.79h5.91V56h-4.22l-.22-.74h4.44V53h-4.95l-.22-.77h5.17V49.45l4.08.35c-.05.38-.27.65-1,.73v1.69h1.71l1.55-2s1.72,1.36,2.75,2.31c-.08.3-.32.44-.71.44h-5.3v2.25h1.44l1.44-1.85s1.61,1.28,2.59,2.15c-.08.3-.36.44-.74.44h-4.73v2.34h2.31Zm-1.23,3.3,3,2.26a2,2,0,0,1-1,.49V71.2c0,2.12-.44,3.29-3.76,3.62a5.24,5.24,0,0,0-.49-2.24,2.74,2.74,0,0,0-1.93-1V71.2s2.1.13,2.59.13.51-.16.51-.51V68.53h-5.49v5.2c0,.3-1.28,1-2.56,1h-.47V59.9l3.16,1.28h5.09Zm-6.58,2.31v2.48h5.49V61.94Zm5.49,5.83V65.21h-5.49v2.56Z"/><path class="cls-2" d="M268.24,59.44c-.14.27-.41.38-1,.32a45.67,45.67,0,0,1-5.71,3.73,17.32,17.32,0,0,0,8.24,5.61l-.08.3a3.89,3.89,0,0,0-2.72,3c-4.06-2.7-6.72-6.1-8.19-12.91V71c0,2.26-.52,3.54-4.36,3.87a3.68,3.68,0,0,0-.76-2.29,4.61,4.61,0,0,0-2.7-1.14V71s3.24.22,3.9.22c.49,0,.62-.16.62-.54V64.83a93.71,93.71,0,0,1-7.24,6.28,1.14,1.14,0,0,1-.54.85l-2.51-3.43c1.8-.71,6-2.56,10.29-4.66V56H245.1l-.22-.79h10.56v-5.8l4.25.44c-.06.38-.27.62-.95.73v4.63h6l1.77-2.26s2,1.52,3.21,2.61c-.08.3-.35.44-.76.44H258.74v1.9a16.68,16.68,0,0,0,2.31,5,42.22,42.22,0,0,0,3.38-5.9Zm-20.39-2.07c8.3,1.9,5.63,8.11,2.56,5.77a12,12,0,0,0-2.81-5.61Zm12.25-7c7.16-.16,5.33,5.34,2.42,3.81a8.2,8.2,0,0,0-2.64-3.62Z"/></g></g></svg>