<svg xmlns="http://www.w3.org/2000/svg" viewBox="0 0 390 127.06"><defs><style>.cls-1{fill:#b40732;}.cls-2{fill:#fff;}</style></defs><title>button_index_top_nav_ul_li_02</title><g id="レイヤー_2" data-name="レイヤー 2"><g id="指示"><rect class="cls-1" width="390" height="127.06"/><path class="cls-2" d="M135,62.7c2.31,3.46,6.78,6,10.94,7.08l0,.33a3.48,3.48,0,0,0-2.56,2.83,17.08,17.08,0,0,1-8.79-10V73.7c0,.35-1.42,1.14-2.64,1.14h-.63v-9a26.71,26.71,0,0,1-11,7.68l-.24-.33a26.36,26.36,0,0,0,9.36-10.48h-8.77l-.24-.73h10.86V54.7h-9.45l-.21-.76h9.66V49.31l4.27.41c-.05.38-.27.65-1,.76v3.46h4.92l1.85-2.32s2.07,1.58,3.35,2.64c0,.3-.38.44-.76.44h-9.36V62h5.8l1.93-2.37s2.09,1.58,3.4,2.67c-.08.3-.35.43-.76.43Zm-10.18-7.56c7.46,2.44,4.3,8,1.52,5.55a13.48,13.48,0,0,0-1.77-5.45Zm11,6.09a46.6,46.6,0,0,0,2.34-6.18l4.09,1.61c-.14.33-.52.54-1.12.49a22.68,22.68,0,0,1-5,4.3Z"/><path class="cls-2" d="M171.13,63.33a88.67,88.67,0,0,1-7.4,5.93,1.08,1.08,0,0,1-.63.85l-1.71-3.54c.68-.22,1.8-.6,3.18-1.09v-7.9H162l-.22-.78h2.8V49.66l4.09.38c-.06.39-.25.66-1,.74v5.8l1.22-2.07a32.21,32.21,0,0,1,2.37,2.64c-.08.3-.32.43-.71.43h-2.88v6.78c1.09-.41,2.23-.87,3.38-1.3Zm13.4-.84,2.77,2.31a1.69,1.69,0,0,1-1.11.46c-.41,5.15-1.17,7.68-2.59,8.69a5.32,5.32,0,0,1-3.24.87,3.19,3.19,0,0,0-.46-2,3.63,3.63,0,0,0-2-1V71.5a20.07,20.07,0,0,1-5.39,3.34l-.21-.35a17.11,17.11,0,0,0,6.94-9.72h-.85c-1.87,3.54-5.25,6.29-9.5,8.2l-.3-.39a19.55,19.55,0,0,0,6.89-7.81h-.9a19.54,19.54,0,0,1-7.29,5l-.25-.36a17.48,17.48,0,0,0,5.91-7.48h-3.46l-.21-.79h13.39L184.34,59s1.9,1.47,3.07,2.5c-.08.3-.35.44-.76.44h-10.1A14.63,14.63,0,0,1,175.19,64H183Zm-9.37-3.19c0,.27-1.33,1-2.61,1h-.44V49.64l3.19,1.25H181l1.47-1.58,3,2.29a1.83,1.83,0,0,1-1,.54v6.64a4,4,0,0,1-2.58,1h-.55V58.67h-6.07Zm0-7.65v2.7h6.07v-2.7Zm6.07,6.23V55.14h-6.07v2.74Zm1.17,6.89a15.71,15.71,0,0,1-4.49,6.7c.87.08,2.23.16,2.78.16a1.5,1.5,0,0,0,.92-.22c.66-.54,1.2-2.75,1.56-6.64Z"/><path class="cls-2" d="M228.71,61.21a1.58,1.58,0,0,1-1.14.35,34.73,34.73,0,0,1-6.78,5.12l-.22-.19a37.14,37.14,0,0,0,3.16-5.67h-6.32v10c0,2.21-.62,3.73-4.68,4a3.35,3.35,0,0,0-.84-2.31,5.66,5.66,0,0,0-3.16-1.14V71s4,.22,4.71.22c.49,0,.65-.16.65-.52V60.82H203.28L203,60h13a17.58,17.58,0,0,0-6-5.42l.14-.33a15,15,0,0,1,6.39,1.5,33.31,33.31,0,0,0,3.9-3.46h-14l-.24-.76h14.56l1.88-1.72,3,2.86c-.24.22-.54.27-1.17.3a43.84,43.84,0,0,1-7.27,3.21c1.91,1.39,1.77,3.11.85,3.82h5.58l1.88-1.83Z"/><path class="cls-2" d="M270.06,56a1.83,1.83,0,0,1-1.22.55c-.3,9.91-.85,15.21-2.48,16.87a5.4,5.4,0,0,1-4.17,1.45,3,3,0,0,0-.65-2.29,6.94,6.94,0,0,0-3.16-1.28V70.9c1.47.1,3.62.27,4.39.27a1.4,1.4,0,0,0,1.08-.38c1.07-.93,1.56-6.51,1.83-14.84h-6.89a18.54,18.54,0,0,1-3.4,4.28c2,2.28.13,4.7-1.69,3.15a9.44,9.44,0,0,0-.54-2.12l-1.37.46V74a3,3,0,0,1-2.39.82h-.52V66a2.06,2.06,0,0,1-.38,0,16.21,16.21,0,0,1-3.81,6.45l-.41-.22a29.85,29.85,0,0,0,1.66-7.7l2.94.71V62.65c-.87.27-1.82.54-2.86.84a1,1,0,0,1-.79.6l-.87-3c.74,0,1.94-.06,3.41-.14a52.85,52.85,0,0,0,4-8.19l3.89,1.47c-.13.3-.49.52-1.09.44a41.92,41.92,0,0,1-5.77,6.23l4.14-.22a16.45,16.45,0,0,0-1.2-2.34l.27-.14a8.54,8.54,0,0,1,3,1.64,38.31,38.31,0,0,0,2.89-10.43L262,50.67a1,1,0,0,1-1.06.57,27.81,27.81,0,0,1-1.71,3.95h6.15l1.74-1.8Zm-17.34-5.33c-.11.35-.46.6-1.06.54a20.35,20.35,0,0,1-3.46,3.68c2.67,1.79.93,4.6-1.09,3.24a9.37,9.37,0,0,0-2.39-4.2l.24-.19a9.1,9.1,0,0,1,2.34.68,52.56,52.56,0,0,0,1.36-5.09Zm-.46,13.69c6.39,2.69,3.56,7.57,1.19,5.33a13.79,13.79,0,0,0-1.49-5.2Zm5.9-5c7.33,2.89,4.5,8.47,1.83,6.07a14.39,14.39,0,0,0-2.1-5.93Z"/></g></g></svg>