<svg xmlns="http://www.w3.org/2000/svg" viewBox="0 0 350.17 68.09"><defs><style>.cls-1{fill:#588f45;}.cls-2{fill:none;stroke:#588f45;stroke-miterlimit:10;stroke-width:2px;}</style></defs><title>location_main_top_logo_figure</title><g id="レイヤー_2" data-name="レイヤー 2"><g id="wire"><path class="cls-1" d="M31.11,29.43c0,1.92.28,3.07,1.15,3.4a.4.4,0,0,1,0,.58,10.76,10.76,0,0,0-2.35.43,37.14,37.14,0,0,1-8.59,1.25c-5.72,0-10.95-1.58-14.64-5.33A15.07,15.07,0,0,1,2.21,18.87,16.47,16.47,0,0,1,6.53,7.49c3.22-3.36,8-5.62,15.22-5.62a28.75,28.75,0,0,1,6.09.72,12.6,12.6,0,0,0,3,.43,54.56,54.56,0,0,0,.72,7c-.15.38-1,.43-1.3.14C28.9,4.94,25.3,3.31,20.4,3.31,11.09,3.31,7,9.94,7,17.14c0,9.21,4.75,16.46,14.4,16.46,3,0,4.75-.62,5.28-1.44a5.32,5.32,0,0,0,.48-2.73V27.51c0-4-.14-4.32-3.12-4.66l-2.11-.24a.79.79,0,0,1,0-1.2c1.39.1,4,.14,6.86.14,1.88,0,3.51,0,5.09-.14a.83.83,0,0,1,0,1.2l-.77.1c-2,.24-2.06,1.58-2.06,4Z"/><path class="cls-1" d="M43,20.55c0-1.88,0-2.12-1.3-3l-.43-.29a.65.65,0,0,1,.05-.86,38.22,38.22,0,0,0,4.85-2.35c.24,0,.38.14.38.33v2.79c0,.24.05.38.15.43,1.68-1.39,3.5-2.88,5.28-2.88a2,2,0,0,1,2.16,1.92A2.14,2.14,0,0,1,52,18.87,1.83,1.83,0,0,1,51,18.53a3.94,3.94,0,0,0-2.11-.77,2.12,2.12,0,0,0-1.73,1,7.31,7.31,0,0,0-.63,3.7V29c0,3.45.1,4,1.92,4.17l1.73.15a.83.83,0,0,1-.1,1.2c-2.25-.1-3.64-.15-5.32-.15s-3.17,0-4.42.15a.84.84,0,0,1-.1-1.2l.92-.15C42.91,32.83,43,32.4,43,29Z"/><path class="cls-1" d="M62.83,22c-1.25,0-1.29.1-1.29,1.3,0,4.85,2.83,9,8,9A5.18,5.18,0,0,0,73.92,30a.62.62,0,0,1,.86.57A8.4,8.4,0,0,1,67.25,35a8.61,8.61,0,0,1-7-3.17,10.2,10.2,0,0,1-2-6.24c0-5.91,3.89-10.85,9.65-10.85,4.13,0,6.82,2.83,6.82,5.71a2.87,2.87,0,0,1-.2,1.25c-.14.29-.81.33-2.83.33Zm3-1.44c3.55,0,4.61-.19,5-.48.14-.09.29-.28.29-.91,0-1.34-.91-3-3.7-3s-5.28,2.59-5.33,4.17c0,.1,0,.24.34.24Z"/><path class="cls-1" d="M84.24,22c-1.25,0-1.3.1-1.3,1.3,0,4.85,2.84,9,8,9A5.18,5.18,0,0,0,95.33,30a.63.63,0,0,1,.86.57A8.4,8.4,0,0,1,88.66,35a8.61,8.61,0,0,1-7-3.17,10.2,10.2,0,0,1-2-6.24c0-5.91,3.89-10.85,9.65-10.85,4.13,0,6.81,2.83,6.81,5.71A2.92,2.92,0,0,1,96,21.7c-.14.29-.81.33-2.83.33Zm3-1.44c3.55,0,4.6-.19,5-.48.14-.09.29-.28.29-.91,0-1.34-.92-3-3.7-3s-5.28,2.59-5.33,4.17c0,.1,0,.24.34.24Z"/><path class="cls-1" d="M104.11,20.55c0-1.88,0-2.12-1.3-3l-.43-.29a.65.65,0,0,1,.05-.86,26.67,26.67,0,0,0,4.8-2.35.56.56,0,0,1,.53.33c-.1,1.11-.1,1.83-.1,2.26a.51.51,0,0,0,.53.53c2-1.25,4.27-2.45,6.72-2.45,4,0,5.62,2.73,5.62,6V29c0,3.45.09,3.93,1.82,4.17l1.06.15a.84.84,0,0,1-.1,1.2c-1.44-.1-2.83-.15-4.51-.15s-3.17,0-4.46.15a.83.83,0,0,1-.1-1.2l.91-.15c1.78-.29,1.83-.72,1.83-4.17V21.79c0-2.73-1.25-4.75-4.52-4.75a5.24,5.24,0,0,0-4.08,1.68,4.07,4.07,0,0,0-.72,2.88V29c0,3.45.1,3.88,1.83,4.17l.86.15a.84.84,0,0,1-.09,1.2c-1.3-.1-2.69-.15-4.37-.15s-3.17,0-4.52.15a.84.84,0,0,1-.09-1.2l1-.15c1.77-.24,1.82-.72,1.82-4.17Z"/><path class="cls-1" d="M173,11.38c3.6,0,5.47-.1,6.76-.19a.87.87,0,0,1,.1,1.15l-2.11.33c-2.64.44-4,2.84-5.52,5.24s-3.55,5.23-5.57,8c.82,1.3,1.1,1.68,1.58,2.4,2.55,3.89,5,4.32,7,4.32a6.17,6.17,0,0,0,4.32-1.72.64.64,0,0,1,.53.86c-1.92,2.4-4.66,3.22-7.63,3.22a8.5,8.5,0,0,1-5.14-1.4,29.37,29.37,0,0,1-2.93-4.41c-2.73,3.07-6.19,5.81-10.46,5.81-6.77,0-9.41-4.85-9.41-8.65,0-5,3.5-7.92,7.78-10.46-1.73-1.2-3.7-3.07-3.7-5.81a6.63,6.63,0,0,1,6.72-6.48c3.65,0,6.19,2.4,6.19,5.71s-2.49,4.42-4.84,5.76a32.91,32.91,0,0,1,9.16,9.41,68.9,68.9,0,0,0,5-8.4,8.78,8.78,0,0,0,1-2.64c0-.33-.48-.62-1.24-.72l-1.64-.19a.8.8,0,0,1,.1-1.15ZM148,24.91a6.88,6.88,0,0,0,7.15,7.25c3.22,0,6.1-1.87,8.26-4.41a34.11,34.11,0,0,0-10-10.85C151.05,18.1,148,21,148,24.91Zm3.55-16c0,2,1.35,3.74,3.94,5.23a5.87,5.87,0,0,0,2.88-5C158.4,7.06,157.34,5,155,5A3.72,3.72,0,0,0,151.58,8.93Z"/><path class="cls-1" d="M203.61,9.89c0-4.56-.14-5.38-2.11-5.62L200,4.08a.8.8,0,0,1,0-1.2c2.69-.24,6-.38,10.71-.38,3,0,5.81.24,8,1.44a7.16,7.16,0,0,1,4,6.72c0,4.56-3.6,7.05-6,8-.24.29,0,.77.24,1.16,3.84,6.19,6.38,10,9.65,12.76a5.68,5.68,0,0,0,3.31,1.35.4.4,0,0,1,.05.67,7.61,7.61,0,0,1-2.11.24c-4.08,0-6.53-1.2-9.94-6.05-1.25-1.77-3.22-5.09-4.7-7.25-.72-1.05-1.49-1.53-3.41-1.53-2.16,0-2.26.05-2.26,1.05v6.05c0,5,.1,5.62,2.88,6l1,.15a.93.93,0,0,1-.1,1.2c-2.16-.1-3.79-.15-5.71-.15s-3.74,0-6,.15a.93.93,0,0,1-.1-1.2l1.2-.15c2.79-.33,2.88-1,2.88-6Zm3.94,6.86a3.89,3.89,0,0,0,.14,1.59c.15.14.87.24,3.32.24A8,8,0,0,0,216,17.33c1.3-1,2.4-2.69,2.4-5.95,0-3.8-2.35-7.4-7.68-7.4-3,0-3.12.2-3.12,1.54Z"/><path class="cls-1" d="M237.07,22c-1.25,0-1.3.1-1.3,1.3,0,4.85,2.83,9,8,9A5.18,5.18,0,0,0,248.16,30a.63.63,0,0,1,.86.57A8.4,8.4,0,0,1,241.49,35a8.65,8.65,0,0,1-7-3.17,10.18,10.18,0,0,1-2-6.24c0-5.91,3.89-10.85,9.65-10.85,4.13,0,6.81,2.83,6.81,5.71a2.92,2.92,0,0,1-.19,1.25c-.14.29-.81.33-2.83.33Zm3-1.44c3.55,0,4.6-.19,5-.48.14-.09.29-.28.29-.91,0-1.34-.92-3-3.7-3s-5.28,2.59-5.33,4.17c0,.1,0,.24.34.24Z"/><path class="cls-1" d="M261.17,17.43c-.82,0-.82.09-.82,1.39V29c0,3.45.1,4,1.82,4.17l1.73.15a.84.84,0,0,1-.09,1.2c-2.16-.1-3.56-.15-5.24-.15s-3.17,0-4.6.15a.83.83,0,0,1-.1-1.2l1.1-.15c1.78-.24,1.83-.72,1.83-4.17V18.82c0-1.3,0-1.39-1-1.39h-1.68a.68.68,0,0,1-.15-.92l2.07-1a1.11,1.11,0,0,0,.72-1,21.38,21.38,0,0,1,1.49-8.45c1.2-2.74,3.88-6.1,8.64-6.1,2.54,0,4.7,1.15,4.7,2.88a1.84,1.84,0,0,1-1.82,1.73A1.37,1.37,0,0,1,268.65,4a5.36,5.36,0,0,0-3.84-2.11,3.7,3.7,0,0,0-3.4,2.64c-.87,2.21-1.06,5.71-1.06,8.11v1.4c0,1.29,0,1.34.82,1.34h5.47a1.48,1.48,0,0,1-.34,2Z"/><path class="cls-1" d="M273.26,20.55c0-1.88,0-2.12-1.29-3l-.44-.29a.65.65,0,0,1,.05-.86,38.22,38.22,0,0,0,4.85-2.35c.24,0,.38.14.38.33v2.79c0,.24.05.38.15.43,1.68-1.39,3.5-2.88,5.28-2.88a2,2,0,0,1,2.16,1.92,2.14,2.14,0,0,1-2.07,2.21,1.83,1.83,0,0,1-1.05-.34,3.94,3.94,0,0,0-2.11-.77,2.12,2.12,0,0,0-1.73,1,7.31,7.31,0,0,0-.63,3.7V29c0,3.45.1,4,1.92,4.17l1.73.15a.84.84,0,0,1-.09,1.2c-2.26-.1-3.65-.15-5.33-.15s-3.17,0-4.42.15a.85.85,0,0,1-.1-1.2l.92-.15c1.77-.29,1.82-.72,1.82-4.17Z"/><path class="cls-1" d="M293.13,22c-1.25,0-1.29.1-1.29,1.3,0,4.85,2.83,9,8,9A5.18,5.18,0,0,0,304.22,30a.64.64,0,0,1,.87.57A8.41,8.41,0,0,1,297.55,35a8.61,8.61,0,0,1-7-3.17,10.2,10.2,0,0,1-2-6.24c0-5.91,3.89-10.85,9.65-10.85,4.13,0,6.82,2.83,6.82,5.71a2.87,2.87,0,0,1-.2,1.25C304.7,22,304,22,302,22Zm3-1.44c3.55,0,4.61-.19,5-.48.15-.09.29-.28.29-.91,0-1.34-.91-3-3.7-3s-5.28,2.59-5.33,4.17c0,.1,0,.24.34.24Z"/><path class="cls-1" d="M321.45,15.6a11,11,0,0,1,.77,3.89.83.83,0,0,1-1.15.14c-.82-2.11-2.26-3.5-4.23-3.5a2.84,2.84,0,0,0-3.07,2.93c0,2,2,3,3.7,4,2.54,1.44,4.9,3.07,4.9,6.48,0,3.65-3.36,5.48-6.92,5.48a8,8,0,0,1-5.13-1.44,14.07,14.07,0,0,1-.58-4.85.81.81,0,0,1,1.1-.05c.82,2.64,2.36,4.94,5.09,4.94a3,3,0,0,0,3.22-3.07c0-2.21-1.92-3.41-3.7-4.42-2.78-1.58-4.75-3.26-4.75-5.9,0-3.5,2.88-5.47,6.53-5.47A8.51,8.51,0,0,1,321.45,15.6Z"/><path class="cls-1" d="M330.43,7.25c0-2.83-.05-3.12-1.49-4L328.46,3a.73.73,0,0,1,0-1,34.63,34.63,0,0,0,5.18-2,.52.52,0,0,1,.48.29c0,1.44-.14,3.84-.14,6V16.32c0,.43,0,.82.19.91a10.92,10.92,0,0,1,6.48-2.49c4.56,0,6.19,2.83,6.19,6.19v8c0,3.45.1,4,1.83,4.17l1.3.15a.84.84,0,0,1-.1,1.2c-1.73-.1-3.12-.15-4.8-.15s-3.17,0-4.47.15a.84.84,0,0,1-.09-1.2l1-.15c1.77-.29,1.82-.72,1.82-4.17V22.08c0-3.07-1.49-5.13-4.56-5.13A5.73,5.73,0,0,0,335,18.24c-.87.72-1,1-1,2.64V29c0,3.45.1,3.93,1.82,4.17l1,.15c.34.19.24,1-.09,1.2-1.44-.1-2.84-.15-4.52-.15s-3.16,0-4.7.15a.84.84,0,0,1-.1-1.2l1.2-.15c1.78-.19,1.83-.72,1.83-4.17Z"/><line class="cls-2" y1="67.09" x2="345.61" y2="67.09"/></g></g></svg>