<svg xmlns="http://www.w3.org/2000/svg" viewBox="0 0 345.92 82.88"><defs><style>.cls-1{fill:#404040;}</style></defs><g id="レイヤー_2" data-name="レイヤー 2"><g id="header_footer" data-name="header footer"><path d="M1.49,16.08H5.21v.43H2v7.33H1.49Z"/><path d="M8.07,18.84a1.94,1.94,0,0,0,1.23.58A21.21,21.21,0,0,0,12,19.15a6.47,6.47,0,0,0,2-.59c.5,0,1.28.31,1.28.61s-.13.39-.49.43-1.85.2-3,.32c.41.18.73.4.73.64s-.17.44-.22.78c-.06.52-.14,1.53-.19,2.37.88-.08,1.74-.15,2.45-.18a6.59,6.59,0,0,0,.87-.16c.53,0,1.55.48,1.55.92a.38.38,0,0,1-.42.4,22.87,22.87,0,0,0-2.6-.35,22.24,22.24,0,0,0-5,.49,6.18,6.18,0,0,1-1.06.31c-.38,0-1-.58-1.12-.87a1.44,1.44,0,0,1-.15-.71l.21-.08a1.34,1.34,0,0,0,1,.6c.41,0,1.84-.15,3.39-.29,0-.86.08-2.1.08-2.66A1.61,1.61,0,0,0,10.89,20c-.8.12-1.4.24-1.72.24a1.15,1.15,0,0,1-.8-.48A2.7,2.7,0,0,1,7.88,19Z"/><path d="M22.21,16.92a2.37,2.37,0,0,1,.75,0c.57.08,1.28.48,1.28.72s-.16.32-.35.62a7.48,7.48,0,0,1-.43.66h.18a17.67,17.67,0,0,0,2.3-.26c.32-.07.44-.3.66-.3s1.2.53,1.2.9-.41.36-.6.67a14.91,14.91,0,0,1-7.65,6.86l-.18-.25a15.83,15.83,0,0,0,6.84-7.1c.05-.16,0-.2-.12-.2a16.82,16.82,0,0,0-1.78.28,2.47,2.47,0,0,1-.67.16,1,1,0,0,1-.53-.29,10.84,10.84,0,0,1-3.67,3.12l-.17-.24c1.88-1.4,3.6-3.84,3.6-4.55,0-.22-.31-.44-.72-.62Z"/><path d="M36.86,22.64a12.27,12.27,0,0,0,1.76-2.33c.09-.14,0-.23-.14-.2a29.84,29.84,0,0,0-3.43,1C35,22.16,35,23.24,35,24c0,1,.17,1.1,1.53,1.1A10.81,10.81,0,0,0,39,24.76c.38,0,.92.16.92.52s-.24.38-.56.44A14.13,14.13,0,0,1,36.9,26c-2,0-2.7-.15-2.71-1.78,0-.79,0-1.93,0-2.73-.54.19-1.19.43-1.63.62s-.52.41-.88.41a2,2,0,0,1-1.17-.9,1.45,1.45,0,0,1-.08-.71l.18-.06c.24.34.46.59.78.59a19.16,19.16,0,0,0,2.81-.71c0-1,.05-2.16,0-2.62,0-.3-.38-.39-1-.5v-.21a3.09,3.09,0,0,1,1-.21c.5,0,1.31.49,1.31.78s-.24.45-.3.84-.1.95-.15,1.67l3.13-.87c.36-.11.48-.34.68-.34.39,0,1.29.72,1.29,1.06s-.41.33-.67.58a15.27,15.27,0,0,1-2.46,2Z"/><path d="M43.81,18.26A2.6,2.6,0,0,1,44.7,18c.55,0,1.38.6,1.38.92s-.27.4-.3.79c-.08.64-.15,3.75-.15,4.87,0,.12,0,.15.15.13a18.82,18.82,0,0,0,6.66-4.33l.22.22a17.21,17.21,0,0,1-6.36,5.07c-.39.2-.4.5-.69.5s-1-.74-1-1,.22-.39.23-.8c0-.82,0-4.35,0-5.25,0-.26-.12-.41-1-.59Z"/><path d="M64.35,19.09l.26.17A17.72,17.72,0,0,1,58.3,25.5c-.27.17-.41.5-.7.5a2.39,2.39,0,0,1-1.54-1,2.52,2.52,0,0,1-.24-.87L56,24c.34.38.73.79,1.13.79C58.16,24.79,62.63,21.58,64.35,19.09ZM56.05,18c1.45.32,3.19,1.1,3.19,2.12a.51.51,0,0,1-.52.55c-.25,0-.44-.15-.74-.54a7.93,7.93,0,0,0-2.07-1.89Z"/><path d="M69.42,17.22a3.18,3.18,0,0,1,.85-.21c.54,0,1.43.49,1.43.81s-.23.34-.28.74-.1,1.36-.11,2a9.31,9.31,0,0,1,3,1,1.27,1.27,0,0,1,.73,1,.47.47,0,0,1-.48.51c-.49,0-.61-.49-1.38-1.13a8.31,8.31,0,0,0-1.85-1c0,.93,0,2.79,0,4,0,.56,0,.93,0,1.12,0,.41-.12.58-.45.58s-.7-.65-.7-1.2c0-.28.1-.52.15-1,.1-.89.1-2.75.1-3.61A27.44,27.44,0,0,0,70.36,18c0-.39-.34-.48-.93-.56Z"/><path d="M79.31,20.2l.1-.25a11.6,11.6,0,0,1,1.61.43c.77.28,1.32.72,1.32,1.26a.42.42,0,0,1-.43.45c-.43,0-.64-.46-1.24-.94A8.23,8.23,0,0,0,79.31,20.2Zm9.06-.72.26.17a17.21,17.21,0,0,1-6.55,6.11c-.28.16-.41.5-.76.5a2.41,2.41,0,0,1-1.47-1,2.15,2.15,0,0,1-.27-.91l.18-.11c.3.36.69.78,1.11.78C81.85,25.07,86.24,22.34,88.37,19.48Zm-7.48-1.64.12-.26a10.32,10.32,0,0,1,1.56.44c.81.35,1.28.74,1.28,1.26a.45.45,0,0,1-.43.47c-.4,0-.62-.48-1.26-1A7.57,7.57,0,0,0,80.89,17.84Z"/><path d="M91.28,20c.25.31.48.6.81.6.81,0,4-.48,6-.67a10.2,10.2,0,0,0,1.21-.22c.56,0,1.28.3,1.28.69s-.09.36-.38.36-.72-.1-1.33-.1-1.48,0-2.5.13c.35.21.64.43.64.65s-.29.32-.46.74A8.05,8.05,0,0,1,92.4,26.9l-.23-.24a7.64,7.64,0,0,0,3.55-5.31.73.73,0,0,0-.17-.46c-1,.13-2,.32-2.35.42a4.93,4.93,0,0,1-1,.27,1.49,1.49,0,0,1-1-.85,1.75,1.75,0,0,1-.08-.65Zm1.78-2.55a2,2,0,0,0,1.21.43,10.43,10.43,0,0,0,2.19-.3c.69-.16.84-.35,1.07-.35.59,0,1,.2,1,.55,0,.19-.13.31-.51.39a23.56,23.56,0,0,1-3.75.49c-.64,0-1-.39-1.4-1.07Z"/><path d="M108.3,19.38a1.92,1.92,0,0,1,.7.07c.44.14.94.6.94.88s-.19.25-.45.5a17.82,17.82,0,0,1-1.33,1.36c.28.2.5.36.5.52s-.09.29-.1.53c0,1.28,0,2.61,0,3.1s-.14.57-.42.57-.6-.46-.6-.85c0-.17.08-.36.1-.66a20.85,20.85,0,0,0,.11-2.41,1,1,0,0,0-.09-.38,12.08,12.08,0,0,1-3.55,2.1l-.12-.19c2.45-1.39,4.75-3.93,4.75-4.48,0-.2-.27-.39-.52-.51Z"/><path d="M118.41,19.34c-.07.12-.18.18-.48.13a11.63,11.63,0,0,1-1,1.25l.41.16a.49.49,0,0,1-.36.21V26.9a1.16,1.16,0,0,1-.78.28H116V21.62a13.82,13.82,0,0,1-1.88,1.47L114,23a17.71,17.71,0,0,0,3.16-4.33Zm-.17-2.46c-.07.12-.19.17-.45.12a14.22,14.22,0,0,1-3.47,2.65l-.12-.13A14.41,14.41,0,0,0,117,16.15Zm5.91,2.35s.71.55,1.12.95c0,.13-.14.19-.31.19H123v5.39c0,.73-.21,1.26-1.63,1.36a.83.83,0,0,0-.35-.69,3.17,3.17,0,0,0-1.38-.39v-.18s1.73.12,2,.12.34-.08.34-.26V20.37h-3.79l-.09-.35h5.36Zm-5.21-1.62-.1-.36h4.23l.61-.76s.68.55,1.1.93c0,.13-.15.19-.32.19Z"/><path d="M129.78,19.2c-.08.13-.18.19-.47.16-.23.41-.52.87-.85,1.34l.45.16c0,.11-.15.18-.34.22v5.77a1.05,1.05,0,0,1-.77.33h-.18V21.77a10.87,10.87,0,0,1-1.5,1.46l-.13-.12a15.93,15.93,0,0,0,2.42-4.54Zm-.09-2.39c-.08.13-.18.19-.46.13a12.66,12.66,0,0,1-3.06,2.7l-.12-.13a14.55,14.55,0,0,0,2.4-3.38Zm.85,7a2.57,2.57,0,0,1-.45,2.35.61.61,0,0,1-.92,0,.59.59,0,0,1,.28-.74,2.49,2.49,0,0,0,.89-1.61Zm.24-1.47v.46c0,.06-.28.25-.73.25h-.14v-4l1,.42h1.76V18.2h-3.11l-.09-.35h3.2V16.23l1.39.15c0,.16-.13.29-.44.32v1.15h1.83l.61-.78s.72.54,1.14.94c0,.13-.15.19-.31.19h-3.27v1.28h2.05l.42-.5.93.7a.64.64,0,0,1-.43.2v2.79a1,1,0,0,1-.74.24h-.15v-.54Zm0-2.55V22h1.1V19.82Zm4.35,6.25c.26.09.32.2.32.37,0,.37-.37.54-2,.54h-1.07c-.9,0-1-.19-1-.8V23.43l1.21.13c0,.15-.12.25-.33.29V26c0,.15,0,.18.38.18h1.77c.12,0,.18,0,.23-.13a11.81,11.81,0,0,0,.33-1.21h.16ZM132.2,22.7c2.72.36,2.23,2.24,1.29,1.72a3.68,3.68,0,0,0-1.39-1.61Zm1.56-.67V19.82h-1.14V22Zm.77-2.21V22h1.18V19.82Zm.58,3.71c3,1.28,2.2,3.43,1.26,2.68a5.17,5.17,0,0,0-1.4-2.59Z"/><path d="M138.81,23.36c.84,3.44-1.36,3.07-.7,2.06a3.45,3.45,0,0,0,.52-2.06Zm4.91-1.12a.65.65,0,0,1-.48.18c-.13,2.4-.44,3.59-1,4a1.72,1.72,0,0,1-1.12.35.78.78,0,0,0-.17-.57,1.57,1.57,0,0,0-.75-.28v-.2c.35,0,.89.08,1.11.08a.56.56,0,0,0,.41-.12c.28-.26.53-1.35.65-3.39h-2.86v.4a.8.8,0,0,1-.69.28h-.13V16.61l1,.4h2.46l.56-.68s.63.48,1,.84c0,.12-.14.18-.31.18h-2v1.29h.71l.48-.61a10.74,10.74,0,0,1,.88.77c0,.13-.14.19-.3.19h-1.77V20.3h.66l.49-.62s.55.44.9.78c0,.13-.14.19-.31.19h-1.74V22h.9l.47-.49Zm-4.2,1c1.23,1.52.46,2.84-.06,2.21a6,6,0,0,0-.11-2.17Zm0-5.9v1.29h1.07V17.35ZM140.63,19h-1.07V20.3h1.07Zm-1.07,3h1.07V20.65h-1.07Zm.68,1.07c1.61,1.16.95,2.41.4,1.85a4.14,4.14,0,0,0-.57-1.79Zm.72-.27c1.76.53,1.24,1.79.64,1.36a2.56,2.56,0,0,0-.77-1.26Zm5-1.61c.5,2.22,1.63,4.18,3.32,5l0,.14a1.15,1.15,0,0,0-.79.88c-1.63-1.19-2.38-3.18-2.75-6h-.66c0,2.06-.35,4.41-2.27,6l-.18-.12c1.38-1.81,1.56-4.13,1.56-6.43v-4l1.06.43h2.33l.48-.54,1,.8a.75.75,0,0,1-.49.24v4.07a1.29,1.29,0,0,1-.79.29h-.13v-.74Zm-.9-.34h2.62V17.4h-2.62v3.43Z"/><path d="M160,17.56s.75.59,1.2,1a.29.29,0,0,1-.31.19H150.2l-.1-.35h3.83a.78.78,0,0,1-.28-.13,4.22,4.22,0,0,0-1.23-2l.13-.1c2.38.59,2.28,2.1,1.61,2.24h2.29a14.36,14.36,0,0,0,1.07-2.29l1.47.41c0,.15-.19.24-.45.24a14.59,14.59,0,0,1-1.73,1.64h2.53Zm-5.47,1.89,1.09.83a.87.87,0,0,1-.51.23V26c0,.68-.14,1.08-1.23,1.18a1,1,0,0,0-.18-.63,1.26,1.26,0,0,0-.76-.31v-.18s.82.07,1,.07.21-.07.21-.23V24h-2.11v2.8c0,.1-.36.33-.75.33h-.16v-7.6l1,.42h1.93Zm-2.46.9V21.8h2.11V20.35Zm2.11,3.34V22.13h-2.11v1.56ZM157.51,25c0,.1-.39.28-.74.28h-.16V19.8l1.34.14c0,.16-.13.29-.44.32Zm1.65-5.5,1.36.13c0,.17-.15.27-.43.31v6c0,.72-.16,1.13-1.41,1.25a.89.89,0,0,0-.26-.63,2.17,2.17,0,0,0-1-.34V26s1.25.1,1.52.1.27-.08.27-.24Z"/><path d="M165.78,27.23h-3.72V26.8h3.26V19.47h.46Z"/><path d="M170.54,19c.76,0,4.36-.38,4.94-.5.36-.08.42-.26.66-.26.41,0,1.41.8,1.41,1.17s-.38.42-.56.82a11.61,11.61,0,0,1-7.11,6.55l-.17-.27a11.71,11.71,0,0,0,6.35-7.16c.05-.15,0-.18-.13-.18-.62,0-3.79.51-4.48.67-.32.08-.58.29-.84.29s-1-.62-1.11-1a3,3,0,0,1-.11-.73l.22-.09A1.2,1.2,0,0,0,170.54,19ZM177,17.52a1.28,1.28,0,1,1,1.28,1.28A1.26,1.26,0,0,1,177,17.52Zm.42,0a.86.86,0,1,0,.86-.85A.85.85,0,0,0,177.37,17.52Z"/><path d="M181.62,18.68a2.63,2.63,0,0,1,1.51.6s0,0,.05,0c1.2-.07,3.89-.31,4.38-.39s.51-.34.77-.34,1.29.75,1.29,1.11-.4.4-.48.75c-.12.57-.37,2-.63,3.26.42,0,.76.23.76.49a.37.37,0,0,1-.41.41c-.31,0-.93-.09-1.52-.09-.94,0-2.5.09-3.89.18v.41c0,.31-.1.52-.42.52s-.57-.39-.57-.9c0-.27,0-.91,0-1.41a21.12,21.12,0,0,0-.33-3.44,1.84,1.84,0,0,0-.69-1Zm6,5.05a38.21,38.21,0,0,0,.5-4c0-.1,0-.14-.16-.14-.72,0-2.54.14-3.2.21-.39.05-.75.17-1,.17a1.22,1.22,0,0,1-.51-.17c0,.82.12,3,.16,4.19C184.65,23.92,186.48,23.78,187.61,23.73Z"/><path d="M193.16,20.4l.11-.26a10.71,10.71,0,0,1,1.61.44c.77.27,1.32.71,1.32,1.25a.42.42,0,0,1-.43.45c-.44,0-.64-.46-1.24-.94A7.3,7.3,0,0,0,193.16,20.4Zm9.07-.72.25.16A17.21,17.21,0,0,1,195.93,26c-.27.17-.41.5-.75.5a2.42,2.42,0,0,1-1.48-.95,2.24,2.24,0,0,1-.26-.91l.18-.1c.3.35.68.77,1.1.77C195.7,25.26,200.09,22.53,202.23,19.68ZM194.75,18l.12-.26a11.15,11.15,0,0,1,1.55.44c.82.35,1.29.75,1.29,1.26a.45.45,0,0,1-.43.47c-.4,0-.63-.48-1.26-1A8,8,0,0,0,194.75,18Zm5.93.77a6.13,6.13,0,0,0-1.09-1.16l.16-.2a4.33,4.33,0,0,1,1.44.82,1,1,0,0,1,.4.71.35.35,0,0,1-.36.36C201.05,19.33,200.92,19.1,200.68,18.8Zm1.21-1a6.94,6.94,0,0,0-1.09-1.06l.15-.19a4.66,4.66,0,0,1,1.42.71,1,1,0,0,1,.45.73.32.32,0,0,1-.33.35C202.29,18.37,202.15,18.13,201.89,17.83Z"/><path d="M206.89,20.84a1.52,1.52,0,0,0,1,.44,14.29,14.29,0,0,0,2-.21,5,5,0,0,0,1.46-.46c.44,0,1.11.28,1.11.54s-.11.36-.41.38-1.27.11-2.23.22c.31.13.55.31.55.53s-.11.37-.14.6c-.06.38-.13,1.05-.18,1.68l1.7-.14a4.43,4.43,0,0,0,.73-.14c.43,0,1.27.43,1.27.79a.34.34,0,0,1-.37.36,20.55,20.55,0,0,0-2.23-.29,16.21,16.21,0,0,0-3.45.36,5.09,5.09,0,0,1-.9.27c-.33,0-.83-.49-.94-.75a1.5,1.5,0,0,1-.11-.57l.15-.06a1.11,1.11,0,0,0,.83.44c.34,0,1.41-.11,2.53-.2,0-.63.06-1.46.06-1.92a1.49,1.49,0,0,0-.23-.88c-.61.09-1,.18-1.28.18a1,1,0,0,1-.67-.42,2.3,2.3,0,0,1-.34-.66Z"/><path d="M220.21,16.92a2.37,2.37,0,0,1,.75,0c.57.08,1.28.48,1.28.72s-.16.32-.35.62a7.48,7.48,0,0,1-.43.66h.18a17.67,17.67,0,0,0,2.3-.26c.32-.07.44-.3.66-.3s1.2.53,1.2.9-.41.36-.6.67a14.91,14.91,0,0,1-7.65,6.86l-.18-.25a15.83,15.83,0,0,0,6.84-7.1c0-.16,0-.2-.12-.2a16.82,16.82,0,0,0-1.78.28,2.47,2.47,0,0,1-.67.16,1,1,0,0,1-.53-.29,10.84,10.84,0,0,1-3.67,3.12l-.17-.24c1.88-1.4,3.6-3.84,3.6-4.55,0-.22-.31-.44-.72-.62Z"/><path d="M231.42,17.22a3.18,3.18,0,0,1,.85-.21c.54,0,1.43.49,1.43.81s-.23.34-.28.74-.1,1.36-.11,2a9.31,9.31,0,0,1,3,1,1.27,1.27,0,0,1,.73,1,.47.47,0,0,1-.48.51c-.49,0-.61-.49-1.38-1.13a8.31,8.31,0,0,0-1.85-1c0,.93,0,2.79,0,4,0,.56,0,.93,0,1.12,0,.41-.12.58-.45.58s-.7-.65-.7-1.2c0-.28.1-.52.15-1,.1-.89.1-2.75.1-3.61a27.44,27.44,0,0,0-.09-2.91c0-.39-.34-.48-.93-.56Z"/><path d="M240.11,17.74c2.46.21,1.83,1.92.94,1.42A3.12,3.12,0,0,0,240,17.84Zm9.83,5.64s.76.58,1.21,1a.3.3,0,0,1-.32.18h-4.71V26.9c0,.1-.44.28-.81.28h-.18V24.56h-4.87l-.11-.35h5V23a1.21,1.21,0,0,1-.62.16h-.16V19.09A6.92,6.92,0,0,1,243,20.23l-.15-.15a10.06,10.06,0,0,0,2.23-4l1.32.5c0,.13-.19.24-.46.2a9.15,9.15,0,0,1-.5.93H247a14,14,0,0,0,.41-1.57l1.4.34c0,.15-.17.26-.44.24a8.15,8.15,0,0,1-1,1h1.81l.6-.75s.67.52,1.11.9c0,.13-.15.19-.33.19h-2.67v1.11h1.05l.56-.71s.62.5,1,.86c0,.14-.15.2-.32.2h-2.31v1.15H249l.55-.72s.63.51,1,.87a.3.3,0,0,1-.32.18h-2.33v1.19h1.61l.58-.75a13,13,0,0,1,1.08.91c0,.13-.15.19-.31.19h-5.56v.35s0,.06-.09.1l1.26.12c0,.12-.11.22-.33.27v.85h3.16Zm-9-2.57c.15,0,.2,0,.35-.19s.25-.32,2.47-3.31l.18.1c-.47.85-1.61,2.67-1.79,3.05a1.87,1.87,0,0,0-.25.77c0,.4.33.76.3,1.44a.63.63,0,0,1-.69.66c-.2,0-.36-.15-.4-.45.12-.95.06-1.54-.2-1.68a1.48,1.48,0,0,0-.56-.15v-.24Zm.19-4.64c2.48.3,1.82,2,.95,1.49A3.33,3.33,0,0,0,241,16.27ZM245.28,18v1.11H247V18ZM247,19.5h-1.68v1.15H247ZM247,21h-1.68v1.19H247Z"/><path d="M254.66,19.57c0,.09-.15.18-.37.2V26.9a1.11,1.11,0,0,1-.74.27h-.15V20.72a10.45,10.45,0,0,1-1.21,1.63l-.18-.11a22.33,22.33,0,0,0,2.18-6.11l1.41.41c0,.15-.18.26-.46.26a17,17,0,0,1-1,2.56Zm7.45-.93a13.4,13.4,0,0,1,1.1.93c0,.12-.14.18-.3.18h-6.64v1.74c0,1.63-.07,4.05-1.54,5.67l-.14-.12a13.23,13.23,0,0,0,.84-5.55V19l1,.42h5.1Zm-6.8-1.05h2V16.11l1.28.14c0,.16-.12.28-.39.32v1h1.67V16.11l1.3.14c0,.15-.13.28-.42.32v1h.89l.53-.67a10.13,10.13,0,0,1,1,.84.29.29,0,0,1-.3.19h-2.11v.83c0,.06-.22.21-.72.22h-.16V18h-1.67v.87c0,.08-.27.22-.74.22h-.15V18h-2Zm6.56,2.6L263,21a.92.92,0,0,1-.5.25V26c0,.7-.12,1.08-1.17,1.19a1.14,1.14,0,0,0-.18-.65,1,1,0,0,0-.68-.3V26s.72.06.91.06.22-.07.22-.22V24.57H260v2.19a.8.8,0,0,1-.68.27h-.15V24.57H257.7v2.28c0,.09-.35.3-.71.3h-.15V20.31l.92.42h3.68Zm-4.17.88v1.38h1.49V21.07Zm1.49,3.15V22.81H257.7v1.41Zm.83-3.15v1.38h1.54V21.07Zm1.54,3.15V22.81H260v1.41Z"/><path d="M273.93,25.67s.73.55,1.17.95c0,.13-.14.18-.31.18h-10.5l-.11-.34h4.95v-2H265.4l-.09-.33h3.82V22.46l1.39.13c0,.17-.12.28-.4.32v1.22h2.25l.6-.75s.7.52,1.12.9a.3.3,0,0,1-.32.18h-3.65v2h3.19ZM275.16,18c-.08.1-.21.11-.44.12a7.5,7.5,0,0,1-1.34,1.05l.41.35c0,.12-.16.18-.33.18h-4a13,13,0,0,1-1.8,2c1.32-.06,2.9-.16,4.52-.26a10.73,10.73,0,0,0-1.35-1.18l.12-.12c3.77,1.08,3.4,3.22,2.35,2.7a5.49,5.49,0,0,0-.87-1.14c-1.62.3-3.7.62-6.53,1a.49.49,0,0,1-.33.25l-.48-1.15c.51,0,1.23,0,2.09-.06a10.44,10.44,0,0,0,1-2H265.8l-.11-.34h6.42l.58-.71s.24.17.52.4c.14-.31.3-.73.42-1.09h-7.81a1.82,1.82,0,0,1-.53,1.48c-.28.23-.76.24-.92-.06a.62.62,0,0,1,.31-.75,2.14,2.14,0,0,0,.77-1.74h.18a5.56,5.56,0,0,1,.17.71h3.33V16.13l1.42.13c0,.16-.13.28-.43.33v1.05h3.5l.54-.56Z"/><path d="M276.15,21.68l.18-.15a1.5,1.5,0,0,0,.76.42.93.93,0,0,0,.6-.33c.56-.52,1.6-1.66,2-2.14a1.13,1.13,0,0,1,.84-.44,1.49,1.49,0,0,1,1.1.53c1.32,1.29,2.47,3,4.8,4.27a1,1,0,0,1,.55.86.43.43,0,0,1-.47.48A5.71,5.71,0,0,1,284,23.36c-1-1-2-2.34-2.82-3.25a.85.85,0,0,0-.59-.31c-.14,0-.29.1-.48.32-.42.5-1.27,1.68-1.7,2.27-.29.4-.47.68-.83.68a1.71,1.71,0,0,1-1.15-.67A1.59,1.59,0,0,1,276.15,21.68Z"/><path d="M59.05,51.75c0-10.86,4.26-16.16,10.67-16.15S80.32,41,80.3,51.77,76,68.18,69.68,68.18,59,62.56,59.05,51.75Zm15.36,0c0-8.79-2-11.33-4.7-11.34S65,43,65,51.75s2,11.54,4.73,11.55S74.4,60.59,74.41,51.77Z"/><path d="M86.48,62.56h6.75l0-19.85H87.57V38.84a20.35,20.35,0,0,0,7.3-2.62H99.5l0,26.34h5.89v5l-18.87,0Z"/><path d="M110.67,64c8.53-7.62,13.59-13.51,13.59-18.35,0-3.18-1.73-5.09-4.7-5.1-2.29,0-4.2,1.48-5.77,3.22l-3.39-3.4c2.89-3,5.69-4.74,10-4.74,5.94,0,9.88,3.83,9.87,9.69,0,5.68-4.72,11.78-10.45,17.38,1.57-.17,3.65-.34,5.09-.34h6.83v5.26l-21,0Z"/><path d="M136.56,51.85c0-10.86,4.26-16.16,10.67-16.15s10.6,5.36,10.58,16.17-4.26,16.41-10.62,16.41S136.55,62.66,136.56,51.85Zm15.36,0c0-8.78-2-11.33-4.7-11.34s-4.75,2.54-4.76,11.32,2,11.55,4.73,11.55S151.9,60.69,151.92,51.87Z"/><path d="M162.61,53.32l11.58,0v4.45H162.6Z"/><path d="M180.54,62.68h6.74l0-19.86h-5.68V39a20.55,20.55,0,0,0,7.3-2.62h4.62l0,26.35h5.9v5l-18.88,0Z"/><path d="M219.17,41.6l-14.12,0V36.37l20.87,0v3.78c-7.31,8.9-8.29,15.3-8.82,27.6h-6.32C211.35,56.86,213.18,49.91,219.17,41.6Z"/><path d="M232.21,62.75H239l0-19.85H233.3V39a20.28,20.28,0,0,0,7.3-2.62h4.63l0,26.34h5.9v5l-18.87,0Z"/><path d="M256.66,53.44l11.58,0v4.45H256.65Z"/><path d="M274.6,62.8h6.74l0-19.85h-5.68V39.09a20.35,20.35,0,0,0,7.3-2.62h4.62l0,26.35h5.89v5l-18.88,0Z"/><path d="M299,60.07c0-4,2.47-6.61,5.4-8.17v-.22a8.94,8.94,0,0,1-4.15-7.47c0-5.05,4-8.27,9.47-8.26s9.12,3.36,9.11,8.37a9.12,9.12,0,0,1-4,7.16v.22c2.88,1.57,5.26,4.12,5.25,8.4,0,4.75-4.21,8.4-10.57,8.39C303.44,68.48,298.94,65,299,60.07Zm15.23-.19c0-3.26-2.88-4.63-6.95-6.28a7.51,7.51,0,0,0-2.89,5.8c0,2.85,2.33,4.67,5.25,4.68C312.22,64.08,314.18,62.6,314.18,59.88Zm-.49-15.18c0-2.55-1.52-4.38-4.15-4.38a3.65,3.65,0,0,0-3.82,3.9c0,3,2.41,4.41,5.72,5.73A7.54,7.54,0,0,0,313.69,44.7Z"/><path d="M324.67,52.09c0-10.86,4.26-16.16,10.67-16.15s10.6,5.36,10.58,16.18-4.26,16.41-10.62,16.4S324.66,62.91,324.67,52.09Zm15.36,0c0-8.78-2-11.33-4.7-11.33s-4.75,2.54-4.76,11.32,2,11.54,4.73,11.54S340,60.93,340,52.11Z"/><path d="M49.93,62.52a2.86,2.86,0,1,0,2.85,2.87A2.86,2.86,0,0,0,49.93,62.52Zm0,5.39a2.53,2.53,0,1,1,2.52-2.52A2.53,2.53,0,0,1,49.93,67.91Z"/><path d="M50.74,65.06a.94.94,0,0,0,.22-.61.85.85,0,0,0-.31-.73,1.21,1.21,0,0,0-.84-.26H48.73v3.77h.44V65.51h.49l1.1,1.72h.55l-1.2-1.81A1.13,1.13,0,0,0,50.74,65.06Zm-1.56.07v-1.3h.56c.51,0,.77.21.77.63a.66.66,0,0,1-.22.48.79.79,0,0,1-.56.19Z"/><path d="M11.49,61.12a5.67,5.67,0,0,0,5.63-5.86c0-3.07-3-5.52-5.61-7-2.59,1.46-5.62,3.9-5.62,7A5.65,5.65,0,0,0,11.49,61.12Z"/><path d="M34.33,61.08A5.65,5.65,0,0,0,40,55.22c0-3.06-3-5.52-5.61-7-2.59,1.47-5.62,3.92-5.62,7A5.65,5.65,0,0,0,34.33,61.08Z"/><path d="M0,42.62a26.09,26.09,0,0,1,11.54,2.62,24.6,24.6,0,0,1,11.31-2.59,24.49,24.49,0,0,1,11.29,2.62,26,26,0,0,1,11.56-2.59V38L0,38Z"/><path d="M42.56,55.3a8.49,8.49,0,0,1-8.42,8.4,8.37,8.37,0,0,1-8.26-8.43c0-3.61,2.61-6.47,5.43-8.35a22.32,22.32,0,0,0-16.87,0c2.81,1.9,5.41,4.76,5.4,8.38a8.38,8.38,0,0,1-8.29,8.4,8.54,8.54,0,0,1-8.46-8.43c0-3.61,2.8-6.47,5.63-8.35A23.33,23.33,0,0,0,0,45.23L0,67.8l45.7.06,0-22.57A23.36,23.36,0,0,0,37,46.92C39.84,48.82,42.57,51.68,42.56,55.3Z"/><path class="cls-1" d="M7.35,76.68v1.56H6.79v-1H1.33v1H.78V76.68H1.91a6.55,6.55,0,0,0-.65-.93l.5-.22a5,5,0,0,1,.75,1l-.24.11H3.83a5.75,5.75,0,0,0-.6-1.1l.53-.17a5.74,5.74,0,0,1,.62,1.12L4,76.68H5.44a8.46,8.46,0,0,0,.82-1.19l.61.21c-.24.33-.52.69-.77,1Zm-3.12,3c-.08.23-.16.44-.25.64H6.79v2.43H6.21v-.29H2v.3H1.4V80.28h2c.06-.2.13-.43.18-.64H2V77.8H6.17v1.84Zm2,1.16H2v1.09H6.21ZM2.52,79.18H5.59v-.92H2.52Z"/><path class="cls-1" d="M12.85,80.82a7.18,7.18,0,0,0,2.85,1.26,2.27,2.27,0,0,0-.39.53,7.42,7.42,0,0,1-3-1.64v1.74h-.58V81a8.1,8.1,0,0,1-3,1.58,2.6,2.6,0,0,0-.38-.51,7.64,7.64,0,0,0,2.82-1.26H8.56v-.5h3.16v-.6H9.31v-.45h2.41v-.58H8.91V78.2h1.74a3.28,3.28,0,0,0-.39-.8l.28-.06H8.59v-.51H9.86a6.1,6.1,0,0,0-.63-1.16l.5-.17a5.62,5.62,0,0,1,.68,1.18l-.41.15h1V75.42h.55v1.41h1V75.42h.56v1.41h1l-.3-.1a8.07,8.07,0,0,0,.61-1.21l.61.16a10.52,10.52,0,0,1-.71,1.15h1.24v.51h-1.6a9.41,9.41,0,0,1-.49.86h1.81v.49H12.3v.58h2.5v.45H12.3v.6h3.2v.5Zm-2-3.48a3.31,3.31,0,0,1,.4.8L11,78.2h1.88l-.08,0a6.41,6.41,0,0,0,.41-.83Z"/><path class="cls-1" d="M18.92,81.16H17.2v.64h-.54V75.94h2.26ZM17.2,76.48v1.77h1.16V76.48Zm1.16,4.14V78.77H17.2v1.85Zm4.33-2.18v.9h.93v.53h-.93V82c0,.34-.09.51-.33.6a4.45,4.45,0,0,1-1.29.1,1.92,1.92,0,0,0-.2-.55c.5,0,.94,0,1.07,0s.17,0,.17-.16V79.87h-3v-.53h3v-.9H19.05v-.53h2v-1H19.4v-.52h1.66v-1h.58v1h1.72v.52H21.64v1H23.7v.53Zm-2.63,1.71a5.8,5.8,0,0,1,1,1.36l-.51.32a5.92,5.92,0,0,0-1-1.41Z"/><path class="cls-1" d="M25.36,78.49v4.23h-.6v-7h2.89v2.73Zm0-2.27v.67h1.72v-.67ZM27.08,78v-.7H25.36V78Zm0,4v.4h-.54v-3.3h3V82Zm0-2.44v.74h1.88v-.74Zm1.88,2v-.78H27.06v.78Zm2.38.42c0,.38-.09.58-.35.68a4.45,4.45,0,0,1-1.34.1,2.39,2.39,0,0,0-.21-.6c.49,0,1,0,1.12,0s.18-.05.18-.2V78.49H28.36V75.76h3Zm-2.39-5.71v.67h1.79v-.67ZM30.72,78v-.71H28.93V78Z"/><path class="cls-1" d="M34.52,81.5h1.3V77.13h-1v-.47A3.7,3.7,0,0,0,36,76.25h.56V81.5h1.17v.61H34.52Z"/><path class="cls-1" d="M38.64,79.16c0-2,.72-3,1.84-3s1.82,1,1.82,3-.71,3-1.82,3S38.64,81.2,38.64,79.16Zm3,0c0-1.71-.45-2.43-1.11-2.43s-1.12.72-1.12,2.43.44,2.47,1.12,2.47S41.59,80.88,41.59,79.16Z"/><path class="cls-1" d="M44.08,77.16a.61.61,0,1,1,.61.6A.59.59,0,0,1,44.08,77.16Zm0,3.92a.61.61,0,1,1,.61.6A.6.6,0,0,1,44.08,81.08Z"/><path class="cls-1" d="M47.08,79.16c0-2,.72-3,1.83-3s1.83,1,1.83,3-.71,3-1.83,3S47.08,81.2,47.08,79.16Zm3,0c0-1.71-.45-2.43-1.12-2.43s-1.11.72-1.11,2.43.44,2.47,1.11,2.47S50,80.88,50,79.16Z"/><path class="cls-1" d="M51.52,79.16c0-2,.71-3,1.83-3s1.83,1,1.83,3-.71,3-1.83,3S51.52,81.2,51.52,79.16Zm2.95,0c0-1.71-.45-2.43-1.12-2.43s-1.12.72-1.12,2.43.45,2.47,1.12,2.47S54.47,80.88,54.47,79.16Z"/><path class="cls-1" d="M62.47,78.83v.55h-5.8v-.55Z"/><path class="cls-1" d="M64.27,81.5h1.31V77.13h-1v-.47a3.64,3.64,0,0,0,1.21-.41h.56V81.5h1.18v.61H64.27Z"/><path class="cls-1" d="M68.87,81.16a1.33,1.33,0,0,0,1,.44c.76,0,1.41-.62,1.47-2.44a1.8,1.8,0,0,1-1.35.72c-1,0-1.62-.63-1.62-1.84A1.77,1.77,0,0,1,70,76.13c1.13,0,2,.93,2,2.79,0,2.38-1,3.29-2.13,3.29a1.86,1.86,0,0,1-1.41-.6Zm2.45-2.6c-.08-1.21-.53-1.85-1.28-1.85-.56,0-1,.53-1,1.33s.35,1.3,1,1.3A1.54,1.54,0,0,0,71.32,78.56Z"/><path class="cls-1" d="M73.84,77.16a.61.61,0,1,1,.61.6A.59.59,0,0,1,73.84,77.16Zm0,3.92a.61.61,0,1,1,.61.6A.6.6,0,0,1,73.84,81.08Z"/><path class="cls-1" d="M76.84,79.16c0-2,.71-3,1.83-3s1.83,1,1.83,3-.72,3-1.83,3S76.84,81.2,76.84,79.16Zm2.94,0c0-1.71-.44-2.43-1.11-2.43s-1.12.72-1.12,2.43.45,2.47,1.12,2.47S79.78,80.88,79.78,79.16Z"/><path class="cls-1" d="M81.28,79.16c0-2,.71-3,1.83-3s1.83,1,1.83,3-.72,3-1.83,3S81.28,81.2,81.28,79.16Zm2.94,0c0-1.71-.44-2.43-1.11-2.43S82,77.45,82,79.16s.45,2.47,1.12,2.47S84.22,80.88,84.22,79.16Z"/><path class="cls-1" d="M87,75.34h2v.43H87.57v6.6h1.48v.42H87Z"/><path class="cls-1" d="M93.61,78.1a4.55,4.55,0,0,0,3.31,4.08,3.54,3.54,0,0,0-.39.54,5,5,0,0,1-3.24-3.47,5,5,0,0,1-3.14,3.47,2.91,2.91,0,0,0-.41-.48A4.65,4.65,0,0,0,93,78.1V75.54h.63Zm-2.06-.95a3.66,3.66,0,0,1-1.12,2.46l-.51-.35A3.29,3.29,0,0,0,91,77Zm5,.12a19.73,19.73,0,0,1-1.3,2.22l-.5-.24A12.46,12.46,0,0,0,95.94,77Z"/><path class="cls-1" d="M99.33,78.22a.85.85,0,1,1-.85.85A.84.84,0,0,1,99.33,78.22Z"/><path class="cls-1" d="M104.61,77.58A6.61,6.61,0,0,1,102.07,82a1.91,1.91,0,0,0-.47-.47,5.45,5.45,0,0,0,2.27-3.43h-2.08v-.6h2.31l.12,0Zm4.14-.49a20.16,20.16,0,0,1-2.18,2.08,5.41,5.41,0,0,0,2.5,2.4,2.16,2.16,0,0,0-.45.54,6.48,6.48,0,0,1-3-3.66v3.43c0,.42-.12.61-.38.72a4.59,4.59,0,0,1-1.46.12,2.78,2.78,0,0,0-.24-.64c.57,0,1.08,0,1.24,0s.22,0,.22-.21V75.44h.62v1.45a9,9,0,0,0,.67,1.8,15.22,15.22,0,0,0,1.89-2Z"/><path class="cls-1" d="M117,82.43h-3.69v.24h-.55V79.84a5.1,5.1,0,0,1-.52.52l-.2-.22v1H110.5v.66H110V75.93h2v3.9a5.63,5.63,0,0,0,1.18-1.68h-.86v-.43h1.49v-.59h-1.34v-.41h1.34v-.57h-1.48v-.44h2v2.44h-.74l.19.06a5.33,5.33,0,0,1-.31.57h1.15c.09-.21.18-.45.25-.63h-.22v-.43h1.53v-.59h-1.41v-.41h1.41v-.57h-1.51v-.44h2v2.44h-1.55l.31.07c-.09.19-.19.39-.29.56h1.59v.47h-1.73v.61h1.54v.42h-1.54v.61h1.54v.42h-1.54V82H117Zm-6.48-6v1.8h1v-1.8Zm1,4.21V78.77h-1v1.89Zm3-1.41h-1.24v.61h1.24Zm0,1h-1.24v.61h1.24ZM113.29,82h1.24v-.65h-1.24Z"/><path class="cls-1" d="M121.62,81.92a6.6,6.6,0,0,0,1.3.1h2a1.89,1.89,0,0,0-.22.6h-1.85c-1.66,0-2.85-.29-3.58-1.64a4.3,4.3,0,0,1-1.19,1.78,2.8,2.8,0,0,0-.49-.39,4.65,4.65,0,0,0,1.5-3.26l.6.06a8.66,8.66,0,0,1-.19,1.06A2.4,2.4,0,0,0,121,81.76V78.41h-2v-.56h4.63v.56h-2v1.33H124v.55h-2.37Zm-3-3.86H118V76.33h3v-.91h.61v.91h3v1.73H124V76.89h-5.45Z"/><path class="cls-1" d="M128.28,75.66a13.1,13.1,0,0,1-.87,1.71v5.34h-.59V78.22a8.07,8.07,0,0,1-.94,1.06,3.41,3.41,0,0,0-.36-.6,8.18,8.18,0,0,0,2.17-3.21ZM131,78a8.53,8.53,0,0,0,2.17,3.22,2.29,2.29,0,0,0-.45.48,9.89,9.89,0,0,1-2.07-3.22v4.22H130v-4A9,9,0,0,1,128,81.75a3.26,3.26,0,0,0-.45-.46A8.08,8.08,0,0,0,129.72,78h-1.94v-.57H130V75.53h.58v1.92h2.31V78Z"/><path class="cls-1" d="M134.89,79.07a5.33,5.33,0,0,1,1.59-3.81l.48.25a5,5,0,0,0,0,7.12l-.48.25A5.33,5.33,0,0,1,134.89,79.07Z"/><path class="cls-1" d="M140.49,80.37a10.12,10.12,0,0,0-1-1v3.38H139V79.64a7.55,7.55,0,0,1-1.14,1,2.73,2.73,0,0,0-.31-.53,6.91,6.91,0,0,0,2.38-2.63H137.8v-.54H139V75.42h.58v1.49h.66l.1,0,.33.21a7.62,7.62,0,0,1-.95,1.69c.35.29,1,.92,1.18,1.1Zm3.9,1.8c.18,0,.21-.17.24-1.15a1.54,1.54,0,0,0,.49.22c0,1.12-.17,1.42-.67,1.42h-.69c-.56,0-.68-.18-.68-.77V79h-.79c-.08,1.78-.36,3-1.73,3.7a1.71,1.71,0,0,0-.38-.47c1.26-.59,1.46-1.65,1.53-3.23h-.78V76h3.74V79h-1v2.85c0,.24,0,.28.21.28Zm-2.9-3.67h2.59v-2h-2.59Z"/><path class="cls-1" d="M152,76v6.62h-.63v-.48h-4v.52h-.6V76Zm-4.59.58v2.16h4V76.55Zm4,5V79.29h-4v2.23Z"/><path class="cls-1" d="M155.39,76a3.27,3.27,0,0,0-.13.54,19.3,19.3,0,0,0-.4,3.19,6.63,6.63,0,0,0,.08,1.08c.12-.36.31-.83.44-1.15l.34.26a17.08,17.08,0,0,0-.56,1.75,1.5,1.5,0,0,0,0,.35c0,.08,0,.2,0,.28l-.56,0a9.48,9.48,0,0,1-.31-2.51,25.44,25.44,0,0,1,.36-3.32,4,4,0,0,0,.06-.56Zm5.15,5.77a6.08,6.08,0,0,0-1.19-.91V81c0,.65-.3,1.29-1.38,1.29s-1.64-.44-1.64-1.14S156.92,80,158,80a4.11,4.11,0,0,1,.73.07c0-.6-.07-1.36-.08-2l-.76,0c-.44,0-.86,0-1.32-.05v-.61a11.9,11.9,0,0,0,1.34.07h.74v-1a2.67,2.67,0,0,0,0-.48h.73c0,.16,0,.32-.05.48s0,.58,0,1a9.63,9.63,0,0,0,1.37-.19v.63c-.44.07-.9.12-1.37.15,0,.79.06,1.58.1,2.25a5.11,5.11,0,0,1,1.55,1Zm-1.82-1.18a2.45,2.45,0,0,0-.81-.13c-.59,0-1,.27-1,.64s.38.61,1,.61.87-.33.87-.85A2.62,2.62,0,0,0,158.72,80.61Z"/><path class="cls-1" d="M164.27,76c-.24.65-.53,1.47-.79,2.1a2.45,2.45,0,0,1,.71,1.71,1.08,1.08,0,0,1-.31.91.92.92,0,0,1-.42.15,4.6,4.6,0,0,1-.53,0,1.37,1.37,0,0,0-.15-.53,1.81,1.81,0,0,0,.46,0,.53.53,0,0,0,.26-.06.71.71,0,0,0,.16-.55,2.26,2.26,0,0,0-.72-1.58c.24-.58.47-1.29.64-1.84h-1.05v6.41H162V75.76h1.79l.1,0Zm1.22,4.33a5.75,5.75,0,0,1-1.16,1.92,3,3,0,0,0-.43-.35A4.7,4.7,0,0,0,165,80.18Zm1.23-4.86a7.36,7.36,0,0,0,2.35,2.21,2.47,2.47,0,0,0-.33.49A8.07,8.07,0,0,1,166.48,76a7.38,7.38,0,0,1-2.21,2.21,2.37,2.37,0,0,0-.32-.46,6.5,6.5,0,0,0,2.24-2.28Zm.05,4.31V82c0,.32-.06.48-.27.57a2.71,2.71,0,0,1-1,.1,2.16,2.16,0,0,0-.2-.55c.38,0,.7,0,.81,0s.13,0,.13-.13V79.75h-1.76v-.51h1.76v-1H165v-.52h3.07v.52h-1.28v1h1.91v.51Zm1,.41a9.49,9.49,0,0,1,1.11,1.76l-.48.26a11.14,11.14,0,0,0-1.08-1.81Z"/><path class="cls-1" d="M175,76.23c-.18.13-.42.34-.54.45-.56.47-1.69,1.38-2.27,1.86s-.48.54,0,1c.72.58,2.18,1.79,3,2.56l-.58.52c-.16-.19-.38-.39-.54-.58-.44-.46-1.75-1.59-2.5-2.2s-.66-1,.06-1.58,1.79-1.45,2.32-2a3.54,3.54,0,0,0,.46-.53Z"/><path class="cls-1" d="M179.77,79.07a5.33,5.33,0,0,1-1.59,3.81l-.48-.25a5,5,0,0,0,0-7.12l.48-.25A5.33,5.33,0,0,1,179.77,79.07Z"/><path class="cls-1" d="M183.63,82.79h-2v-.42h1.48v-6.6H181.6v-.43h2Z"/><path class="cls-1" d="M191.12,78.84l2.64-2.64.23.23-2.64,2.64L194,81.71l-.23.23-2.64-2.64L188.47,82l-.23-.23,2.65-2.65-2.64-2.64.23-.23Zm-1.68.23a.6.6,0,1,1-.6-.6A.6.6,0,0,1,189.44,79.07Zm1.68-1.68a.6.6,0,1,1,.6-.6A.6.6,0,0,1,191.12,77.39Zm0,3.36a.6.6,0,1,1-.6.6A.6.6,0,0,1,191.12,80.75Zm1.68-1.68a.6.6,0,1,1,.6.6A.6.6,0,0,1,192.8,79.07Z"/><path class="cls-1" d="M197.94,79.32l-.91.29V82c0,.32-.07.49-.27.58a2.45,2.45,0,0,1-1,.1,2.84,2.84,0,0,0-.18-.54c.35,0,.66,0,.75,0s.14,0,.14-.14V79.8l-.95.31-.15-.58,1.1-.32V77.57h-1V77h1v-1.6H197V77h.86v.17a4.61,4.61,0,0,0,1-1.77l.52.12a6.41,6.41,0,0,1-.32.76h1.16a7.5,7.5,0,0,0,.38-.85l.58.14c-.13.24-.27.49-.4.71h1.7v.45h-1.74v.48h1.52v.38h-1.52v.52h1.52v.38h-1.52V79h1.82v.45H198.5V77.31a5.56,5.56,0,0,1-.46.5,2.43,2.43,0,0,0-.23-.24H197V79l.82-.26Zm4.74,1.52c-.12,1-.23,1.49-.42,1.68a.75.75,0,0,1-.51.18,8.4,8.4,0,0,1-1,0,1,1,0,0,0-.17-.48c.39,0,.78,0,.93,0s.21,0,.27-.07.21-.41.29-1.1h-1c0,.14-.07.27-.1.39l-.51-.08c.08-.27.16-.62.24-1h-1A2.67,2.67,0,0,1,198,82.74a2.55,2.55,0,0,0-.38-.43,2.14,2.14,0,0,0,1.51-1.9H198v-.49h3.34c0,.22-.09.46-.15.69h1.49Zm-2.42-4.09H199v.48h1.25Zm0,.86H199v.52h1.25Zm0,.9H199V79h1.25Z"/><path class="cls-1" d="M210.69,76.25v.51H209.4V78h-4.54V76.76h-1.3v-.51h1.3v-.79h.56v.79h1.39v-.83h.57v.83h1.44v-.79h.58v.79Zm-6.91,2.28h6.69v1.56h-.57V79h-2.52v.84h2.3V81.5c0,.3-.06.45-.29.54a4,4,0,0,1-1.15.09,1.73,1.73,0,0,0-.19-.51,8.57,8.57,0,0,0,.91,0c.11,0,.14,0,.14-.12V80.34h-1.72v2.37h-.57V80.34h-1.56v1.78h-.58V79.85h2.14V79h-2.48v1.08h-.55Zm1.64-1h1.39v-.78h-1.39Zm3.4-.78h-1.44v.78h1.44Z"/><path class="cls-1" d="M214.81,77.14H212.3v1.12h-.54V76.71h3.05v-.49h-2.59v-.46H218v.46h-2.64v.49h3.1v1.55h-.55V77.14h-2.55V79h-.57Zm2.92,5c.42,0,.5-.14.54-.94a2,2,0,0,0,.52.2c-.09,1-.27,1.2-1,1.2h-1.84c-.9,0-1.15-.15-1.15-.79V81.6H213V82h-.57V79.24h5.39V81.6h-2.48v.25c0,.27.1.33.6.33Zm-5.17-3.8h1.84v.38h-1.84Zm1.84-.44h-1.69v-.37h1.69ZM213,79.67v.55h1.77v-.55Zm1.77,1.49v-.54H213v.54Zm2.47-1.49h-1.9v.55h1.9Zm0,1.49v-.54h-1.9v.54Zm.27-3.59v.37h-1.71v-.37Zm-1.71.81h1.9v.38h-1.9Z"/><path class="cls-1" d="M219.46,76.76h2.95v.49h-2.95Zm2.72,5.59h-1.84v.36h-.52V80h2.36Zm0-4h-2.32v-.47h2.32Zm-2.32.62h2.32v.47h-2.32Zm2.31-2.78h-2.26V75.7h2.26Zm-1.8,4.35v1.34h1.31V80.52Zm4.59-2.22v1.34h1.51v3h-.59v-.35h-2.36v.39h-.56V79.64h1.4V78.3h-1.86v-.57h1.86V76.46c-.51.07-1,.11-1.5.15a1.78,1.78,0,0,0-.17-.49,20.38,20.38,0,0,0,3.42-.57l.44.48a12.74,12.74,0,0,1-1.59.35v1.35h1.87v.57Zm.92,1.88h-2.36v1.6h2.36Z"/><path class="cls-1" d="M229.12,78.22a.85.85,0,1,1-.85.85A.85.85,0,0,1,229.12,78.22Z"/><path class="cls-1" d="M231.92,76.25h1.67c1.32,0,2.2.44,2.2,1.72s-.88,1.81-2.16,1.81h-1v2.33h-.74Zm1.62,2.93c1,0,1.51-.37,1.51-1.21s-.52-1.12-1.55-1.12h-.84v2.33Z"/><path class="cls-1" d="M237,76.25h.74V78.7h2.73V76.25h.74v5.86h-.74V79.34h-2.73v2.77H237Z"/><path class="cls-1" d="M242.38,81.34l.44-.5a2.28,2.28,0,0,0,1.62.72c.77,0,1.23-.38,1.23-1s-.42-.79-1-1l-.84-.36a1.57,1.57,0,0,1,.65-3.07,2.42,2.42,0,0,1,1.73.73l-.39.47a1.92,1.92,0,0,0-1.34-.55c-.66,0-1.09.34-1.09.87s.51.78,1,1l.83.36a1.64,1.64,0,0,1,1.21,1.57,1.77,1.77,0,0,1-2,1.66A2.77,2.77,0,0,1,242.38,81.34Z"/><path class="cls-1" d="M250.29,75.89c0,.15-.07.32-.1.47s-.11.69-.2,1.12c.37,0,.7,0,.89,0,.7,0,1.28.27,1.28,1.34a7.6,7.6,0,0,1-.46,2.86,1.11,1.11,0,0,1-1.16.66,4.54,4.54,0,0,1-.93-.12l-.1-.67a4.12,4.12,0,0,0,1,.18.66.66,0,0,0,.69-.41,6.79,6.79,0,0,0,.37-2.43c0-.71-.33-.84-.83-.84-.19,0-.5,0-.85,0a16,16,0,0,1-1.66,4.26l-.66-.27a12.55,12.55,0,0,0,1.67-3.92l-1,.1-.71.1-.07-.7a5.61,5.61,0,0,0,.71,0l1.2-.09a9.36,9.36,0,0,0,.2-1.72Zm2.72.84a13.76,13.76,0,0,1,1.45,2.83l-.62.3A9.62,9.62,0,0,0,252.42,77Z"/><path class="cls-1" d="M257,79.51a3.73,3.73,0,0,1,2.56-1,1.79,1.79,0,0,1,2,1.65c0,1.43-1.25,2.38-4.19,2.14l-.2-.66c2.5.31,3.72-.41,3.72-1.49,0-.64-.58-1.07-1.39-1.07a3.1,3.1,0,0,0-2.45,1,1.92,1.92,0,0,0-.24.4l-.59-.14a26.27,26.27,0,0,0,.39-3.22l.68.09C257.19,77.85,257.05,79,257,79.51Zm.49-3.65a20.21,20.21,0,0,0,3.06.61l-.15.62c-.75-.1-2.47-.45-3.08-.62Z"/><path class="cls-1" d="M268.9,78.71a2.64,2.64,0,0,1,.82,1.83c0,1.18-1.07,1.9-2.63,1.9-1.08,0-1.95-.48-1.95-1.77,0-.22,0-.54.07-.91a7.85,7.85,0,0,1-1.65-.29l0-.61a6.67,6.67,0,0,0,1.67.32c.06-.46.12-1,.18-1.42a12.19,12.19,0,0,1-1.69-.27l0-.6a7.19,7.19,0,0,0,1.73.29c0-.32.07-.61.09-.82a5,5,0,0,0,0-.55l.72,0a4.45,4.45,0,0,0-.11.55c0,.2-.06.48-.1.81a12.57,12.57,0,0,0,1.6-.1l0,.6a15.17,15.17,0,0,1-1.61.08h0c-.07.46-.12,1-.18,1.42H266a13.16,13.16,0,0,0,1.65-.1v.61c-.53,0-1,.07-1.56.07h-.28a6.24,6.24,0,0,0-.05.78c0,.75.43,1.23,1.33,1.23,1.2,0,2-.51,2-1.33a2.19,2.19,0,0,0-.87-1.62Z"/><path class="cls-1" d="M272.85,79.79a3.22,3.22,0,0,0-.16.89c0,.6.61,1,1.88,1a10.51,10.51,0,0,0,2.71-.3v.68a11.05,11.05,0,0,1-2.7.28c-1.6,0-2.54-.54-2.54-1.53a4.46,4.46,0,0,1,.17-1.11Zm-.32-3.2a18,18,0,0,0,2.09.1c.76,0,1.57,0,2.14-.11v.66c-.54,0-1.4.09-2.14.09s-1.46,0-2.09-.08Zm5.13.2-.43.2a7.47,7.47,0,0,0-.66-1.12l.43-.17A10.5,10.5,0,0,1,277.66,76.79Zm.9-.33-.44.19a6.82,6.82,0,0,0-.66-1.1l.42-.18A10.81,10.81,0,0,1,278.56,76.46Z"/><path class="cls-1" d="M281.45,77.81H283v.55h-1.52v.58c.36.28,1.27,1.06,1.5,1.27l-.34.49c-.24-.26-.76-.78-1.16-1.15V82.7h-.58V79.25a8.51,8.51,0,0,1-1.52,2.36,3.08,3.08,0,0,0-.33-.55,8.31,8.31,0,0,0,1.73-2.7H279.2v-.55h1.67V76.46c-.52.1-1.05.18-1.54.25a1.72,1.72,0,0,0-.19-.47,15.84,15.84,0,0,0,3.31-.78l.44.46a10,10,0,0,1-1.44.42Zm2.63,2.93h-.57V76.37h.57Zm2-5.16v6.34c0,.41-.11.6-.36.7a5.37,5.37,0,0,1-1.44.1,2.53,2.53,0,0,0-.21-.6c.56,0,1.06,0,1.21,0s.21,0,.21-.2V75.58Z"/><path class="cls-1" d="M293.84,81.92c0,.38-.1.56-.36.66a5.38,5.38,0,0,1-1.48.09,2.78,2.78,0,0,0-.2-.57c.56,0,1.1,0,1.24,0s.22-.06.22-.21V80.28h-2.15v2.36h-.59V80.28h-2a4.57,4.57,0,0,1-1,2.48,1.91,1.91,0,0,0-.46-.39,5.18,5.18,0,0,0,1-3.51V76h5.82Zm-3.32-2.2V78.39h-1.91v.47c0,.27,0,.56,0,.86Zm-1.91-3.17v1.28h1.91V76.55Zm4.65,0h-2.15v1.28h2.15Zm0,3.17V78.39h-2.15v1.33Z"/><path class="cls-1" d="M296.52,77.31c0,.5,0,1.22.05,1.87.13,1.33.52,2.2,1.08,2.2.4,0,.77-.82,1-1.62l.5.58c-.47,1.34-1,1.8-1.5,1.8-.74,0-1.46-.74-1.68-2.8a21.07,21.07,0,0,1-.09-2.11,4.2,4.2,0,0,0-.05-.7h.77C296.55,76.73,296.53,77.1,296.52,77.31Zm5.58,3.33-.65.25A7.73,7.73,0,0,0,300.08,77l.63-.21A8.14,8.14,0,0,1,302.1,80.64Z"/><path class="cls-1" d="M307.58,77.4a14.38,14.38,0,0,1-1.64.27c-.07.34-.16.71-.25,1a22.66,22.66,0,0,1-1.24,3.63l-.7-.23a18.13,18.13,0,0,0,1.33-3.55c.07-.26.13-.55.2-.84l-.72,0c-.35,0-.64,0-.92,0l0-.63a6.71,6.71,0,0,0,.95.06l.84,0c.06-.29.1-.54.12-.7a3.85,3.85,0,0,0,0-.66l.77.07c-.05.17-.11.47-.14.63l-.12.58a12.21,12.21,0,0,0,1.51-.28Zm-.31,2.77a2.93,2.93,0,0,0-.11.71c0,.38.17.74,1.3.74a8.65,8.65,0,0,0,1.54-.15l0,.65a12.92,12.92,0,0,1-1.53.1c-1.24,0-1.9-.38-1.9-1.17a4.48,4.48,0,0,1,.12-.93Zm-.2-1.92c.41,0,.94-.07,1.45-.07a12,12,0,0,1,1.36.07v.6c-.4,0-.87-.09-1.34-.09a14.28,14.28,0,0,0-1.46.08Z"/><path class="cls-1" d="M315.34,77.52a14.38,14.38,0,0,1-1.64.26c-.07.35-.16.71-.25,1.06a23.57,23.57,0,0,1-1.23,3.62l-.71-.23a18.27,18.27,0,0,0,1.33-3.54c.07-.27.14-.56.2-.84l-.72,0c-.35,0-.64,0-.92,0l0-.63a6.71,6.71,0,0,0,.95.06l.84,0c.06-.29.1-.54.12-.7a3.78,3.78,0,0,0,0-.65l.77.07c0,.17-.11.47-.14.62l-.12.59a12.21,12.21,0,0,0,1.51-.29ZM315,80.28a3,3,0,0,0-.11.72c0,.37.17.73,1.3.73a7.81,7.81,0,0,0,1.54-.15l0,.65a12.72,12.72,0,0,1-1.53.11c-1.24,0-1.9-.39-1.9-1.18a4.56,4.56,0,0,1,.12-.93Zm-.2-1.92c.42,0,.94-.07,1.45-.07a12,12,0,0,1,1.36.07V79c-.4,0-.87-.08-1.34-.08a11.91,11.91,0,0,0-1.46.08Zm2.21-.89a9.47,9.47,0,0,0-.65-1.11l.42-.19a8.78,8.78,0,0,1,.66,1.11Zm.65-1.62a9.37,9.37,0,0,1,.68,1.1l-.43.19a9.28,9.28,0,0,0-.66-1.11Z"/><path class="cls-1" d="M320.85,76c-.05.15-.11.37-.15.52a10.68,10.68,0,0,0-.22,4.16c.11-.33.27-.81.42-1.2l.35.22a15.81,15.81,0,0,0-.52,1.74,2.68,2.68,0,0,0,0,.35l0,.28-.54.06a8.73,8.73,0,0,1-.42-2.51,20.83,20.83,0,0,1,.3-3.16,3.49,3.49,0,0,0,0-.53Zm5.27,2c-.36.07-.81.11-1.28.15v.27c0,1.82,0,3.11-1.68,4.1l-.59-.46a2.8,2.8,0,0,0,.78-.5c.85-.74.89-1.62.89-3.15V78.2l-1,0c-.38,0-.94,0-1.28,0v-.64a9.82,9.82,0,0,0,1.27.08c.33,0,.67,0,1,0,0-.5,0-1-.05-1.22a4.2,4.2,0,0,0-.07-.48h.74c0,.14,0,.29,0,.47s0,.69,0,1.19a11.15,11.15,0,0,0,1.29-.18Z"/><path class="cls-1" d="M333.31,82a6.06,6.06,0,0,0-1.91-1.19c0,.2,0,.38,0,.5,0,.54-.36,1.11-1.4,1.11s-1.76-.41-1.76-1.18.69-1.21,1.84-1.21a4.77,4.77,0,0,1,.66,0c0-.35,0-.72,0-1h-.44a19.47,19.47,0,0,1-2-.12v-.6a14.93,14.93,0,0,0,2,.15h.42V77.33h-.39a17.8,17.8,0,0,1-1.86-.12v-.59a12.37,12.37,0,0,0,1.85.15h.41v-.52c0-.12,0-.36,0-.47h.68a3.59,3.59,0,0,0,0,.53c0,.1,0,.25,0,.44a17.41,17.41,0,0,0,2-.19v.58c-.62.07-1.3.13-2.05.17v1.14c.76,0,1.49-.11,2.2-.21v.6c-.75.09-1.45.15-2.2.18,0,.41,0,.82.06,1.2a6.61,6.61,0,0,1,2.3,1.23Zm-2.54-1.37a4.67,4.67,0,0,0-.76-.07c-.76,0-1.16.29-1.16.65s.31.64,1.09.64c.46,0,.84-.14.84-.68C330.78,81,330.77,80.86,330.77,80.64Z"/><path class="cls-1" d="M339.73,77.37c0,.45,0,.94,0,1.3a1.9,1.9,0,0,1,.26,1,2.86,2.86,0,0,1-2.36,2.82l-.56-.54a2.85,2.85,0,0,0,2.11-1.37,1.19,1.19,0,0,1-.68.2,1.28,1.28,0,0,1-1.31-1.33,1.39,1.39,0,0,1,1.4-1.38,1.46,1.46,0,0,1,.52.09v-.79c-1.2,0-2.55.07-3.54.14v-.63l3.54-.08c0-.22,0-.4,0-.52a4.69,4.69,0,0,0-.05-.49h.73l0,.49c0,.13,0,.31,0,.52h2.44v.6c-.44,0-1.16,0-2.32,0Zm-.42,1.74a.71.71,0,0,0-.7-.49.8.8,0,0,0-.8.83.76.76,0,0,0,.8.79C339.08,80.24,339.38,79.86,339.31,79.11Z"/><path class="cls-1" d="M345.55,81.37a1.22,1.22,0,1,1-1.22-1.21A1.22,1.22,0,0,1,345.55,81.37Zm-.42,0a.8.8,0,0,0-.8-.81.82.82,0,0,0,0,1.63A.8.8,0,0,0,345.13,81.37Z"/><path d="M2.64,6.7c0,1.59.38,2.72,3.05,2.72a12.09,12.09,0,0,0,3.2-.48c.35,0,.8.19.8.51s-.12.4-.53.54a11.36,11.36,0,0,1-3.27.38c-3.19,0-4-1.49-3.55-3.65ZM4.15,4.46c.56-.37,1.27-.86,1.69-1.15.12-.1.11-.13-.06-.13-1.35,0-2.27-.11-3-1.16l.15-.2a3.65,3.65,0,0,0,2.33.64,13.15,13.15,0,0,0,2.24-.27c.5,0,1.2.27,1.2.6s-.14.36-.48.42a8.72,8.72,0,0,0-1.28.32A25.93,25.93,0,0,0,4.29,4.69ZM8.46,1a4.59,4.59,0,0,1,1.42.79.94.94,0,0,1,.4.72.31.31,0,0,1-.33.34c-.19,0-.33-.24-.55-.54a5.54,5.54,0,0,0-1.09-1.1Zm1-.74A4.39,4.39,0,0,1,10.93,1a.93.93,0,0,1,.43.74c0,.23-.1.35-.3.35s-.34-.25-.59-.55a5.68,5.68,0,0,0-1.1-1Z"/><path d="M23.61,5.09a.74.74,0,0,1-.5.14,15.51,15.51,0,0,1-2.91,2.4l-.13-.1A16.21,16.21,0,0,0,21.87,5H18.49V9.76c0,.75-.22,1.25-1.64,1.37a1,1,0,0,0-.35-.71A3.18,3.18,0,0,0,15.14,10V9.87s1.71.11,2,.11.32-.07.32-.25V5H12.56l-.1-.33h6.08a7.28,7.28,0,0,0-2.88-2.31l.07-.16a7.92,7.92,0,0,1,2.45.72,23.2,23.2,0,0,0,2.18-1.61H13.94L13.85,1h6.74l.65-.6,1,1a.89.89,0,0,1-.53.12,18.13,18.13,0,0,1-3.33,1.57c1,.62,1,1.36.72,1.61h2.77l.63-.63Z"/><path d="M24.38,10a13.14,13.14,0,0,0,.87-3.32L26.46,7c-.05.14-.17.24-.43.25a8.19,8.19,0,0,1-1.45,2.86Zm3.4-6c2.47,1.15,1.68,2.89.85,2.19a4.34,4.34,0,0,0-.29-.91l-.9.22v5.36a.86.86,0,0,1-.74.29h-.16V5.67c-.44.1-.93.21-1.46.31a.41.41,0,0,1-.31.26l-.3-1c.3,0,.78,0,1.35-.06a27,27,0,0,0,2-3.68l1.3.51a.42.42,0,0,1-.48.19,19.46,19.46,0,0,1-2.4,2.95l2-.14a6.09,6.09,0,0,0-.58-1Zm0-3.43a.39.39,0,0,1-.45.21A11.28,11.28,0,0,1,26,2.51c1,.74.49,1.7-.17,1.26a4,4,0,0,0-1.2-1.7l.11-.1a3.22,3.22,0,0,1,1,.36,17.75,17.75,0,0,0,.8-2.28Zm.12,6.07C30.25,8,29.37,9.71,28.56,9a6.53,6.53,0,0,0-.77-2.29Zm7.58-3.7a.74.74,0,0,1-.51.21c-.11,4-.36,6.68-1,7.38a2,2,0,0,1-1.58.59.86.86,0,0,0-.25-.71,4.24,4.24,0,0,0-1.43-.44V9.74c.65.06,1.68.15,2,.15a.57.57,0,0,0,.5-.18c.48-.42.7-3.2.81-6.75H30.57a8.09,8.09,0,0,1-1.36,1.93L29,4.79A16.93,16.93,0,0,0,30.55.11l1.39.42a.43.43,0,0,1-.44.25,15.9,15.9,0,0,1-.75,1.83h3.17L34.47,2ZM30.57,4.55c2.85,1.34,2,3.44,1,2.62a5.3,5.3,0,0,0-1.15-2.54Z"/><path d="M39,6.76a1.18,1.18,0,1,1,1.17-1.17A1.17,1.17,0,0,1,39,6.76Z"/><path d="M46.79,6.38A7.23,7.23,0,0,1,50,5.52a2.23,2.23,0,0,1,2.46,2.26A2.3,2.3,0,0,1,50,10.05a2.69,2.69,0,0,1-2.28-1.33l.19-.18a2.76,2.76,0,0,0,1.87.72,1.65,1.65,0,0,0,1.8-1.69C51.57,6.69,51,6,49.75,6a6.61,6.61,0,0,0-3,1c.05,1.67.19,2.1.19,2.55s-.36,1.16-.77,1.16-.32-.4-.71-.76A10.88,10.88,0,0,0,44.28,9c-.35.33-.49.49-.68.49a.58.58,0,0,1-.42-.23.79.79,0,0,1-.26-.58c0-.33.08-.42.36-.4A.93.93,0,0,0,44,8.14c.41-.24,1.33-1,2.16-1.42V4.52a6.81,6.81,0,0,1-1.31.21c-.63,0-1.16-.16-1.62-1.31l.2-.15c.6.58.8.71,1.41.69a6.19,6.19,0,0,0,1.32-.24c0-.84,0-1.6,0-1.89s-.07-.34-.26-.41a2.46,2.46,0,0,0-.78-.1l0-.22A1.83,1.83,0,0,1,46,.83c.5,0,1.31.39,1.31.71S47.12,2,47,2.4a7.75,7.75,0,0,0-.15,1.08c.84-.33,1.21-.69,1.44-.69s.66,0,.67.39c0,.2-.14.36-.4.49a13.22,13.22,0,0,1-1.77.66c0,.53,0,1.07,0,1.58Zm-.64,1a20.08,20.08,0,0,0-1.63,1.38c.43.22.95.45,1.28.6s.35,0,.35-.23Zm3.63-5a3.67,3.67,0,0,1,1.64-.11A2.2,2.2,0,0,1,53.3,4.05c0,.28-.11.52-.4.54s-.43-.3-.8-.24a5.21,5.21,0,0,0-1,.34L51,4.5c.24-.16.79-.51.95-.66a.31.31,0,0,0,0-.46,2.39,2.39,0,0,0-2.18-.72Z"/><path d="M56,4.22v6.53c0,.12-.33.36-.76.36h-.17V.38l1,.47h2.2l.47-.51,1,.78a1,1,0,0,1-.44.2V4.63a1.34,1.34,0,0,1-.77.26h-.14V4.22Zm0-3V2.34h2.35V1.19Zm2.35,2.68V2.69H56V3.87Zm4.25,2.28a.79.79,0,0,1-.45.22V9.22c0,.09-.46.3-.76.3h-.15v-.7H58.57v.61a1.11,1.11,0,0,1-.78.28h-.13V5.48l1,.42h2.53l.47-.51ZM61.26,8.46V6.24H58.57V8.46Zm4.12-7.33a.93.93,0,0,1-.5.23V9.85c0,.69-.16,1.09-1.37,1.2a.79.79,0,0,0-.26-.6,1.8,1.8,0,0,0-1-.33V9.94s1.14.09,1.37.09.29-.09.29-.28V4.22H61.5v.3c0,.1-.4.29-.78.29H60.6V.43l1,.42h2.26l.46-.57Zm-3.88.06V2.34h2.44V1.19Zm2.44,2.68V2.69H61.5V3.87Z"/><path d="M67.88,3.68c0-.66-.14-1-.93-1.59L67,1.92a3.54,3.54,0,0,1,.87.18c.48.21,1.14.79,1.14,1.31A16,16,0,0,0,68.57,6a2.52,2.52,0,0,0,1.12,2.36.32.32,0,0,0,.44-.1,18,18,0,0,0,1.16-2.17l.3.13a17.93,17.93,0,0,0-.68,2.22c-.09.59.1.63.1.93s-.39.6-1,.37a3.85,3.85,0,0,1-2.21-3.66C67.8,5.19,67.88,4.31,67.88,3.68Zm5.6-.36.09-.26A3.87,3.87,0,0,1,76,4.23a4.06,4.06,0,0,1,1,2.68c0,.55-.19.81-.58.81A.47.47,0,0,1,76,7.29,7.76,7.76,0,0,0,75.35,5,3.47,3.47,0,0,0,73.48,3.32Z"/><path d="M85,.38c0,.15-.19.21-.5.23A11,11,0,0,0,89.63,4V4.2a1.18,1.18,0,0,0-.83.83A9.74,9.74,0,0,1,84.28.77a14,14,0,0,1-5.8,4.7L78.4,5.3c2-1.16,4.4-3.58,5-5.3Zm1.91,5.7L88,6.94a.94.94,0,0,1-.52.24v3.54a1.57,1.57,0,0,1-.84.28h-.15v-.82h-5v.6c0,.09-.43.31-.83.31h-.16V6.19l1.07.47h4.79ZM85.76,3.66s.71.55,1.15,1c0,.13-.15.18-.32.18H81.27l-.09-.34h3.94Zm.76,6.17V7h-5V9.83Z"/><path d="M94.52,4.83A6.67,6.67,0,0,1,98,3.67a2.88,2.88,0,0,1,3,2.77c0,1.75-1.24,3.29-4.57,4l-.12-.26c3-1.15,3.64-2.7,3.64-4.05A2,2,0,0,0,97.84,4.1a5.62,5.62,0,0,0-3.38,1.4,23.62,23.62,0,0,0,.12,3.3c0,.36.06.59.06.88,0,.49-.21,1.08-.57,1.08s-.42-.16-.47-.45a3.84,3.84,0,0,0-.23-.82,9.3,9.3,0,0,0-.79-1.36c-.23.34-.44.65-.65.94s-.3.43-.5.43S91,9.31,91,9a.88.88,0,0,1,.29-.68A30.22,30.22,0,0,0,93.91,5c0-.29,0-.57.08-.85-.38.2-.78.43-1,.59s-.36.42-.57.42a1.41,1.41,0,0,1-1.06-.91,2.13,2.13,0,0,1,0-.54l.21-.08c.19.34.36.53.58.53a9.27,9.27,0,0,0,2-.79c.09-.79.18-1.44.18-1.79s-.09-.33-.29-.42A3.91,3.91,0,0,0,93.29,1V.73a2.47,2.47,0,0,1,.79-.15c.56,0,1.21.56,1.21.94a5,5,0,0,1-.26.84,8.37,8.37,0,0,0-.21.82h0c.21.11.48.36.48.52s-.12.26-.29.44a7.11,7.11,0,0,0-.51.61Zm-.69,4c0-.53,0-1.51,0-2.51-.34.51-.71,1.06-1.08,1.59.32.39.72.83.87,1S93.81,9,93.83,8.79Z"/><path d="M108.77,1.14a2.13,2.13,0,0,1,.82-.25c.63,0,1.37.5,1.37.86,0,.21-.23.3-.25.73s0,.78-.07,1.29a11.72,11.72,0,0,1,1.8-.3c.52,0,1,.21,1,.64s-.21.38-.57.38a12.43,12.43,0,0,0-1.82,0l-.49.06a16.13,16.13,0,0,1-.24,2.4c-.12.56-.43.94-.92.94-.21,0-.33-.06-.45-.32s-.72-.61-1.2-.84l.09-.24a7.27,7.27,0,0,0,1.35.3.36.36,0,0,0,.42-.31,11.24,11.24,0,0,0,.17-1.81c-1.13.21-2.42.51-3.29.76,0,1-.07,2.17,0,2.7,0,1.19.27,1.38,1.79,1.38a18.29,18.29,0,0,0,2.81-.33c.43,0,.82.17.82.52s-.16.38-.57.48a13.79,13.79,0,0,1-2.72.2c-1.81,0-2.81-.37-2.87-1.79,0-.67,0-1.8,0-2.91a18.89,18.89,0,0,1-2.17.78c-.35,0-.82-.43-1-.89a1.73,1.73,0,0,1-.07-.67l.18-.07c.2.31.5.62.79.62s1.45-.3,2.28-.5c0-.81,0-1.53,0-1.9s-.09-.42-.28-.5a2.23,2.23,0,0,0-.7-.13V2.15a2.36,2.36,0,0,1,.86-.21c.54,0,1.33.47,1.33.81s-.2.28-.25.76c0,.26,0,.69-.07,1.19.84-.2,2.25-.54,3.28-.77,0-.69,0-1.62,0-2.11a.37.37,0,0,0-.32-.36,6.22,6.22,0,0,0-.71-.09Z"/><path d="M117.93,5.86c-.22.64-.7,2-.86,2.39a3.72,3.72,0,0,0-.17.85c0,.39.18.77.18,1.09s-.14.46-.42.46-.44-.2-.63-.49a5.42,5.42,0,0,1-.71-2.86A12.51,12.51,0,0,1,115.88,4a6.14,6.14,0,0,0,.3-1.45,2.11,2.11,0,0,0-.68-1.34l.18-.15a2,2,0,0,1,.71.38,2.17,2.17,0,0,1,.86,1.39c0,.27-.18.5-.47,1.17A8.14,8.14,0,0,0,116,7.16a2.32,2.32,0,0,0,.19,1.1c.07.16.18.17.29,0,.26-.4.91-1.92,1.2-2.53Zm4.78-1.45c0,1.2.09,2.32.17,3.18a4.69,4.69,0,0,1,2,1.09,1,1,0,0,1,.38.7c0,.29-.13.45-.37.45s-.36-.15-.64-.4a5,5,0,0,0-1.3-1,2.53,2.53,0,0,1,0,.27c0,1-.61,1.62-2.13,1.62-1.06,0-1.95-.51-1.95-1.44s1.1-1.53,2.42-1.53a4.8,4.8,0,0,1,.78.05c0-.84-.11-2-.12-3a9.43,9.43,0,0,1-1.29.09,1.92,1.92,0,0,1-1.91-1.19l.17-.15a2.74,2.74,0,0,0,1.65.6A7.27,7.27,0,0,0,122,3.65V2.16c0-.34-.06-.4-.24-.46a4.07,4.07,0,0,0-.85-.14l0-.23a2.42,2.42,0,0,1,.93-.3c.6,0,1.26.36,1.26.65s-.11.35-.19.84a8.38,8.38,0,0,0-.11,1l.54-.2c.61-.21.82-.36.92-.36.29,0,.71.16.71.44s-.18.37-.61.54a14,14,0,0,1-1.58.4Zm-.61,3.73A5.44,5.44,0,0,0,120.85,8c-.72,0-1.49.3-1.49.85s.54.73,1.21.73c1.29,0,1.53-.46,1.53-1.39Z"/></g></g></svg>