<?xml version="1.0" encoding="utf-8"?>
<!-- Generator: Adobe Illustrator 24.1.1, SVG Export Plug-In . SVG Version: 6.00 Build 0)  -->
<svg version="1.1" id="レイヤー_1" xmlns="http://www.w3.org/2000/svg" xmlns:xlink="http://www.w3.org/1999/xlink" x="0px"
	 y="0px" viewBox="0 0 214.6 67.1" style="enable-background:new 0 0 214.6 67.1;" xml:space="preserve">
<style type="text/css">
	.st0{fill:#D00251;}
	.st1{fill:#1A1311;}
	.st2{fill:#404040;}
</style>
<g>
	<path class="st0" d="M30.6,32.7l-4.6,7c2.4,2,3.9,5,3.9,8.3c0,6-4.8,10.8-10.8,10.8c-6,0-10.8-4.8-10.8-10.8
		c0-6,4.8-10.8,10.8-10.8c1.8,0,3.6,0.5,5.1,1.3l4.6-7c-2.8-1.7-6.2-2.6-9.7-2.6C8.6,28.8,0,37.4,0,48c0,10.5,8.6,19.1,19.1,19.1
		c10.6,0,19.1-8.6,19.1-19.1C38.2,41.7,35.3,36.2,30.6,32.7z"/>
	<path class="st0" d="M33,32.1c2.7,0,4.9-2.2,4.9-4.9c0-2.7-2.2-4.9-4.9-4.9c-2.7,0-4.9,2.2-4.9,4.9C28.1,29.9,30.3,32.1,33,32.1z"
		/>
	<g>
		<path class="st1" d="M50.5,31c-0.5,0-0.8-0.1-0.9-0.3c-0.1-0.1-0.2-0.4-0.2-0.9v-5.6c0-0.5,0.1-0.8,0.2-0.9
			c0.1-0.1,0.4-0.2,0.9-0.2v-0.2h-4.6v0.2c0.5,0,0.8,0.1,0.9,0.2c0.1,0.1,0.2,0.5,0.2,0.9v5.6c0,0.4-0.1,0.7-0.2,0.9
			c-0.2,0.2-0.5,0.2-1,0.2v0.2h4.6V31z"/>
		<path class="st1" d="M51.9,23.4l0.2,0.3v6.2c0,0.6-0.3,1-1,1.1v0.2h2.6v-0.2c-0.4,0-0.7-0.1-0.9-0.3c-0.2-0.2-0.2-0.4-0.2-0.9
			v-5.7l5.7,7.1h0.8v-7.2c0-0.3,0.1-0.6,0.2-0.7c0.2-0.2,0.4-0.2,0.8-0.3v-0.2h-2.6v0.2c0.5,0,0.8,0.1,0.9,0.3
			c0.1,0.1,0.2,0.4,0.2,0.7v4.4l-4.4-5.5h-3.2v0.2c0.3,0,0.5,0,0.5,0C51.7,23.1,51.8,23.2,51.9,23.4z"/>
		<path class="st1" d="M62.5,23.3h0.7v6.6c0,0.4-0.1,0.7-0.2,0.9c-0.1,0.2-0.5,0.2-0.9,0.2v0.2h4.5V31c-0.5,0-0.8-0.1-0.9-0.2
			c-0.2-0.1-0.2-0.4-0.2-0.9v-6.6h0.7c1.1,0,1.6,0.5,1.7,1.7h0.2v-2h-7.5v2h0.2C60.9,23.8,61.5,23.3,62.5,23.3z"/>
		<path class="st1" d="M69.6,24.2v5.6c0,0.4-0.1,0.7-0.2,0.8C69.3,30.9,69,31,68.5,31v0.2h7.2l0.4-2.4h-0.2
			c-0.2,0.7-0.5,1.2-0.9,1.6c-0.4,0.4-0.9,0.5-1.6,0.5h-0.7c-0.4,0-0.6-0.1-0.7-0.2c-0.1-0.1-0.1-0.3-0.1-0.7v-2.8h0.3
			c0.8,0,1.3,0.6,1.3,1.8h0.2v-4h-0.2c-0.1,1.2-0.6,1.8-1.5,1.8h-0.2v-3.6h1.5c1.1,0,1.8,0.6,1.9,1.8h0.2v-2.2h-7.1v0.2
			c0.5,0,0.8,0.1,1,0.2C69.6,23.4,69.6,23.7,69.6,24.2z"/>
		<path class="st1" d="M83.6,28.1h-0.2c-0.4,1.8-1.2,2.7-2.4,2.7h-0.1c-0.4,0-0.6-0.1-0.7-0.1C80.1,30.6,80,30.4,80,30v-5.8
			c0-0.5,0.1-0.8,0.2-0.9c0.1-0.2,0.5-0.2,1-0.2v-0.2h-4.8v0.2c0.5,0,0.9,0.1,1,0.2c0.2,0.1,0.2,0.5,0.2,0.9v5.6
			c0,0.4-0.1,0.7-0.2,0.9c-0.2,0.2-0.5,0.3-1,0.2v0.2h6.9L83.6,28.1z"/>
		<path class="st1" d="M91,28.1h-0.2c-0.4,1.8-1.2,2.7-2.4,2.7h-0.1c-0.4,0-0.6-0.1-0.7-0.1c-0.1-0.1-0.2-0.3-0.2-0.6v-5.8
			c0-0.5,0.1-0.8,0.2-0.9c0.1-0.2,0.5-0.2,1-0.2v-0.2h-4.8v0.2c0.5,0,0.9,0.1,1,0.2c0.2,0.1,0.2,0.5,0.2,0.9v5.6
			c0,0.4-0.1,0.7-0.2,0.9c-0.2,0.2-0.5,0.3-1,0.2v0.2h6.9L91,28.1z"/>
		<path class="st1" d="M96.1,31c-0.5,0-0.8-0.1-0.9-0.3C95,30.6,95,30.3,95,29.8v-5.6c0-0.5,0.1-0.8,0.2-0.9
			c0.1-0.1,0.4-0.2,0.9-0.2v-0.2h-4.6v0.2c0.5,0,0.8,0.1,1,0.2c0.1,0.1,0.2,0.5,0.2,0.9v5.6c0,0.4-0.1,0.7-0.2,0.9
			c-0.2,0.2-0.5,0.2-1,0.2v0.2h4.6V31z"/>
		<path class="st1" d="M98.1,30.1c0.8,0.8,1.9,1.2,3.3,1.2c1,0,2-0.2,3-0.7v-1.9c0-0.4,0.1-0.7,0.2-0.8c0.1-0.1,0.4-0.2,0.8-0.2
			v-0.2h-4.1v0.2c0.4,0,0.6,0.1,0.7,0.2c0.2,0.1,0.2,0.4,0.2,0.8v2.1c-0.4,0.1-0.6,0.1-0.9,0.1c-0.8,0-1.4-0.4-1.7-1.1
			c-0.2-0.6-0.4-1.4-0.4-2.6c0-1.2,0.1-2.1,0.4-2.8c0.3-0.8,1-1.3,1.8-1.3c0.6,0,1.1,0.2,1.6,0.6c0.5,0.4,0.8,0.9,1,1.6h0.2v-2.5
			h-0.2c0,0.3-0.2,0.5-0.5,0.5c-0.1,0-0.4-0.1-0.9-0.3c-0.5-0.2-1.1-0.3-1.6-0.3c-1.5,0-2.7,0.5-3.4,1.6c-0.6,0.8-0.9,1.7-0.9,2.7
			C96.8,28.3,97.2,29.3,98.1,30.1z"/>
		<path class="st1" d="M112.7,30.3c-0.4,0.4-1,0.5-1.6,0.5h-0.7c-0.3,0-0.6-0.1-0.7-0.2c-0.1-0.1-0.1-0.3-0.1-0.7v-2.8h0.3
			c0.8,0,1.2,0.6,1.3,1.8h0.2v-4h-0.2c-0.1,1.2-0.6,1.8-1.4,1.8h-0.2v-3.6h1.4c1.2,0,1.8,0.6,2,1.8h0.2v-2.2h-7.1v0.2
			c0.5,0,0.8,0.1,1,0.2c0.1,0.1,0.2,0.4,0.2,0.9v5.6c0,0.4-0.1,0.7-0.2,0.8c-0.2,0.2-0.5,0.3-0.9,0.3v0.2h7.2l0.4-2.4h-0.2
			C113.4,29.4,113.1,29.9,112.7,30.3z"/>
		<path class="st1" d="M115.1,23.4l0.2,0.3v6.2c0,0.6-0.4,1-1,1.1v0.2h2.6v-0.2c-0.5,0-0.7-0.1-0.9-0.3c-0.2-0.2-0.2-0.4-0.2-0.9
			v-5.7l5.7,7.1h0.8v-7.2c0-0.3,0.1-0.6,0.2-0.7c0.2-0.2,0.4-0.2,0.8-0.3v-0.2h-2.5v0.2c0.4,0,0.8,0.1,0.9,0.3
			c0.1,0.1,0.2,0.4,0.2,0.7v4.4l-4.4-5.5h-3.2v0.2c0.3,0,0.5,0,0.5,0C114.8,23.1,115,23.2,115.1,23.4z"/>
		<path class="st1" d="M125.6,23.3h0.7v6.6c0,0.4-0.1,0.7-0.2,0.9c-0.2,0.2-0.5,0.2-0.9,0.2v0.2h4.5V31c-0.5,0-0.8-0.1-0.9-0.2
			c-0.1-0.1-0.2-0.4-0.2-0.9v-6.6h0.7c1.1,0,1.6,0.5,1.7,1.7h0.2v-2h-7.5v2h0.2C124,23.8,124.6,23.3,125.6,23.3z"/>
		<path class="st1" d="M141.7,22.9h-4.7v0.2c0.5,0,0.8,0,1,0.2c0.1,0.1,0.2,0.4,0.2,0.8v5.8c0,0.4-0.1,0.7-0.2,0.8
			c-0.2,0.2-0.5,0.3-1,0.3v0.2h4.6c1.4,0,2.4-0.4,3.2-1.2c0.7-0.7,1-1.7,1-2.9c0-1.3-0.4-2.3-1.3-3.1
			C143.7,23.2,142.8,22.9,141.7,22.9z M142.6,29.9c-0.3,0.5-0.9,0.8-1.6,0.8c-0.2,0-0.4,0-0.5-0.1c-0.1-0.1-0.1-0.3-0.1-0.6v-6.8
			h0.5c1.5,0,2.2,1.4,2.2,4.1C143.1,28.5,143,29.4,142.6,29.9z"/>
		<path class="st1" d="M147.3,30.7c-0.1,0.2-0.5,0.3-0.9,0.3v0.2h7.2l0.4-2.4h-0.2c-0.2,0.7-0.4,1.2-0.9,1.6c-0.4,0.4-1,0.5-1.6,0.5
			h-0.7c-0.4,0-0.6-0.1-0.7-0.2c-0.1-0.1-0.1-0.3-0.1-0.7v-2.8h0.3c0.8,0,1.3,0.6,1.3,1.8h0.2v-4h-0.2c-0.1,1.2-0.6,1.8-1.4,1.8
			h-0.2v-3.6h1.5c1.1,0,1.8,0.6,2,1.8h0.2v-2.2h-7.1v0.2c0.5,0,0.8,0.1,1,0.2c0.1,0.1,0.2,0.4,0.2,0.9v5.6
			C147.4,30.3,147.4,30.5,147.3,30.7z"/>
		<path class="st1" d="M155.3,24l2.9,7.2h0.5l2.8-7.2c0.2-0.6,0.6-0.9,1.1-1v-0.2h-2.4v0.2c0.3,0,0.6,0.1,0.7,0.1
			c0.1,0.1,0.2,0.2,0.2,0.4c0,0.1,0,0.3-0.1,0.5l-1.6,4.1l-1.7-4.2c-0.1-0.2-0.1-0.3-0.1-0.4c0-0.2,0.1-0.3,0.2-0.4
			c0.1-0.1,0.3-0.1,0.6-0.1v-0.2h-4.1v0.2c0.3,0,0.5,0.1,0.6,0.2C155.1,23.5,155.2,23.7,155.3,24z"/>
		<path class="st1" d="M164.1,24.2v5.6c0,0.4-0.1,0.7-0.2,0.8c-0.1,0.2-0.5,0.3-0.9,0.3v0.2h7.2l0.4-2.4h-0.2
			c-0.2,0.7-0.4,1.2-0.9,1.6c-0.4,0.4-1,0.5-1.6,0.5h-0.7c-0.4,0-0.6-0.1-0.7-0.2c-0.1-0.1-0.1-0.3-0.1-0.7v-2.8h0.3
			c0.8,0,1.2,0.6,1.3,1.8h0.2v-4h-0.2c-0.1,1.2-0.6,1.8-1.4,1.8h-0.3v-3.6h1.5c1.1,0,1.8,0.6,2,1.8h0.2v-2.2h-7.1v0.2
			c0.5,0,0.8,0.1,1,0.2C164,23.4,164.1,23.7,164.1,24.2z"/>
		<path class="st1" d="M178.1,28.1h-0.2c-0.4,1.8-1.2,2.7-2.4,2.7h-0.1c-0.3,0-0.6-0.1-0.7-0.1c-0.1-0.1-0.2-0.3-0.2-0.6v-5.8
			c0-0.5,0.1-0.8,0.2-0.9c0.1-0.2,0.5-0.2,1-0.2v-0.2h-4.8v0.2c0.5,0,0.9,0.1,1,0.2c0.2,0.1,0.2,0.5,0.2,0.9v5.6
			c0,0.4-0.1,0.7-0.2,0.9c-0.2,0.2-0.5,0.3-1,0.2v0.2h6.9L178.1,28.1z"/>
		<path class="st1" d="M183.3,31.2c1.6,0,2.8-0.5,3.6-1.5c0.6-0.8,0.9-1.7,0.9-2.8c0-1.2-0.4-2.2-1.1-2.9c-0.8-0.8-1.9-1.3-3.4-1.3
			c-1.5,0-2.6,0.4-3.4,1.3c-0.7,0.8-1,1.7-1,2.9c0,1.1,0.3,2,0.9,2.8C180.6,30.7,181.8,31.2,183.3,31.2z M182,24.2
			c0.3-0.7,0.8-1,1.4-1c1.2,0,1.8,1.3,1.8,3.9c0,1.1-0.1,1.9-0.4,2.6c-0.3,0.8-0.8,1.2-1.5,1.2c-0.7,0-1.1-0.4-1.5-1.2
			c-0.2-0.7-0.4-1.5-0.4-2.6C181.5,25.8,181.7,24.8,182,24.2z"/>
		<path class="st1" d="M193.8,31c-0.6,0-0.9-0.1-1.1-0.3c-0.1-0.1-0.2-0.4-0.2-0.8v-2.6h1.3c1,0,1.7-0.2,2.2-0.7
			c0.4-0.4,0.7-0.9,0.7-1.5c0-0.6-0.2-1.1-0.7-1.5c-0.5-0.4-1.2-0.6-2-0.6H189v0.2c0.4,0,0.7,0.1,0.9,0.2c0.1,0.1,0.2,0.4,0.2,0.7
			v5.9c0,0.4-0.1,0.6-0.2,0.8c-0.2,0.2-0.5,0.2-0.9,0.2v0.2h4.7V31z M192.5,23.2c0.6,0,1,0.1,1.2,0.3c0.3,0.3,0.5,0.8,0.5,1.6
			c0,0.7-0.1,1.2-0.4,1.5c-0.3,0.3-0.7,0.4-1.3,0.4V23.2z"/>
		<path class="st1" d="M198.7,24.2v5.6c0,0.4-0.1,0.7-0.2,0.8c-0.1,0.2-0.5,0.3-0.9,0.3v0.2h7.2l0.4-2.4H205
			c-0.1,0.7-0.4,1.2-0.9,1.6c-0.4,0.4-1,0.5-1.6,0.5h-0.7c-0.4,0-0.6-0.1-0.7-0.2c-0.1-0.1-0.1-0.3-0.1-0.7v-2.8h0.3
			c0.8,0,1.3,0.6,1.3,1.8h0.2v-4h-0.2c-0.1,1.2-0.6,1.8-1.4,1.8h-0.2v-3.6h1.5c1.1,0,1.8,0.6,2,1.8h0.2v-2.2h-7.1v0.2
			c0.5,0,0.9,0.1,1,0.2C198.7,23.4,198.7,23.7,198.7,24.2z"/>
		<path class="st1" d="M213.7,30.3l-1.8-3.1c1.1-0.4,1.6-1.1,1.6-2.1c0-1.5-1-2.2-2.9-2.2h-5v0.2c0.5,0,0.8,0.1,0.9,0.2
			c0.1,0.1,0.2,0.4,0.2,0.7v6c0,0.3-0.1,0.6-0.2,0.7c-0.2,0.2-0.5,0.2-0.9,0.2v0.2h4.5V31c-0.5,0-0.8-0.1-1-0.3
			c-0.1-0.1-0.2-0.4-0.2-0.8v-2.5h0.4l2.2,3.8h2.9V31C214.2,30.9,213.9,30.7,213.7,30.3z M209.7,26.9h-0.6v-3.7h0.7
			c1,0,1.5,0.6,1.5,1.8C211.3,26.3,210.7,26.9,209.7,26.9z"/>
		<path class="st1" d="M110.4,65.6l-27.9,0V36.6h27.9V65.6z M106.2,48.7v-8.2H86.9v8.2H106.2z M106.2,60.5v-7.1H86.9v7.1H106.2z"/>
		<path class="st1" d="M78.4,40c1.1,0,1.6-0.1,1.6-0.4c0-0.3-0.3-0.6-0.4-0.7l-2.2-2.6c-3.3,1.3-10.5,1.7-10.9,1.6l-2.3-0.1
			c0.2,3.9,0.2,8.6,0.2,9.7c0,10.7-1.4,14.2-4.5,17.8l4.4,1.3c3.1-4.8,4-8.4,4.4-17.1h3.8v16.8h4.6V49.4h2.5v-3.9H68.8
			c0-1.5,0-3.2,0-4.5C72.7,40.7,76.5,40.4,78.4,40z"/>
		<path class="st1" d="M57.6,54.1H62v-3.5h-6.4v-1.8H62v-3.3h-2.6l0.4-4h2.3v-3.2h-6v-2.5H52v2.5h-6.1v3.2h2l-0.1,4h-2v3.3h6v1.8H46
			v3.5h4.3c-1.3,3-3.1,4.6-5.3,6.7v6c2.4-2.8,5.9-5.9,6.6-7.2h0.1v6.9h3.9v-6.5l0.1-2.8c0.5,0.8,6,6,5.4,5.7v-5.2
			C61.1,57.5,58.9,56,57.6,54.1z M55.6,45.4h-4l0-4h4.5L55.6,45.4z"/>
		<path class="st1" d="M145.9,61.9v-5.2c-3.8-2.9-8.5-7.9-10.9-13.5h11.2v-4.3h-13.7v-4.2h-4.3v4.2h-13.9v4.3h11.4
			c-2.4,5.7-7.2,10.7-11,13.6V62c3.7-2.2,9.8-7.4,13.5-14.1v9.8h-6.2V62h6.2v4.5h4.3V62h5.8v-4.3h-5.8v-9.8
			C136.2,54.5,142.1,59.7,145.9,61.9z"/>
		<path class="st1" d="M178.5,49.6v-5.1h2.5v-3h-2.5v-4.6h-7.6v-1.9h-4v1.9h-5.8v3.2h5.8v1.4h-7.6v3h7.6v1.9h-6v3.2h6V51h-6v3.1h6
			V56h-7.4v3.4h7.4v2h4v-2h9.3V56h-9.3v-1.8h7.4V51h-7.4v-1.5H178.5z M170.9,40.1h3.6v1.4h-3.6V40.1z M170.9,44.5h3.6v1.9h-3.6V44.5
			z"/>
		<path class="st1" d="M168,61.8c-8.1,0-10-0.8-11.9-2.4c1.6-3.7,2.7-7,3.1-13.5h-3.7c0.8-1.3,2.2-5.4,3.7-9.7l-2.1,0.1h-7.3v3.3
			h3.3c-0.6,2.2-2,7.2-4.2,9.9l3.4,0.2h2.9c-0.3,2.1-0.5,3.6-1.3,5.5c-0.1,0.5-0.6,1.5-0.7,1.9c-1.8-1.2-2.8-2.7-3.5-4.1v6.2
			c0.8,0.7,1.3,1.3,1.7,1.8c-1.1,1.8-1.7,3.2-3.6,4.7h5.6c0.5-0.6,0.8-1.5,1.3-2.3c3.4,2.7,7.2,2.5,12.3,2.7h11.8l2.1-4.4
			C177.5,61.9,171.4,61.8,168,61.8z"/>
		<rect x="183.9" y="35.7" class="st1" width="9.3" height="3.3"/>
		<rect x="183.7" y="45.5" class="st1" width="9.8" height="3.1"/>
		<rect x="183.6" y="50.1" class="st1" width="10" height="3.1"/>
		<rect x="182" y="40.7" class="st1" width="13.4" height="3.1"/>
		<path class="st1" d="M183.1,66.4h11.5v-11h-11.5V66.4z M187.1,59h3.6v3.5h-3.6V59z"/>
		<polygon class="st1" points="212.4,42.8 212.4,37.8 212.4,35.6 210.3,35.6 200.1,35.6 197.9,35.6 197.9,37.8 197.9,47 202.2,47 
			202.2,39.9 208.1,39.9 208.1,45 208.1,47.2 210.3,47.2 214.6,47.2 214.6,42.8 		"/>
		<path class="st1" d="M209.2,60.4c0.1-0.1,0.1-0.1,0.2-0.2c3-3,4.7-6.3,4.7-9.3v-2.2h-2.1h-14.8v4.3h12.1c-0.7,1.6-2,3.2-3.6,4.7
			c-0.8-0.8-1.5-1.8-2-2.8H199c0.6,2,1.7,3.8,3.1,5.3c-1.7,1-3.4,1.6-4.9,1.6v4.3c2.5,0,5.6-1.1,8.4-3c2.9,1.8,6.1,2.9,9,2.9v-4.3
			C212.9,61.9,211,61.3,209.2,60.4z"/>
	</g>
</g>
<g>
	<path class="st2" d="M16.7,9L16,9.3l-3-4.7L16,0l0.6,0.3l-2.8,4.4L16.7,9z"/>
	<path class="st2" d="M21.2,5.4c-0.2,2-0.7,3.2-3.2,3.8C18,9,17.8,8.7,17.7,8.6c2.3-0.5,2.7-1.5,2.8-3.2H21.2z M21.8,1.8h-3.9V1.1
		h3.9v-1h0.8v1h4v0.7h-4v1h3.1v0.7h-6.8V2.8h3V1.8z M25.5,6.1V4.9h-6.7v1.2h-0.7V4.2h8.1v1.9H25.5z M25.4,8.4c0.4,0,0.4-0.2,0.5-1.3
		c0.2,0.1,0.5,0.2,0.7,0.3C26.5,8.7,26.3,9,25.5,9h-1.5c-0.9,0-1.1-0.2-1.1-1V5.4h0.7V8c0,0.3,0.1,0.3,0.5,0.3H25.4z"/>
	<path class="st2" d="M36.6,8.2v0.7h-8.8V8.2h4V5.7h-3.1V5h3.1V2.8h-3.5V2.1h4.4c-0.4-0.5-1.1-1.1-1.7-1.5l0.6-0.4
		c0.6,0.5,1.4,1.1,1.8,1.6l-0.5,0.3h3.2v0.7h-3.5V5h3.1v0.7h-3.1v2.4H36.6z"/>
	<path class="st2" d="M39.7,3.6c0.6,0,1.1,0.5,1.1,1.1s-0.5,1.1-1.1,1.1s-1.1-0.5-1.1-1.1S39.1,3.6,39.7,3.6z"/>
	<path class="st2" d="M46.4,2.4h-3.8V1.7h3.8V2.4z M46,8.6h-2.3v0.5h-0.7V5.8h3V8.6z M43.1,3.1h3v0.6h-3V3.1z M43.1,4.4h3V5h-3V4.4z
		 M46,1h-2.9V0.4H46V1z M43.7,6.4V8h1.7V6.4H43.7z M47.9,1.6c0,0.9-0.2,1.9-1.3,2.6c-0.1-0.1-0.4-0.4-0.5-0.5c1-0.6,1.1-1.4,1.1-2.1
		V0.4h3.1v2.4c0,0.2,0,0.3,0.2,0.3H51c0.2,0,0.2-0.1,0.2-1.1c0.1,0.1,0.4,0.2,0.6,0.3c-0.1,1.2-0.2,1.5-0.8,1.5h-0.7
		c-0.6,0-0.8-0.2-0.8-0.9V1.1h-1.7V1.6z M51.2,4.5c-0.3,1.2-0.9,2.2-1.7,2.9c0.6,0.5,1.4,0.9,2.3,1.1c-0.2,0.2-0.4,0.5-0.5,0.6
		C50.4,8.9,49.6,8.5,49,8c-0.7,0.6-1.6,1-2.5,1.2c-0.1-0.2-0.3-0.5-0.4-0.6c0.8-0.2,1.7-0.6,2.4-1.1c-0.6-0.6-1.1-1.3-1.4-2.2
		l0.7-0.2C48,5.8,48.4,6.5,49,7c0.6-0.5,1-1.2,1.3-1.9h-3.8V4.4h4.1l0.1,0L51.2,4.5z"/>
	<path class="st2" d="M56.5,2.4h-3.9V1.7h3.9V2.4z M56.1,8.6h-2.4v0.5h-0.7V5.8h3.1V8.6z M53.1,3.1h3.1v0.6h-3.1V3.1z M53.1,4.4h3.1
		V5h-3.1V4.4z M56.2,1h-3V0.4h3V1z M53.7,6.4V8h1.7V6.4H53.7z M61.8,4.2h-2.2v5h-0.7v-5h-2.3V3.5h2.3V0.1h0.7v3.4h2.2V4.2z"/>
	<path class="st2" d="M64.7,3.6c0.6,0,1.1,0.5,1.1,1.1s-0.5,1.1-1.1,1.1s-1.1-0.5-1.1-1.1S64.1,3.6,64.7,3.6z"/>
	<path class="st2" d="M71.3,3.8c0,0,0,0.2,0,0.3c-0.1,3.3-0.1,4.4-0.4,4.8c-0.2,0.2-0.3,0.3-0.6,0.3c-0.2,0-0.6,0-1.1,0
		c0-0.2-0.1-0.5-0.2-0.7c0.4,0,0.8,0,0.9,0c0.2,0,0.2,0,0.3-0.1c0.2-0.2,0.2-1.2,0.3-4h-1.2c-0.1,1.9-0.4,3.6-1.3,4.8
		c-0.1-0.2-0.4-0.4-0.6-0.5c1-1.4,1.2-3.9,1.2-6.3h-1.1V1.7h1.8V0.1h0.7v1.6h1.7v0.7h-2.4c0,0.5,0,0.9,0,1.4H71.3z M72.8,2.2
		c-0.3,0.6-0.6,1.2-1,1.6c-0.1-0.1-0.4-0.4-0.6-0.5c0.7-0.7,1.2-1.9,1.5-3.2l0.7,0.2c-0.1,0.4-0.2,0.8-0.4,1.2h3.6v0.7H72.8z
		 M75.6,8.5c0.4,0,0.5-0.2,0.6-1.1c0.2,0.1,0.4,0.2,0.6,0.3c-0.1,1.2-0.3,1.5-1.1,1.5h-2c-1,0-1.3-0.2-1.3-1.1V5.6l-0.6,0.3
		l-0.3-0.6l0.9-0.4V3.3H73v1.2L74,4.1V2.5h0.6v1.3l1.1-0.5l0.1-0.1l0.1-0.1l0.5,0.2l0,0.1c0,1.4,0,2.7-0.1,3c0,0.3-0.2,0.5-0.4,0.5
		C75.6,7,75.3,7,75,7c0-0.2-0.1-0.4-0.2-0.6c0.2,0,0.4,0,0.5,0c0.1,0,0.2,0,0.2-0.2c0-0.2,0-1,0-2.2l-1.1,0.5v3H74V4.8L73,5.3v2.8
		c0,0.4,0.1,0.5,0.6,0.5H75.6z"/>
	<path class="st2" d="M86.6,7.7v0.7h-8.9V7.7h4V2h-3.5V1.2h7.9V2h-3.6v5.7H86.6z"/>
	<path class="st2" d="M89.7,3.6c0.6,0,1.1,0.5,1.1,1.1s-0.5,1.1-1.1,1.1s-1.1-0.5-1.1-1.1S89.1,3.6,89.7,3.6z"/>
	<path class="st2" d="M94.3,7.1c-0.3,0.8-0.7,1.6-1.2,2.1c-0.1-0.1-0.4-0.3-0.6-0.4c0.5-0.5,0.8-1.2,1-1.9L94.3,7.1z M96.1,6.7h-3
		V0.5h3V6.7z M95.4,1.1h-1.6v1.3h1.6V1.1z M95.4,2.9h-1.6v1.3h1.6V2.9z M95.4,4.8h-1.6v1.3h1.6V4.8z M95.5,6.9
		c0.3,0.4,0.6,0.9,0.7,1.2l-0.6,0.3c-0.1-0.3-0.4-0.9-0.7-1.3L95.5,6.9z M101.3,3.2c-0.2,1.7-0.8,3-1.4,4c0.5,0.6,1.2,1.1,1.9,1.4
		c-0.2,0.1-0.4,0.4-0.5,0.6c-0.8-0.4-1.4-0.8-1.9-1.5c-0.5,0.6-1.2,1.1-1.9,1.4c-0.1-0.2-0.3-0.5-0.4-0.6c0.7-0.3,1.4-0.8,1.9-1.4
		c-0.6-0.9-1.1-2.1-1.3-3.4h-0.1v0.4c0,1.5-0.1,3.6-1.1,5c-0.1-0.1-0.4-0.3-0.6-0.4c0.9-1.3,1-3.2,1-4.6V0.6h4.6v0.7h-3.9v1.8h3.2
		l0.1,0L101.3,3.2z M98.3,3.8c0.2,1.1,0.6,2,1.1,2.8c0.5-0.8,0.9-1.7,1.1-2.8H98.3z"/>
	<path class="st2" d="M106.2,5.4c-0.2,2-0.7,3.2-3.2,3.8c-0.1-0.2-0.3-0.5-0.4-0.6c2.3-0.5,2.7-1.5,2.8-3.2H106.2z M106.8,1.8h-3.9
		V1.1h3.9v-1h0.8v1h4v0.7h-4v1h3.1v0.7h-6.8V2.8h3V1.8z M110.5,6.1V4.9h-6.7v1.2h-0.7V4.2h8.1v1.9H110.5z M110.4,8.4
		c0.4,0,0.4-0.2,0.5-1.3c0.2,0.1,0.5,0.2,0.7,0.3c-0.1,1.3-0.3,1.7-1.1,1.7h-1.5c-0.9,0-1.1-0.2-1.1-1V5.4h0.7V8
		c0,0.3,0.1,0.3,0.5,0.3H110.4z"/>
	<path class="st2" d="M114.7,3.6c0.6,0,1.1,0.5,1.1,1.1s-0.5,1.1-1.1,1.1s-1.1-0.5-1.1-1.1S114.1,3.6,114.7,3.6z"/>
	<path class="st2" d="M126.5,1.7c-0.1,0.1-0.2,0.3-0.3,0.4c-0.4,0.7-1.3,2-2.5,2.8l-0.7-0.5c0.9-0.5,1.9-1.6,2.2-2.2h-5.7
		c-0.4,0-0.7,0-1.1,0.1V1.2c0.3,0,0.8,0.1,1.1,0.1h5.7c0.2,0,0.5,0,0.7-0.1L126.5,1.7z M122.5,3c0,2.7-0.2,4.5-2.8,5.8L119,8.2
		c0.3-0.1,0.6-0.3,0.9-0.4c1.5-1,1.8-2.4,1.8-4c0-0.2,0-0.5,0-0.7H122.5z"/>
	<path class="st2" d="M135.8,1.8c-0.1,0.1-0.1,0.3-0.2,0.5c-0.2,1-0.7,2.7-1.5,3.7c-0.9,1.2-2.1,2.1-3.9,2.7l-0.7-0.7
		c1.9-0.5,3.1-1.3,3.9-2.4c0.7-0.9,1.2-2.3,1.3-3.3h-5.1c-0.4,0-0.7,0-1,0V1.4c0.3,0,0.7,0.1,1,0.1h5c0.2,0,0.3,0,0.5,0L135.8,1.8z"
		/>
	<path class="st2" d="M145.9,2c-0.1,0.1-0.2,0.4-0.2,0.5c-0.3,0.9-0.8,2-1.5,3c0.4,0.2,0.7,0.5,1,0.7l-0.5,0.7
		c-0.2-0.2-0.6-0.4-1-0.7c-0.9,1-2.2,2-3.9,2.7L139,8.3c1.7-0.5,3-1.5,3.9-2.5c-0.8-0.5-1.6-1-2.2-1.3l0.5-0.6
		c0.6,0.3,1.4,0.8,2.2,1.2c0.6-0.8,1.1-1.9,1.3-2.7h-3.4c-0.6,0.9-1.5,1.9-2.6,2.6l-0.7-0.5c1.7-1.1,2.8-2.6,3.2-3.5
		c0.1-0.2,0.3-0.5,0.3-0.8l0.9,0.3c-0.2,0.3-0.3,0.6-0.4,0.8c-0.1,0.1-0.1,0.2-0.2,0.4h2.7c0.3,0,0.5,0,0.7-0.1L145.9,2z"/>
	<path class="st2" d="M148.2,4.1c0.3,0,0.8,0,1.4,0h5.5c0.5,0,0.9,0,1.1,0v1c-0.2,0-0.6,0-1.1,0h-5.5c-0.5,0-1.1,0-1.4,0V4.1z"/>
	<path class="st2" d="M165.5,2.7c0.4,0,0.8,0,0.9,0v0.8c-0.1,0-0.5,0-0.9,0h-1.1v0.3c0,2.7-0.6,4-2.9,5.1l-0.7-0.6
		c1.8-0.7,2.7-1.6,2.7-4.4V3.5h-2.8v1.6c0,0.4,0,0.8,0,0.9h-0.9c0-0.1,0-0.5,0-0.9V3.5h-1.1c-0.4,0-0.9,0-1,0V2.7
		c0.1,0,0.6,0.1,1,0.1h1.1V1.5c0-0.3,0-0.6,0-0.7h0.9c0,0.1,0,0.4,0,0.7v1.3h2.8V1.5c0-0.4,0-0.7,0-0.8h0.9c0,0.1,0,0.4,0,0.8v1.2
		H165.5z"/>
	<path class="st2" d="M168.2,4.1c0.3,0,0.8,0,1.4,0h5.5c0.5,0,0.9,0,1.1,0v1c-0.2,0-0.6,0-1.1,0h-5.5c-0.5,0-1.1,0-1.4,0V4.1z"/>
	<path class="st2" d="M179.9,7c0,0.5,0.2,0.6,0.7,0.7c0.3,0,0.8,0.1,1.3,0.1c1.1,0,2.6-0.1,3.4-0.3v0.9c-0.9,0.1-2.4,0.2-3.5,0.2
		c-0.6,0-1.2,0-1.6-0.1c-0.8-0.1-1.2-0.5-1.2-1.3V1.8c0-0.2,0-0.6-0.1-0.8h0.9c0,0.2,0,0.5,0,0.8V4c1.2-0.3,2.8-0.8,3.8-1.2
		c0.3-0.1,0.6-0.3,0.9-0.5l0.3,0.8c-0.3,0.1-0.6,0.3-0.9,0.4c-1.1,0.5-2.8,1-4.1,1.3V7z M184.7,2.2c-0.2-0.4-0.5-1-0.8-1.4l0.5-0.2
		c0.2,0.3,0.6,1,0.8,1.4L184.7,2.2z M185.6,0.2c0.3,0.4,0.7,1,0.8,1.4l-0.5,0.3c-0.2-0.4-0.5-1-0.8-1.4L185.6,0.2z"/>
	<path class="st2" d="M195.2,1.8c-0.1,0.1-0.2,0.3-0.2,0.4c-0.3,0.9-1,2-1.7,2.9c1,0.9,2.3,2.2,2.9,3l-0.7,0.6
		c-0.7-0.9-1.7-2.1-2.7-3c-1.1,1.1-2.4,2.2-3.9,2.9L188.2,8c1.6-0.6,3.1-1.8,4.1-3c0.7-0.8,1.4-2,1.7-2.8h-3.9c-0.3,0-0.9,0-1,0V1.4
		c0.1,0,0.7,0.1,1,0.1h3.9c0.3,0,0.6,0,0.8-0.1L195.2,1.8z"/>
	<path class="st2" d="M197.7,9l2.8-4.4l-2.8-4.4l0.6-0.3l3,4.7l-3,4.7L197.7,9z"/>
</g>
</svg>
