<?xml version="1.0" encoding="utf-8"?>
<!-- Generator: Adobe Illustrator 24.1.1, SVG Export Plug-In . SVG Version: 6.00 Build 0)  -->
<svg version="1.1" id="レイヤー_1" xmlns="http://www.w3.org/2000/svg" xmlns:xlink="http://www.w3.org/1999/xlink" x="0px"
	 y="0px" viewBox="0 0 346 92" style="enable-background:new 0 0 346 92;" xml:space="preserve">
<g>
	<g>
		<path d="M59.1,46.8c0-10.9,4.3-16.2,10.7-16.1c6.4,0,10.6,5.4,10.6,16.2S76,63.3,69.8,63.3C63.4,63.2,59.1,57.6,59.1,46.8z
			 M74.5,46.8c0-8.8-2-11.3-4.7-11.3S65,38,65,46.8s2,11.5,4.7,11.5C72.5,58.3,74.5,55.6,74.5,46.8z"/>
		<path d="M86.6,57.6h6.7V37.7h-5.7v-3.9c3.1-0.6,5.3-1.4,7.3-2.6h4.6v26.3h5.9v5H86.5L86.6,57.6z"/>
		<path d="M110.8,59.1c8.5-7.6,13.6-13.5,13.6-18.3c0-3.2-1.7-5.1-4.7-5.1c-2.3,0-4.2,1.5-5.8,3.2l-3.4-3.4c2.9-3.1,5.7-4.7,10-4.7
			c5.9,0,9.9,3.8,9.9,9.7c0,5.7-4.7,11.8-10.5,17.4c1.6-0.2,3.6-0.3,5.1-0.3h6.8v5.3h-21L110.8,59.1z"/>
		<path d="M136.7,46.9c0-10.9,4.3-16.2,10.7-16.1c6.4,0,10.6,5.4,10.6,16.2s-4.3,16.4-10.6,16.4C140.9,63.3,136.6,57.7,136.7,46.9z
			 M151.9,46.9c0-8.8-2-11.3-4.7-11.3s-4.8,2.5-4.8,11.3s2,11.5,4.7,11.5C149.9,58.4,151.9,55.7,151.9,46.9z"/>
		<path d="M162.7,48.4h11.6v4.5h-11.6V48.4z"/>
		<path d="M180.6,57.7h6.7V37.8h-5.7v-3.9c3.1-0.6,5.3-1.4,7.3-2.6h4.6v26.3h5.9v5h-18.9L180.6,57.7z"/>
		<path d="M219.3,36.6h-14.1v-5.2H226v3.8c-7.3,8.9-8.3,15.3-8.8,27.6h-6.3C211.4,51.9,213.3,44.9,219.3,36.6z"/>
		<path d="M232.3,57.8h6.7V37.9h-5.7V34c3.1-0.6,5.3-1.4,7.3-2.6h4.6v26.3h5.9v5h-18.9L232.3,57.8z"/>
		<path d="M256.8,48.5h11.6V53h-11.6V48.5z"/>
		<path d="M274.7,57.8h6.7V37.9h-5.7V34c3.1-0.6,5.3-1.4,7.3-2.6h4.6v26.3h5.9v5h-18.9L274.7,57.8z"/>
		<path d="M299,55.1c0-4,2.5-6.6,5.4-8.2v-0.2c-2.4-1.7-4.2-4.1-4.1-7.5c0-5,4-8.3,9.5-8.3c5.6,0,9.1,3.4,9.1,8.4c0,3.1-2,5.7-4,7.2
			v0.2c2.9,1.6,5.3,4.1,5.2,8.4c0,4.8-4.2,8.4-10.6,8.4C303.5,63.5,299,60,299,55.1z M314.3,54.9c0-3.3-2.9-4.6-6.9-6.3
			c-1.7,1.4-2.9,3.5-2.9,5.8c0,2.8,2.3,4.7,5.3,4.7C312.3,59.1,314.3,57.6,314.3,54.9z M313.8,39.7c0-2.5-1.5-4.4-4.2-4.4
			c-2.1,0-3.8,1.4-3.8,3.9c0,3,2.4,4.4,5.7,5.7C313,43.4,313.8,41.6,313.8,39.7z"/>
		<path d="M324.8,47.1c0-10.9,4.3-16.2,10.7-16.1c6.4,0,10.6,5.4,10.6,16.2s-4.3,16.4-10.6,16.4C329,63.5,324.8,57.9,324.8,47.1z
			 M340,47.1c0-8.8-2-11.3-4.7-11.3s-4.8,2.5-4.8,11.3s2,11.5,4.7,11.5C338,58.7,340,56,340,47.1z"/>
	</g>
	<g>
		<path d="M50,57.6c-1.6,0-2.9,1.3-2.9,2.9c0,1.6,1.3,2.9,2.9,2.9c1.6,0,2.9-1.3,2.9-2.8C52.9,58.8,51.6,57.6,50,57.6z M50,62.9
			c-1.4,0-2.5-1.1-2.5-2.5s1.1-2.5,2.5-2.5s2.5,1.1,2.5,2.5S51.4,62.9,50,62.9z"/>
		<path d="M50.8,60.1c0.2-0.2,0.2-0.4,0.2-0.6c0-0.3-0.1-0.6-0.3-0.7c-0.2-0.2-0.5-0.3-0.8-0.3h-1.1v3.8h0.4v-1.7h0.5l1.1,1.7h0.5
			l-1.2-1.8C50.5,60.4,50.7,60.3,50.8,60.1z M49.3,60.2v-1.3h0.6c0.5,0,0.8,0.2,0.8,0.6c0,0.2-0.1,0.3-0.2,0.5
			c-0.1,0.1-0.3,0.2-0.6,0.2H49.3z"/>
		<path d="M11.6,56.1c2.5,0,5.6-1.9,5.6-5.9c0-3.1-3-5.5-5.6-7C9,44.7,6,47.1,6,50.2C6,54.2,9.1,56.1,11.6,56.1z"/>
		<path d="M34.4,56.1c2.5,0,5.6-1.9,5.6-5.9c0-3.1-3-5.5-5.6-7c-2.6,1.5-5.6,3.9-5.6,7C28.8,54.2,31.9,56.1,34.4,56.1z"/>
		<path d="M0.1,37.7c4.8,0,8.8,1.2,11.5,2.6c2.8-1.4,6.7-2.6,11.3-2.6s8.5,1.2,11.3,2.6c2.8-1.4,6.8-2.6,11.6-2.6v-4.6L0.1,33V37.7z
			"/>
		<path d="M42.7,50.3c0,4.8-4,8.4-8.4,8.4S26,55,26,50.3c0-3.6,2.6-6.5,5.4-8.4c-2.6-1.1-5.7-1.7-8.4-1.7s-5.8,0.5-8.4,1.6
			c2.8,1.9,5.4,4.8,5.4,8.4c0,4.8-3.9,8.4-8.3,8.4s-8.5-3.7-8.5-8.4c0-3.6,2.8-6.5,5.6-8.4c-2.5-1.1-5.8-1.6-8.7-1.7v22.6l45.7,0.1
			V40.2c-2.9,0-6.1,0.5-8.7,1.6C39.9,43.8,42.7,46.7,42.7,50.3z"/>
	</g>
</g>
<g>
	<path d="M2.7,6.7c0,1.6,0.4,2.7,3,2.7c2,0,2.9-0.5,3.2-0.5s0.8,0.2,0.8,0.5S9.6,9.8,9.2,9.9c-0.6,0.2-1.7,0.4-3.3,0.4
		c-3.2,0-4-1.5-3.5-3.7L2.7,6.7z M4.2,4.5c0.6-0.4,1.3-0.9,1.7-1.2c0.2-0.1,0.1-0.1,0-0.1c-1.4,0-2.3-0.1-3-1.2l0.2-0.2
		c0.8,0.5,1.4,0.6,2.3,0.6c1.5,0,1.8-0.3,2.2-0.3c0.5,0,1.2,0.3,1.2,0.6c0,0.2-0.1,0.4-0.5,0.4C8,3.3,7.6,3.4,7,3.6
		C6.4,3.8,5.3,4.3,4.4,4.7L4.2,4.5z M8.6,1.1C9.2,1.3,9.7,1.6,10,1.9c0.3,0.3,0.4,0.5,0.4,0.7s-0.1,0.3-0.3,0.3S9.8,2.7,9.5,2.4
		C9.3,2.1,8.9,1.7,8.4,1.3L8.6,1.1z M9.6,0.3C10.2,0.5,10.7,0.7,11,1c0.3,0.3,0.4,0.5,0.4,0.7S11.3,2,11.1,2s-0.3-0.3-0.6-0.6
		s-0.5-0.6-1.1-1L9.6,0.3z"/>
	<path d="M18.8,5.9c1.1,1.6,3.1,3,4.9,3.5v0.1c-0.4,0.1-0.7,0.4-0.8,0.8C21,9.6,19.5,8,18.6,6v4.8c0,0.1-0.4,0.4-0.8,0.4h-0.2V6.8
		c-1.2,1.6-2.9,2.9-5,3.8l-0.1-0.2c1.9-1.1,3.5-2.8,4.4-4.5h-4.2l-0.1-0.3h4.9V2.4h-4.3l0-0.4h4.4V0L19,0.2c0,0.2-0.1,0.3-0.4,0.3V2
		h2.7L22,1.2c0,0,0.7,0.6,1.2,1c0,0.1-0.2,0.2-0.3,0.2h-4.2v3.2h3.1l0.7-0.8c0,0,0.8,0.6,1.2,1c0,0.1-0.1,0.2-0.3,0.2L18.8,5.9
		L18.8,5.9z M14.7,2.6c2.7,1.2,1.7,3.3,0.8,2.4c0-0.8-0.5-1.7-1-2.4H14.7z M19.4,5.2c0.4-0.6,0.9-1.6,1.2-2.6l1.3,0.6
		c-0.1,0.1-0.2,0.2-0.5,0.2C20.8,4.1,20.1,4.9,19.4,5.2L19.4,5.2z"/>
	<path d="M28.6,6.4c-0.8,0.5-1.9,1.4-3.3,2.3c0,0.1-0.1,0.3-0.2,0.3l-0.6-1.2c0.3-0.1,0.9-0.3,1.5-0.6V3.7h-1.3l-0.1-0.3H26V0.2
		l1.4,0.1c0,0.2-0.1,0.3-0.4,0.3v2.7h0.1l0.5-0.8c0,0,0.6,0.6,0.9,1c0,0.1-0.2,0.2-0.3,0.2h-1.3v3.2c0.5-0.2,1.1-0.4,1.6-0.7
		L28.6,6.4z M30.8,5.6c-0.2,0.3-0.4,0.7-0.6,1h4L34.7,6l1,0.8C35.5,7,35.4,7,35.2,7c-0.2,2.1-0.5,3.3-1.1,3.7
		c-0.3,0.3-0.8,0.4-1.2,0.4c0-0.3,0-0.5-0.2-0.6s-0.5-0.3-0.9-0.3V10c0.4,0,1.1,0.1,1.3,0.1s0.3,0,0.4-0.1c0.3-0.3,0.6-1.3,0.7-3
		h-0.8c-0.7,1.8-1.9,3.2-3.9,4.2L29.4,11c1.5-1,2.5-2.4,3-4h-0.8c-0.8,1.5-2.2,2.7-4.1,3.6l-0.1-0.2c1.4-0.9,2.5-2.1,3.2-3.4h-0.8
		c-0.7,0.7-1.6,1.4-2.7,1.9L27,8.7c1.2-0.8,2.1-1.9,2.7-3.1h-1.8l-0.1-0.3H34l0.6-0.8c0,0,0.7,0.5,1.1,0.9c0,0.1-0.2,0.2-0.3,0.2
		C35.4,5.6,30.8,5.6,30.8,5.6z M30.1,4.5c0,0.1-0.4,0.3-0.8,0.3h-0.1V0.3l1,0.4h3.1l0.5-0.5l1,0.8c-0.1,0.1-0.3,0.2-0.5,0.2v3.1
		c0,0.1-0.5,0.3-0.8,0.3h-0.2V4.2h-3.2V4.5z M30.1,1.1v1.2h3.2V1.1H30.1z M33.3,3.8V2.6h-3.2v1.2H33.3z"/>
	<path d="M39.1,6.8c-0.6,0-1.2-0.5-1.2-1.2c0-0.6,0.5-1.2,1.2-1.2c0.6,0,1.2,0.5,1.2,1.2S39.7,6.8,39.1,6.8z"/>
	<path d="M53.7,5.1c-0.1,0.1-0.2,0.1-0.5,0.1C52.5,6,51.3,7,50.3,7.6l-0.1-0.1C50.8,6.8,51.6,5.8,52,5h-3.4v4.7
		c0,0.7-0.2,1.2-1.6,1.4c0-0.3-0.1-0.6-0.3-0.7c-0.2-0.2-0.6-0.3-1.4-0.4V9.9c0,0,1.7,0.1,2,0.1c0.2,0,0.3-0.1,0.3-0.3V5h-4.9
		l-0.1-0.3h6.1c-0.4-0.6-1.4-1.6-2.9-2.3l0.1-0.2c1.1,0.2,1.9,0.4,2.4,0.7c0.7-0.5,1.6-1.1,2.2-1.6H44L43.9,1h6.7l0.6-0.6l1,1
		c-0.1,0.1-0.2,0.1-0.5,0.1c-0.8,0.5-2.2,1.2-3.3,1.6c1,0.6,1,1.4,0.7,1.6h2.8l0.6-0.6L53.7,5.1z"/>
	<path d="M54.5,10c0.4-0.9,0.7-2.1,0.9-3.3L56.6,7c0,0.1-0.2,0.2-0.4,0.3c-0.3,1.1-0.8,2.2-1.5,2.9L54.5,10z M57.9,4
		c2.5,1.2,1.7,2.9,0.9,2.2c0-0.3-0.2-0.6-0.3-0.9l-0.9,0.2v5.4c0,0.1-0.3,0.3-0.7,0.3h-0.2V5.7c-0.4,0.1-0.9,0.2-1.5,0.3
		c-0.1,0.2-0.2,0.2-0.3,0.3l-0.3-1c0.3,0,0.8,0,1.4-0.1c0.7-1.1,1.5-2.6,2-3.7L59.2,2c-0.1,0.1-0.2,0.2-0.5,0.2
		c-0.6,0.9-1.5,2-2.4,3c0.6,0,1.3-0.1,2-0.1c-0.2-0.4-0.4-0.7-0.6-1L57.9,4z M57.9,0.6c0,0.1-0.2,0.2-0.5,0.2
		c-0.3,0.6-0.8,1.2-1.3,1.7c1,0.7,0.5,1.7-0.2,1.3c-0.2-0.6-0.7-1.3-1.2-1.7L54.8,2c0.4,0.1,0.7,0.2,1,0.4c0.3-0.6,0.6-1.5,0.8-2.3
		L57.9,0.6z M58,6.6C60.3,8,59.5,9.7,58.7,9c-0.1-0.7-0.4-1.7-0.8-2.3L58,6.6z M65.6,2.9c-0.1,0.1-0.2,0.2-0.5,0.2
		c-0.1,4-0.4,6.7-1,7.4c-0.4,0.4-0.9,0.6-1.6,0.6c0-0.3-0.1-0.6-0.3-0.7c-0.2-0.2-0.8-0.3-1.4-0.4V9.8c0.6,0.1,1.7,0.2,2,0.2
		s0.4,0,0.5-0.2C63.8,9.4,64,6.6,64.1,3h-3.5c-0.4,0.7-0.9,1.4-1.4,1.9l-0.1-0.1c0.6-1.2,1.2-2.9,1.5-4.7L62,0.5
		c-0.1,0.1-0.2,0.3-0.4,0.3c-0.2,0.6-0.5,1.3-0.7,1.8h3.2L64.7,2L65.6,2.9z M60.7,4.6c2.8,1.3,2,3.4,1,2.6c-0.1-0.9-0.6-1.9-1.2-2.5
		L60.7,4.6z"/>
	<path d="M70.9,6.4c1-0.5,2.1-0.9,3.2-0.9c1.4,0,2.5,0.9,2.5,2.3c0,1.2-0.9,2.3-2.5,2.3c-0.9,0-1.7-0.5-2.3-1.3l0.2-0.2
		c0.5,0.4,1.1,0.7,1.9,0.7c1.1,0,1.8-0.7,1.8-1.7c0-0.9-0.6-1.6-1.9-1.6c-0.9,0-2,0.5-3,1c0,1.7,0.2,2.1,0.2,2.5
		c0,0.6-0.4,1.2-0.8,1.2c-0.3,0-0.3-0.4-0.7-0.8c-0.3-0.3-0.8-0.6-1.2-0.9c-0.3,0.3-0.5,0.5-0.7,0.5s-0.3-0.1-0.4-0.2
		c-0.2-0.2-0.3-0.4-0.3-0.6c0-0.3,0.1-0.4,0.4-0.4s0.5,0,0.7-0.2c0.4-0.2,1.3-1,2.2-1.4V6V4.6c-0.4,0.1-1,0.2-1.3,0.2
		c-0.6,0-1.2-0.2-1.6-1.3l0.2-0.1C68.1,3.9,68.3,4,68.9,4c0.4,0,0.8-0.1,1.3-0.2c0-0.8,0-1.6,0-1.9s-0.1-0.3-0.3-0.4
		c-0.2-0.1-0.5-0.1-0.8-0.1V1.2c0.3-0.2,0.6-0.3,1-0.3c0.5,0,1.3,0.4,1.3,0.7s-0.2,0.5-0.3,0.9C71,2.7,71,3.1,71,3.6
		c0.8-0.3,1.2-0.7,1.4-0.7c0.2,0,0.7,0,0.7,0.4c0,0.2-0.1,0.4-0.4,0.5c-0.4,0.2-1.2,0.5-1.8,0.7c0,0.5,0,1.1,0,1.6
		C70.8,6.1,70.8,6.4,70.9,6.4z M70.2,7.4c-0.6,0.4-1.2,0.9-1.6,1.4c0.5,0.2,1,0.5,1.3,0.6c0.3,0.1,0.3,0,0.3-0.2
		C70.2,9.2,70.2,7.4,70.2,7.4z M73.9,2.4c0.6-0.1,1.1-0.2,1.6-0.1c1,0.2,1.9,1,1.9,1.8c0,0.3-0.1,0.5-0.4,0.5s-0.4-0.3-0.8-0.2
		c-0.2,0-0.7,0.2-0.9,0.3l-0.2-0.2c0.3-0.1,0.8-0.5,1-0.6c0.1-0.2,0.2-0.3,0-0.5c-0.4-0.6-1.4-0.8-2.2-0.7V2.4z"/>
	<path d="M80.1,4.3v6.5c0,0.1-0.3,0.4-0.8,0.4h-0.2V0.4l1,0.5h2.2l0.5-0.5l1,0.8c-0.1,0.1-0.2,0.2-0.4,0.2v3.3
		c0,0.1-0.5,0.3-0.8,0.3h-0.1V4.3H80.1z M80.1,1.2v1.2h2.4V1.2H80.1z M82.5,3.9V2.7h-2.4v1.2H82.5z M86.7,6.2
		c-0.1,0.1-0.2,0.2-0.5,0.2v2.9c0,0.1-0.5,0.3-0.8,0.3h-0.2V8.8h-2.7v0.6c0,0.1-0.4,0.3-0.8,0.3h-0.1V5.5l1,0.4h2.5l0.5-0.5
		L86.7,6.2z M85.4,8.5V6.3h-2.7v2.2H85.4z M89.5,1.2c-0.1,0.1-0.3,0.2-0.5,0.2v8.5c0,0.7-0.2,1.1-1.4,1.2c0-0.3-0.1-0.5-0.3-0.6
		c-0.2-0.1-0.4-0.3-1-0.3V10c0,0,1.1,0.1,1.4,0.1c0.2,0,0.3-0.1,0.3-0.3V4.3h-2.4v0.3c0,0.1-0.4,0.3-0.8,0.3h-0.1V0.5l1,0.4H88
		l0.5-0.6L89.5,1.2z M85.6,1.2v1.2H88V1.2H85.6z M88,3.9V2.7h-2.4v1.2H88z"/>
	<path d="M92,3.7c0-0.7-0.1-1-0.9-1.6V1.9c0.3,0,0.6,0.1,0.9,0.2c0.5,0.2,1.1,0.8,1.1,1.3c0,0.6-0.4,1.3-0.4,2.6
		c0,1.4,0.6,2.1,1.1,2.4c0.2,0.1,0.3,0.1,0.4-0.1c0.4-0.6,0.8-1.4,1.2-2.2l0.3,0.1C95.3,7,95.1,8,95,8.4c-0.1,0.7,0.1,0.7,0.1,1
		c0,0.4-0.4,0.6-1,0.4c-0.9-0.4-2.1-1.5-2.2-3.7C91.9,5.2,92,4.3,92,3.7z M97.6,3.4l0.1-0.3c1.2,0.2,1.8,0.6,2.4,1.2
		c0.7,0.7,1,1.8,1,2.7c0,0.6-0.2,0.8-0.6,0.8c-0.2,0-0.4-0.1-0.5-0.4c-0.1-0.5-0.2-1.4-0.6-2.3C99.1,4.2,98.4,3.7,97.6,3.4z"/>
	<path d="M109.1,0.4c0,0.1-0.2,0.2-0.5,0.2c1.1,1.5,3.1,2.7,5.1,3.4v0.2c-0.4,0.1-0.7,0.5-0.8,0.8c-1.9-1-3.7-2.5-4.5-4.3
		c-1.1,1.8-3.5,3.7-5.8,4.7l-0.1-0.2c2-1.2,4.4-3.6,5-5.3L109.1,0.4z M111,6.1l1.1,0.9c-0.1,0.1-0.3,0.2-0.5,0.2v3.5
		c0,0.1-0.5,0.3-0.8,0.3h-0.2v-0.8h-5v0.6c0,0.1-0.4,0.3-0.8,0.3h-0.2V6.2l1.1,0.5h4.8L111,6.1z M109.9,3.7c0,0,0.7,0.6,1.2,1
		c0,0.1-0.2,0.2-0.3,0.2h-5.3l-0.1-0.3h3.9L109.9,3.7z M110.6,9.9V7h-5v2.8L110.6,9.9L110.6,9.9z"/>
	<path d="M118.6,4.9c1.1-0.7,2.2-1.2,3.5-1.2c1.6,0,3,1.1,3,2.8c0,1.8-1.2,3.3-4.6,4l-0.1-0.3c3-1.2,3.6-2.7,3.6-4
		c0-1.1-0.8-2.1-2.2-2.1c-1.2,0-2.5,0.6-3.4,1.4c-0.1,1.3,0.1,2.6,0.1,3.3c0,0.4,0.1,0.6,0.1,0.9c0,0.5-0.2,1.1-0.6,1.1
		c-0.3,0-0.4-0.2-0.5-0.4c-0.1-0.3-0.1-0.5-0.2-0.8s-0.5-0.9-0.8-1.4c-0.2,0.3-0.4,0.6-0.6,0.9c-0.2,0.2-0.3,0.4-0.5,0.4
		S115,9.3,115,9s0.1-0.4,0.3-0.7c0.5-0.5,1.8-2.1,2.6-3.3c0-0.3,0-0.6,0.1-0.9c-0.4,0.2-0.8,0.4-1,0.6c-0.3,0.2-0.4,0.4-0.6,0.4
		c-0.4,0-0.9-0.5-1.1-0.9c0-0.2,0-0.4,0-0.5l0.2-0.1c0.2,0.3,0.4,0.5,0.6,0.5c0.3,0,1.4-0.5,2-0.8c0.1-0.8,0.2-1.4,0.2-1.8
		c0-0.3-0.1-0.3-0.3-0.4c-0.2-0.1-0.4-0.1-0.7-0.2V0.8c0.2-0.1,0.5-0.2,0.8-0.2c0.6,0,1.2,0.6,1.2,0.9c0,0.2-0.1,0.4-0.3,0.8
		c0,0.2-0.1,0.5-0.2,0.8l0,0c0.2,0.1,0.5,0.4,0.5,0.5s-0.1,0.3-0.3,0.4C119,4.3,118.8,4.6,118.6,4.9L118.6,4.9z M117.9,8.8
		c0-0.5,0-1.5,0-2.5c-0.3,0.5-0.7,1.1-1.1,1.6c0.3,0.4,0.7,0.8,0.9,1C117.8,9,117.9,9,117.9,8.8z"/>
	<path d="M132.9,1.2c0.3-0.1,0.6-0.3,0.8-0.3c0.6,0,1.4,0.5,1.4,0.9c0,0.2-0.2,0.3-0.3,0.7c0,0.3,0,0.8-0.1,1.3
		c0.9-0.2,1.6-0.3,1.8-0.3c0.5,0,1,0.2,1,0.6c0,0.3-0.2,0.4-0.6,0.4c-0.5,0-0.9-0.1-1.8,0c-0.2,0-0.3,0-0.5,0.1
		c0,0.8-0.1,1.9-0.2,2.4c-0.1,0.6-0.4,0.9-0.9,0.9c-0.2,0-0.3-0.1-0.4-0.3c-0.2-0.4-0.7-0.6-1.2-0.8l0.1-0.2
		c0.5,0.2,1.1,0.3,1.4,0.3c0.2,0,0.3,0,0.4-0.3c0.1-0.3,0.1-1.2,0.2-1.8c-1.1,0.2-2.4,0.5-3.3,0.8c0,1-0.1,2.2,0,2.7
		c0,1.2,0.3,1.4,1.8,1.4s2.5-0.3,2.8-0.3c0.4,0,0.8,0.2,0.8,0.5s-0.2,0.4-0.6,0.5c-0.5,0.1-1.5,0.2-2.7,0.2c-1.8,0-2.8-0.4-2.9-1.8
		c0-0.7,0-1.8,0-2.9c-1.3,0.5-1.8,0.8-2.2,0.8c-0.3,0-0.8-0.4-1-0.9c-0.1-0.2-0.1-0.4-0.1-0.7l0.2-0.1c0.2,0.3,0.5,0.6,0.8,0.6
		s1.5-0.3,2.3-0.5c0-0.8,0-1.5,0-1.9c0-0.3-0.1-0.4-0.3-0.5s-0.5-0.1-0.7-0.1V2.4c0.3-0.1,0.6-0.2,0.9-0.2c0.5,0,1.3,0.5,1.3,0.8
		c0,0.2-0.2,0.3-0.3,0.8c0,0.3,0,0.7-0.1,1.2c0.8-0.2,2.3-0.5,3.3-0.8c0-0.7,0-1.6,0-2.1c0-0.2-0.1-0.3-0.3-0.4
		c-0.2,0-0.4-0.1-0.7-0.1L132.9,1.2z"/>
	<path d="M141.9,5.9c-0.2,0.6-0.7,2-0.9,2.4c-0.1,0.4-0.2,0.7-0.2,0.9c0,0.4,0.2,0.8,0.2,1.1s-0.1,0.5-0.4,0.5
		c-0.2,0-0.4-0.2-0.6-0.5c-0.4-0.5-0.7-1.6-0.7-2.9s0.4-2.6,0.6-3.3c0.2-0.6,0.3-1,0.3-1.5s-0.3-0.9-0.7-1.3l0.2-0.1
		c0.3,0.1,0.5,0.2,0.7,0.4c0.3,0.2,0.9,0.8,0.9,1.4c0,0.3-0.2,0.5-0.5,1.2c-0.3,0.5-0.8,1.8-0.8,3c0,0.6,0.1,0.9,0.2,1.1
		c0.1,0.2,0.2,0.2,0.3,0c0.3-0.4,0.9-1.9,1.2-2.5L141.9,5.9z M146.8,4.4c0,1.2,0.1,2.3,0.2,3.2c1,0.3,1.6,0.7,2,1.1
		c0.3,0.2,0.4,0.5,0.4,0.7c0,0.3-0.1,0.5-0.4,0.5c-0.2,0-0.4-0.2-0.6-0.4c-0.4-0.4-0.8-0.7-1.3-1c0,0.1,0,0.2,0,0.3
		c0,1-0.6,1.6-2.1,1.6c-1.1,0-2-0.5-2-1.4c0-1.1,1.1-1.5,2.4-1.5c0.3,0,0.5,0,0.8,0c0-0.8-0.1-2-0.1-3c-0.4,0.1-0.9,0.1-1.3,0.1
		c-0.7,0-1.3-0.1-1.9-1.2l0.2-0.2c0.5,0.4,1,0.6,1.7,0.6c0.5,0,1,0,1.4-0.1c0-0.6,0-1.2,0-1.5s-0.1-0.4-0.2-0.5
		c-0.2-0.1-0.5-0.1-0.9-0.1V1.4c0.3-0.1,0.6-0.3,0.9-0.3c0.6,0,1.3,0.4,1.3,0.6c0,0.3-0.1,0.3-0.2,0.8c0,0.2-0.1,0.6-0.1,0.9
		c0.2-0.1,0.4-0.1,0.5-0.2c0.6-0.2,0.8-0.4,0.9-0.4c0.3,0,0.7,0.2,0.7,0.4s-0.2,0.4-0.6,0.5c-0.3,0.1-0.9,0.3-1.6,0.4L146.8,4.4
		L146.8,4.4z M146.2,8.2c-0.4-0.1-0.8-0.1-1.2-0.1c-0.7,0-1.5,0.3-1.5,0.9c0,0.5,0.5,0.7,1.2,0.7C145.9,9.6,146.2,9.1,146.2,8.2
		L146.2,8.2z"/>
</g>
<g>
	<path d="M2.5,17.8c0.4,0.3,0.8,0.6,1.2,0.6c0.5,0,1.5-0.1,2.7-0.3c1.8-0.3,1.7-0.6,2-0.6c0.5,0,1.3,0.3,1.3,0.6
		c0,0.2-0.1,0.4-0.5,0.4c-0.5,0.1-1.8,0.2-3,0.3c0.4,0.2,0.7,0.4,0.7,0.6s-0.2,0.4-0.2,0.8c-0.1,0.5-0.1,1.5-0.2,2.4
		c0.9-0.1,1.7-0.1,2.4-0.2c0.6,0,0.7-0.2,0.9-0.2c0.5,0,1.5,0.5,1.5,0.9c0,0.3-0.2,0.4-0.4,0.4c-0.3,0-1.3-0.3-2.6-0.3
		c-1.3-0.1-3.8,0.2-5,0.5C2.8,23.8,2.5,24,2.2,24c-0.4,0-1-0.6-1.1-0.9C1,22.9,1,22.7,1,22.4l0.2-0.1c0.3,0.3,0.6,0.6,1,0.6
		s1.8-0.1,3.4-0.3c0-0.9,0.1-2.1,0.1-2.7c0-0.5-0.1-0.8-0.3-1.1C4.6,18.9,4,19,3.7,19s-0.6-0.2-0.8-0.5c-0.2-0.2-0.4-0.5-0.5-0.8
		L2.5,17.8z"/>
	<path d="M16.7,15.9c0.2,0,0.4,0,0.8,0c0.6,0.1,1.3,0.5,1.3,0.7s-0.2,0.3-0.3,0.6c-0.1,0.2-0.3,0.4-0.4,0.7c0.1,0,0.1,0,0.2,0
		c0.5,0,2-0.2,2.3-0.3c0.3-0.1,0.4-0.3,0.7-0.3c0.3,0,1.2,0.5,1.2,0.9c0,0.3-0.4,0.4-0.6,0.7c-1.7,3-4.1,5.5-7.7,6.9L14,25.5
		c3.1-1.6,5.9-4.7,6.8-7.1c0-0.2,0-0.2-0.1-0.2c-0.3,0-1.4,0.2-1.8,0.3c-0.3,0.1-0.5,0.2-0.7,0.2c-0.1,0-0.3-0.1-0.5-0.3
		c-1,1.3-2.2,2.4-3.7,3.1l-0.2-0.2c1.9-1.4,3.6-3.8,3.6-4.5c0-0.2-0.3-0.4-0.7-0.6V15.9z"/>
	<path d="M31.3,21.6c0.7-0.8,1.4-1.7,1.8-2.3c0.1-0.1,0-0.2-0.1-0.2c-0.6,0.1-2.4,0.7-3.4,1c-0.1,1-0.1,2.1-0.1,2.8
		c0,1,0.2,1.1,1.5,1.1c1.6,0,2.2-0.3,2.5-0.3c0.4,0,0.9,0.2,0.9,0.5s-0.2,0.4-0.6,0.4c-0.6,0.1-1.7,0.2-2.4,0.2
		c-2,0-2.7-0.1-2.7-1.8c0-0.8,0-1.9,0-2.7c-0.5,0.2-1.2,0.4-1.6,0.6c-0.5,0.2-0.5,0.4-0.9,0.4c-0.3,0-1-0.5-1.2-0.9
		c-0.1-0.2-0.1-0.4-0.1-0.7l0.2-0.1c0.2,0.3,0.5,0.6,0.8,0.6c0.4,0,2-0.5,2.8-0.7c0-1,0-2.2,0-2.6c0-0.3-0.4-0.4-1-0.5v-0.2
		c0.4-0.1,0.7-0.2,1-0.2c0.5,0,1.3,0.5,1.3,0.8s-0.2,0.4-0.3,0.8c0,0.3-0.1,0.9-0.1,1.7c1-0.3,2.5-0.7,3.1-0.9
		c0.4-0.1,0.5-0.3,0.7-0.3c0.4,0,1.3,0.7,1.3,1.1c0,0.3-0.4,0.3-0.7,0.6c-0.6,0.6-1.5,1.3-2.5,2L31.3,21.6z"/>
	<path d="M38.3,17.2c0.3-0.1,0.6-0.3,0.9-0.3c0.6,0,1.4,0.6,1.4,0.9c0,0.2-0.3,0.4-0.3,0.8c-0.1,0.6-0.1,3.8-0.1,4.9
		c0,0.1,0,0.2,0.1,0.1c2.1-0.6,5-2.6,6.7-4.3l0.2,0.2c-1.5,2.1-3.8,3.8-6.4,5.1c-0.4,0.2-0.4,0.5-0.7,0.5s-1-0.7-1-1.1
		c0-0.2,0.2-0.4,0.2-0.8c0-0.8,0-4.4,0-5.3c0-0.3-0.1-0.4-1-0.6L38.3,17.2z"/>
	<path d="M58.8,18.1l0.3,0.2c-1.4,2.6-3.6,4.6-6.3,6.2c-0.3,0.1-0.5,0.5-0.7,0.5c-0.5,0-1.3-0.6-1.5-1c-0.1-0.2-0.2-0.6-0.2-0.9
		l0.2-0.1c0.3,0.4,0.7,0.8,1.1,0.8C52.6,23.7,57.1,20.5,58.8,18.1z M50.5,16.9c1.5,0.3,3.2,1.1,3.2,2.1c0,0.3-0.2,0.6-0.5,0.6
		s-0.4-0.2-0.7-0.5c-0.6-0.7-1-1.2-2.1-1.9L50.5,16.9z"/>
	<path d="M63.9,16.2c0.3-0.1,0.6-0.2,0.9-0.2c0.5,0,1.4,0.5,1.4,0.8s-0.2,0.3-0.3,0.7c-0.1,0.5-0.1,1.4-0.1,2c1.2,0.2,2.3,0.6,3,1
		c0.4,0.3,0.7,0.6,0.7,1c0,0.3-0.2,0.5-0.5,0.5c-0.5,0-0.6-0.5-1.4-1.1c-0.5-0.4-1.1-0.7-1.8-1c0,0.9,0,2.8,0,4c0,0.6,0,0.9,0,1.1
		c0,0.4-0.1,0.6-0.4,0.6c-0.5,0-0.7-0.6-0.7-1.2c0-0.3,0.1-0.5,0.2-1c0.1-0.9,0.1-2.7,0.1-3.6c0-1,0-2.3-0.1-2.9
		C64.8,16.5,64.5,16.4,63.9,16.2L63.9,16.2z"/>
	<path d="M73.8,19.2l0.1-0.3c0.6,0.1,1,0.2,1.6,0.4c0.8,0.3,1.3,0.7,1.3,1.3c0,0.2-0.1,0.4-0.4,0.4c-0.4,0-0.6-0.5-1.2-0.9
		C74.7,19.7,74.2,19.4,73.8,19.2z M82.8,18.4l0.3,0.2c-1.3,2.4-3.9,4.6-6.5,6.1c-0.3,0.2-0.4,0.5-0.8,0.5s-1.2-0.5-1.5-0.9
		c-0.2-0.2-0.3-0.7-0.3-0.9l0.2-0.1c0.3,0.4,0.7,0.8,1.1,0.8C76.3,24,80.7,21.3,82.8,18.4z M75.3,16.8l0.1-0.3
		c0.4,0.1,1,0.2,1.6,0.4c0.8,0.3,1.3,0.7,1.3,1.3c0,0.3-0.2,0.5-0.4,0.5c-0.4,0-0.6-0.5-1.3-1C76.2,17.3,75.7,17,75.3,16.8z"/>
	<path d="M85.7,19c0.3,0.3,0.5,0.6,0.8,0.6c0.8,0,4-0.5,6-0.7c0.8-0.1,1-0.2,1.2-0.2c0.6,0,1.3,0.3,1.3,0.7c0,0.3-0.1,0.4-0.4,0.4
		c-0.2,0-0.7-0.1-1.3-0.1c-0.5,0-1.5,0-2.5,0.1c0.3,0.2,0.6,0.4,0.6,0.6c0,0.3-0.3,0.3-0.5,0.7c-0.5,1.3-1.4,3.2-4.2,4.7l-0.2-0.2
		c2.8-1.9,3.6-4.6,3.6-5.3c0-0.2,0-0.3-0.2-0.5c-0.9,0.1-2,0.3-2.4,0.4s-0.7,0.3-1,0.3s-0.9-0.5-1-0.9c-0.1-0.2-0.1-0.4-0.1-0.6
		L85.7,19z M87.5,16.4c0.5,0.3,0.8,0.4,1.2,0.4c0.8,0,1.6-0.2,2.2-0.3c0.7-0.2,0.8-0.3,1.1-0.3c0.6,0,1,0.2,1,0.6
		c0,0.2-0.1,0.3-0.5,0.4c-0.9,0.2-2.7,0.5-3.7,0.5c-0.6,0-1-0.4-1.4-1.1L87.5,16.4z"/>
	<path d="M102.8,18.3c0.2,0,0.5,0,0.7,0.1c0.4,0.1,0.9,0.6,0.9,0.9c0,0.2-0.2,0.2-0.4,0.5c-0.3,0.4-0.8,0.8-1.3,1.4
		c0.3,0.2,0.5,0.4,0.5,0.5S103,22,103,22.2c0,1.3,0,2.6,0,3.1c0,0.4-0.1,0.6-0.4,0.6c-0.4,0-0.6-0.5-0.6-0.9c0-0.2,0.1-0.4,0.1-0.7
		c0.1-0.8,0.1-2,0.1-2.4c0-0.2,0-0.3-0.1-0.4c-0.6,0.5-2,1.5-3.5,2.1l-0.1-0.2c2.4-1.4,4.7-3.9,4.7-4.5c0-0.2-0.3-0.4-0.5-0.5
		L102.8,18.3z"/>
	<path d="M112.9,18.3c-0.1,0.1-0.2,0.2-0.5,0.1c-0.3,0.4-0.6,0.8-1,1.2l0.4,0.2c0,0.1-0.2,0.2-0.4,0.2v5.8c0,0.1-0.4,0.3-0.8,0.3
		h-0.2v-5.6c-0.6,0.5-1.2,1.1-1.9,1.5l-0.1-0.1c1.3-1.2,2.5-3.1,3.2-4.3L112.9,18.3z M112.7,15.8c-0.1,0.1-0.2,0.2-0.5,0.1
		c-0.8,0.8-2.1,1.9-3.5,2.7l-0.1-0.1c1.1-0.9,2.3-2.4,2.8-3.4L112.7,15.8z M118.6,18.2c0,0,0.7,0.6,1.1,0.9c0,0.1-0.1,0.2-0.3,0.2
		h-1.9v5.4c0,0.7-0.2,1.3-1.6,1.4c0-0.3-0.1-0.6-0.3-0.7c-0.2-0.2-0.6-0.3-1.4-0.4v-0.2c0,0,1.7,0.1,2.1,0.1c0.3,0,0.3-0.1,0.3-0.3
		v-5.3h-3.8l-0.1-0.3h5.4L118.6,18.2z M113.4,16.6l-0.1-0.4h4.2l0.6-0.8c0,0,0.7,0.6,1.1,0.9c0,0.1-0.2,0.2-0.3,0.2L113.4,16.6
		L113.4,16.6z"/>
	<path d="M124.2,18.2c-0.1,0.1-0.2,0.2-0.5,0.2c-0.2,0.4-0.5,0.9-0.9,1.3l0.5,0.2c0,0.1-0.2,0.2-0.3,0.2v5.8c0,0.1-0.4,0.3-0.8,0.3
		h-0.1v-5.4c-0.5,0.5-1,1-1.5,1.5l-0.1-0.1c1.1-1.3,2-3.2,2.4-4.5L124.2,18.2z M124.2,15.8c-0.1,0.1-0.2,0.2-0.5,0.1
		c-0.7,0.8-1.8,2-3.1,2.7l-0.1-0.1c0.9-1,1.9-2.4,2.4-3.4L124.2,15.8z M125,22.8c0.2,1.2-0.1,2-0.5,2.4c-0.2,0.3-0.7,0.3-0.9,0
		c-0.1-0.3,0-0.6,0.3-0.7c0.4-0.3,0.9-1,0.9-1.6L125,22.8z M125.2,21.3v0.5c0,0.1-0.3,0.3-0.7,0.3h-0.1v-4l1,0.4h1.8v-1.3h-3.1
		l-0.1-0.3h3.2v-1.6l1.4,0.1c0,0.2-0.1,0.3-0.4,0.3v1.2h1.8l0.6-0.8c0,0,0.7,0.5,1.1,0.9c0,0.1-0.2,0.2-0.3,0.2h-3.3v1.3h2.1
		l0.4-0.5l0.9,0.7c-0.1,0.1-0.2,0.2-0.4,0.2v2.8c0,0.1-0.3,0.2-0.7,0.2h-0.1v-0.5h-5.1V21.3z M125.2,18.8V21h1.1v-2.2H125.2z
		 M129.6,25c0.3,0.1,0.3,0.2,0.3,0.4c0,0.4-0.4,0.5-2,0.5h-1.1c-0.9,0-1.1-0.2-1.1-0.8v-2.7l1.2,0.1c0,0.1-0.1,0.3-0.3,0.3v2.1
		c0,0.1,0,0.2,0.4,0.2h0.9h0.9c0.1,0,0.2,0,0.2-0.1c0.1-0.2,0.2-0.7,0.3-1.2h0.2L129.6,25z M126.7,21.7c2.7,0.4,2.2,2.2,1.3,1.7
		c-0.2-0.6-0.8-1.2-1.4-1.6L126.7,21.7z M128.2,21v-2.2h-1.1V21H128.2z M128.9,18.8V21h1.2v-2.2H128.9z M129.6,22.5
		c3,1.3,2.2,3.4,1.3,2.7c-0.1-0.9-0.8-1.9-1.4-2.6L129.6,22.5z"/>
	<path d="M133.3,22.3c0.8,3.4-1.4,3.1-0.7,2.1c0.3-0.4,0.5-1.1,0.5-2.1H133.3z M138.2,21.2c-0.1,0.1-0.2,0.2-0.5,0.2
		c-0.1,2.4-0.4,3.6-0.9,4c-0.3,0.3-0.7,0.3-1.1,0.3c0-0.2,0-0.4-0.2-0.6c-0.1-0.1-0.4-0.2-0.7-0.3v-0.2c0.3,0,0.9,0.1,1.1,0.1
		c0.2,0,0.3,0,0.4-0.1c0.3-0.3,0.5-1.3,0.7-3.4h-2.9v0.4c0,0.1-0.3,0.3-0.7,0.3h-0.1v-6.4l1,0.4h2.5l0.6-0.7c0,0,0.6,0.5,1,0.8
		c0,0.1-0.1,0.2-0.3,0.2h-2v1.3h0.7l0.3-0.5c0,0,0.6,0.4,0.9,0.8c0,0.1-0.1,0.2-0.3,0.2h-1.8v1.3h0.7l0.5-0.6c0,0,0.6,0.4,0.9,0.8
		c0,0.1-0.1,0.2-0.3,0.2h-1.7V21h0.9l0.5-0.5L138.2,21.2z M133.9,22.2c1.2,1.5,0.5,2.8-0.1,2.2c0.1-0.7,0-1.6-0.1-2.2H133.9z
		 M133.9,16.3v1.3h1.1v-1.3H133.9z M135.1,18h-1.1v1.3h1.1V18z M133.9,20.9h1.1v-1.3h-1.1V20.9z M134.7,22c1.6,1.2,0.9,2.4,0.4,1.9
		c0-0.6-0.3-1.3-0.6-1.8L134.7,22z M135.4,21.7c1.8,0.5,1.2,1.8,0.6,1.4c-0.1-0.4-0.4-1-0.8-1.3L135.4,21.7z M140.4,20.1
		c0.5,2.2,1.6,4.2,3.3,5v0.1c-0.4,0.1-0.7,0.4-0.8,0.9c-1.6-1.2-2.4-3.2-2.7-6h-0.7c0,2.1-0.3,4.4-2.3,6l-0.2-0.1
		c1.4-1.8,1.6-4.1,1.6-6.4v-4l1.1,0.4h2.3l0.5-0.5l1.1,0.8c-0.1,0.1-0.3,0.2-0.5,0.2v4.1c0,0.1-0.5,0.3-0.8,0.3h-0.1v-0.7
		L140.4,20.1L140.4,20.1z M139.6,19.8h2.6v-3.4h-2.6v3.2V19.8z"/>
	<path d="M154.4,16.5c0,0,0.8,0.6,1.2,1c0,0.1-0.1,0.2-0.3,0.2h-10.7l-0.1-0.3h3.8c-0.1,0-0.2-0.1-0.3-0.1c-0.1-0.7-0.7-1.5-1.2-2
		l0.1-0.1c2.4,0.6,2.3,2.1,1.6,2.2h2.3c0.4-0.7,0.8-1.6,1.1-2.3l1.5,0.4c0,0.1-0.2,0.2-0.5,0.2c-0.4,0.5-1.1,1.1-1.7,1.6h2.5
		L154.4,16.5z M148.9,18.4l1.1,0.8c-0.1,0.1-0.3,0.2-0.5,0.2V25c0,0.7-0.1,1.1-1.2,1.2c0-0.3-0.1-0.5-0.2-0.6
		c-0.1-0.1-0.3-0.3-0.8-0.3V25c0,0,0.8,0.1,1,0.1s0.2-0.1,0.2-0.2V23h-2.1v2.8c0,0.1-0.4,0.3-0.8,0.3h-0.2v-7.6l1,0.4h1.9
		L148.9,18.4z M146.4,19.3v1.5h2.1v-1.5H146.4z M148.6,22.7v-1.6h-2.1v1.6H148.6z M151.9,24c0,0.1-0.4,0.3-0.7,0.3h-0.2v-5.5
		l1.3,0.1c0,0.2-0.1,0.3-0.4,0.3L151.9,24L151.9,24z M153.6,18.5l1.4,0.1c0,0.2-0.1,0.3-0.4,0.3v6c0,0.7-0.2,1.1-1.4,1.2
		c0-0.3-0.1-0.5-0.3-0.6s-0.5-0.3-1-0.3V25c0,0,1.2,0.1,1.5,0.1c0.2,0,0.3-0.1,0.3-0.2v-6.4H153.6z"/>
	<path d="M159.8,15.9c0.4,0,0.7,0.1,0.9,0.3c0.4,0.2,0.8,0.6,0.8,0.9c0,0.2-0.3,0.3-0.4,0.6c-0.3,0.5-0.5,0.9-0.8,1.3
		c0.1,0,0.3,0.1,0.4,0.1c0.6,0,3.2-0.4,3.9-0.5c0.5-0.1,0.6-0.3,0.9-0.3c0.5,0,1.1,0.3,1.1,0.6c0,0.2-0.1,0.4-0.5,0.4s-1.1,0-1.7,0
		c-0.4,0-1.1,0.1-1.7,0.2c0.5,0.2,0.9,0.6,0.9,0.8c0,0.2-0.2,0.3-0.3,0.6c-0.8,2-2.3,3.7-4.7,5l-0.2-0.2c2.4-1.6,4-4.2,4-5.4
		c0-0.3-0.1-0.4-0.3-0.6c-0.2,0-0.4,0.1-0.6,0.1c-0.3,0-0.6,0.1-0.8,0.1s-0.4-0.2-0.6-0.4c-0.7,0.9-1.6,1.8-2.8,2.5l-0.2-0.2
		c1.8-1.5,3.3-4,3.3-4.8c0-0.3-0.2-0.5-0.5-0.8L159.8,15.9z M164.6,16.1c0.6,0.2,1,0.5,1.3,0.7c0.3,0.3,0.4,0.5,0.4,0.7
		s-0.1,0.3-0.3,0.3s-0.3-0.2-0.6-0.5c-0.2-0.3-0.5-0.7-1-1.1L164.6,16.1z M165.7,15.4c0.6,0.2,1.1,0.4,1.4,0.7
		c0.3,0.3,0.4,0.5,0.4,0.7s-0.1,0.3-0.3,0.3s-0.3-0.3-0.6-0.6c-0.3-0.3-0.5-0.6-1-1L165.7,15.4z"/>
	<path d="M170.9,17.1c0.2,0.3,0.5,0.7,0.9,0.7c0.7,0,3-0.4,3.6-0.6c0.3-0.1,0.4-0.3,0.6-0.3c0.4,0,1.3,0.7,1.3,1s-0.4,0.4-0.6,0.6
		c-0.4,0.6-1.1,1.7-1.9,2.7c2,0.8,3.8,2.1,3.8,3.2c0,0.3-0.2,0.5-0.5,0.5c-0.4,0-0.6-0.4-1.2-1.1c-0.7-0.9-1.4-1.7-2.5-2.3
		c-1.1,1.2-2.9,2.7-5.3,3.6l-0.2-0.3c2.8-1.5,5.7-4.4,6.8-6.8c0.1-0.2,0-0.2-0.1-0.2c-0.7,0.1-2.4,0.5-3,0.7
		c-0.4,0.1-0.5,0.3-0.8,0.3c-0.4,0-0.9-0.6-1-0.9c-0.1-0.2-0.1-0.5-0.1-0.8L170.9,17.1z"/>
	<path d="M183.9,16.2c0.3-0.1,0.6-0.2,0.9-0.2c0.5,0,1.4,0.5,1.4,0.8s-0.2,0.3-0.3,0.7c-0.1,0.5-0.1,1.4-0.1,2c1.2,0.2,2.3,0.6,3,1
		c0.4,0.3,0.7,0.6,0.7,1c0,0.3-0.2,0.5-0.5,0.5c-0.5,0-0.6-0.5-1.4-1.1c-0.5-0.4-1.1-0.7-1.8-1c0,0.9,0,2.8,0,4c0,0.6,0,0.9,0,1.1
		c0,0.4-0.1,0.6-0.4,0.6c-0.5,0-0.7-0.6-0.7-1.2c0-0.3,0.1-0.5,0.2-1c0.1-0.9,0.1-2.7,0.1-3.6c0-1,0-2.3-0.1-2.9
		C184.8,16.5,184.5,16.4,183.9,16.2L183.9,16.2z"/>
	<path d="M198.4,16.1c0.3-0.1,0.6-0.2,0.8-0.2c0.6,0,1.3,0.5,1.3,0.8s-0.2,0.2-0.3,0.8c0,0.4,0,1,0,1.5c1.3-0.1,1.4-0.2,1.7-0.2
		c0.6,0,1.3,0.3,1.3,0.7c0,0.3-0.1,0.3-0.4,0.3c-0.3,0-0.8-0.1-1.8-0.1c-0.2,0-0.5,0-0.8,0c0,1.5-0.1,3-0.9,4
		c-0.6,0.9-1.7,1.6-3.2,2.1l-0.1-0.3c0.9-0.5,2-1.1,2.7-2.2c0.6-0.9,0.7-2.3,0.7-3.7c-0.8,0.1-1.7,0.1-2.4,0.2c0,1,0,1.9,0,2.3
		c0,0.5-0.1,0.7-0.4,0.7c-0.3,0-0.6-0.6-0.6-0.9c0-0.4,0.2-0.7,0.2-2c-0.6,0.1-1,0.2-1.4,0.3c-0.3,0.1-0.6,0.3-0.8,0.3
		c-0.3,0-0.8-0.6-0.9-0.9c-0.1-0.2-0.1-0.5-0.1-0.7l0.2-0.1c0.2,0.3,0.5,0.7,0.8,0.7c0.4,0,1.6-0.1,2.3-0.2c0-0.6,0-1.5-0.1-1.8
		s-0.3-0.3-0.9-0.4v-0.2c0.2-0.1,0.5-0.2,0.7-0.2c0.4,0,1.2,0.4,1.2,0.7c0,0.3-0.2,0.3-0.2,0.7c0,0.2,0,0.7,0,1.1l2.4-0.2
		c0-1,0-1.7,0-2.2c0-0.3-0.3-0.3-0.9-0.4L198.4,16.1z"/>
	<path d="M206.1,17.6c0.6,0.1,1,0.2,1.5,0.6l0,0c1.2-0.1,3.9-0.3,4.4-0.4c0.4,0,0.5-0.3,0.8-0.3s1.3,0.8,1.3,1.1
		c0,0.3-0.4,0.4-0.5,0.7c-0.1,0.6-0.4,2-0.6,3.3c0.4,0,0.8,0.2,0.8,0.5c0,0.2-0.1,0.4-0.4,0.4c-0.3,0-0.9-0.1-1.5-0.1
		c-0.9,0-2.5,0.1-3.9,0.2c0,0.1,0,0.3,0,0.4c0,0.3-0.1,0.5-0.4,0.5c-0.3,0-0.6-0.4-0.6-0.9c0-0.3,0-0.9,0-1.4c0-0.8-0.2-2.7-0.3-3.4
		c-0.1-0.4-0.3-0.7-0.7-1L206.1,17.6z M212.1,22.7c0.2-1.4,0.5-3.3,0.5-4c0-0.1,0-0.1-0.2-0.1c-0.7,0-2.5,0.1-3.2,0.2
		c-0.4,0-0.7,0.2-1,0.2c-0.1,0-0.3-0.1-0.5-0.2c0,0.8,0.1,3,0.2,4.2C209.1,22.9,210.9,22.7,212.1,22.7z"/>
	<path d="M226.8,18.1l0.3,0.2c-1.4,2.6-3.6,4.6-6.3,6.2c-0.3,0.2-0.4,0.5-0.7,0.5c-0.5,0-1.3-0.6-1.5-1c-0.1-0.2-0.2-0.6-0.2-0.9
		l0.2-0.1c0.3,0.4,0.7,0.8,1.1,0.8C220.6,23.7,225.1,20.5,226.8,18.1z M218.4,16.9c1.5,0.3,3.2,1.1,3.2,2.1c0,0.3-0.2,0.6-0.5,0.6
		s-0.4-0.2-0.7-0.5c-0.6-0.7-1-1.2-2.1-1.9L218.4,16.9z"/>
	<path d="M228.6,20.6l0.2-0.1c0.3,0.2,0.6,0.4,0.8,0.4s0.4-0.1,0.6-0.3c0.6-0.5,1.6-1.7,2-2.1c0.3-0.3,0.5-0.4,0.8-0.4
		c0.4,0,0.7,0.1,1.1,0.5c1.3,1.3,2.5,3,4.8,4.3c0.4,0.2,0.6,0.5,0.6,0.9c0,0.3-0.2,0.5-0.5,0.5c-0.5,0-1.5-0.8-2.6-1.8
		c-1-1-2-2.3-2.8-3.2c-0.2-0.2-0.4-0.3-0.6-0.3c-0.1,0-0.3,0.1-0.5,0.3c-0.4,0.5-1.3,1.7-1.7,2.3c-0.3,0.4-0.5,0.7-0.8,0.7
		c-0.4,0-0.9-0.3-1.2-0.7C228.7,21.2,228.7,20.9,228.6,20.6z"/>
</g>
<g>
	<g>
		<path d="M8.1,71.3l0.5,0.3c0,0-0.1,0.1-0.1,0.1c-0.5,1-1.2,1.7-2.1,2.3c1,0.5,2.2,0.8,3.5,1c-0.1,0.1-0.3,0.4-0.4,0.6
			c-1.4-0.2-2.7-0.6-3.8-1.2c-1.1,0.6-2.3,0.9-3.7,1.2c-0.1-0.2-0.2-0.4-0.4-0.6c1.2-0.2,2.4-0.5,3.4-1c-0.8-0.5-1.4-1.1-1.9-1.9
			l0.5-0.2H2.8v-0.6H8L8.1,71.3z M2.3,70.2v1.4H1.7v-1.9h1.5c-0.1-0.3-0.4-0.8-0.6-1.2l0.6-0.2c0.3,0.4,0.6,0.9,0.7,1.3l-0.3,0.1
			h3.9C7.6,69.1,8,68.5,8.2,68L9,68.3c0,0.1-0.1,0.1-0.2,0.1c-0.2,0.4-0.5,0.9-0.8,1.3h1.7v1.9H9v-1.4H2.3z M9.1,67.5
			c0,0-0.1,0-0.1,0c0,0-0.1,0-0.1,0c-1.7,0.3-4.6,0.6-7,0.7c0-0.2-0.1-0.4-0.1-0.5c2.4-0.1,5.3-0.4,6.9-0.7L9.1,67.5z M3.8,71.8
			c0.5,0.7,1.1,1.3,1.9,1.8c0.8-0.5,1.4-1,1.9-1.8H3.8z M5.5,68.1c0.2,0.4,0.5,1,0.5,1.4l-0.6,0.2c-0.1-0.4-0.3-1-0.5-1.4L5.5,68.1z
			"/>
		<path d="M11.9,70.2c-0.4,0.6-0.8,1.1-1.2,1.6c-0.1-0.1-0.2-0.4-0.3-0.6c0.9-1,1.8-2.6,2.4-4.2l0.8,0.2c0,0.1-0.1,0.1-0.2,0.1
			c-0.2,0.7-0.5,1.3-0.9,1.9l0.3,0.1c0,0.1-0.1,0.1-0.2,0.1v6h-0.6V70.2z M19.1,69v0.6h-1.3v5c0,0.5-0.1,0.7-0.5,0.8
			c-0.3,0.1-0.9,0.1-1.9,0.1c0-0.2-0.1-0.5-0.2-0.6c0.4,0,0.8,0,1.1,0c0.9,0,0.9,0,0.9-0.3v-5h-3.9V69h3.9v-2l0.8,0
			c0,0.1-0.1,0.1-0.2,0.1V69H19.1z M14.4,70.6c0.6,0.7,1.2,1.7,1.4,2.3l-0.6,0.3c-0.2-0.6-0.8-1.6-1.4-2.3L14.4,70.6z"/>
		<path d="M22.7,67.5v6.1h-2v0.7h-0.6v-6.8H22.7z M22.2,68.1h-1.4v2.2h1.4V68.1z M20.7,73.1h1.4v-2.2h-1.4V73.1z M25.9,69.9h2.4v0.6
			h-5.4v-0.6h2.4v-1.3h-2v-0.6h2v-1.1l0.8,0c0,0.1-0.1,0.1-0.2,0.1v1H28v0.6h-2.1V69.9z M27.4,70.7c0,0.1-0.1,0.1-0.2,0.1v0.8h1.1
			v0.6h-1.1v2.6c0,0.4-0.1,0.6-0.4,0.6c-0.3,0.1-0.7,0.1-1.5,0.1c0-0.2-0.1-0.4-0.2-0.6c0.3,0,0.7,0,0.9,0c0.5,0,0.6,0,0.6-0.2v-2.6
			h-3.7v-0.6h3.7v-1L27.4,70.7z M24.7,74.5c-0.2-0.5-0.7-1.2-1.2-1.7l0.5-0.3c0.5,0.5,1,1.2,1.2,1.6L24.7,74.5z"/>
		<path d="M32.8,70.5h-2.7v5h-0.6v-8.2h3.3V70.5z M32.2,67.8h-2.2v0.8h2.2V67.8z M30.1,70h2.2v-0.9h-2.2V70z M35,74.6h-2.9v0.5h-0.6
			v-3.9H35V74.6z M34.4,71.7h-2.3v0.9h2.3V71.7z M32.1,74.1h2.3v-1h-2.3V74.1z M37.1,67.3v7.3c0,0.8-0.4,0.9-2,0.9
			c0-0.2-0.1-0.5-0.2-0.6c0.3,0,0.6,0,0.8,0c0.7,0,0.7,0,0.7-0.2v-4.1h-2.8v-3.2H37.1z M36.5,67.8h-2.2v0.8h2.2V67.8z M34.3,70h2.2
			v-0.9h-2.2V70z"/>
		<path d="M40.8,69c0,0.3-0.3,0.6-0.6,0.6c-0.3,0-0.6-0.3-0.6-0.6c0-0.4,0.3-0.6,0.6-0.6C40.5,68.3,40.8,68.6,40.8,69z M40.8,73.4
			c0,0.4-0.3,0.6-0.6,0.6c-0.3,0-0.6-0.3-0.6-0.6c0-0.3,0.3-0.6,0.6-0.6C40.5,72.8,40.8,73.1,40.8,73.4z"/>
		<path d="M51.2,71.5v0.6h-3.9v3.3h-0.6v-3.3h-3.8v-0.6h3.8v-3.3h-3.3v-0.6h7.3v0.6h-3.4v3.3H51.2z M44.9,71
			c-0.1-0.6-0.5-1.5-0.9-2.2l0.6-0.2c0.4,0.7,0.8,1.6,0.9,2.2L44.9,71z M50.3,68.9c0,0.1-0.1,0.1-0.2,0.1c-0.3,0.6-0.7,1.6-1.1,2.1
			l-0.5-0.2c0.4-0.6,0.8-1.6,1.1-2.3L50.3,68.9z"/>
		<path d="M53,67.5h6v7.7h-0.6v-0.6h-4.7v0.6H53V67.5z M58.3,68.1h-4.7v2.6h4.7V68.1z M53.6,74.1h4.7v-2.7h-4.7V74.1z"/>
		<path d="M62.5,74.7v-6.2h0l-1.1,0.7l-0.2-0.6l1.4-0.8h0.7v6.9H62.5z"/>
		<path d="M67.6,74.7v-6.2h0l-1.1,0.7l-0.2-0.6l1.4-0.8h0.7v6.9H67.6z"/>
		<path d="M73.2,69c0,0.3-0.3,0.6-0.6,0.6S72,69.3,72,69c0-0.4,0.3-0.6,0.6-0.6C73,68.3,73.2,68.6,73.2,69z M73.2,73.4
			c0,0.4-0.3,0.6-0.6,0.6S72,73.8,72,73.4c0-0.3,0.3-0.6,0.6-0.6C73,72.8,73.2,73.1,73.2,73.4z"/>
		<path d="M75.3,71.3c0-2.4,0.9-3.6,2.2-3.6c1.3,0,2.1,1.2,2.1,3.5c0,2.4-0.8,3.6-2.2,3.6C76.1,74.8,75.3,73.6,75.3,71.3z
			 M78.8,71.2c0-1.7-0.4-2.9-1.4-2.9c-0.8,0-1.4,1.1-1.4,2.9s0.5,3,1.4,3C78.4,74.2,78.8,72.8,78.8,71.2z"/>
		<path d="M80.3,71.3c0-2.4,0.9-3.6,2.2-3.6c1.3,0,2.1,1.2,2.1,3.5c0,2.4-0.8,3.6-2.2,3.6C81.2,74.8,80.3,73.6,80.3,71.3z
			 M83.9,71.2c0-1.7-0.4-2.9-1.4-2.9c-0.8,0-1.4,1.1-1.4,2.9s0.5,3,1.4,3C83.5,74.2,83.9,72.8,83.9,71.2z"/>
		<path d="M93.8,70.8c-0.6,1-1.4,1.6-2.4,1.6c-0.8,0-1.4-0.3-2.1-1c-0.5-0.5-0.9-0.8-1.6-0.8c-0.7,0-1.4,0.5-1.8,1.2l-0.6-0.3
			c0.6-1,1.4-1.6,2.4-1.6c0.8,0,1.4,0.3,2.1,1c0.5,0.5,0.9,0.8,1.6,0.8c0.7,0,1.4-0.5,1.8-1.2L93.8,70.8z"/>
		<path d="M96.6,74.7v-6.2h0l-1.1,0.7l-0.2-0.6l1.4-0.8h0.7v6.9H96.6z"/>
		<path d="M100.5,71c0.3-0.5,0.9-0.8,1.6-0.8c1.2,0,2,0.9,2,2.2c0,1.3-0.8,2.4-2.1,2.4s-2.2-1.1-2.2-2.9c0-1.8,0.9-3.8,3.1-4.1
			c0.3,0,0.5-0.1,0.6-0.1l0,0.6C101.5,68.3,100.6,69.7,100.5,71L100.5,71z M103.3,72.4c0-1.1-0.6-1.7-1.4-1.7
			c-0.8,0-1.4,0.8-1.4,1.3c0,1.3,0.5,2.1,1.5,2.1C102.7,74.2,103.3,73.5,103.3,72.4z"/>
		<path d="M107.3,69c0,0.3-0.3,0.6-0.6,0.6s-0.6-0.3-0.6-0.6c0-0.4,0.3-0.6,0.6-0.6C107.1,68.3,107.3,68.6,107.3,69z M107.3,73.4
			c0,0.4-0.3,0.6-0.6,0.6s-0.6-0.3-0.6-0.6c0-0.3,0.3-0.6,0.6-0.6C107.1,72.8,107.3,73.1,107.3,73.4z"/>
		<path d="M109.4,71.3c0-2.4,0.9-3.6,2.2-3.6c1.3,0,2.1,1.2,2.1,3.5c0,2.4-0.8,3.6-2.2,3.6C110.2,74.8,109.4,73.6,109.4,71.3z
			 M112.9,71.2c0-1.7-0.4-2.9-1.4-2.9c-0.8,0-1.4,1.1-1.4,2.9s0.5,3,1.4,3C112.5,74.2,112.9,72.8,112.9,71.2z"/>
		<path d="M114.4,71.3c0-2.4,0.9-3.6,2.2-3.6c1.3,0,2.1,1.2,2.1,3.5c0,2.4-0.8,3.6-2.2,3.6C115.3,74.8,114.4,73.6,114.4,71.3z
			 M118,71.2c0-1.7-0.4-2.9-1.4-2.9c-0.8,0-1.4,1.1-1.4,2.9s0.5,3,1.4,3C117.6,74.2,118,72.8,118,71.2z"/>
		<path d="M122.8,70.2c-0.3,0.6-0.7,1.1-1.1,1.5c-0.1-0.1-0.2-0.4-0.3-0.6c0.9-1,1.8-2.5,2.3-4.1l0.7,0.2c0,0.1-0.1,0.1-0.2,0.1
			c-0.2,0.6-0.5,1.3-0.8,1.9l0.2,0.1c0,0.1-0.1,0.1-0.2,0.1v6.1h-0.6V70.2z M130.1,69.9h-2.4c0.6,1.5,1.6,3.1,2.6,3.8
			c-0.1,0.1-0.4,0.3-0.5,0.5c-0.9-0.9-1.9-2.4-2.5-3.9v5.1h-0.6v-5c-0.6,1.5-1.6,3-2.5,3.8c-0.1-0.1-0.3-0.4-0.5-0.5
			c1-0.8,2-2.3,2.6-3.9H124v-0.6h2.7V67l0.8,0.1c0,0.1-0.1,0.1-0.2,0.1v2.1h2.8V69.9z"/>
		<path d="M131.8,67.5h6v7.7h-0.6v-0.6h-4.7v0.6h-0.6V67.5z M137.1,68.1h-4.7v2.6h4.7V68.1z M132.4,74.1h4.7v-2.7h-4.7V74.1z"/>
		<path d="M141.3,74.7v-6.2h0l-1.1,0.7l-0.2-0.6l1.4-0.8h0.7v6.9H141.3z"/>
		<path d="M144.4,71.3c0-2.4,0.9-3.6,2.2-3.6c1.3,0,2.1,1.2,2.1,3.5c0,2.4-0.8,3.6-2.2,3.6C145.3,74.8,144.4,73.6,144.4,71.3z
			 M148,71.2c0-1.7-0.4-2.9-1.4-2.9c-0.8,0-1.4,1.1-1.4,2.9s0.5,3,1.4,3C147.6,74.2,148,72.8,148,71.2z"/>
		<path d="M152,69c0,0.3-0.3,0.6-0.6,0.6c-0.3,0-0.6-0.3-0.6-0.6c0-0.4,0.3-0.6,0.6-0.6C151.8,68.3,152,68.6,152,69z M152,73.4
			c0,0.4-0.3,0.6-0.6,0.6c-0.3,0-0.6-0.3-0.6-0.6c0-0.3,0.3-0.6,0.6-0.6C151.8,72.8,152,73.1,152,73.4z"/>
		<path d="M154.1,71.3c0-2.4,0.9-3.6,2.2-3.6c1.3,0,2.1,1.2,2.1,3.5c0,2.4-0.8,3.6-2.2,3.6C154.9,74.8,154.1,73.6,154.1,71.3z
			 M157.6,71.2c0-1.7-0.4-2.9-1.4-2.9c-0.8,0-1.4,1.1-1.4,2.9s0.5,3,1.4,3C157.2,74.2,157.6,72.8,157.6,71.2z"/>
		<path d="M159.1,71.3c0-2.4,0.9-3.6,2.2-3.6c1.3,0,2.1,1.2,2.1,3.5c0,2.4-0.8,3.6-2.2,3.6C160,74.8,159.1,73.6,159.1,71.3z
			 M162.7,71.2c0-1.7-0.4-2.9-1.4-2.9c-0.8,0-1.4,1.1-1.4,2.9s0.5,3,1.4,3C162.3,74.2,162.7,72.8,162.7,71.2z"/>
		<path d="M172.7,70.8c-0.6,1-1.4,1.6-2.4,1.6c-0.8,0-1.4-0.3-2.1-1c-0.5-0.5-0.9-0.8-1.6-0.8c-0.7,0-1.4,0.5-1.8,1.2l-0.6-0.3
			c0.6-1,1.4-1.6,2.4-1.6c0.8,0,1.4,0.3,2.1,1c0.5,0.5,0.9,0.8,1.6,0.8c0.7,0,1.4-0.5,1.8-1.2L172.7,70.8z"/>
		<path d="M175.4,74.7v-6.2h0l-1.1,0.7l-0.2-0.6l1.4-0.8h0.7v6.9H175.4z"/>
		<path d="M179.3,71c0.3-0.5,0.9-0.8,1.6-0.8c1.2,0,2,0.9,2,2.2c0,1.3-0.8,2.4-2.1,2.4s-2.2-1.1-2.2-2.9c0-1.8,0.9-3.8,3.1-4.1
			c0.3,0,0.5-0.1,0.6-0.1l0,0.6C180.3,68.3,179.4,69.7,179.3,71L179.3,71z M182.1,72.4c0-1.1-0.6-1.7-1.4-1.7
			c-0.8,0-1.4,0.8-1.4,1.3c0,1.3,0.5,2.1,1.5,2.1C181.5,74.2,182.1,73.5,182.1,72.4z"/>
		<path d="M186.1,69c0,0.3-0.3,0.6-0.6,0.6c-0.3,0-0.6-0.3-0.6-0.6c0-0.4,0.3-0.6,0.6-0.6C185.9,68.3,186.1,68.6,186.1,69z
			 M186.1,73.4c0,0.4-0.3,0.6-0.6,0.6c-0.3,0-0.6-0.3-0.6-0.6c0-0.3,0.3-0.6,0.6-0.6C185.9,72.8,186.1,73.1,186.1,73.4z"/>
		<path d="M188.2,71.3c0-2.4,0.9-3.6,2.2-3.6c1.3,0,2.1,1.2,2.1,3.5c0,2.4-0.8,3.6-2.2,3.6C189,74.8,188.2,73.6,188.2,71.3z
			 M191.7,71.2c0-1.7-0.4-2.9-1.4-2.9c-0.8,0-1.4,1.1-1.4,2.9s0.5,3,1.4,3C191.3,74.2,191.7,72.8,191.7,71.2z"/>
		<path d="M193.2,71.3c0-2.4,0.9-3.6,2.2-3.6c1.3,0,2.1,1.2,2.1,3.5c0,2.4-0.8,3.6-2.2,3.6C194.1,74.8,193.2,73.6,193.2,71.3z
			 M196.8,71.2c0-1.7-0.4-2.9-1.4-2.9c-0.8,0-1.4,1.1-1.4,2.9s0.5,3,1.4,3C196.4,74.2,196.8,72.8,196.8,71.2z"/>
		<path d="M202.8,75.9h-1.8v-8.3h1.8v0.5h-1.2v7.3h1.2V75.9z"/>
		<path d="M207.2,67l0.9,0.1c0,0.1-0.1,0.1-0.2,0.2v2.8c0,1,0.6,3.7,3.9,4.8c-0.1,0.1-0.3,0.4-0.4,0.6c-2.8-1.1-3.7-3.3-3.8-4.2h0
			c-0.2,0.9-1,3-3.7,4.2c-0.1-0.1-0.3-0.4-0.4-0.5c3.2-1.2,3.8-3.8,3.8-4.9V67z M203.6,71.5c0.8-0.6,1.1-1.6,1.2-2.6l0.6,0.1
			c-0.2,1.1-0.5,2.2-1.3,2.9L203.6,71.5z M211.4,69.1c0,0.1-0.1,0.1-0.2,0.1c-0.4,0.7-1,1.8-1.5,2.5c0,0-0.5-0.3-0.5-0.3
			c0.5-0.7,1.1-1.8,1.4-2.6L211.4,69.1z"/>
		<path d="M215.4,71.2c0,0.5-0.4,0.9-0.9,0.9c-0.5,0-0.9-0.4-0.9-0.9c0-0.5,0.4-0.9,0.9-0.9C215,70.2,215.4,70.7,215.4,71.2z"/>
		<path d="M220.1,69.4l0.4,0.2c0,0-0.1,0.1-0.1,0.1c-0.5,2.3-1.6,4-3,5c-0.1-0.2-0.4-0.4-0.5-0.5c1.2-0.8,2.3-2.2,2.7-4.1h-2.5v-0.6
			h2.8L220.1,69.4z M221.7,68.6c0.2,0.8,0.5,1.5,0.8,2.2c0.8-0.7,1.7-1.6,2.3-2.4l0.7,0.5c0,0.1-0.1,0.1-0.2,0.1
			c-0.6,0.7-1.7,1.7-2.5,2.3c0.7,1.3,1.7,2.3,3,2.9c-0.2,0.1-0.4,0.4-0.5,0.6c-1.7-0.8-2.8-2.4-3.6-4.4v4.3c0,0.8-0.4,0.9-2.1,0.9
			c0-0.2-0.2-0.5-0.3-0.7c0.4,0,0.7,0,0.9,0c0.8,0,0.8,0,0.8-0.2v-7.6l0.8,0c0,0.1-0.1,0.1-0.2,0.1V68.6z"/>
		<path d="M234.8,74.6v0.5h-4.4v0.4h-0.6v-3.3c-0.2,0.3-0.4,0.5-0.6,0.7c-0.1-0.1-0.2-0.2-0.3-0.3v1.1h-1.8v0.8h-0.6v-6.9h2.4v4.9
			c0.6-0.6,1.2-1.5,1.5-2.3h-1.1v-0.5h1.8v-0.8h-1.6v-0.5h1.6v-0.7h-1.8v-0.5h2.3v2.8H231l0.3,0.1c0,0.1-0.1,0.1-0.2,0.1
			c-0.1,0.2-0.2,0.5-0.4,0.7h1.3c0.1-0.3,0.3-0.6,0.4-0.9h-0.2v-0.5h1.8v-0.8h-1.7v-0.5h1.7v-0.7h-1.8v-0.5h2.4v2.8h-1.9l0.5,0.1
			c0,0.1-0.1,0.1-0.2,0.1c-0.1,0.2-0.2,0.4-0.3,0.7h2v0.5h-2.1v0.7h1.8v0.5h-1.8v0.7h1.8v0.5h-1.8v0.8H234.8z M228.4,68.1h-1.3v2.2
			h1.3V68.1z M227.2,73.1h1.3v-2.3h-1.3V73.1z M232,72.2v-0.7h-1.5v0.7H232z M232,73.4v-0.7h-1.5v0.7H232z M230.5,73.9v0.8h1.5v-0.8
			H230.5z"/>
		<path d="M240.1,72.6v2c0.5,0.1,1,0.1,1.6,0.1c0.3,0,1.9,0,2.4,0c-0.1,0.2-0.2,0.4-0.2,0.6h-2.2c-2,0-3.4-0.3-4.3-2
			c-0.3,0.9-0.8,1.7-1.4,2.2c-0.1-0.1-0.3-0.3-0.5-0.4c1-0.7,1.5-2.2,1.8-3.9l0.8,0.1c0,0.1-0.1,0.1-0.2,0.1
			c-0.1,0.4-0.1,0.7-0.2,1.1c0.4,1,1,1.6,1.8,1.9v-4h-2.3v-0.6h5.4v0.6h-2.4V72h2.8v0.6H240.1z M236.5,68.6V70h-0.6v-2h3.5v-1.1
			l0.8,0.1c0,0.1-0.1,0.1-0.2,0.1V68h3.6v2H243v-1.4H236.5z"/>
		<path d="M245.9,70.2c-0.3,0.6-0.7,1.1-1.1,1.5c-0.1-0.1-0.2-0.4-0.3-0.6c0.9-1,1.8-2.5,2.3-4.1l0.7,0.2c0,0.1-0.1,0.1-0.2,0.1
			c-0.2,0.6-0.5,1.3-0.8,1.9l0.2,0.1c0,0.1-0.1,0.1-0.2,0.1v6.1h-0.6V70.2z M253.2,69.9h-2.4c0.6,1.5,1.6,3.1,2.6,3.8
			c-0.1,0.1-0.4,0.3-0.5,0.5c-0.9-0.9-1.9-2.4-2.5-3.9v5.1h-0.6v-5c-0.6,1.5-1.6,3-2.5,3.8c-0.1-0.1-0.3-0.4-0.5-0.5
			c1-0.8,2-2.3,2.6-3.9h-2.3v-0.6h2.7V67l0.8,0.1c0,0.1-0.1,0.1-0.2,0.1v2.1h2.8V69.9z"/>
		<path d="M258,67c-1,0.8-1.8,2.4-1.8,4.2c0,1.9,0.8,3.4,1.8,4.2v0h-0.6c-0.9-0.8-1.8-2.4-1.8-4.3c0-1.9,0.8-3.4,1.8-4.3L258,67
			L258,67z"/>
		<path d="M262.1,68.9c0,0-0.1,0.1-0.1,0.1c-0.3,0.8-0.7,1.5-1.3,2.2c0.4,0.3,1.2,0.9,1.5,1.1l-0.4,0.5c-0.2-0.2-0.8-0.7-1.2-1.1
			v3.8H260V72c-0.4,0.4-0.8,0.8-1.2,1.1c-0.1-0.2-0.2-0.4-0.3-0.6c1.1-0.7,2.2-2,2.8-3.3h-2.6v-0.6h1.4v-1.8l0.8,0
			c0,0.1-0.1,0.1-0.2,0.1v1.6h1l0.1,0L262.1,68.9z M264,71.6c0,0.1-0.1,0.1-0.2,0.1c-0.1,1.5-0.5,2.9-2,3.7
			c-0.1-0.1-0.3-0.4-0.4-0.5c1.4-0.7,1.7-2,1.8-3.5L264,71.6z M265.5,74.6c0,0.3,0,0.3,0.3,0.3h0.7c0.2,0,0.3-0.2,0.3-1.4
			c0.1,0.1,0.4,0.2,0.5,0.2c0,1.3-0.2,1.6-0.8,1.6h-0.8c-0.6,0-0.8-0.2-0.8-0.8v-3.5h-2.5v-3.6h4.4v3.6h-1.1c0,0.1-0.1,0.1-0.2,0.1
			V74.6z M262.9,68.1v2.4h3.1v-2.4H262.9z"/>
		<path d="M268.7,67.5h6v7.7H274v-0.6h-4.7v0.6h-0.6V67.5z M274,68.1h-4.7v2.6h4.7V68.1z M269.3,74.1h4.7v-2.7h-4.7V74.1z"/>
		<path d="M277.1,75c-0.3-0.7-0.4-2-0.4-3.2c0-1.2,0.2-2.8,0.5-4.3l0.9,0.2c0,0.1-0.1,0.2-0.2,0.2c-0.3,1.3-0.5,2.9-0.5,4
			c0,0.7,0,1.4,0.1,1.7c0.2-0.6,0.6-1.4,0.8-1.9l0.4,0.4c-0.3,0.6-0.9,2-0.9,2.5c0,0.1,0,0.3,0.1,0.4L277.1,75z M279.4,69.5
			c0.8,0,1.5,0,2.3,0c0-0.8-0.1-1.5-0.1-2.2l0.9,0c0,0.1-0.1,0.2-0.2,0.2c0,0.6,0,1.2,0,1.9c0.7-0.1,1.3-0.2,1.8-0.4l0.1,0.6
			c-0.4,0.1-1.1,0.3-1.9,0.3c0,1,0.1,2.1,0.1,2.7c0.7,0.3,1.4,0.7,1.9,1.2l-0.4,0.6c-0.4-0.4-0.9-0.8-1.5-1c0,0.8-0.2,1.7-1.5,1.7
			c-1.1,0-1.8-0.5-1.8-1.3c0-0.9,0.9-1.4,1.8-1.4c0.3,0,0.6,0,0.9,0.1c0-0.6-0.1-1.5-0.1-2.4c-0.3,0-0.7,0-0.9,0h-1.4L279.4,69.5z
			 M281.9,73.2c-0.3-0.1-0.6-0.2-0.9-0.2c-0.6,0-1.2,0.2-1.2,0.8c0,0.5,0.6,0.8,1.2,0.8c0.7,0,0.9-0.3,0.9-1.1L281.9,73.2z"/>
		<path d="M288,67.3l0.4,0.2c0,0,0,0.1-0.1,0.1c-0.2,0.7-0.6,1.6-0.9,2.4c0.7,0.8,1,1.4,1,2c0,1.3-0.8,1.3-1.5,1.3
			c0-0.2-0.1-0.4-0.2-0.5c0.1,0,0.3,0,0.4,0c0.4,0,0.7,0,0.7-0.8c0-0.5-0.3-1.1-1-1.9c0.3-0.7,0.6-1.6,0.8-2.2h-1.3v7.6h-0.6v-8.2
			h2.2L288,67.3z M291.5,67c0,0.1-0.1,0.1-0.1,0.1c0.6,0.9,1.7,2,2.7,2.5c-0.1,0.1-0.3,0.4-0.3,0.5c-1-0.6-2.1-1.7-2.7-2.6
			c-0.5,0.9-1.6,2-2.6,2.7c-0.1-0.1-0.2-0.4-0.3-0.5c1.1-0.7,2.2-1.8,2.7-2.8L291.5,67z M290,72.7c0,0.1-0.1,0.1-0.2,0.1
			c-0.3,0.8-0.8,1.6-1.3,2.1c-0.1-0.1-0.3-0.3-0.4-0.4c0.5-0.5,1-1.3,1.3-2L290,72.7z M293.6,72h-2.3v2.8c0,0.7-0.3,0.7-1.5,0.7
			c0-0.2-0.1-0.4-0.2-0.6c0.5,0,0.9,0,1,0c0.1,0,0.2,0,0.2-0.2V72h-2.1v-0.5h2.1v-1.2h-1.4v-0.5h3.5v0.5h-1.5v1.2h2.3V72z
			 M293.3,74.8c-0.2-0.5-0.8-1.4-1.3-2.1l0.5-0.2c0.5,0.7,1.1,1.5,1.3,2.1L293.3,74.8z"/>
		<path d="M299.6,75.4c-0.9-1.1-2.4-2.4-3.6-3.4c-0.5-0.4-0.6-0.6-0.6-1c0-0.3,0.1-0.5,0.5-0.8c0.8-0.8,2.4-2.3,3.3-3.2l0.8,0.5
			c0,0-0.1,0.1-0.2,0.1c0,0-0.1,0-0.1,0c-0.9,0.9-2.4,2.1-3.1,2.8c-0.2,0.2-0.4,0.4-0.4,0.5c0,0.2,0.2,0.3,0.5,0.6
			c1.2,0.9,2.5,2.1,3.6,3.3L299.6,75.4z"/>
		<path d="M301.2,75.4c1-0.8,1.8-2.4,1.8-4.2c0-1.9-0.8-3.4-1.8-4.2v0h0.6c0.9,0.8,1.8,2.4,1.8,4.3c0,1.9-0.8,3.4-1.8,4.3
			L301.2,75.4L301.2,75.4z"/>
		<path d="M305.8,67.5h1.8v8.3h-1.8v-0.5h1.2v-7.3h-1.2V67.5z"/>
		<path d="M2.6,80.8l3,3l3-3l0.3,0.3l-3,3l3,3l-0.3,0.3l-3-3l-3,3l-0.3-0.3l3-3l-3-3L2.6,80.8z M3,84.8c-0.4,0-0.7-0.3-0.7-0.7
			c0-0.4,0.3-0.7,0.7-0.7s0.7,0.3,0.7,0.7C3.7,84.5,3.4,84.8,3,84.8z M5,81.5c0-0.4,0.3-0.7,0.7-0.7c0.4,0,0.7,0.3,0.7,0.7
			c0,0.4-0.3,0.7-0.7,0.7C5.2,82.2,5,81.8,5,81.5z M6.3,86.7c0,0.4-0.3,0.7-0.7,0.7c-0.4,0-0.7-0.3-0.7-0.7C5,86.3,5.3,86,5.6,86
			C6,86,6.3,86.4,6.3,86.7z M8.3,83.4c0.4,0,0.7,0.3,0.7,0.7c0,0.4-0.3,0.7-0.7,0.7c-0.4,0-0.7-0.3-0.7-0.7
			C7.6,83.7,7.9,83.4,8.3,83.4z"/>
		<path d="M13.6,84.5l-1,0.3v2.8c0,0.7-0.4,0.8-1.6,0.8c0-0.2-0.1-0.4-0.2-0.6c0.2,0,0.4,0,0.6,0c0.6,0,0.6,0,0.6-0.2V85
			c-0.4,0.1-0.8,0.2-1,0.3c0,0.1-0.1,0.1-0.1,0.1l-0.2-0.7c0.4-0.1,0.9-0.2,1.4-0.4v-2.1h-1.3v-0.6h1.3v-1.9l0.8,0
			c0,0.1-0.1,0.1-0.2,0.1v1.7h0.9v0.6h-0.9v1.9l1-0.3L13.6,84.5z M16.8,84.1h2.3v0.5h-4.9v-2.4c-0.2,0.3-0.5,0.6-0.7,0.9
			c-0.1-0.1-0.3-0.3-0.4-0.4c0.7-0.6,1.3-1.7,1.6-2.8l0.7,0.2c0,0.1-0.1,0.1-0.2,0.1c-0.1,0.3-0.2,0.5-0.3,0.8h1.3
			c0.2-0.3,0.4-0.8,0.5-1.1l0.7,0.2c0,0.1-0.1,0.1-0.2,0.1c-0.1,0.2-0.3,0.5-0.4,0.8h2.1v0.5h-2.1V82h1.7v0.4h-1.7v0.6h1.7v0.4h-1.7
			V84.1z M18.5,86.1l0.1,0l0.3,0.1l0,0.2c-0.1,1.2-0.3,1.7-0.5,1.9c-0.2,0.2-0.4,0.2-0.8,0.2c-0.2,0-0.5,0-0.7,0
			c0-0.2-0.1-0.4-0.2-0.5c0.4,0,0.8,0,1,0c0.1,0,0.2,0,0.3-0.1c0.1-0.1,0.2-0.5,0.3-1.3h-1.2L17,87l-0.6-0.1
			c0.1-0.4,0.2-0.9,0.3-1.3h-1.3c-0.2,1.3-0.8,2.2-1.9,2.7c-0.1-0.1-0.3-0.3-0.4-0.4c0.9-0.4,1.5-1.2,1.7-2.3h-1.3v-0.5H17l0.1,0
			l0.3,0.1c0,0,0,0.1,0,0.1c0,0.2-0.1,0.4-0.2,0.7H18.5z M16.3,82v-0.6h-1.5V82H16.3z M16.3,83.1v-0.6h-1.5v0.6H16.3z M14.8,83.5
			v0.6h1.5v-0.6H14.8z"/>
		<path d="M26.7,80.8h1.6v0.5h-1.6v1.5h-5.2v-1.5h-1.6v-0.5h1.6v-0.9l0.8,0c0,0.1-0.1,0.1-0.2,0.1v0.8h1.7v-1l0.8,0
			c0,0.1-0.1,0.1-0.2,0.1v0.8h1.7v-0.9l0.8,0c0,0.1-0.1,0.1-0.2,0.1V80.8z M20.1,85.3v-1.8H28v1.8h-0.6V84h-6.7v1.3H20.1z M27,85v2
			c0,0.6-0.2,0.7-1.7,0.7c0-0.2-0.1-0.4-0.2-0.5c0.3,0,0.6,0,0.8,0c0.4,0,0.5,0,0.5-0.1v-1.5h-2.1v2.8h-0.6v-2.8h-1.9v2.1h-0.6V85
			h2.5v-0.9l0.8,0c0,0.1-0.1,0.1-0.2,0.1V85H27z M22,81.4v1h1.7v-1H22z M26.1,82.3v-1h-1.7v1H26.1z"/>
		<path d="M32.9,84v-2.2h-3v1.3h-0.6v-1.8h3.6v-0.6h-3.1v-0.5h6.8v0.5h-3.1v0.6h3.7v1.8h-0.6v-1.3h-3.1V84H32.9z M33.5,87.4
			c0,0.3,0.1,0.4,0.7,0.4h2.1c0.5,0,0.6-0.2,0.6-1.1c0.1,0.1,0.4,0.2,0.5,0.2c-0.1,1.1-0.3,1.4-1.2,1.4h-2.2c-1,0-1.3-0.2-1.3-0.9
			v-0.3h-2.2v0.5h-0.6v-3.2h6.3v2.8h-2.9V87.4z M30.2,83.7v-0.4h2.2v0.4H30.2z M30.4,82.4h2v0.4h-2V82.4z M32.9,84.8h-2.2v0.7h2.2
			V84.8z M30.7,86.6h2.2v-0.7h-2.2V86.6z M35.8,85.5v-0.7h-2.3v0.7H35.8z M33.5,86.6h2.3v-0.7h-2.3V86.6z M34.1,82.4h2v0.4h-2V82.4z
			 M34.1,83.7v-0.4h2.3v0.4H34.1z"/>
		<path d="M38.2,81.9v-0.5h3.5v0.5H38.2z M41.4,85.2v2.7h-2.2v0.4h-0.5v-3.1H41.4z M41.3,82.7v0.5h-2.7v-0.5H41.3z M38.6,84.5V84
			h2.7v0.5H38.6z M41.3,80.2v0.5h-2.7v-0.5H41.3z M40.8,85.8h-1.7v1.7h1.7V85.8z M46.8,83.2h-2.3v1.6h1.8v3.5h-0.6v-0.4h-2.9v0.5
			h-0.6v-3.6h1.7v-1.6h-2.3v-0.6h2.3V81c-0.6,0.1-1.3,0.2-1.9,0.2c0-0.1-0.1-0.4-0.2-0.5c1.4-0.2,3.1-0.5,4-0.8l0.5,0.5
			c0,0-0.1,0-0.1,0c0,0-0.1,0-0.1,0c-0.4,0.1-1,0.3-1.7,0.4v1.7h2.3V83.2z M45.7,87.3v-2h-2.9v2H45.7z"/>
		<path d="M50.3,84.1c0,0.5-0.4,0.9-0.9,0.9c-0.5,0-0.9-0.4-0.9-0.9c0-0.5,0.4-0.9,0.9-0.9C49.9,83.2,50.3,83.6,50.3,84.1z"/>
		<path d="M52.5,80.7c0.4-0.1,0.9-0.1,1.6-0.1c2.3,0,2.4,1.5,2.4,2c0,1.6-1.3,2.2-2.6,2.2c-0.3,0-0.5,0-0.7-0.1v2.9h-0.8V80.7z
			 M53.2,84.1c0.2,0.1,0.4,0.1,0.7,0.1c1.1,0,1.8-0.6,1.8-1.6s-0.7-1.4-1.7-1.4c-0.4,0-0.7,0-0.8,0.1V84.1z"/>
		<path d="M62.6,87.6h-0.8v-3.3h-3.3v3.3h-0.8v-7h0.8v3h3.3v-3h0.8V87.6z"/>
		<path d="M67.3,81.5c-0.2-0.1-0.6-0.3-1.2-0.3c-1,0-1.3,0.6-1.3,1.1c0,0.7,0.4,1,1.4,1.4c1.1,0.5,1.7,1.1,1.7,2.1
			c0,1.1-0.8,2-2.3,2c-0.6,0-1.3-0.2-1.7-0.4l0.2-0.6c0.4,0.2,0.9,0.4,1.5,0.4c0.9,0,1.5-0.5,1.5-1.3c0-0.7-0.4-1.1-1.3-1.5
			c-1.1-0.4-1.8-1-1.8-2c0-1.1,0.9-1.8,2.1-1.8c0.7,0,1.2,0.2,1.4,0.3L67.3,81.5z"/>
		<path d="M72.1,80.3c0,0.1-0.1,0.2-0.3,0.2c-0.1,0.5-0.3,1.4-0.4,2c0.4,0,0.8-0.1,1-0.1c1.4,0,1.9,0.9,1.9,2.3
			c0,0.7-0.1,1.5-0.3,2.1c-0.3,0.9-0.9,1.4-1.6,1.4c-0.4,0-0.9-0.2-1.7-0.8c0.1-0.2,0.2-0.4,0.2-0.6c0.7,0.6,1.1,0.7,1.4,0.7
			c0.5,0,0.8-0.3,1-0.9c0.2-0.6,0.3-1.4,0.3-1.9c0-1-0.3-1.7-1.3-1.7c-0.3,0-0.7,0-1.1,0.1c-0.5,1.9-1,3.5-1.9,5l-0.6-0.3
			c0.9-1.4,1.4-2.9,1.8-4.6c-0.5,0.1-1.1,0.1-1.6,0.2l-0.1-0.6c0.5-0.1,1.2-0.1,1.8-0.2c0.1-0.7,0.3-1.5,0.4-2.3L72.1,80.3z
			 M76.4,84.7c-0.3-1.3-1.2-2.5-2.1-3.1l0.5-0.4c1,0.7,1.9,2,2.2,3.3L76.4,84.7z"/>
		<path d="M79.6,81.8c0,0.1-0.1,0.1-0.2,0.2c-0.1,1.4-0.2,2.5-0.4,2.7h0c0.9-0.7,2.3-1.1,3.4-1.1c1.4,0,2.3,0.7,2.3,2
			c0,1.7-1.4,2.4-5,2.6c0-0.2-0.1-0.4-0.2-0.6c3.2-0.1,4.5-0.7,4.5-2c0-0.9-0.6-1.4-1.7-1.4c-1.7,0-3.2,1-3.5,1.5l-0.6-0.3
			c0.2-0.2,0.5-1.8,0.5-3.6L79.6,81.8z M79.8,80c1.3,0.1,2.7,0.4,3.6,0.8l-0.2,0.6c-0.9-0.4-2.3-0.7-3.5-0.8L79.8,80z"/>
		<path d="M90.9,84.9c-0.6,0.1-1.4,0.1-2.2,0.1c0,0.3-0.1,0.7-0.1,0.9c0,1.5,1,1.6,1.8,1.6c1.4,0,2.2-0.4,2.2-1.3
			c0-0.5-0.3-1.1-0.8-1.7c0.2-0.1,0.4-0.2,0.6-0.2c0.6,0.7,0.8,1.4,0.8,2c0,1.5-1.7,1.8-2.8,1.8C89.6,88,88,88,88,85.8
			c0-0.4,0-0.7,0.1-0.9c-0.8,0-2-0.1-2-1c0-0.4,0.2-0.8,0.8-1.2l0.5,0.3c-0.4,0.2-0.6,0.6-0.6,0.8c0,0.5,0.7,0.5,1.4,0.5
			c0.1-0.6,0.1-1.3,0.2-2.1c-0.7-0.1-1.4-0.3-1.9-0.5l0.2-0.6c0.5,0.2,1.2,0.4,1.8,0.5c0.1-0.6,0.1-1.2,0.2-1.7l1,0.1
			c0,0.1-0.1,0.2-0.3,0.2c-0.1,0.4-0.1,0.9-0.2,1.4c0.3,0,0.6,0,0.8,0c0.3,0,0.7,0,1,0l0,0.6c-0.3,0-0.6,0-0.9,0c-0.4,0-0.7,0-1,0
			c-0.1,0.7-0.2,1.4-0.2,2c0.7,0,1.5,0,2.1-0.1L90.9,84.9z"/>
		<path d="M101,87.5c-0.8,0.1-1.9,0.2-2.8,0.2c-0.8,0-1.4,0-1.8-0.1c-1.1-0.2-1.6-0.9-1.6-1.8c0-0.7,0.4-1.4,0.9-2l0.5,0.3
			c-0.5,0.5-0.8,1.1-0.8,1.6c0,0.5,0.4,1,1.2,1.2c0.3,0.1,0.8,0.1,1.5,0.1c0.9,0,2-0.1,2.9-0.2L101,87.5z M96.8,82.8
			c0.5-0.4,1.1-0.8,1.6-1.1v0c-0.7,0.1-2.3,0.1-3.3,0.1c0-0.2,0-0.5,0-0.6h0.5c1.2,0,3.6,0,4.7-0.3l0.1,0.7c-0.3,0-0.5,0.1-1,0.3
			c-0.5,0.2-1.4,0.7-2.1,1.3L96.8,82.8z M101,84.1c-0.3-0.4-0.8-1-1.2-1.3l0.3-0.3c0.4,0.3,1,0.9,1.3,1.2L101,84.1z M101.9,83.2
			c-0.3-0.4-0.8-0.9-1.2-1.2l0.3-0.3c0.5,0.3,1,0.9,1.3,1.3L101.9,83.2z"/>
		<path d="M107.2,80.3c0,0-0.1,0.1-0.2,0c-0.4,0.2-0.9,0.4-1.5,0.5v1.8h1.8v0.6h-1.8v0.7c0.4,0.3,1.5,1.2,1.8,1.5l-0.4,0.5
			c-0.3-0.3-0.9-0.9-1.4-1.4v3.8h-0.6v-4.2c-0.5,1.1-1.1,2.2-1.7,2.9c-0.1-0.2-0.2-0.4-0.3-0.6c0.7-0.7,1.5-2,2-3.2H103v-0.6h2V81
			c-0.6,0.1-1.2,0.3-1.8,0.4c0-0.1-0.1-0.3-0.2-0.5c1.3-0.2,2.9-0.6,3.7-1.1L107.2,80.3z M108.1,81l0.8,0c0,0.1-0.1,0.1-0.2,0.1v5
			h-0.6V81z M110.4,80l0.8,0c0,0.1-0.1,0.1-0.2,0.1v7.4c0,0.4-0.1,0.6-0.4,0.7c-0.3,0.1-0.8,0.1-1.7,0.1c0-0.2-0.1-0.5-0.2-0.6
			c0.3,0,0.7,0,0.9,0c0.7,0,0.8,0,0.8-0.2V80z"/>
		<path d="M119.9,80.5v7c0,0.8-0.4,0.9-2.1,0.8c0-0.2-0.1-0.4-0.2-0.6c0.3,0,0.7,0,0.9,0c0.8,0,0.8,0,0.8-0.3v-2h-2.7v2.8h-0.6v-2.8
			h-2.4c-0.1,1-0.5,2.1-1.2,2.9c-0.1-0.1-0.3-0.3-0.5-0.4c1-1.2,1.1-2.8,1.1-4.1v-3.4H119.9z M113.8,83.9c0,0.3,0,0.7,0,1h2.4v-1.6
			h-2.3V83.9z M116.1,81.1h-2.3v1.6h2.3V81.1z M119.3,82.7v-1.6h-2.7v1.6H119.3z M116.7,84.9h2.7v-1.6h-2.7V84.9z"/>
		<path d="M122.9,81.1c0,0.1-0.1,0.1-0.2,0.1c-0.1,0.7-0.2,1.5-0.2,2.3c0,0.3,0,0.7,0,1c0.1,1.6,0.7,2.5,1.5,2.5
			c0.4,0,0.8-0.9,1.2-2c0.1,0.1,0.4,0.3,0.5,0.4c-0.4,1.2-1,2.3-1.7,2.3c-1.2,0-2-1.4-2.1-3.2c0-0.3,0-0.7,0-1.2
			c0-0.8,0-1.7,0.1-2.5L122.9,81.1z M129,85.4c-0.3-1.6-1.1-2.8-2.3-3.5l0.4-0.5c1.3,0.7,2.3,2,2.6,3.7L129,85.4z"/>
		<path d="M136.2,81.8c-0.8,0.3-1.8,0.5-2.8,0.5c-0.4,2.1-0.9,4.2-1.7,5.8l-0.7-0.2c0.8-1.5,1.3-3.4,1.7-5.5c-0.2,0-1.4,0-1.7,0
			l0-0.6c0.1,0,0.3,0,0.6,0c0.1,0,1,0,1.2,0c0.1-0.6,0.2-1.2,0.2-1.8l0.9,0.1c0,0.1-0.1,0.2-0.3,0.2c-0.1,0.4-0.1,0.9-0.2,1.5
			c0.9-0.1,1.8-0.2,2.6-0.5L136.2,81.8z M138.6,88c-0.3,0-0.6,0-0.8,0c-0.9,0-1.7-0.1-2.2-0.2c-0.7-0.2-1-0.7-1-1.3
			c0-0.4,0.2-0.9,0.6-1.3l0.6,0.2c-0.3,0.4-0.5,0.7-0.5,1c0,0.7,0.7,0.9,2.4,0.9c0.3,0,0.7,0,1,0V88z M135,83.5
			c0.9-0.3,2.3-0.5,3.3-0.5v0.6c-1,0-2.2,0.1-3.2,0.4L135,83.5z"/>
		<path d="M145.4,81.8c-0.8,0.3-1.8,0.5-2.8,0.5c-0.4,2.1-0.9,4.2-1.7,5.8l-0.7-0.2c0.8-1.5,1.3-3.4,1.7-5.5c-0.2,0-1.4,0-1.7,0
			l0-0.6c0.1,0,0.3,0,0.6,0c0.1,0,1,0,1.2,0c0.1-0.6,0.2-1.2,0.2-1.8l0.9,0.1c0,0.1-0.1,0.2-0.3,0.2c-0.1,0.4-0.1,0.9-0.2,1.5
			c0.9-0.1,1.8-0.2,2.6-0.5L145.4,81.8z M147.8,87.9c-0.4,0-0.7,0-1.1,0c-0.7,0-1.5-0.1-1.9-0.2c-0.7-0.2-1-0.7-1-1.3
			c0-0.4,0.2-0.9,0.6-1.3l0.6,0.2c-0.3,0.4-0.5,0.7-0.5,1c0,0.7,0.7,0.9,2.2,0.9c0.4,0,0.8,0,1.2-0.1L147.8,87.9z M144.2,83.5
			c0.9-0.3,2.3-0.5,3.3-0.5v0.6c-1,0-2.2,0.1-3.2,0.4L144.2,83.5z M145.9,80.3c0.5,0.3,1,0.9,1.3,1.3l-0.3,0.3
			c-0.3-0.4-0.8-1-1.2-1.3L145.9,80.3z M147,79.7c0.5,0.3,1,0.8,1.3,1.2l-0.3,0.3c-0.3-0.4-0.8-0.9-1.2-1.3L147,79.7z"/>
		<path d="M150.8,80.6c0,0.1-0.1,0.1-0.2,0.2c-0.3,1.2-0.5,2.8-0.5,3.8c0,0.6,0,1.2,0.1,1.5c0.2-0.4,0.7-1.3,0.9-1.8l0.4,0.4
			c-0.7,1.2-1.1,2-1.1,2.3c0,0.1,0,0.2,0.1,0.4l-0.6,0.1c-0.2-0.7-0.4-1.7-0.4-3c0-1.2,0.2-2.8,0.5-4.1L150.8,80.6z M152.2,82.7
			c0.7,0,1.8,0,2.5-0.1c-0.1-1.1-0.1-2.3-0.1-2.5l0.9,0c0,0.1-0.1,0.2-0.2,0.2c0,0.5,0.1,1.4,0.1,2.2c0.6-0.1,1.3-0.1,1.8-0.3
			l0.1,0.7c-0.5,0.1-1.2,0.2-1.8,0.2c0,0.1,0,0.2,0,0.7c0,2-0.4,3.4-2.2,4.3c-0.1-0.1-0.3-0.4-0.5-0.5c1.7-0.8,2.1-2,2.1-3.8l0-0.8
			c-0.6,0-1.7,0.1-2.5,0.1L152.2,82.7z"/>
		<path d="M158.3,81.3c0.6,0,1.3,0,2,0c0.4,0,0.9,0,1.3,0c0-0.4,0-1,0-1.3l0.9,0c0,0.1-0.1,0.2-0.2,0.2c0,0.1,0,0.9,0,1
			c1.1-0.1,2.1-0.1,3.1-0.4l0.1,0.6c-0.9,0.2-2,0.3-3.1,0.4c0,0.6,0,1.1,0,1.7c0.9-0.1,1.8-0.2,2.6-0.4l0.1,0.6
			c-0.8,0.2-1.7,0.3-2.7,0.3l0.1,1.5c0.8,0.3,1.7,0.8,2.7,1.4l-0.4,0.6c-0.8-0.7-1.6-1.1-2.3-1.4c0,0.1,0,0.3,0,0.4
			c0,0.9-0.5,1.4-1.6,1.4c-1.2,0-2-0.5-2-1.3c0-0.9,1-1.4,2-1.4c0.3,0,0.6,0,1,0.1c0-0.4,0-0.9,0-1.4c-0.3,0-0.6,0-0.9,0
			c-1.6,0-2-0.2-2-0.8c0-0.4,0.3-0.6,0.9-1l0.4,0.3c-0.4,0.2-0.6,0.4-0.6,0.6c0,0.3,0.4,0.3,1.6,0.3c0.2,0,0.4,0,0.6,0l-0.1-1.7
			c-0.4,0-0.9,0-1.3,0c-0.6,0-1.4,0-2,0V81.3z M161.7,86.1c-0.4-0.1-0.7-0.1-1-0.1c-0.7,0-1.4,0.3-1.4,0.8c0,0.5,0.6,0.8,1.4,0.8
			c0.7,0,1-0.3,1-1L161.7,86.1z"/>
		<path d="M170.9,81.4c0-0.2,0-1.2-0.1-1.4l0.9,0c0,0.1-0.1,0.2-0.2,0.2c0,0.1,0,0.2,0,1.2c1.1,0,2.3-0.1,3-0.1v0.6
			c-0.8,0-1.9,0-3,0c0,0.7,0,1.4,0.1,1.9c0.1,0.3,0.1,0.6,0.1,1c0,0.3,0,0.6-0.1,0.9c-0.2,1.1-1,2-2.7,2.7c-0.1-0.2-0.3-0.4-0.5-0.5
			c1.4-0.5,2.2-1.3,2.4-2.1h0c-0.2,0.3-0.5,0.5-0.9,0.5c-0.8,0-1.5-0.7-1.5-1.6c0-1,0.8-1.7,1.7-1.7c0.3,0,0.7,0.1,0.9,0.3
			c0-0.2,0-0.8,0-1.2c-1,0-3.9,0.1-4.2,0.1l0-0.6l2.1-0.1L170.9,81.4z M171.1,84.6c0-0.4,0-1.2-0.9-1.2c-0.6,0-1.1,0.5-1.1,1.2
			c0,0.6,0.5,1.1,1,1.1C170.8,85.6,171.1,85.1,171.1,84.6z"/>
		<path d="M177.2,87.1c0,0.7-0.6,1.3-1.3,1.3c-0.7,0-1.3-0.6-1.3-1.3s0.6-1.3,1.3-1.3C176.6,85.8,177.2,86.4,177.2,87.1z
			 M176.8,87.1c0-0.5-0.4-1-1-1c-0.5,0-0.9,0.4-0.9,1c0,0.5,0.4,0.9,0.9,0.9C176.4,88,176.8,87.6,176.8,87.1z"/>
	</g>
	<g>
		<path d="M8.1,71.3l0.5,0.3c0,0-0.1,0.1-0.1,0.1c-0.5,1-1.2,1.7-2.1,2.3c1,0.5,2.2,0.8,3.5,1c-0.1,0.1-0.3,0.4-0.4,0.6
			c-1.4-0.2-2.7-0.6-3.8-1.2c-1.1,0.6-2.3,0.9-3.7,1.2c-0.1-0.2-0.2-0.4-0.4-0.6c1.2-0.2,2.4-0.5,3.4-1c-0.8-0.5-1.4-1.1-1.9-1.9
			l0.5-0.2H2.8v-0.6H8L8.1,71.3z M2.3,70.2v1.4H1.7v-1.9h1.5c-0.1-0.3-0.4-0.8-0.6-1.2l0.6-0.2c0.3,0.4,0.6,0.9,0.7,1.3l-0.3,0.1
			h3.9C7.6,69.1,8,68.5,8.2,68L9,68.3c0,0.1-0.1,0.1-0.2,0.1c-0.2,0.4-0.5,0.9-0.8,1.3h1.7v1.9H9v-1.4H2.3z M9.1,67.5
			c0,0-0.1,0-0.1,0c0,0-0.1,0-0.1,0c-1.7,0.3-4.6,0.6-7,0.7c0-0.2-0.1-0.4-0.1-0.5c2.4-0.1,5.3-0.4,6.9-0.7L9.1,67.5z M3.8,71.8
			c0.5,0.7,1.1,1.3,1.9,1.8c0.8-0.5,1.4-1,1.9-1.8H3.8z M5.5,68.1c0.2,0.4,0.5,1,0.5,1.4l-0.6,0.2c-0.1-0.4-0.3-1-0.5-1.4L5.5,68.1z
			"/>
		<path d="M11.9,70.2c-0.4,0.6-0.8,1.1-1.2,1.6c-0.1-0.1-0.2-0.4-0.3-0.6c0.9-1,1.8-2.6,2.4-4.2l0.8,0.2c0,0.1-0.1,0.1-0.2,0.1
			c-0.2,0.7-0.5,1.3-0.9,1.9l0.3,0.1c0,0.1-0.1,0.1-0.2,0.1v6h-0.6V70.2z M19.1,69v0.6h-1.3v5c0,0.5-0.1,0.7-0.5,0.8
			c-0.3,0.1-0.9,0.1-1.9,0.1c0-0.2-0.1-0.5-0.2-0.6c0.4,0,0.8,0,1.1,0c0.9,0,0.9,0,0.9-0.3v-5h-3.9V69h3.9v-2l0.8,0
			c0,0.1-0.1,0.1-0.2,0.1V69H19.1z M14.4,70.6c0.6,0.7,1.2,1.7,1.4,2.3l-0.6,0.3c-0.2-0.6-0.8-1.6-1.4-2.3L14.4,70.6z"/>
		<path d="M22.7,67.5v6.1h-2v0.7h-0.6v-6.8H22.7z M22.2,68.1h-1.4v2.2h1.4V68.1z M20.7,73.1h1.4v-2.2h-1.4V73.1z M25.9,69.9h2.4v0.6
			h-5.4v-0.6h2.4v-1.3h-2v-0.6h2v-1.1l0.8,0c0,0.1-0.1,0.1-0.2,0.1v1H28v0.6h-2.1V69.9z M27.4,70.7c0,0.1-0.1,0.1-0.2,0.1v0.8h1.1
			v0.6h-1.1v2.6c0,0.4-0.1,0.6-0.4,0.6c-0.3,0.1-0.7,0.1-1.5,0.1c0-0.2-0.1-0.4-0.2-0.6c0.3,0,0.7,0,0.9,0c0.5,0,0.6,0,0.6-0.2v-2.6
			h-3.7v-0.6h3.7v-1L27.4,70.7z M24.7,74.5c-0.2-0.5-0.7-1.2-1.2-1.7l0.5-0.3c0.5,0.5,1,1.2,1.2,1.6L24.7,74.5z"/>
		<path d="M32.8,70.5h-2.7v5h-0.6v-8.2h3.3V70.5z M32.2,67.8h-2.2v0.8h2.2V67.8z M30.1,70h2.2v-0.9h-2.2V70z M35,74.6h-2.9v0.5h-0.6
			v-3.9H35V74.6z M34.4,71.7h-2.3v0.9h2.3V71.7z M32.1,74.1h2.3v-1h-2.3V74.1z M37.1,67.3v7.3c0,0.8-0.4,0.9-2,0.9
			c0-0.2-0.1-0.5-0.2-0.6c0.3,0,0.6,0,0.8,0c0.7,0,0.7,0,0.7-0.2v-4.1h-2.8v-3.2H37.1z M36.5,67.8h-2.2v0.8h2.2V67.8z M34.3,70h2.2
			v-0.9h-2.2V70z"/>
		<path d="M40.8,69c0,0.3-0.3,0.6-0.6,0.6c-0.3,0-0.6-0.3-0.6-0.6c0-0.4,0.3-0.6,0.6-0.6C40.5,68.3,40.8,68.6,40.8,69z M40.8,73.4
			c0,0.4-0.3,0.6-0.6,0.6c-0.3,0-0.6-0.3-0.6-0.6c0-0.3,0.3-0.6,0.6-0.6C40.5,72.8,40.8,73.1,40.8,73.4z"/>
		<path d="M51.2,71.5v0.6h-3.9v3.3h-0.6v-3.3h-3.8v-0.6h3.8v-3.3h-3.3v-0.6h7.3v0.6h-3.4v3.3H51.2z M44.9,71
			c-0.1-0.6-0.5-1.5-0.9-2.2l0.6-0.2c0.4,0.7,0.8,1.6,0.9,2.2L44.9,71z M50.3,68.9c0,0.1-0.1,0.1-0.2,0.1c-0.3,0.6-0.7,1.6-1.1,2.1
			l-0.5-0.2c0.4-0.6,0.8-1.6,1.1-2.3L50.3,68.9z"/>
		<path d="M53,67.5h6v7.7h-0.6v-0.6h-4.7v0.6H53V67.5z M58.3,68.1h-4.7v2.6h4.7V68.1z M53.6,74.1h4.7v-2.7h-4.7V74.1z"/>
		<path d="M62.5,74.7v-6.2h0l-1.1,0.7l-0.2-0.6l1.4-0.8h0.7v6.9H62.5z"/>
		<path d="M67.6,74.7v-6.2h0l-1.1,0.7l-0.2-0.6l1.4-0.8h0.7v6.9H67.6z"/>
		<path d="M73.2,69c0,0.3-0.3,0.6-0.6,0.6S72,69.3,72,69c0-0.4,0.3-0.6,0.6-0.6C73,68.3,73.2,68.6,73.2,69z M73.2,73.4
			c0,0.4-0.3,0.6-0.6,0.6S72,73.8,72,73.4c0-0.3,0.3-0.6,0.6-0.6C73,72.8,73.2,73.1,73.2,73.4z"/>
		<path d="M75.3,71.3c0-2.4,0.9-3.6,2.2-3.6c1.3,0,2.1,1.2,2.1,3.5c0,2.4-0.8,3.6-2.2,3.6C76.1,74.8,75.3,73.6,75.3,71.3z
			 M78.8,71.2c0-1.7-0.4-2.9-1.4-2.9c-0.8,0-1.4,1.1-1.4,2.9s0.5,3,1.4,3C78.4,74.2,78.8,72.8,78.8,71.2z"/>
		<path d="M80.3,71.3c0-2.4,0.9-3.6,2.2-3.6c1.3,0,2.1,1.2,2.1,3.5c0,2.4-0.8,3.6-2.2,3.6C81.2,74.8,80.3,73.6,80.3,71.3z
			 M83.9,71.2c0-1.7-0.4-2.9-1.4-2.9c-0.8,0-1.4,1.1-1.4,2.9s0.5,3,1.4,3C83.5,74.2,83.9,72.8,83.9,71.2z"/>
		<path d="M93.8,70.8c-0.6,1-1.4,1.6-2.4,1.6c-0.8,0-1.4-0.3-2.1-1c-0.5-0.5-0.9-0.8-1.6-0.8c-0.7,0-1.4,0.5-1.8,1.2l-0.6-0.3
			c0.6-1,1.4-1.6,2.4-1.6c0.8,0,1.4,0.3,2.1,1c0.5,0.5,0.9,0.8,1.6,0.8c0.7,0,1.4-0.5,1.8-1.2L93.8,70.8z"/>
		<path d="M96.6,74.7v-6.2h0l-1.1,0.7l-0.2-0.6l1.4-0.8h0.7v6.9H96.6z"/>
		<path d="M100.5,71c0.3-0.5,0.9-0.8,1.6-0.8c1.2,0,2,0.9,2,2.2c0,1.3-0.8,2.4-2.1,2.4s-2.2-1.1-2.2-2.9c0-1.8,0.9-3.8,3.1-4.1
			c0.3,0,0.5-0.1,0.6-0.1l0,0.6C101.5,68.3,100.6,69.7,100.5,71L100.5,71z M103.3,72.4c0-1.1-0.6-1.7-1.4-1.7
			c-0.8,0-1.4,0.8-1.4,1.3c0,1.3,0.5,2.1,1.5,2.1C102.7,74.2,103.3,73.5,103.3,72.4z"/>
		<path d="M107.3,69c0,0.3-0.3,0.6-0.6,0.6s-0.6-0.3-0.6-0.6c0-0.4,0.3-0.6,0.6-0.6C107.1,68.3,107.3,68.6,107.3,69z M107.3,73.4
			c0,0.4-0.3,0.6-0.6,0.6s-0.6-0.3-0.6-0.6c0-0.3,0.3-0.6,0.6-0.6C107.1,72.8,107.3,73.1,107.3,73.4z"/>
		<path d="M109.4,71.3c0-2.4,0.9-3.6,2.2-3.6c1.3,0,2.1,1.2,2.1,3.5c0,2.4-0.8,3.6-2.2,3.6C110.2,74.8,109.4,73.6,109.4,71.3z
			 M112.9,71.2c0-1.7-0.4-2.9-1.4-2.9c-0.8,0-1.4,1.1-1.4,2.9s0.5,3,1.4,3C112.5,74.2,112.9,72.8,112.9,71.2z"/>
		<path d="M114.4,71.3c0-2.4,0.9-3.6,2.2-3.6c1.3,0,2.1,1.2,2.1,3.5c0,2.4-0.8,3.6-2.2,3.6C115.3,74.8,114.4,73.6,114.4,71.3z
			 M118,71.2c0-1.7-0.4-2.9-1.4-2.9c-0.8,0-1.4,1.1-1.4,2.9s0.5,3,1.4,3C117.6,74.2,118,72.8,118,71.2z"/>
		<path d="M122.8,70.2c-0.3,0.6-0.7,1.1-1.1,1.5c-0.1-0.1-0.2-0.4-0.3-0.6c0.9-1,1.8-2.5,2.3-4.1l0.7,0.2c0,0.1-0.1,0.1-0.2,0.1
			c-0.2,0.6-0.5,1.3-0.8,1.9l0.2,0.1c0,0.1-0.1,0.1-0.2,0.1v6.1h-0.6V70.2z M130.1,69.9h-2.4c0.6,1.5,1.6,3.1,2.6,3.8
			c-0.1,0.1-0.4,0.3-0.5,0.5c-0.9-0.9-1.9-2.4-2.5-3.9v5.1h-0.6v-5c-0.6,1.5-1.6,3-2.5,3.8c-0.1-0.1-0.3-0.4-0.5-0.5
			c1-0.8,2-2.3,2.6-3.9H124v-0.6h2.7V67l0.8,0.1c0,0.1-0.1,0.1-0.2,0.1v2.1h2.8V69.9z"/>
		<path d="M131.8,67.5h6v7.7h-0.6v-0.6h-4.7v0.6h-0.6V67.5z M137.1,68.1h-4.7v2.6h4.7V68.1z M132.4,74.1h4.7v-2.7h-4.7V74.1z"/>
		<path d="M141.3,74.7v-6.2h0l-1.1,0.7l-0.2-0.6l1.4-0.8h0.7v6.9H141.3z"/>
		<path d="M144.4,71.3c0-2.4,0.9-3.6,2.2-3.6c1.3,0,2.1,1.2,2.1,3.5c0,2.4-0.8,3.6-2.2,3.6C145.3,74.8,144.4,73.6,144.4,71.3z
			 M148,71.2c0-1.7-0.4-2.9-1.4-2.9c-0.8,0-1.4,1.1-1.4,2.9s0.5,3,1.4,3C147.6,74.2,148,72.8,148,71.2z"/>
		<path d="M152,69c0,0.3-0.3,0.6-0.6,0.6c-0.3,0-0.6-0.3-0.6-0.6c0-0.4,0.3-0.6,0.6-0.6C151.8,68.3,152,68.6,152,69z M152,73.4
			c0,0.4-0.3,0.6-0.6,0.6c-0.3,0-0.6-0.3-0.6-0.6c0-0.3,0.3-0.6,0.6-0.6C151.8,72.8,152,73.1,152,73.4z"/>
		<path d="M154.1,71.3c0-2.4,0.9-3.6,2.2-3.6c1.3,0,2.1,1.2,2.1,3.5c0,2.4-0.8,3.6-2.2,3.6C154.9,74.8,154.1,73.6,154.1,71.3z
			 M157.6,71.2c0-1.7-0.4-2.9-1.4-2.9c-0.8,0-1.4,1.1-1.4,2.9s0.5,3,1.4,3C157.2,74.2,157.6,72.8,157.6,71.2z"/>
		<path d="M159.1,71.3c0-2.4,0.9-3.6,2.2-3.6c1.3,0,2.1,1.2,2.1,3.5c0,2.4-0.8,3.6-2.2,3.6C160,74.8,159.1,73.6,159.1,71.3z
			 M162.7,71.2c0-1.7-0.4-2.9-1.4-2.9c-0.8,0-1.4,1.1-1.4,2.9s0.5,3,1.4,3C162.3,74.2,162.7,72.8,162.7,71.2z"/>
		<path d="M172.7,70.8c-0.6,1-1.4,1.6-2.4,1.6c-0.8,0-1.4-0.3-2.1-1c-0.5-0.5-0.9-0.8-1.6-0.8c-0.7,0-1.4,0.5-1.8,1.2l-0.6-0.3
			c0.6-1,1.4-1.6,2.4-1.6c0.8,0,1.4,0.3,2.1,1c0.5,0.5,0.9,0.8,1.6,0.8c0.7,0,1.4-0.5,1.8-1.2L172.7,70.8z"/>
		<path d="M175.4,74.7v-6.2h0l-1.1,0.7l-0.2-0.6l1.4-0.8h0.7v6.9H175.4z"/>
		<path d="M179.3,71c0.3-0.5,0.9-0.8,1.6-0.8c1.2,0,2,0.9,2,2.2c0,1.3-0.8,2.4-2.1,2.4s-2.2-1.1-2.2-2.9c0-1.8,0.9-3.8,3.1-4.1
			c0.3,0,0.5-0.1,0.6-0.1l0,0.6C180.3,68.3,179.4,69.7,179.3,71L179.3,71z M182.1,72.4c0-1.1-0.6-1.7-1.4-1.7
			c-0.8,0-1.4,0.8-1.4,1.3c0,1.3,0.5,2.1,1.5,2.1C181.5,74.2,182.1,73.5,182.1,72.4z"/>
		<path d="M186.1,69c0,0.3-0.3,0.6-0.6,0.6c-0.3,0-0.6-0.3-0.6-0.6c0-0.4,0.3-0.6,0.6-0.6C185.9,68.3,186.1,68.6,186.1,69z
			 M186.1,73.4c0,0.4-0.3,0.6-0.6,0.6c-0.3,0-0.6-0.3-0.6-0.6c0-0.3,0.3-0.6,0.6-0.6C185.9,72.8,186.1,73.1,186.1,73.4z"/>
		<path d="M188.2,71.3c0-2.4,0.9-3.6,2.2-3.6c1.3,0,2.1,1.2,2.1,3.5c0,2.4-0.8,3.6-2.2,3.6C189,74.8,188.2,73.6,188.2,71.3z
			 M191.7,71.2c0-1.7-0.4-2.9-1.4-2.9c-0.8,0-1.4,1.1-1.4,2.9s0.5,3,1.4,3C191.3,74.2,191.7,72.8,191.7,71.2z"/>
		<path d="M193.2,71.3c0-2.4,0.9-3.6,2.2-3.6c1.3,0,2.1,1.2,2.1,3.5c0,2.4-0.8,3.6-2.2,3.6C194.1,74.8,193.2,73.6,193.2,71.3z
			 M196.8,71.2c0-1.7-0.4-2.9-1.4-2.9c-0.8,0-1.4,1.1-1.4,2.9s0.5,3,1.4,3C196.4,74.2,196.8,72.8,196.8,71.2z"/>
		<path d="M202.8,75.9h-1.8v-8.3h1.8v0.5h-1.2v7.3h1.2V75.9z"/>
		<path d="M207.2,67l0.9,0.1c0,0.1-0.1,0.1-0.2,0.2v2.8c0,1,0.6,3.7,3.9,4.8c-0.1,0.1-0.3,0.4-0.4,0.6c-2.8-1.1-3.7-3.3-3.8-4.2h0
			c-0.2,0.9-1,3-3.7,4.2c-0.1-0.1-0.3-0.4-0.4-0.5c3.2-1.2,3.8-3.8,3.8-4.9V67z M203.6,71.5c0.8-0.6,1.1-1.6,1.2-2.6l0.6,0.1
			c-0.2,1.1-0.5,2.2-1.3,2.9L203.6,71.5z M211.4,69.1c0,0.1-0.1,0.1-0.2,0.1c-0.4,0.7-1,1.8-1.5,2.5c0,0-0.5-0.3-0.5-0.3
			c0.5-0.7,1.1-1.8,1.4-2.6L211.4,69.1z"/>
		<path d="M215.4,71.2c0,0.5-0.4,0.9-0.9,0.9c-0.5,0-0.9-0.4-0.9-0.9c0-0.5,0.4-0.9,0.9-0.9C215,70.2,215.4,70.7,215.4,71.2z"/>
		<path d="M220.1,69.4l0.4,0.2c0,0-0.1,0.1-0.1,0.1c-0.5,2.3-1.6,4-3,5c-0.1-0.2-0.4-0.4-0.5-0.5c1.2-0.8,2.3-2.2,2.7-4.1h-2.5v-0.6
			h2.8L220.1,69.4z M221.7,68.6c0.2,0.8,0.5,1.5,0.8,2.2c0.8-0.7,1.7-1.6,2.3-2.4l0.7,0.5c0,0.1-0.1,0.1-0.2,0.1
			c-0.6,0.7-1.7,1.7-2.5,2.3c0.7,1.3,1.7,2.3,3,2.9c-0.2,0.1-0.4,0.4-0.5,0.6c-1.7-0.8-2.8-2.4-3.6-4.4v4.3c0,0.8-0.4,0.9-2.1,0.9
			c0-0.2-0.2-0.5-0.3-0.7c0.4,0,0.7,0,0.9,0c0.8,0,0.8,0,0.8-0.2v-7.6l0.8,0c0,0.1-0.1,0.1-0.2,0.1V68.6z"/>
		<path d="M234.8,74.6v0.5h-4.4v0.4h-0.6v-3.3c-0.2,0.3-0.4,0.5-0.6,0.7c-0.1-0.1-0.2-0.2-0.3-0.3v1.1h-1.8v0.8h-0.6v-6.9h2.4v4.9
			c0.6-0.6,1.2-1.5,1.5-2.3h-1.1v-0.5h1.8v-0.8h-1.6v-0.5h1.6v-0.7h-1.8v-0.5h2.3v2.8H231l0.3,0.1c0,0.1-0.1,0.1-0.2,0.1
			c-0.1,0.2-0.2,0.5-0.4,0.7h1.3c0.1-0.3,0.3-0.6,0.4-0.9h-0.2v-0.5h1.8v-0.8h-1.7v-0.5h1.7v-0.7h-1.8v-0.5h2.4v2.8h-1.9l0.5,0.1
			c0,0.1-0.1,0.1-0.2,0.1c-0.1,0.2-0.2,0.4-0.3,0.7h2v0.5h-2.1v0.7h1.8v0.5h-1.8v0.7h1.8v0.5h-1.8v0.8H234.8z M228.4,68.1h-1.3v2.2
			h1.3V68.1z M227.2,73.1h1.3v-2.3h-1.3V73.1z M232,72.2v-0.7h-1.5v0.7H232z M232,73.4v-0.7h-1.5v0.7H232z M230.5,73.9v0.8h1.5v-0.8
			H230.5z"/>
		<path d="M240.1,72.6v2c0.5,0.1,1,0.1,1.6,0.1c0.3,0,1.9,0,2.4,0c-0.1,0.2-0.2,0.4-0.2,0.6h-2.2c-2,0-3.4-0.3-4.3-2
			c-0.3,0.9-0.8,1.7-1.4,2.2c-0.1-0.1-0.3-0.3-0.5-0.4c1-0.7,1.5-2.2,1.8-3.9l0.8,0.1c0,0.1-0.1,0.1-0.2,0.1
			c-0.1,0.4-0.1,0.7-0.2,1.1c0.4,1,1,1.6,1.8,1.9v-4h-2.3v-0.6h5.4v0.6h-2.4V72h2.8v0.6H240.1z M236.5,68.6V70h-0.6v-2h3.5v-1.1
			l0.8,0.1c0,0.1-0.1,0.1-0.2,0.1V68h3.6v2H243v-1.4H236.5z"/>
		<path d="M245.9,70.2c-0.3,0.6-0.7,1.1-1.1,1.5c-0.1-0.1-0.2-0.4-0.3-0.6c0.9-1,1.8-2.5,2.3-4.1l0.7,0.2c0,0.1-0.1,0.1-0.2,0.1
			c-0.2,0.6-0.5,1.3-0.8,1.9l0.2,0.1c0,0.1-0.1,0.1-0.2,0.1v6.1h-0.6V70.2z M253.2,69.9h-2.4c0.6,1.5,1.6,3.1,2.6,3.8
			c-0.1,0.1-0.4,0.3-0.5,0.5c-0.9-0.9-1.9-2.4-2.5-3.9v5.1h-0.6v-5c-0.6,1.5-1.6,3-2.5,3.8c-0.1-0.1-0.3-0.4-0.5-0.5
			c1-0.8,2-2.3,2.6-3.9h-2.3v-0.6h2.7V67l0.8,0.1c0,0.1-0.1,0.1-0.2,0.1v2.1h2.8V69.9z"/>
		<path d="M258,67c-1,0.8-1.8,2.4-1.8,4.2c0,1.9,0.8,3.4,1.8,4.2v0h-0.6c-0.9-0.8-1.8-2.4-1.8-4.3c0-1.9,0.8-3.4,1.8-4.3L258,67
			L258,67z"/>
		<path d="M262.1,68.9c0,0-0.1,0.1-0.1,0.1c-0.3,0.8-0.7,1.5-1.3,2.2c0.4,0.3,1.2,0.9,1.5,1.1l-0.4,0.5c-0.2-0.2-0.8-0.7-1.2-1.1
			v3.8H260V72c-0.4,0.4-0.8,0.8-1.2,1.1c-0.1-0.2-0.2-0.4-0.3-0.6c1.1-0.7,2.2-2,2.8-3.3h-2.6v-0.6h1.4v-1.8l0.8,0
			c0,0.1-0.1,0.1-0.2,0.1v1.6h1l0.1,0L262.1,68.9z M264,71.6c0,0.1-0.1,0.1-0.2,0.1c-0.1,1.5-0.5,2.9-2,3.7
			c-0.1-0.1-0.3-0.4-0.4-0.5c1.4-0.7,1.7-2,1.8-3.5L264,71.6z M265.5,74.6c0,0.3,0,0.3,0.3,0.3h0.7c0.2,0,0.3-0.2,0.3-1.4
			c0.1,0.1,0.4,0.2,0.5,0.2c0,1.3-0.2,1.6-0.8,1.6h-0.8c-0.6,0-0.8-0.2-0.8-0.8v-3.5h-2.5v-3.6h4.4v3.6h-1.1c0,0.1-0.1,0.1-0.2,0.1
			V74.6z M262.9,68.1v2.4h3.1v-2.4H262.9z"/>
		<path d="M268.7,67.5h6v7.7H274v-0.6h-4.7v0.6h-0.6V67.5z M274,68.1h-4.7v2.6h4.7V68.1z M269.3,74.1h4.7v-2.7h-4.7V74.1z"/>
		<path d="M277.1,75c-0.3-0.7-0.4-2-0.4-3.2c0-1.2,0.2-2.8,0.5-4.3l0.9,0.2c0,0.1-0.1,0.2-0.2,0.2c-0.3,1.3-0.5,2.9-0.5,4
			c0,0.7,0,1.4,0.1,1.7c0.2-0.6,0.6-1.4,0.8-1.9l0.4,0.4c-0.3,0.6-0.9,2-0.9,2.5c0,0.1,0,0.3,0.1,0.4L277.1,75z M279.4,69.5
			c0.8,0,1.5,0,2.3,0c0-0.8-0.1-1.5-0.1-2.2l0.9,0c0,0.1-0.1,0.2-0.2,0.2c0,0.6,0,1.2,0,1.9c0.7-0.1,1.3-0.2,1.8-0.4l0.1,0.6
			c-0.4,0.1-1.1,0.3-1.9,0.3c0,1,0.1,2.1,0.1,2.7c0.7,0.3,1.4,0.7,1.9,1.2l-0.4,0.6c-0.4-0.4-0.9-0.8-1.5-1c0,0.8-0.2,1.7-1.5,1.7
			c-1.1,0-1.8-0.5-1.8-1.3c0-0.9,0.9-1.4,1.8-1.4c0.3,0,0.6,0,0.9,0.1c0-0.6-0.1-1.5-0.1-2.4c-0.3,0-0.7,0-0.9,0h-1.4L279.4,69.5z
			 M281.9,73.2c-0.3-0.1-0.6-0.2-0.9-0.2c-0.6,0-1.2,0.2-1.2,0.8c0,0.5,0.6,0.8,1.2,0.8c0.7,0,0.9-0.3,0.9-1.1L281.9,73.2z"/>
		<path d="M288,67.3l0.4,0.2c0,0,0,0.1-0.1,0.1c-0.2,0.7-0.6,1.6-0.9,2.4c0.7,0.8,1,1.4,1,2c0,1.3-0.8,1.3-1.5,1.3
			c0-0.2-0.1-0.4-0.2-0.5c0.1,0,0.3,0,0.4,0c0.4,0,0.7,0,0.7-0.8c0-0.5-0.3-1.1-1-1.9c0.3-0.7,0.6-1.6,0.8-2.2h-1.3v7.6h-0.6v-8.2
			h2.2L288,67.3z M291.5,67c0,0.1-0.1,0.1-0.1,0.1c0.6,0.9,1.7,2,2.7,2.5c-0.1,0.1-0.3,0.4-0.3,0.5c-1-0.6-2.1-1.7-2.7-2.6
			c-0.5,0.9-1.6,2-2.6,2.7c-0.1-0.1-0.2-0.4-0.3-0.5c1.1-0.7,2.2-1.8,2.7-2.8L291.5,67z M290,72.7c0,0.1-0.1,0.1-0.2,0.1
			c-0.3,0.8-0.8,1.6-1.3,2.1c-0.1-0.1-0.3-0.3-0.4-0.4c0.5-0.5,1-1.3,1.3-2L290,72.7z M293.6,72h-2.3v2.8c0,0.7-0.3,0.7-1.5,0.7
			c0-0.2-0.1-0.4-0.2-0.6c0.5,0,0.9,0,1,0c0.1,0,0.2,0,0.2-0.2V72h-2.1v-0.5h2.1v-1.2h-1.4v-0.5h3.5v0.5h-1.5v1.2h2.3V72z
			 M293.3,74.8c-0.2-0.5-0.8-1.4-1.3-2.1l0.5-0.2c0.5,0.7,1.1,1.5,1.3,2.1L293.3,74.8z"/>
		<path d="M299.6,75.4c-0.9-1.1-2.4-2.4-3.6-3.4c-0.5-0.4-0.6-0.6-0.6-1c0-0.3,0.1-0.5,0.5-0.8c0.8-0.8,2.4-2.3,3.3-3.2l0.8,0.5
			c0,0-0.1,0.1-0.2,0.1c0,0-0.1,0-0.1,0c-0.9,0.9-2.4,2.1-3.1,2.8c-0.2,0.2-0.4,0.4-0.4,0.5c0,0.2,0.2,0.3,0.5,0.6
			c1.2,0.9,2.5,2.1,3.6,3.3L299.6,75.4z"/>
		<path d="M301.2,75.4c1-0.8,1.8-2.4,1.8-4.2c0-1.9-0.8-3.4-1.8-4.2v0h0.6c0.9,0.8,1.8,2.4,1.8,4.3c0,1.9-0.8,3.4-1.8,4.3
			L301.2,75.4L301.2,75.4z"/>
		<path d="M305.8,67.5h1.8v8.3h-1.8v-0.5h1.2v-7.3h-1.2V67.5z"/>
		<path d="M2.6,80.8l3,3l3-3l0.3,0.3l-3,3l3,3l-0.3,0.3l-3-3l-3,3l-0.3-0.3l3-3l-3-3L2.6,80.8z M3,84.8c-0.4,0-0.7-0.3-0.7-0.7
			c0-0.4,0.3-0.7,0.7-0.7s0.7,0.3,0.7,0.7C3.7,84.5,3.4,84.8,3,84.8z M5,81.5c0-0.4,0.3-0.7,0.7-0.7c0.4,0,0.7,0.3,0.7,0.7
			c0,0.4-0.3,0.7-0.7,0.7C5.2,82.2,5,81.8,5,81.5z M6.3,86.7c0,0.4-0.3,0.7-0.7,0.7c-0.4,0-0.7-0.3-0.7-0.7C5,86.3,5.3,86,5.6,86
			C6,86,6.3,86.4,6.3,86.7z M8.3,83.4c0.4,0,0.7,0.3,0.7,0.7c0,0.4-0.3,0.7-0.7,0.7c-0.4,0-0.7-0.3-0.7-0.7
			C7.6,83.7,7.9,83.4,8.3,83.4z"/>
		<path d="M13.6,84.5l-1,0.3v2.8c0,0.7-0.4,0.8-1.6,0.8c0-0.2-0.1-0.4-0.2-0.6c0.2,0,0.4,0,0.6,0c0.6,0,0.6,0,0.6-0.2V85
			c-0.4,0.1-0.8,0.2-1,0.3c0,0.1-0.1,0.1-0.1,0.1l-0.2-0.7c0.4-0.1,0.9-0.2,1.4-0.4v-2.1h-1.3v-0.6h1.3v-1.9l0.8,0
			c0,0.1-0.1,0.1-0.2,0.1v1.7h0.9v0.6h-0.9v1.9l1-0.3L13.6,84.5z M16.8,84.1h2.3v0.5h-4.9v-2.4c-0.2,0.3-0.5,0.6-0.7,0.9
			c-0.1-0.1-0.3-0.3-0.4-0.4c0.7-0.6,1.3-1.7,1.6-2.8l0.7,0.2c0,0.1-0.1,0.1-0.2,0.1c-0.1,0.3-0.2,0.5-0.3,0.8h1.3
			c0.2-0.3,0.4-0.8,0.5-1.1l0.7,0.2c0,0.1-0.1,0.1-0.2,0.1c-0.1,0.2-0.3,0.5-0.4,0.8h2.1v0.5h-2.1V82h1.7v0.4h-1.7v0.6h1.7v0.4h-1.7
			V84.1z M18.5,86.1l0.1,0l0.3,0.1l0,0.2c-0.1,1.2-0.3,1.7-0.5,1.9c-0.2,0.2-0.4,0.2-0.8,0.2c-0.2,0-0.5,0-0.7,0
			c0-0.2-0.1-0.4-0.2-0.5c0.4,0,0.8,0,1,0c0.1,0,0.2,0,0.3-0.1c0.1-0.1,0.2-0.5,0.3-1.3h-1.2L17,87l-0.6-0.1
			c0.1-0.4,0.2-0.9,0.3-1.3h-1.3c-0.2,1.3-0.8,2.2-1.9,2.7c-0.1-0.1-0.3-0.3-0.4-0.4c0.9-0.4,1.5-1.2,1.7-2.3h-1.3v-0.5H17l0.1,0
			l0.3,0.1c0,0,0,0.1,0,0.1c0,0.2-0.1,0.4-0.2,0.7H18.5z M16.3,82v-0.6h-1.5V82H16.3z M16.3,83.1v-0.6h-1.5v0.6H16.3z M14.8,83.5
			v0.6h1.5v-0.6H14.8z"/>
		<path d="M26.7,80.8h1.6v0.5h-1.6v1.5h-5.2v-1.5h-1.6v-0.5h1.6v-0.9l0.8,0c0,0.1-0.1,0.1-0.2,0.1v0.8h1.7v-1l0.8,0
			c0,0.1-0.1,0.1-0.2,0.1v0.8h1.7v-0.9l0.8,0c0,0.1-0.1,0.1-0.2,0.1V80.8z M20.1,85.3v-1.8H28v1.8h-0.6V84h-6.7v1.3H20.1z M27,85v2
			c0,0.6-0.2,0.7-1.7,0.7c0-0.2-0.1-0.4-0.2-0.5c0.3,0,0.6,0,0.8,0c0.4,0,0.5,0,0.5-0.1v-1.5h-2.1v2.8h-0.6v-2.8h-1.9v2.1h-0.6V85
			h2.5v-0.9l0.8,0c0,0.1-0.1,0.1-0.2,0.1V85H27z M22,81.4v1h1.7v-1H22z M26.1,82.3v-1h-1.7v1H26.1z"/>
		<path d="M32.9,84v-2.2h-3v1.3h-0.6v-1.8h3.6v-0.6h-3.1v-0.5h6.8v0.5h-3.1v0.6h3.7v1.8h-0.6v-1.3h-3.1V84H32.9z M33.5,87.4
			c0,0.3,0.1,0.4,0.7,0.4h2.1c0.5,0,0.6-0.2,0.6-1.1c0.1,0.1,0.4,0.2,0.5,0.2c-0.1,1.1-0.3,1.4-1.2,1.4h-2.2c-1,0-1.3-0.2-1.3-0.9
			v-0.3h-2.2v0.5h-0.6v-3.2h6.3v2.8h-2.9V87.4z M30.2,83.7v-0.4h2.2v0.4H30.2z M30.4,82.4h2v0.4h-2V82.4z M32.9,84.8h-2.2v0.7h2.2
			V84.8z M30.7,86.6h2.2v-0.7h-2.2V86.6z M35.8,85.5v-0.7h-2.3v0.7H35.8z M33.5,86.6h2.3v-0.7h-2.3V86.6z M34.1,82.4h2v0.4h-2V82.4z
			 M34.1,83.7v-0.4h2.3v0.4H34.1z"/>
		<path d="M38.2,81.9v-0.5h3.5v0.5H38.2z M41.4,85.2v2.7h-2.2v0.4h-0.5v-3.1H41.4z M41.3,82.7v0.5h-2.7v-0.5H41.3z M38.6,84.5V84
			h2.7v0.5H38.6z M41.3,80.2v0.5h-2.7v-0.5H41.3z M40.8,85.8h-1.7v1.7h1.7V85.8z M46.8,83.2h-2.3v1.6h1.8v3.5h-0.6v-0.4h-2.9v0.5
			h-0.6v-3.6h1.7v-1.6h-2.3v-0.6h2.3V81c-0.6,0.1-1.3,0.2-1.9,0.2c0-0.1-0.1-0.4-0.2-0.5c1.4-0.2,3.1-0.5,4-0.8l0.5,0.5
			c0,0-0.1,0-0.1,0c0,0-0.1,0-0.1,0c-0.4,0.1-1,0.3-1.7,0.4v1.7h2.3V83.2z M45.7,87.3v-2h-2.9v2H45.7z"/>
		<path d="M50.3,84.1c0,0.5-0.4,0.9-0.9,0.9c-0.5,0-0.9-0.4-0.9-0.9c0-0.5,0.4-0.9,0.9-0.9C49.9,83.2,50.3,83.6,50.3,84.1z"/>
		<path d="M52.5,80.7c0.4-0.1,0.9-0.1,1.6-0.1c2.3,0,2.4,1.5,2.4,2c0,1.6-1.3,2.2-2.6,2.2c-0.3,0-0.5,0-0.7-0.1v2.9h-0.8V80.7z
			 M53.2,84.1c0.2,0.1,0.4,0.1,0.7,0.1c1.1,0,1.8-0.6,1.8-1.6s-0.7-1.4-1.7-1.4c-0.4,0-0.7,0-0.8,0.1V84.1z"/>
		<path d="M62.6,87.6h-0.8v-3.3h-3.3v3.3h-0.8v-7h0.8v3h3.3v-3h0.8V87.6z"/>
		<path d="M67.3,81.5c-0.2-0.1-0.6-0.3-1.2-0.3c-1,0-1.3,0.6-1.3,1.1c0,0.7,0.4,1,1.4,1.4c1.1,0.5,1.7,1.1,1.7,2.1
			c0,1.1-0.8,2-2.3,2c-0.6,0-1.3-0.2-1.7-0.4l0.2-0.6c0.4,0.2,0.9,0.4,1.5,0.4c0.9,0,1.5-0.5,1.5-1.3c0-0.7-0.4-1.1-1.3-1.5
			c-1.1-0.4-1.8-1-1.8-2c0-1.1,0.9-1.8,2.1-1.8c0.7,0,1.2,0.2,1.4,0.3L67.3,81.5z"/>
		<path d="M72.1,80.3c0,0.1-0.1,0.2-0.3,0.2c-0.1,0.5-0.3,1.4-0.4,2c0.4,0,0.8-0.1,1-0.1c1.4,0,1.9,0.9,1.9,2.3
			c0,0.7-0.1,1.5-0.3,2.1c-0.3,0.9-0.9,1.4-1.6,1.4c-0.4,0-0.9-0.2-1.7-0.8c0.1-0.2,0.2-0.4,0.2-0.6c0.7,0.6,1.1,0.7,1.4,0.7
			c0.5,0,0.8-0.3,1-0.9c0.2-0.6,0.3-1.4,0.3-1.9c0-1-0.3-1.7-1.3-1.7c-0.3,0-0.7,0-1.1,0.1c-0.5,1.9-1,3.5-1.9,5l-0.6-0.3
			c0.9-1.4,1.4-2.9,1.8-4.6c-0.5,0.1-1.1,0.1-1.6,0.2l-0.1-0.6c0.5-0.1,1.2-0.1,1.8-0.2c0.1-0.7,0.3-1.5,0.4-2.3L72.1,80.3z
			 M76.4,84.7c-0.3-1.3-1.2-2.5-2.1-3.1l0.5-0.4c1,0.7,1.9,2,2.2,3.3L76.4,84.7z"/>
		<path d="M79.6,81.8c0,0.1-0.1,0.1-0.2,0.2c-0.1,1.4-0.2,2.5-0.4,2.7h0c0.9-0.7,2.3-1.1,3.4-1.1c1.4,0,2.3,0.7,2.3,2
			c0,1.7-1.4,2.4-5,2.6c0-0.2-0.1-0.4-0.2-0.6c3.2-0.1,4.5-0.7,4.5-2c0-0.9-0.6-1.4-1.7-1.4c-1.7,0-3.2,1-3.5,1.5l-0.6-0.3
			c0.2-0.2,0.5-1.8,0.5-3.6L79.6,81.8z M79.8,80c1.3,0.1,2.7,0.4,3.6,0.8l-0.2,0.6c-0.9-0.4-2.3-0.7-3.5-0.8L79.8,80z"/>
		<path d="M90.9,84.9c-0.6,0.1-1.4,0.1-2.2,0.1c0,0.3-0.1,0.7-0.1,0.9c0,1.5,1,1.6,1.8,1.6c1.4,0,2.2-0.4,2.2-1.3
			c0-0.5-0.3-1.1-0.8-1.7c0.2-0.1,0.4-0.2,0.6-0.2c0.6,0.7,0.8,1.4,0.8,2c0,1.5-1.7,1.8-2.8,1.8C89.6,88,88,88,88,85.8
			c0-0.4,0-0.7,0.1-0.9c-0.8,0-2-0.1-2-1c0-0.4,0.2-0.8,0.8-1.2l0.5,0.3c-0.4,0.2-0.6,0.6-0.6,0.8c0,0.5,0.7,0.5,1.4,0.5
			c0.1-0.6,0.1-1.3,0.2-2.1c-0.7-0.1-1.4-0.3-1.9-0.5l0.2-0.6c0.5,0.2,1.2,0.4,1.8,0.5c0.1-0.6,0.1-1.2,0.2-1.7l1,0.1
			c0,0.1-0.1,0.2-0.3,0.2c-0.1,0.4-0.1,0.9-0.2,1.4c0.3,0,0.6,0,0.8,0c0.3,0,0.7,0,1,0l0,0.6c-0.3,0-0.6,0-0.9,0c-0.4,0-0.7,0-1,0
			c-0.1,0.7-0.2,1.4-0.2,2c0.7,0,1.5,0,2.1-0.1L90.9,84.9z"/>
		<path d="M101,87.5c-0.8,0.1-1.9,0.2-2.8,0.2c-0.8,0-1.4,0-1.8-0.1c-1.1-0.2-1.6-0.9-1.6-1.8c0-0.7,0.4-1.4,0.9-2l0.5,0.3
			c-0.5,0.5-0.8,1.1-0.8,1.6c0,0.5,0.4,1,1.2,1.2c0.3,0.1,0.8,0.1,1.5,0.1c0.9,0,2-0.1,2.9-0.2L101,87.5z M96.8,82.8
			c0.5-0.4,1.1-0.8,1.6-1.1v0c-0.7,0.1-2.3,0.1-3.3,0.1c0-0.2,0-0.5,0-0.6h0.5c1.2,0,3.6,0,4.7-0.3l0.1,0.7c-0.3,0-0.5,0.1-1,0.3
			c-0.5,0.2-1.4,0.7-2.1,1.3L96.8,82.8z M101,84.1c-0.3-0.4-0.8-1-1.2-1.3l0.3-0.3c0.4,0.3,1,0.9,1.3,1.2L101,84.1z M101.9,83.2
			c-0.3-0.4-0.8-0.9-1.2-1.2l0.3-0.3c0.5,0.3,1,0.9,1.3,1.3L101.9,83.2z"/>
		<path d="M107.2,80.3c0,0-0.1,0.1-0.2,0c-0.4,0.2-0.9,0.4-1.5,0.5v1.8h1.8v0.6h-1.8v0.7c0.4,0.3,1.5,1.2,1.8,1.5l-0.4,0.5
			c-0.3-0.3-0.9-0.9-1.4-1.4v3.8h-0.6v-4.2c-0.5,1.1-1.1,2.2-1.7,2.9c-0.1-0.2-0.2-0.4-0.3-0.6c0.7-0.7,1.5-2,2-3.2H103v-0.6h2V81
			c-0.6,0.1-1.2,0.3-1.8,0.4c0-0.1-0.1-0.3-0.2-0.5c1.3-0.2,2.9-0.6,3.7-1.1L107.2,80.3z M108.1,81l0.8,0c0,0.1-0.1,0.1-0.2,0.1v5
			h-0.6V81z M110.4,80l0.8,0c0,0.1-0.1,0.1-0.2,0.1v7.4c0,0.4-0.1,0.6-0.4,0.7c-0.3,0.1-0.8,0.1-1.7,0.1c0-0.2-0.1-0.5-0.2-0.6
			c0.3,0,0.7,0,0.9,0c0.7,0,0.8,0,0.8-0.2V80z"/>
		<path d="M119.9,80.5v7c0,0.8-0.4,0.9-2.1,0.8c0-0.2-0.1-0.4-0.2-0.6c0.3,0,0.7,0,0.9,0c0.8,0,0.8,0,0.8-0.3v-2h-2.7v2.8h-0.6v-2.8
			h-2.4c-0.1,1-0.5,2.1-1.2,2.9c-0.1-0.1-0.3-0.3-0.5-0.4c1-1.2,1.1-2.8,1.1-4.1v-3.4H119.9z M113.8,83.9c0,0.3,0,0.7,0,1h2.4v-1.6
			h-2.3V83.9z M116.1,81.1h-2.3v1.6h2.3V81.1z M119.3,82.7v-1.6h-2.7v1.6H119.3z M116.7,84.9h2.7v-1.6h-2.7V84.9z"/>
		<path d="M122.9,81.1c0,0.1-0.1,0.1-0.2,0.1c-0.1,0.7-0.2,1.5-0.2,2.3c0,0.3,0,0.7,0,1c0.1,1.6,0.7,2.5,1.5,2.5
			c0.4,0,0.8-0.9,1.2-2c0.1,0.1,0.4,0.3,0.5,0.4c-0.4,1.2-1,2.3-1.7,2.3c-1.2,0-2-1.4-2.1-3.2c0-0.3,0-0.7,0-1.2
			c0-0.8,0-1.7,0.1-2.5L122.9,81.1z M129,85.4c-0.3-1.6-1.1-2.8-2.3-3.5l0.4-0.5c1.3,0.7,2.3,2,2.6,3.7L129,85.4z"/>
		<path d="M136.2,81.8c-0.8,0.3-1.8,0.5-2.8,0.5c-0.4,2.1-0.9,4.2-1.7,5.8l-0.7-0.2c0.8-1.5,1.3-3.4,1.7-5.5c-0.2,0-1.4,0-1.7,0
			l0-0.6c0.1,0,0.3,0,0.6,0c0.1,0,1,0,1.2,0c0.1-0.6,0.2-1.2,0.2-1.8l0.9,0.1c0,0.1-0.1,0.2-0.3,0.2c-0.1,0.4-0.1,0.9-0.2,1.5
			c0.9-0.1,1.8-0.2,2.6-0.5L136.2,81.8z M138.6,88c-0.3,0-0.6,0-0.8,0c-0.9,0-1.7-0.1-2.2-0.2c-0.7-0.2-1-0.7-1-1.3
			c0-0.4,0.2-0.9,0.6-1.3l0.6,0.2c-0.3,0.4-0.5,0.7-0.5,1c0,0.7,0.7,0.9,2.4,0.9c0.3,0,0.7,0,1,0V88z M135,83.5
			c0.9-0.3,2.3-0.5,3.3-0.5v0.6c-1,0-2.2,0.1-3.2,0.4L135,83.5z"/>
		<path d="M145.4,81.8c-0.8,0.3-1.8,0.5-2.8,0.5c-0.4,2.1-0.9,4.2-1.7,5.8l-0.7-0.2c0.8-1.5,1.3-3.4,1.7-5.5c-0.2,0-1.4,0-1.7,0
			l0-0.6c0.1,0,0.3,0,0.6,0c0.1,0,1,0,1.2,0c0.1-0.6,0.2-1.2,0.2-1.8l0.9,0.1c0,0.1-0.1,0.2-0.3,0.2c-0.1,0.4-0.1,0.9-0.2,1.5
			c0.9-0.1,1.8-0.2,2.6-0.5L145.4,81.8z M147.8,87.9c-0.4,0-0.7,0-1.1,0c-0.7,0-1.5-0.1-1.9-0.2c-0.7-0.2-1-0.7-1-1.3
			c0-0.4,0.2-0.9,0.6-1.3l0.6,0.2c-0.3,0.4-0.5,0.7-0.5,1c0,0.7,0.7,0.9,2.2,0.9c0.4,0,0.8,0,1.2-0.1L147.8,87.9z M144.2,83.5
			c0.9-0.3,2.3-0.5,3.3-0.5v0.6c-1,0-2.2,0.1-3.2,0.4L144.2,83.5z M145.9,80.3c0.5,0.3,1,0.9,1.3,1.3l-0.3,0.3
			c-0.3-0.4-0.8-1-1.2-1.3L145.9,80.3z M147,79.7c0.5,0.3,1,0.8,1.3,1.2l-0.3,0.3c-0.3-0.4-0.8-0.9-1.2-1.3L147,79.7z"/>
		<path d="M150.8,80.6c0,0.1-0.1,0.1-0.2,0.2c-0.3,1.2-0.5,2.8-0.5,3.8c0,0.6,0,1.2,0.1,1.5c0.2-0.4,0.7-1.3,0.9-1.8l0.4,0.4
			c-0.7,1.2-1.1,2-1.1,2.3c0,0.1,0,0.2,0.1,0.4l-0.6,0.1c-0.2-0.7-0.4-1.7-0.4-3c0-1.2,0.2-2.8,0.5-4.1L150.8,80.6z M152.2,82.7
			c0.7,0,1.8,0,2.5-0.1c-0.1-1.1-0.1-2.3-0.1-2.5l0.9,0c0,0.1-0.1,0.2-0.2,0.2c0,0.5,0.1,1.4,0.1,2.2c0.6-0.1,1.3-0.1,1.8-0.3
			l0.1,0.7c-0.5,0.1-1.2,0.2-1.8,0.2c0,0.1,0,0.2,0,0.7c0,2-0.4,3.4-2.2,4.3c-0.1-0.1-0.3-0.4-0.5-0.5c1.7-0.8,2.1-2,2.1-3.8l0-0.8
			c-0.6,0-1.7,0.1-2.5,0.1L152.2,82.7z"/>
		<path d="M158.3,81.3c0.6,0,1.3,0,2,0c0.4,0,0.9,0,1.3,0c0-0.4,0-1,0-1.3l0.9,0c0,0.1-0.1,0.2-0.2,0.2c0,0.1,0,0.9,0,1
			c1.1-0.1,2.1-0.1,3.1-0.4l0.1,0.6c-0.9,0.2-2,0.3-3.1,0.4c0,0.6,0,1.1,0,1.7c0.9-0.1,1.8-0.2,2.6-0.4l0.1,0.6
			c-0.8,0.2-1.7,0.3-2.7,0.3l0.1,1.5c0.8,0.3,1.7,0.8,2.7,1.4l-0.4,0.6c-0.8-0.7-1.6-1.1-2.3-1.4c0,0.1,0,0.3,0,0.4
			c0,0.9-0.5,1.4-1.6,1.4c-1.2,0-2-0.5-2-1.3c0-0.9,1-1.4,2-1.4c0.3,0,0.6,0,1,0.1c0-0.4,0-0.9,0-1.4c-0.3,0-0.6,0-0.9,0
			c-1.6,0-2-0.2-2-0.8c0-0.4,0.3-0.6,0.9-1l0.4,0.3c-0.4,0.2-0.6,0.4-0.6,0.6c0,0.3,0.4,0.3,1.6,0.3c0.2,0,0.4,0,0.6,0l-0.1-1.7
			c-0.4,0-0.9,0-1.3,0c-0.6,0-1.4,0-2,0V81.3z M161.7,86.1c-0.4-0.1-0.7-0.1-1-0.1c-0.7,0-1.4,0.3-1.4,0.8c0,0.5,0.6,0.8,1.4,0.8
			c0.7,0,1-0.3,1-1L161.7,86.1z"/>
		<path d="M170.9,81.4c0-0.2,0-1.2-0.1-1.4l0.9,0c0,0.1-0.1,0.2-0.2,0.2c0,0.1,0,0.2,0,1.2c1.1,0,2.3-0.1,3-0.1v0.6
			c-0.8,0-1.9,0-3,0c0,0.7,0,1.4,0.1,1.9c0.1,0.3,0.1,0.6,0.1,1c0,0.3,0,0.6-0.1,0.9c-0.2,1.1-1,2-2.7,2.7c-0.1-0.2-0.3-0.4-0.5-0.5
			c1.4-0.5,2.2-1.3,2.4-2.1h0c-0.2,0.3-0.5,0.5-0.9,0.5c-0.8,0-1.5-0.7-1.5-1.6c0-1,0.8-1.7,1.7-1.7c0.3,0,0.7,0.1,0.9,0.3
			c0-0.2,0-0.8,0-1.2c-1,0-3.9,0.1-4.2,0.1l0-0.6l2.1-0.1L170.9,81.4z M171.1,84.6c0-0.4,0-1.2-0.9-1.2c-0.6,0-1.1,0.5-1.1,1.2
			c0,0.6,0.5,1.1,1,1.1C170.8,85.6,171.1,85.1,171.1,84.6z"/>
		<path d="M177.2,87.1c0,0.7-0.6,1.3-1.3,1.3c-0.7,0-1.3-0.6-1.3-1.3s0.6-1.3,1.3-1.3C176.6,85.8,177.2,86.4,177.2,87.1z
			 M176.8,87.1c0-0.5-0.4-1-1-1c-0.5,0-0.9,0.4-0.9,1c0,0.5,0.4,0.9,0.9,0.9C176.4,88,176.8,87.6,176.8,87.1z"/>
	</g>
</g>
</svg>
