<?xml version="1.0" encoding="utf-8"?>
<!-- Generator: Adobe Illustrator 24.0.1, SVG Export Plug-In . SVG Version: 6.00 Build 0)  -->
<svg version="1.1" id="レイヤー_1" xmlns="http://www.w3.org/2000/svg" xmlns:xlink="http://www.w3.org/1999/xlink" x="0px"
	 y="0px" viewBox="0 0 345.9 82.9" style="enable-background:new 0 0 345.9 82.9;" xml:space="preserve">
<style type="text/css">
	.st0{fill:#404040;}
</style>
<g>
	<g>
		<g>
			<path d="M59,51.8c0-10.9,4.3-16.2,10.7-16.1c6.4,0,10.6,5.4,10.6,16.2c0,10.8-4.3,16.4-10.6,16.4C63.3,68.2,59,62.6,59,51.8z
				 M74.4,51.8c0-8.8-2-11.3-4.7-11.3c-2.7,0-4.8,2.5-4.8,11.3c0,8.8,2,11.5,4.7,11.5C72.4,63.3,74.4,60.6,74.4,51.8z"/>
			<path d="M86.5,62.6l6.7,0l0-19.9l-5.7,0l0-3.9c3.1-0.6,5.3-1.4,7.3-2.6l4.6,0l0,26.3l5.9,0l0,5l-18.9,0L86.5,62.6z"/>
			<path d="M110.7,64.1c8.5-7.6,13.6-13.5,13.6-18.3c0-3.2-1.7-5.1-4.7-5.1c-2.3,0-4.2,1.5-5.8,3.2l-3.4-3.4c2.9-3.1,5.7-4.7,10-4.7
				c5.9,0,9.9,3.8,9.9,9.7c0,5.7-4.7,11.8-10.5,17.4c1.6-0.2,3.6-0.3,5.1-0.3l6.8,0l0,5.3l-21,0L110.7,64.1z"/>
			<path d="M136.6,51.9c0-10.9,4.3-16.2,10.7-16.1c6.4,0,10.6,5.4,10.6,16.2c0,10.8-4.3,16.4-10.6,16.4
				C140.8,68.3,136.5,62.7,136.6,51.9z M151.9,51.9c0-8.8-2-11.3-4.7-11.3c-2.7,0-4.8,2.5-4.8,11.3c0,8.8,2,11.5,4.7,11.5
				C149.9,63.4,151.9,60.7,151.9,51.9z"/>
			<path d="M162.6,53.4l11.6,0l0,4.5l-11.6,0L162.6,53.4z"/>
			<path d="M180.5,62.7l6.7,0l0-19.9l-5.7,0l0-3.9c3.1-0.6,5.3-1.4,7.3-2.6l4.6,0l0,26.3l5.9,0l0,5l-18.9,0L180.5,62.7z"/>
			<path d="M219.2,41.6l-14.1,0l0-5.2l20.9,0l0,3.8c-7.3,8.9-8.3,15.3-8.8,27.6l-6.3,0C211.3,56.9,213.2,49.9,219.2,41.6z"/>
			<path d="M232.2,62.8l6.7,0l0-19.9l-5.7,0l0-3.9c3.1-0.6,5.3-1.4,7.3-2.6l4.6,0l0,26.3l5.9,0l0,5l-18.9,0L232.2,62.8z"/>
			<path d="M256.7,53.5l11.6,0l0,4.5l-11.6,0L256.7,53.5z"/>
			<path d="M274.6,62.8l6.7,0l0-19.9l-5.7,0l0-3.9c3.1-0.6,5.3-1.4,7.3-2.6l4.6,0l0,26.3l5.9,0l0,5l-18.9,0L274.6,62.8z"/>
			<path d="M299,60.1c0-4,2.5-6.6,5.4-8.2v-0.2c-2.4-1.7-4.2-4.1-4.1-7.5c0-5,4-8.3,9.5-8.3c5.6,0,9.1,3.4,9.1,8.4
				c0,3.1-2,5.7-4,7.2v0.2c2.9,1.6,5.3,4.1,5.2,8.4c0,4.8-4.2,8.4-10.6,8.4C303.4,68.5,298.9,65,299,60.1z M314.2,59.9
				c0-3.3-2.9-4.6-6.9-6.3c-1.7,1.4-2.9,3.5-2.9,5.8c0,2.8,2.3,4.7,5.3,4.7C312.2,64.1,314.2,62.6,314.2,59.9z M313.7,44.7
				c0-2.5-1.5-4.4-4.2-4.4c-2.1,0-3.8,1.4-3.8,3.9c0,3,2.4,4.4,5.7,5.7C313,48.4,313.7,46.6,313.7,44.7z"/>
			<path d="M324.7,52.1c0-10.9,4.3-16.2,10.7-16.1c6.4,0,10.6,5.4,10.6,16.2c0,10.8-4.3,16.4-10.6,16.4
				C328.9,68.5,324.7,62.9,324.7,52.1z M340,52.1c0-8.8-2-11.3-4.7-11.3c-2.7,0-4.8,2.5-4.8,11.3c0,8.8,2,11.5,4.7,11.5
				C338,63.7,340,61,340,52.1z"/>
		</g>
		<g>
			<path d="M49.9,62.6c-1.6,0-2.9,1.3-2.9,2.9c0,1.6,1.3,2.9,2.9,2.9c1.6,0,2.9-1.3,2.9-2.8C52.8,63.8,51.5,62.6,49.9,62.6z
				 M49.9,67.9c-1.4,0-2.5-1.1-2.5-2.5c0-1.4,1.1-2.5,2.5-2.5c1.4,0,2.5,1.1,2.5,2.5C52.4,66.8,51.3,67.9,49.9,67.9z"/>
			<path d="M50.7,65.1c0.2-0.2,0.2-0.4,0.2-0.6c0-0.3-0.1-0.6-0.3-0.7c-0.2-0.2-0.5-0.3-0.8-0.3l-1.1,0l0,3.8l0.4,0l0-1.7l0.5,0
				l1.1,1.7l0.5,0l-1.2-1.8C50.4,65.4,50.6,65.3,50.7,65.1z M49.2,65.2l0-1.3l0.6,0c0.5,0,0.8,0.2,0.8,0.6c0,0.2-0.1,0.3-0.2,0.5
				c-0.1,0.1-0.3,0.2-0.6,0.2L49.2,65.2z"/>
			<path d="M11.5,61.1c2.5,0,5.6-1.9,5.6-5.9c0-3.1-3-5.5-5.6-7c-2.6,1.5-5.6,3.9-5.6,7C5.9,59.2,9,61.1,11.5,61.1z"/>
			<path d="M34.3,61.1c2.5,0,5.6-1.9,5.6-5.9c0-3.1-3-5.5-5.6-7c-2.6,1.5-5.6,3.9-5.6,7C28.7,59.2,31.8,61.1,34.3,61.1z"/>
			<path d="M0,42.7c4.8,0,8.8,1.2,11.5,2.6c2.8-1.4,6.7-2.6,11.3-2.6c4.6,0,8.5,1.2,11.3,2.6c2.8-1.4,6.8-2.6,11.6-2.6l0-4.6L0,38
				L0,42.7z"/>
			<path d="M42.6,55.3c0,4.8-4,8.4-8.4,8.4c-4.4,0-8.3-3.7-8.3-8.4c0-3.6,2.6-6.5,5.4-8.4c-2.6-1.1-5.7-1.7-8.4-1.7
				c-2.7,0-5.8,0.5-8.4,1.6c2.8,1.9,5.4,4.8,5.4,8.4c0,4.8-3.9,8.4-8.3,8.4c-4.4,0-8.5-3.7-8.5-8.4c0-3.6,2.8-6.5,5.6-8.4
				c-2.5-1.1-5.8-1.6-8.7-1.7l0,22.6l45.7,0.1l0-22.6c-2.9,0-6.1,0.5-8.7,1.6C39.8,48.8,42.6,51.7,42.6,55.3z"/>
		</g>
	</g>
	<g>
		<path class="st0" d="M7.4,76.7v1.6H6.8v-1H1.3v1H0.8v-1.6h1.1c-0.2-0.3-0.4-0.6-0.6-0.9l0.5-0.2c0.3,0.3,0.6,0.8,0.7,1l-0.2,0.1
			h1.6c-0.1-0.3-0.4-0.8-0.6-1.1l0.5-0.2c0.2,0.3,0.5,0.8,0.6,1.1L4,76.7h1.5c0.3-0.3,0.6-0.8,0.8-1.2l0.6,0.2
			c-0.2,0.3-0.5,0.7-0.8,1H7.4z M4.2,79.7c-0.1,0.2-0.2,0.4-0.3,0.6h2.8v2.4H6.2v-0.3H2v0.3H1.4v-2.4h2c0.1-0.2,0.1-0.4,0.2-0.6H2
			v-1.8h4.2v1.8H4.2z M6.2,80.8H2v1.1h4.2V80.8z M2.5,79.2h3.1v-0.9H2.5V79.2z"/>
		<path class="st0" d="M12.8,80.9c0.7,0.6,1.8,1,2.9,1.3c-0.1,0.1-0.3,0.4-0.4,0.5c-1.1-0.3-2.2-0.9-3-1.6v1.7h-0.6V81
			c-0.8,0.7-1.9,1.3-3,1.6c-0.1-0.2-0.3-0.4-0.4-0.5c1-0.2,2.1-0.7,2.8-1.3H8.6v-0.5h3.2v-0.6H9.3v-0.5h2.4v-0.6H8.9v-0.5h1.7
			c-0.1-0.2-0.2-0.6-0.4-0.8l0.3-0.1h-2v-0.5h1.3c-0.1-0.3-0.4-0.8-0.6-1.2l0.5-0.2c0.3,0.4,0.6,0.9,0.7,1.2L10,76.9h1v-1.4h0.6v1.4
			h1v-1.4H13v1.4h1l-0.3-0.1c0.2-0.3,0.5-0.9,0.6-1.2l0.6,0.2c-0.2,0.4-0.5,0.8-0.7,1.2h1.2v0.5h-1.6c-0.2,0.3-0.3,0.6-0.5,0.9h1.8
			v0.5h-2.9v0.6h2.5v0.5h-2.5v0.6h3.2v0.5H12.8z M10.9,77.4c0.2,0.2,0.3,0.6,0.4,0.8L11,78.2h1.9l-0.1,0c0.1-0.2,0.3-0.6,0.4-0.8
			H10.9z"/>
		<path class="st0" d="M18.9,81.2h-1.7v0.6h-0.5V76h2.3V81.2z M17.2,76.5v1.8h1.2v-1.8H17.2z M18.4,80.7v-1.8h-1.2v1.8H18.4z
			 M22.7,78.5v0.9h0.9v0.5h-0.9V82c0,0.3-0.1,0.5-0.3,0.6c-0.2,0.1-0.6,0.1-1.3,0.1c0-0.2-0.1-0.4-0.2-0.6c0.5,0,0.9,0,1.1,0
			c0.1,0,0.2,0,0.2-0.2v-2.1h-3v-0.5h3v-0.9h-3.1v-0.5h2v-1h-1.7v-0.5h1.7v-1h0.6v1h1.7v0.5h-1.7v1h2.1v0.5H22.7z M20.1,80.2
			c0.4,0.4,0.9,1,1,1.4l-0.5,0.3c-0.2-0.4-0.6-1-1-1.4L20.1,80.2z"/>
		<path class="st0" d="M25.4,78.5v4.2h-0.6v-7h2.9v2.7H25.4z M25.4,76.3v0.7h1.7v-0.7H25.4z M27.1,78.1v-0.7h-1.7v0.7H27.1z
			 M27.1,82v0.4h-0.5v-3.3h3V82H27.1z M27.1,79.6v0.7h1.9v-0.7H27.1z M28.9,81.5v-0.8h-1.9v0.8H28.9z M31.3,82
			c0,0.4-0.1,0.6-0.4,0.7c-0.3,0.1-0.7,0.1-1.3,0.1c0-0.2-0.1-0.4-0.2-0.6c0.5,0,1,0,1.1,0c0.1,0,0.2,0,0.2-0.2v-3.4h-2.4v-2.7h3V82
			z M28.9,76.3v0.7h1.8v-0.7H28.9z M30.7,78.1v-0.7h-1.8v0.7H30.7z"/>
		<path class="st0" d="M34.5,81.5h1.3v-4.4h-1v-0.5c0.5-0.1,0.9-0.2,1.2-0.4h0.6v5.3h1.2v0.6h-3.2V81.5z"/>
		<path class="st0" d="M38.6,79.2c0-2,0.7-3,1.8-3c1.1,0,1.8,1,1.8,3c0,2-0.7,3.1-1.8,3.1C39.4,82.2,38.6,81.2,38.6,79.2z
			 M41.6,79.2c0-1.7-0.4-2.4-1.1-2.4c-0.7,0-1.1,0.7-1.1,2.4c0,1.7,0.4,2.5,1.1,2.5C41.1,81.7,41.6,80.9,41.6,79.2z"/>
		<path class="st0" d="M44.1,77.2c0-0.4,0.3-0.6,0.6-0.6c0.3,0,0.6,0.2,0.6,0.6s-0.3,0.6-0.6,0.6C44.4,77.8,44.1,77.6,44.1,77.2z
			 M44.1,81.1c0-0.4,0.3-0.6,0.6-0.6c0.3,0,0.6,0.2,0.6,0.6c0,0.4-0.3,0.6-0.6,0.6C44.4,81.7,44.1,81.5,44.1,81.1z"/>
		<path class="st0" d="M47.1,79.2c0-2,0.7-3,1.8-3c1.1,0,1.8,1,1.8,3c0,2-0.7,3.1-1.8,3.1C47.8,82.2,47.1,81.2,47.1,79.2z M50,79.2
			c0-1.7-0.4-2.4-1.1-2.4c-0.7,0-1.1,0.7-1.1,2.4c0,1.7,0.4,2.5,1.1,2.5C49.6,81.7,50,80.9,50,79.2z"/>
		<path class="st0" d="M51.5,79.2c0-2,0.7-3,1.8-3c1.1,0,1.8,1,1.8,3c0,2-0.7,3.1-1.8,3.1C52.2,82.2,51.5,81.2,51.5,79.2z
			 M54.5,79.2c0-1.7-0.4-2.4-1.1-2.4c-0.7,0-1.1,0.7-1.1,2.4c0,1.7,0.4,2.5,1.1,2.5C54,81.7,54.5,80.9,54.5,79.2z"/>
		<path class="st0" d="M62.5,78.9v0.6h-5.8v-0.6H62.5z"/>
		<path class="st0" d="M64.3,81.5h1.3v-4.4h-1v-0.5c0.5-0.1,0.9-0.2,1.2-0.4h0.6v5.3h1.2v0.6h-3.2V81.5z"/>
		<path class="st0" d="M68.9,81.2c0.2,0.3,0.6,0.4,1,0.4c0.8,0,1.4-0.6,1.5-2.4c-0.4,0.4-0.9,0.7-1.4,0.7c-1,0-1.6-0.6-1.6-1.8
			c0-1.1,0.8-1.9,1.7-1.9c1.1,0,2,0.9,2,2.8c0,2.4-1,3.3-2.1,3.3c-0.6,0-1.1-0.3-1.4-0.6L68.9,81.2z M71.3,78.6
			c-0.1-1.2-0.5-1.8-1.3-1.8c-0.6,0-1,0.5-1,1.3c0,0.8,0.4,1.3,1,1.3C70.5,79.4,70.9,79.1,71.3,78.6z"/>
		<path class="st0" d="M73.8,77.2c0-0.4,0.3-0.6,0.6-0.6c0.3,0,0.6,0.2,0.6,0.6s-0.3,0.6-0.6,0.6C74.1,77.8,73.8,77.6,73.8,77.2z
			 M73.8,81.1c0-0.4,0.3-0.6,0.6-0.6c0.3,0,0.6,0.2,0.6,0.6c0,0.4-0.3,0.6-0.6,0.6C74.1,81.7,73.8,81.5,73.8,81.1z"/>
		<path class="st0" d="M76.8,79.2c0-2,0.7-3,1.8-3c1.1,0,1.8,1,1.8,3c0,2-0.7,3.1-1.8,3.1C77.6,82.2,76.8,81.2,76.8,79.2z
			 M79.8,79.2c0-1.7-0.4-2.4-1.1-2.4c-0.7,0-1.1,0.7-1.1,2.4c0,1.7,0.4,2.5,1.1,2.5C79.3,81.7,79.8,80.9,79.8,79.2z"/>
		<path class="st0" d="M81.3,79.2c0-2,0.7-3,1.8-3c1.1,0,1.8,1,1.8,3c0,2-0.7,3.1-1.8,3.1C82,82.2,81.3,81.2,81.3,79.2z M84.2,79.2
			c0-1.7-0.4-2.4-1.1-2.4c-0.7,0-1.1,0.7-1.1,2.4c0,1.7,0.4,2.5,1.1,2.5C83.8,81.7,84.2,80.9,84.2,79.2z"/>
		<path class="st0" d="M87,75.4h2v0.4h-1.5v6.6h1.5v0.4h-2V75.4z"/>
		<path class="st0" d="M93.6,78.1c0,0.9,0.6,3.1,3.3,4.1c-0.1,0.1-0.3,0.4-0.4,0.5c-2.3-0.9-3.1-2.7-3.2-3.5
			c-0.2,0.8-0.9,2.5-3.1,3.5c-0.1-0.1-0.3-0.4-0.4-0.5c2.7-1,3.2-3.2,3.2-4.1v-2.6h0.6V78.1z M91.6,77.2c-0.1,1-0.4,1.9-1.1,2.5
			l-0.5-0.4c0.6-0.5,0.9-1.3,1-2.2L91.6,77.2z M96.6,77.3c-0.4,0.7-0.9,1.6-1.3,2.2l-0.5-0.2c0.4-0.6,0.9-1.5,1.2-2.2L96.6,77.3z"/>
		<path class="st0" d="M99.3,78.3c0.5,0,0.8,0.4,0.8,0.8s-0.4,0.8-0.8,0.8s-0.8-0.4-0.8-0.8S98.9,78.3,99.3,78.3z"/>
		<path class="st0" d="M104.6,77.6c-0.4,2.1-1.4,3.6-2.5,4.4c-0.1-0.1-0.3-0.4-0.5-0.5c1-0.6,1.9-1.8,2.3-3.4h-2.1v-0.6h2.3l0.1,0
			L104.6,77.6z M108.7,77.1c-0.6,0.7-1.5,1.5-2.2,2.1c0.6,1.1,1.4,2,2.5,2.4c-0.1,0.1-0.4,0.4-0.4,0.5c-1.4-0.7-2.3-2-3-3.7v3.4
			c0,0.4-0.1,0.6-0.4,0.7c-0.3,0.1-0.7,0.1-1.5,0.1c0-0.2-0.1-0.5-0.2-0.6c0.6,0,1.1,0,1.2,0c0.2,0,0.2-0.1,0.2-0.2v-6.4h0.6v1.4
			c0.2,0.6,0.4,1.2,0.7,1.8c0.6-0.6,1.4-1.4,1.9-2L108.7,77.1z"/>
		<path class="st0" d="M117,82.5h-3.7v0.2h-0.5v-2.8c-0.2,0.2-0.3,0.4-0.5,0.5c0-0.1-0.1-0.1-0.2-0.2v1h-1.5v0.7H110V76h2v3.9
			c0.5-0.5,0.9-1.1,1.2-1.7h-0.9v-0.4h1.5v-0.6h-1.3v-0.4h1.3v-0.6h-1.5v-0.4h2v2.4h-0.7l0.2,0.1c-0.1,0.2-0.2,0.4-0.3,0.6h1.1
			c0.1-0.2,0.2-0.4,0.2-0.6h-0.2v-0.4h1.5v-0.6h-1.4v-0.4h1.4v-0.6h-1.5v-0.4h2v2.4h-1.5l0.3,0.1c-0.1,0.2-0.2,0.4-0.3,0.6h1.6v0.5
			h-1.7v0.6h1.5v0.4h-1.5v0.6h1.5v0.4h-1.5V82h1.9V82.5z M110.5,76.5v1.8h1v-1.8H110.5z M111.5,80.7v-1.9h-1v1.9H111.5z M114.5,79.3
			h-1.2v0.6h1.2V79.3z M114.5,80.3h-1.2v0.6h1.2V80.3z M113.3,82h1.2v-0.7h-1.2V82z"/>
		<path class="st0" d="M121.6,82c0.4,0.1,0.8,0.1,1.3,0.1c0.3,0,1.7,0,2,0c-0.1,0.1-0.2,0.4-0.2,0.6h-1.9c-1.7,0-2.8-0.3-3.6-1.6
			c-0.3,0.7-0.7,1.3-1.2,1.8c-0.1-0.1-0.3-0.3-0.5-0.4c0.9-0.7,1.3-1.8,1.5-3.3l0.6,0.1c0,0.4-0.1,0.7-0.2,1.1
			c0.3,0.8,0.8,1.3,1.5,1.5v-3.4h-2v-0.6h4.6v0.6h-2v1.3h2.4v0.6h-2.4V82z M118.6,78.1H118v-1.7h3v-0.9h0.6v0.9h3v1.7H124v-1.2h-5.4
			V78.1z"/>
		<path class="st0" d="M128.3,75.7c-0.2,0.6-0.5,1.2-0.9,1.7v5.3h-0.6v-4.5c-0.3,0.4-0.6,0.8-0.9,1.1c-0.1-0.1-0.2-0.5-0.4-0.6
			c0.9-0.8,1.7-2,2.2-3.2L128.3,75.7z M131,78.1c0.5,1.3,1.3,2.5,2.2,3.2c-0.1,0.1-0.4,0.3-0.4,0.5c-0.8-0.7-1.5-1.9-2.1-3.2v4.2
			H130v-4.1c-0.5,1.2-1.3,2.4-2.1,3.1c-0.1-0.1-0.3-0.4-0.4-0.5c0.9-0.7,1.7-2,2.2-3.3h-1.9v-0.6h2.2v-1.9h0.6v1.9h2.3v0.6H131z"/>
		<path class="st0" d="M134.9,79.1c0-1.6,0.6-2.8,1.6-3.8l0.5,0.2c-0.9,1-1.5,2.1-1.5,3.6c0,1.4,0.6,2.6,1.5,3.6l-0.5,0.2
			C135.5,81.9,134.9,80.7,134.9,79.1z"/>
		<path class="st0" d="M140.5,80.4c-0.2-0.2-0.6-0.7-1-1v3.4H139v-3.1c-0.4,0.4-0.8,0.7-1.1,1c-0.1-0.2-0.2-0.4-0.3-0.5
			c0.9-0.6,1.8-1.6,2.4-2.6h-2.1v-0.5h1.2v-1.5h0.6v1.5h0.7l0.1,0l0.3,0.2c-0.2,0.6-0.6,1.2-1,1.7c0.4,0.3,1,0.9,1.2,1.1L140.5,80.4
			z M144.4,82.2c0.2,0,0.2-0.2,0.2-1.2c0.1,0.1,0.4,0.2,0.5,0.2c0,1.1-0.2,1.4-0.7,1.4h-0.7c-0.6,0-0.7-0.2-0.7-0.8v-2.8h-0.8
			c-0.1,1.8-0.4,3-1.7,3.7c-0.1-0.1-0.2-0.4-0.4-0.5c1.3-0.6,1.5-1.6,1.5-3.2h-0.8V76h3.7v3.1h-1v2.8c0,0.2,0,0.3,0.2,0.3H144.4z
			 M141.5,78.5h2.6v-2h-2.6V78.5z"/>
		<path class="st0" d="M152,76v6.6h-0.6v-0.5h-4v0.5h-0.6V76H152z M147.4,76.6v2.2h4v-2.2H147.4z M151.3,81.6v-2.2h-4v2.2H151.3z"/>
		<path class="st0" d="M155.4,76.1c0,0.1-0.1,0.4-0.1,0.5c-0.2,0.7-0.4,2.3-0.4,3.2c0,0.4,0,0.7,0.1,1.1c0.1-0.4,0.3-0.8,0.4-1.2
			l0.3,0.3c-0.2,0.6-0.5,1.4-0.6,1.8c0,0.1,0,0.3,0,0.4c0,0.1,0,0.2,0,0.3l-0.6,0c-0.2-0.6-0.3-1.4-0.3-2.5c0-1.2,0.3-2.7,0.4-3.3
			c0-0.2,0.1-0.4,0.1-0.6L155.4,76.1z M160.5,81.8c-0.4-0.4-0.8-0.7-1.2-0.9v0.1c0,0.7-0.3,1.3-1.4,1.3c-1.1,0-1.6-0.4-1.6-1.1
			c0-0.7,0.6-1.2,1.6-1.2c0.3,0,0.5,0,0.7,0.1c0-0.6-0.1-1.4-0.1-2c-0.3,0-0.5,0-0.8,0c-0.4,0-0.9,0-1.3,0v-0.6
			c0.4,0,0.9,0.1,1.3,0.1c0.2,0,0.5,0,0.7,0v-1c0-0.1,0-0.3,0-0.5h0.7c0,0.2,0,0.3,0,0.5c0,0.2,0,0.6,0,1c0.5,0,0.9-0.1,1.4-0.2v0.6
			c-0.4,0.1-0.9,0.1-1.4,0.2c0,0.8,0.1,1.6,0.1,2.2c0.6,0.3,1.1,0.7,1.6,1L160.5,81.8z M158.7,80.6c-0.3-0.1-0.5-0.1-0.8-0.1
			c-0.6,0-1,0.3-1,0.6c0,0.4,0.4,0.6,1,0.6c0.7,0,0.9-0.3,0.9-0.9C158.7,80.8,158.7,80.7,158.7,80.6z"/>
		<path class="st0" d="M164.3,76c-0.2,0.7-0.5,1.5-0.8,2.1c0.6,0.6,0.7,1.2,0.7,1.7c0,0.4-0.1,0.8-0.3,0.9c-0.1,0.1-0.3,0.1-0.4,0.1
			c-0.2,0-0.4,0-0.5,0c0-0.2-0.1-0.4-0.2-0.5c0.2,0,0.3,0,0.5,0c0.1,0,0.2,0,0.3-0.1c0.1-0.1,0.2-0.3,0.2-0.5c0-0.4-0.1-1-0.7-1.6
			c0.2-0.6,0.5-1.3,0.6-1.8h-1v6.4H162v-7h1.8l0.1,0L164.3,76z M165.5,80.3c-0.3,0.7-0.7,1.5-1.2,1.9c-0.1-0.1-0.3-0.3-0.4-0.4
			c0.4-0.4,0.8-1,1.1-1.7L165.5,80.3z M166.7,75.5c0.6,0.9,1.5,1.7,2.4,2.2c-0.1,0.1-0.2,0.3-0.3,0.5c-0.8-0.5-1.7-1.4-2.3-2.2
			c-0.5,0.8-1.3,1.6-2.2,2.2c-0.1-0.1-0.2-0.3-0.3-0.5c0.9-0.5,1.8-1.5,2.2-2.3H166.7z M166.8,79.8v2.3c0,0.3-0.1,0.5-0.3,0.6
			c-0.2,0.1-0.5,0.1-1,0.1c0-0.2-0.1-0.4-0.2-0.6c0.4,0,0.7,0,0.8,0c0.1,0,0.1,0,0.1-0.1v-2.3h-1.8v-0.5h1.8v-1H165v-0.5h3.1v0.5
			h-1.3v1h1.9v0.5H166.8z M167.8,80.2c0.4,0.5,0.9,1.3,1.1,1.8l-0.5,0.3c-0.2-0.5-0.7-1.2-1.1-1.8L167.8,80.2z"/>
		<path class="st0" d="M174.9,76.3c-0.2,0.1-0.4,0.3-0.5,0.4c-0.6,0.5-1.7,1.4-2.3,1.9c-0.5,0.4-0.5,0.5,0,1c0.7,0.6,2.2,1.8,3,2.6
			l-0.6,0.5c-0.2-0.2-0.4-0.4-0.5-0.6c-0.4-0.5-1.8-1.6-2.5-2.2c-0.7-0.6-0.7-1,0.1-1.6c0.6-0.5,1.8-1.4,2.3-2
			c0.2-0.2,0.4-0.4,0.5-0.5L174.9,76.3z"/>
		<path class="st0" d="M179.8,79.1c0,1.6-0.6,2.8-1.6,3.8l-0.5-0.2c0.9-1,1.5-2.1,1.5-3.6c0-1.4-0.6-2.6-1.5-3.6l0.5-0.2
			C179.1,76.3,179.8,77.5,179.8,79.1z"/>
		<path class="st0" d="M183.6,82.8h-2v-0.4h1.5v-6.6h-1.5v-0.4h2V82.8z"/>
		<path class="st0" d="M191.1,78.9l2.6-2.6l0.2,0.2l-2.6,2.6l2.6,2.6l-0.2,0.2l-2.6-2.6l-2.6,2.6l-0.2-0.2l2.6-2.6l-2.6-2.6l0.2-0.2
			L191.1,78.9z M189.4,79.1c0,0.3-0.3,0.6-0.6,0.6c-0.3,0-0.6-0.3-0.6-0.6c0-0.3,0.3-0.6,0.6-0.6C189.2,78.5,189.4,78.8,189.4,79.1z
			 M191.1,77.4c-0.3,0-0.6-0.3-0.6-0.6c0-0.3,0.3-0.6,0.6-0.6c0.3,0,0.6,0.3,0.6,0.6C191.7,77.1,191.4,77.4,191.1,77.4z M191.1,80.8
			c0.3,0,0.6,0.3,0.6,0.6c0,0.3-0.3,0.6-0.6,0.6c-0.3,0-0.6-0.3-0.6-0.6C190.5,81.1,190.8,80.8,191.1,80.8z M192.8,79.1
			c0-0.3,0.3-0.6,0.6-0.6s0.6,0.3,0.6,0.6c0,0.3-0.3,0.6-0.6,0.6S192.8,79.4,192.8,79.1z"/>
		<path class="st0" d="M197.9,79.3c-0.3,0.1-0.6,0.2-0.9,0.3v2.4c0,0.3-0.1,0.5-0.3,0.6c-0.2,0.1-0.5,0.1-1,0.1
			c0-0.1-0.1-0.4-0.2-0.5c0.3,0,0.7,0,0.8,0c0.1,0,0.1,0,0.1-0.1v-2.2c-0.3,0.1-0.7,0.2-1,0.3l-0.2-0.6c0.3-0.1,0.7-0.2,1.1-0.3
			v-1.6h-1v-0.5h1v-1.6h0.6v1.6h0.9v0.2c0.5-0.5,0.8-1.1,1-1.8l0.5,0.1c-0.1,0.3-0.2,0.5-0.3,0.8h1.2c0.1-0.3,0.3-0.6,0.4-0.9
			l0.6,0.1c-0.1,0.2-0.3,0.5-0.4,0.7h1.7v0.4h-1.7v0.5h1.5v0.4h-1.5v0.5h1.5v0.4h-1.5v0.5h1.8v0.4h-4.1v-2.2
			c-0.2,0.2-0.3,0.4-0.5,0.5c0-0.1-0.1-0.2-0.2-0.2H197v1.5c0.3-0.1,0.6-0.2,0.8-0.3L197.9,79.3z M202.7,80.9
			c-0.1,1-0.2,1.5-0.4,1.7c-0.1,0.1-0.3,0.2-0.5,0.2c-0.2,0-0.6,0-1,0c0-0.1-0.1-0.4-0.2-0.5c0.4,0,0.8,0,0.9,0c0.1,0,0.2,0,0.3-0.1
			c0.1-0.1,0.2-0.4,0.3-1.1h-1c0,0.1-0.1,0.3-0.1,0.4l-0.5-0.1c0.1-0.3,0.2-0.6,0.2-1h-1c-0.2,1.2-0.7,1.9-1.7,2.3
			c-0.1-0.1-0.3-0.3-0.4-0.4c0.9-0.3,1.4-0.9,1.5-1.9H198v-0.5h3.3c0,0.2-0.1,0.5-0.2,0.7h1.5L202.7,80.9z M200.3,76.8H199v0.5h1.2
			V76.8z M200.3,77.6H199v0.5h1.2V77.6z M200.3,78.5H199v0.5h1.2V78.5z"/>
		<path class="st0" d="M210.7,76.3v0.5h-1.3v1.3h-4.5v-1.3h-1.3v-0.5h1.3v-0.8h0.6v0.8h1.4v-0.8h0.6v0.8h1.4v-0.8h0.6v0.8H210.7z
			 M203.8,78.6h6.7v1.6h-0.6V79h-2.5v0.8h2.3v1.6c0,0.3-0.1,0.4-0.3,0.5c-0.2,0.1-0.6,0.1-1.2,0.1c0-0.2-0.1-0.4-0.2-0.5
			c0.4,0,0.8,0,0.9,0c0.1,0,0.1,0,0.1-0.1v-1.2h-1.7v2.4h-0.6v-2.4h-1.6v1.8h-0.6v-2.3h2.1V79h-2.5v1.1h-0.6V78.6z M205.4,77.6h1.4
			v-0.8h-1.4V77.6z M208.8,76.8h-1.4v0.8h1.4V76.8z"/>
		<path class="st0" d="M214.8,77.2h-2.5v1.1h-0.5v-1.6h3v-0.5h-2.6v-0.5h5.8v0.5h-2.6v0.5h3.1v1.6h-0.6v-1.1h-2.6V79h-0.6V77.2z
			 M217.7,82.2c0.4,0,0.5-0.1,0.5-0.9c0.1,0.1,0.4,0.2,0.5,0.2c-0.1,1-0.3,1.2-1,1.2h-1.8c-0.9,0-1.1-0.2-1.1-0.8v-0.3H213V82h-0.6
			v-2.8h5.4v2.4h-2.5v0.3c0,0.3,0.1,0.3,0.6,0.3H217.7z M212.6,78.4h1.8v0.4h-1.8V78.4z M214.4,78h-1.7v-0.4h1.7V78z M213,79.7v0.6
			h1.8v-0.6H213z M214.8,81.2v-0.5H213v0.5H214.8z M217.3,79.7h-1.9v0.6h1.9V79.7z M217.3,81.2v-0.5h-1.9v0.5H217.3z M217.5,77.6V78
			h-1.7v-0.4H217.5z M215.8,78.4h1.9v0.4h-1.9V78.4z"/>
		<path class="st0" d="M219.5,76.8h3v0.5h-3V76.8z M222.2,82.4h-1.8v0.4h-0.5v-2.7h2.4V82.4z M222.2,78.4h-2.3v-0.5h2.3V78.4z
			 M219.8,79h2.3v0.5h-2.3V79z M222.1,76.2h-2.3v-0.5h2.3V76.2z M220.3,80.6v1.3h1.3v-1.3H220.3z M224.9,78.3v1.3h1.5v3h-0.6v-0.4
			h-2.4v0.4h-0.6v-3.1h1.4v-1.3h-1.9v-0.6h1.9v-1.3c-0.5,0.1-1,0.1-1.5,0.2c0-0.1-0.1-0.4-0.2-0.5c1.2-0.1,2.6-0.3,3.4-0.6l0.4,0.5
			c-0.4,0.1-1,0.2-1.6,0.3v1.4h1.9v0.6H224.9z M225.8,80.2h-2.4v1.6h2.4V80.2z"/>
		<path class="st0" d="M229.1,78.3c0.5,0,0.8,0.4,0.8,0.8s-0.4,0.8-0.8,0.8s-0.8-0.4-0.8-0.8S228.6,78.3,229.1,78.3z"/>
		<path class="st0" d="M231.9,76.3h1.7c1.3,0,2.2,0.4,2.2,1.7c0,1.2-0.9,1.8-2.2,1.8h-1v2.3h-0.7V76.3z M233.5,79.2
			c1,0,1.5-0.4,1.5-1.2c0-0.8-0.5-1.1-1.6-1.1h-0.8v2.3H233.5z"/>
		<path class="st0" d="M237,76.3h0.7v2.5h2.7v-2.5h0.7v5.9h-0.7v-2.8h-2.7v2.8H237V76.3z"/>
		<path class="st0" d="M242.4,81.4l0.4-0.5c0.4,0.4,1,0.7,1.6,0.7c0.8,0,1.2-0.4,1.2-1c0-0.6-0.4-0.8-1-1l-0.8-0.4
			c-0.5-0.2-1.2-0.6-1.2-1.5c0-0.9,0.8-1.6,1.8-1.6c0.7,0,1.3,0.3,1.7,0.7l-0.4,0.5c-0.4-0.3-0.8-0.6-1.3-0.6
			c-0.7,0-1.1,0.3-1.1,0.9c0,0.6,0.5,0.8,1,1l0.8,0.4c0.7,0.3,1.2,0.7,1.2,1.6c0,0.9-0.8,1.7-2,1.7
			C243.6,82.2,242.9,81.9,242.4,81.4z"/>
		<path class="st0" d="M250.3,75.9c0,0.1-0.1,0.3-0.1,0.5c0,0.2-0.1,0.7-0.2,1.1c0.4,0,0.7,0,0.9,0c0.7,0,1.3,0.3,1.3,1.3
			c0,0.9-0.1,2.2-0.5,2.9c-0.2,0.5-0.6,0.7-1.2,0.7c-0.3,0-0.7-0.1-0.9-0.1l-0.1-0.7c0.3,0.1,0.8,0.2,1,0.2c0.3,0,0.5-0.1,0.7-0.4
			c0.2-0.5,0.4-1.6,0.4-2.4c0-0.7-0.3-0.8-0.8-0.8c-0.2,0-0.5,0-0.8,0.1c-0.3,1.1-0.8,2.9-1.7,4.3l-0.7-0.3c0.8-1.1,1.4-2.9,1.7-3.9
			c-0.4,0-0.8,0.1-1,0.1c-0.2,0-0.5,0.1-0.7,0.1l-0.1-0.7c0.2,0,0.5,0,0.7,0c0.3,0,0.7,0,1.2-0.1c0.1-0.6,0.2-1.2,0.2-1.7
			L250.3,75.9z M253,76.8c0.5,0.6,1.2,2.1,1.4,2.8l-0.6,0.3c-0.2-0.8-0.9-2.2-1.4-2.9L253,76.8z"/>
		<path class="st0" d="M257,79.5c0.8-0.7,1.6-1,2.6-1c1.2,0,2,0.7,2,1.7c0,1.4-1.3,2.4-4.2,2.1l-0.2-0.7c2.5,0.3,3.7-0.4,3.7-1.5
			c0-0.6-0.6-1.1-1.4-1.1c-1.1,0-1.9,0.4-2.4,1c-0.1,0.1-0.2,0.3-0.2,0.4l-0.6-0.1c0.2-0.7,0.4-2.4,0.4-3.2l0.7,0.1
			C257.2,77.9,257.1,79,257,79.5z M257.5,75.9c0.7,0.2,2.4,0.5,3.1,0.6l-0.2,0.6c-0.8-0.1-2.5-0.5-3.1-0.6L257.5,75.9z"/>
		<path class="st0" d="M268.9,78.7c0.5,0.6,0.8,1.2,0.8,1.8c0,1.2-1.1,1.9-2.6,1.9c-1.1,0-2-0.5-2-1.8c0-0.2,0-0.5,0.1-0.9
			c-0.6,0-1.2-0.1-1.6-0.3l0-0.6c0.5,0.2,1.1,0.3,1.7,0.3c0.1-0.5,0.1-1,0.2-1.4c-0.6,0-1.2-0.1-1.7-0.3l0-0.6
			c0.5,0.2,1.1,0.3,1.7,0.3c0-0.3,0.1-0.6,0.1-0.8c0-0.2,0-0.4,0-0.6l0.7,0c-0.1,0.2-0.1,0.4-0.1,0.6c0,0.2-0.1,0.5-0.1,0.8
			c0.6,0,1.1,0,1.6-0.1l0,0.6c-0.5,0-1,0.1-1.6,0.1H266c-0.1,0.5-0.1,1-0.2,1.4h0.2c0.5,0,1.1,0,1.6-0.1l0,0.6
			c-0.5,0.1-1,0.1-1.6,0.1c-0.1,0-0.2,0-0.3,0c0,0.3,0,0.6,0,0.8c0,0.8,0.4,1.2,1.3,1.2c1.2,0,2-0.5,2-1.3c0-0.5-0.3-1.1-0.9-1.6
			L268.9,78.7z"/>
		<path class="st0" d="M272.9,79.8c-0.1,0.3-0.2,0.6-0.2,0.9c0,0.6,0.6,1,1.9,1c1.1,0,2.1-0.1,2.7-0.3l0,0.7
			c-0.6,0.2-1.6,0.3-2.7,0.3c-1.6,0-2.5-0.5-2.5-1.5c0-0.4,0.1-0.8,0.2-1.1L272.9,79.8z M272.5,76.6c0.6,0.1,1.3,0.1,2.1,0.1
			c0.8,0,1.6-0.1,2.1-0.1v0.7c-0.5,0-1.4,0.1-2.1,0.1c-0.8,0-1.5,0-2.1-0.1V76.6z M277.7,76.8l-0.4,0.2c-0.2-0.3-0.4-0.8-0.7-1.1
			l0.4-0.2C277.2,76,277.5,76.5,277.7,76.8z M278.6,76.5l-0.4,0.2c-0.2-0.3-0.4-0.8-0.7-1.1l0.4-0.2
			C278.1,75.7,278.4,76.2,278.6,76.5z"/>
		<path class="st0" d="M281.4,77.8h1.5v0.5h-1.5V79c0.4,0.3,1.3,1.1,1.5,1.3l-0.3,0.5c-0.2-0.3-0.8-0.8-1.2-1.2v3.2h-0.6v-3.4
			c-0.4,0.9-1,1.8-1.5,2.4c-0.1-0.2-0.2-0.4-0.3-0.6c0.6-0.6,1.3-1.7,1.7-2.7h-1.6v-0.5h1.7v-1.4c-0.5,0.1-1,0.2-1.5,0.2
			c0-0.1-0.1-0.3-0.2-0.5c1.2-0.2,2.6-0.4,3.3-0.8l0.4,0.5c-0.4,0.2-0.9,0.3-1.4,0.4V77.8z M284.1,80.8h-0.6v-4.4h0.6V80.8z
			 M286.1,75.6V82c0,0.4-0.1,0.6-0.4,0.7c-0.3,0.1-0.7,0.1-1.4,0.1c0-0.2-0.1-0.4-0.2-0.6c0.6,0,1.1,0,1.2,0c0.1,0,0.2,0,0.2-0.2
			v-6.4H286.1z"/>
		<path class="st0" d="M293.8,81.9c0,0.4-0.1,0.6-0.4,0.7c-0.3,0.1-0.7,0.1-1.5,0.1c0-0.2-0.1-0.4-0.2-0.6c0.6,0,1.1,0,1.2,0
			c0.2,0,0.2-0.1,0.2-0.2v-1.6h-2.2v2.4h-0.6v-2.4h-2c-0.1,0.9-0.4,1.8-1,2.5c-0.1-0.1-0.3-0.3-0.5-0.4c0.9-1,1-2.4,1-3.5V76h5.8
			V81.9z M290.5,79.7v-1.3h-1.9v0.5c0,0.3,0,0.6,0,0.9H290.5z M288.6,76.6v1.3h1.9v-1.3H288.6z M293.3,76.6h-2.2v1.3h2.2V76.6z
			 M293.3,79.7v-1.3h-2.2v1.3H293.3z"/>
		<path class="st0" d="M296.5,77.3c0,0.5,0,1.2,0.1,1.9c0.1,1.3,0.5,2.2,1.1,2.2c0.4,0,0.8-0.8,1-1.6l0.5,0.6
			c-0.5,1.3-1,1.8-1.5,1.8c-0.7,0-1.5-0.7-1.7-2.8c-0.1-0.7-0.1-1.6-0.1-2.1c0-0.2,0-0.5,0-0.7l0.8,0
			C296.6,76.8,296.5,77.1,296.5,77.3z M302.1,80.7l-0.6,0.3c-0.1-1.4-0.6-3-1.4-3.9l0.6-0.2C301.4,77.7,302,79.3,302.1,80.7z"/>
		<path class="st0" d="M307.6,77.4c-0.5,0.1-1.1,0.2-1.6,0.3c-0.1,0.3-0.2,0.7-0.2,1c-0.3,1.1-0.8,2.8-1.2,3.6l-0.7-0.2
			c0.5-0.8,1-2.4,1.3-3.5c0.1-0.3,0.1-0.6,0.2-0.8c-0.3,0-0.5,0-0.7,0c-0.4,0-0.6,0-0.9,0l0-0.6c0.4,0,0.7,0.1,1,0.1
			c0.3,0,0.5,0,0.8,0c0.1-0.3,0.1-0.5,0.1-0.7c0-0.2,0-0.5,0-0.7l0.8,0.1c-0.1,0.2-0.1,0.5-0.1,0.6l-0.1,0.6c0.5-0.1,1-0.2,1.5-0.3
			V77.4z M307.3,80.2c-0.1,0.3-0.1,0.5-0.1,0.7c0,0.4,0.2,0.7,1.3,0.7c0.5,0,1.1-0.1,1.5-0.2l0,0.6c-0.4,0.1-1,0.1-1.5,0.1
			c-1.2,0-1.9-0.4-1.9-1.2c0-0.3,0-0.6,0.1-0.9L307.3,80.2z M307.1,78.3c0.4,0,0.9-0.1,1.4-0.1c0.5,0,0.9,0,1.4,0.1l0,0.6
			c-0.4,0-0.9-0.1-1.3-0.1c-0.5,0-1,0-1.5,0.1V78.3z"/>
		<path class="st0" d="M315.3,77.5c-0.5,0.1-1.1,0.2-1.6,0.3c-0.1,0.4-0.2,0.7-0.2,1.1c-0.3,1.1-0.8,2.8-1.2,3.6l-0.7-0.2
			c0.5-0.8,1-2.4,1.3-3.5c0.1-0.3,0.1-0.6,0.2-0.8c-0.3,0-0.5,0-0.7,0c-0.4,0-0.6,0-0.9,0l0-0.6c0.4,0,0.7,0.1,1,0.1
			c0.3,0,0.5,0,0.8,0c0.1-0.3,0.1-0.5,0.1-0.7c0-0.2,0-0.5,0-0.6l0.8,0.1c-0.1,0.2-0.1,0.5-0.1,0.6l-0.1,0.6c0.5-0.1,1-0.2,1.5-0.3
			V77.5z M315,80.3c-0.1,0.3-0.1,0.5-0.1,0.7c0,0.4,0.2,0.7,1.3,0.7c0.5,0,1.1-0.1,1.5-0.2l0,0.6c-0.4,0.1-1,0.1-1.5,0.1
			c-1.2,0-1.9-0.4-1.9-1.2c0-0.3,0-0.6,0.1-0.9L315,80.3z M314.8,78.4c0.4,0,0.9-0.1,1.4-0.1c0.5,0,0.9,0,1.4,0.1l0,0.6
			c-0.4,0-0.9-0.1-1.3-0.1c-0.5,0-1,0-1.5,0.1V78.4z M317,77.5c-0.2-0.3-0.4-0.8-0.6-1.1l0.4-0.2c0.2,0.3,0.5,0.8,0.7,1.1L317,77.5z
			 M317.7,75.9c0.2,0.3,0.5,0.8,0.7,1.1l-0.4,0.2c-0.2-0.4-0.4-0.8-0.7-1.1L317.7,75.9z"/>
		<path class="st0" d="M320.8,76c0,0.1-0.1,0.4-0.1,0.5c-0.2,1.2-0.5,2.9-0.2,4.2c0.1-0.3,0.3-0.8,0.4-1.2l0.4,0.2
			c-0.2,0.6-0.4,1.4-0.5,1.7c0,0.1,0,0.3,0,0.4l0,0.3l-0.5,0.1c-0.2-0.5-0.4-1.5-0.4-2.5c0-1.3,0.2-2.5,0.3-3.2c0-0.2,0-0.4,0-0.5
			L320.8,76z M326.1,78.1c-0.4,0.1-0.8,0.1-1.3,0.1v0.3c0,1.8,0,3.1-1.7,4.1l-0.6-0.5c0.2-0.1,0.6-0.3,0.8-0.5
			c0.8-0.7,0.9-1.6,0.9-3.2v-0.2c-0.3,0-0.7,0-1,0c-0.4,0-0.9,0-1.3-0.1v-0.6c0.3,0.1,0.8,0.1,1.3,0.1c0.3,0,0.7,0,1,0
			c0-0.5,0-1,0-1.2c0-0.2,0-0.4-0.1-0.5h0.7c0,0.1,0,0.3,0,0.5s0,0.7,0,1.2c0.5,0,0.9-0.1,1.3-0.2V78.1z"/>
		<path class="st0" d="M333.3,82c-0.5-0.4-1.1-0.9-1.9-1.2c0,0.2,0,0.4,0,0.5c0,0.5-0.4,1.1-1.4,1.1c-1.1,0-1.8-0.4-1.8-1.2
			c0-0.7,0.7-1.2,1.8-1.2c0.2,0,0.4,0,0.7,0c0-0.4,0-0.7,0-1.1c-0.1,0-0.3,0-0.4,0c-0.5,0-1.4,0-2-0.1v-0.6c0.5,0.1,1.5,0.2,2,0.2
			c0.1,0,0.3,0,0.4,0v-0.1v-1c-0.1,0-0.3,0-0.4,0c-0.6,0-1.4-0.1-1.9-0.1v-0.6c0.5,0.1,1.3,0.2,1.9,0.2c0.1,0,0.3,0,0.4,0v-0.5
			c0-0.1,0-0.4,0-0.5h0.7c0,0.1,0,0.3,0,0.5c0,0.1,0,0.2,0,0.4c0.7,0,1.3-0.1,2-0.2l0,0.6c-0.6,0.1-1.3,0.1-2,0.2v1v0.1
			c0.8,0,1.5-0.1,2.2-0.2l0,0.6c-0.7,0.1-1.4,0.2-2.2,0.2c0,0.4,0,0.8,0.1,1.2c1,0.3,1.9,0.9,2.3,1.2L333.3,82z M330.8,80.7
			c-0.2,0-0.5-0.1-0.8-0.1c-0.8,0-1.2,0.3-1.2,0.6c0,0.4,0.3,0.6,1.1,0.6c0.5,0,0.8-0.1,0.8-0.7C330.8,81.1,330.8,80.9,330.8,80.7z"
			/>
		<path class="st0" d="M339.7,77.4c0,0.4,0,0.9,0,1.3c0.2,0.3,0.3,0.6,0.3,1c0,1.1-0.5,2.3-2.4,2.8l-0.6-0.5c1-0.2,1.8-0.7,2.1-1.4
			c-0.2,0.1-0.4,0.2-0.7,0.2c-0.7,0-1.3-0.5-1.3-1.3c0-0.8,0.6-1.4,1.4-1.4c0.2,0,0.4,0,0.5,0.1c0-0.2,0-0.5,0-0.8
			c-1.2,0-2.5,0.1-3.5,0.1l0-0.6c0.9,0,2.4-0.1,3.5-0.1c0-0.2,0-0.4,0-0.5c0-0.2,0-0.4,0-0.5h0.7l0,0.5c0,0.1,0,0.3,0,0.5h0.1
			c1,0,1.9,0,2.3,0l0,0.6c-0.4,0-1.2,0-2.3,0H339.7z M339.3,79.1c-0.1-0.3-0.4-0.5-0.7-0.5c-0.4,0-0.8,0.3-0.8,0.8
			c0,0.5,0.4,0.8,0.8,0.8C339.1,80.3,339.4,79.9,339.3,79.1z"/>
		<path class="st0" d="M345.5,81.4c0,0.7-0.5,1.2-1.2,1.2c-0.7,0-1.2-0.6-1.2-1.2s0.6-1.2,1.2-1.2C345,80.2,345.5,80.7,345.5,81.4z
			 M345.1,81.4c0-0.4-0.4-0.8-0.8-0.8c-0.4,0-0.8,0.4-0.8,0.8c0,0.5,0.4,0.8,0.8,0.8C344.8,82.2,345.1,81.9,345.1,81.4z"/>
	</g>
</g>
<g>
	<path d="M2.6,6.7c0,1.6,0.4,2.7,3,2.7c2,0,2.9-0.5,3.2-0.5c0.3,0,0.8,0.2,0.8,0.5c0,0.3-0.1,0.4-0.5,0.5c-0.6,0.2-1.7,0.4-3.3,0.4
		c-3.2,0-4-1.5-3.5-3.7L2.6,6.7z M4.1,4.5c0.6-0.4,1.3-0.9,1.7-1.2C6,3.2,5.9,3.2,5.8,3.2c-1.4,0-2.3-0.1-3-1.2l0.2-0.2
		c0.8,0.5,1.4,0.6,2.3,0.6c1.5,0,1.8-0.3,2.2-0.3c0.5,0,1.2,0.3,1.2,0.6c0,0.2-0.1,0.4-0.5,0.4C7.9,3.3,7.5,3.4,6.9,3.6
		C6.3,3.8,5.2,4.3,4.3,4.7L4.1,4.5z M8.5,1.1c0.6,0.2,1.1,0.5,1.4,0.8c0.3,0.3,0.4,0.5,0.4,0.7c0,0.2-0.1,0.3-0.3,0.3
		c-0.2,0-0.3-0.2-0.6-0.5C9.2,2.1,8.8,1.7,8.3,1.3L8.5,1.1z M9.5,0.3c0.6,0.2,1.1,0.4,1.4,0.7c0.3,0.3,0.4,0.5,0.4,0.7
		c0,0.2-0.1,0.3-0.3,0.3c-0.2,0-0.3-0.3-0.6-0.6c-0.3-0.3-0.5-0.6-1.1-1L9.5,0.3z"/>
	<path d="M18.7,5.9c1.1,1.6,3.1,3,4.9,3.5l0,0.1c-0.4,0.1-0.7,0.4-0.8,0.8C20.9,9.6,19.4,8,18.5,6v4.8c0,0.1-0.4,0.4-0.8,0.4h-0.2
		V6.8c-1.2,1.6-2.9,2.9-5,3.8l-0.1-0.2c1.9-1.1,3.5-2.8,4.4-4.5h-4.2l-0.1-0.3h4.9V2.4h-4.3L13.1,2h4.4v-2l1.4,0.2
		c0,0.2-0.1,0.3-0.4,0.3V2h2.7l0.7-0.8c0,0,0.7,0.6,1.2,1c0,0.1-0.2,0.2-0.3,0.2h-4.2v3.2h3.1l0.7-0.8c0,0,0.8,0.6,1.2,1
		c0,0.1-0.1,0.2-0.3,0.2H18.7z M14.6,2.6c2.7,1.2,1.7,3.3,0.8,2.4c0-0.8-0.5-1.7-1-2.4L14.6,2.6z M19.3,5.2c0.4-0.6,0.9-1.6,1.2-2.6
		l1.3,0.6c-0.1,0.1-0.2,0.2-0.5,0.2c-0.6,0.7-1.3,1.5-2,1.9L19.3,5.2z"/>
	<path d="M28.5,6.4c-0.8,0.5-1.9,1.4-3.3,2.3c0,0.1-0.1,0.3-0.2,0.3l-0.6-1.2c0.3-0.1,0.9-0.3,1.5-0.6V3.7h-1.3l-0.1-0.3h1.4V0.2
		l1.4,0.1c0,0.2-0.1,0.3-0.4,0.3v2.7H27l0.5-0.8c0,0,0.6,0.6,0.9,1c0,0.1-0.2,0.2-0.3,0.2h-1.3v3.2c0.5-0.2,1.1-0.4,1.6-0.7
		L28.5,6.4z M30.7,5.6c-0.2,0.3-0.4,0.7-0.6,1h4L34.6,6l1,0.8C35.4,7,35.3,7,35.1,7c-0.2,2.1-0.5,3.3-1.1,3.7
		c-0.3,0.3-0.8,0.4-1.2,0.4c0-0.3,0-0.5-0.2-0.6c-0.2-0.1-0.5-0.3-0.9-0.3V10c0.4,0,1.1,0.1,1.3,0.1c0.2,0,0.3,0,0.4-0.1
		c0.3-0.3,0.6-1.3,0.7-3h-0.8c-0.7,1.8-1.9,3.2-3.9,4.2l-0.1-0.2c1.5-1,2.5-2.4,3-4h-0.8c-0.8,1.5-2.2,2.7-4.1,3.6l-0.1-0.2
		c1.4-0.9,2.5-2.1,3.2-3.4h-0.8C29,7.7,28.1,8.4,27,8.9l-0.1-0.2c1.2-0.8,2.1-1.9,2.7-3.1h-1.8l-0.1-0.3h6.2l0.6-0.8
		c0,0,0.7,0.5,1.1,0.9c0,0.1-0.2,0.2-0.3,0.2H30.7z M30,4.5c0,0.1-0.4,0.3-0.8,0.3h-0.1V0.3l1,0.4h3.1l0.5-0.5L34.7,1
		c-0.1,0.1-0.3,0.2-0.5,0.2v3.1c0,0.1-0.5,0.3-0.8,0.3h-0.2V4.2H30V4.5z M30,1.1v1.2h3.2V1.1H30z M33.2,3.8V2.6H30v1.2H33.2z"/>
	<path d="M39,6.8c-0.6,0-1.2-0.5-1.2-1.2c0-0.6,0.5-1.2,1.2-1.2c0.6,0,1.2,0.5,1.2,1.2C40.2,6.3,39.6,6.8,39,6.8z"/>
	<path d="M53.6,5.1c-0.1,0.1-0.2,0.1-0.5,0.1c-0.7,0.8-1.9,1.8-2.9,2.4l-0.1-0.1c0.6-0.7,1.4-1.7,1.8-2.5h-3.4v4.7
		c0,0.7-0.2,1.2-1.6,1.4c0-0.3-0.1-0.6-0.3-0.7c-0.2-0.2-0.6-0.3-1.4-0.4V9.9c0,0,1.7,0.1,2,0.1c0.2,0,0.3-0.1,0.3-0.3V5h-4.9
		l-0.1-0.3h6.1c-0.4-0.6-1.4-1.6-2.9-2.3l0.1-0.2c1.1,0.2,1.9,0.4,2.4,0.7c0.7-0.5,1.6-1.1,2.2-1.6h-6.4L43.8,1h6.7l0.6-0.6l1,1
		c-0.1,0.1-0.2,0.1-0.5,0.1c-0.8,0.5-2.2,1.2-3.3,1.6c1,0.6,1,1.4,0.7,1.6h2.8l0.6-0.6L53.6,5.1z"/>
	<path d="M54.4,10c0.4-0.9,0.7-2.1,0.9-3.3L56.5,7c0,0.1-0.2,0.2-0.4,0.3c-0.3,1.1-0.8,2.2-1.5,2.9L54.4,10z M57.8,4
		c2.5,1.2,1.7,2.9,0.9,2.2c0-0.3-0.2-0.6-0.3-0.9l-0.9,0.2v5.4c0,0.1-0.3,0.3-0.7,0.3h-0.2V5.7c-0.4,0.1-0.9,0.2-1.5,0.3
		c-0.1,0.2-0.2,0.2-0.3,0.3l-0.3-1c0.3,0,0.8,0,1.4-0.1c0.7-1.1,1.5-2.6,2-3.7L59.1,2c-0.1,0.1-0.2,0.2-0.5,0.2
		c-0.6,0.9-1.5,2-2.4,3c0.6,0,1.3-0.1,2-0.1c-0.2-0.4-0.4-0.7-0.6-1L57.8,4z M57.8,0.6c0,0.1-0.2,0.2-0.5,0.2C57,1.4,56.5,2,56,2.5
		c1,0.7,0.5,1.7-0.2,1.3c-0.2-0.6-0.7-1.3-1.2-1.7L54.7,2c0.4,0.1,0.7,0.2,1,0.4c0.3-0.6,0.6-1.5,0.8-2.3L57.8,0.6z M57.9,6.6
		C60.2,8,59.4,9.7,58.6,9c-0.1-0.7-0.4-1.7-0.8-2.3L57.9,6.6z M65.5,2.9C65.4,3,65.3,3.1,65,3.1c-0.1,4-0.4,6.7-1,7.4
		c-0.4,0.4-0.9,0.6-1.6,0.6c0-0.3-0.1-0.6-0.3-0.7c-0.2-0.2-0.8-0.3-1.4-0.4l0-0.2c0.6,0.1,1.7,0.2,2,0.2c0.3,0,0.4,0,0.5-0.2
		c0.5-0.4,0.7-3.2,0.8-6.8h-3.5c-0.4,0.7-0.9,1.4-1.4,1.9L59,4.8c0.6-1.2,1.2-2.9,1.5-4.7l1.4,0.4c-0.1,0.1-0.2,0.3-0.4,0.3
		c-0.2,0.6-0.5,1.3-0.7,1.8h3.2l0.6-0.6L65.5,2.9z M60.6,4.6c2.8,1.3,2,3.4,1,2.6c-0.1-0.9-0.6-1.9-1.2-2.5L60.6,4.6z"/>
	<path d="M70.8,6.4c1-0.5,2.1-0.9,3.2-0.9c1.4,0,2.5,0.9,2.5,2.3c0,1.2-0.9,2.3-2.5,2.3c-0.9,0-1.7-0.5-2.3-1.3l0.2-0.2
		C72.4,9,73,9.3,73.8,9.3c1.1,0,1.8-0.7,1.8-1.7C75.6,6.7,75,6,73.7,6c-0.9,0-2,0.5-3,1c0,1.7,0.2,2.1,0.2,2.5
		c0,0.6-0.4,1.2-0.8,1.2c-0.3,0-0.3-0.4-0.7-0.8c-0.3-0.3-0.8-0.6-1.2-0.9c-0.3,0.3-0.5,0.5-0.7,0.5c-0.2,0-0.3-0.1-0.4-0.2
		c-0.2-0.2-0.3-0.4-0.3-0.6c0-0.3,0.1-0.4,0.4-0.4c0.3,0,0.5,0,0.7-0.2c0.4-0.2,1.3-1,2.2-1.4V6V4.6c-0.4,0.1-1,0.2-1.3,0.2
		c-0.6,0-1.2-0.2-1.6-1.3l0.2-0.1C68,3.9,68.2,4,68.8,4c0.4,0,0.8-0.1,1.3-0.2c0-0.8,0-1.6,0-1.9c0-0.3-0.1-0.3-0.3-0.4
		c-0.2-0.1-0.5-0.1-0.8-0.1l0-0.2C69.3,1,69.6,0.9,70,0.9c0.5,0,1.3,0.4,1.3,0.7c0,0.3-0.2,0.5-0.3,0.9c-0.1,0.2-0.1,0.6-0.1,1.1
		c0.8-0.3,1.2-0.7,1.4-0.7c0.2,0,0.7,0,0.7,0.4c0,0.2-0.1,0.4-0.4,0.5c-0.4,0.2-1.2,0.5-1.8,0.7c0,0.5,0,1.1,0,1.6V6.4z M70.1,7.4
		c-0.6,0.4-1.2,0.9-1.6,1.4C69,9,69.5,9.3,69.8,9.4c0.3,0.1,0.3,0,0.3-0.2V7.4z M73.8,2.4c0.6-0.1,1.1-0.2,1.6-0.1
		c1,0.2,1.9,1,1.9,1.8c0,0.3-0.1,0.5-0.4,0.5c-0.3,0-0.4-0.3-0.8-0.2c-0.2,0-0.7,0.2-0.9,0.3L75,4.5C75.3,4.4,75.8,4,76,3.9
		c0.1-0.2,0.2-0.3,0-0.5c-0.4-0.6-1.4-0.8-2.2-0.7L73.8,2.4z"/>
	<path d="M80,4.3v6.5c0,0.1-0.3,0.4-0.8,0.4h-0.2V0.4l1,0.5h2.2l0.5-0.5l1,0.8c-0.1,0.1-0.2,0.2-0.4,0.2v3.3c0,0.1-0.5,0.3-0.8,0.3
		h-0.1V4.3H80z M80,1.2v1.2h2.4V1.2H80z M82.4,3.9V2.7H80v1.2H82.4z M86.6,6.2c-0.1,0.1-0.2,0.2-0.5,0.2v2.9c0,0.1-0.5,0.3-0.8,0.3
		h-0.2V8.8h-2.7v0.6c0,0.1-0.4,0.3-0.8,0.3h-0.1V5.5l1,0.4h2.5l0.5-0.5L86.6,6.2z M85.3,8.5V6.3h-2.7v2.2H85.3z M89.4,1.2
		c-0.1,0.1-0.3,0.2-0.5,0.2v8.5c0,0.7-0.2,1.1-1.4,1.2c0-0.3-0.1-0.5-0.3-0.6c-0.2-0.1-0.4-0.3-1-0.3V10c0,0,1.1,0.1,1.4,0.1
		c0.2,0,0.3-0.1,0.3-0.3V4.3h-2.4v0.3c0,0.1-0.4,0.3-0.8,0.3h-0.1V0.5l1,0.4h2.3l0.5-0.6L89.4,1.2z M85.5,1.2v1.2h2.4V1.2H85.5z
		 M87.9,3.9V2.7h-2.4v1.2H87.9z"/>
	<path d="M91.9,3.7c0-0.7-0.1-1-0.9-1.6L91,1.9c0.3,0,0.6,0.1,0.9,0.2C92.4,2.3,93,2.9,93,3.4C93,4,92.6,4.7,92.6,6
		c0,1.4,0.6,2.1,1.1,2.4c0.2,0.1,0.3,0.1,0.4-0.1c0.4-0.6,0.8-1.4,1.2-2.2l0.3,0.1c-0.3,0.8-0.6,1.8-0.7,2.2C94.8,9.1,95,9.1,95,9.4
		c0,0.4-0.4,0.6-1,0.4c-0.9-0.4-2.1-1.5-2.2-3.7C91.8,5.2,91.9,4.3,91.9,3.7z M97.5,3.4l0.1-0.3c1.2,0.2,1.8,0.6,2.4,1.2
		c0.7,0.7,1,1.8,1,2.7c0,0.6-0.2,0.8-0.6,0.8c-0.2,0-0.4-0.1-0.5-0.4c-0.1-0.5-0.2-1.4-0.6-2.3C99,4.2,98.3,3.7,97.5,3.4z"/>
	<path d="M109,0.4c0,0.1-0.2,0.2-0.5,0.2c1.1,1.5,3.1,2.7,5.1,3.4l0,0.2c-0.4,0.1-0.7,0.5-0.8,0.8c-1.9-1-3.7-2.5-4.5-4.3
		c-1.1,1.8-3.5,3.7-5.8,4.7l-0.1-0.2c2-1.2,4.4-3.6,5-5.3L109,0.4z M110.9,6.1L112,7c-0.1,0.1-0.3,0.2-0.5,0.2v3.5
		c0,0.1-0.5,0.3-0.8,0.3h-0.2v-0.8h-5v0.6c0,0.1-0.4,0.3-0.8,0.3h-0.2V6.2l1.1,0.5h4.8L110.9,6.1z M109.8,3.7c0,0,0.7,0.6,1.2,1
		c0,0.1-0.2,0.2-0.3,0.2h-5.3l-0.1-0.3h3.9L109.8,3.7z M110.5,9.9V7h-5v2.8H110.5z"/>
	<path d="M118.5,4.9c1.1-0.7,2.2-1.2,3.5-1.2c1.6,0,3,1.1,3,2.8c0,1.8-1.2,3.3-4.6,4l-0.1-0.3c3-1.2,3.6-2.7,3.6-4
		c0-1.1-0.8-2.1-2.2-2.1c-1.2,0-2.5,0.6-3.4,1.4c-0.1,1.3,0.1,2.6,0.1,3.3c0,0.4,0.1,0.6,0.1,0.9c0,0.5-0.2,1.1-0.6,1.1
		c-0.3,0-0.4-0.2-0.5-0.4c-0.1-0.3-0.1-0.5-0.2-0.8c-0.1-0.3-0.5-0.9-0.8-1.4c-0.2,0.3-0.4,0.6-0.6,0.9c-0.2,0.2-0.3,0.4-0.5,0.4
		c-0.2,0-0.4-0.2-0.4-0.5c0-0.3,0.1-0.4,0.3-0.7c0.5-0.5,1.8-2.1,2.6-3.3c0-0.3,0-0.6,0.1-0.9c-0.4,0.2-0.8,0.4-1,0.6
		c-0.3,0.2-0.4,0.4-0.6,0.4c-0.4,0-0.9-0.5-1.1-0.9c0-0.2,0-0.4,0-0.5l0.2-0.1c0.2,0.3,0.4,0.5,0.6,0.5c0.3,0,1.4-0.5,2-0.8
		c0.1-0.8,0.2-1.4,0.2-1.8c0-0.3-0.1-0.3-0.3-0.4c-0.2-0.1-0.4-0.1-0.7-0.2V0.8c0.2-0.1,0.5-0.2,0.8-0.2c0.6,0,1.2,0.6,1.2,0.9
		c0,0.2-0.1,0.4-0.3,0.8c0,0.2-0.1,0.5-0.2,0.8l0,0c0.2,0.1,0.5,0.4,0.5,0.5c0,0.1-0.1,0.3-0.3,0.4C118.9,4.3,118.7,4.6,118.5,4.9
		L118.5,4.9z M117.8,8.8c0-0.5,0-1.5,0-2.5c-0.3,0.5-0.7,1.1-1.1,1.6c0.3,0.4,0.7,0.8,0.9,1C117.7,9,117.8,9,117.8,8.8z"/>
	<path d="M132.8,1.2c0.3-0.1,0.6-0.3,0.8-0.3c0.6,0,1.4,0.5,1.4,0.9c0,0.2-0.2,0.3-0.3,0.7c0,0.3,0,0.8-0.1,1.3
		c0.9-0.2,1.6-0.3,1.8-0.3c0.5,0,1,0.2,1,0.6c0,0.3-0.2,0.4-0.6,0.4c-0.5,0-0.9-0.1-1.8,0c-0.2,0-0.3,0-0.5,0.1
		c0,0.8-0.1,1.9-0.2,2.4c-0.1,0.6-0.4,0.9-0.9,0.9c-0.2,0-0.3-0.1-0.4-0.3c-0.2-0.4-0.7-0.6-1.2-0.8l0.1-0.2
		c0.5,0.2,1.1,0.3,1.4,0.3c0.2,0,0.3,0,0.4-0.3c0.1-0.3,0.1-1.2,0.2-1.8c-1.1,0.2-2.4,0.5-3.3,0.8c0,1-0.1,2.2,0,2.7
		c0,1.2,0.3,1.4,1.8,1.4c1.5,0,2.5-0.3,2.8-0.3c0.4,0,0.8,0.2,0.8,0.5c0,0.3-0.2,0.4-0.6,0.5c-0.5,0.1-1.5,0.2-2.7,0.2
		c-1.8,0-2.8-0.4-2.9-1.8c0-0.7,0-1.8,0-2.9c-1.3,0.5-1.8,0.8-2.2,0.8c-0.3,0-0.8-0.4-1-0.9c-0.1-0.2-0.1-0.4-0.1-0.7l0.2-0.1
		c0.2,0.3,0.5,0.6,0.8,0.6c0.3,0,1.5-0.3,2.3-0.5c0-0.8,0-1.5,0-1.9c0-0.3-0.1-0.4-0.3-0.5c-0.2-0.1-0.5-0.1-0.7-0.1l0-0.2
		c0.3-0.1,0.6-0.2,0.9-0.2c0.5,0,1.3,0.5,1.3,0.8c0,0.2-0.2,0.3-0.3,0.8c0,0.3,0,0.7-0.1,1.2c0.8-0.2,2.3-0.5,3.3-0.8
		c0-0.7,0-1.6,0-2.1c0-0.2-0.1-0.3-0.3-0.4c-0.2,0-0.4-0.1-0.7-0.1L132.8,1.2z"/>
	<path d="M141.9,5.9c-0.2,0.6-0.7,2-0.9,2.4c-0.1,0.4-0.2,0.7-0.2,0.9c0,0.4,0.2,0.8,0.2,1.1c0,0.3-0.1,0.5-0.4,0.5
		c-0.2,0-0.4-0.2-0.6-0.5c-0.4-0.5-0.7-1.6-0.7-2.9c0-1.3,0.4-2.6,0.6-3.3c0.2-0.6,0.3-1,0.3-1.5c0-0.5-0.3-0.9-0.7-1.3l0.2-0.1
		c0.3,0.1,0.5,0.2,0.7,0.4c0.3,0.2,0.9,0.8,0.9,1.4c0,0.3-0.2,0.5-0.5,1.2C140.5,4.7,140,6,140,7.2c0,0.6,0.1,0.9,0.2,1.1
		c0.1,0.2,0.2,0.2,0.3,0c0.3-0.4,0.9-1.9,1.2-2.5L141.9,5.9z M146.7,4.4c0,1.2,0.1,2.3,0.2,3.2c1,0.3,1.6,0.7,2,1.1
		c0.3,0.2,0.4,0.5,0.4,0.7c0,0.3-0.1,0.5-0.4,0.5c-0.2,0-0.4-0.2-0.6-0.4c-0.4-0.4-0.8-0.7-1.3-1c0,0.1,0,0.2,0,0.3
		c0,1-0.6,1.6-2.1,1.6c-1.1,0-2-0.5-2-1.4c0-1.1,1.1-1.5,2.4-1.5c0.3,0,0.5,0,0.8,0c0-0.8-0.1-2-0.1-3c-0.4,0.1-0.9,0.1-1.3,0.1
		c-0.7,0-1.3-0.1-1.9-1.2l0.2-0.2c0.5,0.4,1,0.6,1.7,0.6c0.5,0,1,0,1.4-0.1c0-0.6,0-1.2,0-1.5c0-0.3-0.1-0.4-0.2-0.5
		c-0.2-0.1-0.5-0.1-0.9-0.1l0-0.2c0.3-0.1,0.6-0.3,0.9-0.3c0.6,0,1.3,0.4,1.3,0.6c0,0.3-0.1,0.3-0.2,0.8c0,0.2-0.1,0.6-0.1,0.9
		c0.2-0.1,0.4-0.1,0.5-0.2c0.6-0.2,0.8-0.4,0.9-0.4c0.3,0,0.7,0.2,0.7,0.4s-0.2,0.4-0.6,0.5c-0.3,0.1-0.9,0.3-1.6,0.4V4.4z
		 M146.1,8.2c-0.4-0.1-0.8-0.1-1.2-0.1c-0.7,0-1.5,0.3-1.5,0.9c0,0.5,0.5,0.7,1.2,0.7C145.9,9.6,146.1,9.1,146.1,8.2L146.1,8.2z"/>
	<path d="M2.4,19.8c0.4,0.3,0.8,0.6,1.2,0.6c0.5,0,1.5-0.1,2.7-0.3c1.8-0.3,1.7-0.6,2-0.6c0.5,0,1.3,0.3,1.3,0.6
		c0,0.2-0.1,0.4-0.5,0.4c-0.5,0.1-1.8,0.2-3,0.3c0.4,0.2,0.7,0.4,0.7,0.6c0,0.2-0.2,0.4-0.2,0.8c-0.1,0.5-0.1,1.5-0.2,2.4
		c0.9-0.1,1.7-0.1,2.4-0.2c0.6,0,0.7-0.2,0.9-0.2c0.5,0,1.5,0.5,1.5,0.9c0,0.3-0.2,0.4-0.4,0.4c-0.3,0-1.3-0.3-2.6-0.3
		c-1.3-0.1-3.8,0.2-5,0.5c-0.5,0.1-0.8,0.3-1.1,0.3c-0.4,0-1-0.6-1.1-0.9c-0.1-0.2-0.1-0.4-0.1-0.7l0.2-0.1c0.3,0.3,0.6,0.6,1,0.6
		c0.4,0,1.8-0.1,3.4-0.3c0-0.9,0.1-2.1,0.1-2.7c0-0.5-0.1-0.8-0.3-1.1c-0.8,0.1-1.4,0.2-1.7,0.2c-0.3,0-0.6-0.2-0.8-0.5
		c-0.2-0.2-0.4-0.5-0.5-0.8L2.4,19.8z"/>
	<path d="M16.6,17.9c0.2,0,0.4,0,0.8,0c0.6,0.1,1.3,0.5,1.3,0.7c0,0.2-0.2,0.3-0.3,0.6c-0.1,0.2-0.3,0.4-0.4,0.7c0.1,0,0.1,0,0.2,0
		c0.5,0,2-0.2,2.3-0.3c0.3-0.1,0.4-0.3,0.7-0.3c0.3,0,1.2,0.5,1.2,0.9c0,0.3-0.4,0.4-0.6,0.7c-1.7,3-4.1,5.5-7.7,6.9l-0.2-0.3
		c3.1-1.6,5.9-4.7,6.8-7.1c0-0.2,0-0.2-0.1-0.2c-0.3,0-1.4,0.2-1.8,0.3c-0.3,0.1-0.5,0.2-0.7,0.2c-0.1,0-0.3-0.1-0.5-0.3
		c-1,1.3-2.2,2.4-3.7,3.1l-0.2-0.2c1.9-1.4,3.6-3.8,3.6-4.5c0-0.2-0.3-0.4-0.7-0.6L16.6,17.9z"/>
	<path d="M31.2,23.6c0.7-0.8,1.4-1.7,1.8-2.3c0.1-0.1,0-0.2-0.1-0.2c-0.6,0.1-2.4,0.7-3.4,1c-0.1,1-0.1,2.1-0.1,2.8
		c0,1,0.2,1.1,1.5,1.1c1.6,0,2.2-0.3,2.5-0.3c0.4,0,0.9,0.2,0.9,0.5c0,0.3-0.2,0.4-0.6,0.4c-0.6,0.1-1.7,0.2-2.4,0.2
		c-2,0-2.7-0.1-2.7-1.8c0-0.8,0-1.9,0-2.7c-0.5,0.2-1.2,0.4-1.6,0.6c-0.5,0.2-0.5,0.4-0.9,0.4c-0.3,0-1-0.5-1.2-0.9
		c-0.1-0.2-0.1-0.4-0.1-0.7l0.2-0.1c0.2,0.3,0.5,0.6,0.8,0.6c0.4,0,2-0.5,2.8-0.7c0-1,0-2.2,0-2.6c0-0.3-0.4-0.4-1-0.5l0-0.2
		c0.4-0.1,0.7-0.2,1-0.2c0.5,0,1.3,0.5,1.3,0.8s-0.2,0.4-0.3,0.8c0,0.3-0.1,0.9-0.1,1.7c1-0.3,2.5-0.7,3.1-0.9
		c0.4-0.1,0.5-0.3,0.7-0.3c0.4,0,1.3,0.7,1.3,1.1c0,0.3-0.4,0.3-0.7,0.6c-0.6,0.6-1.5,1.3-2.5,2L31.2,23.6z"/>
	<path d="M38.2,19.2c0.3-0.1,0.6-0.3,0.9-0.3c0.6,0,1.4,0.6,1.4,0.9c0,0.2-0.3,0.4-0.3,0.8c-0.1,0.6-0.1,3.8-0.1,4.9
		c0,0.1,0,0.2,0.1,0.1c2.1-0.6,5-2.6,6.7-4.3l0.2,0.2c-1.5,2.1-3.8,3.8-6.4,5.1c-0.4,0.2-0.4,0.5-0.7,0.5c-0.3,0-1-0.7-1-1.1
		c0-0.2,0.2-0.4,0.2-0.8c0-0.8,0-4.4,0-5.3c0-0.3-0.1-0.4-1-0.6L38.2,19.2z"/>
	<path d="M58.7,20.1l0.3,0.2c-1.4,2.6-3.6,4.6-6.3,6.2C52.4,26.6,52.2,27,52,27c-0.5,0-1.3-0.6-1.5-1c-0.1-0.2-0.2-0.6-0.2-0.9
		l0.2-0.1c0.3,0.4,0.7,0.8,1.1,0.8C52.5,25.7,57,22.5,58.7,20.1z M50.4,18.9c1.5,0.3,3.2,1.1,3.2,2.1c0,0.3-0.2,0.6-0.5,0.6
		c-0.3,0-0.4-0.2-0.7-0.5c-0.6-0.7-1-1.2-2.1-1.9L50.4,18.9z"/>
	<path d="M63.8,18.2c0.3-0.1,0.6-0.2,0.9-0.2c0.5,0,1.4,0.5,1.4,0.8c0,0.3-0.2,0.3-0.3,0.7c-0.1,0.5-0.1,1.4-0.1,2
		c1.2,0.2,2.3,0.6,3,1c0.4,0.3,0.7,0.6,0.7,1c0,0.3-0.2,0.5-0.5,0.5c-0.5,0-0.6-0.5-1.4-1.1c-0.5-0.4-1.1-0.7-1.8-1c0,0.9,0,2.8,0,4
		c0,0.6,0,0.9,0,1.1c0,0.4-0.1,0.6-0.4,0.6c-0.5,0-0.7-0.6-0.7-1.2c0-0.3,0.1-0.5,0.2-1c0.1-0.9,0.1-2.7,0.1-3.6c0-1,0-2.3-0.1-2.9
		c0-0.4-0.3-0.5-0.9-0.6L63.8,18.2z"/>
	<path d="M73.7,21.2l0.1-0.3c0.6,0.1,1,0.2,1.6,0.4c0.8,0.3,1.3,0.7,1.3,1.3c0,0.2-0.1,0.4-0.4,0.4c-0.4,0-0.6-0.5-1.2-0.9
		C74.6,21.7,74.1,21.4,73.7,21.2z M82.7,20.4l0.3,0.2c-1.3,2.4-3.9,4.6-6.5,6.1c-0.3,0.2-0.4,0.5-0.8,0.5c-0.4,0-1.2-0.5-1.5-0.9
		c-0.2-0.2-0.3-0.7-0.3-0.9l0.2-0.1c0.3,0.4,0.7,0.8,1.1,0.8C76.2,26,80.6,23.3,82.7,20.4z M75.2,18.8l0.1-0.3
		c0.4,0.1,1,0.2,1.6,0.4c0.8,0.3,1.3,0.7,1.3,1.3c0,0.3-0.2,0.5-0.4,0.5c-0.4,0-0.6-0.5-1.3-1C76.1,19.3,75.6,19,75.2,18.8z"/>
	<path d="M85.6,21c0.3,0.3,0.5,0.6,0.8,0.6c0.8,0,4-0.5,6-0.7c0.8-0.1,1-0.2,1.2-0.2c0.6,0,1.3,0.3,1.3,0.7c0,0.3-0.1,0.4-0.4,0.4
		c-0.2,0-0.7-0.1-1.3-0.1c-0.5,0-1.5,0-2.5,0.1c0.3,0.2,0.6,0.4,0.6,0.6c0,0.3-0.3,0.3-0.5,0.7c-0.5,1.3-1.4,3.2-4.2,4.7l-0.2-0.2
		c2.8-1.9,3.6-4.6,3.6-5.3c0-0.2,0-0.3-0.2-0.5c-0.9,0.1-2,0.3-2.4,0.4c-0.4,0.1-0.7,0.3-1,0.3c-0.3,0-0.9-0.5-1-0.9
		c-0.1-0.2-0.1-0.4-0.1-0.6L85.6,21z M87.4,18.4c0.5,0.3,0.8,0.4,1.2,0.4c0.8,0,1.6-0.2,2.2-0.3c0.7-0.2,0.8-0.3,1.1-0.3
		c0.6,0,1,0.2,1,0.6c0,0.2-0.1,0.3-0.5,0.4c-0.9,0.2-2.7,0.5-3.7,0.5c-0.6,0-1-0.4-1.4-1.1L87.4,18.4z"/>
	<path d="M102.7,20.3c0.2,0,0.5,0,0.7,0.1c0.4,0.1,0.9,0.6,0.9,0.9c0,0.2-0.2,0.2-0.4,0.5c-0.3,0.4-0.8,0.8-1.3,1.4
		c0.3,0.2,0.5,0.4,0.5,0.5c0,0.1-0.1,0.3-0.1,0.5c0,1.3,0,2.6,0,3.1c0,0.4-0.1,0.6-0.4,0.6c-0.4,0-0.6-0.5-0.6-0.9
		c0-0.2,0.1-0.4,0.1-0.7c0.1-0.8,0.1-2,0.1-2.4c0-0.2,0-0.3-0.1-0.4c-0.6,0.5-2,1.5-3.5,2.1l-0.1-0.2c2.4-1.4,4.7-3.9,4.7-4.5
		c0-0.2-0.3-0.4-0.5-0.5L102.7,20.3z"/>
	<path d="M112.8,20.3c-0.1,0.1-0.2,0.2-0.5,0.1c-0.3,0.4-0.6,0.8-1,1.2l0.4,0.2c0,0.1-0.2,0.2-0.4,0.2v5.8c0,0.1-0.4,0.3-0.8,0.3
		h-0.2v-5.6c-0.6,0.5-1.2,1.1-1.9,1.5l-0.1-0.1c1.3-1.2,2.5-3.1,3.2-4.3L112.8,20.3z M112.6,17.8c-0.1,0.1-0.2,0.2-0.5,0.1
		c-0.8,0.8-2.1,1.9-3.5,2.7l-0.1-0.1c1.1-0.9,2.3-2.4,2.8-3.4L112.6,17.8z M118.5,20.2c0,0,0.7,0.6,1.1,0.9c0,0.1-0.1,0.2-0.3,0.2
		h-1.9v5.4c0,0.7-0.2,1.3-1.6,1.4c0-0.3-0.1-0.6-0.3-0.7c-0.2-0.2-0.6-0.3-1.4-0.4v-0.2c0,0,1.7,0.1,2.1,0.1c0.3,0,0.3-0.1,0.3-0.3
		v-5.3h-3.8l-0.1-0.3h5.4L118.5,20.2z M113.3,18.6l-0.1-0.4h4.2l0.6-0.8c0,0,0.7,0.6,1.1,0.9c0,0.1-0.2,0.2-0.3,0.2H113.3z"/>
	<path d="M124.1,20.2c-0.1,0.1-0.2,0.2-0.5,0.2c-0.2,0.4-0.5,0.9-0.9,1.3l0.5,0.2c0,0.1-0.2,0.2-0.3,0.2v5.8c0,0.1-0.4,0.3-0.8,0.3
		H122v-5.4c-0.5,0.5-1,1-1.5,1.5l-0.1-0.1c1.1-1.3,2-3.2,2.4-4.5L124.1,20.2z M124.1,17.8c-0.1,0.1-0.2,0.2-0.5,0.1
		c-0.7,0.8-1.8,2-3.1,2.7l-0.1-0.1c0.9-1,1.9-2.4,2.4-3.4L124.1,17.8z M124.9,24.8c0.2,1.2-0.1,2-0.5,2.4c-0.2,0.3-0.7,0.3-0.9,0
		c-0.1-0.3,0-0.6,0.3-0.7c0.4-0.3,0.9-1,0.9-1.6L124.9,24.8z M125.1,23.3v0.5c0,0.1-0.3,0.3-0.7,0.3h-0.1v-4l1,0.4h1.8v-1.3h-3.1
		l-0.1-0.3h3.2v-1.6l1.4,0.1c0,0.2-0.1,0.3-0.4,0.3v1.2h1.8l0.6-0.8c0,0,0.7,0.5,1.1,0.9c0,0.1-0.2,0.2-0.3,0.2H128v1.3h2.1l0.4-0.5
		l0.9,0.7c-0.1,0.1-0.2,0.2-0.4,0.2v2.8c0,0.1-0.3,0.2-0.7,0.2h-0.1v-0.5H125.1z M125.1,20.8V23h1.1v-2.2H125.1z M129.5,27
		c0.3,0.1,0.3,0.2,0.3,0.4c0,0.4-0.4,0.5-2,0.5h-1.1c-0.9,0-1.1-0.2-1.1-0.8v-2.7l1.2,0.1c0,0.1-0.1,0.3-0.3,0.3v2.1
		c0,0.1,0,0.2,0.4,0.2h0.9h0.9c0.1,0,0.2,0,0.2-0.1c0.1-0.2,0.2-0.7,0.3-1.2h0.2L129.5,27z M126.6,23.7c2.7,0.4,2.2,2.2,1.3,1.7
		c-0.2-0.6-0.8-1.2-1.4-1.6L126.6,23.7z M128.1,23v-2.2H127V23H128.1z M128.9,20.8V23h1.2v-2.2H128.9z M129.5,24.5
		c3,1.3,2.2,3.4,1.3,2.7c-0.1-0.9-0.8-1.9-1.4-2.6L129.5,24.5z"/>
	<path d="M133.2,24.3c0.8,3.4-1.4,3.1-0.7,2.1c0.3-0.4,0.5-1.1,0.5-2.1H133.2z M138.1,23.2c-0.1,0.1-0.2,0.2-0.5,0.2
		c-0.1,2.4-0.4,3.6-0.9,4c-0.3,0.3-0.7,0.3-1.1,0.3c0-0.2,0-0.4-0.2-0.6c-0.1-0.1-0.4-0.2-0.7-0.3v-0.2c0.3,0,0.9,0.1,1.1,0.1
		c0.2,0,0.3,0,0.4-0.1c0.3-0.3,0.5-1.3,0.7-3.4h-2.9v0.4c0,0.1-0.3,0.3-0.7,0.3h-0.1v-6.4l1,0.4h2.5l0.6-0.7c0,0,0.6,0.5,1,0.8
		c0,0.1-0.1,0.2-0.3,0.2h-2v1.3h0.7L137,19c0,0,0.6,0.4,0.9,0.8c0,0.1-0.1,0.2-0.3,0.2h-1.8v1.3h0.7l0.5-0.6c0,0,0.6,0.4,0.9,0.8
		c0,0.1-0.1,0.2-0.3,0.2h-1.7v1.3h0.9l0.5-0.5L138.1,23.2z M133.9,24.2c1.2,1.5,0.5,2.8-0.1,2.2c0.1-0.7,0-1.6-0.1-2.2L133.9,24.2z
		 M133.9,18.3v1.3h1.1v-1.3H133.9z M135,20h-1.1v1.3h1.1V20z M133.9,22.9h1.1v-1.3h-1.1V22.9z M134.6,24c1.6,1.2,0.9,2.4,0.4,1.9
		c0-0.6-0.3-1.3-0.6-1.8L134.6,24z M135.3,23.7c1.8,0.5,1.2,1.8,0.6,1.4c-0.1-0.4-0.4-1-0.8-1.3L135.3,23.7z M140.4,22.1
		c0.5,2.2,1.6,4.2,3.3,5l0,0.1c-0.4,0.1-0.7,0.4-0.8,0.9c-1.6-1.2-2.4-3.2-2.7-6h-0.7c0,2.1-0.3,4.4-2.3,6L137,28
		c1.4-1.8,1.6-4.1,1.6-6.4v-4l1.1,0.4h2.3l0.5-0.5l1.1,0.8c-0.1,0.1-0.3,0.2-0.5,0.2v4.1c0,0.1-0.5,0.3-0.8,0.3h-0.1v-0.7H140.4z
		 M139.5,21.8h2.6v-3.4h-2.6v3.2V21.8z"/>
	<path d="M154.4,18.5c0,0,0.8,0.6,1.2,1c0,0.1-0.1,0.2-0.3,0.2h-10.7l-0.1-0.3h3.8c-0.1,0-0.2-0.1-0.3-0.1c-0.1-0.7-0.7-1.5-1.2-2
		l0.1-0.1c2.4,0.6,2.3,2.1,1.6,2.2h2.3c0.4-0.7,0.8-1.6,1.1-2.3l1.5,0.4c0,0.1-0.2,0.2-0.5,0.2c-0.4,0.5-1.1,1.1-1.7,1.6h2.5
		L154.4,18.5z M148.9,20.4l1.1,0.8c-0.1,0.1-0.3,0.2-0.5,0.2V27c0,0.7-0.1,1.1-1.2,1.2c0-0.3-0.1-0.5-0.2-0.6
		c-0.1-0.1-0.3-0.3-0.8-0.3V27c0,0,0.8,0.1,1,0.1c0.2,0,0.2-0.1,0.2-0.2V25h-2.1v2.8c0,0.1-0.4,0.3-0.8,0.3h-0.2v-7.6l1,0.4h1.9
		L148.9,20.4z M146.4,21.3v1.5h2.1v-1.5H146.4z M148.5,24.7v-1.6h-2.1v1.6H148.5z M151.9,26c0,0.1-0.4,0.3-0.7,0.3H151v-5.5l1.3,0.1
		c0,0.2-0.1,0.3-0.4,0.3V26z M153.5,20.5l1.4,0.1c0,0.2-0.1,0.3-0.4,0.3v6c0,0.7-0.2,1.1-1.4,1.2c0-0.3-0.1-0.5-0.3-0.6
		c-0.2-0.1-0.5-0.3-1-0.3V27c0,0,1.2,0.1,1.5,0.1c0.2,0,0.3-0.1,0.3-0.2V20.5z"/>
	<path d="M159.7,17.9c0.4,0,0.7,0.1,0.9,0.3c0.4,0.2,0.8,0.6,0.8,0.9c0,0.2-0.3,0.3-0.4,0.6c-0.3,0.5-0.5,0.9-0.8,1.3
		c0.1,0,0.3,0.1,0.4,0.1c0.6,0,3.2-0.4,3.9-0.5c0.5-0.1,0.6-0.3,0.9-0.3c0.5,0,1.1,0.3,1.1,0.6c0,0.2-0.1,0.4-0.5,0.4
		c-0.4,0-1.1,0-1.7,0c-0.4,0-1.1,0.1-1.7,0.2c0.5,0.2,0.9,0.6,0.9,0.8c0,0.2-0.2,0.3-0.3,0.6c-0.8,2-2.3,3.7-4.7,5l-0.2-0.2
		c2.4-1.6,4-4.2,4-5.4c0-0.3-0.1-0.4-0.3-0.6c-0.2,0-0.4,0.1-0.6,0.1c-0.3,0-0.6,0.1-0.8,0.1c-0.2,0-0.4-0.2-0.6-0.4
		c-0.7,0.9-1.6,1.8-2.8,2.5l-0.2-0.2c1.8-1.5,3.3-4,3.3-4.8c0-0.3-0.2-0.5-0.5-0.8L159.7,17.9z M164.5,18.1c0.6,0.2,1,0.5,1.3,0.7
		c0.3,0.3,0.4,0.5,0.4,0.7c0,0.2-0.1,0.3-0.3,0.3c-0.2,0-0.3-0.2-0.6-0.5c-0.2-0.3-0.5-0.7-1-1.1L164.5,18.1z M165.6,17.4
		c0.6,0.2,1.1,0.4,1.4,0.7c0.3,0.3,0.4,0.5,0.4,0.7c0,0.2-0.1,0.3-0.3,0.3c-0.2,0-0.3-0.3-0.6-0.6c-0.3-0.3-0.5-0.6-1-1L165.6,17.4z
		"/>
	<path d="M170.8,19.1c0.2,0.3,0.5,0.7,0.9,0.7c0.7,0,3-0.4,3.6-0.6c0.3-0.1,0.4-0.3,0.6-0.3c0.4,0,1.3,0.7,1.3,1
		c0,0.3-0.4,0.4-0.6,0.6c-0.4,0.6-1.1,1.7-1.9,2.7c2,0.8,3.8,2.1,3.8,3.2c0,0.3-0.2,0.5-0.5,0.5c-0.4,0-0.6-0.4-1.2-1.1
		c-0.7-0.9-1.4-1.7-2.5-2.3c-1.1,1.2-2.9,2.7-5.3,3.6l-0.2-0.3c2.8-1.5,5.7-4.4,6.8-6.8c0.1-0.2,0-0.2-0.1-0.2
		c-0.7,0.1-2.4,0.5-3,0.7c-0.4,0.1-0.5,0.3-0.8,0.3c-0.4,0-0.9-0.6-1-0.9c-0.1-0.2-0.1-0.5-0.1-0.8L170.8,19.1z"/>
	<path d="M183.8,18.2c0.3-0.1,0.6-0.2,0.9-0.2c0.5,0,1.4,0.5,1.4,0.8c0,0.3-0.2,0.3-0.3,0.7c-0.1,0.5-0.1,1.4-0.1,2
		c1.2,0.2,2.3,0.6,3,1c0.4,0.3,0.7,0.6,0.7,1c0,0.3-0.2,0.5-0.5,0.5c-0.5,0-0.6-0.5-1.4-1.1c-0.5-0.4-1.1-0.7-1.8-1c0,0.9,0,2.8,0,4
		c0,0.6,0,0.9,0,1.1c0,0.4-0.1,0.6-0.4,0.6c-0.5,0-0.7-0.6-0.7-1.2c0-0.3,0.1-0.5,0.2-1c0.1-0.9,0.1-2.7,0.1-3.6c0-1,0-2.3-0.1-2.9
		c0-0.4-0.3-0.5-0.9-0.6L183.8,18.2z"/>
	<path d="M198.4,18.1c0.3-0.1,0.6-0.2,0.8-0.2c0.6,0,1.3,0.5,1.3,0.8c0,0.3-0.2,0.2-0.3,0.8c0,0.4,0,1,0,1.5
		c1.3-0.1,1.4-0.2,1.7-0.2c0.6,0,1.3,0.3,1.3,0.7c0,0.3-0.1,0.3-0.4,0.3c-0.3,0-0.8-0.1-1.8-0.1c-0.2,0-0.5,0-0.8,0
		c0,1.5-0.1,3-0.9,4c-0.6,0.9-1.7,1.6-3.2,2.1l-0.1-0.3c0.9-0.5,2-1.1,2.7-2.2c0.6-0.9,0.7-2.3,0.7-3.7c-0.8,0.1-1.7,0.1-2.4,0.2
		c0,1,0,1.9,0,2.3c0,0.5-0.1,0.7-0.4,0.7c-0.3,0-0.6-0.6-0.6-0.9c0-0.4,0.2-0.7,0.2-2c-0.6,0.1-1,0.2-1.4,0.3
		c-0.3,0.1-0.6,0.3-0.8,0.3c-0.3,0-0.8-0.6-0.9-0.9c-0.1-0.2-0.1-0.5-0.1-0.7l0.2-0.1c0.2,0.3,0.5,0.7,0.8,0.7
		c0.4,0,1.6-0.1,2.3-0.2c0-0.6,0-1.5-0.1-1.8c-0.1-0.3-0.3-0.3-0.9-0.4v-0.2c0.2-0.1,0.5-0.2,0.7-0.2c0.4,0,1.2,0.4,1.2,0.7
		c0,0.3-0.2,0.3-0.2,0.7c0,0.2,0,0.7,0,1.1l2.4-0.2c0-1,0-1.7,0-2.2c0-0.3-0.3-0.3-0.9-0.4L198.4,18.1z"/>
	<path d="M206,19.6c0.6,0.1,1,0.2,1.5,0.6c0,0,0,0,0,0c1.2-0.1,3.9-0.3,4.4-0.4c0.4,0,0.5-0.3,0.8-0.3c0.3,0,1.3,0.8,1.3,1.1
		c0,0.3-0.4,0.4-0.5,0.7c-0.1,0.6-0.4,2-0.6,3.3c0.4,0,0.8,0.2,0.8,0.5c0,0.2-0.1,0.4-0.4,0.4c-0.3,0-0.9-0.1-1.5-0.1
		c-0.9,0-2.5,0.1-3.9,0.2c0,0.1,0,0.3,0,0.4c0,0.3-0.1,0.5-0.4,0.5c-0.3,0-0.6-0.4-0.6-0.9c0-0.3,0-0.9,0-1.4c0-0.8-0.2-2.7-0.3-3.4
		c-0.1-0.4-0.3-0.7-0.7-1L206,19.6z M212,24.7c0.2-1.4,0.5-3.3,0.5-4c0-0.1,0-0.1-0.2-0.1c-0.7,0-2.5,0.1-3.2,0.2
		c-0.4,0-0.7,0.2-1,0.2c-0.1,0-0.3-0.1-0.5-0.2c0,0.8,0.1,3,0.2,4.2C209,24.9,210.8,24.7,212,24.7z"/>
	<path d="M226.7,20.1l0.3,0.2c-1.4,2.6-3.6,4.6-6.3,6.2c-0.3,0.2-0.4,0.5-0.7,0.5c-0.5,0-1.3-0.6-1.5-1c-0.1-0.2-0.2-0.6-0.2-0.9
		l0.2-0.1c0.3,0.4,0.7,0.8,1.1,0.8C220.5,25.7,225,22.5,226.7,20.1z M218.4,18.9c1.5,0.3,3.2,1.1,3.2,2.1c0,0.3-0.2,0.6-0.5,0.6
		c-0.3,0-0.4-0.2-0.7-0.5c-0.6-0.7-1-1.2-2.1-1.9L218.4,18.9z"/>
	<path d="M228.5,22.6l0.2-0.1c0.3,0.2,0.6,0.4,0.8,0.4c0.2,0,0.4-0.1,0.6-0.3c0.6-0.5,1.6-1.7,2-2.1c0.3-0.3,0.5-0.4,0.8-0.4
		c0.4,0,0.7,0.1,1.1,0.5c1.3,1.3,2.5,3,4.8,4.3c0.4,0.2,0.6,0.5,0.6,0.9c0,0.3-0.2,0.5-0.5,0.5c-0.5,0-1.5-0.8-2.6-1.8
		c-1-1-2-2.3-2.8-3.2c-0.2-0.2-0.4-0.3-0.6-0.3c-0.1,0-0.3,0.1-0.5,0.3c-0.4,0.5-1.3,1.7-1.7,2.3c-0.3,0.4-0.5,0.7-0.8,0.7
		c-0.4,0-0.9-0.3-1.2-0.7C228.6,23.2,228.6,22.9,228.5,22.6z"/>
</g>
</svg>
