<?xml version="1.0" encoding="utf-8"?>
<!-- Generator: Adobe Illustrator 24.0.1, SVG Export Plug-In . SVG Version: 6.00 Build 0)  -->
<svg version="1.1" id="レイヤー_1" xmlns="http://www.w3.org/2000/svg" xmlns:xlink="http://www.w3.org/1999/xlink" x="0px"
	 y="0px" viewBox="0 0 319.4 147.3" style="enable-background:new 0 0 319.4 147.3;" xml:space="preserve">
<style type="text/css">
	.st0{fill:#404040;}
</style>
<g>
	<g>
		<path d="M57,24c0,2.2,0.5,3.8,4.3,3.8c2.8,0,4.1-0.7,4.5-0.7c0.5,0,1.1,0.3,1.1,0.7c0,0.4-0.2,0.6-0.7,0.8
			c-0.8,0.3-2.4,0.5-4.6,0.5c-4.5,0-5.7-2.1-5-5.2L57,24z M59.1,20.8c0.8-0.5,1.8-1.2,2.4-1.6c0.2-0.1,0.2-0.2-0.1-0.2
			c-1.9,0-3.2-0.2-4.3-1.6l0.2-0.3c1.2,0.7,1.9,0.9,3.3,0.9c2.1,0,2.5-0.4,3.2-0.4c0.7,0,1.7,0.4,1.7,0.9c0,0.3-0.2,0.5-0.7,0.6
			c-0.5,0.1-1,0.2-1.8,0.4c-0.9,0.3-2.4,1-3.7,1.6L59.1,20.8z M65.2,15.9c0.9,0.3,1.6,0.7,2,1.1c0.4,0.4,0.6,0.7,0.6,1
			c0,0.3-0.2,0.5-0.5,0.5c-0.3,0-0.5-0.3-0.8-0.8c-0.3-0.4-0.8-1-1.5-1.6L65.2,15.9z M66.7,14.9c0.9,0.3,1.6,0.6,2,0.9
			c0.5,0.4,0.6,0.7,0.6,1.1c0,0.3-0.1,0.5-0.4,0.5c-0.3,0-0.5-0.4-0.8-0.8c-0.4-0.4-0.7-0.8-1.6-1.4L66.7,14.9z"/>
		<path d="M79.7,22.8c1.5,2.3,4.4,4.2,7,5l0,0.2c-0.5,0.1-1,0.5-1.2,1.2c-2.5-1.2-4.8-3.3-6.1-6.2v6.7c0,0.2-0.6,0.5-1.1,0.5H78V24
			c-1.7,2.2-4.1,4.1-7,5.4l-0.2-0.3c2.7-1.6,5-4,6.3-6.4h-5.9L71,22.3h7v-4.5h-6.1l-0.2-0.5H78v-2.8l2,0.2c-0.1,0.2-0.2,0.4-0.6,0.5
			v2.1h3.8l0.9-1.2c0,0,1.1,0.8,1.7,1.4c-0.1,0.2-0.2,0.3-0.5,0.3h-5.9v4.5h4.4l1-1.2c0,0,1.1,0.8,1.8,1.4c-0.1,0.2-0.2,0.3-0.4,0.3
			H79.7z M73.9,18.1c3.8,1.8,2.5,4.6,1.2,3.5c-0.1-1.1-0.7-2.4-1.4-3.3L73.9,18.1z M80.5,21.8c0.6-0.9,1.2-2.3,1.8-3.7l1.9,0.8
			c-0.1,0.2-0.3,0.3-0.7,0.3c-0.8,1.1-1.8,2.1-2.8,2.8L80.5,21.8z"/>
		<path d="M93.6,23.5c-1.1,0.8-2.6,1.9-4.7,3.3c0,0.2-0.2,0.4-0.3,0.5l-0.8-1.6c0.4-0.2,1.2-0.4,2.2-0.8v-5.1h-1.8L88,19.2h2v-4.4
			l2,0.2c0,0.2-0.2,0.4-0.6,0.5v3.8h0.2l0.7-1.2c0,0,0.9,0.8,1.3,1.4c-0.1,0.2-0.2,0.3-0.4,0.3h-1.9v4.6c0.7-0.3,1.5-0.6,2.3-1
			L93.6,23.5z M96.7,22.4c-0.3,0.5-0.5,0.9-0.9,1.4h5.6l0.7-0.7l1.4,1.2c-0.1,0.1-0.3,0.2-0.7,0.3c-0.2,3-0.7,4.7-1.5,5.3
			c-0.5,0.4-1.1,0.5-1.8,0.5c0-0.4-0.1-0.7-0.3-0.9c-0.2-0.2-0.7-0.4-1.3-0.5v-0.3c0.6,0.1,1.5,0.1,1.8,0.1c0.3,0,0.4,0,0.6-0.2
			c0.4-0.4,0.8-1.9,1-4.3h-1.1c-0.9,2.6-2.7,4.6-5.6,6L94.8,30c2.2-1.4,3.6-3.4,4.3-5.7h-1.1c-1.2,2.2-3.2,3.9-5.7,5.1L92,29.1
			c2-1.2,3.6-2.9,4.6-4.8h-1.2c-1,1.1-2.3,2-3.9,2.8l-0.2-0.2c1.7-1.1,3-2.7,3.8-4.4h-2.5l-0.1-0.5h8.8l0.9-1.1c0,0,1,0.7,1.6,1.3
			c-0.1,0.2-0.2,0.3-0.4,0.3H96.7z M95.7,20.8c0,0.1-0.6,0.4-1.1,0.4h-0.2v-6.4l1.4,0.6h4.3l0.7-0.8l1.5,1.2
			c-0.1,0.1-0.4,0.3-0.7,0.3v4.4c0,0.1-0.6,0.5-1.1,0.5h-0.2v-0.7h-4.6V20.8z M95.7,16v1.7h4.6V16H95.7z M100.3,19.9v-1.7h-4.6v1.7
			H100.3z"/>
		<path d="M108.5,24.1c-0.9,0-1.7-0.7-1.7-1.7s0.7-1.7,1.7-1.7s1.7,0.7,1.7,1.7S109.4,24.1,108.5,24.1z"/>
		<path d="M129.2,21.7c-0.1,0.1-0.3,0.2-0.7,0.2c-0.9,1.1-2.8,2.5-4.1,3.4l-0.2-0.1c0.8-0.9,1.9-2.4,2.5-3.6h-4.8v6.7
			c0,1.1-0.3,1.8-2.3,1.9c0-0.4-0.2-0.8-0.5-1c-0.3-0.2-0.9-0.4-1.9-0.5v-0.2c0,0,2.4,0.2,2.9,0.2c0.3,0,0.5-0.1,0.5-0.4v-6.7h-7
			l-0.2-0.5h8.6c-0.5-0.9-2-2.3-4.1-3.3l0.1-0.2c1.5,0.2,2.7,0.6,3.5,1c1-0.6,2.3-1.5,3.1-2.3h-9.1l-0.1-0.5h9.6l0.9-0.8l1.5,1.4
			c-0.2,0.1-0.3,0.2-0.7,0.2c-1.1,0.7-3.1,1.6-4.7,2.2c1.4,0.9,1.5,1.9,1,2.3h3.9l0.9-0.9L129.2,21.7z"/>
		<path d="M130.3,28.6c0.5-1.2,1-3,1.2-4.7l1.7,0.4c-0.1,0.2-0.2,0.3-0.6,0.4c-0.5,1.5-1.2,3.1-2.1,4L130.3,28.6z M135.1,20.1
			c3.5,1.6,2.4,4.1,1.2,3.1c-0.1-0.4-0.2-0.8-0.4-1.3l-1.3,0.3v7.6c0,0.1-0.4,0.4-1.1,0.4h-0.2v-7.7c-0.6,0.1-1.3,0.3-2.1,0.4
			c-0.1,0.2-0.3,0.3-0.4,0.4l-0.4-1.4c0.4,0,1.1,0,1.9-0.1c1-1.6,2.1-3.7,2.8-5.2l1.8,0.7c-0.1,0.2-0.3,0.3-0.7,0.3
			c-0.8,1.2-2.1,2.9-3.4,4.2c0.9-0.1,1.8-0.1,2.8-0.2c-0.3-0.5-0.5-1-0.8-1.4L135.1,20.1z M135.1,15.2c-0.1,0.2-0.3,0.3-0.6,0.3
			c-0.6,0.9-1.3,1.8-2,2.5c1.4,1.1,0.7,2.4-0.2,1.8c-0.2-0.8-1-1.8-1.7-2.4l0.2-0.2c0.6,0.1,1,0.3,1.4,0.5c0.4-0.9,0.8-2.1,1.1-3.2
			L135.1,15.2z M135.3,23.8c3.3,2,2,4.4,0.9,3.3c-0.1-1-0.6-2.4-1.1-3.2L135.3,23.8z M146,18.6c-0.1,0.2-0.4,0.3-0.7,0.3
			c-0.2,5.6-0.5,9.5-1.4,10.5c-0.5,0.6-1.3,0.8-2.2,0.8c0-0.4-0.1-0.8-0.4-1c-0.3-0.3-1.2-0.5-2-0.6l0-0.3c0.9,0.1,2.4,0.2,2.8,0.2
			c0.4,0,0.5-0.1,0.7-0.3c0.7-0.6,1-4.5,1.2-9.6H139c-0.6,1.1-1.2,2-1.9,2.7l-0.2-0.2c0.9-1.7,1.7-4.2,2.1-6.6l2,0.6
			c-0.1,0.2-0.3,0.4-0.6,0.4c-0.3,0.9-0.7,1.8-1.1,2.6h4.5l0.8-0.8L146,18.6z M139,20.9c4,1.9,2.8,4.9,1.4,3.7
			c-0.1-1.2-0.9-2.7-1.6-3.6L139,20.9z"/>
		<path d="M153.5,23.5c1.4-0.7,2.9-1.2,4.6-1.2c2,0,3.5,1.2,3.5,3.2c0,1.7-1.3,3.2-3.5,3.2c-1.3,0-2.4-0.6-3.2-1.9l0.3-0.3
			c0.6,0.6,1.5,1,2.7,1c1.6,0,2.5-1,2.5-2.4c0-1.2-0.8-2.2-2.6-2.2c-1.3,0-2.9,0.7-4.2,1.4c0.1,2.4,0.3,3,0.3,3.6
			c0,0.8-0.5,1.6-1.1,1.6c-0.4,0-0.5-0.6-1-1.1c-0.4-0.4-1.1-0.9-1.8-1.3c-0.5,0.5-0.7,0.7-1,0.7c-0.2,0-0.4-0.1-0.6-0.3
			c-0.3-0.3-0.4-0.5-0.4-0.8c0-0.5,0.1-0.6,0.5-0.6c0.5,0.1,0.7,0,1-0.2c0.6-0.3,1.9-1.4,3.1-2v-1.1v-2c-0.6,0.1-1.4,0.3-1.9,0.3
			c-0.9,0-1.6-0.2-2.3-1.9l0.3-0.2c0.8,0.8,1.1,1,2,1c0.5,0,1.2-0.2,1.9-0.3c0-1.2,0-2.3,0-2.7c0-0.4-0.1-0.5-0.4-0.6
			c-0.3-0.1-0.6-0.1-1.1-0.1l-0.1-0.3c0.4-0.2,0.8-0.4,1.3-0.4c0.7,0,1.9,0.6,1.9,1c0,0.4-0.3,0.7-0.4,1.2c-0.1,0.3-0.2,0.9-0.2,1.5
			c1.2-0.5,1.7-1,2-1c0.3,0,0.9,0,1,0.5c0,0.3-0.2,0.5-0.6,0.7c-0.6,0.3-1.7,0.7-2.5,0.9c-0.1,0.7-0.1,1.5-0.1,2.2V23.5z M152.6,25
			c-0.8,0.6-1.6,1.3-2.3,2c0.6,0.3,1.3,0.6,1.8,0.9c0.4,0.1,0.5,0,0.5-0.3V25z M157.8,17.9c0.8-0.2,1.5-0.3,2.3-0.2
			c1.4,0.2,2.6,1.4,2.7,2.5c0,0.4-0.2,0.7-0.6,0.8c-0.4,0.1-0.6-0.4-1.1-0.3c-0.3,0-1,0.3-1.3,0.5l-0.2-0.3c0.3-0.2,1.1-0.7,1.3-0.9
			c0.2-0.2,0.2-0.4,0-0.6c-0.6-0.9-1.9-1.1-3.1-1L157.8,17.9z"/>
		<path d="M166.6,20.5v9.2c0,0.2-0.5,0.5-1.1,0.5h-0.2V15l1.4,0.7h3.1l0.7-0.7l1.4,1.1c-0.1,0.1-0.3,0.2-0.6,0.3V21
			c0,0.1-0.7,0.4-1.1,0.4h-0.2v-1H166.6z M166.6,16.2v1.6h3.3v-1.6H166.6z M169.9,20v-1.7h-3.3V20H169.9z M175.9,23.2
			c-0.1,0.1-0.3,0.3-0.6,0.3v4c0,0.1-0.6,0.4-1.1,0.4H174v-1h-3.8v0.9c0,0.1-0.6,0.4-1.1,0.4h-0.2v-6l1.4,0.6h3.6l0.7-0.7
			L175.9,23.2z M174,26.5v-3.1h-3.8v3.1H174z M179.9,16.1c-0.1,0.1-0.4,0.3-0.7,0.3v12c0,1-0.2,1.5-1.9,1.7
			c-0.1-0.4-0.1-0.7-0.4-0.9c-0.2-0.2-0.6-0.4-1.4-0.5v-0.3c0,0,1.6,0.1,2,0.1c0.3,0,0.4-0.1,0.4-0.4v-7.8h-3.5v0.4
			c0,0.1-0.6,0.4-1.1,0.4h-0.2v-6.2l1.4,0.6h3.2l0.6-0.8L179.9,16.1z M174.3,16.2v1.6h3.5v-1.6H174.3z M177.8,20v-1.7h-3.5V20H177.8
			z"/>
		<path d="M183.4,19.7c0-0.9-0.2-1.4-1.3-2.3l0.1-0.2c0.4,0.1,0.9,0.1,1.2,0.3c0.7,0.3,1.6,1.1,1.6,1.9c0,0.8-0.7,1.8-0.7,3.7
			c0,2,0.9,3,1.6,3.3c0.3,0.1,0.5,0.1,0.6-0.1c0.5-0.8,1.1-2,1.6-3.1l0.4,0.2c-0.4,1.2-0.9,2.6-1,3.1c-0.1,0.8,0.2,0.9,0.2,1.3
			c0,0.5-0.6,0.9-1.4,0.5c-1.3-0.6-3-2.1-3.1-5.2C183.3,21.8,183.4,20.6,183.4,19.7z M191.3,19.2l0.1-0.4c1.7,0.2,2.5,0.8,3.4,1.7
			c1,1,1.5,2.6,1.5,3.8c0,0.8-0.3,1.2-0.8,1.2c-0.3,0-0.6-0.2-0.6-0.6c-0.1-0.7-0.2-2-0.9-3.3C193.4,20.4,192.5,19.7,191.3,19.2z"/>
		<path d="M207.6,15c-0.1,0.2-0.3,0.3-0.7,0.3c1.5,2.1,4.4,3.8,7.3,4.8l0,0.2c-0.6,0.2-1.1,0.7-1.2,1.2c-2.7-1.4-5.2-3.5-6.4-6
			c-1.6,2.5-4.9,5.3-8.2,6.7l-0.1-0.2c2.9-1.6,6.2-5.1,7.1-7.5L207.6,15z M210.3,23.1l1.6,1.2c-0.1,0.1-0.4,0.3-0.7,0.3v5
			c0,0.1-0.7,0.4-1.2,0.4h-0.2v-1.2h-7.1v0.9c0,0.1-0.6,0.4-1.2,0.4h-0.2v-7l1.5,0.7h6.8L210.3,23.1z M208.7,19.7c0,0,1,0.8,1.6,1.4
			c-0.1,0.2-0.2,0.3-0.5,0.3h-7.5l-0.1-0.5h5.6L208.7,19.7z M209.8,28.4v-4h-7.1v4H209.8z"/>
		<path d="M221.1,21.3c1.6-1,3.1-1.6,4.9-1.6c2.3,0,4.3,1.6,4.3,3.9c0,2.5-1.8,4.7-6.5,5.7l-0.2-0.4c4.3-1.6,5.2-3.8,5.2-5.7
			c0-1.6-1.2-2.9-3.1-2.9c-1.7,0-3.5,0.9-4.8,2c-0.1,1.8,0.1,3.7,0.2,4.7c0,0.5,0.1,0.8,0.1,1.2c0,0.7-0.3,1.5-0.8,1.5
			c-0.4,0-0.6-0.2-0.7-0.6c-0.1-0.4-0.2-0.8-0.3-1.2c-0.2-0.4-0.7-1.3-1.1-1.9c-0.3,0.5-0.6,0.9-0.9,1.3c-0.2,0.3-0.4,0.6-0.7,0.6
			c-0.3,0-0.5-0.3-0.5-0.7c0-0.4,0.1-0.6,0.4-1c0.7-0.8,2.5-2.9,3.7-4.7c0-0.4,0.1-0.8,0.1-1.2c-0.5,0.3-1.1,0.6-1.5,0.8
			c-0.4,0.2-0.5,0.6-0.8,0.6c-0.6,0-1.3-0.7-1.5-1.3c-0.1-0.3-0.1-0.5-0.1-0.8l0.3-0.1c0.3,0.5,0.5,0.7,0.8,0.7c0.4,0,2-0.7,2.9-1.1
			c0.1-1.1,0.3-2,0.3-2.5c0-0.4-0.1-0.5-0.4-0.6c-0.2-0.1-0.6-0.2-1-0.3v-0.3c0.3-0.1,0.7-0.2,1.1-0.2c0.8,0,1.7,0.8,1.7,1.3
			c0,0.3-0.2,0.5-0.4,1.2c-0.1,0.2-0.2,0.6-0.3,1.2l0,0c0.3,0.2,0.7,0.5,0.7,0.7c0,0.2-0.2,0.4-0.4,0.6c-0.2,0.2-0.5,0.5-0.7,0.9
			L221.1,21.3z M220.1,26.9c0-0.7,0-2.1,0-3.6c-0.5,0.7-1,1.5-1.5,2.2c0.5,0.6,1,1.2,1.2,1.4C220,27.2,220.1,27.2,220.1,26.9z"/>
		<path d="M241.3,16.1c0.4-0.2,0.8-0.4,1.2-0.4c0.9,0,1.9,0.7,1.9,1.2c0,0.3-0.3,0.4-0.4,1c0,0.5-0.1,1.1-0.1,1.8
			c1.3-0.3,2.2-0.4,2.5-0.4c0.7,0,1.5,0.3,1.5,0.9c0,0.4-0.3,0.5-0.8,0.5c-0.7,0-1.3-0.2-2.6,0c-0.2,0-0.4,0.1-0.7,0.1
			c-0.1,1.2-0.2,2.7-0.3,3.4c-0.2,0.8-0.6,1.3-1.3,1.3c-0.3,0-0.5-0.1-0.6-0.4c-0.3-0.5-1-0.9-1.7-1.2l0.1-0.3
			c0.8,0.2,1.6,0.4,1.9,0.4c0.3,0,0.5-0.1,0.6-0.4c0.1-0.5,0.2-1.7,0.2-2.6c-1.6,0.3-3.4,0.7-4.7,1.1c-0.1,1.5-0.1,3.1-0.1,3.8
			c0.1,1.7,0.4,2,2.5,2c2.1,0,3.5-0.5,4-0.5c0.6,0,1.2,0.2,1.2,0.7c0,0.4-0.2,0.5-0.8,0.7c-0.7,0.2-2.1,0.3-3.9,0.3
			c-2.6,0-4-0.5-4.1-2.5c-0.1-1,0-2.5-0.1-4.1c-1.9,0.6-2.6,1.1-3.1,1.1c-0.5,0-1.2-0.6-1.4-1.3c-0.1-0.2-0.1-0.6-0.1-1l0.3-0.1
			c0.3,0.4,0.7,0.9,1.1,0.9c0.4,0,2.1-0.4,3.2-0.7c0-1.1,0-2.2-0.1-2.7c-0.1-0.5-0.1-0.6-0.4-0.7c-0.3-0.1-0.7-0.2-1-0.2l0-0.3
			c0.4-0.1,0.8-0.3,1.2-0.3c0.8,0,1.9,0.7,1.9,1.1c0,0.3-0.3,0.4-0.4,1.1c0,0.4-0.1,1-0.1,1.7c1.2-0.3,3.2-0.8,4.7-1.1
			c0-1,0-2.3,0-3c0-0.3-0.2-0.4-0.5-0.5c-0.3-0.1-0.6-0.1-1-0.1L241.3,16.1z"/>
		<path d="M254.3,22.8c-0.3,0.9-1,2.8-1.2,3.4c-0.2,0.6-0.2,0.9-0.2,1.2c0,0.5,0.3,1.1,0.3,1.5c0,0.4-0.2,0.6-0.6,0.6
			c-0.3,0-0.6-0.3-0.9-0.7c-0.5-0.7-1-2.3-1-4c0-1.9,0.5-3.7,0.8-4.7c0.2-0.8,0.4-1.4,0.4-2.1c0-0.7-0.4-1.3-1-1.9l0.3-0.2
			c0.4,0.2,0.7,0.3,1,0.5c0.4,0.3,1.2,1.2,1.2,2c0,0.4-0.3,0.7-0.7,1.7c-0.5,1-1.2,2.8-1.2,4.5c0,0.8,0.1,1.2,0.3,1.6
			c0.1,0.2,0.3,0.2,0.4,0c0.4-0.6,1.3-2.7,1.7-3.6L254.3,22.8z M261.1,20.7c0,1.7,0.1,3.3,0.2,4.5c1.4,0.4,2.3,1,2.8,1.5
			c0.4,0.3,0.5,0.7,0.5,1c0,0.4-0.2,0.6-0.5,0.6c-0.3,0-0.5-0.2-0.9-0.6c-0.6-0.6-1.2-1-1.9-1.4c0,0.1,0,0.3,0,0.4
			c0,1.4-0.9,2.3-3,2.3c-1.5,0-2.8-0.7-2.8-2c0-1.5,1.6-2.2,3.4-2.2c0.4,0,0.8,0,1.1,0.1c-0.1-1.2-0.2-2.9-0.2-4.3
			c-0.6,0.1-1.2,0.1-1.8,0.1c-1.1,0-1.8-0.2-2.7-1.7l0.2-0.2c0.7,0.5,1.5,0.9,2.3,0.9c0.7,0,1.4-0.1,2-0.2c0-0.8,0-1.7,0-2.1
			c0-0.5-0.1-0.6-0.3-0.6c-0.3-0.1-0.8-0.2-1.2-0.2l0-0.3c0.4-0.2,0.9-0.4,1.3-0.4c0.9,0,1.8,0.5,1.8,0.9c0,0.4-0.2,0.5-0.3,1.2
			c-0.1,0.3-0.1,0.8-0.2,1.3c0.3-0.1,0.6-0.2,0.8-0.3c0.9-0.3,1.2-0.5,1.3-0.5c0.4,0,1,0.2,1,0.6c0,0.4-0.3,0.5-0.9,0.8
			c-0.4,0.2-1.3,0.4-2.2,0.6V20.7z M260.2,26c-0.5-0.1-1.1-0.2-1.8-0.2c-1,0-2.1,0.4-2.1,1.2c0,0.7,0.8,1,1.7,1
			C259.9,28.1,260.2,27.4,260.2,26L260.2,26z"/>
		<path d="M5.8,41.9c0.5,0.5,1.1,0.8,1.7,0.8c0.7,0,2.2-0.2,3.8-0.4c2.5-0.4,2.4-0.8,2.8-0.8c0.7,0,1.8,0.4,1.8,0.9
			c0,0.3-0.2,0.5-0.7,0.6c-0.6,0.1-2.6,0.3-4.3,0.4c0.6,0.3,1,0.6,1,0.9c0,0.3-0.2,0.6-0.3,1.1c-0.1,0.7-0.2,2.2-0.3,3.3
			c1.2-0.1,2.5-0.2,3.5-0.3c0.8-0.1,1-0.2,1.2-0.2c0.7,0,2.2,0.7,2.2,1.3c0,0.4-0.2,0.6-0.6,0.6c-0.5,0-1.8-0.4-3.7-0.5
			C12.3,49.6,8.7,50,7,50.4c-0.7,0.2-1.1,0.4-1.5,0.4c-0.5,0-1.4-0.8-1.6-1.2c-0.1-0.3-0.2-0.5-0.2-1L4,48.5
			c0.4,0.5,0.8,0.8,1.4,0.8c0.6,0,2.6-0.2,4.8-0.4c0.1-1.2,0.1-3,0.1-3.8c0-0.7-0.2-1.1-0.5-1.6c-1.1,0.2-2,0.3-2.4,0.3
			c-0.4,0-0.8-0.3-1.1-0.7C6,43,5.7,42.5,5.6,42.1L5.8,41.9z"/>
		<path d="M24.5,39.2c0.3,0,0.6-0.1,1.1,0c0.8,0.1,1.8,0.7,1.8,1c0,0.3-0.2,0.5-0.5,0.9c-0.2,0.3-0.4,0.6-0.6,0.9c0.1,0,0.2,0,0.3,0
			c0.7,0,2.8-0.3,3.3-0.4c0.5-0.1,0.6-0.4,0.9-0.4c0.4,0,1.7,0.7,1.7,1.3c0,0.4-0.6,0.5-0.8,1c-2.4,4.3-5.8,7.8-10.8,9.7l-0.3-0.4
			c4.4-2.3,8.3-6.6,9.7-10.1c0.1-0.2,0-0.3-0.2-0.3c-0.4,0-2,0.3-2.5,0.4c-0.4,0.1-0.7,0.2-1,0.2c-0.2,0-0.4-0.2-0.7-0.4
			c-1.4,1.8-3.1,3.4-5.2,4.4l-0.2-0.3c2.7-2,5.1-5.4,5.1-6.4c0-0.3-0.4-0.6-1-0.9L24.5,39.2z"/>
		<path d="M43.9,47.3c1.1-1.1,2-2.3,2.5-3.3c0.1-0.2,0-0.3-0.2-0.3c-0.9,0.1-3.4,1-4.9,1.5c-0.1,1.4-0.1,3-0.1,4
			c0,1.4,0.2,1.6,2.2,1.6c2.3,0,3.2-0.4,3.5-0.4c0.5,0,1.3,0.2,1.3,0.7c0,0.4-0.3,0.5-0.8,0.6C46.6,51.8,45.1,52,44,52
			c-2.8,0-3.8-0.2-3.8-2.5c0-1.1,0-2.7,0-3.9c-0.8,0.3-1.7,0.6-2.3,0.9c-0.6,0.3-0.7,0.6-1.2,0.6c-0.4,0-1.4-0.8-1.7-1.3
			c-0.1-0.3-0.1-0.6-0.1-1l0.3-0.1c0.3,0.5,0.6,0.8,1.1,0.8c0.6,0,2.8-0.6,4-1c0-1.4,0.1-3.1,0-3.7c0-0.4-0.5-0.5-1.4-0.7l0-0.3
			c0.5-0.2,1-0.3,1.4-0.3c0.7,0,1.9,0.7,1.9,1.1c0,0.4-0.3,0.6-0.4,1.2c-0.1,0.5-0.1,1.3-0.2,2.4c1.4-0.4,3.5-1,4.4-1.2
			c0.5-0.2,0.7-0.5,1-0.5c0.6,0,1.8,1,1.8,1.5c0,0.4-0.6,0.5-1,0.8c-0.8,0.8-2.1,1.9-3.5,2.8L43.9,47.3z"/>
		<path d="M52.4,41.1c0.4-0.2,0.9-0.4,1.3-0.4c0.8,0,2,0.8,2,1.3c0,0.3-0.4,0.6-0.4,1.1C55.1,44,55,48.4,55,50
			c0,0.2,0.1,0.2,0.2,0.2c2.9-0.9,7.1-3.7,9.5-6.1l0.3,0.3c-2.1,2.9-5.4,5.4-9,7.2c-0.6,0.3-0.6,0.7-1,0.7c-0.5,0-1.4-1.1-1.4-1.5
			c0-0.3,0.3-0.5,0.3-1.1c0.1-1.2,0.1-6.2,0-7.4c0-0.4-0.2-0.6-1.4-0.8L52.4,41.1z"/>
		<path d="M80.1,42.3l0.4,0.2c-2,3.7-5.2,6.5-8.9,8.9c-0.4,0.2-0.6,0.7-1,0.7c-0.7,0-1.8-0.8-2.2-1.4c-0.2-0.3-0.3-0.9-0.3-1.2
			l0.3-0.2c0.5,0.5,1,1.1,1.6,1.1C71.4,50.3,77.7,45.8,80.1,42.3z M68.4,40.7c2.1,0.5,4.5,1.6,4.5,3c0,0.5-0.3,0.8-0.7,0.8
			c-0.4,0-0.6-0.2-1.1-0.8c-0.8-1-1.4-1.6-2.9-2.7L68.4,40.7z"/>
		<path d="M85.9,39.6c0.5-0.1,0.8-0.3,1.2-0.3c0.8,0,2,0.7,2,1.1c0,0.4-0.3,0.5-0.4,1.1c-0.1,0.8-0.1,1.9-0.2,2.9
			c1.6,0.3,3.3,0.9,4.2,1.4c0.6,0.4,1,0.8,1,1.4c0,0.4-0.2,0.7-0.7,0.7c-0.7,0-0.9-0.7-2-1.6c-0.7-0.5-1.5-1-2.6-1.4
			c0,1.3,0,4,0,5.7c0,0.8,0.1,1.3,0.1,1.6c0,0.6-0.2,0.8-0.6,0.8c-0.7,0-1-0.9-1-1.7c0-0.4,0.2-0.7,0.2-1.4c0.1-1.3,0.1-3.9,0.1-5.1
			c0-1.4,0-3.3-0.1-4.1c-0.1-0.5-0.5-0.7-1.3-0.8L85.9,39.6z"/>
		<path d="M98.6,43.8l0.2-0.4c0.8,0.2,1.5,0.3,2.3,0.6c1.1,0.4,1.9,1,1.9,1.8c0,0.3-0.2,0.6-0.6,0.6c-0.6,0-0.9-0.6-1.8-1.3
			C99.9,44.6,99.3,44.2,98.6,43.8z M111.4,42.8l0.4,0.2c-1.9,3.4-5.5,6.5-9.3,8.7c-0.4,0.2-0.6,0.7-1.1,0.7c-0.6,0-1.7-0.7-2.1-1.3
			c-0.2-0.3-0.4-1-0.4-1.3l0.3-0.2c0.4,0.5,1,1.1,1.6,1.1C102.2,50.7,108.4,46.9,111.4,42.8z M100.8,40.5l0.2-0.4
			c0.6,0.1,1.4,0.3,2.2,0.6c1.2,0.5,1.8,1.1,1.8,1.8c0,0.4-0.3,0.7-0.6,0.7c-0.6,0-0.9-0.7-1.8-1.4C102,41.2,101.3,40.8,100.8,40.5z
			"/>
		<path d="M114.2,43.6c0.4,0.4,0.7,0.9,1.1,0.9c1.2,0,5.7-0.7,8.5-1c1.2-0.1,1.5-0.3,1.7-0.3c0.8,0,1.8,0.4,1.8,1
			c0,0.4-0.1,0.5-0.5,0.5c-0.3,0-1-0.1-1.9-0.1c-0.7,0-2.1,0.1-3.5,0.2c0.5,0.3,0.9,0.6,0.9,0.9c0,0.4-0.4,0.5-0.6,1.1
			c-0.7,1.8-1.9,4.6-5.9,6.7l-0.3-0.3c4-2.6,5-6.5,5-7.5c0-0.2-0.1-0.4-0.2-0.7c-1.3,0.2-2.8,0.5-3.3,0.6c-0.5,0.2-1,0.4-1.5,0.4
			c-0.4,0-1.2-0.7-1.4-1.2c-0.1-0.2-0.1-0.5-0.1-0.9L114.2,43.6z M116.7,40c0.7,0.5,1.2,0.6,1.7,0.6c1.1,0,2.3-0.2,3.1-0.4
			c1-0.2,1.2-0.5,1.5-0.5c0.8,0,1.5,0.3,1.5,0.8c0,0.3-0.2,0.4-0.7,0.5c-1.3,0.3-3.8,0.7-5.3,0.7c-0.9,0-1.4-0.5-2-1.5L116.7,40z"/>
		<path d="M136.9,42.7c0.3,0,0.6,0,1,0.1c0.6,0.2,1.3,0.8,1.3,1.3c0,0.3-0.3,0.3-0.6,0.7c-0.5,0.5-1.1,1.2-1.9,1.9
			c0.4,0.3,0.7,0.5,0.7,0.7c0,0.2-0.1,0.4-0.1,0.7c-0.1,1.8,0,3.7,0,4.4c0,0.5-0.2,0.8-0.6,0.8c-0.6,0-0.8-0.6-0.8-1.2
			c0-0.2,0.1-0.5,0.1-0.9c0.1-1.1,0.2-2.8,0.2-3.4c0-0.2-0.1-0.4-0.1-0.5c-0.9,0.7-2.8,2.2-5,3l-0.2-0.3c3.5-2,6.7-5.6,6.7-6.4
			c0-0.3-0.4-0.5-0.7-0.7L136.9,42.7z"/>
		<path d="M149.9,42.6c-0.1,0.2-0.3,0.3-0.7,0.2c-0.4,0.5-0.9,1.1-1.5,1.8l0.6,0.2c-0.1,0.1-0.2,0.3-0.5,0.3v8.2
			c0,0.1-0.6,0.4-1.1,0.4h-0.3v-7.9c-0.8,0.8-1.7,1.5-2.7,2.1l-0.2-0.2c1.8-1.7,3.6-4.4,4.5-6.1L149.9,42.6z M149.7,39.1
			c-0.1,0.2-0.3,0.2-0.6,0.2c-1.1,1.2-3,2.8-4.9,3.8l-0.2-0.2c1.5-1.3,3.2-3.4,4-4.8L149.7,39.1z M158,42.5c0,0,1,0.8,1.6,1.3
			c0,0.2-0.2,0.3-0.4,0.3h-2.7v7.6c0,1-0.3,1.8-2.3,1.9c0-0.4-0.2-0.8-0.5-1c-0.3-0.2-0.9-0.4-2-0.5v-0.3c0,0,2.4,0.2,2.9,0.2
			c0.4,0,0.5-0.1,0.5-0.4v-7.6h-5.4l-0.1-0.5h7.6L158,42.5z M150.7,40.2l-0.1-0.5h6l0.9-1.1c0,0,1,0.8,1.6,1.3
			c0,0.2-0.2,0.3-0.5,0.3H150.7z"/>
		<path d="M164.7,42.4c-0.1,0.2-0.3,0.3-0.7,0.2c-0.3,0.6-0.7,1.2-1.2,1.9l0.6,0.2c-0.1,0.2-0.2,0.3-0.5,0.3v8.2
			c0,0.1-0.5,0.5-1.1,0.5h-0.3v-7.7c-0.6,0.7-1.4,1.5-2.1,2.1l-0.2-0.2c1.5-1.8,2.8-4.6,3.4-6.4L164.7,42.4z M164.5,39
			c-0.1,0.2-0.3,0.3-0.7,0.2c-1,1.2-2.6,2.8-4.3,3.8l-0.2-0.2c1.3-1.4,2.7-3.4,3.4-4.8L164.5,39z M165.7,49c0.3,1.6-0.1,2.8-0.6,3.3
			c-0.3,0.4-1.1,0.4-1.3,0c-0.2-0.4,0-0.8,0.4-1c0.5-0.4,1.2-1.4,1.3-2.3L165.7,49z M166.1,46.9v0.6c0,0.1-0.4,0.4-1,0.4h-0.2v-5.7
			l1.4,0.6h2.5V41h-4.4l-0.1-0.5h4.5v-2.3l2,0.2c0,0.2-0.2,0.4-0.6,0.5v1.6h2.6l0.9-1.1c0,0,1,0.8,1.6,1.3c-0.1,0.2-0.2,0.3-0.4,0.3
			h-4.6v1.8h2.9l0.6-0.7l1.3,1c-0.1,0.1-0.3,0.2-0.6,0.3v4c0,0.1-0.5,0.3-1.1,0.3h-0.2v-0.8H166.1z M166.1,43.3v3.1h1.5v-3.1H166.1z
			 M172.2,52.2c0.4,0.1,0.5,0.3,0.5,0.5c0,0.5-0.5,0.8-2.8,0.8h-1.5c-1.3,0-1.5-0.3-1.5-1.1v-3.9l1.7,0.2c0,0.2-0.2,0.4-0.5,0.4v3
			c0,0.2,0,0.3,0.5,0.3h1.3h1.2c0.2,0,0.3-0.1,0.3-0.2c0.1-0.2,0.3-0.9,0.5-1.7h0.2L172.2,52.2z M168.1,47.4
			c3.9,0.5,3.2,3.2,1.8,2.4c-0.3-0.8-1.2-1.8-2-2.3L168.1,47.4z M170.3,46.4v-3.1h-1.6v3.1H170.3z M171.4,43.3v3.1h1.7v-3.1H171.4z
			 M172.2,48.6c4.2,1.8,3.1,4.9,1.8,3.8c-0.1-1.2-1.1-2.8-2-3.7L172.2,48.6z"/>
		<path d="M176.1,48.3c1.2,4.9-1.9,4.4-1,2.9c0.5-0.5,0.7-1.6,0.7-2.9H176.1z M183,46.7c-0.1,0.1-0.3,0.2-0.7,0.3
			c-0.2,3.4-0.6,5.1-1.3,5.7c-0.4,0.4-1,0.5-1.6,0.5c0-0.3-0.1-0.6-0.2-0.8c-0.2-0.2-0.6-0.3-1.1-0.4v-0.3c0.5,0,1.3,0.1,1.6,0.1
			c0.3,0,0.4,0,0.6-0.2c0.4-0.4,0.8-1.9,0.9-4.8h-4.1v0.6c0,0.1-0.4,0.4-1,0.4H176v-9l1.4,0.6h3.5l0.8-1c0,0,0.9,0.7,1.4,1.2
			c-0.1,0.2-0.2,0.3-0.4,0.3h-2.8v1.8h1l0.7-0.9c0,0,0.8,0.6,1.3,1.1c0,0.2-0.2,0.3-0.4,0.3h-2.5V44h0.9l0.7-0.9
			c0,0,0.8,0.6,1.3,1.1c-0.1,0.2-0.2,0.3-0.4,0.3h-2.5v1.9h1.3l0.7-0.7L183,46.7z M177.1,48.2c1.7,2.2,0.6,4-0.1,3.1
			c0.2-1,0-2.2-0.2-3.1L177.1,48.2z M177.1,39.8v1.8h1.5v-1.8H177.1z M178.7,42.1h-1.5V44h1.5V42.1z M177.1,46.4h1.5v-1.9h-1.5V46.4
			z M178.1,47.9c2.3,1.6,1.3,3.4,0.6,2.6c0-0.8-0.4-1.9-0.8-2.5L178.1,47.9z M179.1,47.5c2.5,0.7,1.8,2.5,0.9,1.9
			c-0.1-0.6-0.6-1.4-1.1-1.8L179.1,47.5z M186.3,45.2c0.7,3.1,2.3,5.9,4.7,7l0,0.2c-0.5,0.1-0.9,0.6-1.1,1.2
			c-2.3-1.7-3.4-4.5-3.9-8.5H185c-0.1,2.9-0.5,6.2-3.2,8.5l-0.3-0.2c2-2.6,2.2-5.9,2.2-9.1v-5.7l1.5,0.6h3.3l0.7-0.8l1.5,1.1
			c-0.1,0.1-0.4,0.3-0.7,0.3v5.8c0,0.1-0.7,0.4-1.1,0.4h-0.2v-1H186.3z M185,44.7h3.7v-4.9H185v4.6V44.7z"/>
		<path d="M204.7,40.1c0,0,1.1,0.8,1.7,1.4c-0.1,0.2-0.2,0.3-0.4,0.3h-15.1l-0.2-0.5h5.4c-0.1,0-0.3-0.1-0.4-0.2
			c-0.2-1-1-2.2-1.7-2.9l0.2-0.1c3.4,0.8,3.2,3,2.3,3.2h3.2c0.5-1,1.2-2.3,1.5-3.2l2.1,0.6c-0.1,0.2-0.3,0.3-0.6,0.3
			c-0.6,0.7-1.5,1.6-2.4,2.3h3.6L204.7,40.1z M197,42.8l1.5,1.2c-0.1,0.1-0.4,0.3-0.7,0.3v7.8c0,1-0.2,1.5-1.7,1.7
			c0-0.4-0.1-0.7-0.3-0.9c-0.2-0.2-0.5-0.4-1.1-0.4v-0.3c0,0,1.2,0.1,1.5,0.1c0.3,0,0.3-0.1,0.3-0.3v-2.6h-3v4
			c0,0.2-0.5,0.5-1.1,0.5h-0.2V42.9l1.4,0.6h2.7L197,42.8z M193.5,44.1v2.1h3v-2.1H193.5z M196.5,48.8v-2.2h-3v2.2H196.5z
			 M201.2,50.6c0,0.1-0.5,0.4-1,0.4h-0.2v-7.8l1.9,0.2c0,0.2-0.2,0.4-0.6,0.5V50.6z M203.6,42.8l1.9,0.2c-0.1,0.2-0.2,0.4-0.6,0.4
			V52c0,1-0.2,1.6-2,1.8c-0.1-0.4-0.1-0.7-0.4-0.9c-0.3-0.2-0.7-0.4-1.5-0.5v-0.3c0,0,1.8,0.1,2.1,0.1c0.3,0,0.4-0.1,0.4-0.3V42.8z"
			/>
		<path d="M211,39.2c0.5,0.1,1,0.2,1.3,0.4c0.5,0.3,1.2,0.9,1.2,1.2c0,0.3-0.4,0.4-0.6,0.8c-0.4,0.7-0.7,1.3-1.2,1.9
			c0.2,0.1,0.4,0.1,0.6,0.1c0.9,0,4.6-0.5,5.5-0.7c0.7-0.1,0.9-0.4,1.2-0.4c0.6,0,1.6,0.4,1.6,0.9c0,0.3-0.1,0.5-0.7,0.5
			c-0.6,0-1.6,0-2.4,0c-0.6,0-1.5,0.1-2.4,0.2c0.7,0.3,1.3,0.8,1.3,1.1c0,0.3-0.3,0.5-0.5,0.8c-1.1,2.8-3.2,5.3-6.6,7l-0.3-0.3
			c3.3-2.2,5.6-6,5.6-7.7c0-0.4-0.2-0.6-0.5-0.8c-0.3,0-0.6,0.1-0.9,0.1c-0.4,0.1-0.8,0.2-1.1,0.2c-0.3,0-0.6-0.3-0.9-0.5
			c-1,1.3-2.3,2.5-3.9,3.6l-0.3-0.3c2.6-2.2,4.6-5.6,4.6-6.8c0-0.4-0.2-0.7-0.8-1.1L211,39.2z M217.8,39.5c0.9,0.3,1.5,0.7,1.9,1.1
			c0.4,0.4,0.6,0.7,0.6,1.1c0,0.3-0.2,0.5-0.5,0.5c-0.3,0-0.5-0.3-0.8-0.7c-0.3-0.5-0.7-1-1.5-1.6L217.8,39.5z M219.4,38.5
			c0.9,0.3,1.5,0.6,2,0.9c0.4,0.4,0.6,0.7,0.6,1.1c0,0.3-0.2,0.5-0.5,0.5c-0.3,0-0.5-0.4-0.8-0.8c-0.4-0.4-0.7-0.8-1.5-1.4
			L219.4,38.5z"/>
		<path d="M225.3,40.9c0.3,0.4,0.7,1,1.2,1c1,0,4.2-0.6,5.2-0.8c0.4-0.1,0.6-0.5,0.9-0.5c0.6,0,1.8,1,1.8,1.4c0,0.4-0.6,0.5-0.8,0.9
			c-0.6,0.9-1.5,2.4-2.8,3.8c2.8,1.1,5.5,2.9,5.5,4.5c0,0.4-0.2,0.7-0.7,0.7c-0.5,0-0.8-0.5-1.6-1.5c-1-1.3-2-2.3-3.5-3.3
			c-1.6,1.6-4,3.8-7.5,5.1l-0.2-0.4c4-2.1,8.1-6.2,9.6-9.6c0.1-0.2,0-0.3-0.2-0.3c-1.1,0.2-3.4,0.7-4.3,1c-0.5,0.2-0.6,0.5-1.1,0.5
			c-0.6,0-1.3-0.8-1.5-1.3c-0.1-0.3-0.2-0.6-0.2-1.1L225.3,40.9z"/>
		<path d="M242.3,39.6c0.5-0.1,0.8-0.3,1.2-0.3c0.8,0,2,0.7,2,1.1c0,0.4-0.3,0.5-0.4,1.1c-0.1,0.8-0.1,1.9-0.2,2.9
			c1.6,0.3,3.3,0.9,4.2,1.4c0.6,0.4,1,0.8,1,1.4c0,0.4-0.2,0.7-0.7,0.7c-0.7,0-0.9-0.7-2-1.6c-0.7-0.5-1.5-1-2.6-1.4
			c0,1.3,0,4,0,5.7c0,0.8,0.1,1.3,0.1,1.6c0,0.6-0.2,0.8-0.6,0.8c-0.7,0-1-0.9-1-1.7c0-0.4,0.2-0.7,0.2-1.4c0.1-1.3,0.1-3.9,0.1-5.1
			c0-1.4,0-3.3-0.1-4.1c-0.1-0.5-0.5-0.7-1.3-0.8L242.3,39.6z"/>
		<path d="M261.6,39.5c0.4-0.2,0.8-0.3,1.1-0.3c0.8,0,1.9,0.7,1.9,1.1c0,0.4-0.3,0.3-0.4,1.1c0,0.6,0,1.4-0.1,2.1
			c1.9-0.2,2-0.3,2.4-0.3c0.8,0,1.8,0.4,1.8,1c0,0.4-0.2,0.5-0.5,0.5c-0.5,0-1.2-0.2-2.6-0.2c-0.3,0-0.7,0-1.1,0
			c-0.1,2.2-0.2,4.2-1.2,5.7c-0.9,1.2-2.5,2.3-4.6,3l-0.2-0.4c1.3-0.7,2.8-1.6,3.8-3.1c0.8-1.3,1-3.2,1-5.2
			c-1.2,0.1-2.4,0.2-3.5,0.3c0,1.4,0,2.7,0,3.3c0,0.7-0.2,1-0.6,1c-0.5,0-0.8-0.8-0.8-1.3c0-0.5,0.3-1,0.3-2.8
			c-0.8,0.1-1.5,0.3-2,0.4c-0.4,0.1-0.8,0.4-1.2,0.4c-0.5,0-1.2-0.9-1.3-1.2c-0.1-0.2-0.1-0.7-0.1-1l0.3-0.1c0.3,0.5,0.6,1,1.1,1
			c0.6,0,2.2-0.2,3.2-0.3c0-0.9,0-2.1-0.1-2.5c-0.1-0.4-0.5-0.5-1.2-0.6v-0.3c0.3-0.2,0.7-0.3,1.1-0.3c0.6,0,1.7,0.5,1.7,1.1
			c0,0.4-0.2,0.4-0.3,0.9c0,0.3-0.1,1-0.1,1.6l3.5-0.3c0-1.5,0-2.5-0.1-3.2c-0.1-0.4-0.5-0.5-1.2-0.6L261.6,39.5z"/>
		<path d="M271.1,41.7c0.8,0.1,1.5,0.3,2.1,0.8c0,0,0.1,0.1,0.1,0.1c1.7-0.1,5.5-0.4,6.2-0.5c0.6-0.1,0.7-0.5,1.1-0.5
			c0.5,0,1.8,1.1,1.8,1.6c0,0.4-0.6,0.6-0.7,1.1c-0.2,0.8-0.5,2.9-0.9,4.6c0.6,0.1,1.1,0.3,1.1,0.7c0,0.3-0.2,0.6-0.6,0.6
			c-0.4,0-1.3-0.1-2.2-0.1c-1.3,0-3.5,0.1-5.5,0.3c0,0.2,0,0.4,0,0.6c0,0.4-0.2,0.7-0.6,0.7c-0.4,0-0.8-0.5-0.8-1.3
			c0-0.4,0.1-1.3,0.1-2c0-1.2-0.2-3.8-0.5-4.9c-0.2-0.6-0.4-1-1-1.4L271.1,41.7z M279.6,48.8c0.3-1.9,0.7-4.7,0.7-5.6
			c0-0.1-0.1-0.2-0.2-0.2c-1,0-3.6,0.2-4.5,0.3c-0.5,0.1-1.1,0.2-1.4,0.2c-0.2,0-0.5-0.1-0.7-0.2c0.1,1.2,0.2,4.2,0.2,5.9
			C275.4,49.1,278,48.9,279.6,48.8z"/>
		<path d="M299.1,42.3l0.4,0.2c-2,3.7-5.2,6.5-8.9,8.9c-0.4,0.2-0.6,0.7-1,0.7c-0.7,0-1.8-0.8-2.2-1.4c-0.2-0.3-0.3-0.9-0.3-1.2
			l0.3-0.2c0.5,0.5,1,1.1,1.6,1.1C290.3,50.3,296.7,45.8,299.1,42.3z M287.3,40.7c2.1,0.5,4.5,1.6,4.5,3c0,0.5-0.3,0.8-0.7,0.8
			c-0.4,0-0.6-0.2-1.1-0.8c-0.8-1-1.4-1.6-2.9-2.7L287.3,40.7z"/>
		<path d="M300.3,45.9l0.3-0.2c0.4,0.3,0.8,0.6,1.1,0.6c0.2,0,0.5-0.2,0.8-0.5c0.8-0.7,2.3-2.3,2.9-3c0.4-0.4,0.7-0.6,1.2-0.6
			c0.5,0,1,0.2,1.6,0.7c1.9,1.8,3.5,4.2,6.8,6.1c0.6,0.3,0.8,0.8,0.8,1.2c0,0.4-0.2,0.7-0.7,0.7c-0.7,0-2.2-1.1-3.6-2.6
			c-1.4-1.5-2.8-3.3-4-4.6c-0.3-0.3-0.6-0.4-0.8-0.4c-0.2,0-0.4,0.2-0.7,0.5c-0.6,0.7-1.8,2.4-2.4,3.2c-0.4,0.6-0.7,1-1.2,1
			c-0.5,0-1.3-0.5-1.6-1C300.5,46.7,300.3,46.3,300.3,45.9z"/>
	</g>
</g>
<g>
	<g>
		<path d="M54.5,84.3c0-10,3.9-14.9,9.8-14.9c5.9,0,9.8,4.9,9.8,14.9c0,10-3.9,15.2-9.8,15.2C58.4,99.4,54.5,94.3,54.5,84.3z
			 M68.7,84.3c0-8.1-1.9-10.5-4.3-10.5c-2.5,0-4.4,2.4-4.4,10.5c0,8.2,1.9,10.7,4.4,10.7C66.8,94.9,68.7,92.4,68.7,84.3z"/>
		<path d="M79.8,94.2h6.2V75.9h-5.3v-3.6c2.9-0.5,4.9-1.3,6.7-2.4h4.3v24.3h5.4v4.7H79.8V94.2z"/>
		<path d="M102.2,95.6c7.9-7.1,12.5-12.5,12.5-17c0-2.9-1.6-4.7-4.3-4.7c-2.1,0-3.9,1.4-5.3,3l-3.1-3.1c2.7-2.8,5.3-4.4,9.2-4.4
			c5.5,0,9.1,3.5,9.1,8.9c0,5.3-4.3,10.9-9.6,16.1c1.5-0.2,3.4-0.3,4.7-0.3h6.3v4.9h-19.4V95.6z"/>
		<path d="M126.1,84.3c0-10,3.9-14.9,9.8-14.9c5.9,0,9.8,4.9,9.8,14.9c0,10-3.9,15.2-9.8,15.2C130,99.4,126.1,94.3,126.1,84.3z
			 M140.2,84.3c0-8.1-1.9-10.5-4.3-10.5c-2.5,0-4.4,2.4-4.4,10.5c0,8.2,1.9,10.7,4.4,10.7C138.4,94.9,140.2,92.4,140.2,84.3z"/>
		<path d="M150.1,85.6h10.7v4.1h-10.7V85.6z"/>
		<path d="M166.7,94.2h6.2V75.9h-5.3v-3.6c2.9-0.5,4.9-1.3,6.7-2.4h4.3v24.3h5.4v4.7h-17.4V94.2z"/>
		<path d="M202.3,74.7h-13v-4.8h19.3v3.5c-6.7,8.2-7.6,14.1-8.1,25.5h-5.8C195.1,88.8,196.8,82.4,202.3,74.7z"/>
		<path d="M214.4,94.2h6.2V75.9h-5.3v-3.6c2.9-0.5,4.9-1.3,6.7-2.4h4.3v24.3h5.4v4.7h-17.4V94.2z"/>
		<path d="M237,85.6h10.7v4.1H237V85.6z"/>
		<path d="M253.5,94.2h6.2V75.9h-5.3v-3.6c2.9-0.5,4.9-1.3,6.7-2.4h4.3v24.3h5.4v4.7h-17.4V94.2z"/>
		<path d="M276,91.7c0-3.7,2.3-6.1,5-7.6v-0.2c-2.2-1.6-3.8-3.8-3.8-6.9c0-4.7,3.7-7.6,8.7-7.6c5.1,0,8.4,3.1,8.4,7.7
			c0,2.9-1.8,5.2-3.7,6.6v0.2c2.7,1.5,4.9,3.8,4.9,7.8c0,4.4-3.9,7.8-9.8,7.8C280.2,99.4,276,96.2,276,91.7z M290.1,91.5
			c0-3-2.7-4.3-6.4-5.8c-1.6,1.3-2.7,3.2-2.7,5.4c0,2.6,2.2,4.3,4.9,4.3C288.3,95.4,290.1,94,290.1,91.5z M289.6,77.5
			c0-2.4-1.4-4-3.8-4c-2,0-3.5,1.3-3.5,3.6c0,2.7,2.2,4.1,5.3,5.3C289,80.8,289.6,79.2,289.6,77.5z"/>
		<path d="M299.8,84.3c0-10,3.9-14.9,9.8-14.9c5.9,0,9.8,4.9,9.8,14.9c0,10-3.9,15.2-9.8,15.2C303.7,99.4,299.8,94.3,299.8,84.3z
			 M314,84.3c0-8.1-1.9-10.5-4.3-10.5c-2.5,0-4.4,2.4-4.4,10.5c0,8.2,1.9,10.7,4.4,10.7C312.1,94.9,314,92.4,314,84.3z"/>
	</g>
	<g>
		<path d="M46.1,94.2c-1.5,0-2.6,1.2-2.6,2.6c0,1.4,1.2,2.6,2.6,2.6c1.4,0,2.6-1.2,2.6-2.6C48.7,95.4,47.5,94.2,46.1,94.2z
			 M46.1,99.2c-1.3,0-2.3-1-2.3-2.3c0-1.3,1-2.3,2.3-2.3c1.3,0,2.3,1,2.3,2.3C48.4,98.2,47.4,99.2,46.1,99.2z"/>
		<path d="M46.8,96.6C47,96.4,47,96.2,47,96c0-0.3-0.1-0.5-0.3-0.7c-0.2-0.2-0.4-0.2-0.8-0.2h-1v3.5h0.4V97h0.4l1,1.6h0.5l-1.1-1.7
			C46.5,96.9,46.7,96.8,46.8,96.6z M45.4,96.7v-1.2h0.5c0.5,0,0.7,0.2,0.7,0.6c0,0.2-0.1,0.3-0.2,0.4c-0.1,0.1-0.3,0.2-0.5,0.2H45.4
			z"/>
		<path d="M10.6,93c2.3,0,5.2-1.8,5.2-5.4c0-2.8-2.8-5.1-5.2-6.5c-2.4,1.4-5.2,3.6-5.2,6.5C5.4,91.2,8.3,93,10.6,93z"/>
		<path d="M31.7,92.9c2.3,0,5.2-1.8,5.2-5.4c0-2.8-2.8-5.1-5.2-6.5c-2.4,1.4-5.2,3.6-5.2,6.5C26.5,91.2,29.3,92.9,31.7,92.9z"/>
		<path d="M0,75.9c4.4,0,8.1,1.1,10.7,2.4c2.6-1.3,6.2-2.4,10.4-2.4c4.3,0,7.9,1.1,10.4,2.4C34,77,37.8,76,42.2,75.9v-4.3H0V75.9z"
			/>
		<path d="M39.3,87.6c0,4.4-3.7,7.8-7.8,7.8c-4.1,0-7.6-3.4-7.6-7.8c0-3.3,2.4-6,5-7.7c-2.4-1-5.3-1.5-7.8-1.5
			c-2.5,0-5.4,0.5-7.8,1.5c2.6,1.7,5,4.4,5,7.7c0,4.4-3.6,7.8-7.6,7.8c-4.1,0-7.8-3.4-7.8-7.8c0-3.3,2.6-6,5.2-7.7
			c-2.4-1-5.3-1.5-8-1.5v20.8h42.2V78.3c-2.7,0-5.7,0.5-8,1.5C36.7,81.6,39.3,84.2,39.3,87.6z"/>
	</g>
</g>
<g>
	<path class="st0" d="M28.5,118.4c-0.6,1.3-1.6,2.3-2.7,3c1.3,0.6,2.8,1,4.4,1.2c-0.2,0.2-0.4,0.6-0.5,0.8c-1.8-0.3-3.4-0.7-4.8-1.5
		c-1.4,0.7-3.1,1.2-4.8,1.5c-0.1-0.2-0.3-0.6-0.5-0.8c1.6-0.2,3.2-0.6,4.5-1.2c-1-0.7-1.8-1.5-2.4-2.5l0.1,0h-0.5v-0.8h6.5l0.2,0
		L28.5,118.4z M20.6,118.3h-0.8v-2.4h1.9c-0.1-0.4-0.5-1.1-0.8-1.6l0.8-0.2c0.3,0.5,0.7,1.1,0.9,1.6l-0.7,0.2H27
		c0.4-0.6,0.9-1.4,1.1-2l0.9,0.3c-0.3,0.6-0.7,1.2-1.1,1.8h2.1v2.4h-0.9v-1.6h-8.5V118.3z M29.3,113.1c-2.4,0.5-6.1,0.8-9.2,0.9
		c0-0.2-0.1-0.6-0.2-0.8c3.1-0.1,6.7-0.4,8.8-0.9L29.3,113.1z M22.5,118.9c0.6,0.8,1.4,1.5,2.4,2.1c0.9-0.5,1.7-1.2,2.3-2.1H22.5z
		 M24.6,115.8c-0.1-0.5-0.3-1.2-0.6-1.8l0.8-0.2c0.3,0.6,0.6,1.3,0.6,1.7L24.6,115.8z"/>
	<path class="st0" d="M35.3,112.8c-0.4,0.9-0.8,1.8-1.3,2.6v8h-0.9v-6.6c-0.4,0.5-0.8,1-1.2,1.5c-0.1-0.2-0.4-0.7-0.6-0.9
		c1.2-1.2,2.4-3,3-4.8L35.3,112.8z M42.2,116h-1.5v6.2c0,0.7-0.2,0.9-0.6,1.1c-0.5,0.1-1.3,0.2-2.6,0.1c0-0.2-0.2-0.6-0.3-0.9
		c1,0,2,0,2.3,0c0.3,0,0.4-0.1,0.4-0.4V116H35v-0.9h4.8v-2.5h0.9v2.5h1.5V116z M37.5,120.6c-0.4-0.7-1.1-2-1.7-3l0.8-0.4
		c0.6,0.9,1.4,2.2,1.8,2.9L37.5,120.6z"/>
	<path class="st0" d="M47.2,121.1h-2.6v1h-0.8v-8.8h3.4V121.1z M44.6,114.1v2.7h1.7v-2.7H44.6z M46.3,120.3v-2.8h-1.7v2.8H46.3z
		 M52.8,117v1.4h1.4v0.8h-1.4v3.2c0,0.5-0.1,0.8-0.5,0.9c-0.4,0.1-1,0.1-1.9,0.1c0-0.2-0.2-0.6-0.3-0.8c0.7,0,1.4,0,1.6,0
		c0.2,0,0.3-0.1,0.3-0.2v-3.2h-4.5v-0.8H52V117h-4.6v-0.8h3v-1.5h-2.5v-0.8h2.5v-1.4h0.9v1.4h2.6v0.8h-2.6v1.5h3.1v0.8H52.8z
		 M48.9,119.6c0.6,0.6,1.3,1.5,1.6,2l-0.8,0.5c-0.3-0.6-0.9-1.5-1.5-2.1L48.9,119.6z"/>
	<path class="st0" d="M56.8,117.1v6.4h-0.9V113h4.3v4.1H56.8z M56.8,113.7v1h2.6v-1H56.8z M59.4,116.4v-1.1h-2.6v1.1H59.4z
		 M59.4,122.3v0.6h-0.8V118H63v4.3H59.4z M59.4,118.7v1.1h2.8v-1.1H59.4z M62.2,121.6v-1.2h-2.8v1.2H62.2z M65.8,122.2
		c0,0.6-0.1,0.9-0.5,1c-0.4,0.1-1,0.2-2,0.2c0-0.3-0.2-0.7-0.3-0.9c0.7,0,1.5,0,1.7,0c0.2,0,0.3-0.1,0.3-0.3v-5.1h-3.5V113h4.4
		V122.2z M62.2,113.7v1h2.7v-1H62.2z M64.9,116.4v-1.1h-2.7v1.1H64.9z"/>
	<path class="st0" d="M68.9,115.1c0-0.6,0.4-0.9,0.9-0.9c0.5,0,0.9,0.3,0.9,0.9s-0.4,0.9-0.9,0.9C69.3,116,68.9,115.6,68.9,115.1z
		 M68.9,121c0-0.6,0.4-0.9,0.9-0.9c0.5,0,0.9,0.4,0.9,0.9c0,0.5-0.4,0.9-0.9,0.9C69.3,121.9,68.9,121.5,68.9,121z"/>
	<path class="st0" d="M73.9,121.6h2V115h-1.6v-0.7c0.8-0.1,1.3-0.3,1.8-0.6h0.8v7.9h1.8v0.9h-4.8V121.6z"/>
	<path class="st0" d="M80.1,118.1c0-3.1,1.1-4.5,2.7-4.5c1.7,0,2.7,1.5,2.7,4.5c0,3.1-1.1,4.6-2.7,4.6
		C81.1,122.7,80.1,121.1,80.1,118.1z M84.5,118.1c0-2.6-0.7-3.6-1.7-3.6c-1,0-1.7,1.1-1.7,3.6c0,2.6,0.7,3.7,1.7,3.7
		C83.8,121.8,84.5,120.7,84.5,118.1z"/>
	<path class="st0" d="M88.2,115.1c0-0.6,0.4-0.9,0.9-0.9c0.5,0,0.9,0.3,0.9,0.9s-0.4,0.9-0.9,0.9C88.7,116,88.2,115.6,88.2,115.1z
		 M88.2,121c0-0.6,0.4-0.9,0.9-0.9c0.5,0,0.9,0.4,0.9,0.9c0,0.5-0.4,0.9-0.9,0.9C88.7,121.9,88.2,121.5,88.2,121z"/>
	<path class="st0" d="M92.7,118.1c0-3.1,1.1-4.5,2.7-4.5c1.7,0,2.7,1.5,2.7,4.5c0,3.1-1.1,4.6-2.7,4.6
		C93.8,122.7,92.7,121.1,92.7,118.1z M97.2,118.1c0-2.6-0.7-3.6-1.7-3.6c-1,0-1.7,1.1-1.7,3.6c0,2.6,0.7,3.7,1.7,3.7
		C96.5,121.8,97.2,120.7,97.2,118.1z"/>
	<path class="st0" d="M99.4,118.1c0-3.1,1.1-4.5,2.7-4.5c1.7,0,2.7,1.5,2.7,4.5c0,3.1-1.1,4.6-2.7,4.6
		C100.5,122.7,99.4,121.1,99.4,118.1z M103.8,118.1c0-2.6-0.7-3.6-1.7-3.6c-1,0-1.7,1.1-1.7,3.6c0,2.6,0.7,3.7,1.7,3.7
		C103.1,121.8,103.8,120.7,103.8,118.1z"/>
	<path class="st0" d="M111.1,118.3c-0.6-0.6-1.2-1-2-1c-0.9,0-1.8,0.6-2.3,1.6l-0.9-0.5c0.8-1.4,1.9-2.1,3.1-2.1
		c1.1,0,1.9,0.4,2.7,1.3c0.6,0.6,1.2,1,2,1c0.9,0,1.8-0.6,2.3-1.6l0.9,0.5c-0.8,1.4-1.9,2.1-3.1,2.1
		C112.7,119.6,112,119.1,111.1,118.3z"/>
	<path class="st0" d="M118.5,121.6h2V115h-1.6v-0.7c0.8-0.1,1.3-0.3,1.8-0.6h0.8v7.9h1.8v0.9h-4.8V121.6z"/>
	<path class="st0" d="M125.4,121.1c0.4,0.4,0.9,0.7,1.5,0.7c1.1,0,2.1-0.9,2.2-3.7c-0.5,0.7-1.3,1.1-2,1.1c-1.5,0-2.4-0.9-2.4-2.8
		c0-1.7,1.2-2.9,2.5-2.9c1.7,0,3,1.4,3,4.2c0,3.6-1.5,4.9-3.2,4.9c-0.9,0-1.6-0.4-2.1-0.9L125.4,121.1z M129.1,117.2
		c-0.1-1.8-0.8-2.8-1.9-2.8c-0.8,0-1.5,0.8-1.5,2c0,1.2,0.5,2,1.6,2C127.8,118.4,128.5,118,129.1,117.2z"/>
	<path class="st0" d="M132.9,115.1c0-0.6,0.4-0.9,0.9-0.9c0.5,0,0.9,0.3,0.9,0.9s-0.4,0.9-0.9,0.9
		C133.3,116,132.9,115.6,132.9,115.1z M132.9,121c0-0.6,0.4-0.9,0.9-0.9c0.5,0,0.9,0.4,0.9,0.9c0,0.5-0.4,0.9-0.9,0.9
		C133.3,121.9,132.9,121.5,132.9,121z"/>
	<path class="st0" d="M137.4,118.1c0-3.1,1.1-4.5,2.7-4.5c1.7,0,2.7,1.5,2.7,4.5c0,3.1-1.1,4.6-2.7,4.6
		C138.4,122.7,137.4,121.1,137.4,118.1z M141.8,118.1c0-2.6-0.7-3.6-1.7-3.6c-1,0-1.7,1.1-1.7,3.6c0,2.6,0.7,3.7,1.7,3.7
		C141.1,121.8,141.8,120.7,141.8,118.1z"/>
	<path class="st0" d="M144,118.1c0-3.1,1.1-4.5,2.7-4.5c1.7,0,2.7,1.5,2.7,4.5c0,3.1-1.1,4.6-2.7,4.6
		C145.1,122.7,144,121.1,144,118.1z M148.5,118.1c0-2.6-0.7-3.6-1.7-3.6c-1,0-1.7,1.1-1.7,3.6c0,2.6,0.7,3.7,1.7,3.7
		C147.8,121.8,148.5,120.7,148.5,118.1z"/>
	<path class="st0" d="M152.7,112.4h3v0.6h-2.2v9.9h2.2v0.6h-3V112.4z"/>
	<path class="st0" d="M162.5,116.5c0,1.4,0.9,4.7,5,6.1c-0.2,0.2-0.5,0.6-0.6,0.8c-3.5-1.3-4.6-4.1-4.9-5.2
		c-0.2,1.2-1.3,3.8-4.7,5.2c-0.1-0.2-0.4-0.6-0.6-0.7c4-1.5,4.8-4.8,4.8-6.2v-3.8h0.9V116.5z M159.4,115.1c-0.2,1.4-0.6,2.9-1.7,3.7
		l-0.8-0.5c1-0.7,1.4-2,1.6-3.3L159.4,115.1z M167,115.2c-0.6,1.1-1.3,2.5-2,3.3l-0.7-0.3c0.6-0.9,1.3-2.3,1.7-3.4L167,115.2z"/>
	<path class="st0" d="M171.1,116.7c0.7,0,1.3,0.6,1.3,1.3c0,0.7-0.6,1.3-1.3,1.3c-0.7,0-1.3-0.6-1.3-1.3
		C169.8,117.2,170.4,116.7,171.1,116.7z"/>
	<path class="st0" d="M179,115.7c-0.6,3.1-2.1,5.4-3.8,6.5c-0.1-0.2-0.5-0.6-0.7-0.7c1.6-1,2.8-2.8,3.4-5.1h-3.1v-0.9h3.5l0.2,0
		L179,115.7z M185.2,115c-0.9,1-2.2,2.3-3.3,3.1c0.9,1.6,2.2,2.9,3.8,3.6c-0.2,0.2-0.5,0.5-0.7,0.8c-2.1-1-3.5-3-4.5-5.5v5.1
		c0,0.6-0.2,0.9-0.6,1.1c-0.4,0.2-1.1,0.2-2.2,0.2c0-0.3-0.2-0.7-0.4-1c0.9,0,1.6,0,1.9,0c0.2,0,0.3-0.1,0.3-0.3v-9.7h0.9v2.2
		c0.3,0.9,0.6,1.9,1,2.7c1-0.8,2.1-2,2.8-3L185.2,115z"/>
	<path class="st0" d="M197.6,123H192v0.4h-0.8v-4.2c-0.3,0.3-0.5,0.6-0.8,0.8c-0.1-0.1-0.2-0.2-0.3-0.3v1.6h-2.3v1h-0.8v-8.9h3.1
		v5.9c0.7-0.7,1.4-1.7,1.8-2.5h-1.3v-0.6h2.2V115h-2v-0.6h2v-0.9h-2.2v-0.7h3v3.7h-1.1l0.3,0.1c-0.1,0.3-0.3,0.6-0.5,0.9h1.7
		c0.1-0.3,0.3-0.7,0.4-0.9h-0.3v-0.6h2.3V115h-2.1v-0.6h2.1v-0.9h-2.3v-0.7h3v3.7h-2.3l0.5,0.1c-0.1,0.3-0.3,0.6-0.4,0.8h2.4v0.7
		h-2.6v0.9h2.3v0.6h-2.3v0.9h2.3v0.6h-2.3v1h2.9V123z M187.9,114v2.7h1.5V114H187.9z M189.3,120.3v-2.8h-1.5v2.8H189.3z
		 M193.9,118.2H192v0.9h1.9V118.2z M193.9,119.8H192v0.9h1.9V119.8z M192,122.3h1.9v-1H192V122.3z"/>
	<path class="st0" d="M204.6,122.2c0.6,0.1,1.2,0.1,1.9,0.1c0.4,0,2.5,0,3.1,0c-0.1,0.2-0.3,0.6-0.3,0.9h-2.8
		c-2.5,0-4.3-0.4-5.4-2.5c-0.4,1.1-1,2-1.8,2.7c-0.1-0.2-0.5-0.5-0.7-0.6c1.3-1,2-2.7,2.2-4.9l0.9,0.1c-0.1,0.6-0.2,1.1-0.3,1.6
		c0.5,1.3,1.2,1.9,2.2,2.3v-5h-3v-0.8h6.9v0.8h-3.1v2h3.5v0.8h-3.5V122.2z M200,116.4h-0.9v-2.6h4.5v-1.4h0.9v1.4h4.5v2.6h-0.9v-1.8
		H200V116.4z"/>
	<path class="st0" d="M214.5,112.8c-0.4,0.9-0.8,1.8-1.3,2.6v8h-0.9v-6.7c-0.4,0.6-0.9,1.1-1.4,1.6c-0.1-0.2-0.4-0.7-0.5-0.9
		c1.3-1.1,2.5-2.9,3.2-4.8L214.5,112.8z M218.6,116.4c0.8,1.9,2,3.8,3.3,4.8c-0.2,0.2-0.5,0.5-0.7,0.7c-1.2-1.1-2.3-2.9-3.1-4.8v6.3
		h-0.9v-6.1c-0.8,1.9-1.9,3.6-3.1,4.6c-0.2-0.2-0.5-0.5-0.7-0.7c1.3-1,2.6-3,3.3-4.9h-2.9v-0.9h3.4v-2.9h0.9v2.9h3.5v0.9H218.6z"/>
	<path class="st0" d="M224.4,117.9c0-2.3,0.9-4.2,2.4-5.7l0.7,0.4c-1.4,1.4-2.2,3.2-2.2,5.3s0.9,3.9,2.2,5.3l-0.7,0.4
		C225.4,122.2,224.4,120.3,224.4,117.9z"/>
	<path class="st0" d="M232.9,119.9c-0.3-0.4-0.9-1.1-1.4-1.6v5.1h-0.9v-4.6c-0.6,0.6-1.1,1.1-1.7,1.5c-0.1-0.2-0.3-0.6-0.5-0.8
		c1.4-0.8,2.8-2.4,3.6-3.9h-3.1v-0.8h1.7v-2.2h0.9v2.2h1l0.2,0l0.5,0.3c-0.3,0.9-0.9,1.8-1.4,2.5c0.5,0.4,1.5,1.4,1.8,1.7
		L232.9,119.9z M238.7,122.6c0.3,0,0.3-0.3,0.4-1.7c0.2,0.1,0.5,0.3,0.7,0.3c-0.1,1.7-0.3,2.1-1,2.1h-1c-0.8,0-1-0.3-1-1.2v-4.3
		h-1.2c-0.1,2.7-0.5,4.5-2.6,5.5c-0.1-0.2-0.4-0.5-0.6-0.7c1.9-0.9,2.2-2.5,2.3-4.8h-1.2v-4.6h5.6v4.6h-1.5v4.3
		c0,0.4,0.1,0.4,0.3,0.4H238.7z M234.4,117.1h3.9v-3h-3.9V117.1z"/>
	<path class="st0" d="M250.1,113.3v9.9h-0.9v-0.7h-5.9v0.8h-0.9v-10H250.1z M243.2,114.2v3.2h5.9v-3.2H243.2z M249.1,121.6v-3.3
		h-5.9v3.3H249.1z"/>
	<path class="st0" d="M255.2,113.4c-0.1,0.2-0.2,0.6-0.2,0.8c-0.2,1.1-0.6,3.5-0.6,4.8c0,0.6,0,1,0.1,1.6c0.2-0.5,0.5-1.2,0.7-1.7
		l0.5,0.4c-0.3,0.8-0.7,2-0.8,2.6c0,0.2-0.1,0.4-0.1,0.5c0,0.1,0,0.3,0,0.4l-0.9,0.1c-0.2-0.9-0.5-2.2-0.5-3.8c0-1.7,0.4-4,0.5-5
		c0-0.3,0.1-0.6,0.1-0.8L255.2,113.4z M262.9,122c-0.6-0.6-1.2-1-1.8-1.4v0.2c0,1-0.5,1.9-2.1,1.9c-1.6,0-2.5-0.7-2.5-1.7
		c0-1,0.9-1.8,2.4-1.8c0.4,0,0.8,0,1.1,0.1c0-0.9-0.1-2.1-0.1-3c-0.4,0-0.8,0-1.1,0c-0.7,0-1.3,0-2-0.1v-0.9c0.7,0.1,1.3,0.1,2,0.1
		c0.4,0,0.7,0,1.1,0V114c0-0.2,0-0.5-0.1-0.7h1.1c0,0.2-0.1,0.5-0.1,0.7c0,0.3,0,0.9,0,1.4c0.7,0,1.4-0.1,2.1-0.3v0.9
		c-0.6,0.1-1.3,0.2-2.1,0.2c0,1.2,0.1,2.4,0.1,3.4c1,0.4,1.7,1,2.3,1.5L262.9,122z M260.2,120.3c-0.4-0.1-0.8-0.2-1.2-0.2
		c-0.9,0-1.5,0.4-1.5,0.9c0,0.6,0.6,0.9,1.4,0.9c1,0,1.3-0.5,1.3-1.3C260.2,120.5,260.2,120.4,260.2,120.3z"/>
	<path class="st0" d="M268.5,113.3c-0.4,1-0.8,2.2-1.2,3.2c0.9,1,1.1,1.8,1.1,2.6c0,0.6-0.1,1.1-0.5,1.4c-0.2,0.1-0.4,0.2-0.6,0.2
		c-0.2,0-0.5,0-0.8,0c0-0.2-0.1-0.6-0.2-0.8c0.3,0,0.5,0,0.7,0c0.2,0,0.3,0,0.4-0.1c0.2-0.1,0.2-0.5,0.2-0.8c0-0.6-0.2-1.5-1.1-2.4
		c0.3-0.9,0.7-1.9,0.9-2.8h-1.6v9.6h-0.8V113h2.7l0.1,0L268.5,113.3z M270.4,119.8c-0.4,1.1-1.1,2.2-1.7,2.9
		c-0.1-0.1-0.5-0.4-0.6-0.5c0.7-0.6,1.2-1.6,1.6-2.5L270.4,119.8z M272.2,112.5c0.9,1.3,2.3,2.6,3.5,3.3c-0.2,0.2-0.4,0.5-0.5,0.7
		c-1.2-0.8-2.6-2.1-3.4-3.2c-0.7,1.1-2,2.5-3.3,3.3c-0.1-0.2-0.3-0.5-0.5-0.7c1.4-0.8,2.7-2.2,3.4-3.4H272.2z M272.3,119v3.4
		c0,0.5-0.1,0.7-0.4,0.9c-0.3,0.1-0.8,0.2-1.5,0.2c0-0.2-0.2-0.6-0.3-0.8c0.6,0,1.1,0,1.2,0s0.2,0,0.2-0.2V119h-2.7v-0.8h2.7v-1.5
		h-1.8v-0.8h4.6v0.8h-1.9v1.5h2.9v0.8H272.3z M273.8,119.6c0.6,0.8,1.4,1.9,1.7,2.6l-0.7,0.4c-0.3-0.7-1-1.8-1.6-2.7L273.8,119.6z"
		/>
	<path class="st0" d="M284.5,113.7c-0.3,0.2-0.6,0.5-0.8,0.7c-0.8,0.7-2.5,2.1-3.4,2.8c-0.7,0.6-0.7,0.8,0,1.4
		c1.1,0.9,3.3,2.7,4.4,3.8l-0.9,0.8c-0.2-0.3-0.6-0.6-0.8-0.9c-0.6-0.7-2.6-2.4-3.7-3.3c-1.1-0.9-1-1.5,0.1-2.4
		c0.9-0.8,2.7-2.2,3.5-3c0.2-0.2,0.6-0.6,0.7-0.8L284.5,113.7z"/>
	<path class="st0" d="M291.8,117.9c0,2.3-0.9,4.2-2.4,5.7l-0.7-0.4c1.4-1.4,2.2-3.2,2.2-5.3s-0.9-3.9-2.2-5.3l0.7-0.4
		C290.8,113.7,291.8,115.6,291.8,117.9z"/>
	<path class="st0" d="M297.6,123.5h-3v-0.6h2.2V113h-2.2v-0.6h3V123.5z"/>
</g>
<g>
	<g>
		<path class="st0" d="M43.4,137l4-4l0.3,0.3l-4,4l4,4l-0.3,0.3l-4-4l-4,4l-0.3-0.3l4-4l-4-4l0.3-0.3L43.4,137z M40.9,137.4
			c0,0.5-0.4,0.9-0.9,0.9c-0.5,0-0.9-0.4-0.9-0.9c0-0.5,0.4-0.9,0.9-0.9C40.5,136.5,40.9,136.9,40.9,137.4z M43.4,134.9
			c-0.5,0-0.9-0.4-0.9-0.9c0-0.5,0.4-0.9,0.9-0.9c0.5,0,0.9,0.4,0.9,0.9C44.3,134.4,43.9,134.9,43.4,134.9z M43.4,139.9
			c0.5,0,0.9,0.4,0.9,0.9c0,0.5-0.4,0.9-0.9,0.9c-0.5,0-0.9-0.4-0.9-0.9C42.5,140.3,42.9,139.9,43.4,139.9z M45.9,137.4
			c0-0.5,0.4-0.9,0.9-0.9c0.5,0,0.9,0.4,0.9,0.9c0,0.5-0.4,0.9-0.9,0.9C46.3,138.3,45.9,137.9,45.9,137.4z"/>
		<path class="st0" d="M53.6,137.7c-0.4,0.1-0.9,0.3-1.4,0.4v3.6c0,0.5-0.1,0.7-0.4,0.9c-0.3,0.1-0.7,0.2-1.5,0.2
			c0-0.2-0.1-0.6-0.3-0.8c0.5,0,1,0,1.1,0c0.1,0,0.2,0,0.2-0.2v-3.3c-0.5,0.2-1,0.3-1.4,0.5l-0.2-0.9c0.5-0.1,1-0.3,1.7-0.5v-2.5
			h-1.5v-0.8h1.5v-2.4h0.8v2.4h1.3v0.3c0.7-0.7,1.2-1.7,1.6-2.7l0.8,0.2c-0.1,0.4-0.3,0.8-0.5,1.1h1.7c0.2-0.4,0.4-0.9,0.6-1.3
			l0.9,0.2c-0.2,0.4-0.4,0.7-0.6,1.1h2.5v0.7h-2.6v0.7h2.3v0.6h-2.3v0.8h2.3v0.6h-2.3v0.8h2.7v0.7h-6.2v-3.2
			c-0.2,0.3-0.5,0.5-0.7,0.8c-0.1-0.1-0.2-0.2-0.3-0.4h-1.2v2.2c0.4-0.1,0.8-0.3,1.2-0.4L53.6,137.7z M60.7,140
			c-0.2,1.6-0.3,2.2-0.6,2.5c-0.2,0.2-0.4,0.3-0.8,0.3c-0.3,0-0.8,0-1.4,0c0-0.2-0.1-0.5-0.3-0.7c0.6,0,1.2,0.1,1.4,0.1
			c0.2,0,0.3,0,0.4-0.1c0.2-0.2,0.3-0.6,0.4-1.7h-1.5c0,0.2-0.1,0.4-0.2,0.6l-0.8-0.1c0.1-0.4,0.3-0.9,0.4-1.5h-1.5
			c-0.2,1.8-1.1,2.8-2.6,3.5c-0.1-0.2-0.4-0.5-0.6-0.6c1.4-0.5,2.1-1.4,2.3-2.8h-1.7v-0.7h5c-0.1,0.3-0.1,0.7-0.2,1h2.2L60.7,140z
			 M57.1,133.9h-1.9v0.7h1.9V133.9z M57.1,135.2h-1.9v0.8h1.9V135.2z M57.1,136.5h-1.9v0.8h1.9V136.5z"/>
		<path class="st0" d="M72.8,133.2v0.8h-1.9v1.9H64v-1.9h-2v-0.8h2V132h0.8v1.2H67v-1.2h0.9v1.2H70V132h0.9v1.2H72.8z M62.4,136.6
			h10v2.4h-0.9v-1.6h-3.8v1.3h3.4v2.5c0,0.5-0.1,0.7-0.4,0.8c-0.3,0.1-0.9,0.1-1.7,0.1c0-0.3-0.2-0.6-0.3-0.8c0.6,0,1.2,0,1.4,0
			c0.2,0,0.2,0,0.2-0.2v-1.7h-2.6v3.6h-0.9v-3.6h-2.3v2.7h-0.9v-3.4h3.2v-1.3h-3.7v1.6h-0.8V136.6z M64.9,135.1H67v-1.2h-2.1V135.1z
			 M70,133.9h-2.2v1.2H70V133.9z"/>
		<path class="st0" d="M78.9,134.5h-3.8v1.7h-0.8v-2.3h4.6v-0.7h-3.9v-0.7h8.7v0.7h-4v0.7h4.7v2.3h-0.8v-1.7h-3.8v2.7h-0.9V134.5z
			 M83.3,142c0.6,0,0.8-0.2,0.8-1.4c0.2,0.1,0.5,0.3,0.8,0.3c-0.1,1.5-0.4,1.8-1.5,1.8h-2.8c-1.3,0-1.7-0.2-1.7-1.2v-0.4h-2.7v0.6
			h-0.9v-4.2h8.1v3.5h-3.7v0.4c0,0.4,0.1,0.5,0.9,0.5H83.3z M75.6,136.3h2.8v0.6h-2.8V136.3z M78.3,135.7h-2.5v-0.6h2.5V135.7z
			 M76.2,138.3v0.8h2.7v-0.8H76.2z M78.9,140.5v-0.8h-2.7v0.8H78.9z M82.6,138.3h-2.9v0.8h2.9V138.3z M82.6,140.5v-0.8h-2.9v0.8
			H82.6z M83,135.1v0.6h-2.6v-0.6H83z M80.4,136.3h2.9v0.6h-2.9V136.3z"/>
		<path class="st0" d="M85.9,133.9h4.4v0.7h-4.4V133.9z M90,142.3h-2.8v0.5h-0.8v-4H90V142.3z M90,136.3h-3.5v-0.7H90V136.3z
			 M86.5,137.2H90v0.7h-3.5V137.2z M89.9,133h-3.4v-0.7h3.4V133z M87.2,139.6v2h2v-2H87.2z M94.1,136.2v2h2.3v4.5h-0.9v-0.5H92v0.6
			h-0.8v-4.6h2.1v-2h-2.8v-0.9h2.8v-1.9c-0.8,0.1-1.5,0.2-2.3,0.2c0-0.2-0.2-0.5-0.3-0.7c1.8-0.2,3.9-0.5,5.1-0.9l0.6,0.7
			c-0.7,0.2-1.5,0.4-2.4,0.5v2h2.8v0.9H94.1z M95.5,139H92v2.4h3.5V139z"/>
		<path class="st0" d="M100.4,136.1c0.7,0,1.3,0.6,1.3,1.3c0,0.7-0.6,1.3-1.3,1.3c-0.7,0-1.3-0.6-1.3-1.3
			C99.1,136.7,99.7,136.1,100.4,136.1z"/>
		<path class="st0" d="M104.6,133.1h2.5c2,0,3.3,0.7,3.3,2.6c0,1.9-1.3,2.7-3.2,2.7h-1.5v3.5h-1.1V133.1z M107,137.5
			c1.5,0,2.3-0.6,2.3-1.8c0-1.3-0.8-1.7-2.3-1.7h-1.3v3.5H107z"/>
		<path class="st0" d="M112.2,133.1h1.1v3.7h4.1v-3.7h1.1v8.8h-1.1v-4.2h-4.1v4.2h-1.1V133.1z"/>
		<path class="st0" d="M120.3,140.8l0.7-0.8c0.6,0.7,1.5,1.1,2.4,1.1c1.2,0,1.8-0.6,1.8-1.4c0-0.9-0.6-1.2-1.5-1.6l-1.3-0.6
			c-0.8-0.3-1.8-1-1.8-2.3c0-1.4,1.2-2.3,2.8-2.3c1,0,2,0.4,2.6,1.1l-0.6,0.7c-0.5-0.5-1.2-0.8-2-0.8c-1,0-1.6,0.5-1.6,1.3
			c0,0.9,0.8,1.2,1.5,1.5l1.3,0.5c1,0.4,1.8,1,1.8,2.4c0,1.4-1.2,2.5-3,2.5C122.1,142.1,121.1,141.6,120.3,140.8z"/>
		<path class="st0" d="M132.2,132.6c0,0.2-0.1,0.5-0.1,0.7c-0.1,0.3-0.2,1-0.3,1.7c0.6,0,1-0.1,1.3-0.1c1.1,0,1.9,0.4,1.9,2
			c0,1.4-0.2,3.3-0.7,4.3c-0.4,0.8-1,1-1.7,1c-0.4,0-1-0.1-1.4-0.2l-0.2-1c0.5,0.2,1.1,0.3,1.5,0.3c0.4,0,0.8-0.1,1-0.6
			c0.4-0.8,0.6-2.3,0.6-3.6c0-1.1-0.5-1.3-1.2-1.3c-0.3,0-0.8,0-1.3,0.1c-0.4,1.7-1.2,4.4-2.5,6.4l-1-0.4c1.2-1.6,2.1-4.3,2.5-5.9
			c-0.6,0.1-1.2,0.1-1.5,0.2c-0.3,0-0.8,0.1-1.1,0.1l-0.1-1c0.4,0,0.7,0,1.1,0c0.4,0,1.1-0.1,1.8-0.1c0.2-0.9,0.3-1.8,0.3-2.6
			L132.2,132.6z M136.2,133.9c0.7,1,1.8,3.1,2.2,4.2l-0.9,0.4c-0.3-1.2-1.3-3.3-2.1-4.3L136.2,133.9z"/>
		<path class="st0" d="M142.2,138c1.1-1,2.4-1.4,3.8-1.4c1.8,0,3,1.1,3,2.5c0,2.1-1.9,3.6-6.3,3.2l-0.3-1c3.7,0.5,5.6-0.6,5.6-2.2
			c0-0.9-0.9-1.6-2.1-1.6c-1.6,0-2.8,0.6-3.7,1.6c-0.2,0.2-0.3,0.4-0.4,0.6l-0.9-0.2c0.2-1.1,0.5-3.6,0.6-4.8l1,0.1
			C142.5,135.5,142.3,137.3,142.2,138z M142.9,132.6c1,0.3,3.5,0.8,4.6,0.9l-0.2,0.9c-1.1-0.2-3.7-0.7-4.6-0.9L142.9,132.6z"/>
		<path class="st0" d="M160.1,136.8c0.8,0.9,1.2,1.7,1.2,2.7c0,1.8-1.6,2.8-3.9,2.8c-1.6,0-2.9-0.7-2.9-2.7c0-0.3,0-0.8,0.1-1.4
			c-0.9-0.1-1.8-0.2-2.5-0.4l0-0.9c0.8,0.3,1.7,0.4,2.5,0.5c0.1-0.7,0.2-1.4,0.3-2.1c-0.9-0.1-1.8-0.2-2.5-0.4l0-0.9
			c0.7,0.2,1.7,0.4,2.6,0.4c0.1-0.5,0.1-0.9,0.1-1.2c0-0.3,0-0.5,0-0.8l1.1,0.1c-0.1,0.3-0.1,0.6-0.2,0.8c0,0.3-0.1,0.7-0.2,1.2
			c0.9,0,1.7,0,2.4-0.1l0,0.9c-0.8,0.1-1.5,0.1-2.4,0.1h-0.1c-0.1,0.7-0.2,1.4-0.3,2.1h0.2c0.8,0,1.6,0,2.5-0.1l0,0.9
			c-0.8,0.1-1.5,0.1-2.3,0.1c-0.1,0-0.3,0-0.4,0c0,0.5-0.1,0.9-0.1,1.2c0,1.1,0.6,1.8,2,1.8c1.8,0,3-0.8,3-2c0-0.8-0.4-1.7-1.3-2.4
			L160.1,136.8z"/>
		<path class="st0" d="M166,138.5c-0.1,0.5-0.2,0.9-0.2,1.3c0,0.9,0.9,1.5,2.8,1.5c1.6,0,3.2-0.2,4.1-0.5l0,1
			c-0.9,0.2-2.4,0.4-4.1,0.4c-2.4,0-3.8-0.8-3.8-2.3c0-0.6,0.1-1.2,0.3-1.7L166,138.5z M165.5,133.7c0.9,0.1,2,0.2,3.1,0.2
			c1.1,0,2.4-0.1,3.2-0.2v1c-0.8,0.1-2.1,0.1-3.2,0.1c-1.2,0-2.2,0-3.1-0.1V133.7z M173.2,134l-0.6,0.3c-0.2-0.5-0.6-1.2-1-1.7
			l0.6-0.3C172.5,132.7,173,133.5,173.2,134z M174.6,133.5l-0.7,0.3c-0.3-0.5-0.6-1.2-1-1.7l0.6-0.3
			C173.9,132.3,174.3,133,174.6,133.5z"/>
		<path class="st0" d="M178.9,135.5h2.3v0.8h-2.3v0.9c0.5,0.4,1.9,1.6,2.3,1.9l-0.5,0.7c-0.4-0.4-1.1-1.2-1.7-1.7v4.7H178v-5.2
			c-0.6,1.4-1.5,2.7-2.3,3.5c-0.1-0.2-0.3-0.6-0.5-0.8c1-0.9,2-2.6,2.6-4.1h-2.3v-0.8h2.5v-2c-0.8,0.1-1.6,0.3-2.3,0.4
			c0-0.2-0.2-0.5-0.3-0.7c1.8-0.3,3.8-0.7,5-1.2l0.7,0.7c-0.6,0.2-1.4,0.5-2.2,0.6V135.5z M182.9,139.9H182v-6.6h0.9V139.9z
			 M185.8,132.1v9.5c0,0.6-0.2,0.9-0.5,1c-0.4,0.1-1.1,0.2-2.2,0.2c0-0.2-0.2-0.6-0.3-0.9c0.8,0,1.6,0,1.8,0c0.2,0,0.3-0.1,0.3-0.3
			v-9.5H185.8z"/>
		<path class="st0" d="M197.5,141.6c0,0.6-0.2,0.8-0.5,1c-0.4,0.1-1.1,0.2-2.2,0.1c0-0.2-0.2-0.6-0.3-0.9c0.8,0,1.7,0,1.9,0
			c0.2,0,0.3-0.1,0.3-0.3v-2.4h-3.2v3.5h-0.9v-3.5h-3c-0.2,1.3-0.6,2.7-1.5,3.7c-0.1-0.2-0.5-0.5-0.7-0.6c1.3-1.5,1.4-3.6,1.4-5.3
			v-4.3h8.7V141.6z M192.5,138.3v-2h-2.9v0.7c0,0.4,0,0.8,0,1.3H192.5z M189.6,133.6v1.9h2.9v-1.9H189.6z M196.6,133.6h-3.2v1.9h3.2
			V133.6z M196.6,138.3v-2h-3.2v2H196.6z"/>
		<path class="st0" d="M201.5,134.7c0,0.7,0,1.8,0.1,2.8c0.2,2,0.8,3.3,1.6,3.3c0.6,0,1.2-1.2,1.5-2.4l0.8,0.9
			c-0.7,2-1.4,2.7-2.3,2.7c-1.1,0-2.2-1.1-2.5-4.2c-0.1-1-0.1-2.5-0.1-3.2c0-0.3,0-0.8-0.1-1.1l1.2,0
			C201.6,133.9,201.5,134.4,201.5,134.7z M209.9,139.7l-1,0.4c-0.2-2.1-0.9-4.5-2.1-5.9l0.9-0.3
			C208.9,135.3,209.7,137.7,209.9,139.7z"/>
		<path class="st0" d="M218.1,134.9c-0.8,0.2-1.6,0.3-2.5,0.4c-0.1,0.5-0.2,1.1-0.4,1.6c-0.4,1.7-1.2,4.1-1.9,5.4l-1.1-0.3
			c0.7-1.2,1.5-3.6,2-5.3c0.1-0.4,0.2-0.8,0.3-1.3c-0.4,0-0.7,0-1.1,0c-0.5,0-1,0-1.4,0l0-0.9c0.6,0.1,1,0.1,1.4,0.1
			c0.4,0,0.8,0,1.3,0c0.1-0.4,0.1-0.8,0.2-1c0-0.3,0.1-0.7,0-1l1.2,0.1c-0.1,0.3-0.2,0.7-0.2,0.9l-0.2,0.9c0.8-0.1,1.5-0.2,2.3-0.4
			V134.9z M217.6,139c-0.1,0.4-0.2,0.8-0.2,1.1c0,0.6,0.3,1.1,2,1.1c0.8,0,1.6-0.1,2.3-0.2l0,1c-0.6,0.1-1.4,0.2-2.3,0.2
			c-1.9,0-2.9-0.6-2.9-1.8c0-0.5,0.1-0.9,0.2-1.4L217.6,139z M217.3,136.1c0.6-0.1,1.4-0.1,2.2-0.1c0.7,0,1.4,0,2.1,0.1l0,0.9
			c-0.6-0.1-1.3-0.1-2-0.1c-0.7,0-1.5,0-2.2,0.1V136.1z"/>
		<path class="st0" d="M229.7,135c-0.8,0.2-1.6,0.3-2.5,0.4c-0.1,0.5-0.2,1.1-0.4,1.6c-0.4,1.7-1.2,4.1-1.9,5.4l-1.1-0.3
			c0.7-1.2,1.5-3.6,2-5.3c0.1-0.4,0.2-0.8,0.3-1.3c-0.4,0-0.7,0-1.1,0c-0.5,0-1,0-1.4,0l0-0.9c0.6,0.1,1,0.1,1.4,0.1
			c0.4,0,0.8,0,1.3,0c0.1-0.4,0.1-0.8,0.2-1c0-0.3,0.1-0.7,0-1l1.2,0.1c-0.1,0.3-0.2,0.7-0.2,0.9l-0.2,0.9c0.8-0.1,1.5-0.2,2.3-0.4
			V135z M229.3,139.2c-0.1,0.4-0.2,0.8-0.2,1.1c0,0.6,0.3,1.1,2,1.1c0.8,0,1.6-0.1,2.3-0.2l0,1c-0.6,0.1-1.4,0.2-2.3,0.2
			c-1.9,0-2.9-0.6-2.9-1.8c0-0.4,0.1-0.9,0.2-1.4L229.3,139.2z M229,136.3c0.6,0,1.4-0.1,2.2-0.1c0.7,0,1.4,0,2.1,0.1l0,0.9
			c-0.6-0.1-1.3-0.1-2-0.1c-0.7,0-1.5,0-2.2,0.1V136.3z M232.3,135c-0.2-0.5-0.6-1.2-1-1.7l0.6-0.3c0.3,0.4,0.7,1.2,1,1.7L232.3,135
			z M233.3,132.5c0.3,0.5,0.8,1.2,1,1.7l-0.6,0.3c-0.3-0.5-0.7-1.2-1-1.7L233.3,132.5z"/>
		<path class="st0" d="M238,132.8c-0.1,0.2-0.2,0.5-0.2,0.8c-0.4,1.7-0.8,4.3-0.3,6.2c0.2-0.5,0.4-1.2,0.6-1.8l0.5,0.3
			c-0.3,0.8-0.6,2-0.8,2.6c0,0.2-0.1,0.4-0.1,0.5l0,0.4L237,142c-0.2-0.7-0.6-2.3-0.6-3.8c0-1.9,0.3-3.8,0.4-4.7
			c0-0.3,0.1-0.6,0.1-0.8L238,132.8z M245.9,135.8c-0.5,0.1-1.2,0.2-1.9,0.2v0.4c0,2.7,0,4.7-2.5,6.2l-0.9-0.7
			c0.4-0.2,0.9-0.4,1.2-0.7c1.3-1.1,1.3-2.4,1.3-4.7v-0.3c-0.5,0-1,0-1.5,0c-0.6,0-1.4,0-1.9-0.1v-1c0.5,0.1,1.3,0.1,1.9,0.1
			c0.5,0,1,0,1.5,0c0-0.7,0-1.5-0.1-1.8c0-0.3-0.1-0.5-0.1-0.7h1.1c0,0.2,0,0.4,0,0.7c0,0.3,0,1,0,1.8c0.7-0.1,1.4-0.1,1.9-0.3
			V135.8z"/>
		<path class="st0" d="M256.7,141.8c-0.7-0.6-1.7-1.4-2.9-1.8c0,0.3,0,0.6,0,0.7c0,0.8-0.6,1.7-2.1,1.7c-1.7,0-2.7-0.6-2.7-1.8
			c0-1.1,1-1.8,2.8-1.8c0.3,0,0.7,0,1,0.1c0-0.5,0-1.1-0.1-1.6c-0.2,0-0.4,0-0.7,0c-0.8,0-2.1-0.1-3-0.2v-0.9c0.8,0.1,2.2,0.2,3,0.2
			c0.2,0,0.4,0,0.6,0v-0.2v-1.5c-0.2,0-0.4,0-0.6,0c-0.8,0-2.1-0.1-2.8-0.2v-0.9c0.7,0.1,2,0.2,2.8,0.2c0.2,0,0.4,0,0.6,0v-0.8
			c0-0.2,0-0.5,0-0.7h1c0,0.2,0,0.4-0.1,0.8c0,0.1,0,0.4,0,0.7c1,0,2-0.1,3-0.3l0,0.9c-0.9,0.1-2,0.2-3.1,0.3v1.6v0.1
			c1.1,0,2.2-0.2,3.3-0.3l0,0.9c-1.1,0.1-2.2,0.2-3.3,0.3c0,0.6,0.1,1.2,0.1,1.8c1.6,0.4,2.8,1.3,3.5,1.8L256.7,141.8z M252.9,139.7
			c-0.4-0.1-0.8-0.1-1.2-0.1c-1.1,0-1.7,0.4-1.7,1c0,0.6,0.5,1,1.6,1c0.7,0,1.3-0.2,1.3-1C252.9,140.3,252.9,140.1,252.9,139.7z"/>
		<path class="st0" d="M266.3,134.8c0,0.7,0,1.4,0,1.9c0.3,0.4,0.4,0.9,0.4,1.5c0,1.6-0.8,3.4-3.5,4.2l-0.8-0.8
			c1.6-0.4,2.7-1,3.2-2.1c-0.3,0.2-0.6,0.3-1,0.3c-1,0-2-0.7-2-2c0-1.2,1-2.1,2.1-2.1c0.3,0,0.6,0,0.8,0.1c0-0.3,0-0.8,0-1.2
			c-1.8,0-3.8,0.1-5.3,0.2l0-0.9c1.3,0,3.5-0.1,5.3-0.1c0-0.3,0-0.6,0-0.8c0-0.3,0-0.6-0.1-0.7h1.1l-0.1,0.7c0,0.2,0,0.5,0,0.8h0.2
			c1.4,0,2.9,0,3.5,0l0,0.9c-0.7,0-1.8-0.1-3.5-0.1H266.3z M265.7,137.4c-0.2-0.5-0.6-0.7-1.1-0.7c-0.6,0-1.2,0.5-1.2,1.2
			c0,0.7,0.6,1.2,1.2,1.2C265.3,139.1,265.8,138.6,265.7,137.4z"/>
		<path class="st0" d="M275.1,140.8c0,1-0.8,1.8-1.8,1.8c-1,0-1.8-0.8-1.8-1.8s0.8-1.8,1.8-1.8C274.2,139,275.1,139.8,275.1,140.8z
			 M274.4,140.8c0-0.7-0.5-1.2-1.2-1.2c-0.7,0-1.2,0.6-1.2,1.2c0,0.7,0.6,1.2,1.2,1.2C273.9,142.1,274.4,141.5,274.4,140.8z"/>
	</g>
</g>
</svg>
