<svg xmlns="http://www.w3.org/2000/svg" viewBox="0 0 216.42 67.1"><defs><style>.cls-1{fill:#d00251;}.cls-2{fill:#1a1311;}.cls-3{fill:#404040;}</style></defs><title>button_footer_nav_ul_li_01_a</title><g id="レイヤー_2" data-name="レイヤー 2"><g id="レイヤー_1-2" data-name="レイヤー 1"><path class="cls-1" d="M32.45,32.68l-4.65,7a10.78,10.78,0,1,1-6.86-2.47A10.65,10.65,0,0,1,26,38.44l4.64-7a19.1,19.1,0,1,0,1.8,1.2Z"/><path class="cls-1" d="M34.84,32.06A4.89,4.89,0,1,0,30,27.18,4.89,4.89,0,0,0,34.84,32.06Z"/><path class="cls-2" d="M52.37,31a1.24,1.24,0,0,1-.93-.25,1.44,1.44,0,0,1-.18-.86V24.2a1.27,1.27,0,0,1,.22-.91,1.34,1.34,0,0,1,.89-.21v-.19H47.74v.19c.49,0,.81.05.94.2a1.32,1.32,0,0,1,.22.92v5.64a1.29,1.29,0,0,1-.2.86,1.4,1.4,0,0,1-1,.25v.17h4.63Z"/><path class="cls-2" d="M53.76,23.37l.25.33v6.16a1,1,0,0,1-1,1.08v.18h2.62v-.18a1.46,1.46,0,0,1-.89-.29,1.29,1.29,0,0,1-.24-.87V24.11l5.74,7.13H61V24.06a1.06,1.06,0,0,1,.23-.73,1.31,1.31,0,0,1,.81-.26v-.2H59.47v.2a1.14,1.14,0,0,1,.93.29,1.14,1.14,0,0,1,.16.66v4.37l-4.43-5.52H52.89v.2a3.6,3.6,0,0,1,.53,0A.56.56,0,0,1,53.76,23.37Z"/><path class="cls-2" d="M64.34,23.26H65v6.58a1.24,1.24,0,0,1-.22.86,1.22,1.22,0,0,1-.9.25v.17h4.53V31c-.46,0-.75-.09-.88-.25a1.17,1.17,0,0,1-.22-.86V23.26H68a1.53,1.53,0,0,1,1.68,1.65H70v-2H62.41v2h.21A1.56,1.56,0,0,1,64.34,23.26Z"/><path class="cls-2" d="M71.44,24.21v5.63a1.45,1.45,0,0,1-.18.85,1.26,1.26,0,0,1-.94.26v.17H77.5l.38-2.42h-.19a2.71,2.71,0,0,1-.87,1.56,2.28,2.28,0,0,1-1.58.54h-.72c-.36,0-.58-.06-.68-.21a1.36,1.36,0,0,1-.1-.65V27.12h.32c.81,0,1.25.61,1.35,1.82h.22V25h-.2c-.11,1.21-.59,1.82-1.45,1.82h-.24V23.2h1.47a1.82,1.82,0,0,1,1.94,1.85h.23V22.89H70.23v.19a1.5,1.5,0,0,1,1,.23C71.38,23.44,71.44,23.74,71.44,24.21Z"/><path class="cls-2" d="M85.38,28.14h-.23c-.4,1.78-1.2,2.66-2.4,2.66h-.12a1.1,1.1,0,0,1-.67-.14,1.09,1.09,0,0,1-.14-.64V24.2a1.37,1.37,0,0,1,.22-.92c.14-.15.46-.21,1-.2v-.19H78.24v.19a1.64,1.64,0,0,1,1,.2,1.25,1.25,0,0,1,.24.92v5.64a1.22,1.22,0,0,1-.22.86,1.49,1.49,0,0,1-1,.25v.17H85.1Z"/><path class="cls-2" d="M92.78,28.14h-.23c-.4,1.78-1.2,2.66-2.41,2.66H90a1,1,0,0,1-.67-.14.94.94,0,0,1-.15-.64V24.2a1.37,1.37,0,0,1,.22-.92,1.44,1.44,0,0,1,1-.2v-.19H85.65v.19a1.66,1.66,0,0,1,1,.2c.17.14.23.45.23.92v5.64a1.23,1.23,0,0,1-.21.86,1.51,1.51,0,0,1-1,.25v.17h6.86Z"/><path class="cls-2" d="M97.9,31A1.29,1.29,0,0,1,97,30.7a1.44,1.44,0,0,1-.18-.86V24.2a1.32,1.32,0,0,1,.22-.91,1.32,1.32,0,0,1,.9-.21v-.19H93.26v.19a1.47,1.47,0,0,1,1,.2,1.39,1.39,0,0,1,.2.92v5.64a1.23,1.23,0,0,1-.2.86,1.4,1.4,0,0,1-1,.25v.17H97.9Z"/><path class="cls-2" d="M99.93,30.08a4.65,4.65,0,0,0,3.29,1.16,7.27,7.27,0,0,0,3-.7v-1.9a1.32,1.32,0,0,1,.16-.79,1.14,1.14,0,0,1,.75-.18v-.19h-4.1v.19a1.07,1.07,0,0,1,.74.2c.18.12.25.39.25.78v2.13a3.09,3.09,0,0,1-.86.13,1.68,1.68,0,0,1-1.68-1.13,6.91,6.91,0,0,1-.36-2.64,7.1,7.1,0,0,1,.41-2.75,1.85,1.85,0,0,1,1.84-1.26,2.42,2.42,0,0,1,1.59.61,3.1,3.1,0,0,1,1,1.56h.24V22.82H106a.51.51,0,0,1-.55.5,4,4,0,0,1-.93-.28,4.85,4.85,0,0,0-1.63-.27,4,4,0,0,0-3.43,1.62,4.58,4.58,0,0,0-.85,2.7A3.85,3.85,0,0,0,99.93,30.08Z"/><path class="cls-2" d="M114.49,30.26a2.3,2.3,0,0,1-1.58.54h-.72c-.35,0-.58-.06-.67-.21a1.25,1.25,0,0,1-.1-.65V27.12h.34c.78,0,1.23.61,1.33,1.82h.21V25h-.2c-.11,1.21-.58,1.82-1.45,1.82h-.23V23.2h1.45a1.83,1.83,0,0,1,2,1.85h.22V22.89h-7.14v.19a1.52,1.52,0,0,1,1,.23,1.45,1.45,0,0,1,.19.9v5.63a1.45,1.45,0,0,1-.18.85A1.24,1.24,0,0,1,108,31v.17h7.18l.39-2.42h-.21A2.55,2.55,0,0,1,114.49,30.26Z"/><path class="cls-2" d="M116.89,23.37l.24.33v6.16a1,1,0,0,1-1,1.08v.18h2.62v-.18a1.43,1.43,0,0,1-.89-.29,1.3,1.3,0,0,1-.23-.87V24.11l5.74,7.13h.8V24.06a1,1,0,0,1,.23-.73,1.32,1.32,0,0,1,.79-.26v-.2H122.6v.2a1.13,1.13,0,0,1,.92.29,1.14,1.14,0,0,1,.16.66v4.37l-4.43-5.52H116v.2a3.38,3.38,0,0,1,.52,0A.57.57,0,0,1,116.89,23.37Z"/><path class="cls-2" d="M127.46,23.26h.68v6.58A.91.91,0,0,1,127,31v.17h4.54V31a1.23,1.23,0,0,1-.9-.25,1.35,1.35,0,0,1-.2-.86V23.26h.7a1.52,1.52,0,0,1,1.68,1.65h.23v-2h-7.53v2h.22A1.55,1.55,0,0,1,127.46,23.26Z"/><path class="cls-2" d="M143.49,22.89h-4.73v.19c.52,0,.85,0,1,.15s.2.39.2.85v5.76a1.37,1.37,0,0,1-.18.83,1.29,1.29,0,0,1-1,.28v.17h4.58a4.22,4.22,0,0,0,3.18-1.2,4.08,4.08,0,0,0,1-2.89,4,4,0,0,0-1.25-3.1A4,4,0,0,0,143.49,22.89Zm.95,7.05a1.74,1.74,0,0,1-1.59.81.67.67,0,0,1-.49-.14,1,1,0,0,1-.13-.59V23.2h.51c1.48,0,2.21,1.37,2.21,4.1A5.3,5.3,0,0,1,144.44,29.94Z"/><path class="cls-2" d="M149.07,30.69c-.13.17-.45.26-.93.26v.17h7.18l.38-2.42h-.18a2.72,2.72,0,0,1-.88,1.56,2.28,2.28,0,0,1-1.58.54h-.72c-.35,0-.58-.06-.68-.21a1.36,1.36,0,0,1-.1-.65V27.12h.33c.8,0,1.25.61,1.35,1.82h.22V25h-.21c-.11,1.21-.59,1.82-1.44,1.82h-.25V23.2H153a1.84,1.84,0,0,1,2,1.85h.22V22.89h-7.14v.19a1.44,1.44,0,0,1,1,.23,1.3,1.3,0,0,1,.21.9v5.63A1.36,1.36,0,0,1,149.07,30.69Z"/><path class="cls-2" d="M157.15,24l2.91,7.22h.45l2.83-7.19a1.33,1.33,0,0,1,1.14-1v-.2h-2.41v.2a1.55,1.55,0,0,1,.69.13.48.48,0,0,1,.17.42,1.55,1.55,0,0,1-.13.51l-1.6,4.1L159.52,24a1,1,0,0,1-.11-.43.43.43,0,0,1,.18-.39,1.2,1.2,0,0,1,.63-.13v-.2h-4.13v.2a1.06,1.06,0,0,1,.62.25A1.72,1.72,0,0,1,157.15,24Z"/><path class="cls-2" d="M166,24.21v5.63a1.51,1.51,0,0,1-.19.85,1.26,1.26,0,0,1-.94.26v.17H172l.38-2.42h-.2a2.7,2.7,0,0,1-.86,1.56,2.31,2.31,0,0,1-1.57.54H169c-.36,0-.58-.06-.68-.21a1.25,1.25,0,0,1-.1-.65V27.12h.33c.8,0,1.25.61,1.35,1.82h.21V25h-.2c-.11,1.21-.59,1.82-1.44,1.82h-.25V23.2h1.46a1.84,1.84,0,0,1,2,1.85h.22V22.89h-7.14v.19a1.49,1.49,0,0,1,1,.23A1.36,1.36,0,0,1,166,24.21Z"/><path class="cls-2" d="M179.88,28.14h-.23c-.4,1.78-1.2,2.66-2.41,2.66h-.11a1,1,0,0,1-.66-.14.94.94,0,0,1-.15-.64V24.2a1.32,1.32,0,0,1,.22-.92,1.37,1.37,0,0,1,1-.2v-.19h-4.76v.19a1.62,1.62,0,0,1,1,.2c.17.14.24.45.24.92v5.64a1.22,1.22,0,0,1-.22.86,1.47,1.47,0,0,1-1,.25v.17h6.86Z"/><path class="cls-2" d="M185.17,31.24a4.32,4.32,0,0,0,3.58-1.49,4.23,4.23,0,0,0,.92-2.79A4,4,0,0,0,188.55,24a4.47,4.47,0,0,0-3.37-1.25,4.38,4.38,0,0,0-3.44,1.32,4,4,0,0,0-1.05,2.9,4.11,4.11,0,0,0,4.48,4.25Zm-1.36-7.06a1.51,1.51,0,0,1,1.37-1c1.22,0,1.85,1.29,1.85,3.86a7.12,7.12,0,0,1-.38,2.59,1.59,1.59,0,0,1-1.47,1.15c-.66,0-1.14-.41-1.47-1.22a7.83,7.83,0,0,1-.38-2.59A6.52,6.52,0,0,1,183.81,24.18Z"/><path class="cls-2" d="M195.58,31a1.6,1.6,0,0,1-1.09-.26,1.37,1.37,0,0,1-.19-.85V27.28h1.28a3.21,3.21,0,0,0,2.22-.69,2,2,0,0,0,.66-1.51,2,2,0,0,0-.7-1.55,3,3,0,0,0-2-.64h-4.89v.19a1.35,1.35,0,0,1,.91.23A1,1,0,0,1,192,24v5.9a1,1,0,0,1-.21.76,1.29,1.29,0,0,1-.91.25v.17h4.71ZM194.3,23.2a1.71,1.71,0,0,1,1.24.31A2.11,2.11,0,0,1,196,25.1a2.2,2.2,0,0,1-.38,1.48,1.86,1.86,0,0,1-1.32.38Z"/><path class="cls-2" d="M200.56,24.21v5.63a1.45,1.45,0,0,1-.18.85c-.13.17-.45.26-.93.26v.17h7.18L207,28.7h-.2a2.65,2.65,0,0,1-.86,1.56,2.3,2.3,0,0,1-1.58.54h-.72c-.36,0-.58-.06-.69-.21a1.57,1.57,0,0,1-.09-.65V27.12h.33c.8,0,1.25.61,1.34,1.82h.23V25h-.23c-.09,1.21-.57,1.82-1.43,1.82h-.24V23.2h1.46a1.84,1.84,0,0,1,2,1.85h.21V22.89h-7.14v.19a1.45,1.45,0,0,1,1,.23C200.5,23.44,200.56,23.74,200.56,24.21Z"/><path class="cls-2" d="M215.53,30.26l-1.81-3.12a2.08,2.08,0,0,0,1.61-2.06c0-1.46-1-2.19-2.9-2.19h-5v.19a1.34,1.34,0,0,1,.93.23,1,1,0,0,1,.21.74v6a.89.89,0,0,1-.21.68,1.21,1.21,0,0,1-.86.25v.17H212V31c-.51,0-.83-.09-1-.32a1.33,1.33,0,0,1-.16-.79V27.3h.43l2.19,3.82h2.92V31A1.19,1.19,0,0,1,215.53,30.26Zm-4-3.35h-.62V23.26h.71c1,0,1.48.6,1.48,1.79S212.54,26.91,211.5,26.91Z"/><path class="cls-2" d="M112.27,65.65l-27.86,0V36.57h27.86ZM108,48.73V40.55H88.7v8.18Zm0,11.77V53.37H88.7V60.5Z"/><path class="cls-2" d="M80.25,40c1.14,0,1.58-.07,1.58-.37a1.49,1.49,0,0,0-.38-.74l-2.17-2.62c-3.34,1.27-10.52,1.68-10.88,1.63l-2.28-.14c.21,3.87.21,8.61.21,9.7,0,10.67-1.38,14.24-4.51,17.77l4.39,1.29c3.12-4.78,4-8.39,4.38-17.06h3.76V66.18H78.9V49.41h2.5V45.52H70.67c0-1.45,0-3.23,0-4.5A88.47,88.47,0,0,0,80.25,40Z"/><path class="cls-2" d="M59.41,54.06h4.43V50.6H57.46V48.76h6.36V45.42h-2.6l.42-4H63.9V38.17h-6V35.64H53.8v2.53H47.74v3.25h2l-.11,4h-2v3.34h6V50.6H47.87v3.46h4.27c-1.27,3-3.06,4.61-5.3,6.65v6c2.38-2.78,5.87-5.89,6.63-7.18h.08v6.92h3.91V59.94l.09-2.8c.52.84,6,6,5.39,5.67V57.66A28.31,28.31,0,0,1,59.41,54.06Zm-1.95-8.64h-4l0-4h4.45Z"/><path class="cls-2" d="M147.68,61.92V56.7a35.58,35.58,0,0,1-10.91-13.49h11.17V38.89H134.27V34.74H130v4.15H116v4.32h11.43a36.18,36.18,0,0,1-11,13.59V62A41.11,41.11,0,0,0,130,47.91v9.78h-6.22V62H130v4.54h4.32V62h5.81V57.69h-5.81V47.91A41,41,0,0,0,147.68,61.92Z"/><path class="cls-2" d="M180.28,49.55V44.47h2.54v-3h-2.54V36.84h-7.59v-1.9h-4v1.9H163v3.23h5.77v1.38h-7.62v3h7.62v1.88h-6v3.2h6V51h-6v3.12h6V56h-7.4v3.36h7.4v2h4v-2H182V56h-9.31v-1.8h7.41V51h-7.41V49.55Zm-7.59-9.42h3.57v1.38h-3.57Zm0,4.34h3.57v1.88h-3.57Z"/><path class="cls-2" d="M169.83,61.79c-8.05,0-10-.77-11.91-2.39A33.51,33.51,0,0,0,161,45.91h-3.7A84.06,84.06,0,0,0,161,36.22l-2.14.06h-7.33v3.26h3.27c-.55,2.21-2.05,7.18-4.17,9.9l3.4.18H157a20.56,20.56,0,0,1-1.3,5.53c-.13.46-.56,1.47-.72,1.94A11.3,11.3,0,0,1,151.4,53v6.19c.77.75,1.29,1.31,1.73,1.79a14,14,0,0,1-3.62,4.71h5.65c.51-.61.81-1.52,1.35-2.31C160,66,163.66,65.81,168.77,66h11.82l2.1-4.43C179.29,61.85,173.22,61.79,169.83,61.79Z"/><rect class="cls-2" x="185.7" y="35.65" width="9.29" height="3.34"/><rect class="cls-2" x="185.56" y="45.49" width="9.77" height="3.12"/><rect class="cls-2" x="185.45" y="50.06" width="9.98" height="3.15"/><rect class="cls-2" x="183.78" y="40.74" width="13.36" height="3.13"/><path class="cls-2" d="M184.94,66.42h11.55v-11H184.94ZM188.89,59h3.61v3.48h-3.61Z"/><polygon class="cls-2" points="214.22 42.81 214.22 37.76 214.22 35.61 212.08 35.61 201.9 35.61 199.74 35.61 199.74 37.76 199.74 47.04 204.07 47.04 204.07 39.94 209.93 39.94 209.93 44.99 209.93 47.15 212.08 47.15 216.38 47.15 216.38 42.81 214.22 42.81"/><path class="cls-2" d="M211,60.43a1.08,1.08,0,0,0,.2-.16c3-3,4.7-6.34,4.7-9.3V48.8H199v4.34h12.05a15.13,15.13,0,0,1-3.62,4.71,9.29,9.29,0,0,1-2-2.77h-4.63a13.43,13.43,0,0,0,3.08,5.35A10.6,10.6,0,0,1,199,62v4.34a16.05,16.05,0,0,0,8.37-3,17.59,17.59,0,0,0,9,2.86V61.88A12.24,12.24,0,0,1,211,60.43Z"/><path class="cls-3" d="M3.6,9,3,9.31,0,4.66,3,0,3.6.29.8,4.66Z"/><path class="cls-3" d="M8.18,5.41C8,7.44,7.49,8.62,5,9.23a1.83,1.83,0,0,0-.42-.63c2.29-.49,2.69-1.46,2.83-3.19Zm.53-3.64H4.8V1.08H8.71V.1h.76v1h4v.69h-4v1h3.1v.66H5.73V2.76h3Zm3.73,4.36V4.9H5.78V6.13H5.06V4.22h8.13V6.13Zm0,2.23c.37,0,.43-.17.46-1.29a2.58,2.58,0,0,0,.68.29C13.44,8.7,13.24,9,12.46,9H11c-.9,0-1.13-.22-1.13-1V5.4h.74V8c0,.27.07.32.46.32Z"/><path class="cls-3" d="M23.56,8.17V8.9H14.72V8.17h4V5.72H15.64V5h3.08V2.81H15.18V2.08h4.39A11.23,11.23,0,0,0,17.87.55l.6-.42A11.47,11.47,0,0,1,20.3,1.74l-.47.34h3.23v.73H19.51V5h3.14v.72H19.51V8.17Z"/><path class="cls-3" d="M26.62,3.6a1.06,1.06,0,1,1-1.06,1.06A1.05,1.05,0,0,1,26.62,3.6Z"/><path class="cls-3" d="M33.31,2.36H29.54V1.75h3.77ZM33,8.65H30.64V9.1H30V5.76h3ZM30,3.1h3v.59H30Zm0,1.32h3V5H30ZM32.94,1H30.06V.44h2.88Zm-2.3,5.33V8.05h1.67V6.37ZM34.8,1.62a2.93,2.93,0,0,1-1.28,2.61A3.62,3.62,0,0,0,33,3.74a2.31,2.31,0,0,0,1.11-2.13V.41h3.12V2.85c0,.22,0,.26.19.26h.5c.18,0,.22-.13.24-1.09a1.65,1.65,0,0,0,.62.27c-.06,1.17-.24,1.46-.77,1.46H37.3c-.61,0-.79-.19-.79-.9V1.07H34.8Zm3.36,2.93a6.49,6.49,0,0,1-1.69,3,6.35,6.35,0,0,0,2.3,1.08,3.18,3.18,0,0,0-.48.63A6.82,6.82,0,0,1,35.91,8,7.65,7.65,0,0,1,33.4,9.22a2.59,2.59,0,0,0-.4-.65,6.8,6.8,0,0,0,2.36-1.1A6.75,6.75,0,0,1,34,5.29l.66-.2A5.6,5.6,0,0,0,35.91,7a5.33,5.33,0,0,0,1.31-1.95H33.44V4.39h4.11l.13,0Z"/><path class="cls-3" d="M43.48,2.36H39.54V1.75h3.94Zm-.4,6.29H40.66V9.1H40V5.76h3.08ZM40,3.1h3.1v.59H40Zm0,1.32h3.1V5H40ZM43.11,1h-3V.44h3ZM40.66,6.37V8.05h1.75V6.37Zm8.13-2.15H46.55v5h-.74v-5H43.47V3.49h2.34V.12h.74V3.49h2.24Z"/><path class="cls-3" d="M51.62,3.6a1.06,1.06,0,1,1-1.06,1.06A1.05,1.05,0,0,1,51.62,3.6Z"/><path class="cls-3" d="M58.21,3.78s0,.24,0,.34c-.07,3.31-.13,4.43-.38,4.76a.71.71,0,0,1-.58.32,7.39,7.39,0,0,1-1.06,0A1.61,1.61,0,0,0,56,8.54c.41,0,.78,0,.92,0a.3.3,0,0,0,.31-.14c.17-.23.23-1.2.29-4h-1.2A9.15,9.15,0,0,1,55,9.22a2.06,2.06,0,0,0-.56-.49c1-1.38,1.16-3.86,1.2-6.32H54.59V1.72h1.76V.11h.7V1.72h1.74v.69h-2.4c0,.46,0,.92,0,1.37Zm1.57-1.61a7,7,0,0,1-1,1.61,5.78,5.78,0,0,0-.57-.52A7.29,7.29,0,0,0,59.71.09l.72.15a12.09,12.09,0,0,1-.37,1.25h3.57v.68Zm2.75,6.37c.44,0,.52-.19.56-1.15a2.07,2.07,0,0,0,.63.27c-.09,1.18-.31,1.51-1.15,1.51h-2c-1,0-1.26-.22-1.26-1.1V5.62l-.6.28-.28-.61.88-.41V3.32H60V4.56l.94-.44V2.54h.64V3.82l1.1-.51,0-.05.12-.09.47.17,0,.12c0,1.42,0,2.68-.06,3a.54.54,0,0,1-.45.54A2.69,2.69,0,0,1,62,7a1.92,1.92,0,0,0-.16-.58,4.92,4.92,0,0,0,.52,0c.12,0,.18,0,.21-.19s.05-1,.05-2.22l-1.07.51v3h-.64V4.85L60,5.3V8.08c0,.38.09.46.64.46Z"/><path class="cls-3" d="M73.59,7.72v.74H64.67V7.72h4V2h-3.5V1.22h7.9V2H69.5V7.72Z"/><path class="cls-3" d="M76.62,3.6a1.06,1.06,0,1,1-1.06,1.06A1.05,1.05,0,0,1,76.62,3.6Z"/><path class="cls-3" d="M81.23,7.09a6.21,6.21,0,0,1-1.16,2.15,3.28,3.28,0,0,0-.59-.42,4.42,4.42,0,0,0,1-1.89ZM83,6.71H80V.48h3ZM82.32,1.1H80.67V2.36h1.65Zm0,1.85H80.67V4.22h1.65Zm0,1.86H80.67v1.3h1.65Zm.08,2.11a7.13,7.13,0,0,1,.74,1.25l-.61.32a7.82,7.82,0,0,0-.71-1.31Zm5.88-3.7a9.1,9.1,0,0,1-1.45,4,5.09,5.09,0,0,0,1.94,1.42,2.53,2.53,0,0,0-.49.6,5.68,5.68,0,0,1-1.89-1.46,5.88,5.88,0,0,1-1.91,1.43,2.48,2.48,0,0,0-.43-.59A5.19,5.19,0,0,0,86,7.2,10,10,0,0,1,84.6,3.78h-.08v.43a9.44,9.44,0,0,1-1.08,5,2.31,2.31,0,0,0-.58-.4,8.47,8.47,0,0,0,1-4.64V.59h4.61v.69H84.52V3.12h3.2l.12,0Zm-3,.56a8.54,8.54,0,0,0,1.14,2.84,7.71,7.71,0,0,0,1.11-2.84Z"/><path class="cls-3" d="M93.18,5.41c-.17,2-.69,3.21-3.17,3.82a1.83,1.83,0,0,0-.42-.63c2.29-.49,2.69-1.46,2.83-3.19Zm.53-3.64H89.8V1.08h3.91V.1h.76v1h4v.69h-4v1h3.1v.66H90.73V2.76h3Zm3.73,4.36V4.9H90.78V6.13h-.72V4.22h8.13V6.13Zm0,2.23c.37,0,.43-.17.46-1.29a2.58,2.58,0,0,0,.68.29C98.44,8.7,98.24,9,97.46,9H96c-.9,0-1.13-.22-1.13-1V5.4h.74V8c0,.27.07.32.46.32Z"/><path class="cls-3" d="M101.62,3.6a1.06,1.06,0,1,1-1.06,1.06A1.05,1.05,0,0,1,101.62,3.6Z"/><path class="cls-3" d="M113.43,1.7c-.07.1-.2.25-.27.36a9.64,9.64,0,0,1-2.49,2.76L110,4.29a6.75,6.75,0,0,0,2.18-2.24H106.5a11.32,11.32,0,0,0-1.14.06v-.9a10.55,10.55,0,0,0,1.14.08h5.74a4.94,4.94,0,0,0,.7-.06Zm-4,1.32c0,2.71-.24,4.54-2.79,5.81l-.73-.6a3.87,3.87,0,0,0,.89-.44c1.55-1,1.77-2.38,1.77-4a6,6,0,0,0,0-.72Z"/><path class="cls-3" d="M122.73,1.81a2.11,2.11,0,0,0-.15.5A9.94,9.94,0,0,1,121.09,6a7.64,7.64,0,0,1-3.94,2.68l-.68-.75a6.67,6.67,0,0,0,3.9-2.41,7.48,7.48,0,0,0,1.31-3.26h-5.11c-.4,0-.74,0-1,0V1.41c.28,0,.67.06,1,.06h5a2.05,2.05,0,0,0,.53-.05Z"/><path class="cls-3" d="M132.84,2.05a4.38,4.38,0,0,0-.23.54,10.17,10.17,0,0,1-1.46,3c.38.24.72.47,1,.65l-.55.72c-.24-.19-.57-.43-.95-.69A9.48,9.48,0,0,1,126.7,8.9L126,8.28a8.76,8.76,0,0,0,4-2.49c-.79-.51-1.63-1-2.19-1.32l.51-.59c.58.3,1.42.78,2.2,1.25a8.36,8.36,0,0,0,1.29-2.67h-3.4a10.85,10.85,0,0,1-2.65,2.63L125,4.57a8.92,8.92,0,0,0,3.21-3.47,4.3,4.3,0,0,0,.32-.8l.9.29c-.16.26-.34.6-.44.79s-.13.24-.21.37h2.73a1.76,1.76,0,0,0,.66-.1Z"/><path class="cls-3" d="M135.14,4.13c.3,0,.83,0,1.39,0H142c.5,0,.86,0,1.08,0v1c-.2,0-.62-.05-1.07-.05h-5.49c-.55,0-1.08,0-1.39.05Z"/><path class="cls-3" d="M152.42,2.75a7,7,0,0,0,.91,0v.84c-.1,0-.47,0-.91,0h-1.1v.35c0,2.67-.57,4-2.86,5.06l-.67-.63c1.82-.7,2.73-1.56,2.73-4.36V3.51h-2.85V5.13c0,.37,0,.81,0,.91h-.88c0-.1,0-.53,0-.91V3.51H145.8c-.44,0-.89,0-1,0V2.68a7.38,7.38,0,0,0,1,.07h1.07V1.47c0-.32,0-.63,0-.73h.89a6.17,6.17,0,0,0-.05.73V2.75h2.85V1.5a5.58,5.58,0,0,0-.05-.82h.9a7.58,7.58,0,0,0-.05.82V2.75Z"/><path class="cls-3" d="M155.14,4.13c.3,0,.83,0,1.39,0H162c.5,0,.86,0,1.08,0v1c-.2,0-.62-.05-1.07-.05h-5.49c-.55,0-1.08,0-1.39.05Z"/><path class="cls-3" d="M166.86,7.05c0,.51.21.64.7.74a9.5,9.5,0,0,0,1.32.08,16.37,16.37,0,0,0,3.42-.32v.91a28,28,0,0,1-3.46.21,10.51,10.51,0,0,1-1.6-.1c-.77-.14-1.2-.49-1.2-1.3V1.77A4.36,4.36,0,0,0,166,1h.93a6.64,6.64,0,0,0,0,.81V4a27.24,27.24,0,0,0,3.8-1.22,6.62,6.62,0,0,0,.88-.45l.35.8c-.28.12-.64.28-.94.39a38.34,38.34,0,0,1-4.09,1.3Zm4.82-4.81a11.43,11.43,0,0,0-.81-1.39l.53-.22A14,14,0,0,1,172.22,2Zm.82-2a14.31,14.31,0,0,1,.84,1.36l-.54.25A10.51,10.51,0,0,0,172,.45Z"/><path class="cls-3" d="M182.12,1.77a2.87,2.87,0,0,0-.25.44,12.66,12.66,0,0,1-1.68,2.93,28.68,28.68,0,0,1,2.92,3l-.7.61a23.09,23.09,0,0,0-2.75-3,12.68,12.68,0,0,1-3.9,2.92L175.12,8a11.44,11.44,0,0,0,4.12-3,8.91,8.91,0,0,0,1.66-2.78H177c-.35,0-.9,0-1,.05V1.4c.14,0,.71.07,1,.07h3.86a2.66,2.66,0,0,0,.75-.09Z"/><path class="cls-3" d="M186.62,3.6a1.06,1.06,0,1,1-1.06,1.06A1.05,1.05,0,0,1,186.62,3.6Z"/><path class="cls-3" d="M198.66,1.47h-2.19a5,5,0,0,1,.54.82l-.68.23a4.64,4.64,0,0,0-.67-1h-.8a7,7,0,0,1-.56.63h.15v.78h3.89V4.75h-.72V3.47h-7V4.75H190V2.88h3.77V2.25a3.63,3.63,0,0,0-.41-.23,4,4,0,0,0,.62-.55h-1.78a4.54,4.54,0,0,1,.39.82l-.66.2a6.3,6.3,0,0,0-.47-1H191a6.82,6.82,0,0,1-.86,1.06,4.59,4.59,0,0,0-.61-.4A5.48,5.48,0,0,0,191,.05l.69.18a5,5,0,0,1-.29.62H194v.58a4.69,4.69,0,0,0,.88-1.38l.71.17a5.25,5.25,0,0,1-.31.63h3.39Zm-6.55,5.29h5.42V9.21h-.73V8.89h-4.69v.34h-.7V4.09h5.48v2h-4.78Zm0-2.1v.85h4V4.66Zm0,2.68v1h4.69v-1Z"/><path class="cls-3" d="M202.78,7.16l-3.1,1-.17-.75c.37-.11.83-.25,1.34-.42V4.34h-1.14v-.7h1.14V1.47h-1.24V.77h3.1v.7h-1.15V3.64h1v.7h-1V6.81l1.09-.36Zm6,1.06V8.9h-6.44V8.22h3V6.85h-2.27V6.17h2.27V5H203.2V.55h5.08V5H206.1V6.17h2.33v.68H206.1V8.22Zm-4.87-5.76h1.52V1.2h-1.52Zm0,1.89h1.52V3.07h-1.52Zm3.69-3.15H206V2.46h1.53Zm0,1.87H206V4.35h1.53Z"/><path class="cls-3" d="M209.64,9l2.8-4.37L209.64.29l.63-.29,3,4.66-3,4.65Z"/></g></g></svg>