<?xml version="1.0" encoding="utf-8"?>
<!-- Generator: Adobe Illustrator 24.1.1, SVG Export Plug-In . SVG Version: 6.00 Build 0)  -->
<svg version="1.1" id="レイヤー_1" xmlns="http://www.w3.org/2000/svg" xmlns:xlink="http://www.w3.org/1999/xlink" x="0px"
	 y="0px" viewBox="0 0 319.4 147.3" style="enable-background:new 0 0 319.4 147.3;" xml:space="preserve">
<g>
	<g>
		<path d="M57,21c0,2.2,0.5,3.8,4.3,3.8c2.8,0,4.1-0.7,4.5-0.7c0.5,0,1.1,0.3,1.1,0.7c0,0.4-0.2,0.6-0.7,0.8
			c-0.8,0.3-2.4,0.5-4.6,0.5c-4.5,0-5.7-2.1-5-5.2L57,21z M59.1,17.8c0.8-0.5,1.8-1.2,2.4-1.6c0.2-0.1,0.2-0.2-0.1-0.2
			c-1.9,0-3.2-0.2-4.3-1.6l0.2-0.3c1.2,0.7,1.9,0.9,3.3,0.9c2.1,0,2.5-0.4,3.2-0.4c0.7,0,1.7,0.4,1.7,0.9c0,0.3-0.2,0.5-0.7,0.6
			c-0.5,0.1-1,0.2-1.8,0.4c-0.9,0.3-2.4,1-3.7,1.6L59.1,17.8z M65.2,12.9c0.9,0.3,1.6,0.7,2,1.1s0.6,0.7,0.6,1s-0.2,0.5-0.5,0.5
			s-0.5-0.3-0.8-0.8c-0.3-0.4-0.8-1-1.5-1.6L65.2,12.9z M66.7,11.9c0.9,0.3,1.6,0.6,2,0.9c0.5,0.4,0.6,0.7,0.6,1.1
			c0,0.3-0.1,0.5-0.4,0.5s-0.5-0.4-0.8-0.8c-0.4-0.4-0.7-0.8-1.6-1.4L66.7,11.9z"/>
		<path d="M79.7,19.8c1.5,2.3,4.4,4.2,7,5V25c-0.5,0.1-1,0.5-1.2,1.2C83,25,80.7,22.9,79.4,20v6.7c0,0.2-0.6,0.5-1.1,0.5H78V21
			c-1.7,2.2-4.1,4.1-7,5.4l-0.2-0.3c2.7-1.6,5-4,6.3-6.4h-5.9L71,19.3h7v-4.5h-6.1l-0.2-0.5H78v-2.8l2,0.2c-0.1,0.2-0.2,0.4-0.6,0.5
			v2.1h3.8l0.9-1.2c0,0,1.1,0.8,1.7,1.4c-0.1,0.2-0.2,0.3-0.5,0.3h-5.9v4.5h4.4l1-1.2c0,0,1.1,0.8,1.8,1.4c-0.1,0.2-0.2,0.3-0.4,0.3
			C86.2,19.8,79.7,19.8,79.7,19.8z M73.9,15.1c3.8,1.8,2.5,4.6,1.2,3.5c-0.1-1.1-0.7-2.4-1.4-3.3L73.9,15.1z M80.5,18.8
			c0.6-0.9,1.2-2.3,1.8-3.7l1.9,0.8c-0.1,0.2-0.3,0.3-0.7,0.3c-0.8,1.1-1.8,2.1-2.8,2.8L80.5,18.8z"/>
		<path d="M93.6,20.5c-1.1,0.8-2.6,1.9-4.7,3.3c0,0.2-0.2,0.4-0.3,0.5l-0.8-1.6c0.4-0.2,1.2-0.4,2.2-0.8v-5.1h-1.8L88,16.2h2v-4.4
			l2,0.2c0,0.2-0.2,0.4-0.6,0.5v3.8h0.2l0.7-1.2c0,0,0.9,0.8,1.3,1.4c-0.1,0.2-0.2,0.3-0.4,0.3h-1.9v4.6c0.7-0.3,1.5-0.6,2.3-1V20.5
			z M96.7,19.4c-0.3,0.5-0.5,0.9-0.9,1.4h5.6l0.7-0.7l1.4,1.2c-0.1,0.1-0.3,0.2-0.7,0.3c-0.2,3-0.7,4.7-1.5,5.3
			c-0.5,0.4-1.1,0.5-1.8,0.5c0-0.4-0.1-0.7-0.3-0.9c-0.2-0.2-0.7-0.4-1.3-0.5v-0.3c0.6,0.1,1.5,0.1,1.8,0.1s0.4,0,0.6-0.2
			c0.4-0.4,0.8-1.9,1-4.3h-1.1c-0.9,2.6-2.7,4.6-5.6,6l0.2-0.3c2.2-1.4,3.6-3.4,4.3-5.7H98c-1.2,2.2-3.2,3.9-5.7,5.1L92,26.1
			c2-1.2,3.6-2.9,4.6-4.8h-1.2c-1,1.1-2.3,2-3.9,2.8l-0.2-0.2c1.7-1.1,3-2.7,3.8-4.4h-2.5L92.5,19h8.8l0.9-1.1c0,0,1,0.7,1.6,1.3
			c-0.1,0.2-0.2,0.3-0.4,0.3L96.7,19.4L96.7,19.4z M95.7,17.8c0,0.1-0.6,0.4-1.1,0.4h-0.2v-6.4l1.4,0.6h4.3l0.7-0.8l1.5,1.2
			c-0.1,0.1-0.4,0.3-0.7,0.3v4.4c0,0.1-0.6,0.5-1.1,0.5h-0.2v-0.7h-4.6L95.7,17.8L95.7,17.8z M95.7,13v1.7h4.6V13H95.7z M100.3,16.9
			v-1.7h-4.6v1.7H100.3z"/>
		<path d="M108.5,21.1c-0.9,0-1.7-0.7-1.7-1.7s0.7-1.7,1.7-1.7s1.7,0.7,1.7,1.7S109.4,21.1,108.5,21.1z"/>
		<path d="M129.2,18.7c-0.1,0.1-0.3,0.2-0.7,0.2c-0.9,1.1-2.8,2.5-4.1,3.4l-0.2-0.1c0.8-0.9,1.9-2.4,2.5-3.6h-4.8v6.7
			c0,1.1-0.3,1.8-2.3,1.9c0-0.4-0.2-0.8-0.5-1s-0.9-0.4-1.9-0.5v-0.2c0,0,2.4,0.2,2.9,0.2c0.3,0,0.5-0.1,0.5-0.4v-6.7h-7l-0.2-0.5
			h8.6c-0.5-0.9-2-2.3-4.1-3.3l0.1-0.2c1.5,0.2,2.7,0.6,3.5,1c1-0.6,2.3-1.5,3.1-2.3h-9.1l-0.1-0.5h9.6l0.9-0.8l1.5,1.4
			c-0.2,0.1-0.3,0.2-0.7,0.2c-1.1,0.7-3.1,1.6-4.7,2.2c1.4,0.9,1.5,1.9,1,2.3h3.9l0.9-0.9L129.2,18.7z"/>
		<path d="M130.3,25.6c0.5-1.2,1-3,1.2-4.7l1.7,0.4c-0.1,0.2-0.2,0.3-0.6,0.4c-0.5,1.5-1.2,3.1-2.1,4L130.3,25.6z M135.1,17.1
			c3.5,1.6,2.4,4.1,1.2,3.1c-0.1-0.4-0.2-0.8-0.4-1.3l-1.3,0.3v7.6c0,0.1-0.4,0.4-1.1,0.4h-0.2v-7.7c-0.6,0.1-1.3,0.3-2.1,0.4
			c-0.1,0.2-0.3,0.3-0.4,0.4l-0.4-1.4c0.4,0,1.1,0,1.9-0.1c1-1.6,2.1-3.7,2.8-5.2l1.8,0.7c-0.1,0.2-0.3,0.3-0.7,0.3
			c-0.8,1.2-2.1,2.9-3.4,4.2c0.9-0.1,1.8-0.1,2.8-0.2c-0.3-0.5-0.5-1-0.8-1.4L135.1,17.1z M135.1,12.2c-0.1,0.2-0.3,0.3-0.6,0.3
			c-0.6,0.9-1.3,1.8-2,2.5c1.4,1.1,0.7,2.4-0.2,1.8c-0.2-0.8-1-1.8-1.7-2.4l0.2-0.2c0.6,0.1,1,0.3,1.4,0.5c0.4-0.9,0.8-2.1,1.1-3.2
			L135.1,12.2z M135.3,20.8c3.3,2,2,4.4,0.9,3.3c-0.1-1-0.6-2.4-1.1-3.2L135.3,20.8z M146,15.6c-0.1,0.2-0.4,0.3-0.7,0.3
			c-0.2,5.6-0.5,9.5-1.4,10.5c-0.5,0.6-1.3,0.8-2.2,0.8c0-0.4-0.1-0.8-0.4-1c-0.3-0.3-1.2-0.5-2-0.6v-0.3c0.9,0.1,2.4,0.2,2.8,0.2
			c0.4,0,0.5-0.1,0.7-0.3c0.7-0.6,1-4.5,1.2-9.6h-5c-0.6,1.1-1.2,2-1.9,2.7l-0.2-0.2c0.9-1.7,1.7-4.2,2.1-6.6l2,0.6
			c-0.1,0.2-0.3,0.4-0.6,0.4c-0.3,0.9-0.7,1.8-1.1,2.6h4.5l0.8-0.8L146,15.6z M139,17.9c4,1.9,2.8,4.9,1.4,3.7
			c-0.1-1.2-0.9-2.7-1.6-3.6L139,17.9z"/>
		<path d="M153.5,20.5c1.4-0.7,2.9-1.2,4.6-1.2c2,0,3.5,1.2,3.5,3.2c0,1.7-1.3,3.2-3.5,3.2c-1.3,0-2.4-0.6-3.2-1.9l0.3-0.3
			c0.6,0.6,1.5,1,2.7,1c1.6,0,2.5-1,2.5-2.4c0-1.2-0.8-2.2-2.6-2.2c-1.3,0-2.9,0.7-4.2,1.4c0.1,2.4,0.3,3,0.3,3.6
			c0,0.8-0.5,1.6-1.1,1.6c-0.4,0-0.5-0.6-1-1.1c-0.4-0.4-1.1-0.9-1.8-1.3c-0.5,0.5-0.7,0.7-1,0.7c-0.2,0-0.4-0.1-0.6-0.3
			c-0.3-0.3-0.4-0.5-0.4-0.8c0-0.5,0.1-0.6,0.5-0.6c0.5,0.1,0.7,0,1-0.2c0.6-0.3,1.9-1.4,3.1-2v-1.1v-2c-0.6,0.1-1.4,0.3-1.9,0.3
			c-0.9,0-1.6-0.2-2.3-1.9l0.3-0.2c0.8,0.8,1.1,1,2,1c0.5,0,1.2-0.2,1.9-0.3c0-1.2,0-2.3,0-2.7c0-0.4-0.1-0.5-0.4-0.6
			c-0.3-0.1-0.6-0.1-1.1-0.1L151,13c0.4-0.2,0.8-0.4,1.3-0.4c0.7,0,1.9,0.6,1.9,1s-0.3,0.7-0.4,1.2c-0.1,0.3-0.2,0.9-0.2,1.5
			c1.2-0.5,1.7-1,2-1s0.9,0,1,0.5c0,0.3-0.2,0.5-0.6,0.7c-0.6,0.3-1.7,0.7-2.5,0.9c-0.1,0.7-0.1,1.5-0.1,2.2v0.9H153.5z M152.6,22
			c-0.8,0.6-1.6,1.3-2.3,2c0.6,0.3,1.3,0.6,1.8,0.9c0.4,0.1,0.5,0,0.5-0.3V22z M157.8,14.9c0.8-0.2,1.5-0.3,2.3-0.2
			c1.4,0.2,2.6,1.4,2.7,2.5c0,0.4-0.2,0.7-0.6,0.8c-0.4,0.1-0.6-0.4-1.1-0.3c-0.3,0-1,0.3-1.3,0.5l-0.2-0.3c0.3-0.2,1.1-0.7,1.3-0.9
			c0.2-0.2,0.2-0.4,0-0.6c-0.6-0.9-1.9-1.1-3.1-1L157.8,14.9z"/>
		<path d="M166.6,17.5v9.2c0,0.2-0.5,0.5-1.1,0.5h-0.2V12l1.4,0.7h3.1l0.7-0.7l1.4,1.1c-0.1,0.1-0.3,0.2-0.6,0.3V18
			c0,0.1-0.7,0.4-1.1,0.4H170v-1h-3.4V17.5z M166.6,13.2v1.6h3.3v-1.6H166.6z M169.9,17v-1.7h-3.3V17H169.9z M175.9,20.2
			c-0.1,0.1-0.3,0.3-0.6,0.3v4c0,0.1-0.6,0.4-1.1,0.4H174v-1h-3.8v0.9c0,0.1-0.6,0.4-1.1,0.4h-0.2v-6l1.4,0.6h3.6l0.7-0.7
			L175.9,20.2z M174,23.5v-3.1h-3.8v3.1H174z M179.9,13.1c-0.1,0.1-0.4,0.3-0.7,0.3v12c0,1-0.2,1.5-1.9,1.7
			c-0.1-0.4-0.1-0.7-0.4-0.9c-0.2-0.2-0.6-0.4-1.4-0.5v-0.3c0,0,1.6,0.1,2,0.1c0.3,0,0.4-0.1,0.4-0.4v-7.8h-3.5v0.4
			c0,0.1-0.6,0.4-1.1,0.4h-0.2v-6.2l1.4,0.6h3.2l0.6-0.8L179.9,13.1z M174.3,13.2v1.6h3.5v-1.6H174.3z M177.8,17v-1.7h-3.5V17H177.8
			z"/>
		<path d="M183.4,16.7c0-0.9-0.2-1.4-1.3-2.3l0.1-0.2c0.4,0.1,0.9,0.1,1.2,0.3c0.7,0.3,1.6,1.1,1.6,1.9c0,0.8-0.7,1.8-0.7,3.7
			c0,2,0.9,3,1.6,3.3c0.3,0.1,0.5,0.1,0.6-0.1c0.5-0.8,1.1-2,1.6-3.1l0.4,0.2c-0.4,1.2-0.9,2.6-1,3.1c-0.1,0.8,0.2,0.9,0.2,1.3
			c0,0.5-0.6,0.9-1.4,0.5c-1.3-0.6-3-2.1-3.1-5.2C183.3,18.8,183.4,17.6,183.4,16.7z M191.3,16.2l0.1-0.4c1.7,0.2,2.5,0.8,3.4,1.7
			c1,1,1.5,2.6,1.5,3.8c0,0.8-0.3,1.2-0.8,1.2c-0.3,0-0.6-0.2-0.6-0.6c-0.1-0.7-0.2-2-0.9-3.3C193.4,17.4,192.5,16.7,191.3,16.2z"/>
		<path d="M207.6,12c-0.1,0.2-0.3,0.3-0.7,0.3c1.5,2.1,4.4,3.8,7.3,4.8v0.2c-0.6,0.2-1.1,0.7-1.2,1.2c-2.7-1.4-5.2-3.5-6.4-6
			c-1.6,2.5-4.9,5.3-8.2,6.7l-0.1-0.2c2.9-1.6,6.2-5.1,7.1-7.5L207.6,12z M210.3,20.1l1.6,1.2c-0.1,0.1-0.4,0.3-0.7,0.3v5
			c0,0.1-0.7,0.4-1.2,0.4h-0.2v-1.2h-7.1v0.9c0,0.1-0.6,0.4-1.2,0.4h-0.2v-7l1.5,0.7h6.8L210.3,20.1z M208.7,16.7c0,0,1,0.8,1.6,1.4
			c-0.1,0.2-0.2,0.3-0.5,0.3h-7.5l-0.1-0.5h5.6L208.7,16.7z M209.8,25.4v-4h-7.1v4H209.8z"/>
		<path d="M221.1,18.3c1.6-1,3.1-1.6,4.9-1.6c2.3,0,4.3,1.6,4.3,3.9c0,2.5-1.8,4.7-6.5,5.7l-0.2-0.4c4.3-1.6,5.2-3.8,5.2-5.7
			c0-1.6-1.2-2.9-3.1-2.9c-1.7,0-3.5,0.9-4.8,2c-0.1,1.8,0.1,3.7,0.2,4.7c0,0.5,0.1,0.8,0.1,1.2c0,0.7-0.3,1.5-0.8,1.5
			c-0.4,0-0.6-0.2-0.7-0.6c-0.1-0.4-0.2-0.8-0.3-1.2c-0.2-0.4-0.7-1.3-1.1-1.9c-0.3,0.5-0.6,0.9-0.9,1.3c-0.2,0.3-0.4,0.6-0.7,0.6
			s-0.5-0.3-0.5-0.7c0-0.4,0.1-0.6,0.4-1c0.7-0.8,2.5-2.9,3.7-4.7c0-0.4,0.1-0.8,0.1-1.2c-0.5,0.3-1.1,0.6-1.5,0.8
			c-0.4,0.2-0.5,0.6-0.8,0.6c-0.6,0-1.3-0.7-1.5-1.3c-0.1-0.3-0.1-0.5-0.1-0.8l0.3-0.1c0.3,0.5,0.5,0.7,0.8,0.7c0.4,0,2-0.7,2.9-1.1
			c0.1-1.1,0.3-2,0.3-2.5c0-0.4-0.1-0.5-0.4-0.6c-0.2-0.1-0.6-0.2-1-0.3v-0.3c0.3-0.1,0.7-0.2,1.1-0.2c0.8,0,1.7,0.8,1.7,1.3
			c0,0.3-0.2,0.5-0.4,1.2c-0.1,0.2-0.2,0.6-0.3,1.2l0,0c0.3,0.2,0.7,0.5,0.7,0.7s-0.2,0.4-0.4,0.6s-0.5,0.5-0.7,0.9V18.3z
			 M220.1,23.9c0-0.7,0-2.1,0-3.6c-0.5,0.7-1,1.5-1.5,2.2c0.5,0.6,1,1.2,1.2,1.4C220,24.2,220.1,24.2,220.1,23.9z"/>
		<path d="M241.3,13.1c0.4-0.2,0.8-0.4,1.2-0.4c0.9,0,1.9,0.7,1.9,1.2c0,0.3-0.3,0.4-0.4,1c0,0.5-0.1,1.1-0.1,1.8
			c1.3-0.3,2.2-0.4,2.5-0.4c0.7,0,1.5,0.3,1.5,0.9c0,0.4-0.3,0.5-0.8,0.5c-0.7,0-1.3-0.2-2.6,0c-0.2,0-0.4,0.1-0.7,0.1
			c-0.1,1.2-0.2,2.7-0.3,3.4c-0.2,0.8-0.6,1.3-1.3,1.3c-0.3,0-0.5-0.1-0.6-0.4c-0.3-0.5-1-0.9-1.7-1.2l0.1-0.3
			c0.8,0.2,1.6,0.4,1.9,0.4c0.3,0,0.5-0.1,0.6-0.4c0.1-0.5,0.2-1.7,0.2-2.6c-1.6,0.3-3.4,0.7-4.7,1.1c-0.1,1.5-0.1,3.1-0.1,3.8
			c0.1,1.7,0.4,2,2.5,2s3.5-0.5,4-0.5c0.6,0,1.2,0.2,1.2,0.7c0,0.4-0.2,0.5-0.8,0.7c-0.7,0.2-2.1,0.3-3.9,0.3c-2.6,0-4-0.5-4.1-2.5
			c-0.1-1,0-2.5-0.1-4.1c-1.9,0.6-2.6,1.1-3.1,1.1s-1.2-0.6-1.4-1.3c-0.1-0.2-0.1-0.6-0.1-1l0.3-0.1c0.3,0.4,0.7,0.9,1.1,0.9
			c0.4,0,2.1-0.4,3.2-0.7c0-1.1,0-2.2-0.1-2.7c-0.1-0.5-0.1-0.6-0.4-0.7c-0.3-0.1-0.7-0.2-1-0.2v-0.3c0.4-0.1,0.8-0.3,1.2-0.3
			c0.8,0,1.9,0.7,1.9,1.1c0,0.3-0.3,0.4-0.4,1.1c0,0.4-0.1,1-0.1,1.7c1.2-0.3,3.2-0.8,4.7-1.1c0-1,0-2.3,0-3c0-0.3-0.2-0.4-0.5-0.5
			s-0.6-0.1-1-0.1L241.3,13.1z"/>
		<path d="M254.3,19.8c-0.3,0.9-1,2.8-1.2,3.4s-0.2,0.9-0.2,1.2c0,0.5,0.3,1.1,0.3,1.5s-0.2,0.6-0.6,0.6c-0.3,0-0.6-0.3-0.9-0.7
			c-0.5-0.7-1-2.3-1-4c0-1.9,0.5-3.7,0.8-4.7c0.2-0.8,0.4-1.4,0.4-2.1s-0.4-1.3-1-1.9l0.3-0.2c0.4,0.2,0.7,0.3,1,0.5
			c0.4,0.3,1.2,1.2,1.2,2c0,0.4-0.3,0.7-0.7,1.7c-0.5,1-1.2,2.8-1.2,4.5c0,0.8,0.1,1.2,0.3,1.6c0.1,0.2,0.3,0.2,0.4,0
			c0.4-0.6,1.3-2.7,1.7-3.6L254.3,19.8z M261.1,17.7c0,1.7,0.1,3.3,0.2,4.5c1.4,0.4,2.3,1,2.8,1.5c0.4,0.3,0.5,0.7,0.5,1
			c0,0.4-0.2,0.6-0.5,0.6s-0.5-0.2-0.9-0.6c-0.6-0.6-1.2-1-1.9-1.4c0,0.1,0,0.3,0,0.4c0,1.4-0.9,2.3-3,2.3c-1.5,0-2.8-0.7-2.8-2
			c0-1.5,1.6-2.2,3.4-2.2c0.4,0,0.8,0,1.1,0.1c-0.1-1.2-0.2-2.9-0.2-4.3c-0.6,0.1-1.2,0.1-1.8,0.1c-1.1,0-1.8-0.2-2.7-1.7l0.2-0.2
			c0.7,0.5,1.5,0.9,2.3,0.9c0.7,0,1.4-0.1,2-0.2c0-0.8,0-1.7,0-2.1c0-0.5-0.1-0.6-0.3-0.6c-0.3-0.1-0.8-0.2-1.2-0.2v-0.3
			c0.4-0.2,0.9-0.4,1.3-0.4c0.9,0,1.8,0.5,1.8,0.9s-0.2,0.5-0.3,1.2c-0.1,0.3-0.1,0.8-0.2,1.3c0.3-0.1,0.6-0.2,0.8-0.3
			c0.9-0.3,1.2-0.5,1.3-0.5c0.4,0,1,0.2,1,0.6c0,0.4-0.3,0.5-0.9,0.8c-0.4,0.2-1.3,0.4-2.2,0.6v0.2H261.1z M260.2,23
			c-0.5-0.1-1.1-0.2-1.8-0.2c-1,0-2.1,0.4-2.1,1.2c0,0.7,0.8,1,1.7,1C259.9,25.1,260.2,24.4,260.2,23L260.2,23z"/>
		<path d="M5.8,38.9c0.5,0.5,1.1,0.8,1.7,0.8c0.7,0,2.2-0.2,3.8-0.4c2.5-0.4,2.4-0.8,2.8-0.8c0.7,0,1.8,0.4,1.8,0.9
			c0,0.3-0.2,0.5-0.7,0.6c-0.6,0.1-2.6,0.3-4.3,0.4c0.6,0.3,1,0.6,1,0.9c0,0.3-0.2,0.6-0.3,1.1c-0.1,0.7-0.2,2.2-0.3,3.3
			c1.2-0.1,2.5-0.2,3.5-0.3c0.8-0.1,1-0.2,1.2-0.2c0.7,0,2.2,0.7,2.2,1.3c0,0.4-0.2,0.6-0.6,0.6c-0.5,0-1.8-0.4-3.7-0.5
			c-1.6,0-5.2,0.4-6.9,0.8c-0.7,0.2-1.1,0.4-1.5,0.4c-0.5,0-1.4-0.8-1.6-1.2c-0.1-0.3-0.2-0.5-0.2-1L4,45.5c0.4,0.5,0.8,0.8,1.4,0.8
			s2.6-0.2,4.8-0.4c0.1-1.2,0.1-3,0.1-3.8c0-0.7-0.2-1.1-0.5-1.6c-1.1,0.2-2,0.3-2.4,0.3s-0.8-0.3-1.1-0.7c-0.3-0.1-0.6-0.6-0.7-1
			L5.8,38.9z"/>
		<path d="M24.5,36.2c0.3,0,0.6-0.1,1.1,0c0.8,0.1,1.8,0.7,1.8,1s-0.2,0.5-0.5,0.9c-0.2,0.3-0.4,0.6-0.6,0.9c0.1,0,0.2,0,0.3,0
			c0.7,0,2.8-0.3,3.3-0.4c0.5-0.1,0.6-0.4,0.9-0.4c0.4,0,1.7,0.7,1.7,1.3c0,0.4-0.6,0.5-0.8,1c-2.4,4.3-5.8,7.8-10.8,9.7l-0.3-0.4
			c4.4-2.3,8.3-6.6,9.7-10.1c0.1-0.2,0-0.3-0.2-0.3c-0.4,0-2,0.3-2.5,0.4c-0.4,0.1-0.7,0.2-1,0.2c-0.2,0-0.4-0.2-0.7-0.4
			c-1.4,1.8-3.1,3.4-5.2,4.4l-0.2-0.3c2.7-2,5.1-5.4,5.1-6.4c0-0.3-0.4-0.6-1-0.9L24.5,36.2z"/>
		<path d="M43.9,44.3c1.1-1.1,2-2.3,2.5-3.3c0.1-0.2,0-0.3-0.2-0.3c-0.9,0.1-3.4,1-4.9,1.5c-0.1,1.4-0.1,3-0.1,4
			c0,1.4,0.2,1.6,2.2,1.6c2.3,0,3.2-0.4,3.5-0.4c0.5,0,1.3,0.2,1.3,0.7c0,0.4-0.3,0.5-0.8,0.6C46.6,48.8,45.1,49,44,49
			c-2.8,0-3.8-0.2-3.8-2.5c0-1.1,0-2.7,0-3.9c-0.8,0.3-1.7,0.6-2.3,0.9c-0.6,0.3-0.7,0.6-1.2,0.6c-0.4,0-1.4-0.8-1.7-1.3
			c-0.1-0.3-0.1-0.6-0.1-1l0.3-0.1c0.3,0.5,0.6,0.8,1.1,0.8c0.6,0,2.8-0.6,4-1c0-1.4,0.1-3.1,0-3.7c0-0.4-0.5-0.5-1.4-0.7v-0.3
			c0.5-0.2,1-0.3,1.4-0.3c0.7,0,1.9,0.7,1.9,1.1c0,0.4-0.3,0.6-0.4,1.2c-0.1,0.5-0.1,1.3-0.2,2.4c1.4-0.4,3.5-1,4.4-1.2
			c0.5-0.2,0.7-0.5,1-0.5c0.6,0,1.8,1,1.8,1.5c0,0.4-0.6,0.5-1,0.8c-0.8,0.8-2.1,1.9-3.5,2.8L43.9,44.3z"/>
		<path d="M52.4,38.1c0.4-0.2,0.9-0.4,1.3-0.4c0.8,0,2,0.8,2,1.3c0,0.3-0.4,0.6-0.4,1.1C55.1,41,55,45.4,55,47
			c0,0.2,0.1,0.2,0.2,0.2c2.9-0.9,7.1-3.7,9.5-6.1l0.3,0.3c-2.1,2.9-5.4,5.4-9,7.2c-0.6,0.3-0.6,0.7-1,0.7c-0.5,0-1.4-1.1-1.4-1.5
			c0-0.3,0.3-0.5,0.3-1.1c0.1-1.2,0.1-6.2,0-7.4c0-0.4-0.2-0.6-1.4-0.8L52.4,38.1z"/>
		<path d="M80.1,39.3l0.4,0.2c-2,3.7-5.2,6.5-8.9,8.9c-0.4,0.2-0.6,0.7-1,0.7c-0.7,0-1.8-0.8-2.2-1.4c-0.2-0.3-0.3-0.9-0.3-1.2
			l0.3-0.2c0.5,0.5,1,1.1,1.6,1.1C71.4,47.3,77.7,42.8,80.1,39.3z M68.4,37.7c2.1,0.5,4.5,1.6,4.5,3c0,0.5-0.3,0.8-0.7,0.8
			c-0.4,0-0.6-0.2-1.1-0.8c-0.8-1-1.4-1.6-2.9-2.7L68.4,37.7z"/>
		<path d="M85.9,36.6c0.5-0.1,0.8-0.3,1.2-0.3c0.8,0,2,0.7,2,1.1c0,0.4-0.3,0.5-0.4,1.1c-0.1,0.8-0.1,1.9-0.2,2.9
			c1.6,0.3,3.3,0.9,4.2,1.4c0.6,0.4,1,0.8,1,1.4c0,0.4-0.2,0.7-0.7,0.7c-0.7,0-0.9-0.7-2-1.6c-0.7-0.5-1.5-1-2.6-1.4
			c0,1.3,0,4,0,5.7c0,0.8,0.1,1.3,0.1,1.6c0,0.6-0.2,0.8-0.6,0.8c-0.7,0-1-0.9-1-1.7c0-0.4,0.2-0.7,0.2-1.4c0.1-1.3,0.1-3.9,0.1-5.1
			c0-1.4,0-3.3-0.1-4.1c-0.1-0.5-0.5-0.7-1.3-0.8L85.9,36.6z"/>
		<path d="M98.6,40.8l0.2-0.4c0.8,0.2,1.5,0.3,2.3,0.6c1.1,0.4,1.9,1,1.9,1.8c0,0.3-0.2,0.6-0.6,0.6c-0.6,0-0.9-0.6-1.8-1.3
			C99.9,41.6,99.3,41.2,98.6,40.8z M111.4,39.8l0.4,0.2c-1.9,3.4-5.5,6.5-9.3,8.7c-0.4,0.2-0.6,0.7-1.1,0.7c-0.6,0-1.7-0.7-2.1-1.3
			c-0.2-0.3-0.4-1-0.4-1.3l0.3-0.2c0.4,0.5,1,1.1,1.6,1.1C102.2,47.7,108.4,43.9,111.4,39.8z M100.8,37.5l0.2-0.4
			c0.6,0.1,1.4,0.3,2.2,0.6c1.2,0.5,1.8,1.1,1.8,1.8c0,0.4-0.3,0.7-0.6,0.7c-0.6,0-0.9-0.7-1.8-1.4C102,38.2,101.3,37.8,100.8,37.5z
			"/>
		<path d="M114.2,40.6c0.4,0.4,0.7,0.9,1.1,0.9c1.2,0,5.7-0.7,8.5-1c1.2-0.1,1.5-0.3,1.7-0.3c0.8,0,1.8,0.4,1.8,1
			c0,0.4-0.1,0.5-0.5,0.5c-0.3,0-1-0.1-1.9-0.1c-0.7,0-2.1,0.1-3.5,0.2c0.5,0.3,0.9,0.6,0.9,0.9c0,0.4-0.4,0.5-0.6,1.1
			c-0.7,1.8-1.9,4.6-5.9,6.7l-0.3-0.3c4-2.6,5-6.5,5-7.5c0-0.2-0.1-0.4-0.2-0.7c-1.3,0.2-2.8,0.5-3.3,0.6c-0.5,0.2-1,0.4-1.5,0.4
			c-0.4,0-1.2-0.7-1.4-1.2c-0.1-0.2-0.1-0.5-0.1-0.9L114.2,40.6z M116.7,37c0.7,0.5,1.2,0.6,1.7,0.6c1.1,0,2.3-0.2,3.1-0.4
			c1-0.2,1.2-0.5,1.5-0.5c0.8,0,1.5,0.3,1.5,0.8c0,0.3-0.2,0.4-0.7,0.5c-1.3,0.3-3.8,0.7-5.3,0.7c-0.9,0-1.4-0.5-2-1.5L116.7,37z"/>
		<path d="M136.9,39.7c0.3,0,0.6,0,1,0.1c0.6,0.2,1.3,0.8,1.3,1.3c0,0.3-0.3,0.3-0.6,0.7c-0.5,0.5-1.1,1.2-1.9,1.9
			c0.4,0.3,0.7,0.5,0.7,0.7s-0.1,0.4-0.1,0.7c-0.1,1.8,0,3.7,0,4.4c0,0.5-0.2,0.8-0.6,0.8c-0.6,0-0.8-0.6-0.8-1.2
			c0-0.2,0.1-0.5,0.1-0.9c0.1-1.1,0.2-2.8,0.2-3.4c0-0.2-0.1-0.4-0.1-0.5c-0.9,0.7-2.8,2.2-5,3l-0.2-0.3c3.5-2,6.7-5.6,6.7-6.4
			c0-0.3-0.4-0.5-0.7-0.7L136.9,39.7z"/>
		<path d="M149.9,39.6c-0.1,0.2-0.3,0.3-0.7,0.2c-0.4,0.5-0.9,1.1-1.5,1.8l0.6,0.2c-0.1,0.1-0.2,0.3-0.5,0.3v8.2
			c0,0.1-0.6,0.4-1.1,0.4h-0.3v-7.9c-0.8,0.8-1.7,1.5-2.7,2.1l-0.2-0.2c1.8-1.7,3.6-4.4,4.5-6.1L149.9,39.6z M149.7,36.1
			c-0.1,0.2-0.3,0.2-0.6,0.2c-1.1,1.2-3,2.8-4.9,3.8l-0.2-0.2c1.5-1.3,3.2-3.4,4-4.8L149.7,36.1z M158,39.5c0,0,1,0.8,1.6,1.3
			c0,0.2-0.2,0.3-0.4,0.3h-2.7v7.6c0,1-0.3,1.8-2.3,1.9c0-0.4-0.2-0.8-0.5-1s-0.9-0.4-2-0.5v-0.3c0,0,2.4,0.2,2.9,0.2
			c0.4,0,0.5-0.1,0.5-0.4V41h-5.4l-0.1-0.5h7.6L158,39.5z M150.7,37.2l-0.1-0.5h6l0.9-1.1c0,0,1,0.8,1.6,1.3c0,0.2-0.2,0.3-0.5,0.3
			H150.7z"/>
		<path d="M164.7,39.4c-0.1,0.2-0.3,0.3-0.7,0.2c-0.3,0.6-0.7,1.2-1.2,1.9l0.6,0.2c-0.1,0.2-0.2,0.3-0.5,0.3v8.2
			c0,0.1-0.5,0.5-1.1,0.5h-0.3V43c-0.6,0.7-1.4,1.5-2.1,2.1l-0.2-0.2c1.5-1.8,2.8-4.6,3.4-6.4L164.7,39.4z M164.5,36
			c-0.1,0.2-0.3,0.3-0.7,0.2c-1,1.2-2.6,2.8-4.3,3.8l-0.2-0.2c1.3-1.4,2.7-3.4,3.4-4.8L164.5,36z M165.7,46c0.3,1.6-0.1,2.8-0.6,3.3
			c-0.3,0.4-1.1,0.4-1.3,0s0-0.8,0.4-1c0.5-0.4,1.2-1.4,1.3-2.3H165.7z M166.1,43.9v0.6c0,0.1-0.4,0.4-1,0.4h-0.2v-5.7l1.4,0.6h2.5
			V38h-4.4l-0.1-0.5h4.5v-2.3l2,0.2c0,0.2-0.2,0.4-0.6,0.5v1.6h2.6l0.9-1.1c0,0,1,0.8,1.6,1.3c-0.1,0.2-0.2,0.3-0.4,0.3h-4.6v1.8
			h2.9l0.6-0.7l1.3,1c-0.1,0.1-0.3,0.2-0.6,0.3v4c0,0.1-0.5,0.3-1.1,0.3h-0.2v-0.8C173.2,43.9,166.1,43.9,166.1,43.9z M166.1,40.3
			v3.1h1.5v-3.1H166.1z M172.2,49.2c0.4,0.1,0.5,0.3,0.5,0.5c0,0.5-0.5,0.8-2.8,0.8h-1.5c-1.3,0-1.5-0.3-1.5-1.1v-3.9l1.7,0.2
			c0,0.2-0.2,0.4-0.5,0.4v3c0,0.2,0,0.3,0.5,0.3h1.3h1.2c0.2,0,0.3-0.1,0.3-0.2c0.1-0.2,0.3-0.9,0.5-1.7h0.2L172.2,49.2z
			 M168.1,44.4c3.9,0.5,3.2,3.2,1.8,2.4c-0.3-0.8-1.2-1.8-2-2.3L168.1,44.4z M170.3,43.4v-3.1h-1.6v3.1H170.3z M171.4,40.3v3.1h1.7
			v-3.1H171.4z M172.2,45.6c4.2,1.8,3.1,4.9,1.8,3.8c-0.1-1.2-1.1-2.8-2-3.7L172.2,45.6z"/>
		<path d="M176.1,45.3c1.2,4.9-1.9,4.4-1,2.9c0.5-0.5,0.7-1.6,0.7-2.9H176.1z M183,43.7c-0.1,0.1-0.3,0.2-0.7,0.3
			c-0.2,3.4-0.6,5.1-1.3,5.7c-0.4,0.4-1,0.5-1.6,0.5c0-0.3-0.1-0.6-0.2-0.8c-0.2-0.2-0.6-0.3-1.1-0.4v-0.3c0.5,0,1.3,0.1,1.6,0.1
			s0.4,0,0.6-0.2c0.4-0.4,0.8-1.9,0.9-4.8h-4.1v0.6c0,0.1-0.4,0.4-1,0.4H176v-9l1.4,0.6h3.5l0.8-1c0,0,0.9,0.7,1.4,1.2
			c-0.1,0.2-0.2,0.3-0.4,0.3h-2.8v1.8h1l0.7-0.9c0,0,0.8,0.6,1.3,1.1c0,0.2-0.2,0.3-0.4,0.3H180V41h0.9l0.7-0.9c0,0,0.8,0.6,1.3,1.1
			c-0.1,0.2-0.2,0.3-0.4,0.3H180v1.9h1.3l0.7-0.7L183,43.7z M177.1,45.2c1.7,2.2,0.6,4-0.1,3.1c0.2-1,0-2.2-0.2-3.1H177.1z
			 M177.1,36.8v1.8h1.5v-1.8H177.1z M178.7,39.1h-1.5V41h1.5V39.1z M177.1,43.4h1.5v-1.9h-1.5V43.4z M178.1,44.9
			c2.3,1.6,1.3,3.4,0.6,2.6c0-0.8-0.4-1.9-0.8-2.5L178.1,44.9z M179.1,44.5c2.5,0.7,1.8,2.5,0.9,1.9c-0.1-0.6-0.6-1.4-1.1-1.8
			L179.1,44.5z M186.3,42.2c0.7,3.1,2.3,5.9,4.7,7v0.2c-0.5,0.1-0.9,0.6-1.1,1.2c-2.3-1.7-3.4-4.5-3.9-8.5h-1
			c-0.1,2.9-0.5,6.2-3.2,8.5l-0.3-0.2c2-2.6,2.2-5.9,2.2-9.1v-5.7l1.5,0.6h3.3l0.7-0.8l1.5,1.1c-0.1,0.1-0.4,0.3-0.7,0.3v5.8
			c0,0.1-0.7,0.4-1.1,0.4h-0.2v-1h-2.4V42.2z M185,41.7h3.7v-4.9H185v4.6V41.7z"/>
		<path d="M204.7,37.1c0,0,1.1,0.8,1.7,1.4c-0.1,0.2-0.2,0.3-0.4,0.3h-15.1l-0.2-0.5h5.4c-0.1,0-0.3-0.1-0.4-0.2
			c-0.2-1-1-2.2-1.7-2.9l0.2-0.1c3.4,0.8,3.2,3,2.3,3.2h3.2c0.5-1,1.2-2.3,1.5-3.2l2.1,0.6c-0.1,0.2-0.3,0.3-0.6,0.3
			c-0.6,0.7-1.5,1.6-2.4,2.3h3.6L204.7,37.1z M197,39.8l1.5,1.2c-0.1,0.1-0.4,0.3-0.7,0.3v7.8c0,1-0.2,1.5-1.7,1.7
			c0-0.4-0.1-0.7-0.3-0.9s-0.5-0.4-1.1-0.4v-0.3c0,0,1.2,0.1,1.5,0.1s0.3-0.1,0.3-0.3v-2.6h-3v4c0,0.2-0.5,0.5-1.1,0.5h-0.2v-11
			l1.4,0.6h2.7L197,39.8z M193.5,41.1v2.1h3v-2.1H193.5z M196.5,45.8v-2.2h-3v2.2H196.5z M201.2,47.6c0,0.1-0.5,0.4-1,0.4H200v-7.8
			l1.9,0.2c0,0.2-0.2,0.4-0.6,0.5L201.2,47.6L201.2,47.6z M203.6,39.8l1.9,0.2c-0.1,0.2-0.2,0.4-0.6,0.4V49c0,1-0.2,1.6-2,1.8
			c-0.1-0.4-0.1-0.7-0.4-0.9c-0.3-0.2-0.7-0.4-1.5-0.5v-0.3c0,0,1.8,0.1,2.1,0.1s0.4-0.1,0.4-0.3v-9.1H203.6z"/>
		<path d="M211,36.2c0.5,0.1,1,0.2,1.3,0.4c0.5,0.3,1.2,0.9,1.2,1.2s-0.4,0.4-0.6,0.8c-0.4,0.7-0.7,1.3-1.2,1.9
			c0.2,0.1,0.4,0.1,0.6,0.1c0.9,0,4.6-0.5,5.5-0.7c0.7-0.1,0.9-0.4,1.2-0.4c0.6,0,1.6,0.4,1.6,0.9c0,0.3-0.1,0.5-0.7,0.5
			c-0.6,0-1.6,0-2.4,0c-0.6,0-1.5,0.1-2.4,0.2c0.7,0.3,1.3,0.8,1.3,1.1s-0.3,0.5-0.5,0.8c-1.1,2.8-3.2,5.3-6.6,7l-0.3-0.3
			c3.3-2.2,5.6-6,5.6-7.7c0-0.4-0.2-0.6-0.5-0.8c-0.3,0-0.6,0.1-0.9,0.1c-0.4,0.1-0.8,0.2-1.1,0.2s-0.6-0.3-0.9-0.5
			c-1,1.3-2.3,2.5-3.9,3.6l-0.3-0.3c2.6-2.2,4.6-5.6,4.6-6.8c0-0.4-0.2-0.7-0.8-1.1L211,36.2z M217.8,36.5c0.9,0.3,1.5,0.7,1.9,1.1
			c0.4,0.4,0.6,0.7,0.6,1.1c0,0.3-0.2,0.5-0.5,0.5s-0.5-0.3-0.8-0.7c-0.3-0.5-0.7-1-1.5-1.6L217.8,36.5z M219.4,35.5
			c0.9,0.3,1.5,0.6,2,0.9c0.4,0.4,0.6,0.7,0.6,1.1c0,0.3-0.2,0.5-0.5,0.5s-0.5-0.4-0.8-0.8c-0.4-0.4-0.7-0.8-1.5-1.4L219.4,35.5z"/>
		<path d="M225.3,37.9c0.3,0.4,0.7,1,1.2,1c1,0,4.2-0.6,5.2-0.8c0.4-0.1,0.6-0.5,0.9-0.5c0.6,0,1.8,1,1.8,1.4s-0.6,0.5-0.8,0.9
			c-0.6,0.9-1.5,2.4-2.8,3.8c2.8,1.1,5.5,2.9,5.5,4.5c0,0.4-0.2,0.7-0.7,0.7s-0.8-0.5-1.6-1.5c-1-1.3-2-2.3-3.5-3.3
			c-1.6,1.6-4,3.8-7.5,5.1l-0.2-0.4c4-2.1,8.1-6.2,9.6-9.6c0.1-0.2,0-0.3-0.2-0.3c-1.1,0.2-3.4,0.7-4.3,1c-0.5,0.2-0.6,0.5-1.1,0.5
			c-0.6,0-1.3-0.8-1.5-1.3c-0.1-0.3-0.2-0.6-0.2-1.1L225.3,37.9z"/>
		<path d="M242.3,36.6c0.5-0.1,0.8-0.3,1.2-0.3c0.8,0,2,0.7,2,1.1c0,0.4-0.3,0.5-0.4,1.1c-0.1,0.8-0.1,1.9-0.2,2.9
			c1.6,0.3,3.3,0.9,4.2,1.4c0.6,0.4,1,0.8,1,1.4c0,0.4-0.2,0.7-0.7,0.7c-0.7,0-0.9-0.7-2-1.6c-0.7-0.5-1.5-1-2.6-1.4
			c0,1.3,0,4,0,5.7c0,0.8,0.1,1.3,0.1,1.6c0,0.6-0.2,0.8-0.6,0.8c-0.7,0-1-0.9-1-1.7c0-0.4,0.2-0.7,0.2-1.4c0.1-1.3,0.1-3.9,0.1-5.1
			c0-1.4,0-3.3-0.1-4.1c-0.1-0.5-0.5-0.7-1.3-0.8L242.3,36.6z"/>
		<path d="M261.6,36.5c0.4-0.2,0.8-0.3,1.1-0.3c0.8,0,1.9,0.7,1.9,1.1c0,0.4-0.3,0.3-0.4,1.1c0,0.6,0,1.4-0.1,2.1
			c1.9-0.2,2-0.3,2.4-0.3c0.8,0,1.8,0.4,1.8,1c0,0.4-0.2,0.5-0.5,0.5c-0.5,0-1.2-0.2-2.6-0.2c-0.3,0-0.7,0-1.1,0
			c-0.1,2.2-0.2,4.2-1.2,5.7c-0.9,1.2-2.5,2.3-4.6,3l-0.2-0.4c1.3-0.7,2.8-1.6,3.8-3.1c0.8-1.3,1-3.2,1-5.2
			c-1.2,0.1-2.4,0.2-3.5,0.3c0,1.4,0,2.7,0,3.3c0,0.7-0.2,1-0.6,1c-0.5,0-0.8-0.8-0.8-1.3s0.3-1,0.3-2.8c-0.8,0.1-1.5,0.3-2,0.4
			c-0.4,0.1-0.8,0.4-1.2,0.4c-0.5,0-1.2-0.9-1.3-1.2c-0.1-0.2-0.1-0.7-0.1-1l0.3-0.1c0.3,0.5,0.6,1,1.1,1c0.6,0,2.2-0.2,3.2-0.3
			c0-0.9,0-2.1-0.1-2.5s-0.5-0.5-1.2-0.6v-0.3c0.3-0.2,0.7-0.3,1.1-0.3c0.6,0,1.7,0.5,1.7,1.1c0,0.4-0.2,0.4-0.3,0.9
			c0,0.3-0.1,1-0.1,1.6l3.5-0.3c0-1.5,0-2.5-0.1-3.2c-0.1-0.4-0.5-0.5-1.2-0.6L261.6,36.5z"/>
		<path d="M271.1,38.7c0.8,0.1,1.5,0.3,2.1,0.8l0.1,0.1c1.7-0.1,5.5-0.4,6.2-0.5c0.6-0.1,0.7-0.5,1.1-0.5c0.5,0,1.8,1.1,1.8,1.6
			c0,0.4-0.6,0.6-0.7,1.1c-0.2,0.8-0.5,2.9-0.9,4.6c0.6,0.1,1.1,0.3,1.1,0.7c0,0.3-0.2,0.6-0.6,0.6s-1.3-0.1-2.2-0.1
			c-1.3,0-3.5,0.1-5.5,0.3c0,0.2,0,0.4,0,0.6c0,0.4-0.2,0.7-0.6,0.7s-0.8-0.5-0.8-1.3c0-0.4,0.1-1.3,0.1-2c0-1.2-0.2-3.8-0.5-4.9
			c-0.2-0.6-0.4-1-1-1.4L271.1,38.7z M279.6,45.8c0.3-1.9,0.7-4.7,0.7-5.6c0-0.1-0.1-0.2-0.2-0.2c-1,0-3.6,0.2-4.5,0.3
			c-0.5,0.1-1.1,0.2-1.4,0.2c-0.2,0-0.5-0.1-0.7-0.2c0.1,1.2,0.2,4.2,0.2,5.9C275.4,46.1,278,45.9,279.6,45.8z"/>
		<path d="M299.1,39.3l0.4,0.2c-2,3.7-5.2,6.5-8.9,8.9c-0.4,0.2-0.6,0.7-1,0.7c-0.7,0-1.8-0.8-2.2-1.4c-0.2-0.3-0.3-0.9-0.3-1.2
			l0.3-0.2c0.5,0.5,1,1.1,1.6,1.1C290.3,47.3,296.7,42.8,299.1,39.3z M287.3,37.7c2.1,0.5,4.5,1.6,4.5,3c0,0.5-0.3,0.8-0.7,0.8
			c-0.4,0-0.6-0.2-1.1-0.8c-0.8-1-1.4-1.6-2.9-2.7L287.3,37.7z"/>
		<path d="M300.3,42.9l0.3-0.2c0.4,0.3,0.8,0.6,1.1,0.6c0.2,0,0.5-0.2,0.8-0.5c0.8-0.7,2.3-2.3,2.9-3c0.4-0.4,0.7-0.6,1.2-0.6
			s1,0.2,1.6,0.7c1.9,1.8,3.5,4.2,6.8,6.1c0.6,0.3,0.8,0.8,0.8,1.2s-0.2,0.7-0.7,0.7c-0.7,0-2.2-1.1-3.6-2.6s-2.8-3.3-4-4.6
			c-0.3-0.3-0.6-0.4-0.8-0.4c-0.2,0-0.4,0.2-0.7,0.5c-0.6,0.7-1.8,2.4-2.4,3.2c-0.4,0.6-0.7,1-1.2,1s-1.3-0.5-1.6-1
			C300.5,43.7,300.3,43.3,300.3,42.9z"/>
	</g>
</g>
<g>
	<g>
		<path d="M54.5,77.3c0-10,3.9-14.9,9.8-14.9s9.8,4.9,9.8,14.9s-3.9,15.2-9.8,15.2C58.4,92.4,54.5,87.3,54.5,77.3z M68.7,77.3
			c0-8.1-1.9-10.5-4.3-10.5c-2.5,0-4.4,2.4-4.4,10.5c0,8.2,1.9,10.7,4.4,10.7C66.8,87.9,68.7,85.4,68.7,77.3z"/>
		<path d="M79.8,87.2H86V68.9h-5.3v-3.6c2.9-0.5,4.9-1.3,6.7-2.4h4.3v24.3h5.4v4.7H79.8V87.2z"/>
		<path d="M102.2,88.6c7.9-7.1,12.5-12.5,12.5-17c0-2.9-1.6-4.7-4.3-4.7c-2.1,0-3.9,1.4-5.3,3l-3.1-3.1c2.7-2.8,5.3-4.4,9.2-4.4
			c5.5,0,9.1,3.5,9.1,8.9c0,5.3-4.3,10.9-9.6,16.1c1.5-0.2,3.4-0.3,4.7-0.3h6.3V92h-19.4L102.2,88.6L102.2,88.6z"/>
		<path d="M126.1,77.3c0-10,3.9-14.9,9.8-14.9s9.8,4.9,9.8,14.9s-3.9,15.2-9.8,15.2C130,92.4,126.1,87.3,126.1,77.3z M140.2,77.3
			c0-8.1-1.9-10.5-4.3-10.5c-2.5,0-4.4,2.4-4.4,10.5c0,8.2,1.9,10.7,4.4,10.7C138.4,87.9,140.2,85.4,140.2,77.3z"/>
		<path d="M150.1,78.6h10.7v4.1h-10.7V78.6z"/>
		<path d="M166.7,87.2h6.2V68.9h-5.3v-3.6c2.9-0.5,4.9-1.3,6.7-2.4h4.3v24.3h5.4v4.7h-17.4v-4.7H166.7z"/>
		<path d="M202.3,67.7h-13v-4.8h19.3v3.5c-6.7,8.2-7.6,14.1-8.1,25.5h-5.8C195.1,81.8,196.8,75.4,202.3,67.7z"/>
		<path d="M214.4,87.2h6.2V68.9h-5.3v-3.6c2.9-0.5,4.9-1.3,6.7-2.4h4.3v24.3h5.4v4.7h-17.4v-4.7H214.4z"/>
		<path d="M237,78.6h10.7v4.1H237V78.6z"/>
		<path d="M253.5,87.2h6.2V68.9h-5.3v-3.6c2.9-0.5,4.9-1.3,6.7-2.4h4.3v24.3h5.4v4.7h-17.4v-4.7H253.5z"/>
		<path d="M276,84.7c0-3.7,2.3-6.1,5-7.6v-0.2c-2.2-1.6-3.8-3.8-3.8-6.9c0-4.7,3.7-7.6,8.7-7.6c5.1,0,8.4,3.1,8.4,7.7
			c0,2.9-1.8,5.2-3.7,6.6v0.2c2.7,1.5,4.9,3.8,4.9,7.8c0,4.4-3.9,7.8-9.8,7.8C280.2,92.4,276,89.2,276,84.7z M290.1,84.5
			c0-3-2.7-4.3-6.4-5.8c-1.6,1.3-2.7,3.2-2.7,5.4c0,2.6,2.2,4.3,4.9,4.3C288.3,88.4,290.1,87,290.1,84.5z M289.6,70.5
			c0-2.4-1.4-4-3.8-4c-2,0-3.5,1.3-3.5,3.6c0,2.7,2.2,4.1,5.3,5.3C289,73.8,289.6,72.2,289.6,70.5z"/>
		<path d="M299.8,77.3c0-10,3.9-14.9,9.8-14.9s9.8,4.9,9.8,14.9s-3.9,15.2-9.8,15.2C303.7,92.4,299.8,87.3,299.8,77.3z M314,77.3
			c0-8.1-1.9-10.5-4.3-10.5c-2.5,0-4.4,2.4-4.4,10.5c0,8.2,1.9,10.7,4.4,10.7C312.1,87.9,314,85.4,314,77.3z"/>
	</g>
	<g>
		<path d="M46.1,87.2c-1.5,0-2.6,1.2-2.6,2.6s1.2,2.6,2.6,2.6c1.4,0,2.6-1.2,2.6-2.6C48.7,88.4,47.5,87.2,46.1,87.2z M46.1,92.2
			c-1.3,0-2.3-1-2.3-2.3s1-2.3,2.3-2.3s2.3,1,2.3,2.3C48.4,91.2,47.4,92.2,46.1,92.2z"/>
		<path d="M46.8,89.6C47,89.4,47,89.2,47,89c0-0.3-0.1-0.5-0.3-0.7s-0.4-0.2-0.8-0.2h-1v3.5h0.4V90h0.4l1,1.6h0.5l-1.1-1.7
			C46.5,89.9,46.7,89.8,46.8,89.6z M45.4,89.7v-1.2h0.5c0.5,0,0.7,0.2,0.7,0.6c0,0.2-0.1,0.3-0.2,0.4c-0.1,0.1-0.3,0.2-0.5,0.2H45.4
			z"/>
		<path d="M10.6,86c2.3,0,5.2-1.8,5.2-5.4c0-2.8-2.8-5.1-5.2-6.5c-2.4,1.4-5.2,3.6-5.2,6.5C5.4,84.2,8.3,86,10.6,86z"/>
		<path d="M31.7,85.9c2.3,0,5.2-1.8,5.2-5.4c0-2.8-2.8-5.1-5.2-6.5c-2.4,1.4-5.2,3.6-5.2,6.5C26.5,84.2,29.3,85.9,31.7,85.9z"/>
		<path d="M0,68.9c4.4,0,8.1,1.1,10.7,2.4c2.6-1.3,6.2-2.4,10.4-2.4c4.3,0,7.9,1.1,10.4,2.4C34,70,37.8,69,42.2,68.9v-4.3H0V68.9z"
			/>
		<path d="M39.3,80.6c0,4.4-3.7,7.8-7.8,7.8s-7.6-3.4-7.6-7.8c0-3.3,2.4-6,5-7.7c-2.4-1-5.3-1.5-7.8-1.5s-5.4,0.5-7.8,1.5
			c2.6,1.7,5,4.4,5,7.7c0,4.4-3.6,7.8-7.6,7.8c-4.1,0-7.8-3.4-7.8-7.8c0-3.3,2.6-6,5.2-7.7c-2.4-1-5.3-1.5-8-1.5v20.8h42.2V71.3
			c-2.7,0-5.7,0.5-8,1.5C36.7,74.6,39.3,77.2,39.3,80.6z"/>
	</g>
</g>
<g>
	<g>
		<path d="M56.4,107.9l0.5,0.3c0,0.1-0.1,0.1-0.1,0.1c-0.6,1.1-1.4,2-2.4,2.6c1.2,0.5,2.5,0.9,4,1.1c-0.2,0.2-0.3,0.5-0.5,0.7
			c-1.6-0.2-3.1-0.7-4.3-1.4c-1.2,0.7-2.7,1.1-4.2,1.4c-0.1-0.2-0.3-0.5-0.4-0.7c1.4-0.2,2.8-0.6,3.9-1.1c-0.9-0.6-1.6-1.3-2.1-2.2
			l0.6-0.2h-1.1v-0.6h6L56.4,107.9z M49.8,106.6v1.6h-0.7V106h1.7c-0.1-0.4-0.4-1-0.7-1.4l0.6-0.2c0.3,0.5,0.7,1.1,0.8,1.4l-0.4,0.1
			h4.5c0.4-0.5,0.8-1.3,1.1-1.9l0.8,0.3c0,0.1-0.1,0.1-0.2,0.1c-0.2,0.4-0.6,1-0.9,1.5h1.9v2.2h-0.7v-1.6H49.8z M57.6,103.5
			c0,0-0.1,0-0.1,0c0,0-0.1,0-0.1,0c-1.9,0.4-5.2,0.7-8,0.8c0-0.2-0.1-0.4-0.2-0.6c2.7-0.1,6-0.4,7.8-0.8L57.6,103.5z M51.5,108.5
			c0.5,0.8,1.3,1.5,2.2,2c0.9-0.5,1.6-1.2,2.1-2H51.5z M53.5,104.2c0.3,0.5,0.5,1.2,0.6,1.6l-0.7,0.2c-0.1-0.4-0.3-1.1-0.5-1.6
			L53.5,104.2z"/>
		<path d="M60.8,106.6c-0.4,0.7-0.9,1.3-1.4,1.8c-0.1-0.2-0.3-0.5-0.4-0.7c1.1-1.1,2.1-2.9,2.7-4.8l0.9,0.3c0,0.1-0.1,0.1-0.2,0.1
			c-0.3,0.8-0.6,1.5-1,2.2l0.3,0.1c0,0.1-0.1,0.1-0.2,0.1v6.9h-0.7V106.6z M69,105.3v0.7h-1.5v5.7c0,0.6-0.2,0.8-0.5,0.9
			c-0.4,0.1-1,0.1-2.2,0.1c0-0.2-0.2-0.5-0.3-0.7c0.4,0,0.9,0,1.2,0c1,0,1,0,1-0.3V106h-4.4v-0.7h4.4V103l0.9,0.1
			c0,0.1-0.1,0.1-0.2,0.1v2H69z M63.6,107.1c0.7,0.8,1.4,1.9,1.6,2.6l-0.7,0.3c-0.3-0.7-0.9-1.8-1.6-2.7L63.6,107.1z"/>
		<path d="M73.1,103.6v7h-2.3v0.9h-0.7v-7.8H73.1z M72.4,104.2h-1.6v2.5h1.6V104.2z M70.8,109.9h1.6v-2.5h-1.6V109.9z M76.7,106.3
			h2.8v0.6h-6.2v-0.6H76v-1.4h-2.3v-0.6H76v-1.3l0.9,0.1c0,0.1-0.1,0.1-0.2,0.1v1.1h2.3v0.6h-2.3V106.3z M78.4,107.2
			c0,0.1-0.1,0.1-0.2,0.1v0.9h1.3v0.6h-1.3v2.9c0,0.4-0.1,0.6-0.4,0.7c-0.3,0.1-0.9,0.1-1.7,0.1c0-0.2-0.1-0.5-0.2-0.7
			c0.4,0,0.8,0,1,0c0.6,0,0.6,0,0.6-0.2v-2.9h-4.2v-0.6h4.2v-1.1L78.4,107.2z M75.4,111.6c-0.2-0.5-0.8-1.3-1.4-1.9l0.6-0.3
			c0.6,0.5,1.2,1.3,1.4,1.8L75.4,111.6z"/>
		<path d="M84.6,107h-3.1v5.7h-0.7v-9.3h3.8V107z M83.9,103.9h-2.5v1h2.5V103.9z M81.5,106.4h2.5v-1h-2.5V106.4z M87.1,111.7h-3.3
			v0.6h-0.7v-4.4h4V111.7z M86.4,108.4h-2.6v1.1h2.6V108.4z M83.8,111.1h2.6V110h-2.6V111.1z M89.5,103.4v8.3c0,0.9-0.4,1-2.2,1
			c0-0.2-0.1-0.5-0.2-0.7c0.3,0,0.7,0,0.9,0c0.8,0,0.8,0,0.8-0.3V107h-3.2v-3.6H89.5z M88.8,103.9h-2.5v1h2.5V103.9z M86.3,106.4
			h2.5v-1h-2.5V106.4z"/>
		<path d="M93.7,105.2c0,0.4-0.3,0.7-0.7,0.7s-0.7-0.3-0.7-0.7c0-0.4,0.3-0.7,0.7-0.7C93.4,104.5,93.7,104.8,93.7,105.2z
			 M93.7,110.3c0,0.4-0.3,0.7-0.7,0.7s-0.7-0.3-0.7-0.7c0-0.4,0.3-0.7,0.7-0.7C93.4,109.6,93.7,110,93.7,110.3z"/>
		<path d="M105.6,108.2v0.7h-4.4v3.8h-0.7v-3.8h-4.4v-0.7h4.4v-3.8h-3.8v-0.7h8.4v0.7h-3.8v3.8H105.6z M98.4,107.6
			c-0.1-0.7-0.6-1.7-1-2.5l0.6-0.2c0.5,0.8,0.9,1.8,1,2.5L98.4,107.6z M104.5,105.1c0,0.1-0.1,0.1-0.2,0.1c-0.3,0.7-0.8,1.8-1.2,2.4
			l-0.6-0.2c0.4-0.7,0.9-1.8,1.2-2.6L104.5,105.1z"/>
		<path d="M107.6,103.6h6.8v8.8h-0.7v-0.6h-5.4v0.7h-0.7V103.6z M113.6,104.3h-5.4v3h5.4V104.3z M108.3,111.1h5.4V108h-5.4V111.1z"
			/>
		<path d="M118.5,111.8v-7h0l-1.3,0.7l-0.2-0.7l1.6-0.9h0.7v7.9H118.5z"/>
		<path d="M124.3,111.8v-7h0l-1.3,0.7l-0.2-0.7l1.6-0.9h0.7v7.9H124.3z"/>
		<path d="M130.6,105.2c0,0.4-0.3,0.7-0.7,0.7s-0.7-0.3-0.7-0.7c0-0.4,0.3-0.7,0.7-0.7C130.4,104.5,130.6,104.8,130.6,105.2z
			 M130.6,110.3c0,0.4-0.3,0.7-0.7,0.7s-0.7-0.3-0.7-0.7c0-0.4,0.3-0.7,0.7-0.7C130.4,109.6,130.6,110,130.6,110.3z"/>
		<path d="M133,107.9c0-2.8,1.1-4.1,2.5-4.1c1.5,0,2.4,1.4,2.4,4c0,2.7-1,4.1-2.5,4.1C134,111.9,133,110.5,133,107.9z M137,107.8
			c0-2-0.5-3.3-1.6-3.3c-0.9,0-1.6,1.2-1.6,3.3c0,2.1,0.6,3.4,1.6,3.4C136.6,111.2,137,109.7,137,107.8z"/>
		<path d="M138.8,107.9c0-2.8,1.1-4.1,2.5-4.1c1.5,0,2.4,1.4,2.4,4c0,2.7-1,4.1-2.5,4.1C139.8,111.9,138.8,110.5,138.8,107.9z
			 M142.8,107.8c0-2-0.5-3.3-1.6-3.3c-0.9,0-1.6,1.2-1.6,3.3c0,2.1,0.6,3.4,1.6,3.4C142.4,111.2,142.8,109.7,142.8,107.8z"/>
		<path d="M154.2,107.3c-0.7,1.2-1.6,1.8-2.7,1.8c-0.9,0-1.6-0.4-2.3-1.1c-0.6-0.6-1-0.9-1.8-0.9c-0.9,0-1.6,0.6-2,1.4l-0.7-0.4
			c0.7-1.2,1.6-1.8,2.7-1.8c0.9,0,1.6,0.4,2.3,1.1c0.6,0.6,1.1,0.9,1.8,0.9c0.9,0,1.6-0.6,2-1.4L154.2,107.3z"/>
		<path d="M157.3,111.8v-7h0l-1.3,0.7l-0.2-0.7l1.6-0.9h0.7v7.9H157.3z"/>
		<path d="M161.7,107.6c0.4-0.5,1-1,1.8-1c1.3,0,2.2,1,2.2,2.5c0,1.4-0.9,2.8-2.4,2.8c-1.5,0-2.6-1.3-2.6-3.3c0-2.1,1-4.3,3.5-4.7
			c0.3,0,0.6-0.1,0.7-0.1l0,0.7C162.9,104.5,161.9,106.1,161.7,107.6L161.7,107.6z M164.9,109.2c0-1.2-0.7-1.9-1.6-1.9
			c-0.9,0-1.6,0.9-1.6,1.5c0,1.4,0.6,2.4,1.7,2.4C164.3,111.2,164.9,110.4,164.9,109.2z"/>
		<path d="M169.5,105.2c0,0.4-0.3,0.7-0.7,0.7s-0.7-0.3-0.7-0.7c0-0.4,0.3-0.7,0.7-0.7C169.2,104.5,169.5,104.8,169.5,105.2z
			 M169.5,110.3c0,0.4-0.3,0.7-0.7,0.7s-0.7-0.3-0.7-0.7c0-0.4,0.3-0.7,0.7-0.7C169.2,109.6,169.5,110,169.5,110.3z"/>
		<path d="M171.8,107.9c0-2.8,1.1-4.1,2.5-4.1c1.5,0,2.4,1.4,2.4,4c0,2.7-1,4.1-2.5,4.1C172.8,111.9,171.8,110.5,171.8,107.9z
			 M175.9,107.8c0-2-0.5-3.3-1.6-3.3c-0.9,0-1.6,1.2-1.6,3.3c0,2.1,0.6,3.4,1.6,3.4C175.5,111.2,175.9,109.7,175.9,107.8z"/>
		<path d="M177.6,107.9c0-2.8,1.1-4.1,2.5-4.1c1.5,0,2.4,1.4,2.4,4c0,2.7-1,4.1-2.5,4.1C178.6,111.9,177.6,110.5,177.6,107.9z
			 M181.7,107.8c0-2-0.5-3.3-1.6-3.3c-0.9,0-1.6,1.2-1.6,3.3c0,2.1,0.6,3.4,1.6,3.4C181.2,111.2,181.7,109.7,181.7,107.8z"/>
		<path d="M187.2,106.6c-0.4,0.7-0.8,1.2-1.3,1.8c-0.1-0.2-0.3-0.5-0.4-0.7c1-1.1,2-2.9,2.6-4.7l0.8,0.3c0,0.1-0.1,0.1-0.2,0.1
			c-0.3,0.7-0.6,1.5-1,2.2l0.3,0.1c0,0.1-0.1,0.1-0.2,0.1v7h-0.7V106.6z M195.5,106.3h-2.7c0.7,1.7,1.8,3.5,3,4.4
			c-0.2,0.1-0.4,0.4-0.5,0.6c-1.1-1-2.2-2.7-2.9-4.4v5.8h-0.7V107c-0.7,1.8-1.8,3.4-2.9,4.3c-0.1-0.2-0.4-0.4-0.5-0.5
			c1.2-0.9,2.3-2.7,3-4.5h-2.7v-0.7h3.1V103l0.9,0.1c0,0.1-0.1,0.1-0.2,0.1v2.4h3.2V106.3z"/>
		<path d="M197.4,103.6h6.8v8.8h-0.7v-0.6h-5.4v0.7h-0.7V103.6z M203.5,104.3h-5.4v3h5.4V104.3z M198.1,111.1h5.4V108h-5.4V111.1z"
			/>
		<path d="M208.3,111.8v-7h0l-1.3,0.7l-0.2-0.7l1.6-0.9h0.7v7.9H208.3z"/>
		<path d="M211.8,107.9c0-2.8,1.1-4.1,2.5-4.1c1.5,0,2.4,1.4,2.4,4c0,2.7-1,4.1-2.5,4.1C212.8,111.9,211.8,110.5,211.8,107.9z
			 M215.8,107.8c0-2-0.5-3.3-1.6-3.3c-0.9,0-1.6,1.2-1.6,3.3c0,2.1,0.6,3.4,1.6,3.4C215.4,111.2,215.8,109.7,215.8,107.8z"/>
		<path d="M220.5,105.2c0,0.4-0.3,0.7-0.7,0.7s-0.7-0.3-0.7-0.7c0-0.4,0.3-0.7,0.7-0.7C220.2,104.5,220.5,104.8,220.5,105.2z
			 M220.5,110.3c0,0.4-0.3,0.7-0.7,0.7s-0.7-0.3-0.7-0.7c0-0.4,0.3-0.7,0.7-0.7C220.2,109.6,220.5,110,220.5,110.3z"/>
		<path d="M222.8,107.9c0-2.8,1.1-4.1,2.5-4.1c1.5,0,2.4,1.4,2.4,4c0,2.7-1,4.1-2.5,4.1C223.8,111.9,222.8,110.5,222.8,107.9z
			 M226.9,107.8c0-2-0.5-3.3-1.6-3.3c-0.9,0-1.6,1.2-1.6,3.3c0,2.1,0.6,3.4,1.6,3.4C226.4,111.2,226.9,109.7,226.9,107.8z"/>
		<path d="M228.6,107.9c0-2.8,1.1-4.1,2.5-4.1c1.5,0,2.4,1.4,2.4,4c0,2.7-1,4.1-2.5,4.1C229.6,111.9,228.6,110.5,228.6,107.9z
			 M232.7,107.8c0-2-0.5-3.3-1.6-3.3c-0.9,0-1.6,1.2-1.6,3.3c0,2.1,0.6,3.4,1.6,3.4C232.2,111.2,232.7,109.7,232.7,107.8z"/>
		<path d="M244,107.3c-0.7,1.2-1.6,1.8-2.7,1.8c-0.9,0-1.6-0.4-2.3-1.1c-0.6-0.6-1-0.9-1.8-0.9c-0.9,0-1.6,0.6-2,1.4l-0.7-0.4
			c0.7-1.2,1.6-1.8,2.7-1.8c0.9,0,1.6,0.4,2.3,1.1c0.6,0.6,1.1,0.9,1.8,0.9c0.8,0,1.6-0.6,2-1.4L244,107.3z"/>
		<path d="M247.2,111.8v-7h0l-1.3,0.7l-0.2-0.7l1.6-0.9h0.7v7.9H247.2z"/>
		<path d="M251.6,107.6c0.4-0.5,1-1,1.8-1c1.3,0,2.2,1,2.2,2.5c0,1.4-0.9,2.8-2.4,2.8c-1.5,0-2.6-1.3-2.6-3.3c0-2.1,1-4.3,3.5-4.7
			c0.3,0,0.6-0.1,0.7-0.1l0,0.7C252.7,104.5,251.7,106.1,251.6,107.6L251.6,107.6z M254.7,109.2c0-1.2-0.7-1.9-1.6-1.9
			c-0.9,0-1.6,0.9-1.6,1.5c0,1.4,0.6,2.4,1.7,2.4C254.1,111.2,254.7,110.4,254.7,109.2z"/>
		<path d="M259.4,105.2c0,0.4-0.3,0.7-0.7,0.7c-0.4,0-0.7-0.3-0.7-0.7c0-0.4,0.3-0.7,0.7-0.7C259.1,104.5,259.4,104.8,259.4,105.2z
			 M259.4,110.3c0,0.4-0.3,0.7-0.7,0.7c-0.4,0-0.7-0.3-0.7-0.7c0-0.4,0.3-0.7,0.7-0.7C259.1,109.6,259.4,110,259.4,110.3z"/>
		<path d="M261.7,107.9c0-2.8,1.1-4.1,2.5-4.1c1.5,0,2.4,1.4,2.4,4c0,2.7-1,4.1-2.5,4.1C262.7,111.9,261.7,110.5,261.7,107.9z
			 M265.7,107.8c0-2-0.5-3.3-1.6-3.3c-0.9,0-1.6,1.2-1.6,3.3c0,2.1,0.6,3.4,1.6,3.4C265.3,111.2,265.7,109.7,265.7,107.8z"/>
		<path d="M267.5,107.9c0-2.8,1.1-4.1,2.5-4.1c1.5,0,2.4,1.4,2.4,4c0,2.7-1,4.1-2.5,4.1C268.5,111.9,267.5,110.5,267.5,107.9z
			 M271.5,107.8c0-2-0.5-3.3-1.6-3.3c-0.9,0-1.6,1.2-1.6,3.3c0,2.1,0.6,3.4,1.6,3.4C271.1,111.2,271.5,109.7,271.5,107.8z"/>
		<path d="M101.8,128.7h-2.1v-9.5h2.1v0.6h-1.3v8.3h1.3V128.7z"/>
		<path d="M106.9,118.6l1,0.1c0,0.1-0.1,0.2-0.3,0.2v3.2c0,1.1,0.7,4.2,4.5,5.5c-0.2,0.2-0.4,0.5-0.5,0.7c-3.2-1.2-4.2-3.7-4.4-4.7
			h0c-0.2,1-1.1,3.5-4.2,4.7c-0.1-0.2-0.3-0.4-0.5-0.6c3.7-1.4,4.3-4.4,4.3-5.6V118.6z M102.7,123.7c0.9-0.7,1.2-1.8,1.4-3l0.7,0.2
			c-0.2,1.2-0.6,2.6-1.5,3.3L102.7,123.7z M111.8,121c0,0.1-0.1,0.1-0.2,0.1c-0.4,0.8-1.1,2.1-1.7,2.8c0,0-0.6-0.3-0.6-0.3
			c0.5-0.8,1.2-2.1,1.6-3L111.8,121z"/>
		<path d="M116.2,123.4c0,0.6-0.5,1.1-1.1,1.1s-1.1-0.5-1.1-1.1s0.5-1.1,1.1-1.1C115.8,122.3,116.2,122.8,116.2,123.4z"/>
		<path d="M121.6,121.3l0.5,0.2c0,0-0.1,0.1-0.1,0.1c-0.5,2.6-1.8,4.6-3.4,5.7c-0.1-0.2-0.4-0.5-0.6-0.6c1.4-0.9,2.6-2.5,3.1-4.7
			h-2.8v-0.7h3.2L121.6,121.3z M123.4,120.5c0.2,0.9,0.5,1.7,0.9,2.5c0.9-0.7,2-1.8,2.6-2.7l0.7,0.6c-0.1,0.1-0.1,0.1-0.2,0.1
			c-0.7,0.8-1.9,1.9-2.8,2.7c0.8,1.5,2,2.7,3.4,3.3c-0.2,0.1-0.4,0.4-0.5,0.6c-1.9-0.9-3.2-2.8-4.1-5.1v4.9c0,1-0.4,1-2.4,1
			c0-0.2-0.2-0.6-0.3-0.8c0.4,0,0.8,0,1.1,0c0.9,0,0.9,0,0.9-0.3v-8.7l0.9,0.1c0,0.1-0.1,0.1-0.2,0.1V120.5z"/>
		<path d="M138.4,127.3v0.6h-5v0.4h-0.7v-3.8c-0.2,0.3-0.5,0.6-0.7,0.8c-0.1-0.1-0.2-0.3-0.3-0.4v1.3h-2.1v0.9H129v-7.9h2.7v5.6
			c0.7-0.7,1.4-1.7,1.7-2.6h-1.3v-0.5h2v-0.9h-1.8v-0.5h1.8v-0.8h-2v-0.5h2.6v3.2H134l0.3,0.1c0,0.1-0.1,0.1-0.2,0.1
			c-0.1,0.3-0.3,0.5-0.4,0.8h1.5c0.2-0.3,0.3-0.7,0.4-1h-0.3v-0.5h2.1v-0.9h-1.9v-0.5h1.9v-0.8h-2.1v-0.5h2.7v3.2h-2.2l0.6,0.2
			c0,0.1-0.1,0.1-0.2,0.1c-0.1,0.2-0.2,0.5-0.4,0.8h2.3v0.6h-2.4v0.8h2.1v0.5h-2.1v0.8h2.1v0.5h-2.1v0.9H138.4z M131.1,119.8h-1.4
			v2.5h1.4V119.8z M129.7,125.6h1.4v-2.6h-1.4V125.6z M135.1,124.6v-0.8h-1.7v0.8H135.1z M135.1,125.9v-0.8h-1.7v0.8H135.1z
			 M133.4,126.4v0.9h1.7v-0.9H133.4z"/>
		<path d="M144.4,125v2.3c0.6,0.1,1.2,0.1,1.8,0.1c0.4,0,2.2,0,2.7,0c-0.1,0.2-0.2,0.5-0.3,0.7h-2.5c-2.3,0-3.9-0.4-4.9-2.3
			c-0.4,1-0.9,1.9-1.6,2.5c-0.1-0.1-0.4-0.3-0.5-0.5c1.2-0.9,1.8-2.5,2-4.4l0.9,0.1c0,0.1-0.1,0.1-0.2,0.1c-0.1,0.4-0.1,0.8-0.2,1.2
			c0.4,1.2,1.2,1.8,2.1,2.1v-4.6H141v-0.7h6.2v0.7h-2.8v1.9h3.2v0.7H144.4z M140.3,120.4v1.6h-0.7v-2.3h4v-1.3l1,0.1
			c0,0.1-0.1,0.1-0.2,0.1v1.1h4.1v2.3h-0.7v-1.6H140.3z"/>
		<path d="M151.1,122.2c-0.4,0.7-0.8,1.2-1.3,1.8c-0.1-0.2-0.3-0.5-0.4-0.7c1-1.1,2-2.9,2.6-4.7l0.8,0.3c0,0.1-0.1,0.1-0.2,0.1
			c-0.3,0.7-0.6,1.5-1,2.2l0.3,0.1c0,0.1-0.1,0.1-0.2,0.1v7h-0.7V122.2z M159.3,121.9h-2.7c0.7,1.7,1.8,3.5,3,4.4
			c-0.2,0.1-0.4,0.4-0.5,0.6c-1.1-1-2.2-2.7-2.9-4.4v5.8h-0.7v-5.7c-0.7,1.8-1.8,3.4-2.9,4.3c-0.1-0.2-0.4-0.4-0.5-0.5
			c1.2-0.9,2.3-2.7,3-4.5h-2.7v-0.7h3.1v-2.6l0.9,0.1c0,0.1-0.1,0.1-0.2,0.1v2.4h3.1V121.9z"/>
		<path d="M164.9,118.5c-1.1,1-2.1,2.7-2.1,4.8c0,2.2,1,3.9,2.1,4.8v0.1h-0.6c-1.1-1-2-2.7-2-4.9s0.9-3.9,2-4.9L164.9,118.5
			L164.9,118.5z"/>
		<path d="M169.5,120.7c0,0.1-0.1,0.1-0.1,0.1c-0.3,0.9-0.9,1.7-1.4,2.5c0.5,0.3,1.4,1,1.7,1.2l-0.4,0.6c-0.3-0.3-0.9-0.8-1.4-1.2
			v4.3h-0.7v-4c-0.5,0.5-0.9,0.9-1.4,1.3c-0.1-0.2-0.3-0.5-0.4-0.6c1.2-0.8,2.5-2.3,3.2-3.8h-3v-0.7h1.6v-2l0.9,0.1
			c0,0.1-0.1,0.1-0.2,0.1v1.8h1.1l0.1,0L169.5,120.7z M171.6,123.9c0,0.1-0.1,0.1-0.2,0.1c-0.2,1.8-0.5,3.4-2.2,4.3
			c-0.1-0.2-0.3-0.4-0.5-0.5c1.6-0.8,1.9-2.3,2-4L171.6,123.9z M173.3,127.3c0,0.3,0,0.4,0.3,0.4h0.8c0.3,0,0.3-0.2,0.3-1.6
			c0.1,0.1,0.4,0.2,0.6,0.3c-0.1,1.5-0.2,1.9-0.9,1.9h-1c-0.7,0-0.9-0.2-0.9-1v-3.9h-2.9v-4.1h5v4.1h-1.2c0,0.1-0.1,0.1-0.2,0.1
			V127.3z M170.4,119.9v2.8h3.6v-2.8H170.4z"/>
		<path d="M177,119.2h6.8v8.8h-0.7v-0.6h-5.4v0.7H177V119.2z M183.1,119.9h-5.4v3h5.4V119.9z M177.7,126.7h5.4v-3.1h-5.4V126.7z"/>
		<path d="M186.6,127.7c-0.3-0.8-0.5-2.3-0.5-3.7c0-1.4,0.2-3.1,0.6-4.9l1,0.2c0,0.1-0.1,0.2-0.3,0.2c-0.4,1.4-0.6,3.3-0.6,4.5
			c0,0.8,0,1.6,0.1,2c0.2-0.6,0.7-1.6,0.9-2.1l0.5,0.4c-0.3,0.7-1.1,2.3-1.1,2.8c0,0.1,0,0.3,0.1,0.5L186.6,127.7z M189.2,121.5
			c0.9,0,1.8,0,2.6,0c0-0.9-0.1-1.7-0.1-2.5l1.1,0c0,0.1-0.1,0.2-0.3,0.2c0,0.7,0,1.4,0.1,2.2c0.8-0.1,1.5-0.2,2.1-0.4l0.1,0.7
			c-0.5,0.2-1.2,0.3-2.1,0.4c0,1.2,0.1,2.4,0.1,3.1c0.8,0.3,1.6,0.8,2.1,1.3l-0.4,0.7c-0.4-0.4-1-0.9-1.7-1.2c0,0.9-0.2,1.9-1.8,1.9
			c-1.2,0-2-0.6-2-1.5c0-1.1,1.1-1.5,2-1.5c0.3,0,0.7,0,1,0.1c0-0.7-0.1-1.8-0.1-2.8c-0.3,0-0.8,0-1.1,0h-1.6L189.2,121.5z
			 M192.1,125.6c-0.3-0.1-0.7-0.2-1-0.2c-0.6,0-1.4,0.2-1.4,0.9c0,0.6,0.6,0.9,1.4,0.9c0.8,0,1.1-0.4,1.1-1.2L192.1,125.6z"/>
		<path d="M199,118.9l0.5,0.3c0,0-0.1,0.1-0.1,0.1c-0.3,0.8-0.7,1.9-1,2.7c0.8,0.9,1.1,1.6,1.1,2.3c0,1.5-0.9,1.5-1.7,1.4
			c0-0.2-0.1-0.5-0.2-0.6c0.2,0,0.3,0,0.5,0c0.4,0,0.8,0,0.8-0.9c0-0.6-0.3-1.3-1.1-2.1c0.3-0.8,0.7-1.8,0.9-2.5h-1.5v8.7h-0.6V119
			h2.5L199,118.9z M203,118.5c0,0.1-0.1,0.1-0.1,0.1c0.7,1.1,2,2.3,3.1,2.9c-0.1,0.2-0.3,0.4-0.4,0.6c-1.1-0.7-2.4-1.9-3.1-3
			c-0.6,1-1.8,2.3-3,3c-0.1-0.2-0.2-0.4-0.4-0.5c1.2-0.8,2.5-2.1,3-3.2L203,118.5z M201.3,125.1c0,0.1-0.1,0.1-0.2,0.1
			c-0.3,0.9-0.9,1.8-1.5,2.4c-0.1-0.1-0.3-0.3-0.5-0.4c0.6-0.5,1.1-1.4,1.4-2.3L201.3,125.1z M205.4,124.2h-2.6v3.2
			c0,0.8-0.3,0.8-1.7,0.8c0-0.2-0.1-0.5-0.2-0.7c0.5,0,1,0,1.1,0c0.1,0,0.2-0.1,0.2-0.2v-3.2h-2.4v-0.6h2.4v-1.4h-1.6v-0.6h4v0.6
			h-1.7v1.4h2.6V124.2z M205.1,127.5c-0.3-0.6-0.9-1.6-1.5-2.4l0.5-0.3c0.6,0.7,1.2,1.7,1.5,2.4L205.1,127.5z"/>
		<path d="M212.3,128.2c-1.1-1.2-2.7-2.8-4.1-3.9c-0.5-0.4-0.7-0.7-0.7-1.1c0-0.3,0.2-0.6,0.6-1c1-0.9,2.8-2.6,3.8-3.6l0.9,0.6
			c0,0-0.1,0.1-0.2,0.1c0,0-0.1,0-0.1,0c-1.1,1-2.7,2.4-3.5,3.2c-0.3,0.2-0.5,0.5-0.5,0.6c0,0.2,0.2,0.4,0.6,0.7
			c1.4,1.1,2.9,2.4,4.1,3.8L212.3,128.2z"/>
		<path d="M214.1,128.2c1.1-1,2.1-2.7,2.1-4.8c0-2.2-1-3.9-2.1-4.8v-0.1h0.6c1.1,1,2,2.7,2,4.9s-0.9,3.9-2,4.9L214.1,128.2
			L214.1,128.2z"/>
		<path d="M219.4,119.2h2.1v9.5h-2.1v-0.6h1.4v-8.3h-1.4V119.2z"/>
		<path d="M60.9,135.2l3.5,3.5l3.5-3.5l0.3,0.3l-3.5,3.5l3.5,3.5l-0.3,0.3l-3.5-3.5l-3.5,3.5l-0.3-0.3l3.5-3.5l-3.5-3.5L60.9,135.2z
			 M61.4,139.8c-0.4,0-0.8-0.4-0.8-0.8s0.4-0.8,0.8-0.8c0.4,0,0.8,0.4,0.8,0.8C62.2,139.4,61.8,139.8,61.4,139.8z M63.6,136
			c0-0.4,0.4-0.8,0.8-0.8s0.8,0.4,0.8,0.8c0,0.4-0.4,0.8-0.8,0.8C63.9,136.8,63.6,136.4,63.6,136z M65.2,142c0,0.4-0.4,0.8-0.8,0.8
			s-0.8-0.4-0.8-0.8c0-0.4,0.4-0.8,0.8-0.8C64.8,141.2,65.2,141.6,65.2,142z M67.4,138.2c0.4,0,0.8,0.4,0.8,0.8s-0.4,0.8-0.8,0.8
			c-0.4,0-0.8-0.4-0.8-0.8C66.6,138.5,67,138.2,67.4,138.2z"/>
		<path d="M73.4,139.4l-1.2,0.4v3.2c0,0.8-0.4,0.9-1.8,0.9c0-0.2-0.1-0.5-0.2-0.7c0.2,0,0.4,0,0.6,0c0.7,0,0.7,0,0.7-0.2v-3
			c-0.5,0.1-0.9,0.3-1.2,0.4c0,0.1-0.1,0.1-0.1,0.2l-0.3-0.8c0.4-0.1,1-0.3,1.6-0.4V137h-1.5v-0.7h1.5v-2.2l0.9,0.1
			c0,0.1-0.1,0.1-0.2,0.1v2h1v0.7h-1v2.2l1.1-0.3L73.4,139.4z M77.1,139h2.6v0.5h-5.5v-2.7c-0.3,0.4-0.5,0.7-0.8,1
			c-0.1-0.1-0.3-0.4-0.4-0.5c0.8-0.7,1.5-1.9,1.9-3.2l0.8,0.2c0,0.1-0.1,0.1-0.2,0.1c-0.1,0.3-0.2,0.6-0.3,0.9h1.4
			c0.2-0.4,0.4-0.9,0.6-1.2l0.8,0.3c0,0.1-0.1,0.1-0.2,0.1c-0.1,0.2-0.3,0.6-0.5,0.9h2.3v0.5h-2.4v0.7h2v0.5h-2v0.7h2v0.5h-2V139z
			 M79,141.2l0.1,0l0.4,0.1l0,0.2c-0.1,1.4-0.3,1.9-0.5,2.2c-0.2,0.2-0.5,0.2-1,0.2c-0.2,0-0.5,0-0.8,0c0-0.2-0.1-0.4-0.2-0.6
			c0.5,0.1,1,0.1,1.1,0.1s0.3,0,0.3-0.1c0.2-0.1,0.3-0.5,0.4-1.5h-1.4l-0.1,0.5l-0.6-0.1c0.1-0.4,0.3-1,0.4-1.4h-1.5
			c-0.2,1.5-0.9,2.6-2.2,3.1c-0.1-0.1-0.3-0.4-0.4-0.5c1.1-0.4,1.7-1.3,1.9-2.6h-1.5v-0.6h3.9l0.1,0l0.4,0.1c0,0.1,0,0.1-0.1,0.2
			c0,0.2-0.1,0.5-0.2,0.8H79z M76.5,136.6v-0.7h-1.7v0.7H76.5z M76.5,137.8v-0.7h-1.7v0.7H76.5z M74.8,138.3v0.7h1.7v-0.7H74.8z"/>
		<path d="M88.4,135.3h1.8v0.6h-1.8v1.7h-6v-1.7h-1.8v-0.6h1.8v-1.1l0.9,0.1c0,0.1-0.1,0.1-0.2,0.1v0.9H85v-1.1l0.9,0.1
			c0,0.1-0.1,0.1-0.2,0.1v0.9h2v-1.1l0.9,0.1c0,0.1-0.1,0.1-0.2,0.1V135.3z M80.9,140.3v-2.1h8.9v2.1h-0.7v-1.5h-7.6v1.5H80.9z
			 M88.8,140.1v2.3c0,0.7-0.2,0.8-1.9,0.8c0-0.2-0.1-0.4-0.2-0.6c0.3,0,0.7,0,0.9,0c0.5,0,0.5,0,0.5-0.2v-1.7h-2.4v3.2H85v-3.2h-2.2
			v2.4h-0.7v-3H85v-1l0.9,0.1c0,0.1-0.1,0.1-0.2,0.1v0.8H88.8z M83.1,135.9v1.1H85v-1.1H83.1z M87.7,137v-1.1h-2v1.1H87.7z"/>
		<path d="M95.5,138.9v-2.5H92v1.5h-0.6v-2.1h4.1v-0.7H92v-0.6h7.7v0.6h-3.6v0.7h4.2v2.1h-0.7v-1.5h-3.5v2.5H95.5z M96.1,142.7
			c0,0.4,0.1,0.4,0.8,0.4h2.4c0.6,0,0.7-0.2,0.7-1.3c0.2,0.1,0.4,0.2,0.6,0.2c-0.1,1.3-0.3,1.6-1.3,1.6h-2.5c-1.1,0-1.5-0.2-1.5-1
			v-0.4H93v0.6h-0.7v-3.7h7.2v3.1h-3.4V142.7z M92.4,138.6v-0.5h2.5v0.5H92.4z M92.6,137h2.3v0.5h-2.3V137z M95.5,139.8H93v0.8h2.5
			V139.8z M93,141.8h2.5V141H93V141.8z M98.8,140.5v-0.8h-2.7v0.8H98.8z M96.1,141.8h2.7V141h-2.7V141.8z M96.8,137h2.3v0.5h-2.3
			V137z M96.8,138.6v-0.5h2.6v0.5H96.8z"/>
		<path d="M101.5,136.5v-0.6h3.9v0.6H101.5z M105.1,140.3v3.1h-2.5v0.5H102v-3.6H105.1z M105.1,137.4v0.6H102v-0.6H105.1z
			 M102,139.4v-0.6h3.1v0.6H102z M105.1,134.5v0.6h-3v-0.6H105.1z M104.5,140.9h-1.9v1.9h1.9V140.9z M111.4,138h-2.6v1.8h2v4h-0.7
			v-0.5h-3.3v0.5h-0.7v-4.1h1.9V138h-2.6v-0.7h2.6v-1.8c-0.7,0.1-1.5,0.2-2.2,0.3c0-0.2-0.1-0.4-0.2-0.6c1.6-0.2,3.5-0.5,4.6-0.9
			l0.6,0.6c0,0-0.1,0-0.1,0c0,0-0.1,0-0.1,0c-0.5,0.2-1.2,0.3-1.9,0.5v1.9h2.6V138z M110.1,142.7v-2.3h-3.3v2.3H110.1z"/>
		<path d="M115.3,139c0,0.6-0.5,1.1-1.1,1.1s-1.1-0.5-1.1-1.1s0.5-1.1,1.1-1.1C114.9,137.9,115.3,138.4,115.3,139z"/>
		<path d="M117.7,135.1c0.5-0.1,1.1-0.2,1.8-0.2c2.6,0,2.8,1.7,2.8,2.3c0,1.9-1.5,2.6-2.9,2.6c-0.3,0-0.6,0-0.8-0.1v3.3h-0.9V135.1z
			 M118.6,139c0.2,0.1,0.5,0.1,0.8,0.1c1.3,0,2-0.6,2-1.8s-0.8-1.6-1.9-1.6c-0.4,0-0.8,0-1,0.1V139z"/>
		<path d="M129.3,143h-0.9v-3.8h-3.8v3.8h-0.9v-8h0.9v3.4h3.8V135h0.9V143z"/>
		<path d="M134.6,136c-0.2-0.1-0.7-0.4-1.4-0.4c-1.1,0-1.5,0.7-1.5,1.3c0,0.8,0.5,1.2,1.6,1.6c1.3,0.5,2,1.2,2,2.4
			c0,1.3-0.9,2.2-2.6,2.2c-0.7,0-1.5-0.2-1.9-0.5l0.2-0.7c0.4,0.3,1.1,0.5,1.7,0.5c1.1,0,1.7-0.6,1.7-1.4c0-0.8-0.4-1.3-1.5-1.7
			c-1.2-0.5-2-1.2-2-2.3c0-1.2,1-2.1,2.4-2.1c0.8,0,1.3,0.2,1.6,0.4L134.6,136z"/>
		<path d="M140.2,134.6c0,0.1-0.1,0.2-0.3,0.2c-0.1,0.6-0.3,1.6-0.4,2.2c0.5-0.1,0.9-0.1,1.2-0.1c1.6,0,2.1,1,2.1,2.6
			c0,0.8-0.1,1.7-0.4,2.4c-0.3,1.1-1,1.6-1.9,1.6c-0.4,0-1-0.2-1.9-0.9c0.1-0.2,0.2-0.4,0.3-0.6c0.8,0.7,1.3,0.8,1.6,0.8
			c0.6,0,1-0.4,1.2-1c0.2-0.7,0.3-1.6,0.3-2.2c0-1.2-0.4-1.9-1.4-1.9c-0.3,0-0.7,0-1.3,0.1c-0.5,2.1-1.1,4-2.2,5.7l-0.7-0.3
			c1-1.6,1.6-3.3,2.1-5.2c-0.5,0.1-1.3,0.2-1.9,0.3l-0.1-0.7c0.5-0.1,1.4-0.2,2.1-0.2c0.2-0.8,0.3-1.7,0.5-2.6L140.2,134.6z
			 M145,139.7c-0.3-1.5-1.3-2.8-2.4-3.6l0.6-0.4c1.1,0.8,2.2,2.2,2.6,3.7L145,139.7z"/>
		<path d="M148.7,136.4c0,0.1-0.1,0.2-0.3,0.2c-0.1,1.6-0.3,2.9-0.4,3.1h0c1-0.8,2.6-1.3,3.9-1.3c1.6,0,2.6,0.8,2.6,2.3
			c0,1.9-1.6,2.8-5.7,3c-0.1-0.2-0.1-0.5-0.3-0.7c3.7-0.2,5.1-0.8,5.2-2.3c0-1-0.7-1.6-1.9-1.6c-1.9,0-3.7,1.2-4,1.7l-0.7-0.3
			c0.2-0.2,0.6-2.1,0.6-4.1L148.7,136.4z M148.9,134.3c1.4,0.2,3,0.5,4.1,0.9l-0.3,0.7c-1.1-0.5-2.6-0.8-4-1L148.9,134.3z"/>
		<path d="M161.6,139.9c-0.7,0.1-1.6,0.1-2.5,0.1c0,0.4-0.1,0.8-0.1,1c0,1.7,1.1,1.8,2.1,1.8c1.6,0,2.5-0.5,2.5-1.4
			c0-0.5-0.3-1.2-0.9-1.9c0.2-0.1,0.5-0.2,0.7-0.3c0.6,0.8,1,1.6,1,2.3c0,1.8-2,2-3.2,2c-1,0-2.8-0.1-2.8-2.5c0-0.5,0-0.8,0.1-1
			c-0.9,0-2.3-0.1-2.3-1.2c0-0.5,0.3-0.9,0.9-1.4l0.6,0.3c-0.5,0.3-0.7,0.6-0.7,0.9c0,0.6,0.8,0.6,1.6,0.6c0.1-0.7,0.2-1.5,0.3-2.4
			c-0.8-0.1-1.6-0.3-2.2-0.6l0.2-0.7c0.6,0.3,1.3,0.5,2.1,0.6c0.1-0.7,0.2-1.3,0.2-1.9l1.1,0.1c0,0.1-0.1,0.2-0.3,0.2
			c-0.1,0.4-0.2,1-0.2,1.6c0.3,0,0.6,0,1,0c0.4,0,0.8,0,1.2,0l0,0.7c-0.3,0-0.7,0-1,0c-0.4,0-0.8,0-1.2,0c-0.1,0.8-0.2,1.6-0.3,2.3
			c0.8,0,1.8-0.1,2.4-0.1L161.6,139.9z"/>
		<path d="M173.1,142.8c-0.9,0.2-2.2,0.2-3.2,0.2c-0.9,0-1.6-0.1-2-0.1c-1.3-0.3-1.8-1.1-1.8-2c0-0.8,0.4-1.6,1.1-2.2l0.6,0.3
			c-0.6,0.6-0.9,1.3-0.9,1.9c0,0.6,0.4,1.2,1.3,1.4c0.4,0.1,1,0.1,1.7,0.1c1,0,2.3-0.1,3.3-0.3L173.1,142.8z M168.4,137.5
			c0.5-0.4,1.3-0.9,1.9-1.2v0c-0.8,0.1-2.6,0.1-3.8,0.1c0-0.2,0-0.5,0-0.7h0.6c1.3,0,4.1,0,5.4-0.3l0.1,0.8
			c-0.3,0.1-0.6,0.1-1.1,0.3c-0.6,0.2-1.6,0.8-2.4,1.5L168.4,137.5z M173.1,139c-0.3-0.5-1-1.1-1.4-1.4l0.3-0.3
			c0.5,0.4,1.1,1,1.4,1.4L173.1,139z M174.2,138c-0.3-0.4-0.9-1-1.4-1.4l0.3-0.3c0.5,0.4,1.1,1,1.4,1.4L174.2,138z"/>
		<path d="M180.1,134.6c0,0-0.1,0.1-0.2,0c-0.4,0.2-1,0.4-1.7,0.6v2h2.1v0.7h-2.1v0.8c0.5,0.4,1.7,1.4,2,1.7l-0.4,0.6
			c-0.3-0.3-1-1-1.6-1.5v4.3h-0.7v-4.8c-0.5,1.3-1.3,2.5-2,3.3c-0.1-0.2-0.3-0.5-0.4-0.7c0.8-0.8,1.7-2.3,2.2-3.7h-2.1v-0.7h2.2
			v-1.8c-0.7,0.2-1.4,0.3-2.1,0.4c0-0.2-0.1-0.4-0.2-0.5c1.5-0.3,3.3-0.7,4.2-1.2L180.1,134.6z M181.1,135.4l0.9,0.1
			c0,0.1-0.1,0.1-0.2,0.1v5.7h-0.7V135.4z M183.8,134.3l0.9,0.1c0,0.1-0.1,0.1-0.2,0.1v8.4c0,0.5-0.1,0.7-0.5,0.8
			c-0.3,0.1-0.9,0.1-1.9,0.1c0-0.2-0.2-0.5-0.3-0.7c0.4,0,0.7,0,1,0c0.8,0,0.9,0,0.9-0.3V134.3z"/>
		<path d="M194.7,134.9v8c0,1-0.5,1-2.4,1c0-0.2-0.1-0.5-0.3-0.7c0.4,0,0.8,0,1.1,0c0.9,0,0.9,0,0.9-0.3v-2.3h-3v3.2h-0.7v-3.2h-2.8
			c-0.2,1.2-0.5,2.4-1.3,3.3c-0.1-0.1-0.4-0.4-0.5-0.5c1.2-1.3,1.3-3.2,1.3-4.7v-3.9H194.7z M187.6,138.7c0,0.4,0,0.8,0,1.2h2.7
			v-1.8h-2.7V138.7z M190.3,135.5h-2.7v1.9h2.7V135.5z M194,137.4v-1.9h-3v1.9H194z M191,139.9h3v-1.8h-3V139.9z"/>
		<path d="M198,135.5c0,0.1-0.1,0.2-0.3,0.2c-0.1,0.8-0.2,1.7-0.2,2.6c0,0.4,0,0.8,0,1.1c0.1,1.8,0.8,2.9,1.7,2.9
			c0.4,0,1-1.1,1.3-2.2c0.1,0.1,0.4,0.3,0.6,0.5c-0.5,1.4-1.1,2.6-2,2.6c-1.3,0-2.3-1.6-2.4-3.6c0-0.4,0-0.8,0-1.3
			c0-0.9,0.1-1.9,0.2-2.8L198,135.5z M205,140.4c-0.3-1.8-1.2-3.2-2.6-3.9l0.5-0.6c1.5,0.8,2.7,2.3,3,4.3L205,140.4z"/>
		<path d="M213.2,136.4c-0.9,0.3-2.1,0.5-3.2,0.6c-0.4,2.4-1.1,4.8-1.9,6.6l-0.8-0.3c0.9-1.7,1.5-3.9,1.9-6.2c-0.2,0-1.6,0-1.9,0
			l0-0.7c0.2,0,0.4,0,0.6,0c0.1,0,1.1,0,1.4,0c0.1-0.7,0.2-1.4,0.3-2l1.1,0.1c0,0.1-0.2,0.2-0.3,0.2c-0.1,0.5-0.2,1-0.3,1.7
			c1-0.1,2.1-0.3,2.9-0.6L213.2,136.4z M216,143.4c-0.3,0-0.6,0-1,0c-1,0-1.9-0.1-2.5-0.2c-0.7-0.2-1.2-0.8-1.2-1.4
			c0-0.5,0.2-1,0.7-1.5l0.6,0.3c-0.4,0.4-0.5,0.8-0.5,1.2c0,0.8,0.8,1,2.7,1c0.4,0,0.8,0,1.2,0V143.4z M211.9,138.3
			c1.1-0.3,2.6-0.6,3.8-0.5v0.7c-1.2,0-2.6,0.1-3.6,0.5L211.9,138.3z"/>
		<path d="M223.7,136.4c-0.9,0.3-2.1,0.5-3.2,0.6c-0.4,2.4-1.1,4.8-1.9,6.6l-0.8-0.3c0.9-1.7,1.5-3.9,1.9-6.2c-0.2,0-1.6,0-1.9,0
			l0-0.7c0.2,0,0.4,0,0.6,0c0.1,0,1.1,0,1.4,0c0.1-0.7,0.2-1.4,0.3-2l1.1,0.1c0,0.1-0.2,0.2-0.3,0.2c-0.1,0.5-0.2,1-0.3,1.7
			c1-0.1,2.1-0.3,2.9-0.6L223.7,136.4z M226.5,143.3c-0.4,0-0.9,0.1-1.3,0.1c-0.8,0-1.7-0.1-2.2-0.2c-0.7-0.2-1.2-0.8-1.2-1.4
			c0-0.5,0.2-1,0.7-1.5l0.6,0.3c-0.4,0.4-0.5,0.8-0.5,1.2c0,0.8,0.8,1,2.5,1c0.5,0,0.9,0,1.4-0.1L226.5,143.3z M222.4,138.3
			c1.1-0.3,2.6-0.6,3.8-0.5v0.7c-1.2,0-2.6,0.1-3.6,0.5L222.4,138.3z M224.2,134.7c0.5,0.4,1.1,1,1.5,1.4l-0.4,0.3
			c-0.3-0.5-1-1.1-1.4-1.4L224.2,134.7z M225.6,134c0.5,0.4,1.1,1,1.4,1.4l-0.4,0.3c-0.3-0.4-0.9-1-1.4-1.4L225.6,134z"/>
		<path d="M229.9,135c0,0.1-0.1,0.2-0.3,0.2c-0.3,1.3-0.5,3.2-0.5,4.3c0,0.7,0,1.3,0.1,1.8c0.2-0.5,0.7-1.5,1.1-2.1l0.5,0.5
			c-0.8,1.4-1.2,2.2-1.2,2.6c0,0.1,0,0.3,0.1,0.4l-0.7,0.1c-0.3-0.8-0.5-1.9-0.5-3.4c0-1.3,0.2-3.2,0.5-4.7L229.9,135z M231.4,137.3
			c0.8,0,2.1,0,2.8-0.1c-0.1-1.2-0.1-2.7-0.2-2.9l1.1,0c0,0.1-0.1,0.2-0.3,0.2c0,0.6,0.1,1.6,0.1,2.6c0.7-0.1,1.5-0.2,2.1-0.3
			l0.1,0.7c-0.6,0.1-1.3,0.2-2.1,0.3c0,0.1,0,0.2,0,0.9c0,2.3-0.5,3.9-2.5,4.9c-0.1-0.1-0.4-0.4-0.6-0.5c1.9-0.9,2.4-2.3,2.4-4.3
			l0-0.9c-0.7,0-1.9,0.1-2.8,0.1L231.4,137.3z"/>
		<path d="M238.4,135.7c0.7,0,1.5,0,2.2,0c0.5,0,1,0,1.4,0c0-0.5,0-1.1,0-1.5l1.1,0.1c0,0.1-0.1,0.2-0.3,0.2c0,0.2,0,1,0,1.2
			c1.2-0.1,2.4-0.2,3.5-0.4l0.1,0.7c-1,0.2-2.2,0.3-3.6,0.4c0,0.6,0,1.3,0,1.9c1-0.1,2.1-0.2,3-0.4l0.1,0.7c-0.9,0.2-2,0.3-3,0.4
			l0.1,1.8c1,0.3,2,0.9,3.1,1.6l-0.5,0.6c-0.9-0.7-1.8-1.2-2.6-1.5c0,0.2,0,0.4,0,0.5c0,1-0.6,1.6-1.9,1.6c-1.3,0-2.3-0.5-2.3-1.5
			c0-1,1.1-1.6,2.3-1.6c0.3,0,0.7,0,1.1,0.1c0-0.5,0-1,0-1.6c-0.3,0-0.7,0-1,0c-1.8,0-2.3-0.3-2.3-0.9c0-0.4,0.3-0.7,1-1.2l0.5,0.3
			c-0.5,0.3-0.7,0.5-0.7,0.7c0,0.3,0.5,0.4,1.8,0.4c0.2,0,0.5,0,0.7,0l-0.1-1.9c-0.5,0-1,0-1.4,0c-0.7,0-1.6,0-2.3,0V135.7z
			 M242.3,141.2c-0.4-0.1-0.8-0.2-1.2-0.2c-0.8,0-1.6,0.3-1.6,1c0,0.6,0.7,0.9,1.6,0.9c0.8,0,1.1-0.4,1.1-1.1L242.3,141.2z"/>
		<path d="M252.8,135.8c0-0.2,0-1.4-0.1-1.6l1.1,0c0,0.1-0.1,0.2-0.3,0.2c0,0.1,0,0.3,0,1.4c1.3,0,2.6-0.1,3.4-0.1v0.7
			c-0.9,0-2.2,0-3.4,0c0,0.8,0,1.6,0.1,2.2c0.1,0.3,0.1,0.7,0.1,1.1c0,0.3,0,0.7-0.1,1c-0.3,1.2-1.2,2.3-3,3
			c-0.1-0.2-0.4-0.4-0.5-0.6c1.6-0.6,2.5-1.4,2.7-2.4h0c-0.2,0.3-0.6,0.6-1.1,0.6c-0.9,0-1.8-0.8-1.8-1.8c0-1.1,0.9-2,1.9-2
			c0.4,0,0.8,0.1,1,0.3c0-0.2,0-0.9,0-1.3c-1.1,0-4.4,0.1-4.8,0.2l0-0.7l2.4-0.1L252.8,135.8z M253,139.5c0-0.4,0-1.4-1.1-1.4
			c-0.7,0-1.2,0.6-1.2,1.3c0,0.7,0.6,1.2,1.2,1.2C252.6,140.7,253,140.1,253,139.5z"/>
		<path d="M259.9,142.4c0,0.8-0.7,1.5-1.5,1.5c-0.8,0-1.5-0.7-1.5-1.5s0.7-1.5,1.5-1.5C259.3,140.9,259.9,141.6,259.9,142.4z
			 M259.5,142.4c0-0.6-0.5-1.1-1.1-1.1c-0.6,0-1.1,0.5-1.1,1.1c0,0.6,0.5,1.1,1.1,1.1C259.1,143.5,259.5,143,259.5,142.4z"/>
	</g>
	<g>
		<path d="M56.4,107.9l0.5,0.3c0,0.1-0.1,0.1-0.1,0.1c-0.6,1.1-1.4,2-2.4,2.6c1.2,0.5,2.5,0.9,4,1.1c-0.2,0.2-0.3,0.5-0.5,0.7
			c-1.6-0.2-3.1-0.7-4.3-1.4c-1.2,0.7-2.7,1.1-4.2,1.4c-0.1-0.2-0.3-0.5-0.4-0.7c1.4-0.2,2.8-0.6,3.9-1.1c-0.9-0.6-1.6-1.3-2.1-2.2
			l0.6-0.2h-1.1v-0.6h6L56.4,107.9z M49.8,106.6v1.6h-0.7V106h1.7c-0.1-0.4-0.4-1-0.7-1.4l0.6-0.2c0.3,0.5,0.7,1.1,0.8,1.4l-0.4,0.1
			h4.5c0.4-0.5,0.8-1.3,1.1-1.9l0.8,0.3c0,0.1-0.1,0.1-0.2,0.1c-0.2,0.4-0.6,1-0.9,1.5h1.9v2.2h-0.7v-1.6H49.8z M57.6,103.5
			c0,0-0.1,0-0.1,0c0,0-0.1,0-0.1,0c-1.9,0.4-5.2,0.7-8,0.8c0-0.2-0.1-0.4-0.2-0.6c2.7-0.1,6-0.4,7.8-0.8L57.6,103.5z M51.5,108.5
			c0.5,0.8,1.3,1.5,2.2,2c0.9-0.5,1.6-1.2,2.1-2H51.5z M53.5,104.2c0.3,0.5,0.5,1.2,0.6,1.6l-0.7,0.2c-0.1-0.4-0.3-1.1-0.5-1.6
			L53.5,104.2z"/>
		<path d="M60.8,106.6c-0.4,0.7-0.9,1.3-1.4,1.8c-0.1-0.2-0.3-0.5-0.4-0.7c1.1-1.1,2.1-2.9,2.7-4.8l0.9,0.3c0,0.1-0.1,0.1-0.2,0.1
			c-0.3,0.8-0.6,1.5-1,2.2l0.3,0.1c0,0.1-0.1,0.1-0.2,0.1v6.9h-0.7V106.6z M69,105.3v0.7h-1.5v5.7c0,0.6-0.2,0.8-0.5,0.9
			c-0.4,0.1-1,0.1-2.2,0.1c0-0.2-0.2-0.5-0.3-0.7c0.4,0,0.9,0,1.2,0c1,0,1,0,1-0.3V106h-4.4v-0.7h4.4V103l0.9,0.1
			c0,0.1-0.1,0.1-0.2,0.1v2H69z M63.6,107.1c0.7,0.8,1.4,1.9,1.6,2.6l-0.7,0.3c-0.3-0.7-0.9-1.8-1.6-2.7L63.6,107.1z"/>
		<path d="M73.1,103.6v7h-2.3v0.9h-0.7v-7.8H73.1z M72.4,104.2h-1.6v2.5h1.6V104.2z M70.8,109.9h1.6v-2.5h-1.6V109.9z M76.7,106.3
			h2.8v0.6h-6.2v-0.6H76v-1.4h-2.3v-0.6H76v-1.3l0.9,0.1c0,0.1-0.1,0.1-0.2,0.1v1.1h2.3v0.6h-2.3V106.3z M78.4,107.2
			c0,0.1-0.1,0.1-0.2,0.1v0.9h1.3v0.6h-1.3v2.9c0,0.4-0.1,0.6-0.4,0.7c-0.3,0.1-0.9,0.1-1.7,0.1c0-0.2-0.1-0.5-0.2-0.7
			c0.4,0,0.8,0,1,0c0.6,0,0.6,0,0.6-0.2v-2.9h-4.2v-0.6h4.2v-1.1L78.4,107.2z M75.4,111.6c-0.2-0.5-0.8-1.3-1.4-1.9l0.6-0.3
			c0.6,0.5,1.2,1.3,1.4,1.8L75.4,111.6z"/>
		<path d="M84.6,107h-3.1v5.7h-0.7v-9.3h3.8V107z M83.9,103.9h-2.5v1h2.5V103.9z M81.5,106.4h2.5v-1h-2.5V106.4z M87.1,111.7h-3.3
			v0.6h-0.7v-4.4h4V111.7z M86.4,108.4h-2.6v1.1h2.6V108.4z M83.8,111.1h2.6V110h-2.6V111.1z M89.5,103.4v8.3c0,0.9-0.4,1-2.2,1
			c0-0.2-0.1-0.5-0.2-0.7c0.3,0,0.7,0,0.9,0c0.8,0,0.8,0,0.8-0.3V107h-3.2v-3.6H89.5z M88.8,103.9h-2.5v1h2.5V103.9z M86.3,106.4
			h2.5v-1h-2.5V106.4z"/>
		<path d="M93.7,105.2c0,0.4-0.3,0.7-0.7,0.7s-0.7-0.3-0.7-0.7c0-0.4,0.3-0.7,0.7-0.7C93.4,104.5,93.7,104.8,93.7,105.2z
			 M93.7,110.3c0,0.4-0.3,0.7-0.7,0.7s-0.7-0.3-0.7-0.7c0-0.4,0.3-0.7,0.7-0.7C93.4,109.6,93.7,110,93.7,110.3z"/>
		<path d="M105.6,108.2v0.7h-4.4v3.8h-0.7v-3.8h-4.4v-0.7h4.4v-3.8h-3.8v-0.7h8.4v0.7h-3.8v3.8H105.6z M98.4,107.6
			c-0.1-0.7-0.6-1.7-1-2.5l0.6-0.2c0.5,0.8,0.9,1.8,1,2.5L98.4,107.6z M104.5,105.1c0,0.1-0.1,0.1-0.2,0.1c-0.3,0.7-0.8,1.8-1.2,2.4
			l-0.6-0.2c0.4-0.7,0.9-1.8,1.2-2.6L104.5,105.1z"/>
		<path d="M107.6,103.6h6.8v8.8h-0.7v-0.6h-5.4v0.7h-0.7V103.6z M113.6,104.3h-5.4v3h5.4V104.3z M108.3,111.1h5.4V108h-5.4V111.1z"
			/>
		<path d="M118.5,111.8v-7h0l-1.3,0.7l-0.2-0.7l1.6-0.9h0.7v7.9H118.5z"/>
		<path d="M124.3,111.8v-7h0l-1.3,0.7l-0.2-0.7l1.6-0.9h0.7v7.9H124.3z"/>
		<path d="M130.6,105.2c0,0.4-0.3,0.7-0.7,0.7s-0.7-0.3-0.7-0.7c0-0.4,0.3-0.7,0.7-0.7C130.4,104.5,130.6,104.8,130.6,105.2z
			 M130.6,110.3c0,0.4-0.3,0.7-0.7,0.7s-0.7-0.3-0.7-0.7c0-0.4,0.3-0.7,0.7-0.7C130.4,109.6,130.6,110,130.6,110.3z"/>
		<path d="M133,107.9c0-2.8,1.1-4.1,2.5-4.1c1.5,0,2.4,1.4,2.4,4c0,2.7-1,4.1-2.5,4.1C134,111.9,133,110.5,133,107.9z M137,107.8
			c0-2-0.5-3.3-1.6-3.3c-0.9,0-1.6,1.2-1.6,3.3c0,2.1,0.6,3.4,1.6,3.4C136.6,111.2,137,109.7,137,107.8z"/>
		<path d="M138.8,107.9c0-2.8,1.1-4.1,2.5-4.1c1.5,0,2.4,1.4,2.4,4c0,2.7-1,4.1-2.5,4.1C139.8,111.9,138.8,110.5,138.8,107.9z
			 M142.8,107.8c0-2-0.5-3.3-1.6-3.3c-0.9,0-1.6,1.2-1.6,3.3c0,2.1,0.6,3.4,1.6,3.4C142.4,111.2,142.8,109.7,142.8,107.8z"/>
		<path d="M154.2,107.3c-0.7,1.2-1.6,1.8-2.7,1.8c-0.9,0-1.6-0.4-2.3-1.1c-0.6-0.6-1-0.9-1.8-0.9c-0.9,0-1.6,0.6-2,1.4l-0.7-0.4
			c0.7-1.2,1.6-1.8,2.7-1.8c0.9,0,1.6,0.4,2.3,1.1c0.6,0.6,1.1,0.9,1.8,0.9c0.9,0,1.6-0.6,2-1.4L154.2,107.3z"/>
		<path d="M157.3,111.8v-7h0l-1.3,0.7l-0.2-0.7l1.6-0.9h0.7v7.9H157.3z"/>
		<path d="M161.7,107.6c0.4-0.5,1-1,1.8-1c1.3,0,2.2,1,2.2,2.5c0,1.4-0.9,2.8-2.4,2.8c-1.5,0-2.6-1.3-2.6-3.3c0-2.1,1-4.3,3.5-4.7
			c0.3,0,0.6-0.1,0.7-0.1l0,0.7C162.9,104.5,161.9,106.1,161.7,107.6L161.7,107.6z M164.9,109.2c0-1.2-0.7-1.9-1.6-1.9
			c-0.9,0-1.6,0.9-1.6,1.5c0,1.4,0.6,2.4,1.7,2.4C164.3,111.2,164.9,110.4,164.9,109.2z"/>
		<path d="M169.5,105.2c0,0.4-0.3,0.7-0.7,0.7s-0.7-0.3-0.7-0.7c0-0.4,0.3-0.7,0.7-0.7C169.2,104.5,169.5,104.8,169.5,105.2z
			 M169.5,110.3c0,0.4-0.3,0.7-0.7,0.7s-0.7-0.3-0.7-0.7c0-0.4,0.3-0.7,0.7-0.7C169.2,109.6,169.5,110,169.5,110.3z"/>
		<path d="M171.8,107.9c0-2.8,1.1-4.1,2.5-4.1c1.5,0,2.4,1.4,2.4,4c0,2.7-1,4.1-2.5,4.1C172.8,111.9,171.8,110.5,171.8,107.9z
			 M175.9,107.8c0-2-0.5-3.3-1.6-3.3c-0.9,0-1.6,1.2-1.6,3.3c0,2.1,0.6,3.4,1.6,3.4C175.5,111.2,175.9,109.7,175.9,107.8z"/>
		<path d="M177.6,107.9c0-2.8,1.1-4.1,2.5-4.1c1.5,0,2.4,1.4,2.4,4c0,2.7-1,4.1-2.5,4.1C178.6,111.9,177.6,110.5,177.6,107.9z
			 M181.7,107.8c0-2-0.5-3.3-1.6-3.3c-0.9,0-1.6,1.2-1.6,3.3c0,2.1,0.6,3.4,1.6,3.4C181.2,111.2,181.7,109.7,181.7,107.8z"/>
		<path d="M187.2,106.6c-0.4,0.7-0.8,1.2-1.3,1.8c-0.1-0.2-0.3-0.5-0.4-0.7c1-1.1,2-2.9,2.6-4.7l0.8,0.3c0,0.1-0.1,0.1-0.2,0.1
			c-0.3,0.7-0.6,1.5-1,2.2l0.3,0.1c0,0.1-0.1,0.1-0.2,0.1v7h-0.7V106.6z M195.5,106.3h-2.7c0.7,1.7,1.8,3.5,3,4.4
			c-0.2,0.1-0.4,0.4-0.5,0.6c-1.1-1-2.2-2.7-2.9-4.4v5.8h-0.7V107c-0.7,1.8-1.8,3.4-2.9,4.3c-0.1-0.2-0.4-0.4-0.5-0.5
			c1.2-0.9,2.3-2.7,3-4.5h-2.7v-0.7h3.1V103l0.9,0.1c0,0.1-0.1,0.1-0.2,0.1v2.4h3.2V106.3z"/>
		<path d="M197.4,103.6h6.8v8.8h-0.7v-0.6h-5.4v0.7h-0.7V103.6z M203.5,104.3h-5.4v3h5.4V104.3z M198.1,111.1h5.4V108h-5.4V111.1z"
			/>
		<path d="M208.3,111.8v-7h0l-1.3,0.7l-0.2-0.7l1.6-0.9h0.7v7.9H208.3z"/>
		<path d="M211.8,107.9c0-2.8,1.1-4.1,2.5-4.1c1.5,0,2.4,1.4,2.4,4c0,2.7-1,4.1-2.5,4.1C212.8,111.9,211.8,110.5,211.8,107.9z
			 M215.8,107.8c0-2-0.5-3.3-1.6-3.3c-0.9,0-1.6,1.2-1.6,3.3c0,2.1,0.6,3.4,1.6,3.4C215.4,111.2,215.8,109.7,215.8,107.8z"/>
		<path d="M220.5,105.2c0,0.4-0.3,0.7-0.7,0.7s-0.7-0.3-0.7-0.7c0-0.4,0.3-0.7,0.7-0.7C220.2,104.5,220.5,104.8,220.5,105.2z
			 M220.5,110.3c0,0.4-0.3,0.7-0.7,0.7s-0.7-0.3-0.7-0.7c0-0.4,0.3-0.7,0.7-0.7C220.2,109.6,220.5,110,220.5,110.3z"/>
		<path d="M222.8,107.9c0-2.8,1.1-4.1,2.5-4.1c1.5,0,2.4,1.4,2.4,4c0,2.7-1,4.1-2.5,4.1C223.8,111.9,222.8,110.5,222.8,107.9z
			 M226.9,107.8c0-2-0.5-3.3-1.6-3.3c-0.9,0-1.6,1.2-1.6,3.3c0,2.1,0.6,3.4,1.6,3.4C226.4,111.2,226.9,109.7,226.9,107.8z"/>
		<path d="M228.6,107.9c0-2.8,1.1-4.1,2.5-4.1c1.5,0,2.4,1.4,2.4,4c0,2.7-1,4.1-2.5,4.1C229.6,111.9,228.6,110.5,228.6,107.9z
			 M232.7,107.8c0-2-0.5-3.3-1.6-3.3c-0.9,0-1.6,1.2-1.6,3.3c0,2.1,0.6,3.4,1.6,3.4C232.2,111.2,232.7,109.7,232.7,107.8z"/>
		<path d="M244,107.3c-0.7,1.2-1.6,1.8-2.7,1.8c-0.9,0-1.6-0.4-2.3-1.1c-0.6-0.6-1-0.9-1.8-0.9c-0.9,0-1.6,0.6-2,1.4l-0.7-0.4
			c0.7-1.2,1.6-1.8,2.7-1.8c0.9,0,1.6,0.4,2.3,1.1c0.6,0.6,1.1,0.9,1.8,0.9c0.8,0,1.6-0.6,2-1.4L244,107.3z"/>
		<path d="M247.2,111.8v-7h0l-1.3,0.7l-0.2-0.7l1.6-0.9h0.7v7.9H247.2z"/>
		<path d="M251.6,107.6c0.4-0.5,1-1,1.8-1c1.3,0,2.2,1,2.2,2.5c0,1.4-0.9,2.8-2.4,2.8c-1.5,0-2.6-1.3-2.6-3.3c0-2.1,1-4.3,3.5-4.7
			c0.3,0,0.6-0.1,0.7-0.1l0,0.7C252.7,104.5,251.7,106.1,251.6,107.6L251.6,107.6z M254.7,109.2c0-1.2-0.7-1.9-1.6-1.9
			c-0.9,0-1.6,0.9-1.6,1.5c0,1.4,0.6,2.4,1.7,2.4C254.1,111.2,254.7,110.4,254.7,109.2z"/>
		<path d="M259.4,105.2c0,0.4-0.3,0.7-0.7,0.7c-0.4,0-0.7-0.3-0.7-0.7c0-0.4,0.3-0.7,0.7-0.7C259.1,104.5,259.4,104.8,259.4,105.2z
			 M259.4,110.3c0,0.4-0.3,0.7-0.7,0.7c-0.4,0-0.7-0.3-0.7-0.7c0-0.4,0.3-0.7,0.7-0.7C259.1,109.6,259.4,110,259.4,110.3z"/>
		<path d="M261.7,107.9c0-2.8,1.1-4.1,2.5-4.1c1.5,0,2.4,1.4,2.4,4c0,2.7-1,4.1-2.5,4.1C262.7,111.9,261.7,110.5,261.7,107.9z
			 M265.7,107.8c0-2-0.5-3.3-1.6-3.3c-0.9,0-1.6,1.2-1.6,3.3c0,2.1,0.6,3.4,1.6,3.4C265.3,111.2,265.7,109.7,265.7,107.8z"/>
		<path d="M267.5,107.9c0-2.8,1.1-4.1,2.5-4.1c1.5,0,2.4,1.4,2.4,4c0,2.7-1,4.1-2.5,4.1C268.5,111.9,267.5,110.5,267.5,107.9z
			 M271.5,107.8c0-2-0.5-3.3-1.6-3.3c-0.9,0-1.6,1.2-1.6,3.3c0,2.1,0.6,3.4,1.6,3.4C271.1,111.2,271.5,109.7,271.5,107.8z"/>
		<path d="M101.8,128.7h-2.1v-9.5h2.1v0.6h-1.3v8.3h1.3V128.7z"/>
		<path d="M106.9,118.6l1,0.1c0,0.1-0.1,0.2-0.3,0.2v3.2c0,1.1,0.7,4.2,4.5,5.5c-0.2,0.2-0.4,0.5-0.5,0.7c-3.2-1.2-4.2-3.7-4.4-4.7
			h0c-0.2,1-1.1,3.5-4.2,4.7c-0.1-0.2-0.3-0.4-0.5-0.6c3.7-1.4,4.3-4.4,4.3-5.6V118.6z M102.7,123.7c0.9-0.7,1.2-1.8,1.4-3l0.7,0.2
			c-0.2,1.2-0.6,2.6-1.5,3.3L102.7,123.7z M111.8,121c0,0.1-0.1,0.1-0.2,0.1c-0.4,0.8-1.1,2.1-1.7,2.8c0,0-0.6-0.3-0.6-0.3
			c0.5-0.8,1.2-2.1,1.6-3L111.8,121z"/>
		<path d="M116.2,123.4c0,0.6-0.5,1.1-1.1,1.1s-1.1-0.5-1.1-1.1s0.5-1.1,1.1-1.1C115.8,122.3,116.2,122.8,116.2,123.4z"/>
		<path d="M121.6,121.3l0.5,0.2c0,0-0.1,0.1-0.1,0.1c-0.5,2.6-1.8,4.6-3.4,5.7c-0.1-0.2-0.4-0.5-0.6-0.6c1.4-0.9,2.6-2.5,3.1-4.7
			h-2.8v-0.7h3.2L121.6,121.3z M123.4,120.5c0.2,0.9,0.5,1.7,0.9,2.5c0.9-0.7,2-1.8,2.6-2.7l0.7,0.6c-0.1,0.1-0.1,0.1-0.2,0.1
			c-0.7,0.8-1.9,1.9-2.8,2.7c0.8,1.5,2,2.7,3.4,3.3c-0.2,0.1-0.4,0.4-0.5,0.6c-1.9-0.9-3.2-2.8-4.1-5.1v4.9c0,1-0.4,1-2.4,1
			c0-0.2-0.2-0.6-0.3-0.8c0.4,0,0.8,0,1.1,0c0.9,0,0.9,0,0.9-0.3v-8.7l0.9,0.1c0,0.1-0.1,0.1-0.2,0.1V120.5z"/>
		<path d="M138.4,127.3v0.6h-5v0.4h-0.7v-3.8c-0.2,0.3-0.5,0.6-0.7,0.8c-0.1-0.1-0.2-0.3-0.3-0.4v1.3h-2.1v0.9H129v-7.9h2.7v5.6
			c0.7-0.7,1.4-1.7,1.7-2.6h-1.3v-0.5h2v-0.9h-1.8v-0.5h1.8v-0.8h-2v-0.5h2.6v3.2H134l0.3,0.1c0,0.1-0.1,0.1-0.2,0.1
			c-0.1,0.3-0.3,0.5-0.4,0.8h1.5c0.2-0.3,0.3-0.7,0.4-1h-0.3v-0.5h2.1v-0.9h-1.9v-0.5h1.9v-0.8h-2.1v-0.5h2.7v3.2h-2.2l0.6,0.2
			c0,0.1-0.1,0.1-0.2,0.1c-0.1,0.2-0.2,0.5-0.4,0.8h2.3v0.6h-2.4v0.8h2.1v0.5h-2.1v0.8h2.1v0.5h-2.1v0.9H138.4z M131.1,119.8h-1.4
			v2.5h1.4V119.8z M129.7,125.6h1.4v-2.6h-1.4V125.6z M135.1,124.6v-0.8h-1.7v0.8H135.1z M135.1,125.9v-0.8h-1.7v0.8H135.1z
			 M133.4,126.4v0.9h1.7v-0.9H133.4z"/>
		<path d="M144.4,125v2.3c0.6,0.1,1.2,0.1,1.8,0.1c0.4,0,2.2,0,2.7,0c-0.1,0.2-0.2,0.5-0.3,0.7h-2.5c-2.3,0-3.9-0.4-4.9-2.3
			c-0.4,1-0.9,1.9-1.6,2.5c-0.1-0.1-0.4-0.3-0.5-0.5c1.2-0.9,1.8-2.5,2-4.4l0.9,0.1c0,0.1-0.1,0.1-0.2,0.1c-0.1,0.4-0.1,0.8-0.2,1.2
			c0.4,1.2,1.2,1.8,2.1,2.1v-4.6H141v-0.7h6.2v0.7h-2.8v1.9h3.2v0.7H144.4z M140.3,120.4v1.6h-0.7v-2.3h4v-1.3l1,0.1
			c0,0.1-0.1,0.1-0.2,0.1v1.1h4.1v2.3h-0.7v-1.6H140.3z"/>
		<path d="M151.1,122.2c-0.4,0.7-0.8,1.2-1.3,1.8c-0.1-0.2-0.3-0.5-0.4-0.7c1-1.1,2-2.9,2.6-4.7l0.8,0.3c0,0.1-0.1,0.1-0.2,0.1
			c-0.3,0.7-0.6,1.5-1,2.2l0.3,0.1c0,0.1-0.1,0.1-0.2,0.1v7h-0.7V122.2z M159.3,121.9h-2.7c0.7,1.7,1.8,3.5,3,4.4
			c-0.2,0.1-0.4,0.4-0.5,0.6c-1.1-1-2.2-2.7-2.9-4.4v5.8h-0.7v-5.7c-0.7,1.8-1.8,3.4-2.9,4.3c-0.1-0.2-0.4-0.4-0.5-0.5
			c1.2-0.9,2.3-2.7,3-4.5h-2.7v-0.7h3.1v-2.6l0.9,0.1c0,0.1-0.1,0.1-0.2,0.1v2.4h3.1V121.9z"/>
		<path d="M164.9,118.5c-1.1,1-2.1,2.7-2.1,4.8c0,2.2,1,3.9,2.1,4.8v0.1h-0.6c-1.1-1-2-2.7-2-4.9s0.9-3.9,2-4.9L164.9,118.5
			L164.9,118.5z"/>
		<path d="M169.5,120.7c0,0.1-0.1,0.1-0.1,0.1c-0.3,0.9-0.9,1.7-1.4,2.5c0.5,0.3,1.4,1,1.7,1.2l-0.4,0.6c-0.3-0.3-0.9-0.8-1.4-1.2
			v4.3h-0.7v-4c-0.5,0.5-0.9,0.9-1.4,1.3c-0.1-0.2-0.3-0.5-0.4-0.6c1.2-0.8,2.5-2.3,3.2-3.8h-3v-0.7h1.6v-2l0.9,0.1
			c0,0.1-0.1,0.1-0.2,0.1v1.8h1.1l0.1,0L169.5,120.7z M171.6,123.9c0,0.1-0.1,0.1-0.2,0.1c-0.2,1.8-0.5,3.4-2.2,4.3
			c-0.1-0.2-0.3-0.4-0.5-0.5c1.6-0.8,1.9-2.3,2-4L171.6,123.9z M173.3,127.3c0,0.3,0,0.4,0.3,0.4h0.8c0.3,0,0.3-0.2,0.3-1.6
			c0.1,0.1,0.4,0.2,0.6,0.3c-0.1,1.5-0.2,1.9-0.9,1.9h-1c-0.7,0-0.9-0.2-0.9-1v-3.9h-2.9v-4.1h5v4.1h-1.2c0,0.1-0.1,0.1-0.2,0.1
			V127.3z M170.4,119.9v2.8h3.6v-2.8H170.4z"/>
		<path d="M177,119.2h6.8v8.8h-0.7v-0.6h-5.4v0.7H177V119.2z M183.1,119.9h-5.4v3h5.4V119.9z M177.7,126.7h5.4v-3.1h-5.4V126.7z"/>
		<path d="M186.6,127.7c-0.3-0.8-0.5-2.3-0.5-3.7c0-1.4,0.2-3.1,0.6-4.9l1,0.2c0,0.1-0.1,0.2-0.3,0.2c-0.4,1.4-0.6,3.3-0.6,4.5
			c0,0.8,0,1.6,0.1,2c0.2-0.6,0.7-1.6,0.9-2.1l0.5,0.4c-0.3,0.7-1.1,2.3-1.1,2.8c0,0.1,0,0.3,0.1,0.5L186.6,127.7z M189.2,121.5
			c0.9,0,1.8,0,2.6,0c0-0.9-0.1-1.7-0.1-2.5l1.1,0c0,0.1-0.1,0.2-0.3,0.2c0,0.7,0,1.4,0.1,2.2c0.8-0.1,1.5-0.2,2.1-0.4l0.1,0.7
			c-0.5,0.2-1.2,0.3-2.1,0.4c0,1.2,0.1,2.4,0.1,3.1c0.8,0.3,1.6,0.8,2.1,1.3l-0.4,0.7c-0.4-0.4-1-0.9-1.7-1.2c0,0.9-0.2,1.9-1.8,1.9
			c-1.2,0-2-0.6-2-1.5c0-1.1,1.1-1.5,2-1.5c0.3,0,0.7,0,1,0.1c0-0.7-0.1-1.8-0.1-2.8c-0.3,0-0.8,0-1.1,0h-1.6L189.2,121.5z
			 M192.1,125.6c-0.3-0.1-0.7-0.2-1-0.2c-0.6,0-1.4,0.2-1.4,0.9c0,0.6,0.6,0.9,1.4,0.9c0.8,0,1.1-0.4,1.1-1.2L192.1,125.6z"/>
		<path d="M199,118.9l0.5,0.3c0,0-0.1,0.1-0.1,0.1c-0.3,0.8-0.7,1.9-1,2.7c0.8,0.9,1.1,1.6,1.1,2.3c0,1.5-0.9,1.5-1.7,1.4
			c0-0.2-0.1-0.5-0.2-0.6c0.2,0,0.3,0,0.5,0c0.4,0,0.8,0,0.8-0.9c0-0.6-0.3-1.3-1.1-2.1c0.3-0.8,0.7-1.8,0.9-2.5h-1.5v8.7h-0.6V119
			h2.5L199,118.9z M203,118.5c0,0.1-0.1,0.1-0.1,0.1c0.7,1.1,2,2.3,3.1,2.9c-0.1,0.2-0.3,0.4-0.4,0.6c-1.1-0.7-2.4-1.9-3.1-3
			c-0.6,1-1.8,2.3-3,3c-0.1-0.2-0.2-0.4-0.4-0.5c1.2-0.8,2.5-2.1,3-3.2L203,118.5z M201.3,125.1c0,0.1-0.1,0.1-0.2,0.1
			c-0.3,0.9-0.9,1.8-1.5,2.4c-0.1-0.1-0.3-0.3-0.5-0.4c0.6-0.5,1.1-1.4,1.4-2.3L201.3,125.1z M205.4,124.2h-2.6v3.2
			c0,0.8-0.3,0.8-1.7,0.8c0-0.2-0.1-0.5-0.2-0.7c0.5,0,1,0,1.1,0c0.1,0,0.2-0.1,0.2-0.2v-3.2h-2.4v-0.6h2.4v-1.4h-1.6v-0.6h4v0.6
			h-1.7v1.4h2.6V124.2z M205.1,127.5c-0.3-0.6-0.9-1.6-1.5-2.4l0.5-0.3c0.6,0.7,1.2,1.7,1.5,2.4L205.1,127.5z"/>
		<path d="M212.3,128.2c-1.1-1.2-2.7-2.8-4.1-3.9c-0.5-0.4-0.7-0.7-0.7-1.1c0-0.3,0.2-0.6,0.6-1c1-0.9,2.8-2.6,3.8-3.6l0.9,0.6
			c0,0-0.1,0.1-0.2,0.1c0,0-0.1,0-0.1,0c-1.1,1-2.7,2.4-3.5,3.2c-0.3,0.2-0.5,0.5-0.5,0.6c0,0.2,0.2,0.4,0.6,0.7
			c1.4,1.1,2.9,2.4,4.1,3.8L212.3,128.2z"/>
		<path d="M214.1,128.2c1.1-1,2.1-2.7,2.1-4.8c0-2.2-1-3.9-2.1-4.8v-0.1h0.6c1.1,1,2,2.7,2,4.9s-0.9,3.9-2,4.9L214.1,128.2
			L214.1,128.2z"/>
		<path d="M219.4,119.2h2.1v9.5h-2.1v-0.6h1.4v-8.3h-1.4V119.2z"/>
		<path d="M60.9,135.2l3.5,3.5l3.5-3.5l0.3,0.3l-3.5,3.5l3.5,3.5l-0.3,0.3l-3.5-3.5l-3.5,3.5l-0.3-0.3l3.5-3.5l-3.5-3.5L60.9,135.2z
			 M61.4,139.8c-0.4,0-0.8-0.4-0.8-0.8s0.4-0.8,0.8-0.8c0.4,0,0.8,0.4,0.8,0.8C62.2,139.4,61.8,139.8,61.4,139.8z M63.6,136
			c0-0.4,0.4-0.8,0.8-0.8s0.8,0.4,0.8,0.8c0,0.4-0.4,0.8-0.8,0.8C63.9,136.8,63.6,136.4,63.6,136z M65.2,142c0,0.4-0.4,0.8-0.8,0.8
			s-0.8-0.4-0.8-0.8c0-0.4,0.4-0.8,0.8-0.8C64.8,141.2,65.2,141.6,65.2,142z M67.4,138.2c0.4,0,0.8,0.4,0.8,0.8s-0.4,0.8-0.8,0.8
			c-0.4,0-0.8-0.4-0.8-0.8C66.6,138.5,67,138.2,67.4,138.2z"/>
		<path d="M73.4,139.4l-1.2,0.4v3.2c0,0.8-0.4,0.9-1.8,0.9c0-0.2-0.1-0.5-0.2-0.7c0.2,0,0.4,0,0.6,0c0.7,0,0.7,0,0.7-0.2v-3
			c-0.5,0.1-0.9,0.3-1.2,0.4c0,0.1-0.1,0.1-0.1,0.2l-0.3-0.8c0.4-0.1,1-0.3,1.6-0.4V137h-1.5v-0.7h1.5v-2.2l0.9,0.1
			c0,0.1-0.1,0.1-0.2,0.1v2h1v0.7h-1v2.2l1.1-0.3L73.4,139.4z M77.1,139h2.6v0.5h-5.5v-2.7c-0.3,0.4-0.5,0.7-0.8,1
			c-0.1-0.1-0.3-0.4-0.4-0.5c0.8-0.7,1.5-1.9,1.9-3.2l0.8,0.2c0,0.1-0.1,0.1-0.2,0.1c-0.1,0.3-0.2,0.6-0.3,0.9h1.4
			c0.2-0.4,0.4-0.9,0.6-1.2l0.8,0.3c0,0.1-0.1,0.1-0.2,0.1c-0.1,0.2-0.3,0.6-0.5,0.9h2.3v0.5h-2.4v0.7h2v0.5h-2v0.7h2v0.5h-2V139z
			 M79,141.2l0.1,0l0.4,0.1l0,0.2c-0.1,1.4-0.3,1.9-0.5,2.2c-0.2,0.2-0.5,0.2-1,0.2c-0.2,0-0.5,0-0.8,0c0-0.2-0.1-0.4-0.2-0.6
			c0.5,0.1,1,0.1,1.1,0.1s0.3,0,0.3-0.1c0.2-0.1,0.3-0.5,0.4-1.5h-1.4l-0.1,0.5l-0.6-0.1c0.1-0.4,0.3-1,0.4-1.4h-1.5
			c-0.2,1.5-0.9,2.6-2.2,3.1c-0.1-0.1-0.3-0.4-0.4-0.5c1.1-0.4,1.7-1.3,1.9-2.6h-1.5v-0.6h3.9l0.1,0l0.4,0.1c0,0.1,0,0.1-0.1,0.2
			c0,0.2-0.1,0.5-0.2,0.8H79z M76.5,136.6v-0.7h-1.7v0.7H76.5z M76.5,137.8v-0.7h-1.7v0.7H76.5z M74.8,138.3v0.7h1.7v-0.7H74.8z"/>
		<path d="M88.4,135.3h1.8v0.6h-1.8v1.7h-6v-1.7h-1.8v-0.6h1.8v-1.1l0.9,0.1c0,0.1-0.1,0.1-0.2,0.1v0.9H85v-1.1l0.9,0.1
			c0,0.1-0.1,0.1-0.2,0.1v0.9h2v-1.1l0.9,0.1c0,0.1-0.1,0.1-0.2,0.1V135.3z M80.9,140.3v-2.1h8.9v2.1h-0.7v-1.5h-7.6v1.5H80.9z
			 M88.8,140.1v2.3c0,0.7-0.2,0.8-1.9,0.8c0-0.2-0.1-0.4-0.2-0.6c0.3,0,0.7,0,0.9,0c0.5,0,0.5,0,0.5-0.2v-1.7h-2.4v3.2H85v-3.2h-2.2
			v2.4h-0.7v-3H85v-1l0.9,0.1c0,0.1-0.1,0.1-0.2,0.1v0.8H88.8z M83.1,135.9v1.1H85v-1.1H83.1z M87.7,137v-1.1h-2v1.1H87.7z"/>
		<path d="M95.5,138.9v-2.5H92v1.5h-0.6v-2.1h4.1v-0.7H92v-0.6h7.7v0.6h-3.6v0.7h4.2v2.1h-0.7v-1.5h-3.5v2.5H95.5z M96.1,142.7
			c0,0.4,0.1,0.4,0.8,0.4h2.4c0.6,0,0.7-0.2,0.7-1.3c0.2,0.1,0.4,0.2,0.6,0.2c-0.1,1.3-0.3,1.6-1.3,1.6h-2.5c-1.1,0-1.5-0.2-1.5-1
			v-0.4H93v0.6h-0.7v-3.7h7.2v3.1h-3.4V142.7z M92.4,138.6v-0.5h2.5v0.5H92.4z M92.6,137h2.3v0.5h-2.3V137z M95.5,139.8H93v0.8h2.5
			V139.8z M93,141.8h2.5V141H93V141.8z M98.8,140.5v-0.8h-2.7v0.8H98.8z M96.1,141.8h2.7V141h-2.7V141.8z M96.8,137h2.3v0.5h-2.3
			V137z M96.8,138.6v-0.5h2.6v0.5H96.8z"/>
		<path d="M101.5,136.5v-0.6h3.9v0.6H101.5z M105.1,140.3v3.1h-2.5v0.5H102v-3.6H105.1z M105.1,137.4v0.6H102v-0.6H105.1z
			 M102,139.4v-0.6h3.1v0.6H102z M105.1,134.5v0.6h-3v-0.6H105.1z M104.5,140.9h-1.9v1.9h1.9V140.9z M111.4,138h-2.6v1.8h2v4h-0.7
			v-0.5h-3.3v0.5h-0.7v-4.1h1.9V138h-2.6v-0.7h2.6v-1.8c-0.7,0.1-1.5,0.2-2.2,0.3c0-0.2-0.1-0.4-0.2-0.6c1.6-0.2,3.5-0.5,4.6-0.9
			l0.6,0.6c0,0-0.1,0-0.1,0c0,0-0.1,0-0.1,0c-0.5,0.2-1.2,0.3-1.9,0.5v1.9h2.6V138z M110.1,142.7v-2.3h-3.3v2.3H110.1z"/>
		<path d="M115.3,139c0,0.6-0.5,1.1-1.1,1.1s-1.1-0.5-1.1-1.1s0.5-1.1,1.1-1.1C114.9,137.9,115.3,138.4,115.3,139z"/>
		<path d="M117.7,135.1c0.5-0.1,1.1-0.2,1.8-0.2c2.6,0,2.8,1.7,2.8,2.3c0,1.9-1.5,2.6-2.9,2.6c-0.3,0-0.6,0-0.8-0.1v3.3h-0.9V135.1z
			 M118.6,139c0.2,0.1,0.5,0.1,0.8,0.1c1.3,0,2-0.6,2-1.8s-0.8-1.6-1.9-1.6c-0.4,0-0.8,0-1,0.1V139z"/>
		<path d="M129.3,143h-0.9v-3.8h-3.8v3.8h-0.9v-8h0.9v3.4h3.8V135h0.9V143z"/>
		<path d="M134.6,136c-0.2-0.1-0.7-0.4-1.4-0.4c-1.1,0-1.5,0.7-1.5,1.3c0,0.8,0.5,1.2,1.6,1.6c1.3,0.5,2,1.2,2,2.4
			c0,1.3-0.9,2.2-2.6,2.2c-0.7,0-1.5-0.2-1.9-0.5l0.2-0.7c0.4,0.3,1.1,0.5,1.7,0.5c1.1,0,1.7-0.6,1.7-1.4c0-0.8-0.4-1.3-1.5-1.7
			c-1.2-0.5-2-1.2-2-2.3c0-1.2,1-2.1,2.4-2.1c0.8,0,1.3,0.2,1.6,0.4L134.6,136z"/>
		<path d="M140.2,134.6c0,0.1-0.1,0.2-0.3,0.2c-0.1,0.6-0.3,1.6-0.4,2.2c0.5-0.1,0.9-0.1,1.2-0.1c1.6,0,2.1,1,2.1,2.6
			c0,0.8-0.1,1.7-0.4,2.4c-0.3,1.1-1,1.6-1.9,1.6c-0.4,0-1-0.2-1.9-0.9c0.1-0.2,0.2-0.4,0.3-0.6c0.8,0.7,1.3,0.8,1.6,0.8
			c0.6,0,1-0.4,1.2-1c0.2-0.7,0.3-1.6,0.3-2.2c0-1.2-0.4-1.9-1.4-1.9c-0.3,0-0.7,0-1.3,0.1c-0.5,2.1-1.1,4-2.2,5.7l-0.7-0.3
			c1-1.6,1.6-3.3,2.1-5.2c-0.5,0.1-1.3,0.2-1.9,0.3l-0.1-0.7c0.5-0.1,1.4-0.2,2.1-0.2c0.2-0.8,0.3-1.7,0.5-2.6L140.2,134.6z
			 M145,139.7c-0.3-1.5-1.3-2.8-2.4-3.6l0.6-0.4c1.1,0.8,2.2,2.2,2.6,3.7L145,139.7z"/>
		<path d="M148.7,136.4c0,0.1-0.1,0.2-0.3,0.2c-0.1,1.6-0.3,2.9-0.4,3.1h0c1-0.8,2.6-1.3,3.9-1.3c1.6,0,2.6,0.8,2.6,2.3
			c0,1.9-1.6,2.8-5.7,3c-0.1-0.2-0.1-0.5-0.3-0.7c3.7-0.2,5.1-0.8,5.2-2.3c0-1-0.7-1.6-1.9-1.6c-1.9,0-3.7,1.2-4,1.7l-0.7-0.3
			c0.2-0.2,0.6-2.1,0.6-4.1L148.7,136.4z M148.9,134.3c1.4,0.2,3,0.5,4.1,0.9l-0.3,0.7c-1.1-0.5-2.6-0.8-4-1L148.9,134.3z"/>
		<path d="M161.6,139.9c-0.7,0.1-1.6,0.1-2.5,0.1c0,0.4-0.1,0.8-0.1,1c0,1.7,1.1,1.8,2.1,1.8c1.6,0,2.5-0.5,2.5-1.4
			c0-0.5-0.3-1.2-0.9-1.9c0.2-0.1,0.5-0.2,0.7-0.3c0.6,0.8,1,1.6,1,2.3c0,1.8-2,2-3.2,2c-1,0-2.8-0.1-2.8-2.5c0-0.5,0-0.8,0.1-1
			c-0.9,0-2.3-0.1-2.3-1.2c0-0.5,0.3-0.9,0.9-1.4l0.6,0.3c-0.5,0.3-0.7,0.6-0.7,0.9c0,0.6,0.8,0.6,1.6,0.6c0.1-0.7,0.2-1.5,0.3-2.4
			c-0.8-0.1-1.6-0.3-2.2-0.6l0.2-0.7c0.6,0.3,1.3,0.5,2.1,0.6c0.1-0.7,0.2-1.3,0.2-1.9l1.1,0.1c0,0.1-0.1,0.2-0.3,0.2
			c-0.1,0.4-0.2,1-0.2,1.6c0.3,0,0.6,0,1,0c0.4,0,0.8,0,1.2,0l0,0.7c-0.3,0-0.7,0-1,0c-0.4,0-0.8,0-1.2,0c-0.1,0.8-0.2,1.6-0.3,2.3
			c0.8,0,1.8-0.1,2.4-0.1L161.6,139.9z"/>
		<path d="M173.1,142.8c-0.9,0.2-2.2,0.2-3.2,0.2c-0.9,0-1.6-0.1-2-0.1c-1.3-0.3-1.8-1.1-1.8-2c0-0.8,0.4-1.6,1.1-2.2l0.6,0.3
			c-0.6,0.6-0.9,1.3-0.9,1.9c0,0.6,0.4,1.2,1.3,1.4c0.4,0.1,1,0.1,1.7,0.1c1,0,2.3-0.1,3.3-0.3L173.1,142.8z M168.4,137.5
			c0.5-0.4,1.3-0.9,1.9-1.2v0c-0.8,0.1-2.6,0.1-3.8,0.1c0-0.2,0-0.5,0-0.7h0.6c1.3,0,4.1,0,5.4-0.3l0.1,0.8
			c-0.3,0.1-0.6,0.1-1.1,0.3c-0.6,0.2-1.6,0.8-2.4,1.5L168.4,137.5z M173.1,139c-0.3-0.5-1-1.1-1.4-1.4l0.3-0.3
			c0.5,0.4,1.1,1,1.4,1.4L173.1,139z M174.2,138c-0.3-0.4-0.9-1-1.4-1.4l0.3-0.3c0.5,0.4,1.1,1,1.4,1.4L174.2,138z"/>
		<path d="M180.1,134.6c0,0-0.1,0.1-0.2,0c-0.4,0.2-1,0.4-1.7,0.6v2h2.1v0.7h-2.1v0.8c0.5,0.4,1.7,1.4,2,1.7l-0.4,0.6
			c-0.3-0.3-1-1-1.6-1.5v4.3h-0.7v-4.8c-0.5,1.3-1.3,2.5-2,3.3c-0.1-0.2-0.3-0.5-0.4-0.7c0.8-0.8,1.7-2.3,2.2-3.7h-2.1v-0.7h2.2
			v-1.8c-0.7,0.2-1.4,0.3-2.1,0.4c0-0.2-0.1-0.4-0.2-0.5c1.5-0.3,3.3-0.7,4.2-1.2L180.1,134.6z M181.1,135.4l0.9,0.1
			c0,0.1-0.1,0.1-0.2,0.1v5.7h-0.7V135.4z M183.8,134.3l0.9,0.1c0,0.1-0.1,0.1-0.2,0.1v8.4c0,0.5-0.1,0.7-0.5,0.8
			c-0.3,0.1-0.9,0.1-1.9,0.1c0-0.2-0.2-0.5-0.3-0.7c0.4,0,0.7,0,1,0c0.8,0,0.9,0,0.9-0.3V134.3z"/>
		<path d="M194.7,134.9v8c0,1-0.5,1-2.4,1c0-0.2-0.1-0.5-0.3-0.7c0.4,0,0.8,0,1.1,0c0.9,0,0.9,0,0.9-0.3v-2.3h-3v3.2h-0.7v-3.2h-2.8
			c-0.2,1.2-0.5,2.4-1.3,3.3c-0.1-0.1-0.4-0.4-0.5-0.5c1.2-1.3,1.3-3.2,1.3-4.7v-3.9H194.7z M187.6,138.7c0,0.4,0,0.8,0,1.2h2.7
			v-1.8h-2.7V138.7z M190.3,135.5h-2.7v1.9h2.7V135.5z M194,137.4v-1.9h-3v1.9H194z M191,139.9h3v-1.8h-3V139.9z"/>
		<path d="M198,135.5c0,0.1-0.1,0.2-0.3,0.2c-0.1,0.8-0.2,1.7-0.2,2.6c0,0.4,0,0.8,0,1.1c0.1,1.8,0.8,2.9,1.7,2.9
			c0.4,0,1-1.1,1.3-2.2c0.1,0.1,0.4,0.3,0.6,0.5c-0.5,1.4-1.1,2.6-2,2.6c-1.3,0-2.3-1.6-2.4-3.6c0-0.4,0-0.8,0-1.3
			c0-0.9,0.1-1.9,0.2-2.8L198,135.5z M205,140.4c-0.3-1.8-1.2-3.2-2.6-3.9l0.5-0.6c1.5,0.8,2.7,2.3,3,4.3L205,140.4z"/>
		<path d="M213.2,136.4c-0.9,0.3-2.1,0.5-3.2,0.6c-0.4,2.4-1.1,4.8-1.9,6.6l-0.8-0.3c0.9-1.7,1.5-3.9,1.9-6.2c-0.2,0-1.6,0-1.9,0
			l0-0.7c0.2,0,0.4,0,0.6,0c0.1,0,1.1,0,1.4,0c0.1-0.7,0.2-1.4,0.3-2l1.1,0.1c0,0.1-0.2,0.2-0.3,0.2c-0.1,0.5-0.2,1-0.3,1.7
			c1-0.1,2.1-0.3,2.9-0.6L213.2,136.4z M216,143.4c-0.3,0-0.6,0-1,0c-1,0-1.9-0.1-2.5-0.2c-0.7-0.2-1.2-0.8-1.2-1.4
			c0-0.5,0.2-1,0.7-1.5l0.6,0.3c-0.4,0.4-0.5,0.8-0.5,1.2c0,0.8,0.8,1,2.7,1c0.4,0,0.8,0,1.2,0V143.4z M211.9,138.3
			c1.1-0.3,2.6-0.6,3.8-0.5v0.7c-1.2,0-2.6,0.1-3.6,0.5L211.9,138.3z"/>
		<path d="M223.7,136.4c-0.9,0.3-2.1,0.5-3.2,0.6c-0.4,2.4-1.1,4.8-1.9,6.6l-0.8-0.3c0.9-1.7,1.5-3.9,1.9-6.2c-0.2,0-1.6,0-1.9,0
			l0-0.7c0.2,0,0.4,0,0.6,0c0.1,0,1.1,0,1.4,0c0.1-0.7,0.2-1.4,0.3-2l1.1,0.1c0,0.1-0.2,0.2-0.3,0.2c-0.1,0.5-0.2,1-0.3,1.7
			c1-0.1,2.1-0.3,2.9-0.6L223.7,136.4z M226.5,143.3c-0.4,0-0.9,0.1-1.3,0.1c-0.8,0-1.7-0.1-2.2-0.2c-0.7-0.2-1.2-0.8-1.2-1.4
			c0-0.5,0.2-1,0.7-1.5l0.6,0.3c-0.4,0.4-0.5,0.8-0.5,1.2c0,0.8,0.8,1,2.5,1c0.5,0,0.9,0,1.4-0.1L226.5,143.3z M222.4,138.3
			c1.1-0.3,2.6-0.6,3.8-0.5v0.7c-1.2,0-2.6,0.1-3.6,0.5L222.4,138.3z M224.2,134.7c0.5,0.4,1.1,1,1.5,1.4l-0.4,0.3
			c-0.3-0.5-1-1.1-1.4-1.4L224.2,134.7z M225.6,134c0.5,0.4,1.1,1,1.4,1.4l-0.4,0.3c-0.3-0.4-0.9-1-1.4-1.4L225.6,134z"/>
		<path d="M229.9,135c0,0.1-0.1,0.2-0.3,0.2c-0.3,1.3-0.5,3.2-0.5,4.3c0,0.7,0,1.3,0.1,1.8c0.2-0.5,0.7-1.5,1.1-2.1l0.5,0.5
			c-0.8,1.4-1.2,2.2-1.2,2.6c0,0.1,0,0.3,0.1,0.4l-0.7,0.1c-0.3-0.8-0.5-1.9-0.5-3.4c0-1.3,0.2-3.2,0.5-4.7L229.9,135z M231.4,137.3
			c0.8,0,2.1,0,2.8-0.1c-0.1-1.2-0.1-2.7-0.2-2.9l1.1,0c0,0.1-0.1,0.2-0.3,0.2c0,0.6,0.1,1.6,0.1,2.6c0.7-0.1,1.5-0.2,2.1-0.3
			l0.1,0.7c-0.6,0.1-1.3,0.2-2.1,0.3c0,0.1,0,0.2,0,0.9c0,2.3-0.5,3.9-2.5,4.9c-0.1-0.1-0.4-0.4-0.6-0.5c1.9-0.9,2.4-2.3,2.4-4.3
			l0-0.9c-0.7,0-1.9,0.1-2.8,0.1L231.4,137.3z"/>
		<path d="M238.4,135.7c0.7,0,1.5,0,2.2,0c0.5,0,1,0,1.4,0c0-0.5,0-1.1,0-1.5l1.1,0.1c0,0.1-0.1,0.2-0.3,0.2c0,0.2,0,1,0,1.2
			c1.2-0.1,2.4-0.2,3.5-0.4l0.1,0.7c-1,0.2-2.2,0.3-3.6,0.4c0,0.6,0,1.3,0,1.9c1-0.1,2.1-0.2,3-0.4l0.1,0.7c-0.9,0.2-2,0.3-3,0.4
			l0.1,1.8c1,0.3,2,0.9,3.1,1.6l-0.5,0.6c-0.9-0.7-1.8-1.2-2.6-1.5c0,0.2,0,0.4,0,0.5c0,1-0.6,1.6-1.9,1.6c-1.3,0-2.3-0.5-2.3-1.5
			c0-1,1.1-1.6,2.3-1.6c0.3,0,0.7,0,1.1,0.1c0-0.5,0-1,0-1.6c-0.3,0-0.7,0-1,0c-1.8,0-2.3-0.3-2.3-0.9c0-0.4,0.3-0.7,1-1.2l0.5,0.3
			c-0.5,0.3-0.7,0.5-0.7,0.7c0,0.3,0.5,0.4,1.8,0.4c0.2,0,0.5,0,0.7,0l-0.1-1.9c-0.5,0-1,0-1.4,0c-0.7,0-1.6,0-2.3,0V135.7z
			 M242.3,141.2c-0.4-0.1-0.8-0.2-1.2-0.2c-0.8,0-1.6,0.3-1.6,1c0,0.6,0.7,0.9,1.6,0.9c0.8,0,1.1-0.4,1.1-1.1L242.3,141.2z"/>
		<path d="M252.8,135.8c0-0.2,0-1.4-0.1-1.6l1.1,0c0,0.1-0.1,0.2-0.3,0.2c0,0.1,0,0.3,0,1.4c1.3,0,2.6-0.1,3.4-0.1v0.7
			c-0.9,0-2.2,0-3.4,0c0,0.8,0,1.6,0.1,2.2c0.1,0.3,0.1,0.7,0.1,1.1c0,0.3,0,0.7-0.1,1c-0.3,1.2-1.2,2.3-3,3
			c-0.1-0.2-0.4-0.4-0.5-0.6c1.6-0.6,2.5-1.4,2.7-2.4h0c-0.2,0.3-0.6,0.6-1.1,0.6c-0.9,0-1.8-0.8-1.8-1.8c0-1.1,0.9-2,1.9-2
			c0.4,0,0.8,0.1,1,0.3c0-0.2,0-0.9,0-1.3c-1.1,0-4.4,0.1-4.8,0.2l0-0.7l2.4-0.1L252.8,135.8z M253,139.5c0-0.4,0-1.4-1.1-1.4
			c-0.7,0-1.2,0.6-1.2,1.3c0,0.7,0.6,1.2,1.2,1.2C252.6,140.7,253,140.1,253,139.5z"/>
		<path d="M259.9,142.4c0,0.8-0.7,1.5-1.5,1.5c-0.8,0-1.5-0.7-1.5-1.5s0.7-1.5,1.5-1.5C259.3,140.9,259.9,141.6,259.9,142.4z
			 M259.5,142.4c0-0.6-0.5-1.1-1.1-1.1c-0.6,0-1.1,0.5-1.1,1.1c0,0.6,0.5,1.1,1.1,1.1C259.1,143.5,259.5,143,259.5,142.4z"/>
	</g>
</g>
</svg>
