<?xml version="1.0" encoding="utf-8"?>
<!-- Generator: Adobe Illustrator 24.1.1, SVG Export Plug-In . SVG Version: 6.00 Build 0)  -->
<svg version="1.1" id="レイヤー_1" xmlns="http://www.w3.org/2000/svg" xmlns:xlink="http://www.w3.org/1999/xlink" x="0px"
	 y="0px" viewBox="0 0 216.4 67.1" style="enable-background:new 0 0 216.4 67.1;" xml:space="preserve">
<style type="text/css">
	.st0{fill:#D00251;}
	.st1{fill:#1A1311;}
	.st2{fill:#404040;}
</style>
<g>
	<path class="st0" d="M32,32.3l-4.6,7c2.4,2,3.9,5,3.9,8.3c0,6-4.8,10.8-10.8,10.8c-6,0-10.8-4.8-10.8-10.8c0-6,4.8-10.8,10.8-10.8
		c1.8,0,3.6,0.5,5.1,1.3l4.6-7c-2.8-1.7-6.2-2.6-9.7-2.6C9.9,28.4,1.4,37,1.4,47.6c0,10.5,8.6,19.1,19.1,19.1
		c10.6,0,19.1-8.6,19.1-19.1C39.6,41.3,36.6,35.8,32,32.3z"/>
	<path class="st0" d="M34.4,31.6c2.7,0,4.9-2.2,4.9-4.9c0-2.7-2.2-4.9-4.9-4.9c-2.7,0-4.9,2.2-4.9,4.9
		C29.5,29.4,31.7,31.6,34.4,31.6z"/>
	<g>
		<path class="st1" d="M51.9,30.5c-0.5,0-0.8-0.1-0.9-0.3c-0.1-0.1-0.2-0.4-0.2-0.9v-5.6c0-0.5,0.1-0.8,0.2-0.9
			c0.1-0.1,0.4-0.2,0.9-0.2v-0.2h-4.6v0.2c0.5,0,0.8,0.1,0.9,0.2c0.1,0.1,0.2,0.5,0.2,0.9v5.6c0,0.4-0.1,0.7-0.2,0.9
			c-0.2,0.2-0.5,0.2-1,0.2v0.2h4.6V30.5z"/>
		<path class="st1" d="M53.3,23l0.2,0.3v6.2c0,0.6-0.3,1-1,1.1v0.2h2.6v-0.2c-0.4,0-0.7-0.1-0.9-0.3c-0.2-0.2-0.2-0.4-0.2-0.9v-5.7
			l5.7,7.1h0.8v-7.2c0-0.3,0.1-0.6,0.2-0.7c0.2-0.2,0.4-0.2,0.8-0.3v-0.2H59v0.2c0.5,0,0.8,0.1,0.9,0.3c0.1,0.1,0.2,0.4,0.2,0.7V28
			l-4.4-5.5h-3.2v0.2c0.3,0,0.5,0,0.5,0C53.1,22.7,53.2,22.8,53.3,23z"/>
		<path class="st1" d="M63.9,22.8h0.7v6.6c0,0.4-0.1,0.7-0.2,0.9c-0.1,0.2-0.5,0.2-0.9,0.2v0.2H68v-0.2c-0.5,0-0.8-0.1-0.9-0.2
			c-0.2-0.1-0.2-0.4-0.2-0.9v-6.6h0.7c1.1,0,1.6,0.5,1.7,1.7h0.2v-2h-7.5v2h0.2C62.2,23.4,62.8,22.8,63.9,22.8z"/>
		<path class="st1" d="M71,23.8v5.6c0,0.4-0.1,0.7-0.2,0.8c-0.1,0.2-0.5,0.3-0.9,0.3v0.2H77l0.4-2.4h-0.2c-0.2,0.7-0.5,1.2-0.9,1.6
			c-0.4,0.4-0.9,0.5-1.6,0.5h-0.7c-0.4,0-0.6-0.1-0.7-0.2c-0.1-0.1-0.1-0.3-0.1-0.7v-2.8h0.3c0.8,0,1.3,0.6,1.3,1.8h0.2v-4H75
			c-0.1,1.2-0.6,1.8-1.5,1.8h-0.2v-3.6h1.5c1.1,0,1.8,0.6,1.9,1.8h0.2v-2.2h-7.1v0.2c0.5,0,0.8,0.1,1,0.2C70.9,23,71,23.3,71,23.8z"
			/>
		<path class="st1" d="M84.9,27.7h-0.2c-0.4,1.8-1.2,2.7-2.4,2.7h-0.1c-0.4,0-0.6-0.1-0.7-0.1c-0.1-0.1-0.1-0.3-0.1-0.6v-5.8
			c0-0.5,0.1-0.8,0.2-0.9c0.1-0.2,0.5-0.2,1-0.2v-0.2h-4.8v0.2c0.5,0,0.9,0.1,1,0.2C79,23,79,23.3,79,23.8v5.6
			c0,0.4-0.1,0.7-0.2,0.9c-0.2,0.2-0.5,0.3-1,0.2v0.2h6.9L84.9,27.7z"/>
		<path class="st1" d="M92.3,27.7h-0.2c-0.4,1.8-1.2,2.7-2.4,2.7h-0.1c-0.4,0-0.6-0.1-0.7-0.1c-0.1-0.1-0.2-0.3-0.2-0.6v-5.8
			c0-0.5,0.1-0.8,0.2-0.9c0.1-0.2,0.5-0.2,1-0.2v-0.2h-4.8v0.2c0.5,0,0.9,0.1,1,0.2c0.2,0.1,0.2,0.5,0.2,0.9v5.6
			c0,0.4-0.1,0.7-0.2,0.9c-0.2,0.2-0.5,0.3-1,0.2v0.2H92L92.3,27.7z"/>
		<path class="st1" d="M97.4,30.5c-0.5,0-0.8-0.1-0.9-0.3c-0.1-0.1-0.2-0.4-0.2-0.9v-5.6c0-0.5,0.1-0.8,0.2-0.9
			c0.1-0.1,0.4-0.2,0.9-0.2v-0.2h-4.6v0.2c0.5,0,0.8,0.1,1,0.2c0.1,0.1,0.2,0.5,0.2,0.9v5.6c0,0.4-0.1,0.7-0.2,0.9
			c-0.2,0.2-0.5,0.2-1,0.2v0.2h4.6V30.5z"/>
		<path class="st1" d="M99.5,29.7c0.8,0.8,1.9,1.2,3.3,1.2c1,0,2-0.2,3-0.7v-1.9c0-0.4,0.1-0.7,0.2-0.8c0.1-0.1,0.4-0.2,0.8-0.2
			v-0.2h-4.1v0.2c0.4,0,0.6,0.1,0.7,0.2c0.2,0.1,0.2,0.4,0.2,0.8v2.1c-0.4,0.1-0.6,0.1-0.9,0.1c-0.8,0-1.4-0.4-1.7-1.1
			c-0.2-0.6-0.4-1.4-0.4-2.6c0-1.2,0.1-2.1,0.4-2.8c0.3-0.8,1-1.3,1.8-1.3c0.6,0,1.1,0.2,1.6,0.6c0.5,0.4,0.8,0.9,1,1.6h0.2v-2.5
			h-0.2c0,0.3-0.2,0.5-0.5,0.5c-0.1,0-0.4-0.1-0.9-0.3c-0.5-0.2-1.1-0.3-1.6-0.3c-1.5,0-2.7,0.5-3.4,1.6c-0.6,0.8-0.9,1.7-0.9,2.7
			C98.2,27.9,98.6,28.9,99.5,29.7z"/>
		<path class="st1" d="M114,29.8c-0.4,0.4-1,0.5-1.6,0.5h-0.7c-0.3,0-0.6-0.1-0.7-0.2c-0.1-0.1-0.1-0.3-0.1-0.7v-2.8h0.3
			c0.8,0,1.2,0.6,1.3,1.8h0.2v-4h-0.2c-0.1,1.2-0.6,1.8-1.4,1.8H111v-3.6h1.4c1.2,0,1.8,0.6,2,1.8h0.2v-2.2h-7.1v0.2
			c0.5,0,0.8,0.1,1,0.2c0.1,0.1,0.2,0.4,0.2,0.9v5.6c0,0.4-0.1,0.7-0.2,0.8c-0.2,0.2-0.5,0.3-0.9,0.3v0.2h7.2l0.4-2.4h-0.2
			C114.7,29,114.5,29.5,114,29.8z"/>
		<path class="st1" d="M116.4,23l0.2,0.3v6.2c0,0.6-0.4,1-1,1.1v0.2h2.6v-0.2c-0.5,0-0.7-0.1-0.9-0.3c-0.2-0.2-0.2-0.4-0.2-0.9v-5.7
			l5.7,7.1h0.8v-7.2c0-0.3,0.1-0.6,0.2-0.7c0.2-0.2,0.4-0.2,0.8-0.3v-0.2h-2.5v0.2c0.4,0,0.8,0.1,0.9,0.3c0.1,0.1,0.2,0.4,0.2,0.7
			V28l-4.4-5.5h-3.2v0.2c0.3,0,0.5,0,0.5,0C116.2,22.7,116.3,22.8,116.4,23z"/>
		<path class="st1" d="M127,22.8h0.7v6.6c0,0.4-0.1,0.7-0.2,0.9c-0.2,0.2-0.5,0.2-0.9,0.2v0.2h4.5v-0.2c-0.5,0-0.8-0.1-0.9-0.2
			c-0.1-0.1-0.2-0.4-0.2-0.9v-6.6h0.7c1.1,0,1.6,0.5,1.7,1.7h0.2v-2h-7.5v2h0.2C125.4,23.4,125.9,22.8,127,22.8z"/>
		<path class="st1" d="M143,22.5h-4.7v0.2c0.5,0,0.8,0,1,0.2c0.1,0.1,0.2,0.4,0.2,0.8v5.8c0,0.4-0.1,0.7-0.2,0.8
			c-0.2,0.2-0.5,0.3-1,0.3v0.2h4.6c1.4,0,2.4-0.4,3.2-1.2c0.7-0.7,1-1.7,1-2.9c0-1.3-0.4-2.3-1.3-3.1
			C145.1,22.8,144.1,22.5,143,22.5z M144,29.5c-0.3,0.5-0.9,0.8-1.6,0.8c-0.2,0-0.4,0-0.5-0.1c-0.1-0.1-0.1-0.3-0.1-0.6v-6.8h0.5
			c1.5,0,2.2,1.4,2.2,4.1C144.5,28.1,144.3,29,144,29.5z"/>
		<path class="st1" d="M148.6,30.3c-0.1,0.2-0.5,0.3-0.9,0.3v0.2h7.2l0.4-2.4h-0.2c-0.2,0.7-0.4,1.2-0.9,1.6c-0.4,0.4-1,0.5-1.6,0.5
			h-0.7c-0.4,0-0.6-0.1-0.7-0.2c-0.1-0.1-0.1-0.3-0.1-0.7v-2.8h0.3c0.8,0,1.3,0.6,1.3,1.8h0.2v-4h-0.2c-0.1,1.2-0.6,1.8-1.4,1.8
			h-0.2v-3.6h1.5c1.1,0,1.8,0.6,2,1.8h0.2v-2.2h-7.1v0.2c0.5,0,0.8,0.1,1,0.2c0.1,0.1,0.2,0.4,0.2,0.9v5.6
			C148.8,29.8,148.7,30.1,148.6,30.3z"/>
		<path class="st1" d="M156.7,23.6l2.9,7.2h0.5l2.8-7.2c0.2-0.6,0.6-0.9,1.1-1v-0.2h-2.4v0.2c0.3,0,0.6,0.1,0.7,0.1
			c0.1,0.1,0.2,0.2,0.2,0.4c0,0.1,0,0.3-0.1,0.5l-1.6,4.1l-1.7-4.2c-0.1-0.2-0.1-0.3-0.1-0.4c0-0.2,0.1-0.3,0.2-0.4
			c0.1-0.1,0.3-0.1,0.6-0.1v-0.2h-4.1v0.2c0.3,0,0.5,0.1,0.6,0.2C156.4,23,156.6,23.3,156.7,23.6z"/>
		<path class="st1" d="M165.5,23.8v5.6c0,0.4-0.1,0.7-0.2,0.8c-0.1,0.2-0.5,0.3-0.9,0.3v0.2h7.2l0.4-2.4h-0.2
			c-0.2,0.7-0.4,1.2-0.9,1.6c-0.4,0.4-1,0.5-1.6,0.5h-0.7c-0.4,0-0.6-0.1-0.7-0.2c-0.1-0.1-0.1-0.3-0.1-0.7v-2.8h0.3
			c0.8,0,1.2,0.6,1.3,1.8h0.2v-4h-0.2c-0.1,1.2-0.6,1.8-1.4,1.8h-0.3v-3.6h1.5c1.1,0,1.8,0.6,2,1.8h0.2v-2.2h-7.1v0.2
			c0.5,0,0.8,0.1,1,0.2C165.4,23,165.5,23.3,165.5,23.8z"/>
		<path class="st1" d="M179.4,27.7h-0.2c-0.4,1.8-1.2,2.7-2.4,2.7h-0.1c-0.3,0-0.6-0.1-0.7-0.1c-0.1-0.1-0.2-0.3-0.2-0.6v-5.8
			c0-0.5,0.1-0.8,0.2-0.9c0.1-0.2,0.5-0.2,1-0.2v-0.2h-4.8v0.2c0.5,0,0.9,0.1,1,0.2c0.2,0.1,0.2,0.5,0.2,0.9v5.6
			c0,0.4-0.1,0.7-0.2,0.9c-0.2,0.2-0.5,0.3-1,0.2v0.2h6.9L179.4,27.7z"/>
		<path class="st1" d="M184.7,30.8c1.6,0,2.8-0.5,3.6-1.5c0.6-0.8,0.9-1.7,0.9-2.8c0-1.2-0.4-2.2-1.1-2.9c-0.8-0.8-1.9-1.3-3.4-1.3
			c-1.5,0-2.6,0.4-3.4,1.3c-0.7,0.8-1,1.7-1,2.9c0,1.1,0.3,2,0.9,2.8C181.9,30.3,183.1,30.8,184.7,30.8z M183.3,23.8
			c0.3-0.7,0.8-1,1.4-1c1.2,0,1.8,1.3,1.8,3.9c0,1.1-0.1,1.9-0.4,2.6c-0.3,0.8-0.8,1.2-1.5,1.2c-0.7,0-1.1-0.4-1.5-1.2
			c-0.2-0.7-0.4-1.5-0.4-2.6C182.9,25.3,183,24.4,183.3,23.8z"/>
		<path class="st1" d="M195.1,30.5c-0.6,0-0.9-0.1-1.1-0.3c-0.1-0.1-0.2-0.4-0.2-0.8v-2.6h1.3c1,0,1.7-0.2,2.2-0.7
			c0.4-0.4,0.7-0.9,0.7-1.5c0-0.6-0.2-1.1-0.7-1.5c-0.5-0.4-1.2-0.6-2-0.6h-4.9v0.2c0.4,0,0.7,0.1,0.9,0.2c0.1,0.1,0.2,0.4,0.2,0.7
			v5.9c0,0.4-0.1,0.6-0.2,0.8c-0.2,0.2-0.5,0.2-0.9,0.2v0.2h4.7V30.5z M193.8,22.8c0.6,0,1,0.1,1.2,0.3c0.3,0.3,0.5,0.8,0.5,1.6
			c0,0.7-0.1,1.2-0.4,1.5c-0.3,0.3-0.7,0.4-1.3,0.4V22.8z"/>
		<path class="st1" d="M200.1,23.8v5.6c0,0.4-0.1,0.7-0.2,0.8c-0.1,0.2-0.5,0.3-0.9,0.3v0.2h7.2l0.4-2.4h-0.2
			c-0.1,0.7-0.4,1.2-0.9,1.6c-0.4,0.4-1,0.5-1.6,0.5h-0.7c-0.4,0-0.6-0.1-0.7-0.2c-0.1-0.1-0.1-0.3-0.1-0.7v-2.8h0.3
			c0.8,0,1.3,0.6,1.3,1.8h0.2v-4h-0.2c-0.1,1.2-0.6,1.8-1.4,1.8h-0.2v-3.6h1.5c1.1,0,1.8,0.6,2,1.8h0.2v-2.2h-7.1v0.2
			c0.5,0,0.9,0.1,1,0.2C200,23,200.1,23.3,200.1,23.8z"/>
		<path class="st1" d="M215.1,29.8l-1.8-3.1c1.1-0.4,1.6-1.1,1.6-2.1c0-1.5-1-2.2-2.9-2.2h-5v0.2c0.5,0,0.8,0.1,0.9,0.2
			c0.1,0.1,0.2,0.4,0.2,0.7v6c0,0.3-0.1,0.6-0.2,0.7c-0.2,0.2-0.5,0.2-0.9,0.2v0.2h4.5v-0.2c-0.5,0-0.8-0.1-1-0.3
			c-0.1-0.1-0.2-0.4-0.2-0.8v-2.5h0.4l2.2,3.8h2.9v-0.2C215.6,30.5,215.3,30.3,215.1,29.8z M211,26.5h-0.6v-3.7h0.7
			c1,0,1.5,0.6,1.5,1.8C212.6,25.9,212.1,26.5,211,26.5z"/>
		<path class="st1" d="M111.8,65.2l-27.9,0V36.2h27.9V65.2z M107.6,48.3v-8.2H88.2v8.2H107.6z M107.6,60.1V53H88.2v7.1H107.6z"/>
		<path class="st1" d="M79.8,39.5c1.1,0,1.6-0.1,1.6-0.4c0-0.3-0.3-0.6-0.4-0.7l-2.2-2.6c-3.3,1.3-10.5,1.7-10.9,1.6l-2.3-0.1
			c0.2,3.9,0.2,8.6,0.2,9.7c0,10.7-1.4,14.2-4.5,17.8l4.4,1.3c3.1-4.8,4-8.4,4.4-17.1h3.8v16.8h4.6V49h2.5v-3.9H70.2
			c0-1.5,0-3.2,0-4.5C74,40.3,77.9,40,79.8,39.5z"/>
		<path class="st1" d="M58.9,53.6h4.4v-3.5H57v-1.8h6.4V45h-2.6l0.4-4h2.3v-3.2h-6v-2.5h-4.1v2.5h-6.1V41h2l-0.1,4h-2v3.3h6v1.8
			h-5.7v3.5h4.3c-1.3,3-3.1,4.6-5.3,6.7v6c2.4-2.8,5.9-5.9,6.6-7.2h0.1V66H57v-6.5l0.1-2.8c0.5,0.8,6,6,5.4,5.7v-5.2
			C62.5,57.1,60.3,55.5,58.9,53.6z M57,45h-4l0-4h4.5L57,45z"/>
		<path class="st1" d="M147.2,61.5v-5.2c-3.8-2.9-8.5-7.9-10.9-13.5h11.2v-4.3h-13.7v-4.2h-4.3v4.2h-13.9v4.3H127
			c-2.4,5.7-7.2,10.7-11,13.6v5.2c3.7-2.2,9.8-7.4,13.5-14.1v9.8h-6.2v4.3h6.2v4.5h4.3v-4.5h5.8v-4.3h-5.8v-9.8
			C137.5,54.1,143.5,59.3,147.2,61.5z"/>
		<path class="st1" d="M179.8,49.1v-5.1h2.5v-3h-2.5v-4.6h-7.6v-1.9h-4v1.9h-5.8v3.2h5.8V41h-7.6v3h7.6v1.9h-6v3.2h6v1.5h-6v3.1h6
			v1.8h-7.4v3.4h7.4v2h4v-2h9.3v-3.4h-9.3v-1.8h7.4v-3.1h-7.4v-1.5H179.8z M172.2,39.7h3.6v1.4h-3.6V39.7z M172.2,44.1h3.6v1.9h-3.6
			V44.1z"/>
		<path class="st1" d="M169.4,61.4c-8.1,0-10-0.8-11.9-2.4c1.6-3.7,2.7-7,3.1-13.5h-3.7c0.8-1.3,2.2-5.4,3.7-9.7l-2.1,0.1h-7.3v3.3
			h3.3c-0.6,2.2-2,7.2-4.2,9.9l3.4,0.2h2.9c-0.3,2.1-0.5,3.6-1.3,5.5c-0.1,0.5-0.6,1.5-0.7,1.9c-1.8-1.2-2.8-2.7-3.5-4.1v6.2
			c0.8,0.7,1.3,1.3,1.7,1.8c-1.1,1.8-1.7,3.2-3.6,4.7h5.6c0.5-0.6,0.8-1.5,1.3-2.3c3.4,2.7,7.2,2.5,12.3,2.7h11.8l2.1-4.4
			C178.8,61.4,172.8,61.4,169.4,61.4z"/>
		<rect x="185.2" y="35.2" class="st1" width="9.3" height="3.3"/>
		<rect x="185.1" y="45.1" class="st1" width="9.8" height="3.1"/>
		<rect x="185" y="49.6" class="st1" width="10" height="3.1"/>
		<rect x="183.3" y="40.3" class="st1" width="13.4" height="3.1"/>
		<path class="st1" d="M184.5,66H196V55h-11.5V66z M188.4,58.6h3.6v3.5h-3.6V58.6z"/>
		<polygon class="st1" points="213.8,42.4 213.8,37.3 213.8,35.2 211.6,35.2 201.4,35.2 199.3,35.2 199.3,37.3 199.3,46.6 
			203.6,46.6 203.6,39.5 209.5,39.5 209.5,44.6 209.5,46.7 211.6,46.7 215.9,46.7 215.9,42.4 		"/>
		<path class="st1" d="M210.5,60c0.1-0.1,0.1-0.1,0.2-0.2c3-3,4.7-6.3,4.7-9.3v-2.2h-2.1h-14.8v4.3h12.1c-0.7,1.6-2,3.2-3.6,4.7
			c-0.8-0.8-1.5-1.8-2-2.8h-4.6c0.6,2,1.7,3.8,3.1,5.3c-1.7,1-3.4,1.6-4.9,1.6v4.3c2.5,0,5.6-1.1,8.4-3c2.9,1.8,6.1,2.9,9,2.9v-4.3
			C214.3,61.5,212.3,60.9,210.5,60z"/>
	</g>
</g>
<g>
	<path class="st2" d="M4.1,9.6L3.5,9.9l-3-4.7l3-4.7l0.6,0.3L1.3,5.2L4.1,9.6z"/>
	<path class="st2" d="M8.7,6C8.5,8,8,9.2,5.6,9.8C5.5,9.6,5.3,9.3,5.1,9.2C7.4,8.7,7.8,7.7,8,6H8.7z M9.2,2.4H5.3V1.7h3.9v-1H10v1h4
		v0.7h-4v1h3.1V4H6.3V3.3h3V2.4z M13,6.7V5.5H6.3v1.2H5.6V4.8h8.1v1.9H13z M12.9,8.9c0.4,0,0.4-0.2,0.5-1.3c0.2,0.1,0.5,0.2,0.7,0.3
		C14,9.3,13.8,9.6,13,9.6h-1.5c-0.9,0-1.1-0.2-1.1-1V6h0.7v2.6c0,0.3,0.1,0.3,0.5,0.3H12.9z"/>
	<path class="st2" d="M24.1,8.7v0.7h-8.8V8.7h4V6.3h-3.1V5.6h3.1V3.4h-3.5V2.7h4.4c-0.4-0.5-1.1-1.1-1.7-1.5L19,0.7
		c0.6,0.5,1.4,1.1,1.8,1.6l-0.5,0.3h3.2v0.7H20v2.2h3.1v0.7H20v2.4H24.1z"/>
	<path class="st2" d="M27.2,4.2c0.6,0,1.1,0.5,1.1,1.1s-0.5,1.1-1.1,1.1s-1.1-0.5-1.1-1.1S26.6,4.2,27.2,4.2z"/>
	<path class="st2" d="M33.8,2.9h-3.8V2.3h3.8V2.9z M33.5,9.2h-2.3v0.5h-0.7V6.3h3V9.2z M30.6,3.7h3v0.6h-3V3.7z M30.6,5h3v0.6h-3V5z
		 M33.5,1.6h-2.9V1h2.9V1.6z M31.2,7v1.7h1.7V7H31.2z M35.3,2.2c0,0.9-0.2,1.9-1.3,2.6c-0.1-0.1-0.4-0.4-0.5-0.5
		c1-0.6,1.1-1.4,1.1-2.1V1h3.1v2.4c0,0.2,0,0.3,0.2,0.3h0.5c0.2,0,0.2-0.1,0.2-1.1c0.1,0.1,0.4,0.2,0.6,0.3
		c-0.1,1.2-0.2,1.5-0.8,1.5h-0.7c-0.6,0-0.8-0.2-0.8-0.9V1.7h-1.7V2.2z M38.7,5.1c-0.3,1.2-0.9,2.2-1.7,2.9c0.7,0.5,1.4,0.9,2.3,1.1
		c-0.2,0.1-0.4,0.4-0.5,0.6c-0.9-0.3-1.7-0.7-2.4-1.2c-0.7,0.6-1.6,1-2.5,1.2c-0.1-0.2-0.3-0.5-0.4-0.6c0.8-0.2,1.7-0.6,2.4-1.1
		c-0.6-0.6-1.1-1.3-1.4-2.2l0.7-0.2c0.3,0.7,0.7,1.4,1.3,1.9c0.6-0.5,1-1.2,1.3-1.9H34V5h4.1l0.1,0L38.7,5.1z"/>
	<path class="st2" d="M44,2.9h-3.9V2.3H44V2.9z M43.6,9.2h-2.4v0.5h-0.7V6.3h3.1V9.2z M40.6,3.7h3.1v0.6h-3.1V3.7z M40.6,5h3.1v0.6
		h-3.1V5z M43.6,1.6h-3V1h3V1.6z M41.2,7v1.7h1.7V7H41.2z M49.3,4.8h-2.2v5h-0.7v-5H44V4.1h2.3V0.7h0.7v3.4h2.2V4.8z"/>
	<path class="st2" d="M52.2,4.2c0.6,0,1.1,0.5,1.1,1.1s-0.5,1.1-1.1,1.1s-1.1-0.5-1.1-1.1S51.6,4.2,52.2,4.2z"/>
	<path class="st2" d="M58.7,4.4c0,0,0,0.2,0,0.3c-0.1,3.3-0.1,4.4-0.4,4.8c-0.2,0.2-0.3,0.3-0.6,0.3c-0.2,0-0.6,0-1.1,0
		c0-0.2-0.1-0.5-0.2-0.7c0.4,0,0.8,0,0.9,0c0.2,0,0.2,0,0.3-0.1C57.9,8.8,58,7.8,58,5h-1.2c-0.1,1.9-0.4,3.6-1.3,4.8
		c-0.1-0.2-0.4-0.4-0.6-0.5c1-1.4,1.2-3.9,1.2-6.3h-1.1V2.3h1.8V0.7h0.7v1.6h1.7V3h-2.4c0,0.5,0,0.9,0,1.4H58.7z M60.3,2.8
		c-0.3,0.6-0.6,1.2-1,1.6c-0.1-0.1-0.4-0.4-0.6-0.5c0.7-0.7,1.2-1.9,1.5-3.2L61,0.8c-0.1,0.4-0.2,0.8-0.4,1.2h3.6v0.7H60.3z
		 M63.1,9.1c0.4,0,0.5-0.2,0.6-1.1c0.2,0.1,0.4,0.2,0.6,0.3c-0.1,1.2-0.3,1.5-1.1,1.5h-2c-1,0-1.3-0.2-1.3-1.1V6.2l-0.6,0.3
		l-0.3-0.6l0.9-0.4V3.9h0.7v1.2l0.9-0.4V3.1h0.6v1.3l1.1-0.5l0.1-0.1l0.1-0.1l0.5,0.2l0,0.1c0,1.4,0,2.7-0.1,3
		c0,0.3-0.2,0.5-0.4,0.5c-0.2,0.1-0.5,0.1-0.8,0.1c0-0.2-0.1-0.4-0.2-0.6c0.2,0,0.4,0,0.5,0c0.1,0,0.2,0,0.2-0.2c0-0.1,0-1,0-2.2
		l-1.1,0.5v3h-0.6V5.4l-0.9,0.4v2.8c0,0.4,0.1,0.5,0.6,0.5H63.1z"/>
	<path class="st2" d="M74.1,8.3V9h-8.9V8.3h4V2.6h-3.5V1.8h7.9v0.8H70v5.7H74.1z"/>
	<path class="st2" d="M77.2,4.2c0.6,0,1.1,0.5,1.1,1.1s-0.5,1.1-1.1,1.1s-1.1-0.5-1.1-1.1S76.6,4.2,77.2,4.2z"/>
	<path class="st2" d="M81.8,7.7c-0.3,0.8-0.7,1.6-1.2,2.1c-0.1-0.1-0.4-0.3-0.6-0.4c0.5-0.5,0.8-1.2,1-1.9L81.8,7.7z M83.5,7.3h-3
		V1.1h3V7.3z M82.9,1.7h-1.6v1.3h1.6V1.7z M82.9,3.5h-1.6v1.3h1.6V3.5z M82.9,5.4h-1.6v1.3h1.6V5.4z M82.9,7.5
		c0.3,0.4,0.6,0.9,0.7,1.2l-0.6,0.3c-0.1-0.3-0.4-0.9-0.7-1.3L82.9,7.5z M88.8,3.8c-0.2,1.7-0.8,3-1.4,4c0.5,0.6,1.2,1.1,1.9,1.4
		c-0.2,0.1-0.4,0.4-0.5,0.6c-0.8-0.4-1.4-0.8-1.9-1.5C86.4,9,85.7,9.4,85,9.8c-0.1-0.2-0.3-0.5-0.4-0.6c0.7-0.3,1.4-0.8,1.9-1.4
		c-0.6-0.9-1.1-2.1-1.3-3.4h-0.1v0.4c0,1.5-0.1,3.6-1.1,5c-0.1-0.1-0.4-0.3-0.6-0.4c0.9-1.3,1-3.2,1-4.6V1.2H89v0.7h-3.9v1.8h3.2
		l0.1,0L88.8,3.8z M85.8,4.4c0.2,1.1,0.6,2,1.1,2.8c0.5-0.8,0.9-1.7,1.1-2.8H85.8z"/>
	<path class="st2" d="M93.7,6c-0.2,2-0.7,3.2-3.2,3.8c-0.1-0.2-0.3-0.5-0.4-0.6C92.4,8.7,92.8,7.7,93,6H93.7z M94.2,2.4h-3.9V1.7
		h3.9v-1H95v1h4v0.7h-4v1h3.1V4h-6.8V3.3h3V2.4z M98,6.7V5.5h-6.7v1.2h-0.7V4.8h8.1v1.9H98z M97.9,8.9c0.4,0,0.4-0.2,0.5-1.3
		c0.2,0.1,0.5,0.2,0.7,0.3C99,9.3,98.8,9.6,98,9.6h-1.5c-0.9,0-1.1-0.2-1.1-1V6h0.7v2.6c0,0.3,0.1,0.3,0.5,0.3H97.9z"/>
	<path class="st2" d="M102.2,4.2c0.6,0,1.1,0.5,1.1,1.1s-0.5,1.1-1.1,1.1s-1.1-0.5-1.1-1.1S101.6,4.2,102.2,4.2z"/>
	<path class="st2" d="M114,2.3c-0.1,0.1-0.2,0.3-0.3,0.4c-0.4,0.7-1.3,2-2.5,2.8l-0.7-0.5c0.9-0.5,1.9-1.6,2.2-2.2H107
		c-0.4,0-0.7,0-1.1,0.1V1.8c0.3,0,0.8,0.1,1.1,0.1h5.7c0.2,0,0.5,0,0.7-0.1L114,2.3z M110,3.6c0,2.7-0.2,4.5-2.8,5.8l-0.7-0.6
		c0.3-0.1,0.6-0.3,0.9-0.4c1.5-0.9,1.8-2.4,1.8-4c0-0.2,0-0.5,0-0.7H110z"/>
	<path class="st2" d="M123.3,2.4c-0.1,0.1-0.1,0.3-0.2,0.5c-0.2,1-0.7,2.7-1.5,3.7c-0.9,1.2-2.1,2.1-3.9,2.7L117,8.5
		c1.9-0.5,3.1-1.3,3.9-2.4c0.7-0.9,1.2-2.3,1.3-3.3h-5.1c-0.4,0-0.7,0-1,0V2c0.3,0,0.7,0.1,1,0.1h5c0.2,0,0.3,0,0.5,0L123.3,2.4z"/>
	<path class="st2" d="M133.4,2.6c-0.1,0.1-0.2,0.4-0.2,0.5c-0.3,0.9-0.8,2-1.5,3c0.4,0.2,0.7,0.5,1,0.6l-0.5,0.7
		c-0.2-0.2-0.6-0.4-1-0.7c-0.9,1-2.2,2-3.9,2.7l-0.7-0.6c1.7-0.5,3-1.5,3.9-2.5c-0.8-0.5-1.6-1-2.2-1.3l0.5-0.6
		c0.6,0.3,1.4,0.8,2.2,1.2c0.6-0.8,1.1-1.9,1.3-2.7h-3.4c-0.6,0.9-1.5,1.9-2.6,2.6l-0.7-0.5c1.7-1.1,2.8-2.6,3.2-3.5
		c0.1-0.2,0.3-0.5,0.3-0.8l0.9,0.3c-0.2,0.3-0.3,0.6-0.4,0.8c-0.1,0.1-0.1,0.2-0.2,0.4h2.7c0.3,0,0.5,0,0.7-0.1L133.4,2.6z"/>
	<path class="st2" d="M135.7,4.7c0.3,0,0.8,0,1.4,0h5.5c0.5,0,0.9,0,1.1,0v1c-0.2,0-0.6,0-1.1,0h-5.5c-0.5,0-1.1,0-1.4,0V4.7z"/>
	<path class="st2" d="M153,3.3c0.4,0,0.8,0,0.9,0v0.8c-0.1,0-0.5,0-0.9,0h-1.1v0.3c0,2.7-0.6,4-2.9,5.1l-0.7-0.6
		c1.8-0.7,2.7-1.6,2.7-4.4V4.1h-2.8v1.6c0,0.4,0,0.8,0,0.9h-0.9c0-0.1,0-0.5,0-0.9V4.1h-1.1c-0.4,0-0.9,0-1,0V3.3
		c0.1,0,0.6,0.1,1,0.1h1.1V2.1c0-0.3,0-0.6,0-0.7h0.9c0,0.1,0,0.4,0,0.7v1.3h2.8V2.1c0-0.4,0-0.7,0-0.8h0.9c0,0.1,0,0.4,0,0.8v1.2
		H153z"/>
	<path class="st2" d="M155.7,4.7c0.3,0,0.8,0,1.4,0h5.5c0.5,0,0.9,0,1.1,0v1c-0.2,0-0.6,0-1.1,0h-5.5c-0.5,0-1.1,0-1.4,0V4.7z"/>
	<path class="st2" d="M167.4,7.6c0,0.5,0.2,0.6,0.7,0.7c0.3,0,0.8,0.1,1.3,0.1c1.1,0,2.6-0.1,3.4-0.3V9c-0.9,0.1-2.4,0.2-3.5,0.2
		c-0.6,0-1.2,0-1.6-0.1c-0.8-0.1-1.2-0.5-1.2-1.3V2.4c0-0.2,0-0.6-0.1-0.8h0.9c0,0.2,0,0.5,0,0.8v2.3c1.2-0.3,2.8-0.8,3.8-1.2
		c0.3-0.1,0.6-0.3,0.9-0.4l0.3,0.8c-0.3,0.1-0.6,0.3-0.9,0.4c-1.1,0.4-2.8,1-4.1,1.3V7.6z M172.2,2.8c-0.2-0.4-0.5-1-0.8-1.4
		l0.5-0.2c0.2,0.3,0.6,1,0.8,1.4L172.2,2.8z M173,0.8c0.3,0.4,0.7,1,0.8,1.4l-0.5,0.3c-0.2-0.4-0.5-1-0.8-1.4L173,0.8z"/>
	<path class="st2" d="M182.7,2.4c-0.1,0.1-0.2,0.3-0.3,0.4c-0.3,0.9-1,2-1.7,2.9c1,0.9,2.3,2.2,2.9,3l-0.7,0.6
		c-0.7-0.9-1.7-2.1-2.7-3c-1.1,1.1-2.4,2.2-3.9,2.9l-0.6-0.7c1.6-0.6,3.1-1.8,4.1-3c0.7-0.8,1.4-2,1.7-2.8h-3.9c-0.4,0-0.9,0-1,0.1
		V2c0.1,0,0.7,0.1,1,0.1h3.9c0.3,0,0.6,0,0.8-0.1L182.7,2.4z"/>
	<path class="st2" d="M185.2,9.6l2.8-4.4l-2.8-4.4l0.6-0.3l3,4.7l-3,4.7L185.2,9.6z"/>
</g>
</svg>
