<svg xmlns="http://www.w3.org/2000/svg" viewBox="0 0 345.92 67.93"><defs><style>.cls-1{fill:#404040;}</style></defs><g id="レイヤー_2" data-name="レイヤー 2"><g id="レイヤー_1-2" data-name="レイヤー 1"><path d="M4.83,6.92A7.75,7.75,0,0,1,8.34,6,2.42,2.42,0,0,1,11,8.44a2.5,2.5,0,0,1-2.7,2.45A2.89,2.89,0,0,1,5.83,9.45L6,9.26a3,3,0,0,0,2,.78A1.79,1.79,0,0,0,10,8.2c0-.95-.58-1.71-2-1.71a7.09,7.09,0,0,0-3.2,1.1c0,1.81.21,2.28.21,2.76s-.39,1.26-.83,1.26-.36-.43-.77-.82a10.84,10.84,0,0,0-1.34-1c-.38.36-.53.53-.74.53a.67.67,0,0,1-.46-.25.86.86,0,0,1-.27-.64C.64,9.07.72,9,1,9a1.08,1.08,0,0,0,.77-.17c.44-.26,1.44-1,2.34-1.55V4.9a8.09,8.09,0,0,1-1.42.22C2,5.12,1.46,5,1,3.71l.2-.16c.65.62.87.77,1.54.74A6.71,6.71,0,0,0,4.14,4c0-.91,0-1.73,0-2s-.08-.38-.29-.46A3.16,3.16,0,0,0,3,1.43L3,1.2A1.81,1.81,0,0,1,4,.9c.53,0,1.41.43,1.41.76s-.19.52-.28.94a7.49,7.49,0,0,0-.16,1.17C5.85,3.42,6.26,3,6.5,3s.72,0,.73.41c0,.23-.15.39-.44.54a15.4,15.4,0,0,1-1.91.71c0,.57,0,1.16,0,1.72ZM4.14,8a20,20,0,0,0-1.77,1.5c.47.23,1,.49,1.39.65s.38,0,.38-.25ZM8.08,2.59a4.07,4.07,0,0,1,1.76-.12,2.37,2.37,0,0,1,2,1.92c0,.3-.11.56-.42.59s-.47-.33-.87-.26a6.05,6.05,0,0,0-1,.36l-.14-.2a10,10,0,0,0,1-.72.32.32,0,0,0,0-.49A2.57,2.57,0,0,0,8.1,2.89Z"/><path d="M14.83,4.58v7.07c0,.13-.35.39-.82.39h-.18V.42l1.05.5h2.38l.51-.56,1.08.85a1,1,0,0,1-.48.22V5a1.45,1.45,0,0,1-.83.28h-.16V4.58Zm0-3.29V2.54h2.55V1.29ZM17.38,4.2V2.91H14.83V4.2ZM22,6.67a.86.86,0,0,1-.49.23V10a1.27,1.27,0,0,1-.82.32h-.17V9.55H17.6v.67a1.17,1.17,0,0,1-.84.31h-.15V5.94l1,.46h2.74l.51-.56Zm-1.48,2.5V6.76H17.6V9.17ZM25,1.22a.93.93,0,0,1-.54.25v9.2c0,.76-.17,1.19-1.48,1.3a.92.92,0,0,0-.29-.65A2.07,2.07,0,0,0,21.62,11v-.19s1.23.09,1.49.09.31-.09.31-.3v-6H20.77V4.9c0,.1-.43.31-.84.31H19.8V.47l1,.45h2.45l.5-.62Zm-4.21.07V2.54h2.65V1.29ZM23.42,4.2V2.91H20.77V4.2Z"/><path d="M33.25.42c0,.15-.21.22-.55.24a11.91,11.91,0,0,0,5.56,3.71v.18a1.28,1.28,0,0,0-.9.9A10.45,10.45,0,0,1,32.47.83a15.29,15.29,0,0,1-6.3,5.1l-.09-.18C28.29,4.48,30.85,1.86,31.52,0Zm2.06,6.17,1.21.94a1.08,1.08,0,0,1-.56.26v3.83a1.66,1.66,0,0,1-.91.3h-.17V11H29.46v.65a1.24,1.24,0,0,1-.91.34h-.17V6.71l1.16.5h5.2ZM34.07,4s.76.6,1.24,1c0,.15-.17.2-.35.2H29.2l-.1-.36h4.28Zm.81,6.7V7.59H29.46v3.07Z"/><path d="M46,1.23a2.47,2.47,0,0,1,.9-.27c.68,0,1.48.55,1.48.94,0,.22-.24.32-.27.79s-.05.85-.08,1.39A13.66,13.66,0,0,1,50,3.76c.58,0,1.13.23,1.13.7,0,.31-.22.4-.61.4a13.36,13.36,0,0,0-2,0L48,4.9a15.89,15.89,0,0,1-.26,2.6c-.13.61-.46,1-1,1a.46.46,0,0,1-.48-.33c-.19-.42-.78-.67-1.3-.91L45,7a8.13,8.13,0,0,0,1.47.32A.4.4,0,0,0,47,7a14.32,14.32,0,0,0,.18-2c-1.22.22-2.63.55-3.56.82C43.52,7,43.5,8.2,43.52,8.78c0,1.3.3,1.49,1.95,1.49a20.24,20.24,0,0,0,3.05-.35c.46,0,.88.18.88.56s-.17.41-.61.52a14.92,14.92,0,0,1-2.95.22c-2,0-3-.4-3.11-1.94,0-.73,0-1.95,0-3.16A18.27,18.27,0,0,1,40.34,7c-.38,0-.88-.47-1.09-1a1.84,1.84,0,0,1-.08-.73l.19-.08c.23.34.55.68.86.68a24.44,24.44,0,0,0,2.47-.55c0-.87,0-1.65,0-2.05s-.1-.46-.31-.55a2.5,2.5,0,0,0-.75-.14l0-.26a2.59,2.59,0,0,1,.94-.22c.59,0,1.44.5,1.44.87s-.22.31-.27.83c0,.27,0,.74-.08,1.29.91-.22,2.45-.59,3.56-.84,0-.75,0-1.75,0-2.28a.4.4,0,0,0-.35-.39A4.9,4.9,0,0,0,46,1.48Z"/><path d="M55.93,6.36c-.24.69-.76,2.12-.93,2.58a4,4,0,0,0-.18.93c0,.41.19.83.19,1.18s-.15.49-.45.49-.48-.22-.69-.53a5.84,5.84,0,0,1-.77-3.09,13.36,13.36,0,0,1,.61-3.6A7.57,7.57,0,0,0,54,2.74a2.39,2.39,0,0,0-.74-1.45l.19-.16a2.45,2.45,0,0,1,.77.4A2.35,2.35,0,0,1,55.19,3c0,.3-.19.55-.5,1.28a8.7,8.7,0,0,0-.89,3.44A2.56,2.56,0,0,0,54,9c.08.17.2.18.31,0,.29-.45,1-2.08,1.3-2.75Zm5.18-1.58c0,1.3.1,2.51.18,3.45a4.9,4.9,0,0,1,2.16,1.18,1.08,1.08,0,0,1,.41.76c0,.31-.14.49-.4.49s-.39-.17-.69-.44a5.59,5.59,0,0,0-1.41-1c0,.1,0,.21,0,.3,0,1.06-.66,1.75-2.3,1.75-1.16,0-2.12-.56-2.12-1.56S58.14,8,59.57,8a5.72,5.72,0,0,1,.85.05c0-.91-.12-2.21-.13-3.26a11.27,11.27,0,0,1-1.41.1,2.08,2.08,0,0,1-2.06-1.29L57,3.44a2.94,2.94,0,0,0,1.79.65A7.73,7.73,0,0,0,60.29,4V2.34c0-.36-.07-.43-.26-.49a4.75,4.75,0,0,0-.92-.16l0-.25a2.71,2.71,0,0,1,1-.32c.65,0,1.37.39,1.37.7a8.27,8.27,0,0,1-.21.91,9.53,9.53,0,0,0-.12,1l.59-.21c.66-.24.88-.39,1-.39.31,0,.77.17.77.47s-.2.4-.67.58a12.2,12.2,0,0,1-1.71.44Zm-.66,4.05a5.23,5.23,0,0,0-1.36-.16c-.78,0-1.61.33-1.61.92s.59.8,1.31.8c1.4,0,1.66-.51,1.66-1.51Z"/><path d="M66.69,0h4V.48H67.18V8.42h-.49Z"/><path d="M73.82,3a2,2,0,0,0,1.33.64A24,24,0,0,0,78,3.34a6.71,6.71,0,0,0,2.15-.64c.54,0,1.39.34,1.39.67s-.15.41-.54.46-2,.21-3.26.34c.44.2.79.45.79.71s-.18.46-.23.84c-.07.56-.16,1.65-.21,2.56,1-.08,1.89-.15,2.65-.19a7.2,7.2,0,0,0,.95-.17c.57,0,1.68.52,1.68,1a.41.41,0,0,1-.46.43A23.42,23.42,0,0,0,80.11,9a24.74,24.74,0,0,0-5.4.53,6.92,6.92,0,0,1-1.15.34c-.42,0-1.06-.64-1.22-.95a1.62,1.62,0,0,1-.16-.76L72.4,8a1.48,1.48,0,0,0,1.1.65c.44,0,2-.15,3.66-.31,0-.93.09-2.27.09-2.88a1.74,1.74,0,0,0-.37-1.2c-.87.13-1.53.26-1.88.26A1.21,1.21,0,0,1,74.15,4a2.91,2.91,0,0,1-.54-.9Z"/><path d="M89.14.92a2.88,2.88,0,0,1,.82,0c.61.09,1.38.52,1.38.78s-.17.35-.38.67-.3.48-.46.72h.19a18.35,18.35,0,0,0,2.5-.29c.35-.07.48-.32.71-.32s1.3.57,1.3,1-.44.39-.65.73a16.16,16.16,0,0,1-8.29,7.44l-.2-.27a17.27,17.27,0,0,0,7.42-7.7c.06-.17,0-.22-.13-.22a17.67,17.67,0,0,0-1.93.31,3,3,0,0,1-.73.17,1.2,1.2,0,0,1-.57-.31,12,12,0,0,1-4,3.38L86,6.75c2-1.52,3.9-4.16,3.9-4.93,0-.25-.34-.48-.78-.68Z"/><path d="M105,7.12a12.3,12.3,0,0,0,1.91-2.52c.1-.15,0-.25-.15-.22a33.39,33.39,0,0,0-3.72,1.13c-.06,1.09-.09,2.26-.09,3,0,1.09.18,1.2,1.65,1.2a11.5,11.5,0,0,0,2.69-.32c.42,0,1,.17,1,.56s-.26.42-.61.48a15.28,15.28,0,0,1-2.64.25c-2.13,0-2.92-.15-2.94-1.92,0-.86,0-2.09,0-3-.58.21-1.29.47-1.77.68s-.56.44-.95.44a2.19,2.19,0,0,1-1.27-1,1.71,1.71,0,0,1-.08-.77l.2-.07c.26.37.49.64.84.64a19.81,19.81,0,0,0,3-.77c0-1,.06-2.33,0-2.84,0-.33-.42-.42-1.06-.53V1.39a3.34,3.34,0,0,1,1-.22c.55,0,1.42.52,1.42.84s-.26.49-.32.91-.11,1-.16,1.81l3.39-1c.39-.11.52-.36.73-.36.43,0,1.41.78,1.41,1.14s-.45.37-.73.64a17.13,17.13,0,0,1-2.67,2.13Z"/><path d="M112.56,2.38a2.78,2.78,0,0,1,1-.3c.6,0,1.5.65,1.5,1s-.29.44-.33.86c-.08.7-.16,4.07-.16,5.27,0,.13,0,.17.16.15a20.42,20.42,0,0,0,7.23-4.7l.23.24a18.62,18.62,0,0,1-6.89,5.5c-.43.22-.44.54-.75.54s-1.11-.8-1.11-1.14.24-.42.25-.86c0-.9,0-4.72,0-5.69,0-.29-.13-.45-1.05-.64Z"/><path d="M134.82,3.28l.29.18a19.3,19.3,0,0,1-6.84,6.77c-.3.18-.45.53-.77.53a2.59,2.59,0,0,1-1.66-1.08,2.64,2.64,0,0,1-.26-.94l.19-.13c.37.4.8.84,1.23.84C128.11,9.45,133,6,134.82,3.28Zm-9-1.24c1.57.35,3.45,1.2,3.45,2.3a.56.56,0,0,1-.56.6c-.27,0-.48-.17-.8-.59a8.85,8.85,0,0,0-2.25-2Z"/><path d="M140.32,1.25a3.37,3.37,0,0,1,.92-.22c.58,0,1.55.53,1.55.87s-.25.37-.3.8a20.89,20.89,0,0,0-.12,2.21A10.46,10.46,0,0,1,145.59,6a1.35,1.35,0,0,1,.8,1.09.51.51,0,0,1-.52.56c-.54,0-.67-.53-1.5-1.22a9.21,9.21,0,0,0-2-1.08c0,1,0,3,0,4.34,0,.6,0,1,0,1.21,0,.44-.13.62-.48.62-.51,0-.77-.7-.77-1.3,0-.29.12-.56.17-1.07.1-1,.1-3,.1-3.92s0-2.52-.09-3.16c-.05-.41-.37-.52-1-.59Z"/><path d="M151,4.48l.11-.27a12.12,12.12,0,0,1,1.74.47c.84.3,1.43.78,1.43,1.36a.45.45,0,0,1-.46.49c-.47,0-.69-.5-1.34-1A9,9,0,0,0,151,4.48Zm9.82-.77.28.18A18.62,18.62,0,0,1,154,10.5c-.3.19-.44.55-.82.55a2.62,2.62,0,0,1-1.6-1,2.32,2.32,0,0,1-.28-1l.19-.12c.32.39.74.84,1.2.84C153.79,9.76,158.55,6.8,160.86,3.71Zm-8.11-1.79.13-.28a10.93,10.93,0,0,1,1.69.48c.89.38,1.39.8,1.39,1.36a.48.48,0,0,1-.46.51c-.43,0-.68-.52-1.37-1.09A8.76,8.76,0,0,0,152.75,1.92Z"/><path d="M164,4.28c.27.34.52.65.87.65.88,0,4.34-.52,6.54-.73A11.4,11.4,0,0,0,172.74,4c.61,0,1.39.33,1.39.75s-.1.39-.41.39S172.94,5,172.27,5s-1.6,0-2.7.14c.38.23.69.47.69.71s-.31.35-.5.8a8.71,8.71,0,0,1-4.53,5.1l-.25-.26a8.31,8.31,0,0,0,3.85-5.75.77.77,0,0,0-.18-.5c-1,.14-2.15.35-2.55.45A5.55,5.55,0,0,1,165,6a1.6,1.6,0,0,1-1.08-.92,1.83,1.83,0,0,1-.09-.71Zm1.92-2.77a2.2,2.2,0,0,0,1.32.47,11.38,11.38,0,0,0,2.37-.33c.75-.17.91-.38,1.16-.38.64,0,1.12.23,1.12.6,0,.21-.14.34-.56.42a24.86,24.86,0,0,1-4.06.53c-.7,0-1.07-.42-1.52-1.16Z"/><path d="M182.46,3.59a2.32,2.32,0,0,1,.77.08c.46.15,1,.65,1,1s-.21.26-.48.53-.83.91-1.44,1.48c.3.21.53.39.53.56s-.09.31-.1.57c-.06,1.4,0,2.84,0,3.37s-.15.61-.45.61-.65-.49-.65-.92c0-.18.07-.39.1-.72a24.65,24.65,0,0,0,.12-2.61,1.32,1.32,0,0,0-.09-.4A13.43,13.43,0,0,1,178,9.37l-.13-.2C180.47,7.66,183,4.9,183,4.3c0-.21-.3-.41-.58-.54Z"/><path d="M193.49,5.5c-.52.3-1.16.66-1.92,1.06v4.1c0,.81-.15,1.25-1.39,1.38a1.18,1.18,0,0,0-.25-.73,1.68,1.68,0,0,0-1-.36v-.2s1.1.08,1.34.08.27-.07.27-.25V7.08c-.39.21-.81.42-1.26.64a.5.5,0,0,1-.29.35l-.47-1.31c.41-.09,1.14-.29,2-.55V3.44h-1.72l-.1-.37h1.82v-3l1.47.16c0,.19-.16.32-.48.36v2.5h.28l.59-.81s.65.56,1,1c0,.14-.16.2-.34.2h-1.56V5.92c.61-.19,1.25-.38,1.88-.59Zm6.18,1.84s.79.6,1.24,1c0,.15-.16.21-.35.21H197.3v3.14a1,1,0,0,1-.84.31h-.17V8.59h-3.36l-.1-.37h3.46v-2h-2.5l-.1-.39h2.6v-2h-2.5l-.1-.39h2.6V1.52h-2.92l-.1-.36h5.55l.65-.87s.77.61,1.22,1c0,.15-.15.21-.33.21H197.3V3.46h1.26l.65-.83s.73.58,1.18,1c0,.14-.16.21-.35.21H197.3v2h1.27l.65-.82s.73.57,1.17,1c0,.14-.15.21-.33.21H197.3v2H199Z"/><path d="M204.85,6.54V7.66h7.07l.55-.56,1.08.87a.76.76,0,0,1-.51.19c-.14,2-.47,3.11-1,3.51a2.11,2.11,0,0,1-1.28.38.92.92,0,0,0-.2-.7,2.24,2.24,0,0,0-.93-.34v-.22c.38,0,1.09.1,1.34.1a.57.57,0,0,0,.41-.11A5.64,5.64,0,0,0,212,8h-5.16a.4.4,0,0,1-.33.19v2.14h2.08v-2l1.35.14c0,.14-.12.25-.37.29v2.09c0,.09-.44.28-.82.28h-.16v-.41h-5.13v.67c0,.11-.43.3-.8.3h-.17V8.32l1.3.13V1l1.12.48h1.76c.13-.43.29-1.06.39-1.51l1.59.31c-.06.2-.23.29-.49.29-.24.27-.59.62-.88.91h2.57l.54-.58,1.17.88a1,1,0,0,1-.54.27V5.25a1.29,1.29,0,0,1-.87.34H210V5h-5.15V6.16h7l.69-.87s.82.61,1.3,1a.32.32,0,0,1-.34.2Zm0,1.49v0c0,.12-.42.38-.87.38h-.13c0,.14-.12.25-.37.3v1.61h2.06V8Zm0-6.13V3.05H210V1.9ZM210,4.64V3.43h-5.15V4.64Z"/><path d="M215.54,7.9c.91,3.73-1.48,3.33-.77,2.24a3.72,3.72,0,0,0,.58-2.24Zm5.32-1.2a.8.8,0,0,1-.52.19c-.14,2.6-.48,3.89-1,4.36a1.88,1.88,0,0,1-1.22.37.84.84,0,0,0-.18-.61,1.71,1.71,0,0,0-.81-.31v-.21c.38,0,1,.08,1.2.08a.58.58,0,0,0,.44-.13c.31-.27.59-1.46.72-3.67h-3.11V7.2a.84.84,0,0,1-.74.3h-.15V.58l1,.45h2.67l.61-.74s.68.52,1.09.91c0,.13-.15.19-.34.19h-2.15v1.4h.76l.52-.66s.6.47,1,.83c0,.15-.16.21-.33.21h-1.92V4.59h.71l.53-.68s.6.48,1,.85a.31.31,0,0,1-.34.21h-1.88V6.41h1l.51-.53Zm-4.55,1.09c1.32,1.65.49,3.08-.07,2.39a6.73,6.73,0,0,0-.11-2.35Zm0-6.4v1.4h1.16V1.39Zm1.16,1.78h-1.16V4.59h1.16Zm-1.16,3.24h1.16V5h-1.16Zm.74,1.16c1.74,1.26,1,2.61.43,2a4.74,4.74,0,0,0-.61-1.95Zm.78-.29c1.91.57,1.34,1.94.69,1.47a2.8,2.8,0,0,0-.83-1.37Zm5.47-1.74c.55,2.4,1.77,4.52,3.6,5.38l0,.16a1.22,1.22,0,0,0-.86.95c-1.77-1.29-2.57-3.45-3-6.49h-.71c0,2.22-.38,4.77-2.46,6.51l-.19-.13c1.49-2,1.69-4.48,1.69-7V.6l1.14.47h2.52l.52-.59,1.15.87a.88.88,0,0,1-.54.26V6a1.38,1.38,0,0,1-.86.31h-.14V5.54Zm-1-.38h2.83V1.44h-2.83V5.16Z"/><path d="M238.5,1.63s.81.63,1.3,1.07c0,.15-.16.21-.34.21H227.89l-.12-.37h4.16a1,1,0,0,1-.31-.15A4.56,4.56,0,0,0,230.29.21l.14-.11c2.58.64,2.47,2.28,1.75,2.44h2.48A16,16,0,0,0,235.82.05l1.6.44c-.06.16-.21.26-.5.26a16.27,16.27,0,0,1-1.87,1.79h2.74Zm-5.93,2,1.18.89a1,1,0,0,1-.56.26v5.94c0,.74-.14,1.17-1.33,1.29a1.11,1.11,0,0,0-.19-.69,1.44,1.44,0,0,0-.83-.34v-.19s.89.08,1.12.08.23-.08.23-.25v-2H229.9v3c0,.12-.39.37-.82.37h-.17V3.8l1.06.45h2.09Zm-2.67,1V6.21h2.29V4.64Zm2.29,3.63V6.58H229.9V8.27Zm3.61,1.41c0,.11-.41.3-.79.3h-.18V4l1.46.16c0,.17-.15.31-.49.35Zm1.8-6,1.47.14c0,.18-.16.3-.47.34v6.49c0,.78-.17,1.22-1.52,1.35a1,1,0,0,0-.29-.69,2.45,2.45,0,0,0-1.13-.36v-.2s1.35.1,1.64.1.3-.07.3-.26Z"/><path d="M244.77,12.1h-4v-.47h3.53V3.69h.5Z"/><path d="M250.83.94a3.2,3.2,0,0,1,1,.28c.39.21.89.65.89.92s-.27.33-.46.62a14.64,14.64,0,0,1-.91,1.45,2,2,0,0,0,.46.07c.7,0,3.51-.41,4.22-.52s.69-.29.94-.29c.49,0,1.2.3,1.2.69s-.09.4-.54.4-1.21,0-1.82,0c-.43,0-1.14.1-1.82.18.57.25,1,.6,1,.83s-.26.37-.38.65a10.15,10.15,0,0,1-5.07,5.37l-.21-.23c2.56-1.69,4.29-4.6,4.29-5.88a.75.75,0,0,0-.37-.63c-.26,0-.49.06-.67.09a6.75,6.75,0,0,1-.87.14,1.42,1.42,0,0,1-.7-.4,11.82,11.82,0,0,1-3,2.71l-.2-.23c2-1.68,3.52-4.3,3.52-5.2,0-.3-.18-.51-.59-.86Zm5.19.2a4.66,4.66,0,0,1,1.45.81,1.08,1.08,0,0,1,.47.81.33.33,0,0,1-.36.36c-.21,0-.35-.26-.6-.57a6.48,6.48,0,0,0-1.12-1.2Zm1.22-.72a4.31,4.31,0,0,1,1.52.71,1,1,0,0,1,.47.81.33.33,0,0,1-.35.36c-.22,0-.37-.27-.64-.6A7.07,7.07,0,0,0,257.11.62Z"/><path d="M262.85,2.21c.23.33.51.77.95.77a29.43,29.43,0,0,0,3.94-.63c.28-.08.45-.36.67-.36.43,0,1.38.77,1.38,1.1s-.45.42-.62.67a21.34,21.34,0,0,1-2.11,2.88c2.12.86,4.18,2.24,4.18,3.44a.54.54,0,0,1-.54.57c-.4,0-.63-.41-1.25-1.16A10.21,10.21,0,0,0,266.75,7,15.32,15.32,0,0,1,261,10.86l-.18-.3a17.75,17.75,0,0,0,7.33-7.35c.06-.18,0-.22-.16-.19-.8.11-2.57.56-3.26.75-.42.12-.49.38-.83.38s-1-.63-1.13-1a2.51,2.51,0,0,1-.16-.85Z"/><path d="M276.9,1.25a3.37,3.37,0,0,1,.92-.22c.59,0,1.55.53,1.55.87s-.25.37-.3.8c-.08.59-.1,1.47-.12,2.21A10.63,10.63,0,0,1,282.18,6,1.36,1.36,0,0,1,283,7.11a.51.51,0,0,1-.52.56c-.53,0-.66-.53-1.5-1.22a9.21,9.21,0,0,0-2-1.08c0,1,0,3,0,4.34,0,.6,0,1,0,1.21,0,.44-.13.62-.48.62-.51,0-.77-.7-.77-1.3,0-.29.12-.56.17-1.07.11-1,.11-3,.11-3.92s0-2.52-.09-3.16c-.06-.41-.38-.52-1-.59Z"/><path d="M292.7,1.16a2.53,2.53,0,0,1,.87-.22c.64,0,1.42.54,1.42.87s-.25.23-.29.82,0,1.06,0,1.57c1.42-.13,1.55-.24,1.82-.24.6,0,1.37.29,1.37.75,0,.28-.13.36-.4.36s-.9-.14-2-.14l-.82,0c0,1.67-.12,3.25-.92,4.36a7,7,0,0,1-3.52,2.32l-.16-.27A6.82,6.82,0,0,0,292.92,9a8,8,0,0,0,.78-4c-.91.07-1.87.16-2.65.24,0,1,0,2.08,0,2.52s-.14.73-.45.73-.63-.61-.63-1a19.23,19.23,0,0,0,.23-2.12,14.93,14.93,0,0,0-1.5.29,4.51,4.51,0,0,1-.91.27c-.38,0-.9-.65-1-.92a2.09,2.09,0,0,1-.09-.78l.22-.07c.26.38.5.73.83.73.49,0,1.71-.14,2.48-.22a12,12,0,0,0-.1-1.92c-.06-.29-.36-.38-.92-.48V2a2,2,0,0,1,.81-.21c.44,0,1.3.41,1.3.81s-.18.29-.21.71c0,.24,0,.73,0,1.24l2.65-.26a18.5,18.5,0,0,0-.05-2.42c0-.3-.36-.37-.94-.45Z"/><path d="M301,2.83a2.88,2.88,0,0,1,1.64.65.13.13,0,0,1,0,.06c1.3-.08,4.23-.34,4.75-.42s.56-.38.84-.38,1.39.82,1.39,1.21-.42.43-.51.81c-.14.62-.41,2.2-.68,3.53.45,0,.82.25.82.54a.4.4,0,0,1-.44.44c-.34,0-1-.09-1.65-.09-1,0-2.71.09-4.22.19v.45c0,.33-.11.55-.45.55s-.63-.41-.63-1c0-.29.06-1,0-1.52a23.47,23.47,0,0,0-.36-3.73A2.05,2.05,0,0,0,300.81,3Zm6.5,5.48A41.17,41.17,0,0,0,308,4c0-.1,0-.15-.17-.15-.78,0-2.76.15-3.47.23-.42,0-.81.18-1.06.18a1.22,1.22,0,0,1-.54-.18c0,.89.13,3.25.17,4.54C304.25,8.51,306.23,8.36,307.46,8.31Z"/><path d="M323.44,3.28l.28.18a19.21,19.21,0,0,1-6.84,6.77c-.3.18-.45.53-.76.53a2.61,2.61,0,0,1-1.67-1.08,2.87,2.87,0,0,1-.26-.94l.2-.13c.36.4.79.84,1.22.84C316.73,9.45,321.58,6,323.44,3.28Zm-9-1.24c1.57.35,3.46,1.2,3.46,2.3a.56.56,0,0,1-.56.6c-.27,0-.48-.17-.81-.59a8.68,8.68,0,0,0-2.25-2Z"/><path d="M59.05,35.65c0-10.86,4.26-16.16,10.67-16.15s10.6,5.36,10.58,16.17S76,52.08,69.68,52.08,59,46.46,59.05,35.65Zm15.36,0c0-8.79-2-11.33-4.7-11.34S65,26.87,65,35.65s2,11.54,4.73,11.55S74.39,44.49,74.41,35.67Z"/><path d="M86.48,46.46h6.75l0-19.86H87.57V22.75a20.35,20.35,0,0,0,7.3-2.63H99.5l0,26.34h5.89v5.05l-18.87,0Z"/><path d="M110.67,47.93c8.53-7.62,13.59-13.51,13.59-18.35,0-3.18-1.73-5.09-4.7-5.1-2.29,0-4.2,1.48-5.77,3.22l-3.39-3.4c2.89-3.05,5.69-4.74,10-4.74,5.94,0,9.88,3.83,9.87,9.69,0,5.68-4.72,11.78-10.45,17.38,1.57-.17,3.65-.34,5.09-.34h6.83v5.26l-21,0Z"/><path d="M136.56,35.75c0-10.86,4.26-16.16,10.67-16.15s10.6,5.36,10.58,16.17-4.26,16.42-10.63,16.41S136.55,46.56,136.56,35.75Zm15.36,0c0-8.78-2-11.33-4.7-11.34s-4.75,2.54-4.76,11.32,2,11.55,4.73,11.55S151.9,44.59,151.92,35.77Z"/><path d="M162.61,37.22l11.58,0v4.45H162.6Z"/><path d="M178.94,35.8c0-10.86,4.26-16.15,10.67-16.15s10.6,5.36,10.58,16.18-4.26,16.41-10.62,16.4S178.93,46.62,178.94,35.8Zm15.36,0c0-8.78-2-11.33-4.7-11.33s-4.75,2.54-4.76,11.32,2,11.54,4.73,11.54S194.29,44.65,194.3,35.82Z"/><path d="M222.39,27a6.81,6.81,0,0,0-4.83-2.29c-3.6,0-6.58,2.7-6.84,10.55a9.08,9.08,0,0,1,6.45-3.34c5.26,0,9,3.15,9,9.89,0,6.45-4.51,10.47-9.86,10.47-6,0-11.27-4.81-11.26-15.88,0-11.71,5.84-16.71,12.16-16.7a11.64,11.64,0,0,1,8.52,3.57Zm-2,14.8c0-3.73-1.73-5.47-4.44-5.47-1.7,0-3.57.88-5.14,3.3.59,5.73,2.7,7.93,5.33,7.94C218.51,47.56,220.42,45.61,220.42,41.79Z"/><path d="M248.23,27a6.78,6.78,0,0,0-4.83-2.3c-3.61,0-6.58,2.71-6.85,10.55A9.17,9.17,0,0,1,243,31.94c5.26,0,9,3.15,9,9.9,0,6.44-4.52,10.47-9.86,10.46-6,0-11.28-4.81-11.26-15.88,0-11.71,5.83-16.71,12.15-16.7a11.61,11.61,0,0,1,8.52,3.58Zm-2,14.8c0-3.73-1.73-5.48-4.45-5.48-1.69,0-3.56.89-5.13,3.3.58,5.73,2.7,7.94,5.33,7.94C244.34,47.59,246.25,45.65,246.26,41.83Z"/><path d="M256.66,37.35h11.58v4.45H256.65Z"/><path d="M273,35.92c0-10.86,4.26-16.15,10.67-16.14S294.26,25.13,294.25,36,290,52.36,283.62,52.35,273,46.74,273,35.92Zm15.35,0c0-8.78-2-11.32-4.69-11.33s-4.76,2.54-4.77,11.32,2,11.54,4.74,11.55S288.34,44.77,288.35,35.94Z"/><path d="M313.23,25.63l-14.13,0V20.39l20.87,0v3.77c-7.3,8.9-8.29,15.31-8.81,27.61h-6.32C305.4,40.89,307.24,33.93,313.23,25.63Z"/><path d="M324.67,36c0-10.86,4.26-16.16,10.67-16.15S345.94,25.2,345.92,36s-4.26,16.41-10.62,16.4S324.66,46.81,324.67,36ZM340,36c0-8.78-2-11.33-4.7-11.33s-4.75,2.54-4.76,11.32,2,11.54,4.73,11.54S340,44.83,340,36Z"/><path d="M49.93,46.42a2.86,2.86,0,1,0,2.85,2.87A2.86,2.86,0,0,0,49.93,46.42Zm0,5.39a2.53,2.53,0,1,1,2.52-2.52A2.52,2.52,0,0,1,49.93,51.81Z"/><path d="M50.74,49a.94.94,0,0,0,.22-.61.85.85,0,0,0-.31-.73,1.21,1.21,0,0,0-.84-.26H48.73v3.77h.44V49.41h.49l1.1,1.72h.55l-1.2-1.82A1.13,1.13,0,0,0,50.74,49ZM49.18,49V47.73h.56c.51,0,.77.21.77.63a.66.66,0,0,1-.22.48.79.79,0,0,1-.56.19Z"/><path d="M11.49,45a5.67,5.67,0,0,0,5.63-5.86c0-3.07-3-5.52-5.61-7-2.59,1.46-5.62,3.9-5.62,7A5.65,5.65,0,0,0,11.49,45Z"/><path d="M34.33,45A5.65,5.65,0,0,0,40,39.12c0-3.06-3-5.52-5.61-7-2.59,1.46-5.62,3.91-5.62,7A5.65,5.65,0,0,0,34.33,45Z"/><path d="M0,26.52a26.09,26.09,0,0,1,11.54,2.62,24.6,24.6,0,0,1,11.31-2.59,24.49,24.49,0,0,1,11.29,2.62,26,26,0,0,1,11.56-2.59V21.94L0,21.88Z"/><path d="M42.56,39.2a8.49,8.49,0,0,1-8.42,8.4,8.37,8.37,0,0,1-8.26-8.43c0-3.61,2.61-6.47,5.43-8.35a21.94,21.94,0,0,0-8.44-1.67,21.72,21.72,0,0,0-8.43,1.65c2.81,1.89,5.41,4.75,5.4,8.37a8.38,8.38,0,0,1-8.29,8.4,8.54,8.54,0,0,1-8.46-8.43c0-3.61,2.8-6.47,5.63-8.35A23.33,23.33,0,0,0,0,29.13L0,51.7l45.7.06,0-22.57A23.36,23.36,0,0,0,37,30.82C39.84,32.72,42.57,35.58,42.56,39.2Z"/><path class="cls-1" d="M7.41,63.9A5.77,5.77,0,0,1,5.3,66.2a11.68,11.68,0,0,0,3.4.89,2.41,2.41,0,0,0-.41.64,10.68,10.68,0,0,1-3.67-1.14,12.29,12.29,0,0,1-3.7,1.14,2.38,2.38,0,0,0-.4-.61A12.47,12.47,0,0,0,4,66.2a6.4,6.4,0,0,1-1.85-1.89l.09,0h-.4v-.63h5l.14,0Zm-6.06,0H.71V62H2.17a6.6,6.6,0,0,0-.61-1.22l.59-.16a5.11,5.11,0,0,1,.65,1.2L2.26,62h4a11.48,11.48,0,0,0,.85-1.57l.69.22c-.25.45-.57.94-.84,1.35H8.53v1.86H7.86V62.6H1.35Zm6.66-4a47.25,47.25,0,0,1-7,.71A2,2,0,0,0,.8,60a48,48,0,0,0,6.74-.68ZM2.84,64.27a5.33,5.33,0,0,0,1.8,1.58,4.86,4.86,0,0,0,1.75-1.58Zm1.61-2.33A5.54,5.54,0,0,0,4,60.59l.62-.14a5.55,5.55,0,0,1,.48,1.33Z"/><path class="cls-1" d="M12.59,59.63a13.77,13.77,0,0,1-1,2v6.09h-.68v-5A9.7,9.7,0,0,1,10,63.81a5,5,0,0,0-.42-.68,10.06,10.06,0,0,0,2.33-3.71Zm5.34,2.45H16.77v4.74c0,.51-.14.72-.48.82a7.94,7.94,0,0,1-2,.11,3.61,3.61,0,0,0-.27-.67c.78,0,1.53,0,1.75,0s.28-.07.28-.28V62.08h-3.7V61.4h3.7V59.47h.69V61.4h1.16Zm-3.64,3.53A25.15,25.15,0,0,0,13,63.32l.59-.28c.48.71,1.08,1.67,1.38,2.23Z"/><path class="cls-1" d="M21.72,66h-2v.74h-.62V60h2.6Zm-2-5.38v2h1.34v-2Zm1.34,4.76V63.22H19.74v2.12Zm5-2.51v1h1.06v.61H26.05v2.46c0,.38-.11.59-.38.69a5.31,5.31,0,0,1-1.49.11A2.21,2.21,0,0,0,24,67.1c.57,0,1.08,0,1.22,0s.2,0,.2-.18V64.48H21.91v-.61h3.47v-1H21.87v-.6h2.3V61.06H22.26v-.61h1.91V59.36h.67v1.09h2v.61h-2v1.17h2.37v.6Zm-3,2a6.47,6.47,0,0,1,1.2,1.56l-.58.37a7.11,7.11,0,0,0-1.17-1.62Z"/><path class="cls-1" d="M29.1,62.89v4.86h-.68v-8h3.32v3.14Zm0-2.6v.76h2v-.76Zm2,2.07v-.81h-2v.81Zm0,4.54v.46h-.62V63.58h3.41V66.9Zm0-2.8V65h2.16V64.1Zm2.16,2.26v-.89H31.06v.89Zm2.73.49c0,.43-.1.66-.4.78a5.2,5.2,0,0,1-1.54.12,2.52,2.52,0,0,0-.24-.7c.56,0,1.12,0,1.28,0s.21-.06.21-.22V62.9H32.55V59.75H36Zm-2.74-6.56v.76h2v-.76Zm2,2.08v-.82h-2v.82Z"/><path class="cls-1" d="M38.35,61.36a.7.7,0,1,1,.7.69A.68.68,0,0,1,38.35,61.36Zm0,4.5a.7.7,0,1,1,.7.69A.68.68,0,0,1,38.35,65.86Z"/><path class="cls-1" d="M42.15,66.35h1.49v-5H42.45v-.54a4.09,4.09,0,0,0,1.4-.48h.64v6h1.35v.7H42.15Z"/><path class="cls-1" d="M46.88,63.66c0-2.34.82-3.47,2.11-3.47s2.09,1.14,2.09,3.47-.82,3.51-2.09,3.51S46.88,66,46.88,63.66Zm3.38,0c0-2-.51-2.79-1.27-2.79s-1.29.82-1.29,2.79S48.22,66.5,49,66.5,50.26,65.64,50.26,63.66Z"/><path class="cls-1" d="M53.13,61.36a.7.7,0,1,1,.7.69A.68.68,0,0,1,53.13,61.36Zm0,4.5a.7.7,0,1,1,.7.69A.68.68,0,0,1,53.13,65.86Z"/><path class="cls-1" d="M56.57,63.66c0-2.34.82-3.47,2.11-3.47s2.09,1.14,2.09,3.47-.82,3.51-2.09,3.51S56.57,66,56.57,63.66Zm3.38,0c0-2-.51-2.79-1.27-2.79s-1.29.82-1.29,2.79.51,2.84,1.29,2.84S60,65.64,60,63.66Z"/><path class="cls-1" d="M61.67,63.66c0-2.34.81-3.47,2.1-3.47s2.1,1.14,2.1,3.47-.82,3.51-2.1,3.51S61.67,66,61.67,63.66Zm3.38,0c0-2-.52-2.79-1.28-2.79s-1.29.82-1.29,2.79S63,66.5,63.77,66.5,65.05,65.64,65.05,63.66Z"/><path class="cls-1" d="M70.65,63.81a2.14,2.14,0,0,0-1.56-.75,2,2,0,0,0-1.74,1.21l-.65-.35a2.62,2.62,0,0,1,4.46-.62,2.12,2.12,0,0,0,1.56.75,2,2,0,0,0,1.74-1.21l.65.35a2.74,2.74,0,0,1-2.39,1.61A2.77,2.77,0,0,1,70.65,63.81Z"/><path class="cls-1" d="M76.3,66.35h1.5v-5H76.61v-.54A4.1,4.1,0,0,0,78,60.31h.64v6H80v.7H76.3Z"/><path class="cls-1" d="M81.58,66a1.53,1.53,0,0,0,1.13.51c.87,0,1.63-.72,1.69-2.81a2.07,2.07,0,0,1-1.55.83c-1.12,0-1.86-.72-1.86-2.12a2,2,0,0,1,1.93-2.18c1.3,0,2.26,1.06,2.26,3.2,0,2.73-1.17,3.78-2.44,3.78a2.17,2.17,0,0,1-1.62-.69Zm2.81-3c-.09-1.39-.6-2.12-1.47-2.12-.64,0-1.14.6-1.14,1.52s.41,1.5,1.21,1.5A1.78,1.78,0,0,0,84.39,63Z"/><path class="cls-1" d="M87.28,61.36a.7.7,0,1,1,.7.69A.69.69,0,0,1,87.28,61.36Zm0,4.5a.7.7,0,1,1,.7.69A.69.69,0,0,1,87.28,65.86Z"/><path class="cls-1" d="M90.73,63.66c0-2.34.81-3.47,2.1-3.47s2.1,1.14,2.1,3.47-.82,3.51-2.1,3.51S90.73,66,90.73,63.66Zm3.38,0c0-2-.52-2.79-1.28-2.79s-1.29.82-1.29,2.79.52,2.84,1.29,2.84S94.11,65.64,94.11,63.66Z"/><path class="cls-1" d="M95.82,63.66c0-2.34.82-3.47,2.11-3.47S100,61.33,100,63.66s-.82,3.51-2.09,3.51S95.82,66,95.82,63.66Zm3.38,0c0-2-.51-2.79-1.27-2.79s-1.29.82-1.29,2.79.51,2.84,1.29,2.84S99.2,65.64,99.2,63.66Z"/><path class="cls-1" d="M105.38,62.45a5.23,5.23,0,0,0,3.81,4.68,4.68,4.68,0,0,0-.45.62,5.81,5.81,0,0,1-3.73-4,5.72,5.72,0,0,1-3.6,4,4.37,4.37,0,0,0-.46-.56,5.32,5.32,0,0,0,3.71-4.74v-3h.72ZM103,61.35a4.21,4.21,0,0,1-1.28,2.83l-.59-.4a3.82,3.82,0,0,0,1.19-2.57Zm5.78.14A23.87,23.87,0,0,1,107.3,64l-.57-.27a14.5,14.5,0,0,0,1.33-2.57Z"/><path class="cls-1" d="M112,62.58a1,1,0,1,1-1,1A1,1,0,0,1,112,62.58Z"/><path class="cls-1" d="M118,61.85a7.56,7.56,0,0,1-2.92,5,2.76,2.76,0,0,0-.54-.54,6.22,6.22,0,0,0,2.61-3.94h-2.39V61.7h2.65l.14,0Zm4.75-.56a22.26,22.26,0,0,1-2.5,2.38,6.22,6.22,0,0,0,2.87,2.76,2.81,2.81,0,0,0-.51.62,7.45,7.45,0,0,1-3.42-4.21v3.94c0,.49-.13.71-.43.84a5.58,5.58,0,0,1-1.68.13,2.8,2.8,0,0,0-.28-.74c.66,0,1.25,0,1.44,0s.24-.07.24-.25V59.39h.71v1.66a11.24,11.24,0,0,0,.77,2.08,17.86,17.86,0,0,0,2.18-2.28Z"/><path class="cls-1" d="M132.21,67.42H128v.27h-.63V64.44a4.86,4.86,0,0,1-.6.6l-.23-.25V66h-1.75v.77h-.59V60h2.34v4.48a6.34,6.34,0,0,0,1.36-1.93h-1V62h1.71v-.67h-1.54v-.47h1.54V60.2h-1.7v-.5h2.3v2.8h-.85l.22.07a7,7,0,0,1-.35.66h1.31c.11-.24.21-.52.29-.73h-.25V62h1.75v-.67H129.7v-.47h1.61V60.2h-1.73v-.5h2.33v2.8h-1.77l.36.08-.34.65H132v.53h-2v.71h1.76v.47H130v.71h1.76v.48H130v.75h2.21Zm-7.45-6.88v2.07h1.14V60.54Zm1.14,4.84V63.21h-1.14v2.17Zm3.49-1.62H128v.71h1.42Zm0,1.18H128v.71h1.42ZM128,66.88h1.42v-.75H128Z"/><path class="cls-1" d="M137.54,66.84A8.57,8.57,0,0,0,139,67h2.36a2,2,0,0,0-.26.69H139c-1.9,0-3.27-.33-4.11-1.89a4.94,4.94,0,0,1-1.37,2.05,3.28,3.28,0,0,0-.56-.46,5.29,5.29,0,0,0,1.72-3.74l.7.07c-.06.43-.13.83-.22,1.22a2.76,2.76,0,0,0,1.69,1.77V62.8h-2.28v-.64h5.32v.64h-2.34v1.53h2.72V65h-2.72Zm-3.49-4.44h-.67v-2h3.45V59.37h.71v1.05H141v2h-.7V61.06h-6.26Z"/><path class="cls-1" d="M145.18,59.63a13.07,13.07,0,0,1-1,2v6.14h-.67V62.58a9.21,9.21,0,0,1-1.08,1.22,4.47,4.47,0,0,0-.41-.69,9.55,9.55,0,0,0,2.49-3.69Zm3.07,2.72a9.8,9.8,0,0,0,2.5,3.7,2.24,2.24,0,0,0-.51.55,11,11,0,0,1-2.38-3.69v4.84h-.67V63.1a10.32,10.32,0,0,1-2.39,3.53,4.26,4.26,0,0,0-.52-.52,9.26,9.26,0,0,0,2.55-3.76h-2.22v-.66h2.58v-2.2h.67v2.2h2.65v.66Z"/><path class="cls-1" d="M152.76,63.56a6.15,6.15,0,0,1,1.83-4.38l.55.29a5.73,5.73,0,0,0,0,8.17l-.55.29A6.11,6.11,0,0,1,152.76,63.56Z"/><path class="cls-1" d="M159.2,65.05c-.22-.28-.7-.8-1.1-1.2v3.9h-.67V64.21a8.23,8.23,0,0,1-1.31,1.12,3.7,3.7,0,0,0-.35-.62,8,8,0,0,0,2.73-3h-2.4v-.62h1.33V59.37h.67v1.71h.76l.11,0,.38.25a8.45,8.45,0,0,1-1.09,1.94c.4.34,1.17,1.05,1.36,1.26Zm4.47,2.07c.21,0,.25-.2.27-1.32a2.09,2.09,0,0,0,.57.26c0,1.27-.2,1.62-.77,1.62h-.8c-.64,0-.78-.2-.78-.88V63.53h-.9c-.1,2-.41,3.43-2,4.24a2.22,2.22,0,0,0-.44-.54c1.45-.68,1.68-1.89,1.76-3.7h-.9V60H164v3.56h-1.18V66.8c0,.28,0,.32.24.32Zm-3.33-4.21h3V60.59h-3Z"/><path class="cls-1" d="M172.35,60v7.62h-.71v-.56h-4.56v.59h-.69V60Zm-5.27.67v2.48h4.56V60.66Zm4.56,5.72V63.81h-4.56v2.57Z"/><path class="cls-1" d="M176.29,60.06a5.43,5.43,0,0,0-.16.61,22.88,22.88,0,0,0-.45,3.67,7.39,7.39,0,0,0,.09,1.24c.14-.41.36-1,.51-1.33l.39.31c-.23.63-.55,1.56-.65,2a1.87,1.87,0,0,0,0,.4c0,.1,0,.22,0,.32l-.66,0a11.17,11.17,0,0,1-.34-2.88,28.41,28.41,0,0,1,.41-3.82,3.74,3.74,0,0,0,.06-.65Zm5.92,6.62a7.09,7.09,0,0,0-1.37-1v.17a1.38,1.38,0,0,1-1.58,1.49c-1.22,0-1.89-.51-1.89-1.32s.68-1.38,1.87-1.38a3.84,3.84,0,0,1,.85.08c0-.7-.09-1.57-.1-2.33l-.87,0c-.51,0-1,0-1.52,0v-.7c.51.05,1,.08,1.54.08l.85,0V60.55a5.28,5.28,0,0,0,0-.55h.83c0,.18,0,.36-.05.54s0,.67,0,1.1a12.41,12.41,0,0,0,1.57-.21v.71a15.36,15.36,0,0,1-1.57.18c0,.91.07,1.82.11,2.58a6.12,6.12,0,0,1,1.79,1.18Zm-2.1-1.35a2.83,2.83,0,0,0-.93-.15c-.67,0-1.14.31-1.14.73s.44.71,1.09.71,1-.38,1-1C180.12,65.55,180.12,65.44,180.11,65.33Z"/><path class="cls-1" d="M186.48,60c-.27.76-.6,1.69-.91,2.42a2.79,2.79,0,0,1,.82,2,1.24,1.24,0,0,1-.36,1,1,1,0,0,1-.48.17,4,4,0,0,1-.61,0,1.37,1.37,0,0,0-.17-.61,2.41,2.41,0,0,0,.53,0,.59.59,0,0,0,.29-.07.82.82,0,0,0,.19-.63,2.6,2.6,0,0,0-.82-1.82c.26-.67.53-1.49.72-2.11h-1.2v7.37h-.61v-8h2.06l.11,0Zm1.41,5a6.85,6.85,0,0,1-1.33,2.21,4,4,0,0,0-.5-.41,5.06,5.06,0,0,0,1.22-1.94Zm1.4-5.58a8.42,8.42,0,0,0,2.7,2.53,3.72,3.72,0,0,0-.37.57A9.36,9.36,0,0,1,189,60a8.53,8.53,0,0,1-2.54,2.54,2.82,2.82,0,0,0-.36-.54,7.53,7.53,0,0,0,2.57-2.61Zm.06,5V67c0,.36-.07.56-.3.66a3.24,3.24,0,0,1-1.19.12,2.74,2.74,0,0,0-.23-.64c.43,0,.81,0,.93,0s.16,0,.16-.15V64.34h-2v-.59h2V62.61H187.3V62h3.53v.59h-1.48v1.14h2.19v.59Zm1.2.48a10.72,10.72,0,0,1,1.28,2l-.56.3A11.78,11.78,0,0,0,190,65.05Z"/><path class="cls-1" d="M198.74,60.3a7.06,7.06,0,0,0-.62.51c-.64.54-1.94,1.59-2.61,2.14s-.55.62,0,1.1c.82.66,2.5,2.06,3.39,2.94l-.66.6c-.18-.22-.43-.45-.62-.66-.5-.53-2-1.83-2.87-2.53s-.76-1.13.07-1.82c.68-.58,2-1.66,2.67-2.28a4.46,4.46,0,0,0,.52-.61Z"/><path class="cls-1" d="M204.27,63.56a6.11,6.11,0,0,1-1.83,4.37l-.55-.29a5.73,5.73,0,0,0,0-8.17l.55-.29A6.15,6.15,0,0,1,204.27,63.56Z"/></g></g></svg>