<svg xmlns="http://www.w3.org/2000/svg" xmlns:xlink="http://www.w3.org/1999/xlink" viewBox="0 0 390 127.06"><defs><style>.cls-1{fill:url(#新規グラデーションスウォ_29);}.cls-2{stroke:#fff;stroke-miterlimit:10;fill:url(#新規グラデーションスウォ_29-2);}.cls-3{fill:#fff;}</style><linearGradient id="新規グラデーションスウォ_29" y1="63.53" x2="390" y2="63.53" gradientUnits="userSpaceOnUse"><stop offset="0" stop-color="#de1575"/><stop offset="1" stop-color="#e55f9e"/></linearGradient><linearGradient id="新規グラデーションスウォ_29-2" x1="195" y1="122.61" x2="195" y2="4.44" gradientTransform="translate(131.47 258.53) rotate(-90)" xlink:href="#新規グラデーションスウォ_29"/></defs><title>button_index_top_nav_ul_li_02</title><g id="レイヤー_2" data-name="レイヤー 2"><g id="レイヤー_1-2" data-name="レイヤー 1"><rect class="cls-1" width="390" height="127.06" rx="15"/><rect class="cls-2" x="135.91" y="-127.03" width="118.17" height="381.11" rx="11" transform="translate(258.53 -131.47) rotate(90)"/><path class="cls-3" d="M135.19,28.35a7.87,7.87,0,0,1,3.51-.93,2.41,2.41,0,0,1,2.66,2.45,2.5,2.5,0,0,1-2.7,2.46,2.9,2.9,0,0,1-2.47-1.44l.21-.2a3,3,0,0,0,2,.78,1.78,1.78,0,0,0,2-1.83c0-.95-.58-1.72-2-1.72A7.11,7.11,0,0,0,135.2,29c.05,1.8.21,2.27.21,2.75S135,33,134.58,33s-.35-.42-.77-.81a10.83,10.83,0,0,0-1.34-1c-.38.37-.53.54-.74.54a.71.71,0,0,1-.46-.25.88.88,0,0,1-.27-.64c0-.35.08-.45.39-.43a1,1,0,0,0,.77-.17c.44-.26,1.44-1,2.34-1.54V26.34a8.09,8.09,0,0,1-1.42.22c-.69,0-1.26-.17-1.75-1.42l.2-.16c.65.63.88.77,1.54.75a7.4,7.4,0,0,0,1.43-.26c0-.91,0-1.73,0-2s-.08-.37-.29-.45a2.79,2.79,0,0,0-.84-.1l0-.24a1.9,1.9,0,0,1,1-.3c.53,0,1.42.43,1.42.77s-.2.52-.29.94a8.69,8.69,0,0,0-.16,1.17c.91-.36,1.32-.75,1.56-.75s.72,0,.73.42c0,.22-.15.39-.44.53a15.36,15.36,0,0,1-1.91.72c0,.57-.05,1.16-.05,1.71Zm-.69,1.11A19.89,19.89,0,0,0,132.73,31c.47.24,1,.5,1.39.65s.38,0,.38-.25ZM138.44,24a4.1,4.1,0,0,1,1.77-.11,2.38,2.38,0,0,1,2,1.92c0,.3-.12.56-.43.58s-.47-.32-.87-.26a5.36,5.36,0,0,0-1,.37l-.14-.21a11.9,11.9,0,0,0,1-.71.33.33,0,0,0,0-.5,2.62,2.62,0,0,0-2.37-.78Z"/><path class="cls-3" d="M155.55,24.14a.66.66,0,0,1-.47.14,9,9,0,0,1-1.32,1.3l-.16-.09c.13-.36.28-.95.39-1.39h-4v3c0,.07-.34.26-.87.26h-.17V24.1h-3.72a1.73,1.73,0,0,1-.61,1.63c-.34.22-.83.19-1-.16a.6.6,0,0,1,.38-.77,1.77,1.77,0,0,0,.78-1.65H145a3.93,3.93,0,0,1,.17.6h3.77V22.67h-4l-.1-.38h7.81l.64-.78s.74.55,1.21.95c0,.15-.17.21-.35.21H150v1.07h3.94l.59-.61Zm-7.87,1.74a10.81,10.81,0,0,1,.92.72c0,.14-.15.2-.32.2h-3l-.1-.37h2Zm7.24,6.33c.4.17.46.21.46.38,0,.42-.38.65-1.65.65h-3.19c-1.31,0-1.6-.21-1.6-1.38v-.6h-2.59v.61c0,.11-.44.34-.85.34h-.16V27.32l1.11.5h6.12l.52-.59,1.13.86a.84.84,0,0,1-.51.26V31.5a1.39,1.39,0,0,1-.87.31h-.15v-.55H150v.65c0,.43.05.47.6.47h3.21c.3,0,.45,0,.56-.14a6.05,6.05,0,0,0,.39-1.18h.17Zm-7.25-7.63s.53.39.88.72c0,.13-.15.19-.32.19h-2.68l-.11-.38h1.76Zm-1.32,3.6v1.15h2.59V28.18Zm2.59,2.71V29.7h-2.59v1.19Zm1-2.71v1.15h2.72V28.18Zm2.72,2.71V29.7H150v1.19Zm-2.27-4.46h2l.51-.59s.6.42,1,.76c0,.14-.15.2-.33.2h-3.09Zm2.28-1.87s.54.41.9.74c0,.13-.15.19-.33.19h-2.73l-.1-.38h1.76Z"/><path class="cls-3" d="M160.84,23.29s.67.54,1.09.91c0,.15-.14.21-.33.21h-5l-.11-.37h3.72Zm-1.23,2.41.56-.69s.63.49,1,.87c0,.14-.16.21-.34.21h-3.64l-.1-.39Zm-2.4,2.05-.1-.39h2.47l.55-.71s.64.51,1,.9c0,.14-.15.2-.32.2Zm0-5-.1-.36h2.43l.6-.77s.66.55,1.08.94c0,.14-.16.19-.34.19Zm3.11,5.66,1.12.84a1,1,0,0,1-.54.27v3.37c0,.1-.48.32-.82.32H160v-.76h-1.87v.68c0,.1-.41.32-.82.32h-.13V28.55l1,.45h1.68ZM160,32.1V29.37h-1.87V32.1Zm7.4-7.36s.74.6,1.17,1c0,.14-.16.21-.33.21h-2.81v2.44h1l.55-.57,1.16.88a1.17,1.17,0,0,1-.55.26v4a1.43,1.43,0,0,1-.86.33h-.17V32.5h-3.3v.64c0,.1-.4.33-.83.33h-.16V28l1.06.45h1.05V26h-2.72l-.1-.39h2.82V23.23a20.79,20.79,0,0,1-2.5.29l0-.21a17.64,17.64,0,0,0,4.87-1.76l1.15,1c-.11.12-.35.12-.69,0a14.65,14.65,0,0,1-1.78.46V25.6h1.33Zm-4.1,4.08v3.3h3.3v-3.3Z"/><path class="cls-3" d="M169.94,24.24a1.16,1.16,0,0,0,.83.65A52.53,52.53,0,0,0,176,23.71a19.15,19.15,0,0,1,3-.57,2.34,2.34,0,0,1,1,.17c.3.13.46.3.46.53s-.18.4-.51.4-.68,0-1.13,0a4.14,4.14,0,0,0-2.16.51,4.53,4.53,0,0,0-1.78,4A2.33,2.33,0,0,0,176,31a4.77,4.77,0,0,0,2.41.41c.35,0,.82.28.82.65s-.43.52-1,.52a5,5,0,0,1-2.89-.71A3.16,3.16,0,0,1,174,29,5.4,5.4,0,0,1,176,24.52c.09-.07.08-.15-.06-.12a23.82,23.82,0,0,0-4.08,1.36,2.1,2.1,0,0,1-.84.37A1.7,1.7,0,0,1,169.73,25a2.36,2.36,0,0,1,0-.65Zm8,1.68a5.09,5.09,0,0,1,1.56.87,1,1,0,0,1,.42.76.36.36,0,0,1-.36.39c-.2,0-.34-.28-.6-.6a5.75,5.75,0,0,0-1.19-1.2Zm1.15-.86a4.92,4.92,0,0,1,1.54.73,1,1,0,0,1,.47.81c0,.23-.11.36-.34.36s-.36-.27-.62-.6a6.48,6.48,0,0,0-1.2-1.08Z"/><path class="cls-3" d="M188,32.25c3.22-.62,4.67-2.3,4.67-4.64a3.66,3.66,0,0,0-3.81-3.82l-.48,0a2.46,2.46,0,0,1,.65,1.46,6.66,6.66,0,0,1-.41,2.16c-.55,1.59-2,4.07-3.45,4.07-.92,0-1.85-1.44-1.85-3.08a5.07,5.07,0,0,1,1.8-3.71,5.68,5.68,0,0,1,3.83-1.39,4.54,4.54,0,0,1,4.85,4.55c0,2.24-1.47,4.42-5.74,4.67Zm-.13-8.34a4.87,4.87,0,0,0-2.4,1.31,4.15,4.15,0,0,0-1.29,2.94c0,1.18.54,2.13,1.07,2.13.82,0,2-2,2.51-3.11a6.15,6.15,0,0,0,.49-2.1A2.12,2.12,0,0,0,187.82,23.91Z"/><path class="cls-3" d="M200.19,28.35a7.87,7.87,0,0,1,3.51-.93,2.41,2.41,0,0,1,2.66,2.45,2.5,2.5,0,0,1-2.7,2.46,2.9,2.9,0,0,1-2.47-1.44l.21-.2a3,3,0,0,0,2,.78,1.78,1.78,0,0,0,2-1.83c0-.95-.58-1.72-2-1.72A7.11,7.11,0,0,0,200.2,29c.05,1.8.21,2.27.21,2.75S200,33,199.58,33s-.35-.42-.77-.81a10.83,10.83,0,0,0-1.34-1c-.38.37-.53.54-.74.54a.71.71,0,0,1-.46-.25.88.88,0,0,1-.27-.64c0-.35.08-.45.39-.43a1,1,0,0,0,.77-.17c.44-.26,1.44-1,2.34-1.54V26.34a8.09,8.09,0,0,1-1.42.22c-.69,0-1.26-.17-1.75-1.42l.2-.16c.65.63.88.77,1.54.75a7.4,7.4,0,0,0,1.43-.26c0-.91,0-1.73,0-2s-.08-.37-.29-.45a2.79,2.79,0,0,0-.84-.1l0-.24a1.9,1.9,0,0,1,1-.3c.53,0,1.42.43,1.42.77s-.2.52-.29.94a8.69,8.69,0,0,0-.16,1.17c.91-.36,1.32-.75,1.56-.75s.72,0,.73.42c0,.22-.15.39-.44.53a15.36,15.36,0,0,1-1.91.72c0,.57-.05,1.16-.05,1.71Zm-.69,1.11A19.89,19.89,0,0,0,197.73,31c.47.24,1,.5,1.39.65s.38,0,.38-.25ZM203.44,24a4.1,4.1,0,0,1,1.77-.11,2.38,2.38,0,0,1,2,1.92c0,.3-.12.56-.43.58s-.47-.32-.87-.26a5.36,5.36,0,0,0-1,.37l-.14-.21a11.9,11.9,0,0,0,1-.71.33.33,0,0,0,0-.5,2.62,2.62,0,0,0-2.37-.78Z"/><path class="cls-3" d="M210.18,26v7.07c0,.13-.35.39-.81.39h-.19V21.85l1.06.51h2.38l.5-.56,1.08.84a1,1,0,0,1-.48.23v3.58a1.41,1.41,0,0,1-.83.29h-.16V26Zm0-3.29V24h2.55V22.72Zm2.55,2.91V24.35h-2.55v1.28Zm4.62,2.47a.83.83,0,0,1-.5.24v3.09a1.26,1.26,0,0,1-.82.33h-.16V31H213v.66a1.16,1.16,0,0,1-.84.32H212V27.38l1,.45h2.75l.5-.56Zm-1.48,2.5V28.2H213v2.4Zm4.47-7.94a.94.94,0,0,1-.55.24v9.21c0,.75-.17,1.18-1.48,1.3a.87.87,0,0,0-.29-.65,2,2,0,0,0-1.05-.35v-.2s1.24.09,1.5.09.31-.09.31-.3V26h-2.65v.33c0,.1-.43.31-.85.31h-.13V21.9l1,.46h2.46l.49-.63Zm-4.21.06V24h2.65V22.72Zm2.65,2.91V24.35h-2.65v1.28Z"/><path class="cls-3" d="M228.59,21.85c0,.16-.21.22-.54.25a11.77,11.77,0,0,0,5.56,3.7V26a1.23,1.23,0,0,0-.9.89,10.55,10.55,0,0,1-4.89-4.61,15.24,15.24,0,0,1-6.29,5.09l-.09-.18c2.21-1.26,4.77-3.89,5.43-5.74ZM230.66,28l1.21.93a1,1,0,0,1-.56.26v3.84a1.66,1.66,0,0,1-.91.3h-.17v-.89h-5.42v.65a1.26,1.26,0,0,1-.91.34h-.17V28.14l1.16.51h5.2Zm-1.25-2.63s.77.6,1.25,1c0,.14-.17.2-.35.2h-5.76l-.1-.37h4.27Zm.82,6.7V29h-5.42V32.1Z"/><path class="cls-3" d="M241.33,22.67a2.41,2.41,0,0,1,.9-.27c.68,0,1.48.54,1.48.93,0,.22-.25.33-.27.8s-.05.84-.08,1.39a14.31,14.31,0,0,1,1.95-.33c.57,0,1.13.24,1.13.7s-.22.41-.61.41a13.21,13.21,0,0,0-2,0c-.16,0-.33,0-.53.07a17.36,17.36,0,0,1-.26,2.6c-.13.61-.47,1-1,1-.22,0-.35-.06-.48-.34s-.78-.66-1.3-.91l.09-.26a8.39,8.39,0,0,0,1.47.33c.22,0,.36,0,.45-.34a12.83,12.83,0,0,0,.19-2,36.16,36.16,0,0,0-3.57.82c0,1.11-.07,2.35,0,2.92,0,1.3.3,1.5,1.95,1.5a19.5,19.5,0,0,0,3-.36c.47,0,.89.19.89.56s-.17.42-.61.52a14.8,14.8,0,0,1-2.95.23c-2,0-3.05-.41-3.11-1.94,0-.73,0-1.95,0-3.16a19.17,19.17,0,0,1-2.35.84,1.53,1.53,0,0,1-1.1-1,1.81,1.81,0,0,1-.07-.73l.19-.07c.22.33.55.67.86.67a24.28,24.28,0,0,0,2.47-.54c0-.88,0-1.66,0-2.06s-.1-.45-.31-.54a2.56,2.56,0,0,0-.76-.15v-.26a2.82,2.82,0,0,1,.94-.22c.58,0,1.44.51,1.44.87s-.22.31-.27.83c0,.28-.05.75-.08,1.29.91-.22,2.44-.58,3.56-.83,0-.75,0-1.76,0-2.29a.41.41,0,0,0-.35-.39,5.17,5.17,0,0,0-.77-.1Z"/><path class="cls-3" d="M251.26,27.79c-.24.69-.76,2.12-.93,2.59a3.93,3.93,0,0,0-.18.92c0,.42.19.84.19,1.19s-.15.49-.45.49-.48-.22-.69-.53a5.86,5.86,0,0,1-.77-3.1,13.43,13.43,0,0,1,.61-3.6,7.37,7.37,0,0,0,.33-1.57,2.41,2.41,0,0,0-.74-1.46l.19-.15a2.1,2.1,0,0,1,.77.4,2.35,2.35,0,0,1,.93,1.51c0,.3-.19.54-.5,1.27a8.8,8.8,0,0,0-.89,3.45,2.51,2.51,0,0,0,.21,1.19c.08.17.2.19.31,0,.29-.44,1-2.08,1.3-2.74Zm5.18-1.57c0,1.3.1,2.51.18,3.44a5,5,0,0,1,2.16,1.19,1.06,1.06,0,0,1,.41.75c0,.31-.14.5-.4.5s-.39-.17-.69-.45a5.84,5.84,0,0,0-1.41-1c0,.11,0,.21,0,.3,0,1.07-.66,1.76-2.3,1.76-1.16,0-2.12-.56-2.12-1.56s1.19-1.67,2.62-1.67a5.67,5.67,0,0,1,.85.06c0-.91-.12-2.21-.13-3.27a9.67,9.67,0,0,1-1.41.11,2.09,2.09,0,0,1-2.06-1.29l.18-.17a3,3,0,0,0,1.79.65,7.73,7.73,0,0,0,1.5-.14V23.78c0-.37-.07-.43-.26-.5a4.11,4.11,0,0,0-.92-.15l0-.25a2.73,2.73,0,0,1,1-.33c.65,0,1.37.39,1.37.71s-.12.37-.21.91a9.62,9.62,0,0,0-.12,1c.24-.08.43-.14.59-.21.66-.23.88-.39,1-.39.31,0,.77.17.77.47s-.2.41-.67.59a13.81,13.81,0,0,1-1.71.44Zm-.66,4a5.72,5.72,0,0,0-1.36-.15c-.78,0-1.61.32-1.61.92s.59.79,1.31.79c1.4,0,1.66-.5,1.66-1.51Z"/><path class="cls-3" d="M39.35,37.47h4v.47H39.85v7.94h-.5Z"/><path class="cls-3" d="M46.47,40.46a2.09,2.09,0,0,0,1.33.63,23.49,23.49,0,0,0,2.87-.29,6.71,6.71,0,0,0,2.15-.64c.55,0,1.39.34,1.39.66s-.14.42-.53.47l-3.27.34c.45.19.8.44.8.7s-.18.47-.24.84c-.06.56-.15,1.66-.2,2.57.94-.08,1.88-.16,2.65-.2a7.2,7.2,0,0,0,.95-.17c.57,0,1.67.52,1.67,1a.4.4,0,0,1-.45.43,24.1,24.1,0,0,0-2.82-.38,24.17,24.17,0,0,0-5.41.54,6.66,6.66,0,0,1-1.15.34c-.41,0-1.06-.64-1.22-.95a1.72,1.72,0,0,1-.15-.77l.22-.09a1.46,1.46,0,0,0,1.09.65c.44,0,2-.16,3.67-.31,0-.94.09-2.28.09-2.89a1.76,1.76,0,0,0-.38-1.2c-.87.13-1.52.26-1.87.26a1.25,1.25,0,0,1-.86-.52,3,3,0,0,1-.53-.89Z"/><path class="cls-3" d="M61.79,38.38a2.84,2.84,0,0,1,.82,0c.61.09,1.38.52,1.38.78s-.17.35-.38.68a7.92,7.92,0,0,1-.47.71h.2a18.3,18.3,0,0,0,2.49-.28c.35-.08.48-.33.72-.33s1.3.58,1.3,1-.44.39-.65.73a16.13,16.13,0,0,1-8.3,7.43l-.19-.27a17.17,17.17,0,0,0,7.42-7.7c.05-.17,0-.22-.13-.22a18.2,18.2,0,0,0-1.94.31,2.94,2.94,0,0,1-.72.17,1.22,1.22,0,0,1-.58-.31,11.67,11.67,0,0,1-4,3.38l-.19-.26c2-1.52,3.9-4.16,3.9-4.93,0-.24-.33-.48-.78-.67Z"/><path class="cls-3" d="M77.66,44.58a13.27,13.27,0,0,0,1.91-2.52c.09-.16,0-.25-.15-.22A32.77,32.77,0,0,0,75.7,43c-.07,1.09-.09,2.26-.09,3,0,1.09.18,1.19,1.65,1.19A12,12,0,0,0,80,46.88c.42,0,1,.17,1,.56s-.26.41-.61.48a15.28,15.28,0,0,1-2.64.25c-2.13,0-2.92-.16-2.94-1.93,0-.86,0-2.09,0-3-.59.21-1.29.47-1.77.67s-.56.45-1,.45a2.18,2.18,0,0,1-1.27-1,1.58,1.58,0,0,1-.08-.77l.2-.06c.25.36.49.64.84.64a21.06,21.06,0,0,0,3-.77c0-1.05,0-2.34,0-2.85,0-.32-.42-.41-1.06-.53v-.23a3.13,3.13,0,0,1,1-.23c.55,0,1.42.52,1.42.85s-.26.48-.33.91-.1,1-.15,1.81c1.1-.32,2.66-.74,3.39-.95.39-.12.52-.37.73-.37.43,0,1.4.78,1.4,1.15s-.44.36-.72.63a17.72,17.72,0,0,1-2.67,2.14Z"/><path class="cls-3" d="M85.19,39.83a2.78,2.78,0,0,1,1-.3c.6,0,1.5.65,1.5,1s-.29.44-.33.86c-.08.7-.15,4.07-.15,5.28,0,.13,0,.17.15.14a20.26,20.26,0,0,0,7.23-4.69l.23.23a18.62,18.62,0,0,1-6.89,5.5c-.43.22-.44.55-.75.55S86,47.58,86,47.24s.24-.41.25-.85c0-.9,0-4.72,0-5.7,0-.28-.12-.44-1-.64Z"/><path class="cls-3" d="M107.45,40.73l.28.18a19.32,19.32,0,0,1-6.84,6.78c-.3.18-.45.53-.76.53a2.61,2.61,0,0,1-1.67-1.08,2.75,2.75,0,0,1-.26-1l.2-.13c.36.4.79.85,1.22.85C100.74,46.91,105.59,43.43,107.45,40.73Zm-9-1.23c1.57.35,3.46,1.19,3.46,2.3a.55.55,0,0,1-.56.59c-.27,0-.48-.16-.81-.58a8.34,8.34,0,0,0-2.25-2.05Z"/><path class="cls-3" d="M112.93,38.7a3.78,3.78,0,0,1,.92-.22c.59,0,1.55.53,1.55.87s-.25.38-.3.81a20.92,20.92,0,0,0-.11,2.21,10.31,10.31,0,0,1,3.22,1.1,1.39,1.39,0,0,1,.79,1.1.51.51,0,0,1-.52.55c-.53,0-.66-.53-1.49-1.22a9.45,9.45,0,0,0-2-1.08c0,1,0,3,0,4.35,0,.59,0,1,0,1.2,0,.45-.13.63-.48.63-.5,0-.76-.7-.76-1.3,0-.3.11-.56.17-1.08.1-1,.1-3,.1-3.91s0-2.53-.09-3.16c0-.42-.38-.52-1-.6Z"/><path class="cls-3" d="M123.64,41.94l.12-.27a12.42,12.42,0,0,1,1.74.46c.83.3,1.43.78,1.43,1.37a.45.45,0,0,1-.47.48c-.46,0-.68-.49-1.33-1A7.69,7.69,0,0,0,123.64,41.94Zm9.83-.78.27.18A18.61,18.61,0,0,1,126.65,48c-.3.18-.45.54-.82.54a2.1,2.1,0,0,1-1.89-2l.2-.12c.32.39.74.85,1.19.85C126.4,47.22,131.16,44.25,133.47,41.16Zm-8.11-1.78.13-.29a14.27,14.27,0,0,1,1.69.48c.88.38,1.39.81,1.39,1.37a.49.49,0,0,1-.47.51c-.43,0-.67-.52-1.36-1.1A8.63,8.63,0,0,0,125.36,39.38Z"/><path class="cls-3" d="M136.62,41.73c.27.34.52.65.87.65.88,0,4.34-.52,6.54-.73a13,13,0,0,0,1.31-.23c.61,0,1.39.32,1.39.74s-.1.39-.41.39-.78-.1-1.45-.1-1.6,0-2.7.14c.37.22.69.47.69.7s-.32.35-.5.81a8.72,8.72,0,0,1-4.53,5.09l-.25-.26a8.29,8.29,0,0,0,3.85-5.74.82.82,0,0,0-.18-.51c-1,.14-2.15.35-2.55.46a6.19,6.19,0,0,1-1.12.29c-.34,0-1-.53-1.08-.92a1.78,1.78,0,0,1-.09-.7ZM138.54,39a2.17,2.17,0,0,0,1.31.47,11.42,11.42,0,0,0,2.38-.32c.74-.17.91-.38,1.16-.38.64,0,1.12.22,1.12.6,0,.2-.14.33-.56.41a25,25,0,0,1-4.06.54c-.7,0-1.08-.42-1.52-1.16Z"/><path class="cls-3" d="M155.05,41a2.32,2.32,0,0,1,.77.08c.47.16,1,.65,1,1s-.21.26-.48.54-.83.91-1.44,1.48c.3.21.53.39.53.56s-.09.31-.1.57c-.05,1.39,0,2.83,0,3.37s-.15.61-.45.61-.65-.5-.65-.93c0-.18.08-.39.1-.71a22.31,22.31,0,0,0,.12-2.61,1.18,1.18,0,0,0-.09-.41,13.5,13.5,0,0,1-3.85,2.28l-.13-.21c2.65-1.51,5.15-4.26,5.15-4.86,0-.21-.3-.42-.57-.55Z"/><path class="cls-3" d="M166.3,43.07v5.12c0,.76-.15,1.2-1.32,1.32a1.18,1.18,0,0,0-.24-.69,1.53,1.53,0,0,0-.91-.35v-.2s1,.08,1.28.08.26-.08.26-.26V43.32l-2.17.54c0,1.93-.21,4.11-1.71,5.66l-.2-.14a11.08,11.08,0,0,0,1-5.3l-.51.12a.56.56,0,0,1-.36.29l-.14-1.19a9.49,9.49,0,0,0,1-.09V38.87l1.07.46h.2c.07-.54.2-1.29.27-1.82l1.53.31c0,.19-.2.28-.49.3-.23.35-.6.83-.88,1.21h1.24l.46-.58,1.13.86a1,1,0,0,1-.53.26v2.89l.66-.09,0,.22Zm-3.1,0c.65-.06,1.39-.15,2.17-.26V39.7H163.2Zm.56-2.94c2,1.36.82,2.92.3,2.12a4.75,4.75,0,0,0-.47-2Zm.79,6.93c0,.09-.31.26-.57.26h-.14V44.06l1,.12c0,.13-.1.23-.33.27Zm5.32-8.91c-.05.16-.18.29-.48.29A10,10,0,0,1,167,43.8l-.2-.12a14.56,14.56,0,0,0,1.56-5.87Zm1.95,5,1.07.82a.73.73,0,0,1-.51.22v4.86a1.19,1.19,0,0,1-.84.27h-.17v-1h-2.81v.81c0,.08-.33.3-.82.3h-.17V43.33l1.13.47h2.61ZM171.37,48V44.16h-2.81V48Zm-.64-10.23a8.24,8.24,0,0,0,2.83,4.58l0,.13a1.23,1.23,0,0,0-.9.94,10.5,10.5,0,0,1-2.09-5.57Z"/><path class="cls-3" d="M179.69,40.86v1.66c0,2.44-.24,5.18-2.72,6.95l-.2-.15a7.43,7.43,0,0,0,1.82-4.52c-.79.52-2,1.3-3.53,2.22a.48.48,0,0,1-.27.34l-.59-1.29c.34-.09.92-.27,1.63-.5V41.45H174.5l-.11-.37h1.44V37.7l1.48.16c0,.18-.15.31-.47.35v2.87h.23l.58-.86s.66.61,1,1c0,.13-.15.2-.32.2h-1.51v3.77l1.74-.62,0,.1q.09-1.06.09-2.16V37.81l1.16.48h4.78l.49-.55,1.12.83a.86.86,0,0,1-.48.24v2.25c0,.09-.53.27-.86.27h-.15v-.47Zm0-2.2v1.82h5.07V38.66Zm6.7,7.28c0,.19-.14.29-.44.34v2.86c0,.09-.41.29-.76.29H185v-.87H181v.63c0,.11-.42.29-.74.29H180V45.79l1.31.13c0,.15-.13.26-.37.3v2h1.58V44.64h-1.34v.5c0,.08-.39.26-.7.26h-.18V42l1.27.13c0,.15-.13.24-.39.29v1.88h1.34V41.35l1.38.16c0,.17-.16.29-.43.34v2.42h1.33V42l1.36.13c0,.18-.13.29-.44.33V45c0,.1-.41.26-.75.26h-.17v-.61h-1.33v3.54H185V45.81Z"/><path class="cls-3" d="M191,39.25l-1.25.1c0,1.29,0,2.58,0,3.89v.69c0,1.29,0,2.6,0,3.89l1.25.1v.53h-3.81v-.53l1.24-.1c0-1.28,0-2.59,0-3.89v-.69c0-1.3,0-2.6,0-3.89l-1.24-.1v-.52H191Zm8.68,0-.93.12-2.85,9.16H195l-2.85-9.19-.91-.09v-.52h3.49v.51l-1.19.11L195.81,47l2.3-7.65L197,39.24v-.51h2.65Z"/><path class="cls-3" d="M205.52,39.83a2.78,2.78,0,0,1,1-.3c.6,0,1.49.65,1.49,1s-.28.44-.32.86c-.08.7-.16,4.07-.16,5.28,0,.13,0,.17.16.14a20.35,20.35,0,0,0,7.23-4.69l.23.23a18.62,18.62,0,0,1-6.89,5.5c-.43.22-.44.55-.75.55s-1.11-.81-1.11-1.15.24-.41.25-.85c0-.9,0-4.72,0-5.7,0-.28-.13-.44-1.05-.64Z"/><path class="cls-3" d="M218,41.94l.12-.27a12.42,12.42,0,0,1,1.74.46c.83.3,1.43.78,1.43,1.37a.45.45,0,0,1-.47.48c-.47,0-.69-.49-1.34-1A7.64,7.64,0,0,0,218,41.94Zm9.83-.78.27.18A18.57,18.57,0,0,1,221,48c-.3.18-.44.54-.81.54a2.6,2.6,0,0,1-1.6-1,2.42,2.42,0,0,1-.29-1l.19-.12c.33.39.75.85,1.2.85C220.73,47.22,225.49,44.25,227.8,41.16Zm-8.11-1.78.13-.29a14.27,14.27,0,0,1,1.69.48c.88.38,1.39.81,1.39,1.37a.49.49,0,0,1-.47.51c-.43,0-.68-.52-1.36-1.1A8.63,8.63,0,0,0,219.69,39.38Z"/><path class="cls-3" d="M232.69,42.63a1.64,1.64,0,0,0,1,.48,15.73,15.73,0,0,0,2.17-.23,5.37,5.37,0,0,0,1.58-.5c.47,0,1.2.3,1.2.59a.41.41,0,0,1-.44.41c-.37,0-1.38.12-2.42.24.34.14.6.33.6.57s-.12.4-.16.65c-.06.41-.14,1.14-.19,1.82.69-.07,1.34-.12,1.84-.14a5.89,5.89,0,0,0,.8-.16c.46,0,1.37.47,1.37.86a.37.37,0,0,1-.4.39,19.72,19.72,0,0,0-2.42-.31,16.37,16.37,0,0,0-3.74.39,6,6,0,0,1-1,.28c-.35,0-.89-.53-1-.8a1.59,1.59,0,0,1-.12-.63l.16-.06a1.21,1.21,0,0,0,.9.48c.37,0,1.53-.12,2.74-.22,0-.68.06-1.59.06-2.08a1.54,1.54,0,0,0-.24-.95c-.67.09-1.12.19-1.39.19a1.06,1.06,0,0,1-.72-.45,2.76,2.76,0,0,1-.38-.72Z"/><path class="cls-3" d="M253.77,40.73l.29.18a19.32,19.32,0,0,1-6.84,6.78c-.3.18-.45.53-.77.53a2.59,2.59,0,0,1-1.66-1.08,2.75,2.75,0,0,1-.26-1l.2-.13c.36.4.79.85,1.22.85C247.07,46.91,251.91,43.43,253.77,40.73Zm-9-1.23c1.57.35,3.46,1.19,3.46,2.3a.55.55,0,0,1-.56.59c-.28,0-.48-.16-.81-.58a8.5,8.5,0,0,0-2.25-2.05Z"/><path class="cls-3" d="M257,41.73c.27.34.51.65.87.65.88,0,4.34-.52,6.54-.73a13,13,0,0,0,1.31-.23c.61,0,1.39.32,1.39.74s-.1.39-.42.39-.78-.1-1.44-.1-1.6,0-2.7.14c.37.22.69.47.69.7s-.32.35-.5.81a8.71,8.71,0,0,1-4.54,5.09l-.24-.26a8.27,8.27,0,0,0,3.84-5.74.82.82,0,0,0-.18-.51c-1,.14-2.14.35-2.54.46a6.19,6.19,0,0,1-1.12.29c-.34,0-1-.53-1.08-.92a1.78,1.78,0,0,1-.09-.7ZM258.87,39a2.17,2.17,0,0,0,1.31.47,11.52,11.52,0,0,0,2.38-.32c.74-.17.91-.38,1.16-.38.64,0,1.12.22,1.12.6,0,.2-.15.33-.56.41a25.15,25.15,0,0,1-4.06.54c-.7,0-1.08-.42-1.52-1.16Z"/><path class="cls-3" d="M272.65,49.56h-4v-.47h3.54V41.15h.49Z"/><path class="cls-3" d="M278.71,38.39a3.19,3.19,0,0,1,1,.29c.39.2.89.65.89.92s-.28.32-.46.61a15.53,15.53,0,0,1-.91,1.46,1.88,1.88,0,0,0,.46.06c.7,0,3.51-.4,4.22-.52s.69-.28.94-.28c.49,0,1.19.29,1.19.68s-.09.41-.53.41-1.21,0-1.82,0c-.43,0-1.14.11-1.82.19.57.24,1,.59,1,.83s-.26.36-.37.65a10.21,10.21,0,0,1-5.07,5.37l-.21-.24c2.56-1.69,4.29-4.6,4.29-5.87a.75.75,0,0,0-.38-.64l-.66.09a7,7,0,0,1-.87.14,1.31,1.31,0,0,1-.7-.4,11.67,11.67,0,0,1-3,2.72l-.21-.24c2-1.67,3.52-4.3,3.52-5.2,0-.3-.18-.5-.58-.85Zm5.18.21a5,5,0,0,1,1.46.8,1.09,1.09,0,0,1,.47.81.33.33,0,0,1-.37.36c-.2,0-.35-.26-.59-.57a6.51,6.51,0,0,0-1.12-1.19Zm1.23-.73a4.3,4.3,0,0,1,1.52.72,1.06,1.06,0,0,1,.47.8.35.35,0,0,1-.36.37c-.22,0-.36-.28-.63-.6A8.07,8.07,0,0,0,285,38.08Z"/><path class="cls-3" d="M290.72,39.66c.23.33.51.77.95.77a29.43,29.43,0,0,0,3.94-.62c.28-.08.45-.37.67-.37.43,0,1.38.77,1.38,1.11s-.45.41-.62.66a22.25,22.25,0,0,1-2.11,2.89c2.12.86,4.17,2.23,4.17,3.43a.53.53,0,0,1-.53.57c-.4,0-.64-.4-1.25-1.16a10.37,10.37,0,0,0-2.7-2.52,15.32,15.32,0,0,1-5.77,3.89l-.18-.3A17.78,17.78,0,0,0,296,40.67c.06-.19,0-.23-.16-.2-.8.12-2.57.56-3.26.75-.42.12-.5.38-.83.38s-1-.62-1.13-1a2.45,2.45,0,0,1-.16-.84Z"/><path class="cls-3" d="M304.76,38.7a3.78,3.78,0,0,1,.92-.22c.59,0,1.55.53,1.55.87s-.25.38-.3.81c-.08.58-.1,1.47-.12,2.21a10.38,10.38,0,0,1,3.23,1.1,1.39,1.39,0,0,1,.79,1.1.51.51,0,0,1-.52.55c-.53,0-.66-.53-1.49-1.22a9.31,9.31,0,0,0-2-1.08c0,1,0,3,0,4.35,0,.59,0,1,0,1.2,0,.45-.13.63-.48.63-.51,0-.77-.7-.77-1.3,0-.3.12-.56.17-1.08.11-1,.11-3,.11-3.91s0-2.53-.09-3.16c-.06-.42-.38-.52-1-.6Z"/><path class="cls-3" d="M320.55,38.61a2.58,2.58,0,0,1,.88-.22c.63,0,1.41.55,1.41.87s-.24.24-.28.82,0,1.07,0,1.57c1.41-.13,1.54-.23,1.82-.23.6,0,1.36.29,1.36.74,0,.29-.13.36-.4.36s-.9-.14-2-.14l-.82,0c-.05,1.66-.11,3.25-.92,4.35a7,7,0,0,1-3.52,2.33l-.16-.27a7,7,0,0,0,2.88-2.38,8.09,8.09,0,0,0,.78-4c-.91.06-1.88.16-2.66.23,0,1.06,0,2.08,0,2.53s-.15.72-.46.72-.62-.61-.62-1a21.23,21.23,0,0,0,.22-2.12c-.63.09-1.13.19-1.5.28a4.24,4.24,0,0,1-.91.28c-.37,0-.89-.65-1-.93a1.91,1.91,0,0,1-.09-.78l.22-.06c.26.38.49.73.83.73s1.7-.15,2.47-.22a13.74,13.74,0,0,0-.09-1.93c-.07-.28-.37-.38-.93-.48v-.23a2,2,0,0,1,.81-.21c.44,0,1.3.4,1.3.8s-.18.29-.21.72c0,.23,0,.73,0,1.23l2.66-.26a19.88,19.88,0,0,0-.06-2.41c0-.3-.36-.38-.93-.46Z"/><path class="cls-3" d="M328.81,40.29a2.9,2.9,0,0,1,1.64.65s0,0,.05.05c1.3-.08,4.22-.34,4.74-.42s.56-.37.85-.37,1.39.82,1.39,1.21-.43.43-.52.8c-.13.63-.4,2.2-.68,3.54.46,0,.82.25.82.53a.4.4,0,0,1-.44.44c-.34,0-1-.09-1.65-.09-1,0-2.7.09-4.21.2v.44c0,.34-.12.56-.46.56s-.62-.42-.62-1c0-.28,0-1,0-1.52a22.45,22.45,0,0,0-.37-3.73,1.89,1.89,0,0,0-.74-1.1Zm6.5,5.47a40.51,40.51,0,0,0,.53-4.3c0-.11,0-.16-.17-.16-.78,0-2.75.16-3.47.24-.41.05-.8.18-1.05.18a1.46,1.46,0,0,1-.55-.18c0,.88.13,3.25.17,4.53C332.1,46,334.07,45.81,335.31,45.76Z"/><path class="cls-3" d="M351.27,40.73l.29.18a19.32,19.32,0,0,1-6.84,6.78c-.3.18-.45.53-.77.53a2.59,2.59,0,0,1-1.66-1.08,2.75,2.75,0,0,1-.26-1l.2-.13c.36.4.79.85,1.22.85C344.57,46.91,349.41,43.43,351.27,40.73Zm-9-1.23c1.57.35,3.46,1.19,3.46,2.3a.55.55,0,0,1-.56.59c-.28,0-.48-.16-.81-.58a8.5,8.5,0,0,0-2.25-2.05Z"/><path class="cls-3" d="M94.78,72.29c0-9.58,3.76-14.25,9.4-14.24s9.35,4.72,9.33,14.26-3.76,14.47-9.36,14.46S94.76,81.82,94.78,72.29Zm13.54,0c0-7.74-1.79-10-4.14-10s-4.19,2.24-4.2,10,1.78,10.18,4.17,10.18S108.31,80.08,108.32,72.3Z"/><path class="cls-3" d="M119,81.82h6l0-17.5h-5v-3.4a18,18,0,0,0,6.44-2.31h4.07l0,23.22h5.2v4.45l-16.65,0Z"/><path class="cls-3" d="M140.27,83.12c7.53-6.73,12-11.92,12-16.18,0-2.81-1.52-4.49-4.14-4.5-2,0-3.71,1.31-5.09,2.84l-3-3c2.55-2.69,5-4.18,8.79-4.17,5.24,0,8.71,3.37,8.71,8.54,0,5-4.17,10.39-9.22,15.32,1.38-.15,3.21-.3,4.48-.3h6v4.64l-18.55,0Z"/><path class="cls-3" d="M163.1,72.37c0-9.57,3.76-14.24,9.41-14.23s9.34,4.72,9.33,14.26-3.76,14.47-9.37,14.46S163.09,81.91,163.1,72.37Zm13.54,0c0-7.74-1.78-10-4.14-10s-4.19,2.24-4.2,10,1.78,10.18,4.17,10.18S176.63,80.17,176.64,72.39Z"/><path class="cls-3" d="M186.06,73.68h10.21v3.93l-10.21,0Z"/><path class="cls-3" d="M199.77,83l2.59-3.47a8.77,8.77,0,0,0,6.16,2.85c2.81,0,4.72-1.38,4.72-3.85,0-2.73-1.6-4.41-7.62-4.42v-4c5.09,0,6.74-1.75,6.74-4.22,0-2.17-1.34-3.44-3.7-3.48A7.86,7.86,0,0,0,203.42,65l-2.8-3.37a12.28,12.28,0,0,1,8.31-3.39c5.35,0,9,2.62,9,7.37,0,3-1.69,5.16-4.65,6.32v.19c3.14.86,5.53,3.18,5.53,6.81,0,5.09-4.46,8-9.74,8A11.78,11.78,0,0,1,199.77,83Z"/><path class="cls-3" d="M224.64,82h6l0-17.5h-5v-3.4A18,18,0,0,0,232,58.74h4.08l0,23.23h5.19v4.45l-16.64,0Z"/><path class="cls-3" d="M245.32,83.1l2.59-3.47a8.77,8.77,0,0,0,6.16,2.85c2.81,0,4.72-1.38,4.72-3.85,0-2.73-1.6-4.41-7.62-4.42v-4c5.09,0,6.74-1.75,6.74-4.22,0-2.17-1.34-3.44-3.7-3.49A7.92,7.92,0,0,0,249,65l-2.8-3.37a12.31,12.31,0,0,1,8.31-3.4c5.35,0,9,2.63,9,7.38,0,3-1.69,5.16-4.64,6.32v.19c3.14.86,5.53,3.18,5.53,6.81,0,5.08-4.47,8-9.74,8A11.77,11.77,0,0,1,245.32,83.1Z"/><path class="cls-3" d="M269,73.78l10.21,0v3.92H269Z"/><path class="cls-3" d="M282.68,83.15l2.58-3.47a8.85,8.85,0,0,0,6.17,2.85c2.81,0,4.72-1.38,4.72-3.85,0-2.73-1.6-4.41-7.62-4.42v-4c5.09,0,6.73-1.75,6.74-4.21,0-2.17-1.34-3.45-3.7-3.49a7.92,7.92,0,0,0-5.24,2.47l-2.8-3.37a12.27,12.27,0,0,1,8.31-3.4c5.35,0,9,2.63,9,7.38,0,3-1.69,5.16-4.64,6.32v.18c3.14.87,5.53,3.19,5.52,6.82,0,5.08-4.46,8-9.73,8A11.77,11.77,0,0,1,282.68,83.15Z"/><path class="cls-3" d="M306.14,72.56c0-9.57,3.76-14.24,9.41-14.24s9.34,4.73,9.33,14.26-3.76,14.47-9.37,14.47S306.13,82.1,306.14,72.56Zm13.54,0c0-7.74-1.78-10-4.14-10s-4.19,2.24-4.2,10,1.78,10.17,4.18,10.18S319.67,80.36,319.68,72.58Z"/><path class="cls-3" d="M344.45,64.79a6,6,0,0,0-4.26-2c-3.18,0-5.8,2.38-6,9.3a8,8,0,0,1,5.69-2.94c4.64,0,7.93,2.77,7.92,8.72,0,5.69-4,9.23-8.69,9.23-5.27,0-9.94-4.24-9.93-14,0-10.33,5.14-14.73,10.72-14.73a10.25,10.25,0,0,1,7.51,3.16Zm-1.74,13c0-3.29-1.53-4.82-3.92-4.83-1.5,0-3.14.79-4.53,2.92.52,5,2.38,7,4.7,7C341,82.93,342.71,81.21,342.71,77.84Z"/><path class="cls-3" d="M86.74,81.79a2.52,2.52,0,1,0,2.51,2.52A2.52,2.52,0,0,0,86.74,81.79Zm0,4.74A2.23,2.23,0,1,1,89,84.31,2.21,2.21,0,0,1,86.74,86.53Z"/><path class="cls-3" d="M87.45,84a.84.84,0,0,0,.2-.54.77.77,0,0,0-.28-.64,1.11,1.11,0,0,0-.74-.23h-.95v3.33h.39V84.42h.43l1,1.52H88l-1.06-1.6A1,1,0,0,0,87.45,84Zm-1.38.07V82.94h.5c.45,0,.68.19.68.56a.59.59,0,0,1-.19.43.73.73,0,0,1-.5.16Z"/><path class="cls-3" d="M52.86,80.55a5,5,0,0,0,5-5.16c0-2.71-2.67-4.87-4.94-6.17-2.28,1.29-4.95,3.44-5,6.16A5,5,0,0,0,52.86,80.55Z"/><path class="cls-3" d="M73,80.52a5,5,0,0,0,5-5.17c0-2.7-2.67-4.87-4.94-6.17-2.28,1.3-5,3.46-5,6.16A5,5,0,0,0,73,80.52Z"/><path class="cls-3" d="M42.76,64.25a22.85,22.85,0,0,1,10.17,2.3,22.74,22.74,0,0,1,19.91,0A22.87,22.87,0,0,1,83,64.3V60.2l-40.28-.05Z"/><path class="cls-3" d="M80.25,75.42a7.48,7.48,0,0,1-7.43,7.4,7.37,7.37,0,0,1-7.28-7.42c0-3.19,2.3-5.71,4.79-7.37a19.27,19.27,0,0,0-7.44-1.46A19.06,19.06,0,0,0,55.45,68c2.48,1.67,4.77,4.19,4.77,7.38a7.39,7.39,0,0,1-7.31,7.41,7.53,7.53,0,0,1-7.46-7.43c0-3.18,2.47-5.7,5-7.36a20.36,20.36,0,0,0-7.66-1.46l0,19.89,40.28,0L83,66.6A20.62,20.62,0,0,0,75.37,68C77.85,69.71,80.25,72.23,80.25,75.42Z"/><path class="cls-3" d="M74.93,99a7.05,7.05,0,0,1-2.52,2.76,14,14,0,0,0,4.07,1.07,2.89,2.89,0,0,0-.5.75,12.92,12.92,0,0,1-4.39-1.36,14.77,14.77,0,0,1-4.43,1.36,3.06,3.06,0,0,0-.49-.72,15.23,15.23,0,0,0,4.14-1.1,7.86,7.86,0,0,1-2.22-2.27l.11,0h-.47v-.76h6l.17,0Zm-7.25,0h-.77V96.74h1.74a7.79,7.79,0,0,0-.72-1.45l.7-.2a6.24,6.24,0,0,1,.78,1.44l-.65.21h4.79a13.75,13.75,0,0,0,1-1.87l.83.25c-.3.54-.68,1.13-1,1.62h1.88V99h-.81v-1.5H67.68Zm8-4.76a58.08,58.08,0,0,1-8.45.85,2.77,2.77,0,0,0-.18-.7,57,57,0,0,0,8.06-.81Zm-6.19,5.26a6.5,6.5,0,0,0,2.15,1.89,6,6,0,0,0,2.09-1.89Zm1.92-2.8a5.8,5.8,0,0,0-.55-1.61l.74-.17a6.53,6.53,0,0,1,.58,1.6Z"/><path class="cls-3" d="M81.14,93.91A17.18,17.18,0,0,1,80,96.31v7.29h-.81v-6a12.6,12.6,0,0,1-1.11,1.33,6,6,0,0,0-.51-.81,12.27,12.27,0,0,0,2.8-4.44Zm6.39,2.93H86.15v5.68c0,.61-.18.86-.59,1a9.61,9.61,0,0,1-2.35.13,4.12,4.12,0,0,0-.32-.81c.92,0,1.82,0,2.09,0s.34-.09.34-.34V96.84H80.89V96h4.43V93.71h.83V96h1.38Zm-4.36,4.22c-.33-.68-1-1.86-1.59-2.74l.7-.33a30.79,30.79,0,0,1,1.65,2.67Z"/><path class="cls-3" d="M92.07,101.48H89.71v.89H89V94.31h3.11ZM89.71,95v2.45H91.3V95Zm1.59,5.7V98.2H89.71v2.54Zm6-3V99h1.27v.73H97.26v3c0,.46-.13.7-.46.82a6.23,6.23,0,0,1-1.78.14,2.28,2.28,0,0,0-.26-.76c.68,0,1.28,0,1.46,0s.24-.06.24-.22V99.71H92.3V99h4.16V97.74H92.25V97H95V95.62H92.72v-.73H95V93.58h.8v1.31h2.37v.73H95.81V97h2.84v.73Zm-3.62,2.35A8.18,8.18,0,0,1,95.07,102l-.7.44A8.48,8.48,0,0,0,93,100.47Z"/><path class="cls-3" d="M100.92,97.81v5.83h-.82V94.05h4v3.76Zm0-3.12v.92h2.37v-.92Zm2.37,2.49v-1h-2.37v1Zm0,5.43v.55h-.74V98.63h4.09v4Zm0-3.35v1h2.59v-1Zm2.59,2.7V100.9h-2.59V102Zm3.28.59c0,.51-.13.79-.49.93a5.91,5.91,0,0,1-1.85.15,2.87,2.87,0,0,0-.28-.84c.67,0,1.34,0,1.54,0s.25-.07.25-.26V97.82h-3.25V94.05h4.08Zm-3.3-7.86v.92h2.47v-.92Zm2.47,2.5v-1h-2.47v1Z"/><path class="cls-3" d="M112,96a.84.84,0,1,1,.83.83A.81.81,0,0,1,112,96Zm0,5.39a.84.84,0,1,1,.83.83A.82.82,0,0,1,112,101.37Z"/><path class="cls-3" d="M116.55,102h1.79v-6h-1.43V95.3a5.08,5.08,0,0,0,1.67-.57h.77V102H121v.84h-4.42Z"/><path class="cls-3" d="M122.22,98.73c0-2.8,1-4.16,2.52-4.16s2.51,1.37,2.51,4.16-1,4.2-2.51,4.2S122.22,101.54,122.22,98.73Zm4,0c0-2.35-.61-3.34-1.53-3.34s-1.54,1-1.54,3.34.62,3.4,1.54,3.4S126.27,101.11,126.27,98.73Z"/><path class="cls-3" d="M129.7,96a.84.84,0,1,1,.84.83A.82.82,0,0,1,129.7,96Zm0,5.39a.84.84,0,1,1,.84.83A.83.83,0,0,1,129.7,101.37Z"/><path class="cls-3" d="M133.83,98.73c0-2.8,1-4.16,2.52-4.16s2.51,1.37,2.51,4.16-1,4.2-2.51,4.2S133.83,101.54,133.83,98.73Zm4,0c0-2.35-.62-3.34-1.53-3.34s-1.54,1-1.54,3.34.61,3.4,1.54,3.4S137.88,101.11,137.88,98.73Z"/><path class="cls-3" d="M139.93,98.73c0-2.8,1-4.16,2.52-4.16S145,95.94,145,98.73s-1,4.2-2.51,4.2S139.93,101.54,139.93,98.73Zm4,0c0-2.35-.61-3.34-1.53-3.34s-1.54,1-1.54,3.34.62,3.4,1.54,3.4S144,101.11,144,98.73Z"/><path class="cls-3" d="M150.69,98.92a2.52,2.52,0,0,0-1.87-.9,2.42,2.42,0,0,0-2.08,1.45l-.78-.42a3.14,3.14,0,0,1,5.35-.75,2.52,2.52,0,0,0,1.87.9,2.42,2.42,0,0,0,2.08-1.45l.78.42a3.3,3.3,0,0,1-2.87,1.92A3.34,3.34,0,0,1,150.69,98.92Z"/><path class="cls-3" d="M157.47,102h1.79v-6h-1.43V95.3a5.16,5.16,0,0,0,1.67-.57h.77V102h1.62v.84h-4.42Z"/><path class="cls-3" d="M163.79,101.48a1.81,1.81,0,0,0,1.35.62c1.05,0,2-.86,2-3.37a2.48,2.48,0,0,1-1.86,1c-1.34,0-2.22-.87-2.22-2.54a2.42,2.42,0,0,1,2.31-2.62c1.55,0,2.7,1.28,2.7,3.84,0,3.27-1.4,4.52-2.92,4.52a2.58,2.58,0,0,1-1.94-.82Zm3.37-3.57c-.11-1.67-.73-2.55-1.76-2.55-.77,0-1.37.73-1.37,1.83s.49,1.79,1.44,1.79A2.13,2.13,0,0,0,167.16,97.91Z"/><path class="cls-3" d="M170.62,96a.84.84,0,1,1,.84.83A.82.82,0,0,1,170.62,96Zm0,5.39a.84.84,0,1,1,1.67,0,.82.82,0,0,1-.83.83A.82.82,0,0,1,170.62,101.37Z"/><path class="cls-3" d="M174.75,98.73c0-2.8,1-4.16,2.52-4.16s2.5,1.37,2.5,4.16-1,4.2-2.5,4.2S174.75,101.54,174.75,98.73Zm4,0c0-2.35-.61-3.34-1.52-3.34s-1.54,1-1.54,3.34.61,3.4,1.54,3.4S178.79,101.11,178.79,98.73Z"/><path class="cls-3" d="M180.85,98.73c0-2.8,1-4.16,2.52-4.16s2.51,1.37,2.51,4.16-1,4.2-2.51,4.2S180.85,101.54,180.85,98.73Zm4.05,0c0-2.35-.62-3.34-1.53-3.34s-1.54,1-1.54,3.34.62,3.4,1.54,3.4S184.9,101.11,184.9,98.73Z"/><path class="cls-3" d="M203.3,97.28a6.27,6.27,0,0,0,4.57,5.61,3.67,3.67,0,0,0-.54.75,6.93,6.93,0,0,1-4.47-4.78,6.9,6.9,0,0,1-4.31,4.78A4.23,4.23,0,0,0,198,103a6.38,6.38,0,0,0,4.44-5.69V93.75h.87ZM200.47,96a5,5,0,0,1-1.54,3.39l-.7-.49a4.52,4.52,0,0,0,1.43-3.07Zm6.92.16a25.87,25.87,0,0,1-1.79,3.05l-.68-.32a17.2,17.2,0,0,0,1.59-3.08Z"/><path class="cls-3" d="M211.17,97.44A1.17,1.17,0,1,1,210,98.61,1.16,1.16,0,0,1,211.17,97.44Z"/><path class="cls-3" d="M218.43,96.56a9.12,9.12,0,0,1-3.49,6,3.08,3.08,0,0,0-.65-.65,7.47,7.47,0,0,0,3.12-4.72h-2.86v-.81h3.17l.17,0Zm5.7-.67a26.7,26.7,0,0,1-3,2.85,7.45,7.45,0,0,0,3.45,3.31,3.17,3.17,0,0,0-.62.74,8.9,8.9,0,0,1-4.09-5v4.72c0,.58-.16.85-.52,1a6.31,6.31,0,0,1-2,.17,3.43,3.43,0,0,0-.33-.89c.79,0,1.49,0,1.71,0s.3-.08.3-.3V93.61h.85v2a13.6,13.6,0,0,0,.92,2.48,20.85,20.85,0,0,0,2.61-2.73Z"/><path class="cls-3" d="M235.44,103.23h-5.08v.33h-.75V99.67a7,7,0,0,1-.72.72l-.28-.31v1.43h-2.09v.92h-.71V94.29h2.8v5.36a7.31,7.31,0,0,0,1.63-2.31h-1.18v-.59h2.05v-.81h-1.85v-.57h1.85v-.78h-2V94h2.76v3.35h-1l.27.08a8.56,8.56,0,0,1-.42.79h1.57c.13-.28.25-.61.34-.87h-.3v-.59h2.11v-.81h-1.94v-.57h1.94v-.78h-2.08V94h2.79v3.35H233l.43.1-.41.77h2.19v.64h-2.38v.85h2.12v.57h-2.12v.85h2.12v.57h-2.12v.9h2.65ZM226.52,95v2.48h1.37V95Zm1.37,5.8V98.19h-1.37v2.61Zm4.18-2h-1.71v.85h1.71Zm0,1.42h-1.71v.85h1.71Zm-1.71,2.32h1.71v-.9h-1.71Z"/><path class="cls-3" d="M241.82,102.54a10,10,0,0,0,1.79.13h2.81a2.62,2.62,0,0,0-.31.82h-2.55c-2.27,0-3.91-.39-4.92-2.25a6,6,0,0,1-1.64,2.45,4.19,4.19,0,0,0-.67-.55c1.23-.94,1.82-2.51,2.06-4.48l.84.08a14.62,14.62,0,0,1-.27,1.46,3.32,3.32,0,0,0,2,2.13V97.71h-2.73v-.77h6.37v.77h-2.81v1.82h3.26v.76h-3.26Zm-4.17-5.32h-.8V94.85H241V93.59h.84v1.26H246v2.37h-.83v-1.6h-7.5Z"/><path class="cls-3" d="M251,93.91a16.89,16.89,0,0,1-1.2,2.36v7.35H249V97.44a10.24,10.24,0,0,1-1.3,1.46,4.5,4.5,0,0,0-.49-.83,11.25,11.25,0,0,0,3-4.41Zm3.68,3.26a11.67,11.67,0,0,0,3,4.42,3.19,3.19,0,0,0-.61.66,13.19,13.19,0,0,1-2.85-4.42v5.81h-.81V98.06a12,12,0,0,1-2.86,4.23,4.47,4.47,0,0,0-.61-.62,11.29,11.29,0,0,0,3.05-4.5h-2.67v-.79h3.09V93.74h.81v2.64h3.18v.79Z"/><path class="cls-3" d="M260.06,98.61a7.31,7.31,0,0,1,2.19-5.24l.66.34a6.9,6.9,0,0,0,0,9.8l-.66.34A7.34,7.34,0,0,1,260.06,98.61Z"/><path class="cls-3" d="M267.77,100.4A15.16,15.16,0,0,0,266.46,99v4.67h-.8V99.39a9.91,9.91,0,0,1-1.57,1.34,3.67,3.67,0,0,0-.42-.73,9.63,9.63,0,0,0,3.27-3.61h-2.87v-.75h1.59v-2h.8v2h.91l.14,0,.45.29a10,10,0,0,1-1.31,2.32c.48.41,1.4,1.27,1.63,1.52Zm5.36,2.48c.25,0,.3-.24.33-1.59a2,2,0,0,0,.68.31c-.06,1.53-.24,2-.92,2h-1c-.77,0-.93-.24-.93-1.06V98.58h-1.08c-.12,2.44-.5,4.11-2.39,5.08a2.33,2.33,0,0,0-.53-.65c1.74-.81,2-2.27,2.12-4.43h-1.08V94.32h5.15v4.26H272.1v3.91c0,.33,0,.39.29.39Zm-4-5h3.56V95.06h-3.56Z"/><path class="cls-3" d="M283.54,94.34v9.12h-.86v-.67h-5.46v.72h-.82V94.34Zm-6.32.8v3h5.46v-3Zm5.46,6.85V98.92h-5.46V102Z"/><path class="cls-3" d="M288.25,94.42a5.56,5.56,0,0,0-.18.73,26.88,26.88,0,0,0-.54,4.39,9.33,9.33,0,0,0,.1,1.49c.17-.5.43-1.14.61-1.58l.47.36a20.31,20.31,0,0,0-.77,2.41,1.62,1.62,0,0,0-.06.48c0,.11,0,.27,0,.38l-.78.06a13.13,13.13,0,0,1-.42-3.45,34.1,34.1,0,0,1,.5-4.58,5.3,5.3,0,0,0,.08-.77Zm7.09,7.93a7.87,7.87,0,0,0-1.64-1.24v.19a1.65,1.65,0,0,1-1.89,1.79c-1.47,0-2.27-.61-2.27-1.58s.82-1.66,2.25-1.66a5.32,5.32,0,0,1,1,.1c0-.83-.1-1.88-.11-2.78l-1.05,0c-.61,0-1.18,0-1.82-.07v-.83c.61.06,1.21.1,1.85.1l1,0V95a3.68,3.68,0,0,0-.06-.66h1c0,.21-.05.43-.06.65s0,.8,0,1.31a13.55,13.55,0,0,0,1.88-.25v.85a18.63,18.63,0,0,1-1.88.21c0,1.09.08,2.18.13,3.1a7.44,7.44,0,0,1,2.14,1.41Zm-2.51-1.62a3.44,3.44,0,0,0-1.11-.17c-.81,0-1.38.36-1.38.87s.53.84,1.31.84c.93,0,1.19-.45,1.19-1.17C292.84,101,292.84,100.86,292.83,100.73Z"/><path class="cls-3" d="M300.46,94.34c-.33.9-.72,2-1.08,2.89a3.42,3.42,0,0,1,1,2.36,1.52,1.52,0,0,1-.42,1.25,1.22,1.22,0,0,1-.58.2,5.77,5.77,0,0,1-.73,0,1.65,1.65,0,0,0-.21-.72,3.4,3.4,0,0,0,.63,0,.73.73,0,0,0,.36-.09,1,1,0,0,0,.22-.75,3.13,3.13,0,0,0-1-2.18c.32-.8.64-1.78.87-2.53h-1.44v8.83h-.73V94.05h2.46l.14,0Zm1.69,6a8.06,8.06,0,0,1-1.6,2.64,5.6,5.6,0,0,0-.59-.48,6.3,6.3,0,0,0,1.46-2.32Zm1.68-6.69a10.06,10.06,0,0,0,3.24,3,3.53,3.53,0,0,0-.46.68,11.19,11.19,0,0,1-3.11-3,10.11,10.11,0,0,1-3,3,2.52,2.52,0,0,0-.44-.64,8.79,8.79,0,0,0,3.08-3.14Zm.07,5.93v3.16c0,.43-.08.66-.37.78a3.58,3.58,0,0,1-1.41.15,3.34,3.34,0,0,0-.28-.76c.52,0,1,0,1.11,0s.19,0,.19-.18V99.54h-2.43v-.7h2.43V97.48h-1.7v-.71h4.23v.71H303.9v1.36h2.63v.7Zm1.44.58a13.59,13.59,0,0,1,1.53,2.41l-.67.36a14.42,14.42,0,0,0-1.49-2.49Z"/><path class="cls-3" d="M315.15,94.7c-.24.18-.57.47-.75.62-.76.65-2.32,1.9-3.12,2.56s-.66.74,0,1.32c1,.8,3,2.47,4.07,3.52l-.79.72c-.22-.26-.52-.54-.75-.79-.59-.64-2.41-2.19-3.43-3s-.91-1.35.08-2.18c.81-.69,2.46-2,3.2-2.74a5.58,5.58,0,0,0,.63-.72Z"/><path class="cls-3" d="M321.77,98.61a7.34,7.34,0,0,1-2.19,5.24l-.66-.34a6.88,6.88,0,0,0,0-9.8l.66-.34A7.31,7.31,0,0,1,321.77,98.61Z"/></g></g></svg>