<svg xmlns="http://www.w3.org/2000/svg" viewBox="0 0 319.44 147.28"><defs><style>.cls-1{fill:#404040;}</style></defs><g id="レイヤー_2" data-name="レイヤー 2"><g id="header_footer" data-name="header footer"><path d="M65.49,9.5c0,2.25.55,3.84,4.32,3.84a17.07,17.07,0,0,0,4.54-.68c.49,0,1.14.28,1.14.73s-.17.57-.75.77a16.14,16.14,0,0,1-4.64.54c-4.52,0-5.73-2.12-5-5.18Zm2.14-3.18c.8-.52,1.81-1.22,2.4-1.63.17-.13.15-.19-.08-.19-1.92,0-3.22-.15-4.29-1.64l.22-.28a5.17,5.17,0,0,0,3.3.9,19.42,19.42,0,0,0,3.18-.37c.7,0,1.7.37,1.7.85s-.2.51-.68.6A11.86,11.86,0,0,0,71.56,5a36.16,36.16,0,0,0-3.72,1.65Zm6.11-4.86a6.53,6.53,0,0,1,2,1.12,1.3,1.3,0,0,1,.56,1,.44.44,0,0,1-.46.48c-.27,0-.47-.34-.78-.77a8.28,8.28,0,0,0-1.55-1.56Zm1.49-1a6.31,6.31,0,0,1,2,.93,1.33,1.33,0,0,1,.61,1.06c0,.32-.14.49-.42.49s-.48-.36-.84-.78A7.88,7.88,0,0,0,75,.68Z"/><path d="M96.06,7.21a1.08,1.08,0,0,1-.72.2,21.45,21.45,0,0,1-4.11,3.4L91,10.68a23.34,23.34,0,0,0,2.55-3.57H88.8v6.73c0,1.05-.31,1.76-2.33,1.94a1.28,1.28,0,0,0-.49-1,4.47,4.47,0,0,0-1.92-.54V14s2.41.15,2.87.15.46-.1.46-.35V7.11h-7l-.15-.48h8.62a10.28,10.28,0,0,0-4.08-3.26l.1-.24a11.49,11.49,0,0,1,3.47,1,29.76,29.76,0,0,0,3.09-2.28H82.36l-.14-.49h9.55l.92-.85L94.17,2a1.32,1.32,0,0,1-.75.17A26,26,0,0,1,88.7,4.35c1.41.89,1.48,1.92,1,2.28h3.92l.9-.88Z"/><path d="M98,14.16a19.22,19.22,0,0,0,1.22-4.71l1.72.44c-.07.21-.24.34-.61.36a11.37,11.37,0,0,1-2.06,4.05Zm4.81-8.55c3.5,1.63,2.38,4.1,1.2,3.11a5.76,5.76,0,0,0-.4-1.29l-1.28.3v7.6a1.22,1.22,0,0,1-1,.41h-.22V8L99,8.48a.57.57,0,0,1-.44.36l-.42-1.45c.42,0,1.1,0,1.92-.08a36.74,36.74,0,0,0,2.78-5.22l1.84.73c-.08.19-.31.32-.68.27a26.86,26.86,0,0,1-3.4,4.19l2.84-.21a9.06,9.06,0,0,0-.82-1.36Zm0-4.86a.57.57,0,0,1-.65.3,15.43,15.43,0,0,1-1.95,2.5C101.7,4.61,101,6,100,5.34a5.63,5.63,0,0,0-1.7-2.4l.15-.15a4.72,4.72,0,0,1,1.36.51A26.78,26.78,0,0,0,101,.07Zm.17,8.6c3.28,2,2,4.42.88,3.35a9.25,9.25,0,0,0-1.09-3.25Zm10.74-5.24a1,1,0,0,1-.73.29c-.15,5.61-.51,9.47-1.41,10.47a2.86,2.86,0,0,1-2.24.84,1.22,1.22,0,0,0-.36-1,6.16,6.16,0,0,0-2-.63V13.8c.92.09,2.38.22,2.82.22a.82.82,0,0,0,.7-.25c.68-.6,1-4.54,1.16-9.57h-4.93a12.08,12.08,0,0,1-1.94,2.74l-.24-.16A23.27,23.27,0,0,0,106.73.15l2,.6a.62.62,0,0,1-.63.36A25.22,25.22,0,0,1,107,3.71h4.49l.78-.84Zm-7,2.33c4,1.91,2.77,4.88,1.44,3.73a7.57,7.57,0,0,0-1.63-3.61Z"/><path d="M123.8,9.59a1.67,1.67,0,1,1,1.67-1.67A1.66,1.66,0,0,1,123.8,9.59Z"/><path d="M139.94,9a10.31,10.31,0,0,1,4.59-1.22A3.16,3.16,0,0,1,148,11a3.27,3.27,0,0,1-3.54,3.22,3.82,3.82,0,0,1-3.23-1.89l.28-.26a3.9,3.9,0,0,0,2.65,1,2.33,2.33,0,0,0,2.55-2.39c0-1.24-.77-2.25-2.59-2.25A9.29,9.29,0,0,0,140,9.93c.07,2.36.27,3,.27,3.6,0,.78-.51,1.65-1.08,1.65s-.46-.56-1-1.07a13.93,13.93,0,0,0-1.75-1.33c-.49.48-.69.7-1,.7a.9.9,0,0,1-.59-.32,1.12,1.12,0,0,1-.36-.84c0-.45.1-.59.51-.56a1.37,1.37,0,0,0,1-.22c.58-.34,1.89-1.36,3.07-2V6.41a10.88,10.88,0,0,1-1.86.29c-.9,0-1.65-.22-2.29-1.86l.27-.2c.85.82,1.14,1,2,1A9,9,0,0,0,139,5.27c0-1.19,0-2.26,0-2.67s-.11-.49-.38-.59a3.73,3.73,0,0,0-1.1-.14l-.06-.31a2.58,2.58,0,0,1,1.31-.39c.7,0,1.86.56,1.86,1s-.26.68-.38,1.22a11.12,11.12,0,0,0-.2,1.53c1.19-.46,1.72-1,2-1s.93,0,1,.54c0,.29-.2.51-.58.7a19.67,19.67,0,0,1-2.5.94c-.05.74-.06,1.51-.06,2.24Zm-.9,1.45a24.64,24.64,0,0,0-2.32,1.95c.61.31,1.35.65,1.82.85s.5,0,.5-.32Zm5.15-7.11a5.33,5.33,0,0,1,2.31-.15,3.11,3.11,0,0,1,2.67,2.52c0,.39-.16.73-.57.76s-.61-.42-1.13-.34a7.11,7.11,0,0,0-1.35.48l-.18-.27a14.68,14.68,0,0,0,1.34-.94.43.43,0,0,0,0-.65c-.63-.91-1.93-1.08-3.09-1Z"/><path d="M153.86,6v9.25c0,.17-.46.51-1.07.51h-.24V.54l1.38.67H157l.66-.73,1.41,1.1a1.27,1.27,0,0,1-.63.29V6.56a1.88,1.88,0,0,1-1.09.38h-.2V6Zm0-4.3V3.31h3.33V1.68Zm3.33,3.81V3.81h-3.33V5.49Zm6,3.23a1.12,1.12,0,0,1-.64.31v4a1.68,1.68,0,0,1-1.07.43h-.22v-1h-3.81v.87a1.55,1.55,0,0,1-1.11.41h-.18v-6l1.36.59h3.58l.67-.73ZM161.29,12V8.84h-3.81V12ZM167.13,1.6a1.24,1.24,0,0,1-.71.32V14c0,1-.22,1.54-1.94,1.7a1.15,1.15,0,0,0-.37-.85,2.57,2.57,0,0,0-1.38-.46v-.26s1.62.12,2,.12.4-.12.4-.39V6h-3.46v.43c0,.13-.56.41-1.11.41h-.17V.61l1.36.6h3.21l.65-.82Zm-5.5.08V3.31h3.46V1.68Zm3.46,3.81V3.81h-3.46V5.49Z"/><path d="M171.52,5.22c0-.94-.2-1.43-1.32-2.26l.13-.24a4.88,4.88,0,0,1,1.23.25c.68.31,1.61,1.13,1.61,1.86s-.68,1.82-.68,3.67a3.59,3.59,0,0,0,1.6,3.35.44.44,0,0,0,.61-.14,25.61,25.61,0,0,0,1.65-3.08l.42.19a29.34,29.34,0,0,0-1,3.15c-.11.83.16.88.16,1.31s-.56.85-1.36.52a5.45,5.45,0,0,1-3.15-5.18C171.4,7.36,171.52,6.1,171.52,5.22Zm7.94-.51.12-.38A5.46,5.46,0,0,1,183,6a5.73,5.73,0,0,1,1.48,3.79c0,.78-.27,1.16-.82,1.16a.67.67,0,0,1-.64-.61A10.79,10.79,0,0,0,182.11,7,4.85,4.85,0,0,0,179.46,4.71Z"/><path d="M196.63.54c0,.21-.27.29-.71.33,1.51,2.14,4.38,3.79,7.27,4.84l0,.24A1.63,1.63,0,0,0,202,7.12a13.74,13.74,0,0,1-6.39-6,20,20,0,0,1-8.23,6.66l-.12-.24c2.89-1.64,6.24-5.08,7.11-7.51Zm2.7,8.08,1.58,1.22a1.38,1.38,0,0,1-.73.34v5a2.21,2.21,0,0,1-1.19.39h-.22V14.43h-7.09v.85c0,.12-.61.44-1.19.44h-.22v-7l1.52.66h6.79ZM197.7,5.18s1,.79,1.63,1.36c-.05.19-.22.26-.46.26h-7.53l-.13-.48h5.59Zm1.07,8.76v-4h-7.09v4Z"/><path d="M211,6.85a9.44,9.44,0,0,1,4.95-1.65,4.08,4.08,0,0,1,4.3,3.93c0,2.48-1.75,4.66-6.48,5.71l-.17-.37c4.29-1.64,5.17-3.83,5.17-5.73a2.89,2.89,0,0,0-3.06-2.93,7.89,7.89,0,0,0-4.79,2,31.22,31.22,0,0,0,.17,4.68c0,.51.08.83.08,1.24,0,.7-.3,1.53-.81,1.53s-.6-.22-.67-.63a5.2,5.2,0,0,0-.32-1.17,12.1,12.1,0,0,0-1.12-1.92l-.92,1.32c-.24.34-.43.61-.71.61s-.55-.27-.55-.68a1.29,1.29,0,0,1,.41-1,42.79,42.79,0,0,0,3.65-4.72c0-.41.07-.82.12-1.21-.54.29-1.1.61-1.48.83s-.51.6-.81.6A2,2,0,0,1,206.42,6a3,3,0,0,1-.07-.77l.29-.1c.28.48.51.75.84.75a13.58,13.58,0,0,0,2.85-1.12c.14-1.13.26-2,.26-2.54a.52.52,0,0,0-.41-.59,4.74,4.74,0,0,0-1-.27V1a3.33,3.33,0,0,1,1.12-.22c.8,0,1.72.8,1.72,1.34,0,.32-.21.54-.38,1.19-.06.24-.18.65-.28,1.15l0,0c.31.15.68.51.68.73s-.17.38-.41.63-.47.55-.71.87Zm-1,5.61c0-.75,0-2.14,0-3.55-.47.71-1,1.49-1.53,2.24.46.56,1,1.17,1.24,1.45S210,12.75,210,12.46Z"/><path d="M232,1.62a3.06,3.06,0,0,1,1.17-.36c.89,0,1.94.71,1.94,1.22,0,.29-.32.43-.36,1s-.06,1.1-.1,1.82a19.47,19.47,0,0,1,2.55-.43c.75,0,1.48.31,1.48.92,0,.41-.29.53-.8.53a18.23,18.23,0,0,0-2.58,0l-.7.09a21.36,21.36,0,0,1-.34,3.4c-.17.8-.61,1.32-1.31,1.32-.29,0-.46-.08-.63-.44-.25-.54-1-.86-1.7-1.19l.12-.34a11.12,11.12,0,0,0,1.92.43.52.52,0,0,0,.6-.44,18.78,18.78,0,0,0,.24-2.57c-1.6.29-3.44.71-4.66,1.07-.07,1.46-.1,3.08-.07,3.82.05,1.7.39,2,2.55,2a26.39,26.39,0,0,0,4-.46c.61,0,1.15.24,1.15.73s-.22.55-.8.68a19.32,19.32,0,0,1-3.85.29c-2.57,0-4-.53-4.07-2.53-.05-1,0-2.55-.05-4.13a25.73,25.73,0,0,1-3.07,1.1c-.5,0-1.16-.61-1.43-1.26a2.29,2.29,0,0,1-.1-.95l.25-.1c.29.44.72.88,1.12.88A31,31,0,0,0,227.67,7c0-1.14,0-2.16,0-2.69s-.13-.59-.41-.71a3.63,3.63,0,0,0-1-.19l0-.34a3.64,3.64,0,0,1,1.22-.29c.77,0,1.89.67,1.89,1.14S229,4.3,229,5c0,.36-.06,1-.1,1.68,1.19-.28,3.2-.76,4.66-1.08,0-1,0-2.3,0-3a.54.54,0,0,0-.46-.51,7.85,7.85,0,0,0-1-.13Z"/><path d="M245.83,8.31c-.32.9-1,2.77-1.23,3.39a5.28,5.28,0,0,0-.23,1.2c0,.55.25,1.09.25,1.55a.56.56,0,0,1-.59.64c-.34,0-.63-.28-.9-.69a7.65,7.65,0,0,1-1-4.05,17.43,17.43,0,0,1,.8-4.71,9.42,9.42,0,0,0,.43-2,3.09,3.09,0,0,0-1-1.91l.25-.2a2.79,2.79,0,0,1,1,.53,3.05,3.05,0,0,1,1.22,2c0,.39-.26.71-.66,1.66A11.49,11.49,0,0,0,243,10.15a3.31,3.31,0,0,0,.27,1.56c.11.22.26.24.41,0,.37-.58,1.29-2.72,1.7-3.58Zm6.76-2.05c0,1.7.14,3.28.24,4.5a6.37,6.37,0,0,1,2.82,1.55,1.38,1.38,0,0,1,.55,1c0,.41-.19.65-.53.65s-.51-.22-.9-.58A7.47,7.47,0,0,0,252.92,12c0,.14,0,.27,0,.39,0,1.4-.86,2.3-3,2.3-1.51,0-2.77-.73-2.77-2,0-1.5,1.57-2.18,3.44-2.18a7.63,7.63,0,0,1,1.1.07c-.05-1.19-.15-2.89-.17-4.27a12.74,12.74,0,0,1-1.83.14c-1.06,0-1.81-.2-2.71-1.68l.24-.23a3.88,3.88,0,0,0,2.35.86,9.77,9.77,0,0,0,2-.19V3.06c0-.48-.08-.56-.34-.65a5.77,5.77,0,0,0-1.2-.2l0-.32a3.46,3.46,0,0,1,1.33-.43c.85,0,1.78.51,1.78.92a10.77,10.77,0,0,1-.27,1.19,10.05,10.05,0,0,0-.15,1.34c.3-.1.56-.18.76-.27.87-.31,1.16-.51,1.31-.51.41,0,1,.22,1,.61s-.25.53-.86.77a18.7,18.7,0,0,1-2.25.58Zm-.86,5.28a7.49,7.49,0,0,0-1.77-.2c-1,0-2.11.42-2.11,1.2s.77,1,1.72,1c1.82,0,2.16-.66,2.16-2Z"/><path d="M37.19,23h5.27v.61H37.83V34h-.64Z"/><path d="M47.35,26.93a2.73,2.73,0,0,0,1.74.83,30.33,30.33,0,0,0,3.75-.39,8.5,8.5,0,0,0,2.81-.83c.71,0,1.82.44,1.82.86s-.19.55-.7.61-2.62.28-4.27.45c.58.25,1,.58,1,.92s-.24.61-.31,1.1c-.08.73-.2,2.16-.27,3.35,1.24-.1,2.47-.21,3.47-.26a9,9,0,0,0,1.24-.22c.75,0,2.19.68,2.19,1.31a.52.52,0,0,1-.59.56,31.26,31.26,0,0,0-3.69-.49,30.63,30.63,0,0,0-7.07.7,8.63,8.63,0,0,1-1.5.44c-.54,0-1.39-.83-1.59-1.24a2.18,2.18,0,0,1-.21-1l.29-.11a1.94,1.94,0,0,0,1.43.85c.58,0,2.6-.21,4.79-.41.07-1.23.12-3,.12-3.78a2.28,2.28,0,0,0-.49-1.56c-1.14.17-2,.34-2.45.34a1.64,1.64,0,0,1-1.12-.68,3.79,3.79,0,0,1-.7-1.17Z"/><path d="M68.23,24.21a3.85,3.85,0,0,1,1.07,0c.8.12,1.8.68,1.8,1s-.22.46-.49.89-.39.63-.61.93a1.14,1.14,0,0,0,.25,0,25.36,25.36,0,0,0,3.27-.37c.45-.11.62-.43.93-.43s1.7.75,1.7,1.28c0,.37-.58.51-.85,1a21.13,21.13,0,0,1-10.84,9.72l-.26-.36c4.37-2.27,8.35-6.64,9.71-10.06.06-.22,0-.29-.17-.29a21.31,21.31,0,0,0-2.54.41,4,4,0,0,1-1,.22,1.61,1.61,0,0,1-.75-.41,15.21,15.21,0,0,1-5.2,4.42l-.24-.34c2.67-2,5.1-5.44,5.1-6.44,0-.32-.44-.63-1-.88Z"/><path d="M89.84,32.32A17.59,17.59,0,0,0,92.33,29c.12-.21,0-.32-.2-.29a45.4,45.4,0,0,0-4.86,1.48c-.09,1.42-.12,3-.12,4,0,1.43.24,1.56,2.16,1.56a15.5,15.5,0,0,0,3.52-.41c.54,0,1.31.22,1.31.73s-.34.55-.8.63a20,20,0,0,1-3.45.33c-2.79,0-3.83-.21-3.85-2.52,0-1.12,0-2.74,0-3.87-.77.27-1.68.61-2.31.88s-.73.58-1.24.58a2.86,2.86,0,0,1-1.67-1.28,2,2,0,0,1-.1-1l.25-.09c.34.48.65.84,1.11.84a26.9,26.9,0,0,0,4-1c0-1.37.06-3.06,0-3.72,0-.42-.54-.54-1.37-.69l0-.31a4.16,4.16,0,0,1,1.38-.29c.71,0,1.85.68,1.85,1.1s-.34.63-.43,1.19-.13,1.35-.2,2.37L91.76,28c.51-.16.68-.48.95-.48.56,0,1.83,1,1.83,1.5s-.57.47-1,.83a22.78,22.78,0,0,1-3.48,2.79Z"/><path d="M100.53,26.11a3.5,3.5,0,0,1,1.26-.39c.78,0,1.95.85,1.95,1.29s-.37.58-.42,1.12c-.1.92-.21,5.32-.21,6.91,0,.17.06.22.21.18a26.67,26.67,0,0,0,9.45-6.13l.3.3a24.29,24.29,0,0,1-9,7.19c-.57.29-.58.72-1,.72s-1.45-1.06-1.45-1.5c0-.29.31-.54.33-1.12.05-1.17.07-6.17,0-7.45,0-.37-.17-.58-1.37-.83Z"/><path d="M130.48,27.28l.38.24a25.3,25.3,0,0,1-8.94,8.86c-.4.24-.6.69-1,.69a3.38,3.38,0,0,1-2.17-1.41,3.48,3.48,0,0,1-.34-1.24l.25-.17c.48.53,1,1.11,1.6,1.11C121.71,35.36,128.05,30.82,130.48,27.28Zm-11.76-1.61c2.06.46,4.52,1.56,4.52,3a.73.73,0,0,1-.73.78c-.36,0-.63-.22-1.05-.76A11.2,11.2,0,0,0,118.52,26Z"/><path d="M138.51,24.63a5,5,0,0,1,1.2-.29c.77,0,2,.7,2,1.14s-.33.49-.39,1.06a27.46,27.46,0,0,0-.16,2.89,13.37,13.37,0,0,1,4.22,1.44,1.8,1.8,0,0,1,1,1.43.68.68,0,0,1-.69.73c-.69,0-.86-.7-1.95-1.6A12,12,0,0,0,141.19,30c0,1.33,0,4,0,5.68,0,.78.05,1.31.05,1.58,0,.58-.17.81-.63.81-.66,0-1-.91-1-1.7,0-.39.15-.73.22-1.41.14-1.25.14-3.89.14-5.11,0-1.38,0-3.3-.12-4.13-.07-.55-.49-.68-1.33-.78Z"/><path d="M153.37,28.87l.15-.36a16.4,16.4,0,0,1,2.28.61c1.08.39,1.87,1,1.87,1.78a.59.59,0,0,1-.62.63c-.61,0-.9-.64-1.75-1.32A10.38,10.38,0,0,0,153.37,28.87Zm12.85-1,.35.24c-1.87,3.42-5.52,6.55-9.28,8.65-.39.24-.58.72-1.07.72a3.47,3.47,0,0,1-2.09-1.34,3.13,3.13,0,0,1-.37-1.3l.25-.15c.43.51,1,1.11,1.57,1.11C157,35.77,163.19,31.89,166.22,27.84Zm-10.61-2.32.17-.38a16.53,16.53,0,0,1,2.21.63c1.16.49,1.82,1.05,1.82,1.79a.64.64,0,0,1-.61.66c-.57,0-.89-.68-1.79-1.43A10.41,10.41,0,0,0,155.61,25.52Z"/><path d="M171.18,28.59c.36.45.68.85,1.14.85,1.16,0,5.68-.68,8.55-1a16.81,16.81,0,0,0,1.72-.31c.8,0,1.82.43,1.82,1,0,.36-.14.51-.55.51s-1-.13-1.88-.13-2.1,0-3.54.18c.49.29.9.62.9.92s-.41.46-.65,1.06a11.41,11.41,0,0,1-5.93,6.66l-.32-.34a10.83,10.83,0,0,0,5-7.51,1.08,1.08,0,0,0-.24-.67c-1.34.19-2.8.46-3.33.6a8,8,0,0,1-1.46.39c-.44,0-1.24-.7-1.41-1.21a2.39,2.39,0,0,1-.12-.91ZM173.7,25a2.8,2.8,0,0,0,1.71.61,14.53,14.53,0,0,0,3.11-.42c1-.22,1.19-.49,1.52-.49.83,0,1.46.29,1.46.78,0,.27-.19.44-.73.54a33.33,33.33,0,0,1-5.31.7c-.91,0-1.41-.55-2-1.51Z"/><path d="M196.14,27.69a2.93,2.93,0,0,1,1,.1c.61.21,1.33.85,1.33,1.26s-.28.34-.63.7c-.46.51-1.09,1.19-1.89,1.94.39.27.7.51.7.73s-.12.41-.14.75c-.07,1.81,0,3.7,0,4.4,0,.52-.2.8-.59.8-.58,0-.85-.65-.85-1.21,0-.24.1-.51.14-.94a30.37,30.37,0,0,0,.15-3.41,1.54,1.54,0,0,0-.12-.53,17.72,17.72,0,0,1-5,3l-.17-.28c3.47-2,6.73-5.57,6.73-6.35,0-.27-.39-.55-.75-.72Z"/><path d="M211.32,27.64c-.1.17-.26.26-.68.19a20.1,20.1,0,0,1-1.48,1.77l.58.22a.66.66,0,0,1-.51.3v8.23a1.6,1.6,0,0,1-1.11.41h-.25V30.87A19,19,0,0,1,205.2,33l-.19-.19a24.84,24.84,0,0,0,4.47-6.13Zm-.24-3.48c-.1.17-.27.23-.65.17a20.14,20.14,0,0,1-4.91,3.75l-.17-.18a20.13,20.13,0,0,0,4-4.78Zm8.36,3.33s1,.78,1.6,1.34c0,.19-.2.27-.44.27h-2.72v7.63c0,1-.31,1.79-2.31,1.94a1.22,1.22,0,0,0-.5-1,4.52,4.52,0,0,0-1.95-.55v-.25s2.45.17,2.91.17.47-.12.47-.38V29.1h-5.37l-.13-.49h7.59Zm-7.37-2.3-.14-.51h6l.87-1.08s1,.78,1.56,1.32c0,.19-.22.27-.46.27Z"/><path d="M228.27,27.44c-.1.18-.26.27-.67.23a19.92,19.92,0,0,1-1.2,1.89l.64.24a.63.63,0,0,1-.49.31v8.17a1.42,1.42,0,0,1-1.09.48h-.25V31.09a15.34,15.34,0,0,1-2.13,2.06L222.9,33a22.38,22.38,0,0,0,3.43-6.43Zm-.12-3.39c-.12.19-.26.28-.67.19a17.75,17.75,0,0,1-4.33,3.83l-.17-.19a20.17,20.17,0,0,0,3.4-4.79Zm1.2,10a3.65,3.65,0,0,1-.64,3.33.87.87,0,0,1-1.31,0,.83.83,0,0,1,.41-1A3.57,3.57,0,0,0,229.07,34Zm.34-2.08v.65c0,.08-.4.35-1,.35h-.21V27.25l1.43.59h2.5V26H228l-.14-.5h4.54V23.24l2,.2c0,.24-.18.41-.63.46v1.63h2.6l.87-1.1s1,.76,1.62,1.32a.43.43,0,0,1-.45.28h-4.64v1.81h2.91l.59-.71,1.33,1a.87.87,0,0,1-.61.29v4a1.44,1.44,0,0,1-1.06.34h-.2v-.77Zm0-3.62v3.13h1.55V28.32Zm6.16,8.86c.37.13.46.29.46.52,0,.53-.53.77-2.82.77H232c-1.27,0-1.49-.27-1.49-1.14V33.44l1.71.18c0,.21-.17.36-.46.41v3c0,.2,0,.25.53.25h2.52a.32.32,0,0,0,.32-.18,17.24,17.24,0,0,0,.48-1.72h.22ZM231.7,32.4c3.86.51,3.16,3.18,1.84,2.45a5.3,5.3,0,0,0-2-2.3Zm2.21-.95V28.32h-1.62v3.13ZM235,28.32v3.13h1.68V28.32Zm.83,5.25c4.23,1.82,3.11,4.86,1.79,3.81a7.38,7.38,0,0,0-2-3.67Z"/><path d="M241.92,33.34c1.19,4.87-1.94,4.35-1,2.92a4.84,4.84,0,0,0,.74-2.92Zm7-1.59a.94.94,0,0,1-.68.26c-.19,3.4-.63,5.08-1.34,5.69a2.45,2.45,0,0,1-1.6.5,1.06,1.06,0,0,0-.24-.8,2.07,2.07,0,0,0-1-.41v-.27c.49,0,1.26.1,1.56.1a.72.72,0,0,0,.58-.17c.41-.36.77-1.9.94-4.79H243v.56a1.12,1.12,0,0,1-1,.39h-.18v-9l1.36.57h3.48l.8-1s.88.68,1.43,1.19a.41.41,0,0,1-.44.26h-2.83v1.83h1l.68-.86s.78.61,1.26,1.09c0,.18-.21.27-.43.27h-2.52V29h.94l.7-.88s.78.63,1.27,1.1c-.05.19-.2.27-.44.27h-2.47v1.89h1.28l.66-.7Zm-6,1.43c1.74,2.16.65,4-.08,3.13a8.69,8.69,0,0,0-.16-3.08Zm.05-8.36v1.83h1.52V24.82Zm1.52,2.33H243V29h1.52ZM243,31.38h1.52V29.49H243Zm1,1.51c2.28,1.65,1.34,3.42.56,2.64a6,6,0,0,0-.8-2.55Zm1-.37c2.5.75,1.75,2.53.9,1.92a3.51,3.51,0,0,0-1.09-1.78Zm7.16-2.28c.71,3.15,2.31,5.92,4.71,7l0,.2a1.62,1.62,0,0,0-1.12,1.24c-2.31-1.68-3.37-4.5-3.89-8.48h-.94c-.05,2.91-.49,6.24-3.21,8.52l-.25-.17c2-2.57,2.2-5.87,2.2-9.11v-5.7l1.5.61h3.3l.68-.76,1.49,1.14a1.17,1.17,0,0,1-.69.34v5.76a1.81,1.81,0,0,1-1.12.41h-.19v-1Zm-1.28-.49h3.71V24.89h-3.71v4.86Z"/><path d="M272.77,25.13s1.07.83,1.7,1.41c-.05.18-.2.27-.44.27H258.9l-.15-.5h5.44a1.2,1.2,0,0,1-.41-.18,6,6,0,0,0-1.73-2.86l.18-.13c3.37.83,3.23,3,2.28,3.17h3.25a22,22,0,0,0,1.51-3.24l2.09.58c-.07.2-.27.34-.65.34a21.27,21.27,0,0,1-2.44,2.32h3.58ZM265,27.79,266.57,29a1.31,1.31,0,0,1-.73.34v7.76c0,1-.19,1.53-1.74,1.69a1.4,1.4,0,0,0-.25-.9,1.77,1.77,0,0,0-1.09-.44v-.26s1.17.1,1.46.1.31-.1.31-.32V34.3h-3v4c0,.16-.51.48-1.08.48h-.22V28l1.38.6h2.74Zm-3.48,1.28v2.06h3V29.07Zm3,4.74V31.6h-3v2.21Zm4.72,1.85c0,.14-.54.39-1,.39H268V28.29l1.9.2c0,.22-.18.41-.63.46Zm2.35-7.8,1.92.19c0,.24-.2.39-.61.44V37c0,1-.22,1.6-2,1.77a1.32,1.32,0,0,0-.38-.9,3.28,3.28,0,0,0-1.47-.48v-.25s1.76.14,2.14.14.39-.11.39-.35Z"/><path d="M281.82,38.83h-5.27v-.62h4.62V27.83h.65Z"/><path d="M74.79,50.17c1.07,0,6.17-.55,7-.72.51-.12.6-.37.94-.37.58,0,2,1.14,2,1.66s-.53.6-.78,1.16a16.53,16.53,0,0,1-10.08,9.28l-.24-.37c4.81-2.45,8-6.24,9-10.15.07-.22,0-.26-.19-.26a62.09,62.09,0,0,0-6.34,1c-.46.1-.83.4-1.19.4-.57,0-1.41-.88-1.58-1.37a4.84,4.84,0,0,1-.15-1l.31-.12C73.79,49.67,74.18,50.17,74.79,50.17Zm9.08-2.11a1.82,1.82,0,1,1,1.82,1.82A1.81,1.81,0,0,1,83.87,48.06Zm.59,0a1.22,1.22,0,0,0,1.23,1.22,1.22,1.22,0,1,0-1.23-1.22Z"/><path d="M91.33,49.71a3.66,3.66,0,0,1,2.14.85s0,0,.07.06c1.7-.1,5.53-.44,6.21-.54s.73-.49,1.1-.49,1.82,1.07,1.82,1.58-.56.56-.68,1c-.17.82-.53,2.87-.88,4.63.59,0,1.07.32,1.07.69a.52.52,0,0,1-.58.58c-.44,0-1.33-.12-2.16-.12-1.33,0-3.54.12-5.51.26v.57c0,.45-.15.73-.59.73s-.82-.54-.82-1.27c0-.37.07-1.29,0-2a30.7,30.7,0,0,0-.47-4.88,2.62,2.62,0,0,0-1-1.44Zm8.5,7.15a55.47,55.47,0,0,0,.7-5.62c0-.14,0-.21-.22-.21-1,0-3.61.21-4.54.31-.55.07-1.06.24-1.38.24a1.86,1.86,0,0,1-.71-.24c0,1.15.17,4.25.22,5.93C95.63,57.13,98.22,56.93,99.83,56.86Z"/><path d="M108.54,52.14l.15-.36a16,16,0,0,1,2.28.61c1.09.39,1.87,1,1.87,1.79a.6.6,0,0,1-.61.63c-.62,0-.91-.65-1.76-1.33A10.38,10.38,0,0,0,108.54,52.14Zm12.85-1,.35.24c-1.86,3.41-5.52,6.54-9.28,8.65-.39.24-.57.71-1.07.71a3.47,3.47,0,0,1-2.09-1.34,3.13,3.13,0,0,1-.37-1.29l.25-.16c.43.51,1,1.11,1.57,1.11C112.14,59,118.36,55.16,121.39,51.12Zm-10.61-2.33.17-.38a18.18,18.18,0,0,1,2.21.63c1.16.5,1.82,1.06,1.82,1.79a.64.64,0,0,1-.61.66c-.56,0-.89-.68-1.79-1.43A11,11,0,0,0,110.78,48.79Zm8.41,1.09a8.5,8.5,0,0,0-1.54-1.65l.22-.27a6.09,6.09,0,0,1,2,1.15,1.42,1.42,0,0,1,.58,1,.49.49,0,0,1-.51.51C119.72,50.62,119.53,50.3,119.19,49.88Zm1.72-1.38a9.35,9.35,0,0,0-1.55-1.5l.21-.27a6.51,6.51,0,0,1,2,1,1.39,1.39,0,0,1,.63,1,.44.44,0,0,1-.46.49C121.47,49.26,121.27,48.92,120.91,48.5Z"/><path d="M128.83,52.77a2.18,2.18,0,0,0,1.36.62,19.45,19.45,0,0,0,2.84-.3,7.27,7.27,0,0,0,2.08-.65c.61,0,1.56.39,1.56.77s-.15.51-.58.54-1.8.15-3.16.31c.44.18.78.44.78.75s-.15.52-.2.85c-.09.54-.19,1.49-.26,2.38.9-.09,1.75-.16,2.42-.19a6.33,6.33,0,0,0,1-.21c.62,0,1.81.62,1.81,1.13a.49.49,0,0,1-.53.51,26.26,26.26,0,0,0-3.16-.41,21.78,21.78,0,0,0-4.9.51,7.42,7.42,0,0,1-1.27.37c-.46,0-1.18-.7-1.33-1a2.06,2.06,0,0,1-.15-.82l.2-.08a1.6,1.6,0,0,0,1.17.63c.5,0,2-.16,3.59-.29.05-.89.09-2.08.09-2.72a2,2,0,0,0-.33-1.24c-.86.11-1.46.25-1.81.25a1.36,1.36,0,0,1-.94-.59,3.52,3.52,0,0,1-.49-.94Z"/><path d="M148.55,47.21a3.92,3.92,0,0,1,1.08,0c.79.12,1.8.68,1.8,1s-.22.46-.5.89a9.29,9.29,0,0,1-.61.93,1.18,1.18,0,0,0,.26,0,25.19,25.19,0,0,0,3.26-.37c.46-.11.63-.43.94-.43s1.7.75,1.7,1.28c0,.37-.58.51-.85.95a21.12,21.12,0,0,1-10.85,9.72l-.25-.36c4.36-2.27,8.34-6.64,9.7-10.06.07-.22,0-.29-.17-.29a21.5,21.5,0,0,0-2.53.41,4.1,4.1,0,0,1-.95.22,1.56,1.56,0,0,1-.75-.41,15.4,15.4,0,0,1-5.2,4.42l-.24-.34c2.67-2,5.1-5.44,5.1-6.44,0-.32-.44-.63-1-.88Z"/><path d="M165.28,47.63a5,5,0,0,1,1.21-.29c.76,0,2,.7,2,1.14s-.32.49-.39,1.06c-.1.76-.13,1.92-.15,2.89a13.22,13.22,0,0,1,4.21,1.44,1.8,1.8,0,0,1,1,1.43.67.67,0,0,1-.68.73c-.7,0-.87-.7-1.95-1.6A12,12,0,0,0,168,53c0,1.33,0,4,0,5.68,0,.78.05,1.31.05,1.58,0,.58-.17.81-.63.81-.66,0-1-.91-1-1.7,0-.39.15-.73.22-1.41.13-1.25.13-3.89.13-5.11,0-1.38,0-3.3-.11-4.13-.07-.55-.5-.68-1.33-.78Z"/><path d="M178.44,48.38c3.48.29,2.6,2.72,1.34,2a4.44,4.44,0,0,0-1.49-1.87Zm13.94,8s1.07.82,1.72,1.41a.45.45,0,0,1-.46.26H187v3.31c0,.15-.62.41-1.14.41h-.26V58h-6.9l-.15-.5h7.05v-1.7a1.64,1.64,0,0,1-.88.22h-.22V50.28a10,10,0,0,1-1.94,1.62l-.22-.2a14.32,14.32,0,0,0,3.16-5.7l1.87.71c-.07.19-.27.34-.65.29a13.66,13.66,0,0,1-.71,1.31h2.18a19.23,19.23,0,0,0,.59-2.22l2,.49c-.05.2-.24.36-.61.34a12,12,0,0,1-1.38,1.39h2.57l.85-1.05s1,.73,1.57,1.27c0,.19-.21.27-.46.27h-3.79v1.57H191l.78-1s.89.71,1.45,1.22c0,.19-.21.27-.44.27h-3.28v1.63H191l.78-1s.89.74,1.43,1.24c-.05.17-.22.26-.46.26h-3.29v1.68h2.27l.84-1.07s1,.75,1.53,1.29a.42.42,0,0,1-.45.28h-7.88v.49s0,.08-.12.15l1.78.17c0,.17-.15.31-.47.38v1.2h4.48Zm-12.82-3.64c.22,0,.29,0,.49-.27.36-.46.36-.46,3.51-4.69l.25.13c-.66,1.21-2.28,3.8-2.53,4.32a2.66,2.66,0,0,0-.36,1.11c0,.56.48,1.07.43,2a.89.89,0,0,1-1,.93c-.29,0-.51-.22-.58-.64.17-1.35.08-2.18-.27-2.38a2.35,2.35,0,0,0-.8-.21v-.34Zm.27-6.58c3.52.43,2.59,2.88,1.35,2.11a4.69,4.69,0,0,0-1.5-2Zm5.94,2.65v1.57h2.38V48.8Zm2.38,2.06h-2.38v1.63h2.38Zm0,2.11h-2.38v1.68h2.38Z"/><path d="M199.91,51c0,.14-.22.26-.53.29v10.1a1.54,1.54,0,0,1-1,.39h-.2V52.6a15.59,15.59,0,0,1-1.72,2.31l-.25-.16a31.8,31.8,0,0,0,3.09-8.66l2,.59c-.07.2-.26.36-.65.36a25.38,25.38,0,0,1-1.43,3.63Zm10.56-1.31s1,.75,1.56,1.31c0,.17-.2.26-.42.26h-9.42v2.46c0,2.32-.1,5.75-2.18,8l-.2-.17C201,59.16,201,56.2,201,53.68V50.13l1.41.6h7.22Zm-9.64-1.49h2.89V46.07l1.82.19c0,.23-.17.4-.56.45v1.45h2.38V46.07l1.83.19c0,.22-.18.4-.59.45v1.45h1.26l.74-.95A14.84,14.84,0,0,1,212,48.4a.4.4,0,0,1-.42.27h-3v1.17c0,.09-.31.31-1,.33h-.22v-1.5H205v1.24c0,.1-.38.31-1,.31h-.22V48.67H201Zm9.3,3.69L211.67,53a1.23,1.23,0,0,1-.71.35V60c0,1-.17,1.53-1.65,1.69a1.65,1.65,0,0,0-.25-.92,1.4,1.4,0,0,0-1-.43v-.27s1,.09,1.29.09.31-.11.31-.31V58.05h-2.18v3.11a1.13,1.13,0,0,1-1,.38h-.2V58.05h-2.13v3.23c0,.14-.49.43-1,.43H203V52l1.3.59h5.22Zm-5.92,1.24V55h2.13V53.09Zm2.13,4.47v-2h-2.13v2Zm1.17-4.47V55h2.18V53.09Zm2.18,4.47v-2h-2.18v2Z"/><path d="M228.06,59.62s1,.78,1.67,1.34c0,.19-.21.25-.44.25H214.4l-.16-.47h7V57.9H216l-.14-.48h5.42V55.06l2,.19c0,.24-.17.39-.57.46v1.71h3.19l.85-1.05s1,.73,1.58,1.27a.42.42,0,0,1-.44.26h-5.18v2.84h4.52Zm1.75-10.82c-.12.14-.3.16-.63.17a9.83,9.83,0,0,1-1.9,1.48c.2.17.41.34.58.5-.05.17-.22.25-.46.25h-5.66A17,17,0,0,1,219.19,54c1.87-.08,4.11-.22,6.41-.37a17.3,17.3,0,0,0-1.92-1.67l.17-.17c5.35,1.53,4.82,4.56,3.33,3.83A8.16,8.16,0,0,0,226,54c-2.29.43-5.25.89-9.26,1.38a.75.75,0,0,1-.46.36l-.68-1.64c.72,0,1.74,0,3-.08A15.08,15.08,0,0,0,220,51.2h-3.43l-.16-.47h9.1l.83-1s.34.24.73.56a14.53,14.53,0,0,0,.6-1.54H216.57a2.58,2.58,0,0,1-.75,2.1.9.9,0,0,1-1.31-.08.88.88,0,0,1,.45-1.07A3.05,3.05,0,0,0,216,47.22h.26a6.35,6.35,0,0,1,.24,1h4.72V46.09l2,.18c0,.24-.19.41-.61.48v1.48h5l.76-.78Z"/><path d="M232.06,54l.25-.21a2.14,2.14,0,0,0,1.07.6,1.38,1.38,0,0,0,.85-.48c.8-.73,2.27-2.34,2.88-3a1.62,1.62,0,0,1,1.19-.62,2.11,2.11,0,0,1,1.56.74c1.87,1.84,3.5,4.25,6.8,6.06a1.37,1.37,0,0,1,.78,1.22.61.61,0,0,1-.66.68c-.73,0-2.18-1.11-3.62-2.58s-2.77-3.32-4-4.61a1.21,1.21,0,0,0-.83-.44c-.2,0-.41.15-.68.46-.59.71-1.8,2.38-2.41,3.21-.41.58-.66,1-1.18,1a2.49,2.49,0,0,1-1.63-1A2.38,2.38,0,0,1,232.06,54Z"/><path d="M54.51,92.79c0-10,3.92-14.93,9.84-14.93s9.79,4.94,9.79,14.93S70.23,108,64.35,108,54.51,102.78,54.51,92.79Zm14.19,0c0-8.11-1.88-10.46-4.35-10.46S60,84.68,60,92.79s1.88,10.66,4.39,10.66S68.7,100.94,68.7,92.79Z"/><path d="M79.86,102.74h6.23V84.4H80.84V80.84a18.94,18.94,0,0,0,6.74-2.43h4.27v24.33H97.3v4.66H79.86Z"/><path d="M102.19,104.07c7.88-7,12.54-12.5,12.54-17,0-2.94-1.6-4.71-4.35-4.71-2.11,0-3.88,1.38-5.33,3l-3.13-3.13c2.66-2.82,5.25-4.39,9.21-4.39,5.48,0,9.13,3.52,9.13,8.93,0,5.25-4.35,10.9-9.64,16.07,1.45-.16,3.37-.32,4.7-.32h6.31v4.86H102.19Z"/><path d="M126.09,92.79c0-10,3.92-14.93,9.84-14.93s9.79,4.94,9.79,14.93S141.8,108,135.93,108,126.09,102.78,126.09,92.79Zm14.19,0c0-8.11-1.88-10.46-4.35-10.46s-4.39,2.35-4.39,10.46,1.88,10.66,4.39,10.66S140.28,100.94,140.28,92.79Z"/><path d="M150.15,94.12h10.69v4.11H150.15Z"/><path d="M166.72,102.74H173V84.4H167.7V80.84a18.94,18.94,0,0,0,6.74-2.43h4.27v24.33h5.45v4.66H166.72Z"/><path d="M202.37,83.23h-13V78.41H208.6v3.48C201.86,90.12,201,96,200.49,107.4h-5.84C195.16,97.33,196.85,90.91,202.37,83.23Z"/><path d="M214.44,102.74h6.23V84.4h-5.25V80.84a18.94,18.94,0,0,0,6.74-2.43h4.27v24.33h5.45v4.66H214.44Z"/><path d="M237,94.12H247.7v4.11H237Z"/><path d="M253.58,102.74h6.23V84.4h-5.25V80.84a18.94,18.94,0,0,0,6.74-2.43h4.27v24.33H271v4.66H253.58Z"/><path d="M276.07,100.19c0-3.72,2.27-6.11,5-7.56v-.19a8.29,8.29,0,0,1-3.84-6.9c0-4.66,3.69-7.64,8.74-7.64s8.43,3.09,8.43,7.72a8.45,8.45,0,0,1-3.73,6.62v.2a8.41,8.41,0,0,1,4.86,7.75c0,4.39-3.88,7.76-9.75,7.76C280.22,108,276.07,104.74,276.07,100.19Zm14.06-.19c0-3-2.66-4.27-6.42-5.8A7,7,0,0,0,281,99.57c0,2.62,2.16,4.31,4.86,4.31C288.33,103.88,290.13,102.51,290.13,100Zm-.47-14a3.7,3.7,0,0,0-3.84-4,3.38,3.38,0,0,0-3.52,3.61c0,2.74,2.23,4.07,5.29,5.29A7,7,0,0,0,289.66,86Z"/><path d="M299.81,92.79c0-10,3.92-14.93,9.83-14.93s9.8,4.94,9.8,14.93S315.52,108,309.64,108,299.81,102.78,299.81,92.79Zm14.18,0c0-8.11-1.88-10.46-4.35-10.46s-4.38,2.35-4.38,10.46,1.88,10.66,4.38,10.66S314,100.94,314,92.79Z"/><path d="M46.11,102.76a2.64,2.64,0,1,0,2.63,2.64A2.64,2.64,0,0,0,46.11,102.76Zm0,5a2.33,2.33,0,1,1,2.32-2.33A2.33,2.33,0,0,1,46.11,107.73Z"/><path d="M46.85,105.1a.87.87,0,0,0,.21-.57.83.83,0,0,0-.29-.67,1.17,1.17,0,0,0-.78-.24H45v3.49h.41v-1.59h.45l1,1.59h.5l-1.11-1.68A1.11,1.11,0,0,0,46.85,105.1Zm-1.44.07V104h.52c.47,0,.71.19.71.58a.57.57,0,0,1-.2.44.73.73,0,0,1-.52.18Z"/><path d="M10.61,101.5a5.22,5.22,0,0,0,5.18-5.41c0-2.84-2.8-5.1-5.18-6.45C8.22,91,5.42,93.25,5.42,96.09A5.22,5.22,0,0,0,10.61,101.5Z"/><path d="M31.69,101.45A5.23,5.23,0,0,0,36.88,96c0-2.83-2.81-5.09-5.19-6.45C29.3,90.93,26.5,93.19,26.5,96A5.23,5.23,0,0,0,31.69,101.45Z"/><path d="M0,84.44a23.93,23.93,0,0,1,10.66,2.4,22.74,22.74,0,0,1,10.43-2.41,22.68,22.68,0,0,1,10.43,2.41,24.06,24.06,0,0,1,10.68-2.4V80.15H0Z"/><path d="M39.29,96.09a7.84,7.84,0,0,1-7.77,7.77,7.73,7.73,0,0,1-7.64-7.77c0-3.34,2.41-6,5-7.72a20.6,20.6,0,0,0-15.58,0c2.59,1.74,5,4.38,5,7.72a7.74,7.74,0,0,1-7.65,7.77,7.88,7.88,0,0,1-7.82-7.77c0-3.34,2.58-6,5.19-7.72a21.52,21.52,0,0,0-8-1.52v20.84H42.2V86.85a21.56,21.56,0,0,0-8,1.52C36.77,90.11,39.29,92.75,39.29,96.09Z"/><path class="cls-1" d="M31.52,122.89v2.34h-.85v-1.57H22.49v1.57h-.83v-2.34h1.69a9.74,9.74,0,0,0-1-1.39l.75-.33a6.89,6.89,0,0,1,1.12,1.55l-.36.17h2.34a8.91,8.91,0,0,0-.89-1.64l.78-.26a8,8,0,0,1,.94,1.68l-.59.22h2.18a11.3,11.3,0,0,0,1.22-1.78l.93.31a17.55,17.55,0,0,1-1.17,1.47Zm-4.68,4.45c-.12.34-.25.66-.38,1h4.22V132H29.8v-.45H23.43V132h-.84V128.3h3c.09-.3.2-.65.27-1H23.42v-2.77h6.32v2.77Zm3,1.74H23.43v1.63H29.8Zm-5.54-2.43h4.62v-1.38H24.26Z"/><path class="cls-1" d="M39.76,129.11A11,11,0,0,0,44,131a3.26,3.26,0,0,0-.59.79,11.15,11.15,0,0,1-4.51-2.46V132h-.88v-2.56a12,12,0,0,1-4.47,2.37A3.83,3.83,0,0,0,33,131a11.46,11.46,0,0,0,4.24-1.89H33.32v-.76h4.74v-.89H34.45v-.68h3.61v-.88H33.85v-.73h2.62a5.13,5.13,0,0,0-.59-1.2l.42-.08H33.37v-.77h1.91a9.49,9.49,0,0,0-1-1.74l.76-.25a8.61,8.61,0,0,1,1,1.76l-.62.23H37V121h.83v2.12h1.42V121h.84v2.12h1.45l-.44-.14a13.55,13.55,0,0,0,.91-1.83l.91.24a15.45,15.45,0,0,1-1,1.73H43.7v.77H41.3c-.24.45-.51.92-.75,1.28h2.73v.73H38.94v.88h3.75v.68H38.94v.89h4.81v.76Zm-3-5.22a4.8,4.8,0,0,1,.6,1.2l-.39.08h2.82l-.12,0a9.06,9.06,0,0,0,.61-1.25Z"/><path class="cls-1" d="M48.87,129.61H46.29v1h-.81v-8.79h3.39Zm-2.58-7v2.67H48v-2.67ZM48,128.81V126H46.29v2.77Zm6.49-3.28v1.36h1.39v.79H54.52v3.21c0,.51-.13.77-.49.9a6.84,6.84,0,0,1-1.94.15,2.94,2.94,0,0,0-.29-.83c.74,0,1.4,0,1.59,0s.27-.06.27-.24v-3.2H49.13v-.79h4.53v-1.36H49.07v-.79h3v-1.52h-2.5v-.79h2.5V121H53v1.43h2.58v.79H53v1.52H56v.79Zm-3.94,2.57a8.6,8.6,0,0,1,1.56,2l-.76.48a9.23,9.23,0,0,0-1.52-2.11Z"/><path class="cls-1" d="M58.52,125.6V132h-.89V121.51H62v4.09Zm0-3.39v1h2.59v-1Zm2.59,2.71v-1H58.52v1Zm0,5.92v.6h-.81V126.5h4.45v4.34Zm0-3.65v1.11H63.9v-1.11Zm2.82,2.95V129H61.08v1.17Zm3.57.63c0,.57-.13.87-.53,1a6.55,6.55,0,0,1-2,.16,3.5,3.5,0,0,0-.31-.91c.73,0,1.46,0,1.67,0s.28-.07.28-.29v-5.14H63v-4.11h4.44Zm-3.59-8.56v1h2.69v-1Zm2.69,2.72v-1.06H63.88v1.06Z"/><path class="cls-1" d="M72.26,130.13h2v-6.57H72.66v-.69a5.85,5.85,0,0,0,1.82-.62h.84v7.88h1.76V131H72.26Z"/><path class="cls-1" d="M78.46,126.61c0-3.06,1.06-4.53,2.74-4.53s2.74,1.48,2.74,4.53-1.07,4.58-2.74,4.58S78.46,129.67,78.46,126.61Zm4.41,0c0-2.57-.67-3.65-1.67-3.65s-1.68,1.08-1.68,3.65.68,3.71,1.68,3.71S82.87,129.2,82.87,126.61Z"/><path class="cls-1" d="M86.61,123.61a.92.92,0,1,1,.92.9A.89.89,0,0,1,86.61,123.61Zm0,5.88a.92.92,0,1,1,.92.9A.9.9,0,0,1,86.61,129.49Z"/><path class="cls-1" d="M91.12,126.61c0-3.06,1.06-4.53,2.74-4.53s2.74,1.48,2.74,4.53-1.07,4.58-2.74,4.58S91.12,129.67,91.12,126.61Zm4.41,0c0-2.57-.67-3.65-1.67-3.65s-1.68,1.08-1.68,3.65.68,3.71,1.68,3.71S95.53,129.2,95.53,126.61Z"/><path class="cls-1" d="M97.78,126.61c0-3.06,1.06-4.53,2.74-4.53s2.74,1.48,2.74,4.53-1.07,4.58-2.74,4.58S97.78,129.67,97.78,126.61Zm4.41,0c0-2.57-.67-3.65-1.67-3.65s-1.68,1.08-1.68,3.65.68,3.71,1.68,3.71S102.19,129.2,102.19,126.61Z"/><path class="cls-1" d="M114.2,126.12V127h-8.71v-.83Z"/><path class="cls-1" d="M116.9,130.13h2v-6.57H117.3v-.69a5.85,5.85,0,0,0,1.82-.62H120v7.88h1.77V131H116.9Z"/><path class="cls-1" d="M123.8,129.61a2,2,0,0,0,1.48.67c1.14,0,2.12-.93,2.21-3.67a2.72,2.72,0,0,1-2,1.09c-1.46,0-2.42-1-2.42-2.77a2.64,2.64,0,0,1,2.51-2.85c1.7,0,3,1.39,3,4.18,0,3.57-1.54,4.93-3.19,4.93a2.81,2.81,0,0,1-2.12-.9Zm3.67-3.9c-.12-1.81-.79-2.77-1.92-2.77-.83,0-1.48.79-1.48,2s.53,2,1.57,2A2.31,2.31,0,0,0,127.47,125.71Z"/><path class="cls-1" d="M131.25,123.61a.92.92,0,1,1,.92.9A.89.89,0,0,1,131.25,123.61Zm0,5.88a.92.92,0,0,1,1.83,0,.92.92,0,0,1-1.83,0Z"/><path class="cls-1" d="M135.76,126.61c0-3.06,1.06-4.53,2.74-4.53s2.74,1.48,2.74,4.53-1.07,4.58-2.74,4.58S135.76,129.67,135.76,126.61Zm4.41,0c0-2.57-.67-3.65-1.67-3.65s-1.68,1.08-1.68,3.65.68,3.71,1.68,3.71S140.17,129.2,140.17,126.61Z"/><path class="cls-1" d="M142.42,126.61c0-3.06,1.06-4.53,2.74-4.53s2.74,1.48,2.74,4.53-1.07,4.58-2.74,4.58S142.42,129.67,142.42,126.61Zm4.41,0c0-2.57-.67-3.65-1.67-3.65s-1.68,1.08-1.68,3.65.68,3.71,1.68,3.71S146.83,129.2,146.83,126.61Z"/><path class="cls-1" d="M151,120.89h3.05v.64h-2.22v9.9h2.22v.64H151Z"/><path class="cls-1" d="M160.91,125c0,1.36.85,4.65,5,6.11a5.33,5.33,0,0,0-.59.82,7.54,7.54,0,0,1-4.86-5.21,7.5,7.5,0,0,1-4.71,5.21,4.37,4.37,0,0,0-.61-.73A7,7,0,0,0,160,125v-3.85h.95Zm-3.09-1.43a5.46,5.46,0,0,1-1.68,3.69l-.76-.52a5,5,0,0,0,1.56-3.35Zm7.55.18a30.36,30.36,0,0,1-2,3.32l-.74-.35a19.28,19.28,0,0,0,1.74-3.35Z"/><path class="cls-1" d="M169.49,125.21a1.27,1.27,0,1,1-1.28,1.27A1.27,1.27,0,0,1,169.49,125.21Z"/><path class="cls-1" d="M177.41,124.25a9.92,9.92,0,0,1-3.81,6.55,3.37,3.37,0,0,0-.7-.71,8.15,8.15,0,0,0,3.4-5.15h-3.12v-.88h3.46l.18,0Zm6.21-.73a28.78,28.78,0,0,1-3.28,3.1,8.23,8.23,0,0,0,3.76,3.61,3.12,3.12,0,0,0-.67.81,9.65,9.65,0,0,1-4.46-5.5v5.15c0,.63-.17.92-.57,1.09a7,7,0,0,1-2.19.18,3.82,3.82,0,0,0-.36-1c.86,0,1.63,0,1.87,0s.32-.08.32-.32V121H179v2.18a14.89,14.89,0,0,0,1,2.71,22.73,22.73,0,0,0,2.85-3Z"/><path class="cls-1" d="M196,131.52h-5.54v.36h-.82v-4.25a7.36,7.36,0,0,1-.79.79l-.3-.33v1.56h-2.28v1h-.78v-8.87h3.06v5.85a8.13,8.13,0,0,0,1.77-2.52H189v-.65h2.23v-.89h-2V123h2v-.85H189v-.66h3v3.66h-1.11l.28.08a9,9,0,0,1-.45.87h1.71a7.69,7.69,0,0,0,.37-1h-.32v-.65h2.29v-.89h-2.11V123h2.11v-.85h-2.27v-.66h3v3.66h-2.31l.46.11c-.14.29-.3.57-.44.84h2.39v.69h-2.59v.93h2.3v.62h-2.3v.92h2.3v.63h-2.3v1H196Zm-9.73-9v2.7h1.49v-2.7Zm1.49,6.33V126h-1.49v2.85Zm4.56-2.13h-1.86v.93h1.86Zm0,1.55h-1.86v.92h1.86Zm-1.86,2.53h1.86v-1h-1.86Z"/><path class="cls-1" d="M202.93,130.76a10.79,10.79,0,0,0,1.94.14h3.07a2.64,2.64,0,0,0-.33.9h-2.79c-2.48,0-4.27-.43-5.36-2.46a6.57,6.57,0,0,1-1.78,2.68,4.87,4.87,0,0,0-.73-.6c1.33-1,2-2.74,2.24-4.88l.91.08a15.17,15.17,0,0,1-.29,1.6,3.63,3.63,0,0,0,2.21,2.31v-5h-3v-.84h7v.84h-3.06v2h3.55v.82h-3.55ZM198.38,125h-.87v-2.59H202V121h.92v1.37h4.53V125h-.91v-1.75h-8.17Z"/><path class="cls-1" d="M212.92,121.36a19.3,19.3,0,0,1-1.31,2.56v8h-.88v-6.73a12.77,12.77,0,0,1-1.41,1.58,5.79,5.79,0,0,0-.54-.9,12.37,12.37,0,0,0,3.25-4.81Zm4,3.55a12.83,12.83,0,0,0,3.26,4.82,3.54,3.54,0,0,0-.67.72,14.54,14.54,0,0,1-3.1-4.82V132h-.88v-6.08a13.38,13.38,0,0,1-3.12,4.62,4.87,4.87,0,0,0-.67-.69,12.1,12.1,0,0,0,3.32-4.9h-2.9V124h3.37v-2.87h.88V124h3.46v.87Z"/><path class="cls-1" d="M222.82,126.48a8,8,0,0,1,2.39-5.71l.72.37a7.51,7.51,0,0,0,0,10.68l-.72.37A8,8,0,0,1,222.82,126.48Z"/><path class="cls-1" d="M231.24,128.43a19.5,19.5,0,0,0-1.43-1.57V132h-.87v-4.62a10.69,10.69,0,0,1-1.72,1.46,3.7,3.7,0,0,0-.46-.8,10.39,10.39,0,0,0,3.57-3.93H227.2v-.82h1.74V121h.87v2.23h1l.16,0,.49.32a11.47,11.47,0,0,1-1.42,2.53c.52.44,1.52,1.38,1.77,1.65Zm5.84,2.7c.28,0,.32-.26.36-1.72a2.58,2.58,0,0,0,.74.33c-.07,1.67-.26,2.12-1,2.12h-1.05c-.84,0-1-.26-1-1.15v-4.27h-1.17c-.13,2.67-.54,4.49-2.61,5.54a2.7,2.7,0,0,0-.57-.7c1.89-.89,2.19-2.47,2.3-4.84h-1.17V121.8h5.61v4.64H236v4.27c0,.36.06.42.33.42Zm-4.34-5.5h3.88v-3h-3.88Z"/><path class="cls-1" d="M248.43,121.83v9.94h-.93V131h-5.95v.78h-.9v-10Zm-6.88.87v3.24h5.95V122.7Zm5.95,7.46v-3.35h-5.95v3.35Z"/><path class="cls-1" d="M253.58,121.91a6.68,6.68,0,0,0-.2.8,29.31,29.31,0,0,0-.59,4.79,11.12,11.12,0,0,0,.11,1.62c.19-.54.47-1.25.67-1.73l.51.4a25.58,25.58,0,0,0-.84,2.62,1.66,1.66,0,0,0-.06.53c0,.12,0,.29,0,.41l-.85.07a14.32,14.32,0,0,1-.46-3.77,37.6,37.6,0,0,1,.54-5,5.12,5.12,0,0,0,.09-.84Zm7.73,8.65a9.42,9.42,0,0,0-1.79-1.36v.22a1.8,1.8,0,0,1-2.06,1.94c-1.6,0-2.47-.66-2.47-1.71s.88-1.82,2.44-1.82a5.49,5.49,0,0,1,1.11.11c0-.91-.11-2-.12-3l-1.14,0c-.67,0-1.3,0-2-.07V124a19,19,0,0,0,2,.11l1.12,0v-1.47a5.67,5.67,0,0,0-.06-.72h1.09a5.53,5.53,0,0,0-.07.7c0,.33,0,.88,0,1.43a15.65,15.65,0,0,0,2.05-.27v.93c-.65.11-1.34.18-2.05.23,0,1.19.1,2.37.14,3.37a8,8,0,0,1,2.34,1.55Zm-2.74-1.77a3.74,3.74,0,0,0-1.21-.19c-.89,0-1.5.4-1.5,1s.58.92,1.43.92c1,0,1.29-.49,1.29-1.28C258.58,129.08,258.58,128.94,258.57,128.79Z"/><path class="cls-1" d="M266.9,121.83c-.36,1-.79,2.2-1.18,3.15a3.7,3.7,0,0,1,1.06,2.57,1.63,1.63,0,0,1-.46,1.36,1.28,1.28,0,0,1-.63.22,5.24,5.24,0,0,1-.8,0,1.87,1.87,0,0,0-.23-.79,2.77,2.77,0,0,0,.7,0,.74.74,0,0,0,.38-.09,1.06,1.06,0,0,0,.24-.82,3.34,3.34,0,0,0-1.07-2.37c.35-.88.7-2,.95-2.76h-1.57V132h-.79V121.51h2.68l.15,0Zm1.84,6.5a9,9,0,0,1-1.74,2.88,5.56,5.56,0,0,0-.65-.53,6.89,6.89,0,0,0,1.6-2.53Zm1.83-7.3a11,11,0,0,0,3.53,3.31,4.21,4.21,0,0,0-.49.75,12.27,12.27,0,0,1-3.4-3.25,11.09,11.09,0,0,1-3.31,3.31,3.34,3.34,0,0,0-.48-.7,9.62,9.62,0,0,0,3.36-3.42Zm.07,6.47v3.44c0,.47-.08.72-.39.85a4,4,0,0,1-1.55.16,3.08,3.08,0,0,0-.3-.83c.57,0,1.06,0,1.21,0s.21,0,.21-.19V127.5h-2.65v-.77h2.65v-1.49H268v-.76h4.61v.76h-1.94v1.49h2.87v.77Zm1.58.62a15,15,0,0,1,1.66,2.63l-.73.39a15.53,15.53,0,0,0-1.62-2.71Z"/><path class="cls-1" d="M282.92,122.22c-.26.19-.62.5-.81.67-.83.71-2.54,2.08-3.41,2.8-.72.62-.72.8.05,1.44,1.08.86,3.27,2.68,4.43,3.83l-.86.78c-.24-.28-.56-.58-.81-.86-.65-.69-2.63-2.39-3.75-3.3s-1-1.47.09-2.37c.89-.76,2.68-2.17,3.49-3a5.14,5.14,0,0,0,.68-.79Z"/><path class="cls-1" d="M290.15,126.48a8,8,0,0,1-2.39,5.71l-.72-.37a7.51,7.51,0,0,0,0-10.68l.72-.37A8,8,0,0,1,290.15,126.48Z"/><path class="cls-1" d="M295.94,132.07h-3v-.64h2.22v-9.9H292.9v-.64h3Z"/><path class="cls-1" d="M45.76,141.39l4-4,.35.35-4,4,4,4-.35.34-4-3.95-4,4-.35-.35,4-4-4-4,.35-.35Zm-2.52.35a.9.9,0,1,1-.9-.9A.91.91,0,0,1,43.24,141.74Zm2.52-2.52a.9.9,0,1,1,.9-.9A.91.91,0,0,1,45.76,139.22Zm0,5a.9.9,0,1,1-.9.9A.91.91,0,0,1,45.76,144.26Zm2.52-2.52a.9.9,0,1,1,.9.9A.9.9,0,0,1,48.28,141.74Z"/><path class="cls-1" d="M56,142.11l-1.35.44v3.63c0,.48-.11.73-.41.87a3.82,3.82,0,0,1-1.49.16,3.22,3.22,0,0,0-.26-.82c.51,0,1,0,1.13,0s.2,0,.2-.21v-3.35c-.52.17-1,.34-1.43.47l-.23-.86,1.66-.5v-2.46H52.3v-.81h1.5v-2.4h.83v2.4h1.28v.25a6.82,6.82,0,0,0,1.56-2.66l.78.19a8.8,8.8,0,0,1-.47,1.14h1.74a11.12,11.12,0,0,0,.56-1.28l.87.21c-.19.36-.4.73-.59,1.07H62.9v.67H60.29V139h2.29v.58H60.29v.76h2.29v.58H60.29v.78H63v.67H56.83V139.1a7.26,7.26,0,0,1-.69.76c-.07-.1-.22-.24-.35-.38H54.63v2.2c.41-.12.83-.26,1.23-.4Zm7.11,2.29c-.16,1.56-.33,2.23-.62,2.52a1.09,1.09,0,0,1-.77.26,8.91,8.91,0,0,1-1.44,0,1.45,1.45,0,0,0-.25-.73c.59,0,1.18.06,1.39.06s.31,0,.41-.1.31-.62.43-1.65H60.73c0,.21-.11.41-.15.59l-.77-.12c.12-.41.25-.94.37-1.46H58.64a4,4,0,0,1-2.56,3.49,3.82,3.82,0,0,0-.58-.64,3.2,3.2,0,0,0,2.27-2.85H56.11V143h5c-.07.34-.15.7-.23,1h2.23Zm-3.62-6.14H57.6V139h1.87Zm0,1.3H57.6v.76h1.87Zm0,1.34H57.6v.78h1.87Z"/><path class="cls-1" d="M75.12,137.52v.75H73.18v1.91h-6.8v-1.91h-2v-.75h2v-1.19h.83v1.19H69.3v-1.25h.85v1.25h2.16v-1.19h.87v1.19Zm-10.38,3.4h10v2.35h-.85v-1.61H70.15v1.25H73.6v2.47c0,.46-.09.68-.44.81a5.57,5.57,0,0,1-1.72.14,3.13,3.13,0,0,0-.28-.76c.64,0,1.2,0,1.36,0s.21,0,.21-.19v-1.73H70.15v3.56h-.86v-3.56H67v2.67h-.86v-3.41h3.2v-1.25H65.57v1.61h-.83Zm2.47-1.47H69.3v-1.18H67.21Zm5.1-1.18H70.15v1.18h2.16Z"/><path class="cls-1" d="M81.29,138.85H77.52v1.68h-.8V138.2h4.57v-.73H77.4v-.7h8.71v.7h-4v.73h4.66v2.33H86v-1.68H82.15v2.73h-.86Zm4.38,7.55c.63,0,.75-.21.81-1.41a2.63,2.63,0,0,0,.78.3c-.13,1.45-.41,1.81-1.53,1.81H83c-1.34,0-1.72-.23-1.72-1.19v-.38H78.59v.62h-.85V142h8.08v3.54H82.11v.38c0,.41.14.49.89.49Zm-7.75-5.69h2.76v.56H77.92Zm2.76-.66H78.15v-.55h2.53Zm-2.09,2.59v.83h2.66v-.83Zm2.66,2.24v-.81H78.59v.81ZM85,142.64H82.11v.83H85Zm0,2.24v-.81H82.11v.81Zm.4-5.38v.55H82.79v-.55Zm-2.57,1.21h2.85v.56H82.79Z"/><path class="cls-1" d="M88.26,138.27H92.7V139H88.26Zm4.08,8.39H89.58v.54H88.8v-4h3.54Zm0-6H88.83v-.71h3.48Zm-3.48.92h3.48v.71H88.83Zm3.45-4.16H88.9v-.72h3.38Zm-2.7,6.52v2h2v-2Zm6.9-3.33v2h2.25v4.55h-.88v-.53H94.32v.6h-.84v-4.62h2.1v-2H92.79v-.85h2.79v-1.91c-.77.1-1.54.17-2.25.23a3,3,0,0,0-.26-.75,31.55,31.55,0,0,0,5.14-.85l.64.72a18.89,18.89,0,0,1-2.37.52v2h2.81v.85Zm1.37,2.82H94.32v2.39h3.53Z"/><path class="cls-1" d="M102.76,140.47a1.27,1.27,0,1,1-1.27,1.27A1.27,1.27,0,0,1,102.76,140.47Z"/><path class="cls-1" d="M107,137.51h2.51c2,0,3.29.66,3.29,2.57s-1.31,2.73-3.23,2.73h-1.45v3.49H107Zm2.42,4.4c1.55,0,2.28-.57,2.28-1.83s-.78-1.67-2.33-1.67h-1.25v3.5Z"/><path class="cls-1" d="M114.54,137.51h1.12v3.68h4.1v-3.68h1.1v8.79h-1.1v-4.15h-4.1v4.15h-1.12Z"/><path class="cls-1" d="M122.64,145.15l.66-.76a3.47,3.47,0,0,0,2.44,1.09c1.15,0,1.85-.57,1.85-1.44s-.64-1.18-1.47-1.56l-1.27-.55a2.35,2.35,0,0,1,1-4.59,3.62,3.62,0,0,1,2.6,1.09l-.59.71a2.83,2.83,0,0,0-2-.83c-1,0-1.64.5-1.64,1.29s.77,1.18,1.45,1.47l1.26.54a2.44,2.44,0,0,1,1.81,2.35c0,1.39-1.15,2.49-3,2.49A4.23,4.23,0,0,1,122.64,145.15Z"/><path class="cls-1" d="M134.51,137c0,.21-.1.47-.14.69s-.17,1.05-.3,1.68c.55,0,1-.07,1.33-.07,1,0,1.93.41,1.93,2a11.29,11.29,0,0,1-.7,4.29,1.67,1.67,0,0,1-1.74,1,6.77,6.77,0,0,1-1.39-.18l-.15-1a5.64,5.64,0,0,0,1.45.27,1,1,0,0,0,1-.61,10.29,10.29,0,0,0,.55-3.64c0-1.08-.49-1.27-1.24-1.27-.29,0-.76,0-1.27.09a24.22,24.22,0,0,1-2.5,6.38l-1-.4a18.44,18.44,0,0,0,2.49-5.89l-1.5.16-1.07.14-.09-1c.37,0,.68,0,1.05,0s1.1-.07,1.81-.13a13.91,13.91,0,0,0,.3-2.58Zm4.09,1.26a21.22,21.22,0,0,1,2.17,4.24l-.94.45a14.08,14.08,0,0,0-2.12-4.31Z"/><path class="cls-1" d="M144.56,142.4a5.58,5.58,0,0,1,3.83-1.43c1.83,0,3,1.09,3,2.49,0,2.13-1.89,3.57-6.3,3.2l-.29-1c3.74.46,5.58-.62,5.58-2.24,0-1-.88-1.61-2.09-1.61a4.63,4.63,0,0,0-3.67,1.57,3.28,3.28,0,0,0-.36.6l-.9-.21A41.74,41.74,0,0,0,144,139l1,.13C144.87,139.9,144.66,141.63,144.56,142.4Zm.73-5.47a31.58,31.58,0,0,0,4.59.91l-.23.94c-1.12-.16-3.7-.69-4.61-.94Z"/><path class="cls-1" d="M162.43,141.2a3.93,3.93,0,0,1,1.23,2.75c0,1.76-1.6,2.84-3.94,2.84-1.62,0-2.93-.71-2.93-2.65,0-.33,0-.81.1-1.37a11.23,11.23,0,0,1-2.47-.43l.05-.91a10.06,10.06,0,0,0,2.5.48c.09-.7.19-1.44.27-2.14a16.13,16.13,0,0,1-2.53-.4l0-.89a10.87,10.87,0,0,0,2.59.43c.06-.48.11-.91.13-1.24a5.59,5.59,0,0,0,0-.82l1.08.06a8.35,8.35,0,0,0-.16.82c0,.3-.09.72-.15,1.22a17.13,17.13,0,0,0,2.4-.15l0,.9c-.75.07-1.46.12-2.41.12h-.08c-.1.7-.18,1.44-.26,2.12h.22a18.69,18.69,0,0,0,2.47-.14l0,.91a22.45,22.45,0,0,1-2.33.11h-.43a11.7,11.7,0,0,0-.07,1.17,1.74,1.74,0,0,0,2,1.85c1.8,0,2.95-.77,2.95-2a3.25,3.25,0,0,0-1.31-2.42Z"/><path class="cls-1" d="M168.36,142.82a4.68,4.68,0,0,0-.24,1.34c0,.9.92,1.53,2.81,1.53a15.29,15.29,0,0,0,4.07-.46v1a16.7,16.7,0,0,1-4.06.42c-2.41,0-3.81-.8-3.81-2.29a6.67,6.67,0,0,1,.25-1.66Zm-.49-4.8a26.11,26.11,0,0,0,3.14.16c1.14,0,2.35-.09,3.21-.17v1c-.81.06-2.1.15-3.21.15s-2.19,0-3.14-.14Zm7.7.3-.65.3a12.44,12.44,0,0,0-1-1.68l.65-.26A16.52,16.52,0,0,1,175.57,138.32Zm1.36-.49-.66.29a10.76,10.76,0,0,0-1-1.66l.64-.27A18.31,18.31,0,0,1,176.93,137.83Z"/><path class="cls-1" d="M181.25,139.86h2.29v.81h-2.29v.88c.54.42,1.91,1.59,2.26,1.91l-.52.73c-.36-.4-1.13-1.17-1.74-1.73v4.72h-.86V142a13.12,13.12,0,0,1-2.28,3.53,6.13,6.13,0,0,0-.49-.82,12.59,12.59,0,0,0,2.59-4.06h-2.33v-.81h2.51v-2c-.78.14-1.57.26-2.32.37a2.8,2.8,0,0,0-.27-.71,23.34,23.34,0,0,0,4.95-1.16l.66.68a14.77,14.77,0,0,1-2.16.64Zm4,4.39h-.87v-6.56h.87Zm2.95-7.75V146c0,.61-.17.89-.54,1a7.79,7.79,0,0,1-2.16.16,3.75,3.75,0,0,0-.32-.9c.84,0,1.59,0,1.82,0s.31-.07.31-.3V136.5Z"/><path class="cls-1" d="M199.85,146c0,.57-.16.84-.54,1a7.64,7.64,0,0,1-2.23.15,3.67,3.67,0,0,0-.3-.86c.84,0,1.65,0,1.87,0s.32-.09.32-.31v-2.44h-3.22v3.54h-.89v-3.54h-3a6.91,6.91,0,0,1-1.5,3.72,3,3,0,0,0-.68-.59c1.32-1.48,1.44-3.6,1.44-5.26v-4.32h8.73Zm-5-3.3v-2H192v.71c0,.39,0,.84-.05,1.28ZM192,138v1.92h2.87V138Zm7,0h-3.22v1.92H199Zm0,4.75v-2h-3.22v2Z"/><path class="cls-1" d="M203.86,139.1c0,.74,0,1.84.08,2.81.2,2,.77,3.3,1.61,3.3.61,0,1.16-1.23,1.48-2.43l.75.87c-.71,2-1.44,2.69-2.25,2.69-1.12,0-2.2-1.11-2.52-4.19a31.36,31.36,0,0,1-.13-3.17,6.27,6.27,0,0,0-.08-1l1.16,0A10.69,10.69,0,0,0,203.86,139.1Zm8.37,5-1,.38a11.67,11.67,0,0,0-2-5.87l.93-.33A12.25,12.25,0,0,1,212.23,144.09Z"/><path class="cls-1" d="M220.45,139.23a23.81,23.81,0,0,1-2.46.41c-.1.52-.24,1.07-.37,1.57a34.71,34.71,0,0,1-1.86,5.45l-1-.35a26.12,26.12,0,0,0,2-5.31c.11-.4.2-.83.3-1.26l-1.08,0c-.53,0-1,0-1.38-.05l0-.93a11,11,0,0,0,1.43.08c.4,0,.82,0,1.27,0,.09-.44.15-.81.18-1.05a5.65,5.65,0,0,0,0-1l1.16.09a9.68,9.68,0,0,0-.21,1l-.18.88a18.41,18.41,0,0,0,2.26-.43Zm-.46,4.16a4.2,4.2,0,0,0-.17,1.07c0,.57.26,1.11,2,1.11a13.51,13.51,0,0,0,2.32-.23l0,1a18.42,18.42,0,0,1-2.29.15c-1.87,0-2.85-.57-2.85-1.75a6.48,6.48,0,0,1,.18-1.4Zm-.3-2.89c.62-.06,1.4-.09,2.17-.09a19.59,19.59,0,0,1,2,.09l0,.92a15.36,15.36,0,0,0-2-.15,20,20,0,0,0-2.19.13Z"/><path class="cls-1" d="M232.09,139.41a23.82,23.82,0,0,1-2.46.4c-.1.53-.24,1.07-.37,1.58a34.1,34.1,0,0,1-1.86,5.43l-1.05-.34a26.22,26.22,0,0,0,2-5.32c.11-.39.2-.82.3-1.26-.38,0-.74,0-1.08,0-.53,0-1,0-1.38-.05l0-.93a11,11,0,0,0,1.43.08c.4,0,.82,0,1.27,0,.09-.43.15-.8.18-1a5.6,5.6,0,0,0,0-1l1.16.09a9.51,9.51,0,0,0-.21.94l-.18.87a16.71,16.71,0,0,0,2.26-.43Zm-.46,4.15a4.2,4.2,0,0,0-.17,1.08c0,.55.26,1.09,1.95,1.09a12.59,12.59,0,0,0,2.32-.22l0,1a18.25,18.25,0,0,1-2.29.16c-1.87,0-2.85-.58-2.85-1.76a6.56,6.56,0,0,1,.18-1.4Zm-.3-2.89c.62,0,1.4-.09,2.17-.09a19.59,19.59,0,0,1,2.05.09l0,.91a17.53,17.53,0,0,0-2-.13,20,20,0,0,0-2.19.12Zm3.31-1.33a13.48,13.48,0,0,0-1-1.67l.64-.27a13.53,13.53,0,0,1,1,1.65Zm1-2.43a16.39,16.39,0,0,1,1,1.65l-.65.29a13.12,13.12,0,0,0-1-1.67Z"/><path class="cls-1" d="M240.35,137.16c-.07.21-.15.54-.21.77a16,16,0,0,0-.34,6.24c.17-.5.41-1.21.62-1.79l.53.32a26.59,26.59,0,0,0-.77,2.61,3.9,3.9,0,0,0-.06.53l0,.41-.82.09a13,13,0,0,1-.62-3.76,32.87,32.87,0,0,1,.44-4.74,4.68,4.68,0,0,0,.06-.79Zm7.9,3a18,18,0,0,1-1.91.21v.41c0,2.74,0,4.67-2.52,6.15l-.88-.69a4.36,4.36,0,0,0,1.17-.74c1.27-1.11,1.33-2.44,1.33-4.73v-.35c-.51,0-1,0-1.51,0s-1.41,0-1.92-.09v-1a12.27,12.27,0,0,0,1.9.14c.5,0,1,0,1.5,0,0-.74,0-1.53-.07-1.83a5.09,5.09,0,0,0-.11-.71h1.12a6.77,6.77,0,0,0,0,.69c0,.27,0,1.05,0,1.79a12.76,12.76,0,0,0,1.93-.28Z"/><path class="cls-1" d="M259,146.15a8.86,8.86,0,0,0-2.86-1.78c0,.3,0,.56,0,.74,0,.82-.55,1.67-2.1,1.67s-2.65-.61-2.65-1.77,1.05-1.81,2.76-1.81a8.12,8.12,0,0,1,1,.07c0-.52-.05-1.09-.06-1.58h-.66c-.82,0-2.14-.07-3-.17v-.91a20.28,20.28,0,0,0,3,.23h.63v-1.7h-.59c-.82,0-2.08-.1-2.79-.18v-.89a19.19,19.19,0,0,0,2.78.23h.61v-.78c0-.19,0-.54,0-.71h1a5.19,5.19,0,0,0-.06.79,5.85,5.85,0,0,0,0,.66,26.21,26.21,0,0,0,3-.29v.88c-.93.1-2,.19-3.07.25v1.7a29.08,29.08,0,0,0,3.3-.31v.9c-1.11.15-2.17.23-3.3.28,0,.61.07,1.23.09,1.8a9.69,9.69,0,0,1,3.45,1.84Zm-3.8-2.05a6.15,6.15,0,0,0-1.15-.11c-1.13,0-1.74.44-1.74,1s.47,1,1.64,1c.69,0,1.26-.21,1.26-1C255.25,144.7,255.24,144.43,255.24,144.1Z"/><path class="cls-1" d="M268.68,139.2c0,.67,0,1.4,0,1.94a2.93,2.93,0,0,1,.38,1.52c0,1.61-.78,3.4-3.54,4.22l-.83-.8a4.26,4.26,0,0,0,3.16-2.06,1.75,1.75,0,0,1-1,.3,1.92,1.92,0,0,1-2-2,2.09,2.09,0,0,1,2.1-2.08,2.47,2.47,0,0,1,.79.13c0-.34,0-.76,0-1.17-1.8,0-3.81.09-5.3.2l0-.93c1.32,0,3.55-.1,5.32-.12a7.46,7.46,0,0,0,0-.78,6.42,6.42,0,0,0-.07-.75h1.09l-.06.75c0,.18,0,.45,0,.77h3.66v.9c-.67,0-1.75-.06-3.49-.06Zm-.64,2.6a1,1,0,0,0-1.05-.73,1.21,1.21,0,0,0-1.2,1.24,1.14,1.14,0,0,0,1.21,1.18C267.7,143.49,268.15,142.93,268,141.8Z"/><path class="cls-1" d="M277.41,145.19a1.83,1.83,0,1,1-1.84-1.82A1.84,1.84,0,0,1,277.41,145.19Zm-.63,0a1.2,1.2,0,0,0-1.21-1.21,1.22,1.22,0,0,0,0,2.44A1.2,1.2,0,0,0,276.78,145.19Z"/></g></g></svg>