<?xml version="1.0" encoding="utf-8"?>
<!-- Generator: Adobe Illustrator 23.0.4, SVG Export Plug-In . SVG Version: 6.00 Build 0)  -->
<svg version="1.1" id="レイヤー_1" xmlns="http://www.w3.org/2000/svg" xmlns:xlink="http://www.w3.org/1999/xlink" x="0px"
	 y="0px" viewBox="0 0 180.2 31.7" style="enable-background:new 0 0 180.2 31.7;" xml:space="preserve">
<title>button_header_contents_tel_li</title>
<g>
	<g>
		<g>
			<g>
				<g>
					<path d="M31.1,8.4c0-5.7,2.2-8.5,5.6-8.5c3.3,0,5.6,2.8,5.6,8.5S40,17,36.7,17C33.3,17,31.1,14.1,31.1,8.4z M39.2,8.4
						c0-4.6-1.1-6-2.5-6c-1.4,0-2.5,1.3-2.5,5.9c0,4.6,1.1,6.1,2.5,6.1C38.1,14.5,39.2,13,39.2,8.4z"/>
					<path d="M45,14.1l3.5,0l0-10.4l-3,0l0-2c1.6-0.3,2.8-0.7,3.8-1.4l2.4,0l0,13.8l3.1,0l0,2.7l-9.9,0L45,14.1z"/>
					<path d="M56.6,14.8c4.5-4,7.1-7.1,7.1-9.6c0-1.7-0.9-2.7-2.5-2.7c-1.2,0-2.2,0.8-3,1.7l-1.8-1.8c1.5-1.6,3-2.5,5.2-2.5
						c3.1,0,5.2,2,5.2,5.1c0,3-2.5,6.2-5.5,9.1c0.8-0.1,1.9-0.2,2.7-0.2l3.6,0l0,2.8l-11.1,0L56.6,14.8z"/>
					<path d="M70.2,8.4c0-5.7,2.2-8.5,5.6-8.5c3.3,0,5.6,2.8,5.6,8.5s-2.2,8.6-5.6,8.6C72.4,17.1,70.2,14.1,70.2,8.4z M78.2,8.5
						c0-4.6-1.1-6-2.5-6c-1.4,0-2.5,1.3-2.5,5.9c0,4.6,1.1,6.1,2.5,6.1C77.2,14.5,78.2,13.1,78.2,8.5z"/>
					<path d="M83.9,7.4l6.1,0l0,2.3l-6.1,0L83.9,7.4z"/>
					<path d="M92,14.8l1.5-2.1c0.9,0.9,2.1,1.7,3.6,1.7c1.7,0,2.9-1.1,2.9-3c0-1.9-1.1-3-2.8-3c-1,0-1.5,0.2-2.5,0.9l-1.5-1l0.5-8
						l8.8,0l0,2.7l-6,0l-0.3,3.5c0.6-0.3,1.2-0.5,2-0.5c2.8,0,5.1,1.7,5.1,5.2c0,3.7-2.7,5.8-5.8,5.8C95,17.1,93.3,16.1,92,14.8z"/>
					<path d="M106.1,12.7c0-2.1,1.3-3.5,2.8-4.3V8.3c-1.3-0.9-2.2-2.2-2.2-3.9c0-2.7,2.1-4.3,5-4.3c2.9,0,4.8,1.8,4.8,4.4
						c0,1.6-1,3-2.1,3.8v0.1c1.5,0.8,2.8,2.2,2.8,4.4c0,2.5-2.2,4.4-5.6,4.4C108.4,17.1,106.1,15.3,106.1,12.7z M114.1,12.6
						c0-1.7-1.5-2.4-3.7-3.3c-0.9,0.7-1.5,1.8-1.5,3.1c0,1.5,1.2,2.5,2.8,2.5C113.1,14.8,114.1,14,114.1,12.6z M113.8,4.6
						c0-1.3-0.8-2.3-2.2-2.3c-1.1,0-2,0.7-2,2c0,1.6,1.3,2.3,3,3C113.5,6.5,113.8,5.6,113.8,4.6z"/>
					<path d="M120.5,14.2l3.5,0l0-10.4l-3,0l0-2c1.6-0.3,2.8-0.7,3.8-1.4l2.4,0l0,13.8l3.1,0l0,2.7l-9.9,0L120.5,14.2z"/>
					<path d="M133.3,7.4l6.1,0l0,2.3l-6.1,0L133.3,7.4z"/>
					<path d="M142.7,14.2l3.5,0l0-10.4l-3,0l0-2c1.6-0.3,2.8-0.7,3.8-1.4l2.4,0l0,13.8l3.1,0l0,2.7l-9.9,0L142.7,14.2z"/>
					<path d="M155.1,14.9l1.5-2.1c0.9,0.9,2.1,1.7,3.6,1.7c1.7,0,2.9-1.1,2.9-3c0-1.9-1.1-3-2.8-3c-1,0-1.5,0.2-2.5,0.9l-1.5-1
						l0.5-8l8.8,0l0,2.7l-6,0l-0.3,3.5c0.6-0.3,1.2-0.5,2-0.5c2.8,0,5.1,1.7,5.1,5.2c0,3.7-2.7,5.8-5.8,5.8
						C158,17.2,156.3,16.2,155.1,14.9z"/>
					<path d="M169.9,14.2l3.5,0l0-10.4l-3,0l0-2c1.6-0.3,2.8-0.7,3.8-1.4l2.4,0l0,13.8l3.1,0l0,2.7l-9.9,0L169.9,14.2z"/>
				</g>
			</g>
			<g>
				<g>
					<g>
						<path d="M26.3,14.1c-0.8,0-1.5,0.7-1.5,1.5c0,0.8,0.7,1.5,1.5,1.5c0.8,0,1.5-0.7,1.5-1.5C27.8,14.8,27.1,14.1,26.3,14.1z
							 M26.3,16.9c-0.7,0-1.3-0.6-1.3-1.3c0-0.7,0.6-1.3,1.3-1.3c0.7,0,1.3,0.6,1.3,1.3C27.6,16.3,27,16.9,26.3,16.9z"/>
					</g>
				</g>
				<g>
					<g>
						<path d="M26.7,15.4c0.1-0.1,0.1-0.2,0.1-0.3c0-0.2-0.1-0.3-0.2-0.4c-0.1-0.1-0.3-0.1-0.4-0.1l-0.6,0l0,2l0.2,0l0-0.9l0.3,0
							l0.6,0.9l0.3,0l-0.6-1C26.5,15.6,26.6,15.5,26.7,15.4z M25.9,15.5l0-0.7l0.3,0c0.3,0,0.4,0.1,0.4,0.3c0,0.1,0,0.2-0.1,0.3
							c-0.1,0.1-0.2,0.1-0.3,0.1L25.9,15.5z"/>
					</g>
				</g>
				<g>
					<path d="M6.1,13.4c1.3,0,3-1,3-3.1c0-1.6-1.6-2.9-2.9-3.7c-1.4,0.8-3,2.1-3,3.7C3.1,12.3,4.8,13.3,6.1,13.4z"/>
				</g>
				<g>
					<path d="M18.1,13.3c1.3,0,3-1,3-3.1c0-1.6-1.6-2.9-2.9-3.7c-1.4,0.8-3,2.1-3,3.7C15.1,12.3,16.8,13.3,18.1,13.3z"/>
				</g>
				<g>
					<path d="M0,3.6c2.5,0,4.6,0.6,6.1,1.4c1.5-0.8,3.5-1.4,5.9-1.4c2.4,0,4.5,0.6,5.9,1.4c1.4-0.8,3.6-1.3,6.1-1.4l0-2.4l-24,0
						L0,3.6z"/>
				</g>
				<g>
					<path d="M22.4,10.3c0,2.5-2.1,4.4-4.4,4.4c-2.3,0-4.3-1.9-4.3-4.4c0-1.9,1.4-3.4,2.9-4.4c-1.4-0.6-3-0.9-4.4-0.9
						C10.6,5,9,5.3,7.6,5.9c1.5,1,2.8,2.5,2.8,4.4c0,2.5-2,4.4-4.4,4.4c-2.3,0-4.4-1.9-4.4-4.4c0-1.9,1.5-3.4,3-4.4
						C3.3,5.3,1.6,5,0,5l0,11.9l24,0l0-11.9c-1.5,0-3.2,0.3-4.6,0.9C21,6.9,22.4,8.4,22.4,10.3z"/>
				</g>
			</g>
		</g>
	</g>
	<g>
		<g>
			<path d="M7.5,28.1c-0.4,0.8-1,1.5-1.8,2c0.8,0.4,1.8,0.6,3,0.8c-0.1,0.1-0.3,0.4-0.4,0.6c-1.2-0.2-2.3-0.5-3.2-1
				c-1,0.5-2.1,0.8-3.2,1c-0.1-0.1-0.2-0.4-0.4-0.5c1.1-0.2,2.1-0.4,3-0.8c-0.7-0.4-1.2-1-1.6-1.6l0.1,0H2.6v-0.6H7l0.1,0L7.5,28.1z
				 M2.2,28.1H1.7v-1.6h1.3c-0.1-0.3-0.3-0.7-0.5-1.1l0.5-0.1c0.2,0.3,0.5,0.8,0.6,1L3,26.5h3.5c0.3-0.4,0.6-1,0.7-1.4l0.6,0.2
				c-0.2,0.4-0.5,0.8-0.7,1.2h1.4v1.6H7.9V27H2.2V28.1z M8,24.6C6.4,25,4,25.2,1.9,25.2c0-0.2-0.1-0.4-0.1-0.5
				c2-0.1,4.5-0.3,5.9-0.6L8,24.6z M3.5,28.4c0.4,0.6,0.9,1,1.6,1.4c0.6-0.4,1.2-0.8,1.5-1.4H3.5z M4.9,26.4c0-0.3-0.2-0.8-0.4-1.2
				l0.5-0.1c0.2,0.4,0.4,0.9,0.4,1.2L4.9,26.4z"/>
			<path d="M12,24.4c-0.2,0.6-0.5,1.2-0.8,1.7v5.3h-0.6v-4.4c-0.3,0.4-0.5,0.7-0.8,1c-0.1-0.1-0.3-0.4-0.4-0.6c0.8-0.8,1.6-2,2-3.2
				L12,24.4z M16.7,26.5h-1v4.1c0,0.4-0.1,0.6-0.4,0.7c-0.3,0.1-0.8,0.1-1.7,0.1c0-0.2-0.1-0.4-0.2-0.6c0.7,0,1.3,0,1.5,0
				c0.2,0,0.2-0.1,0.2-0.2v-4.1h-3.2v-0.6h3.2v-1.7h0.6v1.7h1V26.5z M13.5,29.6c-0.2-0.5-0.8-1.4-1.2-2l0.5-0.2
				c0.4,0.6,0.9,1.4,1.2,1.9L13.5,29.6z"/>
			<path d="M20,29.9h-1.7v0.6h-0.5v-5.9H20V29.9z M18.3,25.2V27h1.2v-1.8H18.3z M19.4,29.4v-1.8h-1.2v1.8H19.4z M23.7,27.2v0.9h0.9
				v0.5h-0.9v2.1c0,0.3-0.1,0.5-0.3,0.6c-0.2,0.1-0.6,0.1-1.3,0.1c0-0.2-0.1-0.4-0.2-0.6c0.5,0,0.9,0,1.1,0c0.1,0,0.2,0,0.2-0.2
				v-2.1h-3v-0.5h3v-0.9h-3.1v-0.5h2v-1h-1.7v-0.5h1.7v-1h0.6v1h1.7v0.5h-1.7v1h2.1v0.5H23.7z M21.1,28.9c0.4,0.4,0.9,1,1,1.4
				l-0.5,0.3c-0.2-0.4-0.6-1-1-1.4L21.1,28.9z"/>
			<path d="M26.4,27.2v4.2h-0.6v-7h2.9v2.7H26.4z M26.4,25v0.7h1.7V25H26.4z M28.1,26.8v-0.7h-1.7v0.7H28.1z M28.1,30.7v0.4h-0.5
				v-3.3h3v2.9H28.1z M28.1,28.3V29H30v-0.7H28.1z M30,30.3v-0.8h-1.9v0.8H30z M32.4,30.7c0,0.4-0.1,0.6-0.4,0.7
				c-0.3,0.1-0.7,0.1-1.3,0.1c0-0.2-0.1-0.4-0.2-0.6c0.5,0,1,0,1.1,0c0.1,0,0.2,0,0.2-0.2v-3.4h-2.4v-2.7h3V30.7z M30,25v0.7h1.8V25
				H30z M31.8,26.8v-0.7H30v0.7H31.8z"/>
			<path d="M34.5,25.9c0-0.4,0.3-0.6,0.6-0.6c0.3,0,0.6,0.2,0.6,0.6c0,0.4-0.3,0.6-0.6,0.6C34.8,26.5,34.5,26.3,34.5,25.9z
				 M34.5,29.8c0-0.4,0.3-0.6,0.6-0.6c0.3,0,0.6,0.2,0.6,0.6c0,0.4-0.3,0.6-0.6,0.6C34.8,30.4,34.5,30.2,34.5,29.8z"/>
			<path d="M37.8,30.2h1.3v-4.4h-1v-0.5c0.5-0.1,0.9-0.2,1.2-0.4h0.6v5.3H41v0.6h-3.2V30.2z"/>
			<path d="M41.9,27.9c0-2,0.7-3,1.8-3c1.1,0,1.8,1,1.8,3c0,2-0.7,3.1-1.8,3.1C42.6,31,41.9,29.9,41.9,27.9z M44.8,27.9
				c0-1.7-0.4-2.4-1.1-2.4c-0.7,0-1.1,0.7-1.1,2.4c0,1.7,0.4,2.5,1.1,2.5C44.4,30.4,44.8,29.6,44.8,27.9z"/>
			<path d="M47.3,25.9c0-0.4,0.3-0.6,0.6-0.6c0.3,0,0.6,0.2,0.6,0.6c0,0.4-0.3,0.6-0.6,0.6C47.6,26.5,47.3,26.3,47.3,25.9z
				 M47.3,29.8c0-0.4,0.3-0.6,0.6-0.6c0.3,0,0.6,0.2,0.6,0.6c0,0.4-0.3,0.6-0.6,0.6C47.6,30.4,47.3,30.2,47.3,29.8z"/>
			<path d="M50.3,27.9c0-2,0.7-3,1.8-3c1.1,0,1.8,1,1.8,3c0,2-0.7,3.1-1.8,3.1C51.1,31,50.3,29.9,50.3,27.9z M53.3,27.9
				c0-1.7-0.4-2.4-1.1-2.4c-0.7,0-1.1,0.7-1.1,2.4c0,1.7,0.4,2.5,1.1,2.5C52.8,30.4,53.3,29.6,53.3,27.9z"/>
			<path d="M54.8,27.9c0-2,0.7-3,1.8-3c1.1,0,1.8,1,1.8,3c0,2-0.7,3.1-1.8,3.1C55.5,31,54.8,29.9,54.8,27.9z M57.7,27.9
				c0-1.7-0.4-2.4-1.1-2.4c-0.7,0-1.1,0.7-1.1,2.4c0,1.7,0.4,2.5,1.1,2.5C57.3,30.4,57.7,29.6,57.7,27.9z"/>
			<path d="M62.6,28c-0.4-0.4-0.8-0.7-1.4-0.7c-0.6,0-1.2,0.4-1.5,1.1l-0.6-0.3c0.5-0.9,1.2-1.4,2.1-1.4c0.7,0,1.2,0.3,1.8,0.9
				c0.4,0.4,0.8,0.7,1.4,0.7c0.6,0,1.2-0.4,1.5-1.1l0.6,0.3c-0.5,0.9-1.2,1.4-2.1,1.4C63.7,28.9,63.2,28.6,62.6,28z"/>
			<path d="M67.5,30.2h1.3v-4.4h-1v-0.5c0.5-0.1,0.9-0.2,1.2-0.4h0.6v5.3h1.2v0.6h-3.2V30.2z"/>
			<path d="M72.1,29.9c0.2,0.3,0.6,0.4,1,0.4c0.8,0,1.4-0.6,1.5-2.4c-0.4,0.4-0.9,0.7-1.4,0.7c-1,0-1.6-0.6-1.6-1.8
				c0-1.1,0.8-1.9,1.7-1.9c1.1,0,2,0.9,2,2.8c0,2.4-1,3.3-2.1,3.3c-0.6,0-1.1-0.3-1.4-0.6L72.1,29.9z M74.6,27.3
				c-0.1-1.2-0.5-1.8-1.3-1.8c-0.6,0-1,0.5-1,1.3c0,0.8,0.4,1.3,1,1.3C73.7,28.1,74.2,27.9,74.6,27.3z"/>
			<path d="M77.1,25.9c0-0.4,0.3-0.6,0.6-0.6c0.3,0,0.6,0.2,0.6,0.6c0,0.4-0.3,0.6-0.6,0.6C77.4,26.5,77.1,26.3,77.1,25.9z
				 M77.1,29.8c0-0.4,0.3-0.6,0.6-0.6c0.3,0,0.6,0.2,0.6,0.6c0,0.4-0.3,0.6-0.6,0.6C77.4,30.4,77.1,30.2,77.1,29.8z"/>
			<path d="M80.1,27.9c0-2,0.7-3,1.8-3c1.1,0,1.8,1,1.8,3c0,2-0.7,3.1-1.8,3.1C80.8,31,80.1,29.9,80.1,27.9z M83,27.9
				c0-1.7-0.4-2.4-1.1-2.4c-0.7,0-1.1,0.7-1.1,2.4c0,1.7,0.4,2.5,1.1,2.5C82.6,30.4,83,29.6,83,27.9z"/>
			<path d="M84.5,27.9c0-2,0.7-3,1.8-3c1.1,0,1.8,1,1.8,3c0,2-0.7,3.1-1.8,3.1C85.3,31,84.5,29.9,84.5,27.9z M87.5,27.9
				c0-1.7-0.4-2.4-1.1-2.4c-0.7,0-1.1,0.7-1.1,2.4c0,1.7,0.4,2.5,1.1,2.5C87,30.4,87.5,29.6,87.5,27.9z"/>
			<path d="M92.9,26.8c0,0.9,0.6,3.1,3.3,4.1c-0.1,0.1-0.3,0.4-0.4,0.5c-2.3-0.9-3.1-2.7-3.2-3.5c-0.2,0.8-0.9,2.5-3.1,3.5
				c-0.1-0.1-0.3-0.4-0.4-0.5c2.7-1,3.2-3.2,3.2-4.1v-2.6h0.6V26.8z M90.8,25.9c-0.1,1-0.4,1.9-1.1,2.5L89.2,28
				c0.6-0.5,0.9-1.3,1-2.2L90.8,25.9z M95.8,26c-0.4,0.7-0.9,1.6-1.3,2.2L94,28c0.4-0.6,0.9-1.5,1.2-2.2L95.8,26z"/>
			<path d="M98.6,27c0.5,0,0.8,0.4,0.8,0.8s-0.4,0.8-0.8,0.8s-0.8-0.4-0.8-0.8S98.1,27,98.6,27z"/>
			<path d="M103.9,26.3c-0.4,2.1-1.4,3.6-2.5,4.4c-0.1-0.1-0.3-0.4-0.5-0.5c1-0.6,1.9-1.8,2.3-3.4h-2.1v-0.6h2.3l0.1,0L103.9,26.3z
				 M108,25.8c-0.6,0.7-1.5,1.5-2.2,2.1c0.6,1.1,1.4,2,2.5,2.4c-0.1,0.1-0.4,0.4-0.4,0.5c-1.4-0.7-2.3-2-3-3.7v3.4
				c0,0.4-0.1,0.6-0.4,0.7c-0.3,0.1-0.7,0.1-1.5,0.1c0-0.2-0.1-0.5-0.2-0.6c0.6,0,1.1,0,1.2,0c0.2,0,0.2-0.1,0.2-0.2v-6.4h0.6v1.4
				c0.2,0.6,0.4,1.2,0.7,1.8c0.6-0.6,1.4-1.4,1.9-2L108,25.8z"/>
			<path d="M116.2,31.2h-3.7v0.2H112v-2.8c-0.2,0.2-0.3,0.4-0.5,0.5c0-0.1-0.1-0.1-0.2-0.2v1h-1.5v0.7h-0.5v-5.9h2v3.9
				c0.5-0.5,0.9-1.1,1.2-1.7h-0.9v-0.4h1.5v-0.6h-1.3v-0.4h1.3v-0.6h-1.5v-0.4h2v2.4h-0.7l0.2,0.1c-0.1,0.2-0.2,0.4-0.3,0.6h1.1
				c0.1-0.2,0.2-0.4,0.2-0.6h-0.2v-0.4h1.5v-0.6H114v-0.4h1.4v-0.6h-1.5v-0.4h2v2.4h-1.5l0.3,0.1c-0.1,0.2-0.2,0.4-0.3,0.6h1.6V28
				h-1.7v0.6h1.5V29h-1.5v0.6h1.5v0.4h-1.5v0.7h1.9V31.2z M109.8,25.2V27h1v-1.8H109.8z M110.7,29.4v-1.9h-1v1.9H110.7z M113.8,28
				h-1.2v0.6h1.2V28z M113.8,29h-1.2v0.6h1.2V29z M112.5,30.7h1.2v-0.7h-1.2V30.7z"/>
			<path d="M120.9,30.7c0.4,0.1,0.8,0.1,1.3,0.1c0.3,0,1.7,0,2,0c-0.1,0.1-0.2,0.4-0.2,0.6h-1.9c-1.7,0-2.8-0.3-3.6-1.6
				c-0.3,0.7-0.7,1.3-1.2,1.8c-0.1-0.1-0.3-0.3-0.5-0.4c0.9-0.7,1.3-1.8,1.5-3.3l0.6,0.1c0,0.4-0.1,0.7-0.2,1.1
				c0.3,0.8,0.8,1.3,1.5,1.5v-3.3h-2v-0.6h4.6v0.6h-2v1.3h2.4V29h-2.4V30.7z M117.9,26.8h-0.6v-1.7h3v-0.9h0.6v0.9h3v1.7h-0.6v-1.2
				h-5.4V26.8z"/>
			<path d="M127.5,24.4c-0.2,0.6-0.5,1.2-0.9,1.7v5.3h-0.6V27c-0.3,0.4-0.6,0.8-0.9,1.1c-0.1-0.1-0.2-0.5-0.4-0.6
				c0.9-0.8,1.7-2,2.2-3.2L127.5,24.4z M130.2,26.8c0.5,1.3,1.3,2.5,2.2,3.2c-0.1,0.1-0.4,0.3-0.4,0.5c-0.8-0.7-1.5-1.9-2.1-3.2v4.2
				h-0.6v-4.1c-0.5,1.2-1.3,2.4-2.1,3.1c-0.1-0.1-0.3-0.4-0.4-0.5c0.9-0.7,1.7-2,2.2-3.3H127v-0.6h2.2v-1.9h0.6v1.9h2.3v0.6H130.2z"
				/>
			<path d="M134.1,27.8c0-1.6,0.6-2.8,1.6-3.8l0.5,0.2c-0.9,1-1.5,2.1-1.5,3.6s0.6,2.6,1.5,3.6l-0.5,0.2
				C134.8,30.6,134.1,29.4,134.1,27.8z"/>
			<path d="M139.8,29.1c-0.2-0.2-0.6-0.7-1-1v3.4h-0.6v-3.1c-0.4,0.4-0.8,0.7-1.1,1c-0.1-0.2-0.2-0.4-0.3-0.5
				c0.9-0.6,1.8-1.6,2.4-2.6h-2.1v-0.5h1.2v-1.5h0.6v1.5h0.7l0.1,0l0.3,0.2c-0.2,0.6-0.6,1.2-1,1.7c0.4,0.3,1,0.9,1.2,1.1
				L139.8,29.1z M143.6,30.9c0.2,0,0.2-0.2,0.2-1.2c0.1,0.1,0.4,0.2,0.5,0.2c0,1.1-0.2,1.4-0.7,1.4H143c-0.6,0-0.7-0.2-0.7-0.8v-2.8
				h-0.8c-0.1,1.8-0.4,3-1.7,3.7c-0.1-0.1-0.2-0.4-0.4-0.5c1.3-0.6,1.5-1.6,1.5-3.2h-0.8v-3.1h3.7v3.1h-1v2.8c0,0.2,0,0.3,0.2,0.3
				H143.6z M140.8,27.2h2.6v-2h-2.6V27.2z"/>
			<path d="M151.2,24.7v6.6h-0.6v-0.5h-4v0.5H146v-6.7H151.2z M146.6,25.3v2.2h4v-2.2H146.6z M150.6,30.3V28h-4v2.2H150.6z"/>
			<path d="M154.7,24.8c0,0.1-0.1,0.4-0.1,0.5c-0.2,0.7-0.4,2.3-0.4,3.2c0,0.4,0,0.7,0.1,1.1c0.1-0.4,0.3-0.8,0.4-1.2l0.3,0.3
				c-0.2,0.6-0.5,1.4-0.6,1.8c0,0.1,0,0.3,0,0.4c0,0.1,0,0.2,0,0.3l-0.6,0c-0.2-0.6-0.3-1.4-0.3-2.5c0-1.2,0.3-2.7,0.4-3.3
				c0-0.2,0.1-0.4,0.1-0.6L154.7,24.8z M159.8,30.5c-0.4-0.4-0.8-0.7-1.2-0.9v0.1c0,0.7-0.3,1.3-1.4,1.3c-1.1,0-1.6-0.4-1.6-1.1
				c0-0.7,0.6-1.2,1.6-1.2c0.3,0,0.5,0,0.7,0.1c0-0.6-0.1-1.4-0.1-2c-0.3,0-0.5,0-0.8,0c-0.4,0-0.9,0-1.3,0v-0.6
				c0.4,0,0.9,0.1,1.3,0.1c0.2,0,0.5,0,0.7,0v-1c0-0.1,0-0.3,0-0.5h0.7c0,0.2,0,0.3,0,0.5c0,0.2,0,0.6,0,1c0.5,0,0.9-0.1,1.4-0.2
				v0.6c-0.4,0.1-0.9,0.1-1.4,0.2c0,0.8,0.1,1.6,0.1,2.2c0.6,0.3,1.1,0.7,1.6,1L159.8,30.5z M158,29.4c-0.3-0.1-0.5-0.1-0.8-0.1
				c-0.6,0-1,0.3-1,0.6c0,0.4,0.4,0.6,1,0.6c0.7,0,0.9-0.3,0.9-0.9C158,29.6,158,29.5,158,29.4z"/>
			<path d="M163.5,24.7c-0.2,0.7-0.5,1.5-0.8,2.1c0.6,0.6,0.7,1.2,0.7,1.7c0,0.4-0.1,0.8-0.3,0.9c-0.1,0.1-0.3,0.1-0.4,0.1
				c-0.2,0-0.4,0-0.5,0c0-0.2-0.1-0.4-0.2-0.5c0.2,0,0.3,0,0.5,0c0.1,0,0.2,0,0.3-0.1c0.1-0.1,0.2-0.3,0.2-0.5c0-0.4-0.1-1-0.7-1.6
				c0.2-0.6,0.5-1.3,0.6-1.8h-1v6.4h-0.5v-7h1.8l0.1,0L163.5,24.7z M164.8,29c-0.3,0.7-0.7,1.5-1.2,1.9c-0.1-0.1-0.3-0.3-0.4-0.4
				c0.4-0.4,0.8-1,1.1-1.7L164.8,29z M166,24.2c0.6,0.9,1.5,1.7,2.4,2.2c-0.1,0.1-0.2,0.3-0.3,0.5c-0.8-0.5-1.7-1.4-2.3-2.2
				c-0.5,0.8-1.3,1.6-2.2,2.2c-0.1-0.1-0.2-0.3-0.3-0.5c0.9-0.5,1.8-1.5,2.2-2.3H166z M166,28.5v2.3c0,0.3-0.1,0.5-0.3,0.6
				c-0.2,0.1-0.5,0.1-1,0.1c0-0.2-0.1-0.4-0.2-0.6c0.4,0,0.7,0,0.8,0c0.1,0,0.1,0,0.1-0.1v-2.3h-1.8V28h1.8v-1h-1.2v-0.5h3.1V27H166
				v1h1.9v0.5H166z M167.1,28.9c0.4,0.5,0.9,1.3,1.1,1.8l-0.5,0.3c-0.2-0.5-0.7-1.2-1.1-1.8L167.1,28.9z"/>
			<path d="M174.2,25c-0.2,0.1-0.4,0.3-0.5,0.4c-0.6,0.5-1.7,1.4-2.3,1.9c-0.5,0.4-0.5,0.5,0,1c0.7,0.6,2.2,1.8,3,2.6l-0.6,0.5
				c-0.2-0.2-0.4-0.4-0.5-0.6c-0.4-0.5-1.8-1.6-2.5-2.2c-0.7-0.6-0.7-1,0.1-1.6c0.6-0.5,1.8-1.4,2.3-2c0.2-0.2,0.4-0.4,0.5-0.5
				L174.2,25z"/>
			<path d="M179,27.8c0,1.6-0.6,2.8-1.6,3.8l-0.5-0.2c0.9-1,1.5-2.1,1.5-3.6s-0.6-2.6-1.5-3.6l0.5-0.2C178.4,25,179,26.3,179,27.8z"
				/>
		</g>
	</g>
</g>
</svg>
