<?xml version="1.0" encoding="utf-8"?>
<!-- Generator: Adobe Illustrator 24.0.0, SVG Export Plug-In . SVG Version: 6.00 Build 0)  -->
<svg version="1.1" id="レイヤー_1" xmlns="http://www.w3.org/2000/svg" xmlns:xlink="http://www.w3.org/1999/xlink" x="0px"
	 y="0px" viewBox="0 0 178.3 48" style="enable-background:new 0 0 178.3 48;" xml:space="preserve">
<style type="text/css">
	.st0{fill:#B40732;}
	.st1{fill:#FFFFFF;}
</style>
<title>button_header_contact_sp</title>
<g>
	<g>
		<rect class="st0" width="178.3" height="48"/>
	</g>
	<path class="st1" d="M61.1,24.4c1.3,1.7,3.1,2.9,5.2,3.4v0.2c-0.6,0.2-1.1,0.7-1.2,1.4c-2-1-3.5-2.7-4.2-4.8v5.1
		c0,0.2-0.7,0.5-1.3,0.5h-0.3v-4.3c-1.4,1.6-3.2,2.9-5.2,3.7L54,29.4c1.9-1.2,3.5-3,4.5-5h-4.2L54.2,24h5.2v-3.5h-4.5l-0.1-0.4h4.6
		V18l2,0.2c0,0.2-0.1,0.3-0.5,0.4v1.6h2.4l0.9-1.1c0,0,1,0.8,1.6,1.3c0,0.1-0.2,0.2-0.4,0.2h-4.4V24h2.8l0.9-1.1c0,0,1,0.8,1.6,1.3
		c0,0.1-0.2,0.2-0.4,0.2L61.1,24.4z M56.3,20.8c3.6,1.2,2.1,3.9,0.7,2.6c-0.1-0.9-0.4-1.8-0.8-2.6L56.3,20.8z M61.5,23.7
		c0.4-1,0.8-2,1.1-3l1.9,0.8c-0.1,0.1-0.2,0.3-0.5,0.2c-0.7,0.8-1.5,1.5-2.4,2.1L61.5,23.7z"/>
	<path class="st1" d="M75.8,24.7c-1.1,1-2.3,2-3.5,2.8c0,0.2-0.1,0.3-0.3,0.4l-0.8-1.7c0.3-0.1,0.9-0.3,1.5-0.5v-3.8h-1.2l-0.1-0.4
		h1.3v-3.4l1.9,0.2c0,0.2-0.1,0.3-0.5,0.4v2.8l0.6-1c0.4,0.4,0.8,0.8,1.1,1.3c0,0.1-0.2,0.2-0.3,0.2h-1.4v3.2l1.6-0.6L75.8,24.7z
		 M82.2,24.3l1.3,1.1c-0.1,0.1-0.3,0.2-0.5,0.2c-0.2,2.5-0.6,3.7-1.2,4.1c-0.5,0.3-1,0.5-1.6,0.4c0-0.3,0-0.7-0.2-1
		c-0.3-0.3-0.6-0.4-1-0.5v-0.2c-0.8,0.7-1.6,1.2-2.6,1.6L76.3,30c1.6-1.1,2.8-2.7,3.3-4.6h-0.4c-1,1.8-2.6,3.2-4.5,3.9l-0.2-0.2
		c1.4-0.9,2.5-2.2,3.3-3.7h-0.4c-1,1-2.2,1.9-3.5,2.4l-0.1-0.2c1.3-0.9,2.2-2.1,2.8-3.6H75l-0.1-0.4h6.4l0.8-1c0,0,0.9,0.7,1.5,1.2
		c0,0.1-0.2,0.2-0.4,0.2h-4.8c-0.2,0.4-0.4,0.7-0.7,1h3.7L82.2,24.3z M77.7,22.8c0,0.1-0.6,0.5-1.2,0.5h-0.2v-5.1l1.5,0.6h2.7
		l0.7-0.8l1.4,1.1c-0.1,0.1-0.3,0.2-0.5,0.3v3.2c-0.3,0.3-0.8,0.5-1.2,0.5h-0.3v-0.5h-2.9L77.7,22.8z M77.7,19.1v1.3h2.9v-1.3H77.7z
		 M80.6,22.1v-1.3h-2.9v1.3L80.6,22.1z M81.2,25.4c-0.4,1.2-1.2,2.3-2.2,3.2c0.4,0,1.1,0.1,1.3,0.1c0.2,0,0.3,0,0.4-0.1
		c0.3-0.3,0.6-1.3,0.7-3.2L81.2,25.4z"/>
	<path class="st1" d="M100.7,23.7c-0.2,0.1-0.3,0.2-0.5,0.2c-1,0.9-2.1,1.8-3.2,2.4l-0.1-0.1c0.6-0.9,1.1-1.8,1.5-2.7h-3v4.8
		c0,1-0.3,1.8-2.2,1.9c0-0.4-0.1-0.8-0.4-1.1c-0.4-0.3-1-0.5-1.5-0.5v-0.2c0,0,1.9,0.1,2.2,0.1s0.3-0.1,0.3-0.2v-4.7h-5.2l-0.1-0.4
		h6.2c-0.7-1.1-1.7-2-2.9-2.6l0.1-0.1c1.1,0,2.1,0.3,3.1,0.7c0.7-0.5,1.3-1.1,1.9-1.6h-6.7L90,19.1h7l0.9-0.8l1.4,1.4
		c-0.1,0.1-0.3,0.1-0.6,0.1c-1.1,0.6-2.3,1.1-3.5,1.5c0.9,0.7,0.8,1.5,0.4,1.8h2.6l0.9-0.9L100.7,23.7z"/>
	<path class="st1" d="M117.8,21.1c-0.2,0.2-0.4,0.3-0.6,0.3c-0.1,4.7-0.4,7.3-1.2,8.1c-0.5,0.5-1.3,0.8-2,0.7c0-0.4-0.1-0.8-0.3-1.1
		c-0.4-0.3-1-0.5-1.5-0.6v-0.2c0.7,0,1.7,0.1,2.1,0.1c0.2,0,0.4,0,0.5-0.2c0.5-0.5,0.7-3.1,0.9-7.1h-3.3c-0.4,0.7-1,1.4-1.6,2
		c1,1.1,0.1,2.2-0.8,1.5c-0.1-0.3-0.1-0.7-0.3-1l-0.7,0.2v5.9c0,0.1-0.4,0.4-1.1,0.4h-0.2V26h-0.2c-0.4,1.2-1,2.2-1.8,3.1l-0.2-0.1
		c0.4-1.2,0.7-2.4,0.8-3.7l1.4,0.3v-1.3l-1.4,0.4c-0.1,0.1-0.2,0.2-0.3,0.2l-0.4-1.5c0.3,0,0.9,0,1.6-0.1c0.7-1.2,1.4-2.6,1.9-3.9
		l1.9,0.7c-0.1,0.2-0.3,0.3-0.5,0.2c-0.8,1.1-1.7,2.1-2.8,3c0.6,0,1.3-0.1,2-0.1c-0.2-0.4-0.4-0.8-0.6-1.1l0.1-0.1
		c0.5,0.2,1,0.4,1.4,0.8c0.7-1.6,1.1-3.3,1.3-5l2,0.6c-0.1,0.2-0.3,0.3-0.5,0.3c-0.2,0.7-0.5,1.3-0.8,1.9h2.9l0.8-0.9L117.8,21.1z
		 M109.6,18.6c-0.1,0.2-0.3,0.3-0.5,0.3c-0.5,0.7-1,1.2-1.7,1.8c1.3,0.9,0.4,2.2-0.5,1.5c-0.2-0.8-0.6-1.4-1.2-2l0.1-0.1
		c0.4,0.1,0.8,0.2,1.1,0.3c0.2-0.7,0.5-1.6,0.7-2.4L109.6,18.6z M109.3,25.1c3,1.3,1.7,3.6,0.6,2.5c-0.1-0.9-0.3-1.7-0.7-2.5
		L109.3,25.1z M112.2,22.8c3.5,1.4,2.1,4,0.9,2.9c-0.1-1-0.5-2-1-2.8L112.2,22.8z"/>
	<path class="st1" d="M150.1,21.7V20l6.4,3.7v0.7l-6.4,3.7v-1.8l4.1-2.2L150.1,21.7z"/>
</g>
</svg>
