<?xml version="1.0" encoding="utf-8"?>
<!-- Generator: Adobe Illustrator 24.0.0, SVG Export Plug-In . SVG Version: 6.00 Build 0)  -->
<svg version="1.1" id="レイヤー_1" xmlns="http://www.w3.org/2000/svg" xmlns:xlink="http://www.w3.org/1999/xlink" x="0px"
	 y="0px" viewBox="0 0 178.3 48" style="enable-background:new 0 0 178.3 48;" xml:space="preserve">
<style type="text/css">
	.st0{fill:#B40732;}
	.st1{fill:#FFFFFF;}
</style>
<title>button_header_tel_sp</title>
<g>
	<rect class="st0" width="178.3" height="48"/>
</g>
<path class="st1" d="M150.1,21.7V20l6.4,3.7v0.7l-6.4,3.7v-1.8l4.1-2.2L150.1,21.7z"/>
<path class="st1" d="M51,21c-0.7,0.4-1.8,1.1-3.3,1.9c-0.1,0.2-0.2,0.3-0.3,0.3l-0.8-1.6c0.8-0.1,2.6-0.4,4.4-0.7L51,21z M46.9,30
	c1.6-0.5,3-1.2,4.3-2.3l1.7,1.1c-0.1,0.1-0.4,0.2-0.8,0.1c-1.6,0.7-3.4,1.1-5.1,1.2L46.9,30z M47.5,18.3c3.7,0,2.8,2.8,1.3,2
	C48.5,19.5,48,18.8,47.5,18.3L47.5,18.3z M55.1,28.1v-0.5h-4.7v0.4c0,0.1-0.7,0.5-1.3,0.5h-0.2v-6.1l1.6,0.6h4.5l0.7-0.7l1.5,1.1
	c-0.1,0.1-0.3,0.2-0.5,0.2v4.2c-0.4,0.2-0.8,0.4-1.3,0.4H55.1z M54.7,19.7c0.4,1.1,1.5,1.8,4,2v0.2c-0.6,0.1-1,0.6-1,1.2
	c-1.6-0.2-2.9-1.5-3.2-3.1c-0.5,1.6-2,2.3-4.3,2.7v-0.2c1.8-0.6,2.7-1.4,3-2.8h-0.9c-0.6,0.5-1.3,0.9-2,1.2l-0.1-0.1
	c0.8-0.8,1.3-1.7,1.6-2.8l2,0.4c-0.1,0.1-0.2,0.2-0.5,0.2c-0.2,0.3-0.4,0.5-0.6,0.8h3.8l0.7-0.7l1.3,1.2C58.3,20,58.1,20,57.9,20
	c-0.6,0.4-1.2,0.7-1.9,1l-0.1-0.1c0.2-0.4,0.4-0.8,0.5-1.2L54.7,19.7z M50.3,23.3v1h4.7v-1H50.3z M55.1,24.7h-4.7v1.1h4.7L55.1,24.7
	z M55.1,27.2v-1.1h-4.7v1.1L55.1,27.2z M53.1,28.1c7.3,0.1,4.7,2.8,3.3,1.8c-1-0.8-2.2-1.3-3.4-1.6L53.1,28.1z"/>
<path class="st1" d="M69.9,24.1c3.5,0.7,2.3,3.3,1.1,2.3c-0.2-0.8-0.5-1.5-1.1-2.1v5.4c0,0.1-0.6,0.5-1.1,0.5h-0.3v-4.2
	c-0.6,0.9-1.3,1.7-2.2,2.3l-0.2-0.1c0.9-1.4,1.6-3,1.9-4.6h-1.7l-0.1-0.4h2.3V18l1.9,0.2c0,0.2-0.1,0.3-0.5,0.4v4.5h0.4l0.7-0.9
	c0,0,0.8,0.6,1.3,1.1c-0.1,0.1-0.2,0.2-0.3,0.2h-2.1V24.1z M66.4,19.1c2.8,1.6,1.4,3.8,0.4,2.7c0-0.9-0.2-1.8-0.6-2.6L66.4,19.1z
	 M70.2,22.1c0.2-0.8,0.4-2,0.5-3l1.7,0.5c-0.1,0.2-0.3,0.3-0.5,0.3c-0.5,0.8-1,1.6-1.6,2.3L70.2,22.1z M77.4,24.7
	c0,0,0.8,0.5,1.3,0.9c0,0.1-0.1,0.2-0.3,0.3l-1.6,0.3v3.5c0,0.1-0.6,0.5-1.2,0.5h-0.3v-3.7l-3.4,0.7l-0.2-0.3l3.6-0.7V18l1.9,0.2
	c0,0.2-0.1,0.3-0.5,0.4v7.3l0,0L77.4,24.7z M72.2,22.3c3.6,0.4,2.6,3,1.3,2.2c-0.3-0.8-0.7-1.5-1.4-2.1L72.2,22.3z M72.4,19.2
	c3.5,0.6,2.4,3.1,1.1,2.2C73.3,20.6,72.9,19.9,72.4,19.2L72.4,19.2z"/>
<path class="st1" d="M90,19.7c0,0,0.8,0.6,1.2,1.1c0,0.1-0.2,0.2-0.3,0.2H86l-0.1-0.4h3.4L90,19.7z M89.5,21.4c0,0,0.7,0.6,1.2,1
	c0,0.1-0.2,0.2-0.3,0.2h-3.7l-0.1-0.4h2.3L89.5,21.4z M89.5,23.1c0,0,0.7,0.6,1.2,1c0,0.1-0.2,0.2-0.3,0.2h-3.7l-0.1-0.4h2.3
	L89.5,23.1z M89.7,25l1.3,1c-0.1,0.1-0.3,0.2-0.5,0.2v3c-0.3,0.2-0.7,0.4-1.1,0.4h-0.2v-0.7h-1.3v0.8c0,0.1-0.6,0.4-1.2,0.4h-0.2v-5
	l1.4,0.6H89L89.7,25z M86.7,19.3l-0.1-0.4h2.2l0.7-0.9c0,0,0.8,0.6,1.2,1.1c0,0.1-0.2,0.2-0.3,0.2H86.7z M89.2,28.5v-2.4h-1.3v2.4
	L89.2,28.5z M96.9,21.3c0,0,0.8,0.6,1.3,1.1c0,0.1-0.2,0.2-0.3,0.2h-7l-0.1-0.4h2.8v-1.1h-2l-0.1-0.4h2.1v-1.1h-2.4l-0.1-0.4h2.5V18
	l1.9,0.2c0,0.2-0.1,0.3-0.5,0.4v0.8h0.8l0.7-1c0,0,0.8,0.6,1.3,1.1c0,0.1-0.2,0.2-0.3,0.2h-2.5v1.1h0.7l0.7-0.9c0,0,0.8,0.6,1.2,1
	c0,0.1-0.2,0.2-0.3,0.2h-2.3v1.1h1.1L96.9,21.3z M96.4,22.9l1.4,1.1c-0.1,0.1-0.3,0.2-0.5,0.2v4.2c0,1-0.2,1.6-1.8,1.7
	c0-0.4-0.1-0.7-0.2-1.1c-0.2-0.3-0.6-0.5-0.9-0.5v-0.2c0,0,1,0.1,1.2,0.1s0.2-0.1,0.2-0.2v-1.1h-2.6v2.5c0,0.1-0.6,0.5-1.2,0.5h-0.2
	V23l1.5,0.6h2.4L96.4,22.9z M93.2,24v1.2h2.6V24H93.2z M95.8,26.8v-1.2h-2.6v1.2L95.8,26.8z"/>
<path class="st1" d="M117.1,22.8c-0.1,0.1-0.2,0.2-0.5,0.2c-0.9,0.7-1.8,1.3-2.7,1.8c1,1.3,2.4,2.2,3.9,2.7v0.1
	c-0.7,0.2-1.2,0.8-1.3,1.5c-1.9-1.3-3.2-2.9-3.9-6.2v5.4c0,1.1-0.2,1.7-2.1,1.9c0-0.4-0.1-0.8-0.4-1.1c-0.4-0.3-0.8-0.5-1.3-0.5
	v-0.2c0,0,1.6,0.1,1.9,0.1s0.3-0.1,0.3-0.3v-2.8c-0.8,0.8-1.9,1.8-3.5,3c0,0.2-0.1,0.3-0.3,0.4l-1.2-1.6c0.9-0.3,2.8-1.2,4.9-2.2
	v-3.8h-4.9l-0.1-0.4h5V18l2,0.2c0,0.2-0.1,0.3-0.5,0.4v2.2h2.8l0.8-1.1c0,0,1,0.7,1.5,1.2c0,0.1-0.2,0.2-0.4,0.2h-4.9v0.9
	c0.2,0.9,0.6,1.7,1.1,2.4c0.6-0.9,1.1-1.8,1.6-2.8L117.1,22.8z M107.4,21.8c4,0.9,2.7,3.9,1.2,2.8c-0.2-1-0.7-1.9-1.3-2.7
	L107.4,21.8z M113.2,18.5c3.4-0.1,2.6,2.5,1.2,1.8c-0.3-0.7-0.7-1.3-1.3-1.7L113.2,18.5z"/>
</svg>
