<svg xmlns="http://www.w3.org/2000/svg" viewBox="0 0 137.14 52.16"><defs><style>.cls-1{fill:#fff;}.cls-2{fill:#45b035;}.cls-3,.cls-4{fill:none;stroke-miterlimit:10;}.cls-3{stroke:#45b035;stroke-linecap:round;stroke-width:3px;}.cls-4{stroke:#717071;}</style></defs><title>header_main_nav_contents_ul_kenmigawa_li_02_hover</title><g id="レイヤー_2" data-name="レイヤー 2"><g id="レイヤー_1-2" data-name="レイヤー 1"><rect class="cls-1" width="137.14" height="52.16"/><path class="cls-2" d="M54.43,32.16l-.07,2H49.23v-.36l1-.11c0-.91,0-1.83,0-2.71v-.54c0-.92,0-1.85,0-2.75l-1-.1v-.36h2.92v.36l-1,.1c0,.91,0,1.83,0,2.74v.69c0,.79,0,1.68,0,2.59h2.39l.33-1.5Z"/><path class="cls-2" d="M55.35,31.67a2.39,2.39,0,1,1,4.76,0,2.39,2.39,0,1,1-4.76,0Zm3.8,0c0-1.44-.53-2.21-1.43-2.21s-1.42.77-1.42,2.21.52,2.17,1.42,2.17S59.15,33.09,59.15,31.67Z"/><path class="cls-2" d="M65.26,33a1.9,1.9,0,0,1-1.92,1.27A2.3,2.3,0,0,1,61,31.67a2.44,2.44,0,0,1,2.41-2.61,1.77,1.77,0,0,1,1.82,1.32.43.43,0,0,1-.45.38.51.51,0,0,1-.55-.48l-.2-.73a2,2,0,0,0-.56-.09c-.94,0-1.59.77-1.59,2.11s.72,2.09,1.71,2.09a1.72,1.72,0,0,0,1.45-.78Z"/><path class="cls-2" d="M70.83,33.69a1,1,0,0,1-.88.53.89.89,0,0,1-.93-.81,2.11,2.11,0,0,1-1.55.83A1.25,1.25,0,0,1,66.1,33c0-.63.36-1.08,1.71-1.57A11.6,11.6,0,0,1,69,31.06v-.32c0-1-.29-1.28-1-1.28a2.67,2.67,0,0,0-.59.08l-.2.71q-.12.48-.51.48a.41.41,0,0,1-.47-.39,1.84,1.84,0,0,1,2-1.28c1.09,0,1.61.49,1.61,1.78v2.25c0,.49.14.66.38.66s.28-.1.41-.26ZM69,31.38c-.37.11-.73.23-1,.32-.91.35-1.07.75-1.07,1.13a.75.75,0,0,0,.84.8c.37,0,.6-.15,1.18-.6Z"/><path class="cls-2" d="M74.25,33.71a1.48,1.48,0,0,1-1.2.53A1.06,1.06,0,0,1,71.88,33c0-.25,0-.47,0-.86V29.66H71v-.37l.92-.11.28-1.4h.59l-.06,1.42h1.39v.46h-1.4V33c0,.55.23.78.6.78a1.15,1.15,0,0,0,.71-.3Z"/><path class="cls-2" d="M77.05,33.78v.33H74.66v-.33l.8-.11c0-.53,0-1.26,0-1.74v-.55c0-.57,0-.91,0-1.36l-.84-.08v-.31l1.59-.56.14.1,0,1.37v1.39c0,.48,0,1.21,0,1.74Zm-1.84-6.54a.67.67,0,0,1,1.34,0,.67.67,0,0,1-1.34,0Z"/><path class="cls-2" d="M77.87,31.67a2.39,2.39,0,1,1,4.75,0,2.38,2.38,0,1,1-4.75,0Zm3.8,0c0-1.44-.53-2.21-1.43-2.21s-1.43.77-1.43,2.21.52,2.17,1.43,2.17S81.67,33.09,81.67,31.67Z"/><path class="cls-2" d="M89.05,33.78v.33H86.67v-.33l.76-.11c0-.52,0-1.24,0-1.74V31c0-.94-.25-1.26-.86-1.26a2.15,2.15,0,0,0-1.45.69v1.53c0,.48,0,1.21,0,1.74l.72.11v.33H83.5v-.33l.77-.11c0-.53,0-1.26,0-1.74v-.54c0-.58,0-.94,0-1.36L83.44,30v-.31l1.45-.57.14.1.09.85a2.64,2.64,0,0,1,1.86-1c.88,0,1.32.55,1.32,1.88v1c0,.5,0,1.22,0,1.74Z"/><path class="cls-2" d="M36.33,14a2.88,2.88,0,0,1,1.64.65s0,0,.05.05c1.3-.08,4.23-.34,4.75-.41s.56-.38.84-.38S45,14.77,45,15.16s-.42.43-.52.8c-.13.63-.4,2.2-.67,3.54.45,0,.82.25.82.53a.41.41,0,0,1-.45.45c-.33,0-1-.1-1.65-.1-1,0-2.7.1-4.21.2V21c0,.34-.11.56-.45.56s-.63-.42-.63-1c0-.29.06-1,0-1.53a23.59,23.59,0,0,0-.36-3.73,2,2,0,0,0-.74-1.1Zm6.5,5.47a41,41,0,0,0,.54-4.3c0-.1,0-.16-.17-.16-.78,0-2.76.16-3.47.24-.42.05-.81.18-1.06.18a1.37,1.37,0,0,1-.54-.18c0,.88.13,3.25.17,4.54C39.62,19.72,41.6,19.57,42.83,19.51Z"/><path class="cls-2" d="M50.35,12a3.19,3.19,0,0,1,1,.29c.39.21.89.65.89.92s-.28.33-.46.61a15.53,15.53,0,0,1-.91,1.46,1.88,1.88,0,0,0,.46.06c.7,0,3.51-.4,4.22-.52s.69-.28.94-.28c.49,0,1.19.3,1.19.69,0,.24-.09.4-.53.4s-1.21,0-1.82,0c-.43,0-1.14.1-1.82.18.57.24,1,.6,1,.83s-.26.36-.37.65a10.18,10.18,0,0,1-5.07,5.37l-.21-.24c2.56-1.69,4.29-4.6,4.29-5.87a.76.76,0,0,0-.38-.64l-.66.09a7.25,7.25,0,0,1-.87.15,1.33,1.33,0,0,1-.7-.41,11.67,11.67,0,0,1-3,2.72l-.21-.23c2-1.68,3.53-4.31,3.53-5.2,0-.3-.19-.51-.59-.86Z"/><path class="cls-2" d="M59.13,16.56c.3.47.52.86,1.11.86,1.22,0,5.6-.29,6.25-.34.87-.06,1.3-.14,1.63-.14.58,0,1.19.27,1.19.69,0,.26-.19.41-.66.41L66.9,18c-.86,0-4.31.19-5.28.31-.81.09-1,.31-1.38.31s-1.07-.7-1.26-1.19a2,2,0,0,1-.11-.81Z"/><path class="cls-2" d="M71.21,15.69l.12-.27a12.48,12.48,0,0,1,1.74.47c.83.3,1.43.78,1.43,1.36a.45.45,0,0,1-.47.48c-.47,0-.69-.49-1.34-1A8.11,8.11,0,0,0,71.21,15.69ZM81,14.91l.27.18a18.53,18.53,0,0,1-7.09,6.62c-.3.18-.45.55-.82.55a2.62,2.62,0,0,1-1.6-1,2.38,2.38,0,0,1-.29-1l.2-.12c.32.39.74.85,1.19.85C74,21,78.73,18,81,14.91Zm-8.11-1.78.13-.29a14.27,14.27,0,0,1,1.69.48c.88.38,1.39.81,1.39,1.37a.49.49,0,0,1-.47.51c-.43,0-.68-.52-1.36-1.09A8.15,8.15,0,0,0,72.93,13.13Z"/><path class="cls-2" d="M82.77,15.85a1.08,1.08,0,0,0,.73.47c.65,0,3.13-.27,3.72-.34.33-.05.42-.28.66-.28s1.25.62,1.25,1-.34.35-.39.66c-.13.73-.39,2.37-.59,3.5.31.11.6.37.6.56a.35.35,0,0,1-.36.36c-.24,0-.82-.12-1.3-.12a20.2,20.2,0,0,0-2.89.29,5.46,5.46,0,0,1-.74.21c-.35,0-.82-.55-.92-.82a1.3,1.3,0,0,1-.12-.57l.14-.1c.24.25.44.5.81.5.64,0,2.77-.24,3.9-.33,0-.5.13-1.15.19-1.8-1.08.07-2.3.23-3,.33a5.8,5.8,0,0,1-.68.19c-.27,0-.68-.43-.81-.69a1.85,1.85,0,0,1-.15-.57l.16-.08a1.18,1.18,0,0,0,.75.41c.41,0,2.58-.24,3.81-.33.08-.64.13-1.2.17-1.47,0-.08,0-.11-.1-.11a22.49,22.49,0,0,0-3.28.38,4.57,4.57,0,0,1-.79.23c-.33,0-.8-.56-.87-.84a1.83,1.83,0,0,1-.07-.56Z"/><path class="cls-2" d="M101.33,14.48l.29.18a19.32,19.32,0,0,1-6.84,6.78c-.3.18-.45.53-.77.53a2.59,2.59,0,0,1-1.66-1.08,2.75,2.75,0,0,1-.26-.95l.2-.13c.36.41.79.85,1.22.85C94.63,20.66,99.47,17.19,101.33,14.48Zm-9-1.23c1.57.35,3.46,1.19,3.46,2.3a.56.56,0,0,1-.56.6c-.28,0-.48-.17-.81-.59a8.5,8.5,0,0,0-2.25-2.05Z"/><line class="cls-3" x1="9.86" y1="39.19" x2="126.86" y2="39.19"/><line class="cls-4" x1="0.79" y1="6.29" x2="0.79" y2="45.29"/></g></g></svg>