<svg xmlns="http://www.w3.org/2000/svg" viewBox="0 0 137.35 52.16"><defs><style>.cls-1{fill:#fff;}.cls-2{fill:#3e3a39;}.cls-3{fill:none;stroke:#717071;stroke-miterlimit:10;}</style></defs><title>header_main_nav_contents_ul_kenmigawa_li_06_nomal</title><g id="レイヤー_2" data-name="レイヤー 2"><g id="レイヤー_1-2" data-name="レイヤー 1"><rect class="cls-1" x="0.21" width="137.14" height="52.16"/><path class="cls-2" d="M48.77,27.64c0,.9,0,1.83,0,2.75v.51c0,.91,0,1.83,0,2.74l1,.11v.35H46.91v-.35l.9-.11c0-.9,0-1.8,0-2.71V28.15l-2.34,6h-.44l-2.42-5.93c0,.91.06,2.12.06,2.17v3.27l.9.14v.35H41.28v-.35l.94-.14v-6l-.95-.11v-.36h1.89l2.33,5.74,2.24-5.74h2v.36Z"/><path class="cls-2" d="M50.68,31.67a2.39,2.39,0,1,1,4.75,0,2.38,2.38,0,1,1-4.75,0Zm3.79,0c0-1.44-.53-2.21-1.42-2.21s-1.43.77-1.43,2.21.52,2.17,1.43,2.17S54.47,33.09,54.47,31.67Z"/><path class="cls-2" d="M61.6,33.78v.32l-1.6.11-.06-.71a1.78,1.78,0,0,1-1.46.74c-1.26,0-2.12-1-2.12-2.54s.93-2.64,2.21-2.64a1.69,1.69,0,0,1,1.36.67V27.28l-.87-.08v-.31l1.6-.44.13.08,0,1.47v5.69Zm-1.69-3.65a1.69,1.69,0,0,0-1.17-.55c-.8,0-1.47.6-1.47,2.09s.62,2,1.46,2a1.44,1.44,0,0,0,1.18-.59Z"/><path class="cls-2" d="M63.15,31.6c0,1.37.71,2.06,1.72,2.06a1.77,1.77,0,0,0,1.46-.74l.2.14a2.09,2.09,0,0,1-2,1.18,2.28,2.28,0,0,1-2.33-2.55,2.44,2.44,0,0,1,2.37-2.63,1.86,1.86,0,0,1,1.93,2,2.15,2.15,0,0,1-.07.57Zm2-.37c.45,0,.55-.23.55-.57a1.16,1.16,0,0,0-1.14-1.2c-.63,0-1.3.53-1.41,1.76Z"/><path class="cls-2" d="M69.86,33.78v.32H67.32v-.32l.83-.11c0-.57,0-1.17,0-1.74V27.28l-.84-.08v-.31l1.6-.44.14.08L69,28v3.93c0,.57,0,1.17,0,1.74Z"/><path class="cls-2" d="M79.17,33.75v.35a2.39,2.39,0,0,1-.78.11c-.64,0-.94-.18-1-.66l-.43-1.65c-.2-.84-.54-1-1.4-1H75c0,1,0,1.87,0,2.76l1,.12v.35H73v-.35l1-.11c0-.9,0-1.81,0-2.74v-.51c0-.92,0-1.84,0-2.75l-1-.1v-.36h2.9c1.57,0,2.5.67,2.5,1.82,0,.81-.6,1.53-1.78,1.74.65.14,1,.51,1.24,1.31l.48,1.62ZM75.8,30.48A1.45,1.45,0,0,0,77.45,29c0-.89-.49-1.4-1.58-1.4H75c0,.91,0,1.82,0,2.89Z"/><path class="cls-2" d="M79.78,31.67a2.39,2.39,0,1,1,4.75,0,2.38,2.38,0,1,1-4.75,0Zm3.8,0c0-1.44-.53-2.21-1.43-2.21s-1.42.77-1.42,2.21.52,2.17,1.42,2.17S83.58,33.09,83.58,31.67Z"/><path class="cls-2" d="M85.46,31.67a2.39,2.39,0,1,1,4.75,0,2.38,2.38,0,1,1-4.75,0Zm3.8,0c0-1.44-.53-2.21-1.43-2.21s-1.42.77-1.42,2.21.52,2.17,1.42,2.17S89.26,33.09,89.26,31.67Z"/><path class="cls-2" d="M99.68,33.78v.32H97.31v-.32l.77-.11c0-.52,0-1.24,0-1.74V31c0-1-.27-1.24-.86-1.24a2.1,2.1,0,0,0-1.42.69,4.22,4.22,0,0,1,0,.53v1c0,.5,0,1.22,0,1.74l.71.11v.32H94.19v-.32l.79-.11c0-.52,0-1.24,0-1.74V31c0-.95-.27-1.26-.85-1.26a2,2,0,0,0-1.41.68v1.53c0,.48,0,1.21,0,1.74l.72.11v.32H91.1v-.32l.76-.11c0-.53,0-1.26,0-1.74v-.54c0-.58,0-.94,0-1.36L91,30v-.31l1.45-.57.14.1.09.84a2.53,2.53,0,0,1,1.81-1,1.14,1.14,0,0,1,1.22,1,2.43,2.43,0,0,1,1.87-1c.84,0,1.33.52,1.33,1.8v1.07c0,.5,0,1.22,0,1.74Z"/><path class="cls-2" d="M35.13,13.6a1.53,1.53,0,0,0,1,.56,31.53,31.53,0,0,0,3.69-.44,11.16,11.16,0,0,0,1.38-.45c.73,0,1.25.32,1.26.61s-.12.38-.56.45c-.73.07-2.36.27-3.48.4.43.18.71.42.71.57s-.14.34-.18.61-.06.61-.1,1l2.83-.36c.74-.11,1-.23,1.23-.23.44,0,1.33.34,1.33.75,0,.26-.14.42-.45.44s-1.24-.13-2-.13a28.65,28.65,0,0,0-3,.24c0,.9-.07,1.85-.05,2.38,0,.69.21.93,1.32.93a8.91,8.91,0,0,0,2.29-.25c.68,0,1,.34,1,.58s-.21.42-.6.51a14.86,14.86,0,0,1-2.53.18c-1.87,0-2.36-.46-2.37-1.63,0-.52,0-1.59,0-2.58a21.72,21.72,0,0,0-2.22.44c-.59.17-.77.37-1.1.37a1.55,1.55,0,0,1-1.09-.93,2.19,2.19,0,0,1-.09-.66l.2-.06a1.28,1.28,0,0,0,.91.52c.58,0,2.22-.24,3.4-.41,0-.54,0-1,0-1.26a1.49,1.49,0,0,0-.31-.95l-.19,0c-.47.05-1,.22-1.3.22a1.52,1.52,0,0,1-1-.78,3.36,3.36,0,0,1-.22-.61Z"/><path class="cls-2" d="M46.33,15.67c.27.33.52.65.87.65.88,0,4.34-.52,6.54-.73a11.4,11.4,0,0,0,1.31-.24c.61,0,1.39.33,1.39.74s-.1.39-.42.39-.77-.1-1.44-.1-1.6,0-2.7.14c.38.22.69.47.69.71s-.31.35-.5.8a8.74,8.74,0,0,1-4.53,5.1l-.25-.26a8.32,8.32,0,0,0,3.85-5.75.77.77,0,0,0-.19-.51c-1,.15-2.14.36-2.54.46a5.55,5.55,0,0,1-1.12.3,1.6,1.6,0,0,1-1.08-.92,1.86,1.86,0,0,1-.09-.71Zm1.92-2.77a2.15,2.15,0,0,0,1.31.46A11.42,11.42,0,0,0,51.94,13c.75-.17.91-.38,1.16-.38.64,0,1.12.22,1.12.6,0,.21-.14.34-.56.42a26.16,26.16,0,0,1-4.06.53c-.7,0-1.08-.42-1.52-1.16Zm6.46-.17a4.28,4.28,0,0,1,1.47.83.94.94,0,0,1,.4.77.34.34,0,0,1-.35.35c-.21,0-.32-.25-.57-.57a5.71,5.71,0,0,0-1.13-1.19Zm1-1.06a5.52,5.52,0,0,1,1.43.72,1,1,0,0,1,.48.81.33.33,0,0,1-.34.36c-.23,0-.35-.26-.61-.59a5.3,5.3,0,0,0-1.12-1.09Z"/><path class="cls-2" d="M59.47,15.08v-.26a2.83,2.83,0,0,1,.83-.13c.5,0,1.48.57,1.48,1s-.24.42-.31.74a8.55,8.55,0,0,1-4.17,5.64l-.21-.24a9.19,9.19,0,0,0,3.34-6.06C60.43,15.37,59.82,15.18,59.47,15.08ZM62.1,13.4a2.2,2.2,0,0,1,.89-.19c.59,0,1.49.52,1.49.87s-.28.32-.33.74c-.06.65-.17,3.95-.17,4.93,0,.17.09.22.24.15a15.75,15.75,0,0,0,4.83-3.4l.26.21A15.64,15.64,0,0,1,64.59,21c-.3.18-.49.57-.78.57s-.93-.73-.93-1,.15-.35.19-.87c0-.71.13-4.16,0-5.4,0-.34-.36-.49-1-.58Z"/><path class="cls-2" d="M71.87,15.08v-.26a2.91,2.91,0,0,1,.84-.13c.49,0,1.48.57,1.48,1s-.25.42-.31.74a8.6,8.6,0,0,1-4.18,5.64l-.21-.24a9.17,9.17,0,0,0,3.35-6.06C72.84,15.37,72.22,15.18,71.87,15.08ZM74.5,13.4a2.24,2.24,0,0,1,.9-.19c.58,0,1.48.52,1.48.87s-.28.32-.33.74c-.06.65-.17,3.95-.17,4.93,0,.17.1.22.24.15a15.75,15.75,0,0,0,4.83-3.4l.26.21A15.6,15.6,0,0,1,77,21c-.3.18-.5.57-.78.57s-.94-.73-.94-1,.16-.35.19-.87c.06-.71.13-4.16.06-5.4,0-.34-.37-.49-1-.58Z"/><path class="cls-2" d="M83.29,16.56c.3.47.52.86,1.1.86,1.22,0,5.61-.29,6.26-.34.87-.06,1.29-.14,1.62-.14.58,0,1.2.27,1.2.69,0,.26-.2.41-.67.41l-1.75,0c-.86,0-4.3.19-5.28.31-.81.09-1,.31-1.38.31s-1.06-.7-1.26-1.19a2.23,2.23,0,0,1-.1-.81Z"/><path class="cls-2" d="M101.47,17.19c1.62.85,3.32,2.58,3.32,4.08a.64.64,0,0,1-.61.71c-.51,0-.48-.57-1-1.75-1.89.43-5.07.95-6.18,1.21-.27,0-.57.4-.8.4-.42,0-1-.69-1.12-1.13a1.31,1.31,0,0,1,0-.52l.17-.09a1.31,1.31,0,0,0,.76.35c.12,0,.37,0,.71,0,1-1.75,2.7-5.63,2.7-6.3,0-.3-.24-.55-.66-.85l.07-.21a3.42,3.42,0,0,1,.84.13c.59.18,1.24.8,1.24,1.13s-.35.38-.51.71c-.62,1.22-1.93,3.75-2.87,5.31,1.6-.17,4-.45,5.4-.69a8.53,8.53,0,0,0-1.7-2.23Z"/><line class="cls-3" x1="0.5" y1="6.29" x2="0.5" y2="45.29"/></g></g></svg>