<svg xmlns="http://www.w3.org/2000/svg" viewBox="0 0 137.56 52.16"><defs><style>.cls-1{fill:#fff;}.cls-2{fill:#45b035;}.cls-3,.cls-4{fill:none;stroke-miterlimit:10;}.cls-3{stroke:#45b035;stroke-linecap:round;stroke-width:3px;}.cls-4{stroke:#717071;}</style></defs><title>header_main_nav_contents_ul_kenmigawa_li_06_hover</title><g id="レイヤー_2" data-name="レイヤー 2"><g id="レイヤー_1-2" data-name="レイヤー 1"><rect class="cls-1" x="0.42" width="137.14" height="52.16"/><path class="cls-2" d="M49,27.64c0,.9,0,1.83,0,2.75v.51c0,.91,0,1.83,0,2.74l1,.11v.36H47.12v-.36l.9-.11c0-.9,0-1.8,0-2.71V28.15l-2.34,6h-.44l-2.42-5.94c0,.91.06,2.12.06,2.17v3.27l.89.14v.36H41.49v-.36l.93-.14v-6l-.94-.11v-.36h1.89l2.33,5.74L48,27.18h2v.36Z"/><path class="cls-2" d="M50.89,31.67a2.39,2.39,0,1,1,4.75,0,2.38,2.38,0,1,1-4.75,0Zm3.79,0c0-1.44-.53-2.21-1.42-2.21s-1.43.77-1.43,2.21.52,2.17,1.43,2.17S54.68,33.09,54.68,31.67Z"/><path class="cls-2" d="M61.81,33.78v.33l-1.61.1-.05-.71a1.78,1.78,0,0,1-1.46.74c-1.26,0-2.12-1-2.12-2.54s.93-2.64,2.21-2.64a1.69,1.69,0,0,1,1.36.67V27.28l-.87-.08v-.31l1.59-.44.14.08L61,28v5.69Zm-1.69-3.65A1.69,1.69,0,0,0,59,29.58c-.8,0-1.48.61-1.48,2.09s.63,2,1.47,2a1.44,1.44,0,0,0,1.18-.59Z"/><path class="cls-2" d="M63.36,31.6c0,1.37.71,2.06,1.72,2.06a1.77,1.77,0,0,0,1.46-.74l.2.14a2.1,2.1,0,0,1-1.95,1.18,2.28,2.28,0,0,1-2.33-2.55,2.44,2.44,0,0,1,2.37-2.63,1.86,1.86,0,0,1,1.93,2,2.15,2.15,0,0,1-.07.57Zm2-.37c.46,0,.56-.23.56-.57a1.16,1.16,0,0,0-1.14-1.2c-.63,0-1.3.53-1.41,1.76Z"/><path class="cls-2" d="M70.07,33.78v.33H67.53v-.33l.82-.11c0-.57,0-1.17,0-1.74V27.28l-.84-.08v-.31l1.6-.44.14.08,0,1.47v3.93c0,.57,0,1.17,0,1.74Z"/><path class="cls-2" d="M79.38,33.75v.36a2.74,2.74,0,0,1-.78.1c-.65,0-.94-.18-1-.66l-.43-1.65c-.2-.84-.54-1-1.4-1h-.55c0,1,0,1.87,0,2.76l1,.12v.36H73.24v-.36l1-.11c0-.9,0-1.81,0-2.74v-.51c0-.92,0-1.84,0-2.75l-1-.1v-.36h2.9c1.57,0,2.49.67,2.49,1.82,0,.81-.59,1.53-1.77,1.74.65.14,1,.51,1.23,1.31l.49,1.62ZM76,30.48A1.45,1.45,0,0,0,77.66,29c0-.89-.49-1.4-1.58-1.4h-.89c0,.91,0,1.82,0,2.89Z"/><path class="cls-2" d="M80,31.67a2.39,2.39,0,1,1,4.75,0,2.38,2.38,0,1,1-4.75,0Zm3.8,0c0-1.44-.53-2.21-1.43-2.21s-1.43.77-1.43,2.21.52,2.17,1.43,2.17S83.79,33.09,83.79,31.67Z"/><path class="cls-2" d="M85.67,31.67a2.39,2.39,0,1,1,4.75,0,2.38,2.38,0,1,1-4.75,0Zm3.8,0c0-1.44-.53-2.21-1.43-2.21s-1.43.77-1.43,2.21.52,2.17,1.43,2.17S89.47,33.09,89.47,31.67Z"/><path class="cls-2" d="M99.89,33.78v.33H97.52v-.33l.76-.11c0-.52,0-1.24,0-1.74V31c0-1-.27-1.24-.87-1.24a2.1,2.1,0,0,0-1.41.69,4.22,4.22,0,0,1,0,.53v1c0,.5,0,1.22,0,1.74l.71.11v.33H94.4v-.33l.79-.11c0-.52,0-1.24,0-1.74V31c0-.95-.26-1.26-.85-1.26a2,2,0,0,0-1.4.68v1.53c0,.48,0,1.21,0,1.74l.71.11v.33H91.3v-.33l.77-.11c0-.53,0-1.26,0-1.74v-.54c0-.58,0-.94,0-1.36L91.24,30v-.31l1.45-.57.14.1.09.84a2.53,2.53,0,0,1,1.8-1A1.15,1.15,0,0,1,96,30a2.43,2.43,0,0,1,1.87-1c.84,0,1.32.52,1.32,1.8v1.07c0,.5,0,1.22,0,1.74Z"/><path class="cls-2" d="M35.34,13.6a1.53,1.53,0,0,0,1,.56,31.53,31.53,0,0,0,3.69-.44,11.16,11.16,0,0,0,1.38-.45c.73,0,1.25.32,1.26.61s-.12.38-.56.45c-.73.07-2.36.27-3.48.4.43.18.71.42.71.57s-.14.34-.18.61-.06.61-.1,1l2.83-.37c.74-.1,1-.22,1.22-.22.44,0,1.34.34,1.34.74s-.14.43-.45.45-1.24-.13-2-.13a28.7,28.7,0,0,0-3,.24c0,.9-.07,1.85,0,2.38,0,.69.2.93,1.32.93a9,9,0,0,0,2.29-.25c.68,0,1,.34,1,.58s-.21.42-.6.51a14.86,14.86,0,0,1-2.53.18c-1.87,0-2.36-.46-2.37-1.63,0-.52,0-1.59,0-2.58a22,22,0,0,0-2.23.44c-.58.17-.76.37-1.09.37a1.55,1.55,0,0,1-1.09-.93,1.92,1.92,0,0,1-.09-.66l.19-.06c.29.28.52.52.91.52.59,0,2.23-.24,3.41-.41,0-.54,0-1,0-1.26a1.49,1.49,0,0,0-.31-.95l-.19,0c-.47.05-1,.22-1.3.22a1.52,1.52,0,0,1-1-.78,3.36,3.36,0,0,1-.22-.61Z"/><path class="cls-2" d="M46.54,15.67c.27.33.52.65.87.65.88,0,4.34-.52,6.54-.73a11.4,11.4,0,0,0,1.31-.24c.61,0,1.39.33,1.39.74s-.1.39-.42.39-.78-.1-1.44-.1-1.6,0-2.7.14c.37.22.69.47.69.71s-.32.35-.5.8a8.74,8.74,0,0,1-4.53,5.1l-.25-.26a8.3,8.3,0,0,0,3.84-5.75.82.82,0,0,0-.18-.51c-1,.15-2.14.36-2.54.46a5.55,5.55,0,0,1-1.12.3,1.6,1.6,0,0,1-1.08-.92,1.86,1.86,0,0,1-.09-.71Zm1.92-2.77a2.15,2.15,0,0,0,1.31.46A11.52,11.52,0,0,0,52.15,13c.74-.17.91-.38,1.16-.38.64,0,1.12.22,1.12.6,0,.21-.15.34-.56.42a26.32,26.32,0,0,1-4.06.53c-.7,0-1.08-.42-1.52-1.16Zm6.46-.17a4.37,4.37,0,0,1,1.47.83,1,1,0,0,1,.4.77.34.34,0,0,1-.35.35c-.21,0-.32-.25-.57-.57a5.71,5.71,0,0,0-1.13-1.19Zm1-1.06a5.52,5.52,0,0,1,1.43.72,1,1,0,0,1,.48.81.33.33,0,0,1-.34.36c-.23,0-.35-.26-.61-.59a5.56,5.56,0,0,0-1.12-1.09Z"/><path class="cls-2" d="M59.68,15.08v-.26a2.83,2.83,0,0,1,.83-.13c.5,0,1.48.57,1.48,1s-.24.42-.31.74a8.55,8.55,0,0,1-4.17,5.64l-.21-.24a9.19,9.19,0,0,0,3.34-6.06C60.64,15.37,60,15.18,59.68,15.08Zm2.63-1.68a2.2,2.2,0,0,1,.89-.19c.59,0,1.48.52,1.48.87s-.27.32-.32.74c-.06.65-.17,3.95-.17,4.93,0,.17.09.22.23.15a15.8,15.8,0,0,0,4.84-3.4l.26.21A15.64,15.64,0,0,1,64.8,21c-.3.18-.49.57-.78.57s-.93-.73-.93-1,.15-.35.19-.87c0-.71.13-4.16,0-5.4,0-.34-.36-.49-1-.58Z"/><path class="cls-2" d="M72.08,15.08v-.26a2.85,2.85,0,0,1,.84-.13c.49,0,1.48.57,1.48,1s-.25.42-.32.74a8.55,8.55,0,0,1-4.17,5.64l-.21-.24A9.15,9.15,0,0,0,73,15.77C73,15.37,72.43,15.18,72.08,15.08Zm2.63-1.68a2.23,2.23,0,0,1,.89-.19c.59,0,1.49.52,1.49.87s-.28.32-.33.74c-.06.65-.17,3.95-.17,4.93,0,.17.09.22.24.15a15.75,15.75,0,0,0,4.83-3.4l.26.21A15.52,15.52,0,0,1,77.2,21c-.29.18-.49.57-.78.57s-.93-.73-.93-1,.15-.35.19-.87c.06-.71.13-4.16.06-5.4,0-.34-.37-.49-1-.58Z"/><path class="cls-2" d="M83.5,16.56c.29.47.52.86,1.1.86,1.22,0,5.6-.29,6.25-.34.88-.06,1.3-.14,1.63-.14.58,0,1.19.27,1.19.69,0,.26-.19.41-.66.41l-1.75,0c-.86,0-4.31.19-5.28.31-.81.09-1,.31-1.38.31s-1.07-.7-1.26-1.19a2.23,2.23,0,0,1-.1-.81Z"/><path class="cls-2" d="M101.68,17.19c1.61.85,3.32,2.58,3.32,4.08a.64.64,0,0,1-.61.71c-.51,0-.48-.57-1-1.75-1.89.43-5.07.95-6.18,1.21-.27,0-.57.4-.8.4-.42,0-1-.69-1.12-1.13a1.31,1.31,0,0,1,0-.52l.17-.09a1.28,1.28,0,0,0,.76.35c.12,0,.37,0,.7,0,1-1.75,2.71-5.63,2.71-6.3,0-.3-.24-.55-.67-.85l.08-.21a3.42,3.42,0,0,1,.84.13c.59.18,1.24.79,1.24,1.13s-.35.38-.52.7c-.61,1.23-1.92,3.76-2.86,5.32,1.6-.17,4-.45,5.4-.69a8.75,8.75,0,0,0-1.7-2.23Z"/><line class="cls-3" x1="9.71" y1="39.19" x2="126.71" y2="39.19"/><line class="cls-4" x1="0.5" y1="6.29" x2="0.5" y2="45.29"/></g></g></svg>