<svg xmlns="http://www.w3.org/2000/svg" viewBox="0 0 137.28 52.16"><defs><style>.cls-1{fill:#fff;}.cls-2{fill:#45b035;}.cls-3,.cls-4{fill:none;stroke-miterlimit:10;}.cls-3{stroke:#45b035;stroke-linecap:round;stroke-width:3px;}.cls-4{stroke:#717071;}</style></defs><title>header_main_nav_contents_ul_kenmigawa_li_05_hover</title><g id="レイヤー_2" data-name="レイヤー 2"><g id="レイヤー_1-2" data-name="レイヤー 1"><rect class="cls-1" x="0.13" width="137.14" height="52.16"/><path class="cls-2" d="M49.7,33.75v.36a2.82,2.82,0,0,1-.79.1c-.64,0-.93-.18-1-.66l-.42-1.65c-.21-.84-.55-1-1.41-1h-.55c0,1,0,1.87,0,2.76l1,.12v.36H43.56v-.36l1-.11c0-.9,0-1.81,0-2.74v-.51c0-.92,0-1.84,0-2.75l-1-.1v-.36h2.9C48,27.18,49,27.85,49,29c0,.81-.59,1.53-1.78,1.74.66.14,1,.51,1.24,1.31l.48,1.62Zm-3.38-3.27A1.45,1.45,0,0,0,48,29c0-.89-.49-1.4-1.58-1.4h-.9c0,.91,0,1.82,0,2.89Z"/><path class="cls-2" d="M50.31,31.67a2.39,2.39,0,1,1,4.75,0,2.38,2.38,0,1,1-4.75,0Zm3.79,0c0-1.44-.53-2.21-1.42-2.21s-1.43.77-1.43,2.21.52,2.17,1.43,2.17S54.1,33.09,54.1,31.67Z"/><path class="cls-2" d="M56,31.67a2.39,2.39,0,1,1,4.75,0,2.38,2.38,0,1,1-4.75,0Zm3.79,0c0-1.44-.53-2.21-1.42-2.21s-1.43.77-1.43,2.21.52,2.17,1.43,2.17S59.78,33.09,59.78,31.67Z"/><path class="cls-2" d="M70.2,33.78v.33H67.84v-.33l.76-.11c0-.52,0-1.24,0-1.74V31c0-1-.27-1.24-.87-1.24a2.12,2.12,0,0,0-1.42.69,4.22,4.22,0,0,1,0,.53v1c0,.5,0,1.22,0,1.74l.71.11v.33H64.72v-.33l.78-.11c0-.52,0-1.24,0-1.74V31c0-.95-.26-1.26-.85-1.26a2.06,2.06,0,0,0-1.41.68v1.53c0,.48,0,1.21,0,1.74l.72.11v.33H61.62v-.33l.76-.11c0-.53,0-1.26,0-1.74v-.54c0-.58,0-.94,0-1.36L61.55,30v-.31L63,29.07l.14.1.08.84a2.56,2.56,0,0,1,1.81-1,1.15,1.15,0,0,1,1.23,1,2.42,2.42,0,0,1,1.87-1c.84,0,1.32.52,1.32,1.8v1.07c0,.5,0,1.22,0,1.74Z"/><path class="cls-2" d="M75.33,31.34c0,.76,0,1.51,0,2.29l1,.12v.36H73.41v-.36l1-.11c0-.9,0-1.81,0-2.74v-.51c0-.92,0-1.84,0-2.75l-1-.1v-.36h2.77c1.74,0,2.6.82,2.6,2.05s-.81,2.11-2.9,2.11Zm0-3.75c0,.91,0,1.86,0,2.8v.53H76c1.29,0,1.81-.69,1.81-1.69s-.56-1.64-1.8-1.64Z"/><path class="cls-2" d="M81.87,33.78v.33H79.32v-.33l.83-.11c0-.57,0-1.17,0-1.74V27.28l-.85-.08v-.31l1.6-.44.14.08L81,28v3.93c0,.57,0,1.17,0,1.74Z"/><path class="cls-2" d="M87.36,33.69a1,1,0,0,1-.89.53.9.9,0,0,1-.93-.81c-.57.55-.92.83-1.55.83A1.25,1.25,0,0,1,82.62,33c0-.63.36-1.08,1.71-1.57a12.37,12.37,0,0,1,1.19-.34v-.32c0-1-.29-1.28-1-1.28a2.52,2.52,0,0,0-.58.08l-.2.71c-.09.32-.26.48-.52.48a.4.4,0,0,1-.46-.39,1.83,1.83,0,0,1,2-1.28c1.08,0,1.6.49,1.6,1.78v2.25c0,.49.14.66.38.66s.28-.1.42-.26Zm-1.84-2.31c-.37.11-.73.23-1,.32-.91.35-1.07.75-1.07,1.13a.75.75,0,0,0,.84.8c.37,0,.61-.15,1.18-.6Z"/><path class="cls-2" d="M93.38,33.78v.33H91v-.33l.76-.11c0-.52,0-1.24,0-1.74V31c0-.94-.26-1.26-.86-1.26a2.15,2.15,0,0,0-1.45.69v1.53c0,.48,0,1.21,0,1.74l.72.11v.33H87.84v-.33l.77-.11c0-.53,0-1.26,0-1.74v-.54c0-.58,0-.94,0-1.36L87.78,30v-.31l1.45-.57.14.1.08.85a2.64,2.64,0,0,1,1.87-1c.88,0,1.32.55,1.32,1.88v1c0,.5,0,1.22,0,1.74Z"/><path class="cls-2" d="M54.65,14.39c.82,0,4.72-.41,5.36-.54.39-.1.45-.29.71-.29.44,0,1.52.87,1.52,1.27s-.4.46-.6.89a12.58,12.58,0,0,1-7.71,7.1l-.18-.29c3.68-1.87,6.12-4.77,6.88-7.76,0-.17,0-.2-.14-.2a47.87,47.87,0,0,0-4.85.73c-.35.08-.64.31-.91.31-.44,0-1.08-.67-1.21-1a3.47,3.47,0,0,1-.12-.79l.23-.09A1.37,1.37,0,0,0,54.65,14.39Zm6.94-1.61A1.39,1.39,0,1,1,63,14.17,1.38,1.38,0,0,1,61.59,12.78Zm.46,0a.93.93,0,1,0,.93-.92A.92.92,0,0,0,62.05,12.78Z"/><path class="cls-2" d="M65.4,15.42l.22-.12c.31.4.53.69.95.69.77,0,4.42-.47,5.34-.61.41-.07.54-.29.78-.29.43,0,1.32.73,1.32,1.11s-.54.44-.73.82a11.6,11.6,0,0,1-6.77,5.83l-.19-.29a12.36,12.36,0,0,0,6-6.28c.06-.17,0-.24-.15-.22-1,.09-3.73.53-4.61.74-.38.09-.59.32-.88.32s-1-.61-1.1-.95A2.05,2.05,0,0,1,65.4,15.42Zm6.62-2a22.53,22.53,0,0,1-3.84.52c-.7,0-1.09-.39-1.53-1.16l.18-.16a2.18,2.18,0,0,0,1.3.48,8.27,8.27,0,0,0,2.16-.32c.74-.17.91-.36,1.17-.36.65,0,1.13.19,1.13.57C72.59,13.2,72.43,13.33,72,13.42Z"/><path class="cls-2" d="M85.58,14.48l.28.18A19.29,19.29,0,0,1,79,21.44c-.3.18-.46.53-.77.53a2.64,2.64,0,0,1-1.67-1.08,3,3,0,0,1-.26-.95l.2-.13c.36.41.79.85,1.22.85C78.87,20.66,83.72,17.19,85.58,14.48Zm-9-1.23c1.57.35,3.46,1.19,3.46,2.3a.56.56,0,0,1-.56.6c-.27,0-.48-.17-.81-.59a8.43,8.43,0,0,0-2.24-2.05Z"/><line class="cls-3" x1="9.57" y1="39.19" x2="126.57" y2="39.19"/><line class="cls-4" x1="0.5" y1="6.29" x2="0.5" y2="45.29"/></g></g></svg>