<svg xmlns="http://www.w3.org/2000/svg" viewBox="0 0 137.14 52.16"><defs><style>.cls-1{fill:#fff;}.cls-2{fill:#3e3a39;}.cls-3{fill:none;stroke:#717071;stroke-miterlimit:10;}</style></defs><title>header_main_nav_contents_ul_kenmigawa_li_03_nomal</title><g id="レイヤー_2" data-name="レイヤー 2"><g id="レイヤー_1-2" data-name="レイヤー 1"><rect class="cls-1" width="137.14" height="52.16"/><path class="cls-2" d="M59.94,33.75v.35H57.12v-.35l1-.13-.6-1.81h-2.4l-.6,1.8,1,.14v.35h-2.3v-.35l.84-.14,2.2-6.48h.61l2.23,6.52ZM57.41,31.4l-1.08-3.21L55.27,31.4Z"/><path class="cls-2" d="M64.72,33a1.9,1.9,0,0,1-1.92,1.27,2.31,2.31,0,0,1-2.33-2.57,2.45,2.45,0,0,1,2.42-2.61,1.75,1.75,0,0,1,1.81,1.32.41.41,0,0,1-.45.38.52.52,0,0,1-.55-.48l-.2-.73a2,2,0,0,0-.55-.09c-1,0-1.59.77-1.59,2.11s.72,2.09,1.71,2.09a1.72,1.72,0,0,0,1.44-.78Z"/><path class="cls-2" d="M69.78,33a1.9,1.9,0,0,1-1.92,1.27,2.3,2.3,0,0,1-2.33-2.57A2.45,2.45,0,0,1,68,29.06a1.76,1.76,0,0,1,1.81,1.32.43.43,0,0,1-.45.38.52.52,0,0,1-.55-.48l-.2-.73a2,2,0,0,0-.56-.09c-.94,0-1.58.77-1.58,2.11s.71,2.09,1.71,2.09a1.72,1.72,0,0,0,1.44-.78Z"/><path class="cls-2" d="M71.52,31.6c0,1.37.71,2.06,1.72,2.06a1.74,1.74,0,0,0,1.45-.74l.21.14a2.11,2.11,0,0,1-2,1.18,2.28,2.28,0,0,1-2.34-2.55A2.44,2.44,0,0,1,73,29.06a1.86,1.86,0,0,1,1.94,2,1.77,1.77,0,0,1-.08.57Zm2-.37c.46,0,.56-.23.56-.57a1.16,1.16,0,0,0-1.14-1.2c-.64,0-1.31.53-1.41,1.76Z"/><path class="cls-2" d="M78.08,31.27c1,.36,1.42.84,1.42,1.49,0,.8-.69,1.48-2,1.48a3.3,3.3,0,0,1-1.55-.39l0-1.13h.49l.22,1a2,2,0,0,0,.85.17c.82,0,1.19-.34,1.19-.83s-.28-.69-1-.95l-.48-.16c-.77-.28-1.27-.68-1.27-1.39s.65-1.45,1.81-1.45a2.57,2.57,0,0,1,1.44.43l0,1h-.47l-.2-.87a1.54,1.54,0,0,0-.74-.19c-.66,0-1,.3-1,.75s.26.66,1,.92Z"/><path class="cls-2" d="M82.57,31.27c1,.36,1.42.84,1.42,1.49,0,.8-.69,1.48-2,1.48a3.3,3.3,0,0,1-1.55-.39l0-1.13h.49l.22,1a2,2,0,0,0,.85.17c.82,0,1.19-.34,1.19-.83s-.28-.69-1-.95l-.48-.16c-.77-.28-1.27-.68-1.27-1.39s.65-1.45,1.81-1.45a2.57,2.57,0,0,1,1.44.43l0,1H83.2l-.2-.87a1.54,1.54,0,0,0-.74-.19c-.66,0-1,.3-1,.75s.26.66,1,.92Z"/><path class="cls-2" d="M46.44,13.1c.29.39.46.68.85.68.93,0,5.76-.53,6.55-.65.34-.05.48-.25.73-.25S56,13.78,56,14.2s-.57.4-.87.61a30.5,30.5,0,0,1-2.82,1.77.53.53,0,0,1,0,.23,10,10,0,0,1-5.3,6l-.21-.26c2.56-1.62,4.2-4.77,4.2-5.65,0-.4-.48-.61-1-.81l.07-.25a3.35,3.35,0,0,1,.84,0,2.94,2.94,0,0,1,1.14.36,11.39,11.39,0,0,0,2.24-2.06c.16-.25.09-.3-.17-.3-.61,0-4.17.54-5.59.83-.5.12-.56.39-.9.39a1.89,1.89,0,0,1-1.19-1,2.16,2.16,0,0,1-.16-.86Z"/><path class="cls-2" d="M59.83,12.13a2.84,2.84,0,0,1,.82,0c.61.09,1.38.52,1.38.78s-.17.35-.38.68a6.71,6.71,0,0,1-.47.71.71.71,0,0,0,.2,0A18.19,18.19,0,0,0,63.87,14c.36-.08.49-.32.72-.32s1.3.57,1.3,1-.44.39-.65.73A16.1,16.1,0,0,1,57,22.85l-.2-.27a17.2,17.2,0,0,0,7.42-7.69c.06-.17,0-.23-.13-.23a15.74,15.74,0,0,0-1.93.32,3.57,3.57,0,0,1-.73.17,1.15,1.15,0,0,1-.57-.32,11.8,11.8,0,0,1-4,3.38L56.65,18c2-1.52,3.9-4.16,3.9-4.92,0-.25-.34-.48-.78-.68Z"/><path class="cls-2" d="M73.84,18.33a13.06,13.06,0,0,0,1.92-2.52c.09-.16,0-.25-.16-.22a34,34,0,0,0-3.72,1.13c-.06,1.09-.09,2.26-.09,3,0,1.09.18,1.19,1.65,1.19a11.85,11.85,0,0,0,2.69-.31c.42,0,1,.17,1,.56s-.26.42-.61.48a15.18,15.18,0,0,1-2.64.25C71.75,21.92,71,21.76,71,20c0-.85,0-2.09,0-3-.58.21-1.29.47-1.77.68s-.55.44-.94.44a2.2,2.2,0,0,1-1.28-1,1.67,1.67,0,0,1-.08-.76l.2-.07c.26.37.49.64.84.64a21.14,21.14,0,0,0,3-.77c0-1.05.05-2.34,0-2.85,0-.32-.42-.41-1.06-.53V12.6A3.09,3.09,0,0,1,71,12.38c.54,0,1.41.52,1.41.84s-.26.48-.32.91-.11,1-.16,1.81L75.31,15c.39-.12.53-.36.73-.36.43,0,1.41.78,1.41,1.14s-.44.36-.73.64a18.38,18.38,0,0,1-2.67,2.13Z"/><path class="cls-2" d="M81.27,13.42c.23.32.51.76,1,.76a29.43,29.43,0,0,0,3.94-.62c.28-.08.45-.36.67-.36.43,0,1.38.76,1.38,1.1s-.45.42-.62.66a21.34,21.34,0,0,1-2.11,2.89c2.12.86,4.18,2.24,4.18,3.43a.54.54,0,0,1-.54.57c-.4,0-.63-.4-1.25-1.15a10.24,10.24,0,0,0-2.7-2.53,15.09,15.09,0,0,1-5.77,3.89l-.18-.3a17.72,17.72,0,0,0,7.33-7.34c.06-.18,0-.22-.16-.2-.8.12-2.57.56-3.26.76-.42.11-.5.37-.83.37s-1-.62-1.13-1a2.57,2.57,0,0,1-.16-.85Z"/><line class="cls-3" x1="0.5" y1="6.29" x2="0.5" y2="45.29"/></g></g></svg>