<svg xmlns="http://www.w3.org/2000/svg" viewBox="0 0 137.14 52.16"><defs><style>.cls-1{fill:#fff;}.cls-2{fill:#45b035;}.cls-3{fill:none;stroke:#45b035;stroke-linecap:round;stroke-miterlimit:10;stroke-width:3px;}</style></defs><title>header_main_nav_contents_ul_kenmigawa_li_01_hover</title><g id="レイヤー_2" data-name="レイヤー 2"><g id="レイヤー_1-2" data-name="レイヤー 1"><rect class="cls-1" width="137.14" height="52.16"/><path class="cls-2" d="M60.19,20.59c0,1.24,0,2.52,0,3.79v.7c0,1.25,0,2.51,0,3.76l1.47.16v.49H57.37V29l1.47-.16c0-1.23,0-2.48,0-3.76v-.7c0-1.27,0-2.55,0-3.79H56.6l-.38,1.91H55.5L55.62,20h7.81l.09,2.54h-.69l-.4-1.91Z"/><path class="cls-2" d="M73.05,24.72c0,3.13-2.09,5-4.33,5s-4.35-1.74-4.35-5,2.11-5,4.35-5S73.05,21.51,73.05,24.72Zm-4.33,4.37c2,0,2.85-2.12,2.85-4.37s-.87-4.36-2.85-4.36-2.88,2.12-2.88,4.36S66.73,29.09,68.72,29.09Z"/><path class="cls-2" d="M76.69,25.68c0,1.06,0,2.08,0,3.16l1.35.16v.49H74V29l1.32-.15c0-1.24,0-2.49,0-3.77v-.7c0-1.27,0-2.53,0-3.78L74,20.46V20h3.82c2.39,0,3.58,1.13,3.58,2.82s-1.12,2.9-4,2.9Zm0-5.16c0,1.26,0,2.56,0,3.86v.73h.91c1.78,0,2.5-.95,2.5-2.33s-.77-2.26-2.47-2.26Z"/><line class="cls-3" x1="10" y1="39.19" x2="127" y2="39.19"/></g></g></svg>