<svg xmlns="http://www.w3.org/2000/svg" viewBox="0 0 137 52.16"><defs><style>.cls-1{fill:#fff;}.cls-2{fill:#afafb0;}.cls-3{fill:none;stroke:#717071;stroke-miterlimit:10;}</style></defs><title>header_main_nav_contents_ul_kenmigawa_li_comming_07</title><g id="レイヤー_2" data-name="レイヤー 2"><g id="レイヤー_1-2" data-name="レイヤー 1"><rect class="cls-1" width="137" height="52.16"/><path class="cls-2" d="M43.94,37A1.9,1.9,0,0,1,42,38.24a2.3,2.3,0,0,1-2.33-2.57,2.45,2.45,0,0,1,2.42-2.61,1.76,1.76,0,0,1,1.81,1.32.43.43,0,0,1-.45.38.52.52,0,0,1-.55-.48l-.2-.73a2,2,0,0,0-.56-.09c-.94,0-1.58.77-1.58,2.11s.72,2.09,1.71,2.09a1.72,1.72,0,0,0,1.44-.78Z"/><path class="cls-2" d="M44.77,35.67a2.39,2.39,0,1,1,4.76,0,2.39,2.39,0,1,1-4.76,0Zm3.8,0c0-1.44-.53-2.21-1.42-2.21s-1.43.77-1.43,2.21.52,2.17,1.43,2.17S48.57,37.09,48.57,35.67Z"/><path class="cls-2" d="M59,37.78v.33H56.62v-.33l.77-.11c0-.52,0-1.24,0-1.74V35c0-1-.28-1.24-.87-1.24a2.1,2.1,0,0,0-1.42.69,4.22,4.22,0,0,1,0,.53v1c0,.5,0,1.22,0,1.74l.71.11v.33H53.51v-.33l.78-.11c0-.52,0-1.24,0-1.74V35c0-.95-.27-1.26-.85-1.26a2.06,2.06,0,0,0-1.41.68v1.53c0,.48,0,1.21,0,1.74l.72.11v.33H50.41v-.33l.76-.11c0-.53,0-1.26,0-1.74v-.54c0-.58,0-.94,0-1.36L50.34,34v-.31l1.46-.57.14.1L52,34a2.53,2.53,0,0,1,1.81-.95,1.15,1.15,0,0,1,1.23,1,2.4,2.4,0,0,1,1.87-1c.84,0,1.32.52,1.32,1.8v1.07c0,.5,0,1.22,0,1.74Z"/><path class="cls-2" d="M62.06,37.78v.33H59.68v-.33l.8-.11c0-.53,0-1.26,0-1.74v-.55c0-.57,0-.91,0-1.36l-.85-.08v-.31l1.59-.56.14.1,0,1.37v1.39c0,.48,0,1.21,0,1.74Zm-1.83-6.54a.67.67,0,0,1,1.33,0,.67.67,0,0,1-1.33,0Z"/><path class="cls-2" d="M68.38,37.78v.33H66v-.33l.77-.11c0-.52,0-1.24,0-1.74V35c0-.94-.26-1.26-.86-1.26a2.13,2.13,0,0,0-1.45.69v1.53c0,.48,0,1.21,0,1.74l.72.11v.33H62.84v-.33l.76-.11c0-.53,0-1.26,0-1.74v-.54c0-.58,0-.94,0-1.36L62.77,34v-.31l1.46-.57.14.1.08.85a2.64,2.64,0,0,1,1.86-1c.88,0,1.33.55,1.33,1.88v1c0,.5,0,1.22,0,1.74Z"/><path class="cls-2" d="M73.82,33.79l-1,0a1.83,1.83,0,0,1,.27,1,1.67,1.67,0,0,1-1.86,1.71,2.66,2.66,0,0,1-.82-.13,1,1,0,0,0-.28.68c0,.3.14.48.66.48h1.37c1.13,0,1.66.49,1.66,1.31s-.86,1.78-2.55,1.78c-1.5,0-2.15-.53-2.15-1.28,0-.44.27-.79,1-1.14a.81.81,0,0,1-.67-.8c0-.33.19-.66.71-1.14a1.57,1.57,0,0,1-.8-1.47,1.68,1.68,0,0,1,1.87-1.69,2,2,0,0,1,1.31.41l1.18-.4.15.11Zm-3,4.46-.51,0a1.2,1.2,0,0,0-.43.93c0,.69.54,1,1.35,1,1.18,0,1.8-.47,1.8-1.08s-.28-.83-1-.83Zm1.41-3.52c0-.77-.38-1.31-1-1.31s-1.07.55-1.07,1.34.39,1.35,1,1.35S72.22,35.54,72.22,34.73Z"/><path class="cls-2" d="M79.15,35.27c1,.36,1.42.84,1.42,1.49,0,.8-.69,1.48-2,1.48A3.19,3.19,0,0,1,77,37.85l0-1.13h.49l.23,1a2,2,0,0,0,.85.17c.81,0,1.19-.34,1.19-.83s-.29-.69-1-.94l-.48-.17c-.76-.28-1.26-.68-1.26-1.39s.64-1.45,1.8-1.45a2.57,2.57,0,0,1,1.44.43l0,1h-.47l-.19-.87a1.61,1.61,0,0,0-.75-.19c-.66,0-1,.3-1,.75s.26.66,1,.92Z"/><path class="cls-2" d="M81.43,35.67a2.39,2.39,0,1,1,4.75,0,2.38,2.38,0,1,1-4.75,0Zm3.8,0c0-1.44-.53-2.21-1.43-2.21s-1.42.77-1.42,2.21.51,2.17,1.42,2.17S85.23,37.09,85.23,35.67Z"/><path class="cls-2" d="M87.11,35.67a2.39,2.39,0,1,1,4.75,0,2.38,2.38,0,1,1-4.75,0Zm3.8,0c0-1.44-.53-2.21-1.43-2.21s-1.42.77-1.42,2.21.52,2.17,1.42,2.17S90.91,37.09,90.91,35.67Z"/><path class="cls-2" d="M98.29,37.78v.33H95.91v-.33l.76-.11c0-.52,0-1.24,0-1.74V35c0-.94-.25-1.26-.86-1.26a2.13,2.13,0,0,0-1.44.69v1.53c0,.48,0,1.21,0,1.74l.72.11v.33H92.75v-.33l.76-.11c0-.53,0-1.26,0-1.74v-.54c0-.58,0-.94,0-1.36L92.68,34v-.31l1.45-.57.14.1.09.85a2.64,2.64,0,0,1,1.86-1c.88,0,1.32.55,1.32,1.88v1c0,.5,0,1.22,0,1.74Z"/><path class="cls-2" d="M48.41,13s.68.53,1.08.92c0,.14-.14.21-.32.21h-5.1l-.1-.38h3.85Zm-1.22,2.42.55-.71s.62.5,1,.87c0,.15-.17.21-.36.21H44.66l-.11-.37Zm-2.53,2-.11-.38h2.59l.57-.72s.64.51,1,.89q0,.21-.33.21Zm3.83,4.92a1.27,1.27,0,0,1-.82.32h-.15V22h-2v.87c0,.09-.4.31-.82.31h-.14V18.29l1,.44h1.78l.52-.56L49,19a.93.93,0,0,1-.52.25Zm-3.77-9.86-.1-.38h2.53l.6-.75s.68.53,1.08.93c0,.14-.16.2-.33.2Zm2.8,9.06V19.1h-2v2.47Zm7.73-4.1c-.1.12-.23.16-.54.17a9.1,9.1,0,0,1-1.94,3.07,9.89,9.89,0,0,0,3.44,1.51v.14a1.19,1.19,0,0,0-1,.9,8.1,8.1,0,0,1-3.12-2,10.44,10.44,0,0,1-4,2l-.09-.2a9.89,9.89,0,0,0,3.57-2.31,8.4,8.4,0,0,1-1.49-3.26h-1L49,17.11h4.48l.65-.63Zm-6.43-.88a4.44,4.44,0,0,0,1.28-3.52V11.52l1.16.47h1.5l.5-.56,1,.87a.69.69,0,0,1-.43.18V15c0,.13,0,.17.25.17h.48a2.64,2.64,0,0,0,.46,0c.1,0,.13,0,.19-.13a15.31,15.31,0,0,0,.37-1.52h.16l0,1.57c.26.11.3.23.3.41,0,.39-.38.6-1.59.6H53.8c-.8,0-.93-.23-.93-.88V12.36H51.08v.71A3.8,3.8,0,0,1,49,16.76Zm1.56.9a6.28,6.28,0,0,0,1.74,2.67,8.21,8.21,0,0,0,1.43-2.67Z"/><path class="cls-2" d="M59.78,15c0,.11-.17.2-.41.22V23a1.22,1.22,0,0,1-.8.29h-.16v-7A11.13,11.13,0,0,1,57.1,18l-.2-.12a24.29,24.29,0,0,0,2.37-6.63l1.52.46c0,.15-.2.27-.49.27a20.11,20.11,0,0,1-1.1,2.78Zm8.07-1s.75.57,1.2,1c0,.13-.16.2-.33.2h-7.2v1.88c0,1.77-.08,4.4-1.67,6.15l-.15-.13a14.28,14.28,0,0,0,.91-6V14.37l1.08.45h5.52Zm-7.37-1.14h2.21v-1.6l1.39.14c0,.18-.13.31-.43.35v1.11h1.82v-1.6l1.4.14c0,.17-.14.31-.45.35v1.11h1l.57-.73A12.58,12.58,0,0,1,69,13a.31.31,0,0,1-.32.21H66.42v.89c0,.07-.23.24-.78.25h-.17V13.25H63.65v.95c0,.07-.29.23-.79.23h-.17V13.25H60.57Zm7.11,2.82,1.18.87a1,1,0,0,1-.54.27v5.11c0,.76-.13,1.17-1.26,1.29a1.29,1.29,0,0,0-.2-.7,1,1,0,0,0-.74-.33V22s.78.07,1,.07.23-.08.23-.24V20.42H65.59V22.8a.86.86,0,0,1-.74.29h-.16V20.42H63.06v2.47c0,.11-.37.33-.76.33h-.16V15.81l1,.45h4Zm-4.53.95v1.49h1.63V16.63Zm1.63,3.42V18.51H63.06v1.54Zm.9-3.42v1.49h1.66V16.63Zm1.66,3.42V18.51H65.59v1.54Z"/><path class="cls-2" d="M74.52,11.78A.46.46,0,0,1,74,12a19.88,19.88,0,0,1-1.35,2.78l.51.18a.5.5,0,0,1-.39.23v7.66a1.27,1.27,0,0,1-.87.34h-.21v-7A11.78,11.78,0,0,1,70.1,18l-.18-.11a21.71,21.71,0,0,0,3-6.67Zm3.38,4.33V22.2h1.87l.71-.89s.8.62,1.28,1.06c0,.15-.16.21-.35.21H73.73l-.11-.38h3.16V16.11H73.35l-.11-.39h3.54V11.4l1.59.16c0,.19-.15.32-.47.37v3.79h2.18l.7-.87a16.24,16.24,0,0,1,1.28,1.05.33.33,0,0,1-.35.21Z"/><path class="cls-2" d="M85.88,16.2c2.48,1.19,1.59,2.87.77,2.14a6,6,0,0,0-.77-1.84v6.39c0,.12-.42.34-.79.34h-.21V17.56a10.29,10.29,0,0,1-1.82,2.69l-.18-.16a14.66,14.66,0,0,0,1.87-5.35H83.11l-.1-.37h1.87v-3.1l1.47.16c0,.19-.13.32-.47.37v2.57h.31l.6-.81s.68.57,1.08,1c0,.15-.17.21-.34.21H85.88Zm8.89,2.17c-.09.13-.19.18-.49.09a14.73,14.73,0,0,1-1.91,1.25,5.61,5.61,0,0,0,2.86,1.86l0,.14a1.2,1.2,0,0,0-.78,1,5.92,5.92,0,0,1-3-4.27v3.51c0,.71-.16,1.22-1.38,1.33a1.11,1.11,0,0,0-.23-.67,1.63,1.63,0,0,0-1-.35V22s1.06.07,1.3.07.27-.07.27-.24V20c-.61.49-1.46,1.23-2.6,2.1a.44.44,0,0,1-.21.37l-.8-1c.62-.25,2.12-.95,3.6-1.66V17.24h-3l-.1-.39h3.09V15.46H88l-.1-.39h2.52V13.81H87.62l-.1-.37h4c.26-.65.58-1.54.77-2.19l1.44.42c0,.16-.21.26-.48.25-.37.43-.91,1-1.41,1.52h1.24l.64-.78s.71.55,1.14.95c0,.14-.16.2-.33.2h-3.1v1.26h1.34l.62-.77s.7.55,1.14.95c0,.14-.15.21-.33.21H91.42v1.39h1.84l.63-.81s.74.57,1.17,1a.32.32,0,0,1-.34.21h-3.3v.43a5.53,5.53,0,0,0,.78,1.8,14,14,0,0,0,1.36-1.89ZM88,17.71c2.57.76,1.66,2.57.79,1.87a3.38,3.38,0,0,0-.93-1.78Zm.67-6.4c2.55.85,1.61,2.68.71,1.94a3.86,3.86,0,0,0-.84-1.86Z"/><line class="cls-3" x1="1" y1="6.98" x2="1" y2="45.98"/></g></g></svg>