<svg xmlns="http://www.w3.org/2000/svg" viewBox="0 0 137.14 52.16"><defs><style>.cls-1{fill:#fff;}.cls-2{fill:#45b035;}.cls-3,.cls-4{fill:none;stroke-miterlimit:10;}.cls-3{stroke:#45b035;stroke-linecap:round;stroke-width:3px;}.cls-4{stroke:#717071;}</style></defs><title>header_main_nav_contents_ul_kenmigawa_li_07_hover</title><g id="レイヤー_2" data-name="レイヤー 2"><g id="レイヤー_1-2" data-name="レイヤー 1"><rect class="cls-1" width="137.14" height="52.16"/><path class="cls-2" d="M48.19,32.26l0,1.85H42.81v-.36l1-.11c0-.9,0-1.81,0-2.74v-.51c0-.92,0-1.84,0-2.75l-1-.1v-.36h5.13L48,29h-.51l-.28-1.36H44.76c0,.89,0,1.8,0,2.73H46.3l.15-1h.42v2.44h-.42l-.14-1H44.74c0,1,0,2,0,2.86h2.65l.27-1.39Z"/><path class="cls-2" d="M54.33,36.27v.31H51.7v-.31l.93-.13c0-.59,0-1.18,0-1.74v-.95a1.8,1.8,0,0,1-1.49.79c-1.26,0-2.11-1-2.11-2.53s.93-2.65,2.17-2.65a1.81,1.81,0,0,1,1.45.74l.7-.73.14.1,0,1.4V34.4c0,.57,0,1.16,0,1.74Zm-1.7-6.1a1.72,1.72,0,0,0-1.21-.59c-.79,0-1.47.62-1.47,2.11s.63,2,1.47,2a1.51,1.51,0,0,0,1.21-.62Z"/><path class="cls-2" d="M60.06,33.79v.32l-1.44.08-.09-.93a2.41,2.41,0,0,1-1.85,1c-.84,0-1.36-.49-1.35-1.87l0-2.64-.74-.15v-.3l1.52-.15.1.1-.05,1.47v1.62c0,.93.3,1.25.86,1.25a2.08,2.08,0,0,0,1.45-.68l0-3.15-.74-.14v-.31l1.49-.16.1.1,0,1.47v3Z"/><path class="cls-2" d="M63.18,33.78v.33H60.8v-.33l.79-.11c0-.53,0-1.26,0-1.74v-.55c0-.57,0-.91,0-1.36l-.84-.08v-.31l1.59-.56.14.1,0,1.37v1.39c0,.48,0,1.21,0,1.74Zm-1.83-6.54a.63.63,0,0,1,.67-.63.63.63,0,0,1,.66.63.65.65,0,0,1-.66.64A.64.64,0,0,1,61.35,27.24Z"/><path class="cls-2" d="M65.56,29.83a2.1,2.1,0,0,1,1.58-.77c1.1,0,2,1,2,2.56s-.9,2.62-2.11,2.62a1.72,1.72,0,0,1-1.41-.69v.82c0,.57,0,1.17,0,1.76l.94.14v.31H63.9v-.31l.84-.13c0-.59,0-1.18,0-1.74v-3c0-.57,0-.94,0-1.36L63.9,30v-.31l1.45-.57.14.1Zm0,3.37a1.62,1.62,0,0,0,1.16.51c.79,0,1.43-.59,1.43-2s-.54-2.12-1.33-2.12a1.89,1.89,0,0,0-1.26.57Z"/><path class="cls-2" d="M78.57,33.78v.33H76.2v-.33l.76-.11c0-.52,0-1.24,0-1.74V31c0-1-.27-1.24-.86-1.24a2.1,2.1,0,0,0-1.42.69,4.22,4.22,0,0,1,0,.53v1c0,.5,0,1.22,0,1.74l.71.11v.33H73.08v-.33l.79-.11c0-.52,0-1.24,0-1.74V31c0-.95-.27-1.26-.85-1.26a2,2,0,0,0-1.41.68v1.53c0,.48,0,1.21,0,1.74l.72.11v.33H70v-.33l.76-.11c0-.53,0-1.26,0-1.74v-.54c0-.58,0-.94,0-1.36L69.92,30v-.31l1.45-.57.14.1.09.84a2.53,2.53,0,0,1,1.8-1,1.15,1.15,0,0,1,1.23,1,2.43,2.43,0,0,1,1.87-1c.84,0,1.32.52,1.32,1.8v1.07c0,.5,0,1.22,0,1.74Z"/><path class="cls-2" d="M80.26,31.6c0,1.37.71,2.06,1.72,2.06a1.76,1.76,0,0,0,1.45-.74l.21.14a2.11,2.11,0,0,1-2,1.18,2.28,2.28,0,0,1-2.34-2.55,2.44,2.44,0,0,1,2.37-2.63,1.86,1.86,0,0,1,1.94,2,1.77,1.77,0,0,1-.08.57Zm2-.37c.45,0,.56-.23.56-.57a1.16,1.16,0,0,0-1.14-1.2c-.64,0-1.31.53-1.41,1.76Z"/><path class="cls-2" d="M90.11,33.78v.33H87.73v-.33l.76-.11c0-.52,0-1.24,0-1.74V31c0-.94-.26-1.26-.86-1.26a2.15,2.15,0,0,0-1.45.69v1.53c0,.48,0,1.21,0,1.74l.72.11v.33H84.56v-.33l.77-.11c0-.53,0-1.26,0-1.74v-.54c0-.58,0-.94,0-1.36L84.49,30v-.31L86,29.07l.14.1.09.85a2.6,2.6,0,0,1,1.86-1c.87,0,1.32.55,1.32,1.88v1c0,.5,0,1.22,0,1.74Z"/><path class="cls-2" d="M93.77,33.71a1.5,1.5,0,0,1-1.2.53A1.07,1.07,0,0,1,91.39,33c0-.25,0-.47,0-.86V29.66h-.87v-.37l.92-.11.28-1.4h.59l-.06,1.42h1.39v.46h-1.4V33c0,.55.23.78.6.78a1.19,1.19,0,0,0,.71-.3Z"/><path class="cls-2" d="M47.56,13s.68.53,1.08.92c0,.14-.14.21-.32.21h-5.1l-.1-.38H47Zm-1.22,2.42.55-.71s.62.5,1,.87c0,.15-.17.21-.35.21H43.81l-.11-.37Zm-2.53,2-.11-.38h2.59l.57-.72s.64.51,1,.89c0,.14-.15.21-.33.21Zm3.83,4.92a1.27,1.27,0,0,1-.82.32h-.15V22h-2v.87c0,.09-.4.31-.81.31h-.15V18.29l1,.44h1.78l.52-.56,1.1.85a.93.93,0,0,1-.52.25Zm-3.77-9.86-.1-.38H46.3l.6-.75s.68.53,1.08.93c0,.14-.16.2-.32.2Zm2.8,9.06V19.1h-2v2.47Zm7.73-4.1c-.1.12-.23.16-.54.17a9.1,9.1,0,0,1-1.94,3.07,9.89,9.89,0,0,0,3.44,1.51v.14a1.21,1.21,0,0,0-1,.9,8,8,0,0,1-3.12-2,10.44,10.44,0,0,1-4,2l-.09-.2a9.89,9.89,0,0,0,3.57-2.31,8.4,8.4,0,0,1-1.49-3.26h-1l-.12-.38h4.48l.65-.63ZM48,16.59a4.44,4.44,0,0,0,1.28-3.52V11.52l1.16.47h1.5l.5-.56,1,.87a.69.69,0,0,1-.43.18V15c0,.13,0,.17.24.17h.49a2.64,2.64,0,0,0,.46,0c.1,0,.13,0,.19-.13a15.31,15.31,0,0,0,.37-1.52h.16l0,1.57c.26.11.3.23.3.41,0,.39-.38.6-1.59.6H53c-.8,0-.93-.23-.93-.88V12.36H50.23v.71a3.8,3.8,0,0,1-2.13,3.69Zm1.56.9a6.28,6.28,0,0,0,1.74,2.67,8.21,8.21,0,0,0,1.43-2.67Z"/><path class="cls-2" d="M58.93,15c0,.11-.17.2-.41.22V23a1.22,1.22,0,0,1-.8.29h-.16v-7A11.13,11.13,0,0,1,56.25,18l-.2-.12a24.29,24.29,0,0,0,2.37-6.63l1.52.46c0,.15-.2.27-.49.27a20.11,20.11,0,0,1-1.1,2.78ZM67,14s.75.57,1.2,1c0,.13-.16.2-.33.2h-7.2v1.88c0,1.77-.08,4.4-1.67,6.15l-.15-.13a14.28,14.28,0,0,0,.91-6V14.37l1.08.45h5.52Zm-7.37-1.14h2.21v-1.6l1.39.14c0,.18-.13.31-.43.35v1.11h1.82v-1.6l1.4.14c0,.17-.14.31-.45.35v1.11h1l.57-.73a12.58,12.58,0,0,1,1.08.91.31.31,0,0,1-.32.21H65.57v.89c0,.07-.24.24-.78.25h-.17V13.25H62.8v.95c0,.07-.29.23-.79.23h-.17V13.25H59.72Zm7.11,2.82,1.18.87a1,1,0,0,1-.54.27v5.11c0,.76-.13,1.17-1.26,1.29a1.29,1.29,0,0,0-.2-.7,1,1,0,0,0-.74-.33V22s.78.07,1,.07.23-.08.23-.24V20.42H64.74V22.8a.86.86,0,0,1-.74.29h-.16V20.42H62.22v2.47c0,.11-.38.33-.77.33h-.16V15.81l1,.45h4Zm-4.52.95v1.49h1.62V16.63Zm1.62,3.42V18.51H62.22v1.54Zm.9-3.42v1.49H66.4V16.63Zm1.66,3.42V18.51H64.74v1.54Z"/><path class="cls-2" d="M73.67,11.78a.46.46,0,0,1-.5.25,19.88,19.88,0,0,1-1.35,2.78l.51.18a.5.5,0,0,1-.39.23v7.66a1.27,1.27,0,0,1-.87.34h-.21v-7A11.78,11.78,0,0,1,69.25,18l-.18-.11a21.71,21.71,0,0,0,3-6.67Zm3.38,4.33V22.2h1.87l.72-.89s.79.62,1.27,1.06c0,.15-.16.21-.35.21H72.88l-.11-.38h3.16V16.11H72.5l-.11-.39h3.54V11.4l1.59.16c0,.19-.15.32-.47.37v3.79h2.18l.7-.87a16.24,16.24,0,0,1,1.28,1.05.33.33,0,0,1-.35.21Z"/><path class="cls-2" d="M85,16.2c2.48,1.19,1.59,2.87.77,2.14A6,6,0,0,0,85,16.5v6.39c0,.12-.42.34-.79.34H84V17.56a10.29,10.29,0,0,1-1.82,2.69L82,20.09a14.66,14.66,0,0,0,1.87-5.35H82.26l-.1-.37H84v-3.1l1.47.16c0,.19-.13.32-.47.37v2.57h.31l.6-.81s.68.57,1.08,1c0,.15-.17.21-.34.21H85Zm8.89,2.17c-.09.13-.19.18-.49.09a14.73,14.73,0,0,1-1.91,1.25,5.61,5.61,0,0,0,2.86,1.86l0,.14a1.2,1.2,0,0,0-.78,1,5.92,5.92,0,0,1-3-4.27v3.51c0,.71-.16,1.22-1.38,1.33a1.11,1.11,0,0,0-.23-.67,1.63,1.63,0,0,0-.95-.35V22s1.06.07,1.3.07.27-.07.27-.24V20c-.61.49-1.46,1.23-2.6,2.1a.44.44,0,0,1-.21.37l-.8-1c.62-.25,2.11-.95,3.6-1.66V17.24h-3l-.1-.39h3.09V15.46H87.16l-.1-.39h2.52V13.81H86.77l-.1-.37h4c.26-.65.58-1.54.77-2.19l1.44.42c-.05.16-.21.26-.48.25-.37.43-.91,1-1.41,1.52h1.24l.64-.78s.71.55,1.14.95c0,.14-.16.2-.33.2h-3.1v1.26h1.34l.62-.77s.7.55,1.14.95c0,.14-.15.21-.33.21H90.57v1.39h1.84L93,16s.74.57,1.17,1a.32.32,0,0,1-.34.21h-3.3v.43a5.53,5.53,0,0,0,.78,1.8,14,14,0,0,0,1.36-1.89Zm-6.75-.66c2.57.76,1.65,2.57.79,1.87A3.38,3.38,0,0,0,87,17.8Zm.67-6.4c2.55.85,1.61,2.68.71,1.94a4,4,0,0,0-.84-1.86Z"/><line class="cls-3" x1="9.15" y1="39.19" x2="126.15" y2="39.19"/><line class="cls-4" x1="1.53" y1="6.29" x2="1.53" y2="45.29"/></g></g></svg>