<svg xmlns="http://www.w3.org/2000/svg" viewBox="0 0 137.14 52.16"><defs><style>.cls-1{fill:#fff;}.cls-2{fill:#3e3a39;}.cls-3{fill:none;stroke:#717071;stroke-miterlimit:10;}</style></defs><title>header_main_nav_contents_ul_kenmigawa_li_04_nomal</title><g id="レイヤー_2" data-name="レイヤー 2"><g id="レイヤー_1-2" data-name="レイヤー 1"><rect class="cls-1" width="137.14" height="52.16"/><path class="cls-2" d="M54.68,27.18a3.16,3.16,0,0,1,3.37,3.47A3.27,3.27,0,0,1,54.5,34.1H51.67v-.35l1-.11c0-.9,0-1.83,0-2.88V30.4c0-.92,0-1.85,0-2.76l-1-.1v-.36Zm-.25,6.51c1.65,0,2.54-1.12,2.54-3s-.89-3.06-2.46-3.06h-.89c0,.91,0,1.86,0,2.81v.36c0,1,0,2,0,2.93Z"/><path class="cls-2" d="M59.91,31.6c0,1.37.71,2.06,1.72,2.06a1.77,1.77,0,0,0,1.46-.74l.21.14a2.11,2.11,0,0,1-2,1.18A2.28,2.28,0,0,1,59,31.69a2.44,2.44,0,0,1,2.37-2.63,1.86,1.86,0,0,1,1.93,2,1.8,1.8,0,0,1-.07.57Zm2-.37c.45,0,.55-.23.55-.57a1.16,1.16,0,0,0-1.14-1.2c-.63,0-1.3.53-1.41,1.76Z"/><path class="cls-2" d="M66.47,31.27c1,.36,1.42.84,1.42,1.49,0,.8-.69,1.48-2,1.48a3.31,3.31,0,0,1-1.56-.39l0-1.13h.49l.23,1a2,2,0,0,0,.85.17c.81,0,1.19-.34,1.19-.83s-.29-.69-1-.95l-.48-.16c-.76-.28-1.26-.68-1.26-1.39s.64-1.45,1.8-1.45a2.62,2.62,0,0,1,1.45.43l0,1h-.46l-.2-.87a1.58,1.58,0,0,0-.75-.19c-.66,0-1,.3-1,.75s.27.66,1,.92Z"/><path class="cls-2" d="M71,33.78v.32H68.66v-.32l.79-.11c0-.53,0-1.26,0-1.74v-.54c0-.58,0-.92,0-1.37l-.84-.08v-.31l1.59-.56.14.1,0,1.37v1.39c0,.48,0,1.21,0,1.74Zm-1.83-6.54a.67.67,0,0,1,1.33,0,.67.67,0,0,1-1.33,0Z"/><path class="cls-2" d="M76.52,29.79l-1,0a1.8,1.8,0,0,1,.27,1,1.67,1.67,0,0,1-1.86,1.71,2.66,2.66,0,0,1-.82-.13,1,1,0,0,0-.28.68c0,.3.14.48.66.48h1.37c1.13,0,1.66.49,1.66,1.31s-.86,1.78-2.55,1.78c-1.5,0-2.15-.53-2.15-1.27,0-.45.27-.8,1-1.15a.81.81,0,0,1-.67-.8c0-.33.19-.66.71-1.14a1.59,1.59,0,0,1-.8-1.47,1.68,1.68,0,0,1,1.87-1.69,2,2,0,0,1,1.31.41l1.18-.4.15.11Zm-3,4.46-.51,0a1.2,1.2,0,0,0-.43.93c0,.69.54,1,1.35,1,1.18,0,1.8-.47,1.8-1.08s-.28-.83-1-.83Zm1.41-3.52c0-.77-.37-1.31-1-1.31s-1.06.55-1.06,1.34.38,1.35,1,1.35S74.92,31.54,74.92,30.73Z"/><path class="cls-2" d="M82.72,33.78v.32H80.34v-.32l.76-.11c0-.52,0-1.24,0-1.74V31c0-.94-.25-1.26-.86-1.26a2.13,2.13,0,0,0-1.44.69v1.53c0,.48,0,1.21,0,1.74l.71.11v.32H77.17v-.32l.77-.11c0-.53,0-1.26,0-1.74v-.54c0-.58,0-.94,0-1.36L77.11,30v-.31l1.45-.57.14.1.09.85a2.64,2.64,0,0,1,1.86-1c.88,0,1.32.55,1.32,1.88v1c0,.5,0,1.22,0,1.74Z"/><path class="cls-2" d="M47.25,15.67c.27.33.52.65.87.65.88,0,4.34-.52,6.54-.73A11.4,11.4,0,0,0,56,15.35c.61,0,1.39.33,1.39.74s-.1.39-.41.39-.78-.1-1.45-.1-1.6,0-2.7.14c.38.22.69.47.69.71s-.31.35-.5.8a8.74,8.74,0,0,1-4.53,5.1l-.25-.26a8.32,8.32,0,0,0,3.85-5.75.82.82,0,0,0-.18-.51c-1,.15-2.15.36-2.55.46a5.39,5.39,0,0,1-1.12.3,1.6,1.6,0,0,1-1.08-.92,1.86,1.86,0,0,1-.09-.71Zm1.92-2.77a2.15,2.15,0,0,0,1.31.46A11.42,11.42,0,0,0,52.86,13c.75-.17.91-.38,1.16-.38.64,0,1.12.22,1.12.6,0,.21-.14.34-.56.42a26.16,26.16,0,0,1-4.06.53c-.7,0-1.07-.42-1.52-1.16Zm6.46-.17a4.28,4.28,0,0,1,1.47.83.94.94,0,0,1,.4.77.34.34,0,0,1-.35.35c-.2,0-.32-.25-.57-.57a5.71,5.71,0,0,0-1.13-1.19Zm1-1.06a5.52,5.52,0,0,1,1.43.72,1,1,0,0,1,.48.81.33.33,0,0,1-.34.36c-.23,0-.35-.26-.61-.59a5.3,5.3,0,0,0-1.12-1.09Z"/><path class="cls-2" d="M64.85,12.44a2.53,2.53,0,0,1,.87-.22c.64,0,1.42.55,1.42.87s-.25.24-.29.82,0,1.07,0,1.57c1.42-.13,1.55-.23,1.82-.23.6,0,1.37.29,1.37.74,0,.29-.13.36-.41.36s-.89-.14-2-.14l-.82,0c0,1.66-.12,3.25-.92,4.35a7,7,0,0,1-3.53,2.33l-.15-.27a7,7,0,0,0,2.87-2.38,8,8,0,0,0,.78-4c-.91.06-1.87.16-2.65.23,0,1.06,0,2.08,0,2.53s-.14.72-.45.72-.63-.61-.63-1a18.39,18.39,0,0,0,.22-2.12c-.62.09-1.13.19-1.49.28a4.61,4.61,0,0,1-.91.28c-.38,0-.9-.65-1-.93a2.09,2.09,0,0,1-.09-.78l.22-.06c.26.38.5.73.83.73s1.71-.15,2.47-.22A12.35,12.35,0,0,0,62.26,14c-.06-.28-.36-.38-.92-.48v-.23a2,2,0,0,1,.8-.21c.45,0,1.31.4,1.31.8s-.19.29-.21.72c0,.23,0,.73,0,1.23l2.65-.26a22.87,22.87,0,0,0,0-2.41c0-.3-.37-.38-.94-.46Zm2.9,0a3.9,3.9,0,0,1,1.44.94,1,1,0,0,1,.39.75.33.33,0,0,1-.35.34c-.22,0-.35-.25-.59-.57a5.21,5.21,0,0,0-1.06-1.25Zm1-1a4,4,0,0,1,1.45.8,1,1,0,0,1,.42.78.32.32,0,0,1-.35.34c-.21,0-.34-.26-.6-.57a5.78,5.78,0,0,0-1.09-1.15Z"/><path class="cls-2" d="M76.46,12.17a2.48,2.48,0,0,1,.93.12c.57.18,1.2.79,1.2,1.17s-.25.27-.61.66-1.12,1.19-1.94,2c.38.24.68.48.68.69s-.1.37-.12.71c-.08,1.86,0,3.81,0,4.55,0,.51-.15.72-.49.72s-.74-.63-.74-1.12c0-.25.1-.52.15-.94a30.83,30.83,0,0,0,.12-3.55,1.07,1.07,0,0,0-.14-.57,18.59,18.59,0,0,1-5,3.07l-.17-.3a21.34,21.34,0,0,0,6.45-5.6,1.58,1.58,0,0,0,.33-.7c0-.21-.24-.42-.76-.67Z"/><path class="cls-2" d="M90.85,14.48l.29.18a19.32,19.32,0,0,1-6.84,6.78c-.3.18-.46.53-.77.53a2.59,2.59,0,0,1-1.66-1.08,2.75,2.75,0,0,1-.26-.95l.19-.13c.37.41.8.85,1.23.85C84.14,20.66,89,17.19,90.85,14.48Zm-9-1.23c1.57.35,3.45,1.19,3.45,2.3a.56.56,0,0,1-.56.6c-.27,0-.48-.17-.8-.59a8.66,8.66,0,0,0-2.25-2.05Z"/><line class="cls-3" x1="0.5" y1="6.29" x2="0.5" y2="45.29"/></g></g></svg>