<svg xmlns="http://www.w3.org/2000/svg" viewBox="0 0 137 52.16"><defs><style>.cls-1{fill:#fff;}.cls-2{fill:#afafb0;}.cls-3{fill:none;stroke:#717071;stroke-miterlimit:10;}</style></defs><title>header_main_nav_contents_ul_kenmigawa_li_comming_06</title><g id="レイヤー_2" data-name="レイヤー 2"><g id="レイヤー_1-2" data-name="レイヤー 1"><rect class="cls-1" width="137" height="52.16"/><path class="cls-2" d="M46,37A1.9,1.9,0,0,1,44,38.24a2.31,2.31,0,0,1-2.33-2.57,2.45,2.45,0,0,1,2.42-2.61,1.76,1.76,0,0,1,1.81,1.32.42.42,0,0,1-.45.38.52.52,0,0,1-.55-.48l-.2-.73a2,2,0,0,0-.55-.09c-1,0-1.59.77-1.59,2.11s.72,2.09,1.71,2.09a1.72,1.72,0,0,0,1.44-.78Z"/><path class="cls-2" d="M46.79,35.67a2.39,2.39,0,1,1,4.75,0,2.38,2.38,0,1,1-4.75,0Zm3.79,0c0-1.44-.53-2.21-1.42-2.21s-1.43.77-1.43,2.21.52,2.17,1.43,2.17S50.58,37.09,50.58,35.67Z"/><path class="cls-2" d="M61,37.78v.33H58.63v-.33l.77-.11c0-.52,0-1.24,0-1.74V35c0-1-.28-1.24-.87-1.24a2.1,2.1,0,0,0-1.42.69,4.22,4.22,0,0,1,0,.53v1c0,.5,0,1.22,0,1.74l.71.11v.33H55.52v-.33l.78-.11c0-.52,0-1.24,0-1.74V35c0-.95-.26-1.26-.85-1.26a2.06,2.06,0,0,0-1.41.68v1.53c0,.48,0,1.21,0,1.74l.72.11v.33H52.42v-.33l.77-.11c0-.53,0-1.26,0-1.74v-.54c0-.58,0-.94,0-1.36L52.35,34v-.31l1.46-.57.14.1L54,34a2.55,2.55,0,0,1,1.81-.95,1.15,1.15,0,0,1,1.23,1,2.4,2.4,0,0,1,1.87-1c.84,0,1.32.52,1.32,1.8v1.07c0,.5,0,1.22,0,1.74Z"/><path class="cls-2" d="M64.07,37.78v.33H61.69v-.33l.8-.11c0-.53,0-1.26,0-1.74v-.55c0-.57,0-.91,0-1.36l-.84-.08v-.31l1.58-.56.14.1v2.76c0,.48,0,1.21,0,1.74Zm-1.83-6.54a.67.67,0,0,1,1.33,0,.67.67,0,0,1-1.33,0Z"/><path class="cls-2" d="M70.39,37.78v.33H68v-.33l.77-.11c0-.52,0-1.24,0-1.74V35c0-.94-.26-1.26-.86-1.26a2.13,2.13,0,0,0-1.45.69v1.53c0,.48,0,1.21,0,1.74l.72.11v.33H64.85v-.33l.76-.11c0-.53,0-1.26,0-1.74v-.54c0-.58,0-.94,0-1.36L64.78,34v-.31l1.46-.57.14.1.08.85a2.64,2.64,0,0,1,1.87-1c.87,0,1.32.55,1.32,1.88v1c0,.5,0,1.22,0,1.74Z"/><path class="cls-2" d="M75.83,33.79l-1,0a1.83,1.83,0,0,1,.27,1,1.67,1.67,0,0,1-1.86,1.71,2.66,2.66,0,0,1-.82-.13,1,1,0,0,0-.28.68c0,.3.14.48.66.48h1.37c1.13,0,1.66.49,1.66,1.31s-.86,1.78-2.55,1.78c-1.5,0-2.15-.53-2.15-1.28,0-.44.27-.79,1-1.14a.81.81,0,0,1-.67-.8c0-.33.19-.66.71-1.14a1.59,1.59,0,0,1-.8-1.47,1.68,1.68,0,0,1,1.87-1.69,2,2,0,0,1,1.31.41l1.18-.4.15.11Zm-3,4.46-.51,0a1.2,1.2,0,0,0-.43.93c0,.69.54,1,1.35,1,1.18,0,1.8-.47,1.8-1.08s-.28-.83-1-.83Zm1.41-3.52c0-.77-.38-1.31-1-1.31s-1.06.55-1.06,1.34.38,1.35,1,1.35S74.23,35.54,74.23,34.73Z"/><path class="cls-2" d="M81.16,35.27c1,.36,1.42.84,1.42,1.49,0,.8-.69,1.48-2,1.48A3.2,3.2,0,0,1,79,37.85l0-1.13h.49l.23,1a2,2,0,0,0,.85.17c.81,0,1.19-.34,1.19-.83s-.29-.69-1-.94l-.48-.17c-.76-.28-1.26-.68-1.26-1.39s.64-1.45,1.8-1.45a2.62,2.62,0,0,1,1.45.43l0,1h-.47l-.19-.87a1.61,1.61,0,0,0-.75-.19c-.66,0-1,.3-1,.75s.26.66,1,.92Z"/><path class="cls-2" d="M83.44,35.67a2.39,2.39,0,1,1,4.75,0,2.38,2.38,0,1,1-4.75,0Zm3.8,0c0-1.44-.53-2.21-1.43-2.21s-1.42.77-1.42,2.21.52,2.17,1.42,2.17S87.24,37.09,87.24,35.67Z"/><path class="cls-2" d="M89.12,35.67a2.39,2.39,0,1,1,4.75,0,2.38,2.38,0,1,1-4.75,0Zm3.8,0c0-1.44-.53-2.21-1.43-2.21s-1.42.77-1.42,2.21.52,2.17,1.42,2.17S92.92,37.09,92.92,35.67Z"/><path class="cls-2" d="M100.3,37.78v.33H97.92v-.33l.77-.11c0-.52,0-1.24,0-1.74V35c0-.94-.25-1.26-.85-1.26a2.13,2.13,0,0,0-1.45.69v1.53c0,.48,0,1.21,0,1.74l.72.11v.33H94.76v-.33l.76-.11c0-.53,0-1.26,0-1.74v-.54c0-.58,0-.94,0-1.36L94.69,34v-.31l1.45-.57.15.1.08.85a2.64,2.64,0,0,1,1.86-1c.88,0,1.32.55,1.32,1.88v1c0,.5,0,1.22,0,1.74Z"/><path class="cls-2" d="M35.63,13.6a1.53,1.53,0,0,0,1,.56,31.53,31.53,0,0,0,3.69-.44,11.16,11.16,0,0,0,1.38-.45c.73,0,1.25.32,1.26.61s-.12.38-.56.45c-.73.07-2.36.27-3.48.4.43.18.71.42.71.57s-.14.34-.18.61-.06.61-.1,1l2.83-.37c.74-.1,1-.22,1.23-.22.44,0,1.33.34,1.33.74s-.14.43-.45.45-1.24-.13-2-.13a28.65,28.65,0,0,0-3,.24c0,.9-.07,1.85-.05,2.38,0,.69.21.93,1.32.93a8.91,8.91,0,0,0,2.29-.25c.68,0,1,.34,1,.58s-.21.42-.6.51a14.86,14.86,0,0,1-2.53.18c-1.87,0-2.36-.46-2.37-1.63,0-.52,0-1.59,0-2.58a21.72,21.72,0,0,0-2.22.44c-.59.17-.77.37-1.1.37a1.55,1.55,0,0,1-1.09-.93A2.19,2.19,0,0,1,34,17l.2-.06a1.28,1.28,0,0,0,.91.52c.58,0,2.22-.24,3.4-.41,0-.54,0-1,0-1.26a1.49,1.49,0,0,0-.31-.95l-.19,0c-.47.05-1,.22-1.3.22a1.52,1.52,0,0,1-1-.78,3.36,3.36,0,0,1-.22-.61Z"/><path class="cls-2" d="M46.83,15.67c.27.33.52.65.87.65.88,0,4.34-.52,6.54-.73a11.4,11.4,0,0,0,1.31-.24c.61,0,1.39.33,1.39.74s-.1.39-.42.39-.77-.1-1.44-.1-1.6,0-2.7.14c.38.22.69.47.69.71s-.31.35-.5.8A8.74,8.74,0,0,1,48,23.13l-.25-.26a8.32,8.32,0,0,0,3.85-5.75.77.77,0,0,0-.19-.51c-1,.15-2.14.36-2.54.46a5.55,5.55,0,0,1-1.12.3,1.6,1.6,0,0,1-1.08-.92,1.86,1.86,0,0,1-.09-.71Zm1.92-2.77a2.15,2.15,0,0,0,1.31.46A11.42,11.42,0,0,0,52.44,13c.75-.17.91-.38,1.16-.38.64,0,1.12.22,1.12.6,0,.21-.14.34-.56.42a26.16,26.16,0,0,1-4.06.53c-.7,0-1.08-.42-1.52-1.16Zm6.46-.17a4.28,4.28,0,0,1,1.47.83.94.94,0,0,1,.4.77.34.34,0,0,1-.35.35c-.21,0-.32-.25-.57-.57A5.71,5.71,0,0,0,55,12.92Zm1-1.06a5.52,5.52,0,0,1,1.43.72,1,1,0,0,1,.48.81.33.33,0,0,1-.34.36c-.23,0-.35-.26-.61-.59A5.3,5.3,0,0,0,56,11.88Z"/><path class="cls-2" d="M60,15.08v-.26a2.83,2.83,0,0,1,.83-.13c.5,0,1.48.57,1.48,1s-.24.42-.31.74a8.55,8.55,0,0,1-4.17,5.64l-.21-.24a9.19,9.19,0,0,0,3.34-6.06C60.93,15.37,60.32,15.18,60,15.08ZM62.6,13.4a2.2,2.2,0,0,1,.89-.19c.59,0,1.49.52,1.49.87s-.28.32-.33.74c-.06.65-.17,3.95-.17,4.93,0,.17.09.22.24.15a15.75,15.75,0,0,0,4.83-3.4l.26.21A15.64,15.64,0,0,1,65.09,21c-.3.18-.49.57-.78.57s-.93-.73-.93-1,.15-.35.19-.87c0-.71.13-4.16,0-5.4,0-.34-.36-.49-1-.58Z"/><path class="cls-2" d="M72.37,15.08v-.26a2.91,2.91,0,0,1,.84-.13c.49,0,1.48.57,1.48,1s-.25.42-.31.74a8.6,8.6,0,0,1-4.18,5.64L70,21.83a9.17,9.17,0,0,0,3.35-6.06C73.34,15.37,72.72,15.18,72.37,15.08ZM75,13.4a2.24,2.24,0,0,1,.9-.19c.58,0,1.48.52,1.48.87s-.28.32-.33.74c-.06.65-.17,3.95-.17,4.93,0,.17.1.22.24.15A15.75,15.75,0,0,0,82,16.5l.26.21A15.6,15.6,0,0,1,77.5,21c-.3.18-.5.57-.78.57s-.94-.73-.94-1,.16-.35.19-.87c.06-.71.13-4.16.06-5.4,0-.34-.37-.49-1-.58Z"/><path class="cls-2" d="M83.79,16.56c.3.47.52.86,1.1.86,1.22,0,5.61-.29,6.26-.34.87-.06,1.29-.14,1.62-.14.58,0,1.2.27,1.2.69,0,.26-.2.41-.67.41l-1.75,0c-.86,0-4.3.19-5.28.31-.81.09-1,.31-1.38.31s-1.06-.7-1.26-1.19a2.23,2.23,0,0,1-.1-.81Z"/><path class="cls-2" d="M102,17.19c1.62.85,3.32,2.58,3.32,4.08a.64.64,0,0,1-.61.71c-.51,0-.48-.57-1-1.75-1.89.43-5.07.95-6.18,1.21-.27,0-.57.4-.8.4-.42,0-1-.69-1.12-1.13a1.31,1.31,0,0,1,0-.52l.17-.09a1.31,1.31,0,0,0,.76.35c.12,0,.37,0,.71,0,1-1.75,2.7-5.63,2.7-6.3,0-.3-.24-.55-.66-.85l.07-.21a3.42,3.42,0,0,1,.84.13c.59.18,1.24.79,1.24,1.13s-.35.38-.51.7c-.62,1.23-1.93,3.76-2.87,5.32,1.6-.17,4-.45,5.4-.69a8.53,8.53,0,0,0-1.7-2.23Z"/><line class="cls-3" x1="0.5" y1="6.98" x2="0.5" y2="45.98"/></g></g></svg>