<svg xmlns="http://www.w3.org/2000/svg" viewBox="0 0 137 52.16"><defs><style>.cls-1{fill:#fff;}.cls-2{fill:#afafb0;}.cls-3{fill:none;stroke:#717071;stroke-miterlimit:10;}</style></defs><title>header_main_nav_contents_ul_kenmigawa_li_comming_04</title><g id="レイヤー_2" data-name="レイヤー 2"><g id="レイヤー_1-2" data-name="レイヤー 1"><rect class="cls-1" width="137" height="52.16"/><path class="cls-2" d="M42.56,37a1.91,1.91,0,0,1-1.92,1.27,2.3,2.3,0,0,1-2.33-2.57,2.44,2.44,0,0,1,2.41-2.61,1.77,1.77,0,0,1,1.82,1.32.43.43,0,0,1-.46.38.51.51,0,0,1-.54-.48l-.2-.73a2,2,0,0,0-.56-.09c-.94,0-1.59.77-1.59,2.11s.72,2.09,1.71,2.09a1.72,1.72,0,0,0,1.45-.78Z"/><path class="cls-2" d="M43.39,35.67a2.39,2.39,0,1,1,4.75,0,2.38,2.38,0,1,1-4.75,0Zm3.8,0c0-1.44-.53-2.21-1.43-2.21s-1.42.77-1.42,2.21.51,2.17,1.42,2.17S47.19,37.09,47.19,35.67Z"/><path class="cls-2" d="M57.61,37.78v.33H55.24v-.33l.76-.11c0-.52,0-1.24,0-1.74V35c0-1-.27-1.24-.87-1.24a2.08,2.08,0,0,0-1.41.69,4.22,4.22,0,0,1,0,.53v1c0,.5,0,1.22,0,1.74l.71.11v.33H52.12v-.33l.79-.11c0-.52,0-1.24,0-1.74V35c0-.95-.27-1.26-.85-1.26a2,2,0,0,0-1.41.68v1.53c0,.48,0,1.21,0,1.74l.71.11v.33H49v-.33l.77-.11c0-.53,0-1.26,0-1.74v-.54c0-.58,0-.94,0-1.36L49,34v-.31l1.45-.57.14.1.09.84a2.53,2.53,0,0,1,1.8-.95,1.15,1.15,0,0,1,1.23,1,2.43,2.43,0,0,1,1.87-1c.84,0,1.32.52,1.32,1.8v1.07c0,.5,0,1.22,0,1.74Z"/><path class="cls-2" d="M60.68,37.78v.33H58.3v-.33l.79-.11c0-.53,0-1.26,0-1.74v-.55c0-.57,0-.91,0-1.36l-.84-.08v-.31l1.59-.56.14.1,0,1.37v1.39c0,.48,0,1.21,0,1.74Zm-1.83-6.54a.63.63,0,0,1,.67-.63.63.63,0,0,1,.66.63.65.65,0,0,1-.66.64A.64.64,0,0,1,58.85,31.24Z"/><path class="cls-2" d="M67,37.78v.33H64.62v-.33l.76-.11c0-.52,0-1.24,0-1.74V35c0-.94-.25-1.26-.86-1.26a2.13,2.13,0,0,0-1.44.69v1.53c0,.48,0,1.21,0,1.74l.71.11v.33H61.45v-.33l.77-.11c0-.53,0-1.26,0-1.74v-.54c0-.58,0-.94,0-1.36L61.39,34v-.31l1.45-.57.14.1.09.85a2.64,2.64,0,0,1,1.86-1c.88,0,1.32.55,1.32,1.88v1c0,.5,0,1.22,0,1.74Z"/><path class="cls-2" d="M72.43,33.79l-1,0a1.83,1.83,0,0,1,.27,1,1.68,1.68,0,0,1-1.86,1.71,2.61,2.61,0,0,1-.82-.13,1,1,0,0,0-.29.68c0,.3.15.48.66.48h1.37c1.14,0,1.67.49,1.67,1.31s-.86,1.78-2.55,1.78c-1.5,0-2.16-.53-2.16-1.28,0-.44.28-.79,1-1.14a.82.82,0,0,1-.67-.8c0-.33.19-.66.71-1.14a1.59,1.59,0,0,1-.79-1.47,1.67,1.67,0,0,1,1.87-1.69,1.93,1.93,0,0,1,1.3.41l1.18-.4.15.11Zm-3,4.46-.51,0a1.22,1.22,0,0,0-.42.93c0,.69.53,1,1.35,1,1.18,0,1.79-.47,1.79-1.08s-.27-.83-1-.83Zm1.42-3.52c0-.77-.38-1.31-1-1.31s-1.07.55-1.07,1.34.39,1.35,1,1.35S70.84,35.54,70.84,34.73Z"/><path class="cls-2" d="M77.77,35.27c1,.36,1.41.84,1.41,1.49,0,.8-.69,1.48-2,1.48a3.22,3.22,0,0,1-1.56-.39l0-1.13h.5l.22,1a2,2,0,0,0,.85.17c.81,0,1.19-.34,1.19-.83s-.28-.69-1-.94l-.48-.17c-.77-.28-1.27-.68-1.27-1.39s.64-1.45,1.8-1.45a2.6,2.6,0,0,1,1.45.43l0,1H78.4l-.2-.87a1.55,1.55,0,0,0-.75-.19c-.66,0-1,.3-1,.75s.27.66,1,.92Z"/><path class="cls-2" d="M80.05,35.67a2.39,2.39,0,1,1,4.75,0,2.38,2.38,0,1,1-4.75,0Zm3.79,0c0-1.44-.53-2.21-1.42-2.21S81,34.23,81,35.67s.52,2.17,1.43,2.17S83.84,37.09,83.84,35.67Z"/><path class="cls-2" d="M85.73,35.67a2.39,2.39,0,1,1,4.75,0,2.38,2.38,0,1,1-4.75,0Zm3.79,0c0-1.44-.52-2.21-1.42-2.21s-1.43.77-1.43,2.21.52,2.17,1.43,2.17S89.52,37.09,89.52,35.67Z"/><path class="cls-2" d="M96.91,37.78v.33H94.52v-.33l.77-.11c0-.52,0-1.24,0-1.74V35c0-.94-.26-1.26-.86-1.26A2.15,2.15,0,0,0,93,34.4v1.53c0,.48,0,1.21,0,1.74l.72.11v.33H91.36v-.33l.77-.11c0-.53,0-1.26,0-1.74v-.54c0-.58,0-.94,0-1.36L91.29,34v-.31l1.46-.57.14.1L93,34a2.62,2.62,0,0,1,1.86-1c.87,0,1.32.55,1.32,1.88v1c0,.5,0,1.22,0,1.74Z"/><path class="cls-2" d="M47.67,15.67c.28.33.52.65.87.65.89,0,4.35-.52,6.54-.73a12.47,12.47,0,0,0,1.32-.24c.61,0,1.39.33,1.39.74s-.11.39-.42.39-.78-.1-1.44-.1-1.6,0-2.71.14c.38.22.69.47.69.71s-.31.35-.49.8a8.72,8.72,0,0,1-4.54,5.1l-.24-.26a8.3,8.3,0,0,0,3.84-5.75.82.82,0,0,0-.18-.51c-1,.15-2.14.36-2.55.46a5.31,5.31,0,0,1-1.11.3,1.6,1.6,0,0,1-1.08-.92,1.86,1.86,0,0,1-.09-.71ZM49.6,12.9a2.13,2.13,0,0,0,1.31.46A11.52,11.52,0,0,0,53.29,13c.74-.17.91-.38,1.16-.38.63,0,1.11.22,1.11.6,0,.21-.14.34-.55.42a26.32,26.32,0,0,1-4.06.53c-.7,0-1.08-.42-1.52-1.16Zm6.46-.17a4.48,4.48,0,0,1,1.47.83,1,1,0,0,1,.4.77.34.34,0,0,1-.35.35c-.21,0-.33-.25-.57-.57a5.71,5.71,0,0,0-1.13-1.19Zm1-1.06a5.36,5.36,0,0,1,1.43.72,1,1,0,0,1,.48.81c0,.2-.11.37-.33.36S58.26,13.3,58,13a5.84,5.84,0,0,0-1.12-1.09Z"/><path class="cls-2" d="M65.27,12.44a2.58,2.58,0,0,1,.88-.22c.63,0,1.41.55,1.41.87s-.24.23-.28.82,0,1.07,0,1.57c1.41-.13,1.54-.23,1.82-.23.6,0,1.36.28,1.36.74,0,.29-.13.36-.4.36s-.9-.14-2-.14l-.81,0c-.06,1.66-.12,3.25-.93,4.35a7,7,0,0,1-3.52,2.33l-.16-.27a7,7,0,0,0,2.88-2.38,8.09,8.09,0,0,0,.78-4c-.91.06-1.88.16-2.66.23,0,1.06,0,2.08,0,2.53s-.15.72-.46.72-.62-.61-.62-1a21.23,21.23,0,0,0,.22-2.12c-.63.09-1.13.19-1.5.28a4.24,4.24,0,0,1-.91.28c-.37,0-.89-.65-1-.93a1.91,1.91,0,0,1-.09-.78l.22-.06c.26.38.49.73.83.73s1.7-.15,2.47-.22A12.35,12.35,0,0,0,62.69,14c-.07-.28-.37-.38-.93-.48v-.23a2,2,0,0,1,.81-.21c.44,0,1.3.4,1.3.8s-.18.29-.21.72c0,.23,0,.73,0,1.23l2.66-.26a19.88,19.88,0,0,0-.06-2.41c0-.3-.36-.38-.93-.46Zm2.9,0a4,4,0,0,1,1.45.94,1,1,0,0,1,.39.75.34.34,0,0,1-.35.34c-.22,0-.35-.25-.59-.57A5.06,5.06,0,0,0,68,12.69Zm1-1a4.1,4.1,0,0,1,1.46.8,1,1,0,0,1,.42.78.32.32,0,0,1-.36.34c-.2,0-.33-.26-.59-.57A5.6,5.6,0,0,0,69,11.71Z"/><path class="cls-2" d="M76.89,12.17a2.7,2.7,0,0,1,.93.11c.56.19,1.2.8,1.2,1.17s-.25.28-.61.67-1.12,1.19-1.94,2c.38.24.67.48.67.69s-.1.37-.11.71c-.08,1.86,0,3.81,0,4.55,0,.51-.16.72-.5.72s-.74-.63-.74-1.12c0-.25.11-.52.16-.94.1-1,.15-3,.12-3.55a1,1,0,0,0-.15-.57,18.26,18.26,0,0,1-5,3.07l-.17-.3a21.09,21.09,0,0,0,6.45-5.6,1.52,1.52,0,0,0,.34-.7c0-.21-.25-.42-.77-.67Z"/><path class="cls-2" d="M91.28,14.48l.28.18a19.29,19.29,0,0,1-6.83,6.78c-.3.18-.46.53-.77.53a2.64,2.64,0,0,1-1.67-1.08,3,3,0,0,1-.26-.95l.2-.13c.36.41.79.85,1.22.85C84.57,20.66,89.42,17.19,91.28,14.48Zm-9-1.23c1.57.35,3.46,1.19,3.46,2.3a.56.56,0,0,1-.56.6c-.27,0-.48-.17-.81-.59a8.34,8.34,0,0,0-2.25-2.05Z"/><line class="cls-3" x1="0.5" y1="6.98" x2="0.5" y2="45.98"/></g></g></svg>