<svg xmlns="http://www.w3.org/2000/svg" viewBox="0 0 137 52.16"><defs><style>.cls-1{fill:#fff;}.cls-2{fill:#afafb0;}.cls-3{fill:none;stroke:#717071;stroke-miterlimit:10;}</style></defs><title>header_main_nav_contents_ul_kenmigawa_li_comming_02</title><g id="レイヤー_2" data-name="レイヤー 2"><g id="レイヤー_1-2" data-name="レイヤー 1"><rect class="cls-1" width="137" height="52.16"/><path class="cls-2" d="M44.22,37a1.91,1.91,0,0,1-1.92,1.27A2.3,2.3,0,0,1,40,35.67a2.44,2.44,0,0,1,2.41-2.61,1.77,1.77,0,0,1,1.82,1.32.43.43,0,0,1-.46.38.51.51,0,0,1-.54-.48l-.2-.73a2,2,0,0,0-.56-.09c-.94,0-1.59.77-1.59,2.11s.72,2.09,1.71,2.09A1.72,1.72,0,0,0,44,36.88Z"/><path class="cls-2" d="M45.05,35.67a2.39,2.39,0,1,1,4.75,0,2.38,2.38,0,1,1-4.75,0Zm3.8,0c0-1.44-.53-2.21-1.43-2.21S46,34.23,46,35.67s.52,2.17,1.42,2.17S48.85,37.09,48.85,35.67Z"/><path class="cls-2" d="M59.27,37.78v.33H56.9v-.33l.76-.11c0-.52,0-1.24,0-1.74V35c0-1-.27-1.24-.87-1.24a2.08,2.08,0,0,0-1.41.69,4.22,4.22,0,0,1,0,.53v1c0,.5,0,1.22,0,1.74l.71.11v.33H53.78v-.33l.79-.11c0-.52,0-1.24,0-1.74V35c0-.95-.27-1.26-.85-1.26a2,2,0,0,0-1.41.68v1.53c0,.48,0,1.21,0,1.74l.71.11v.33H50.69v-.33l.76-.11c0-.53,0-1.26,0-1.74v-.54c0-.58,0-.94,0-1.36L50.62,34v-.31l1.45-.57.14.1.09.84a2.53,2.53,0,0,1,1.8-.95,1.15,1.15,0,0,1,1.23,1,2.43,2.43,0,0,1,1.87-1c.84,0,1.32.52,1.32,1.8v1.07c0,.5,0,1.22,0,1.74Z"/><path class="cls-2" d="M62.34,37.78v.33H60v-.33l.79-.11c0-.53,0-1.26,0-1.74v-.55c0-.57,0-.91,0-1.36l-.84-.08v-.31l1.59-.56.14.1,0,1.37v1.39c0,.48,0,1.21,0,1.74Zm-1.83-6.54a.63.63,0,0,1,.67-.63.63.63,0,0,1,.66.63.65.65,0,0,1-.66.64A.64.64,0,0,1,60.51,31.24Z"/><path class="cls-2" d="M68.66,37.78v.33H66.28v-.33l.76-.11c0-.52,0-1.24,0-1.74V35c0-.94-.25-1.26-.86-1.26a2.13,2.13,0,0,0-1.44.69v1.53c0,.48,0,1.21,0,1.74l.71.11v.33H63.11v-.33l.77-.11c0-.53,0-1.26,0-1.74v-.54c0-.58,0-.94,0-1.36L63.05,34v-.31l1.45-.57.14.1.09.85a2.64,2.64,0,0,1,1.86-1c.88,0,1.32.55,1.32,1.88v1c0,.5,0,1.22,0,1.74Z"/><path class="cls-2" d="M74.09,33.79l-1,0a1.83,1.83,0,0,1,.27,1,1.68,1.68,0,0,1-1.86,1.71,2.61,2.61,0,0,1-.82-.13,1,1,0,0,0-.29.68c0,.3.15.48.67.48h1.36c1.14,0,1.67.49,1.67,1.31s-.86,1.78-2.55,1.78c-1.5,0-2.16-.53-2.16-1.28,0-.44.28-.79,1-1.14a.82.82,0,0,1-.67-.8c0-.33.19-.66.71-1.14a1.59,1.59,0,0,1-.79-1.47,1.67,1.67,0,0,1,1.87-1.69,1.93,1.93,0,0,1,1.3.41l1.18-.4.15.11Zm-3,4.46-.51,0a1.22,1.22,0,0,0-.42.93c0,.69.54,1,1.35,1,1.18,0,1.79-.47,1.79-1.08s-.27-.83-1-.83Zm1.42-3.52c0-.77-.38-1.31-1-1.31S70.4,34,70.4,34.76s.39,1.35,1,1.35S72.5,35.54,72.5,34.73Z"/><path class="cls-2" d="M79.43,35.27c1,.36,1.41.84,1.41,1.49,0,.8-.69,1.48-2,1.48a3.22,3.22,0,0,1-1.56-.39l0-1.13h.5l.22,1a2,2,0,0,0,.85.17c.81,0,1.19-.34,1.19-.83s-.28-.69-1-.94l-.48-.17c-.77-.28-1.27-.68-1.27-1.39s.64-1.45,1.8-1.45a2.6,2.6,0,0,1,1.45.43l0,1h-.46l-.2-.87a1.55,1.55,0,0,0-.75-.19c-.66,0-1,.3-1,.75s.27.66,1,.92Z"/><path class="cls-2" d="M81.71,35.67a2.39,2.39,0,1,1,4.75,0,2.38,2.38,0,1,1-4.75,0Zm3.79,0c0-1.44-.53-2.21-1.42-2.21s-1.43.77-1.43,2.21.52,2.17,1.43,2.17S85.5,37.09,85.5,35.67Z"/><path class="cls-2" d="M87.39,35.67a2.39,2.39,0,1,1,4.75,0,2.38,2.38,0,1,1-4.75,0Zm3.8,0c0-1.44-.53-2.21-1.43-2.21s-1.43.77-1.43,2.21.52,2.17,1.43,2.17S91.19,37.09,91.19,35.67Z"/><path class="cls-2" d="M98.57,37.78v.33H96.19v-.33l.76-.11c0-.52,0-1.24,0-1.74V35c0-.94-.26-1.26-.86-1.26a2.15,2.15,0,0,0-1.45.69v1.53c0,.48,0,1.21,0,1.74l.72.11v.33H93v-.33l.77-.11c0-.53,0-1.26,0-1.74v-.54c0-.58,0-.94,0-1.36L93,34v-.31l1.46-.57.14.1.09.85a2.62,2.62,0,0,1,1.86-1c.87,0,1.32.55,1.32,1.88v1c0,.5,0,1.22,0,1.74Z"/><path class="cls-2" d="M36.48,14a2.85,2.85,0,0,1,1.63.65s0,0,0,.05c1.3-.08,4.23-.34,4.75-.41s.56-.38.85-.38,1.39.82,1.39,1.21-.43.43-.52.8c-.13.63-.41,2.2-.68,3.54.45,0,.82.25.82.53a.4.4,0,0,1-.44.45c-.34,0-1-.1-1.65-.1-1,0-2.71.1-4.22.2V21c0,.34-.11.56-.45.56s-.63-.42-.63-1c0-.29.06-1,0-1.53a23.59,23.59,0,0,0-.36-3.73,2,2,0,0,0-.74-1.1ZM43,19.51c.24-1.48.53-3.61.53-4.3,0-.1,0-.16-.17-.16-.78,0-2.76.16-3.47.24-.42.05-.81.18-1.06.18a1.37,1.37,0,0,1-.54-.18c0,.88.13,3.25.17,4.54C39.76,19.72,41.74,19.57,43,19.51Z"/><path class="cls-2" d="M50.49,12a3.19,3.19,0,0,1,1,.29c.39.21.89.65.89.92s-.28.33-.46.61A13.7,13.7,0,0,1,51,15.29a1.88,1.88,0,0,0,.46.06c.7,0,3.51-.4,4.22-.52s.69-.28.94-.28c.49,0,1.19.3,1.19.69,0,.24-.09.4-.53.4s-1.21,0-1.82,0c-.43,0-1.14.1-1.82.18.57.24,1,.6,1,.83s-.26.36-.38.65a10.18,10.18,0,0,1-5.07,5.37L49,22.46c2.56-1.69,4.29-4.6,4.29-5.87a.76.76,0,0,0-.38-.64l-.66.09a6.93,6.93,0,0,1-.87.15,1.37,1.37,0,0,1-.7-.41,11.67,11.67,0,0,1-3,2.72l-.21-.23C49.4,16.59,51,14,51,13.07c0-.3-.19-.51-.59-.86Z"/><path class="cls-2" d="M59.28,16.56c.29.47.52.86,1.1.86,1.22,0,5.6-.29,6.25-.34.88-.06,1.3-.14,1.63-.14.58,0,1.2.27,1.2.69,0,.26-.2.41-.67.41L67,18c-.86,0-4.31.19-5.28.31-.81.09-1,.31-1.38.31s-1.07-.7-1.26-1.19a2.23,2.23,0,0,1-.1-.81Z"/><path class="cls-2" d="M71.35,15.69l.12-.27a12.48,12.48,0,0,1,1.74.47c.83.3,1.43.78,1.43,1.36a.45.45,0,0,1-.47.48c-.46,0-.68-.49-1.33-1A8.16,8.16,0,0,0,71.35,15.69Zm9.83-.78.27.18a18.53,18.53,0,0,1-7.09,6.62c-.3.18-.45.55-.82.55a2.62,2.62,0,0,1-1.6-1,2.54,2.54,0,0,1-.29-1l.2-.12c.32.39.74.85,1.19.85C74.11,21,78.87,18,81.18,14.91Zm-8.11-1.78.13-.29a13.75,13.75,0,0,1,1.69.48c.88.38,1.39.81,1.39,1.37a.49.49,0,0,1-.47.51c-.43,0-.67-.52-1.36-1.09A8.15,8.15,0,0,0,73.07,13.13Z"/><path class="cls-2" d="M82.91,15.85a1.08,1.08,0,0,0,.73.47c.65,0,3.13-.27,3.72-.34.34-.05.43-.28.66-.28s1.25.62,1.25,1-.34.35-.39.66c-.13.73-.39,2.37-.59,3.5.32.11.6.37.6.56a.35.35,0,0,1-.36.36c-.24,0-.82-.12-1.3-.12a20.35,20.35,0,0,0-2.89.29,5.08,5.08,0,0,1-.74.21c-.35,0-.82-.55-.92-.82a1.3,1.3,0,0,1-.12-.57l.14-.1c.24.25.45.5.81.5.64,0,2.77-.24,3.9-.33,0-.5.13-1.15.19-1.8-1.07.07-2.3.23-3,.33a6.35,6.35,0,0,1-.67.19c-.28,0-.69-.43-.82-.69a1.85,1.85,0,0,1-.15-.57l.16-.08a1.18,1.18,0,0,0,.75.41c.41,0,2.58-.24,3.81-.33.08-.64.13-1.2.17-1.47,0-.08,0-.11-.1-.11a22.65,22.65,0,0,0-3.28.38,4.57,4.57,0,0,1-.79.23c-.33,0-.79-.56-.87-.84a2.2,2.2,0,0,1-.07-.56Z"/><path class="cls-2" d="M101.48,14.48l.28.18a19.24,19.24,0,0,1-6.84,6.78c-.3.18-.45.53-.76.53a2.61,2.61,0,0,1-1.67-1.08,3,3,0,0,1-.26-.95l.2-.13c.36.41.79.85,1.22.85C94.77,20.66,99.62,17.19,101.48,14.48Zm-9-1.23c1.57.35,3.46,1.19,3.46,2.3a.56.56,0,0,1-.56.6c-.27,0-.48-.17-.81-.59a8.34,8.34,0,0,0-2.25-2.05Z"/><line class="cls-3" x1="0.79" y1="6.98" x2="0.79" y2="45.98"/></g></g></svg>