<svg xmlns="http://www.w3.org/2000/svg" viewBox="0 0 137.21 52.16"><defs><style>.cls-1{fill:#fff;}.cls-2{fill:#3e3a39;}.cls-3{fill:none;stroke:#717071;stroke-miterlimit:10;}</style></defs><title>header_main_nav_contents_ul_kenmigawa_li_05_nomal</title><g id="レイヤー_2" data-name="レイヤー 2"><g id="レイヤー_1-2" data-name="レイヤー 1"><rect class="cls-1" x="0.07" width="137.14" height="52.16"/><path class="cls-2" d="M49.63,33.75v.35a2.39,2.39,0,0,1-.78.11c-.65,0-.94-.18-1.05-.66l-.43-1.65c-.21-.84-.55-1-1.41-1h-.54c0,1,0,1.87,0,2.76l1,.12v.35H43.49v-.35l1-.11c0-.9,0-1.81,0-2.74v-.51c0-.92,0-1.84,0-2.75l-1-.1v-.36h2.9c1.57,0,2.49.67,2.49,1.82,0,.81-.59,1.53-1.77,1.74.65.14,1,.51,1.24,1.31l.48,1.62Zm-3.37-3.27A1.45,1.45,0,0,0,47.91,29c0-.89-.49-1.4-1.58-1.4h-.89c0,.91,0,1.82,0,2.89Z"/><path class="cls-2" d="M50.24,31.67a2.39,2.39,0,1,1,4.75,0,2.38,2.38,0,1,1-4.75,0Zm3.8,0c0-1.44-.53-2.21-1.43-2.21s-1.43.77-1.43,2.21.52,2.17,1.43,2.17S54,33.09,54,31.67Z"/><path class="cls-2" d="M55.92,31.67a2.39,2.39,0,1,1,4.75,0,2.38,2.38,0,1,1-4.75,0Zm3.8,0c0-1.44-.53-2.21-1.43-2.21s-1.43.77-1.43,2.21.52,2.17,1.43,2.17S59.72,33.09,59.72,31.67Z"/><path class="cls-2" d="M70.14,33.78v.32H67.77v-.32l.76-.11c0-.52,0-1.24,0-1.74V31c0-1-.27-1.24-.87-1.24a2.08,2.08,0,0,0-1.41.69c0,.16,0,.33,0,.53v1c0,.5,0,1.22,0,1.74l.71.11v.32H64.65v-.32l.79-.11c0-.52,0-1.24,0-1.74V31c0-.95-.26-1.26-.85-1.26a2,2,0,0,0-1.4.68v1.53c0,.48,0,1.21,0,1.74l.71.11v.32H61.55v-.32l.77-.11c0-.53,0-1.26,0-1.74v-.54c0-.58,0-.94,0-1.36L61.49,30v-.31l1.45-.57.14.1.09.84a2.53,2.53,0,0,1,1.8-1,1.15,1.15,0,0,1,1.23,1,2.43,2.43,0,0,1,1.87-1c.84,0,1.32.52,1.32,1.8v1.07c0,.5,0,1.22,0,1.74Z"/><path class="cls-2" d="M75.27,31.34c0,.76,0,1.51,0,2.29l1,.12v.35H73.34v-.35l1-.11c0-.9,0-1.81,0-2.74v-.51c0-.92,0-1.84,0-2.75l-1-.1v-.36h2.78c1.73,0,2.59.82,2.59,2.05s-.81,2.11-2.89,2.11Zm0-3.75c0,.91,0,1.86,0,2.8v.53h.66c1.29,0,1.81-.69,1.81-1.69s-.55-1.64-1.79-1.64Z"/><path class="cls-2" d="M81.8,33.78v.32H79.26v-.32l.82-.11c0-.57,0-1.17,0-1.74V27.28l-.84-.08v-.31l1.59-.44.15.08L81,28v3.93c0,.57,0,1.17,0,1.74Z"/><path class="cls-2" d="M87.29,33.69a1,1,0,0,1-.89.53.9.9,0,0,1-.93-.81,2.07,2.07,0,0,1-1.54.83A1.24,1.24,0,0,1,82.56,33c0-.63.36-1.08,1.71-1.57a11.6,11.6,0,0,1,1.19-.34v-.32c0-1-.3-1.28-1-1.28a2.59,2.59,0,0,0-.58.08l-.2.71c-.08.32-.25.48-.52.48a.41.41,0,0,1-.46-.39,1.83,1.83,0,0,1,2-1.28c1.09,0,1.61.49,1.61,1.78v2.25c0,.49.14.66.37.66a.54.54,0,0,0,.42-.26Zm-1.83-2.3a10,10,0,0,0-1,.31c-.9.35-1.06.75-1.06,1.13a.74.74,0,0,0,.83.8c.37,0,.61-.15,1.19-.6Z"/><path class="cls-2" d="M93.32,33.78v.32H90.94v-.32l.76-.11c0-.52,0-1.24,0-1.74V31c0-.94-.25-1.26-.86-1.26a2.13,2.13,0,0,0-1.44.69v1.53c0,.48,0,1.21,0,1.74l.71.11v.32H87.77v-.32l.77-.11c0-.53,0-1.26,0-1.74v-.54c0-.58,0-.94,0-1.36L87.71,30v-.31l1.45-.57.14.1.09.85a2.64,2.64,0,0,1,1.86-1c.88,0,1.32.55,1.32,1.88v1c0,.5,0,1.22,0,1.74Z"/><path class="cls-2" d="M54.58,14.39c.82,0,4.72-.41,5.36-.54.39-.1.45-.29.71-.29.45,0,1.53.87,1.53,1.27s-.41.46-.6.89a12.63,12.63,0,0,1-7.71,7.1l-.18-.29c3.67-1.87,6.12-4.77,6.87-7.76,0-.17,0-.2-.14-.2a48.3,48.3,0,0,0-4.85.73c-.35.08-.64.31-.91.31-.44,0-1.08-.67-1.21-1a3.55,3.55,0,0,1-.11-.79l.23-.09C53.82,14,54.11,14.39,54.58,14.39Zm6.94-1.61a1.4,1.4,0,1,1,1.4,1.39A1.39,1.39,0,0,1,61.52,12.78Zm.46,0a.93.93,0,1,0,1.86,0,.93.93,0,0,0-1.86,0Z"/><path class="cls-2" d="M65.33,15.42l.22-.12c.32.4.54.69,1,.69.77,0,4.42-.47,5.35-.61.4-.07.53-.29.78-.29.43,0,1.31.73,1.31,1.11s-.53.44-.73.82a11.54,11.54,0,0,1-6.77,5.83l-.18-.29a12.45,12.45,0,0,0,6-6.28c.05-.17,0-.24-.16-.22-1,.09-3.73.53-4.6.74-.39.09-.6.32-.88.32s-1-.61-1.11-.95A2.57,2.57,0,0,1,65.33,15.42Zm6.62-2a22.41,22.41,0,0,1-3.83.52c-.71,0-1.1-.39-1.54-1.16l.18-.16a2.21,2.21,0,0,0,1.3.48,8.65,8.65,0,0,0,2.16-.32c.74-.17.91-.37,1.17-.37.65,0,1.13.2,1.13.58C72.52,13.2,72.37,13.33,72,13.42Z"/><path class="cls-2" d="M85.51,14.48l.29.18A19.32,19.32,0,0,1,79,21.44c-.3.18-.46.53-.77.53a2.59,2.59,0,0,1-1.66-1.08,2.75,2.75,0,0,1-.26-.95l.19-.13c.37.41.8.85,1.23.85C78.8,20.66,83.65,17.19,85.51,14.48Zm-9-1.23c1.57.35,3.45,1.19,3.45,2.3a.56.56,0,0,1-.56.6c-.27,0-.48-.17-.8-.59a8.66,8.66,0,0,0-2.25-2.05Z"/><line class="cls-3" x1="0.5" y1="6.29" x2="0.5" y2="45.29"/></g></g></svg>