<svg xmlns="http://www.w3.org/2000/svg" viewBox="0 0 137 52.16"><defs><style>.cls-1{fill:#fff;}.cls-2{fill:#afafb0;}.cls-3{fill:none;stroke:#717071;stroke-miterlimit:10;}</style></defs><title>header_main_nav_contents_ul_kenmigawa_li_comming_03</title><g id="レイヤー_2" data-name="レイヤー 2"><g id="レイヤー_1-2" data-name="レイヤー 1"><rect class="cls-1" width="137" height="52.16"/><path class="cls-2" d="M44.07,37a1.89,1.89,0,0,1-1.91,1.27,2.31,2.31,0,0,1-2.34-2.57,2.45,2.45,0,0,1,2.42-2.61,1.75,1.75,0,0,1,1.81,1.32.41.41,0,0,1-.45.38.52.52,0,0,1-.55-.48l-.2-.73a1.91,1.91,0,0,0-.55-.09c-.95,0-1.59.77-1.59,2.11s.72,2.09,1.71,2.09a1.7,1.7,0,0,0,1.44-.78Z"/><path class="cls-2" d="M44.91,35.67a2.39,2.39,0,1,1,4.75,0,2.38,2.38,0,1,1-4.75,0Zm3.79,0c0-1.44-.52-2.21-1.42-2.21s-1.43.77-1.43,2.21.52,2.17,1.43,2.17S48.7,37.09,48.7,35.67Z"/><path class="cls-2" d="M59.13,37.78v.33H56.76v-.33l.76-.11c0-.52,0-1.24,0-1.74V35c0-1-.27-1.24-.87-1.24a2.12,2.12,0,0,0-1.42.69,4.22,4.22,0,0,1,0,.53v1c0,.5,0,1.22,0,1.74l.71.11v.33H53.64v-.33l.78-.11c0-.52,0-1.24,0-1.74V35c0-.95-.26-1.26-.85-1.26a2.06,2.06,0,0,0-1.41.68v1.53c0,.48,0,1.21,0,1.74l.72.11v.33H50.54v-.33l.77-.11c0-.53,0-1.26,0-1.74v-.54c0-.58,0-.94,0-1.36L50.48,34v-.31l1.45-.57.14.1.09.84a2.53,2.53,0,0,1,1.8-.95,1.15,1.15,0,0,1,1.23,1,2.43,2.43,0,0,1,1.87-1c.84,0,1.32.52,1.32,1.8v1.07c0,.5,0,1.22,0,1.74Z"/><path class="cls-2" d="M62.19,37.78v.33H59.81v-.33l.8-.11c0-.53,0-1.26,0-1.74v-.55c0-.57,0-.91,0-1.36l-.84-.08v-.31l1.58-.56.15.1,0,1.37v1.39c0,.48,0,1.21,0,1.74Zm-1.83-6.54a.67.67,0,0,1,1.33,0,.67.67,0,0,1-1.33,0Z"/><path class="cls-2" d="M68.52,37.78v.33H66.14v-.33l.76-.11c0-.52,0-1.24,0-1.74V35c0-.94-.26-1.26-.86-1.26a2.15,2.15,0,0,0-1.45.69v1.53c0,.48,0,1.21,0,1.74l.72.11v.33H63v-.33l.77-.11c0-.53,0-1.26,0-1.74v-.54c0-.58,0-.94,0-1.36L62.9,34v-.31l1.46-.57.14.1.09.85a2.6,2.6,0,0,1,1.86-1c.87,0,1.32.55,1.32,1.88v1c0,.5,0,1.22,0,1.74Z"/><path class="cls-2" d="M74,33.79l-1,0a1.83,1.83,0,0,1,.28,1,1.68,1.68,0,0,1-1.86,1.71,2.68,2.68,0,0,1-.83-.13,1.09,1.09,0,0,0-.28.68c0,.3.14.48.66.48h1.37c1.13,0,1.66.49,1.66,1.31s-.86,1.78-2.55,1.78c-1.5,0-2.15-.53-2.15-1.28,0-.44.27-.79,1-1.14a.82.82,0,0,1-.67-.8c0-.33.19-.66.71-1.14a1.59,1.59,0,0,1-.79-1.47,1.67,1.67,0,0,1,1.87-1.69,2,2,0,0,1,1.3.41l1.18-.4.15.11Zm-3,4.46-.51,0a1.23,1.23,0,0,0-.43.93c0,.69.54,1,1.35,1,1.18,0,1.8-.47,1.8-1.08s-.28-.83-1-.83Zm1.41-3.52c0-.77-.37-1.31-1-1.31s-1.06.55-1.06,1.34.38,1.35,1,1.35S72.35,35.54,72.35,34.73Z"/><path class="cls-2" d="M79.28,35.27c1,.36,1.42.84,1.42,1.49,0,.8-.69,1.48-2,1.48a3.2,3.2,0,0,1-1.56-.39l0-1.13h.49l.23,1a2,2,0,0,0,.85.17c.81,0,1.19-.34,1.19-.83s-.28-.69-1-.94l-.49-.17c-.76-.28-1.26-.68-1.26-1.39s.64-1.45,1.8-1.45a2.62,2.62,0,0,1,1.45.43l0,1h-.46l-.2-.87a1.58,1.58,0,0,0-.75-.19c-.66,0-1,.3-1,.75s.27.66,1,.92Z"/><path class="cls-2" d="M81.56,35.67a2.39,2.39,0,1,1,4.75,0,2.38,2.38,0,1,1-4.75,0Zm3.8,0c0-1.44-.53-2.21-1.42-2.21s-1.43.77-1.43,2.21.52,2.17,1.43,2.17S85.36,37.09,85.36,35.67Z"/><path class="cls-2" d="M87.24,35.67a2.39,2.39,0,1,1,4.76,0,2.39,2.39,0,1,1-4.76,0Zm3.8,0c0-1.44-.53-2.21-1.42-2.21s-1.43.77-1.43,2.21.52,2.17,1.43,2.17S91,37.09,91,35.67Z"/><path class="cls-2" d="M98.42,37.78v.33H96v-.33l.77-.11c0-.52,0-1.24,0-1.74V35c0-.94-.26-1.26-.86-1.26a2.13,2.13,0,0,0-1.45.69v1.53c0,.48,0,1.21,0,1.74l.72.11v.33H92.88v-.33l.76-.11c0-.53,0-1.26,0-1.74v-.54c0-.58,0-.94,0-1.36L92.81,34v-.31l1.46-.57.14.1.08.85a2.64,2.64,0,0,1,1.86-1c.88,0,1.33.55,1.33,1.88v1c0,.5,0,1.22,0,1.74Z"/><path class="cls-2" d="M46.73,13.1c.28.39.45.68.84.68.94,0,5.76-.53,6.55-.65.34-.05.48-.25.73-.25s1.42.9,1.42,1.32-.57.4-.87.61a32,32,0,0,1-2.82,1.77.53.53,0,0,1,0,.23,10,10,0,0,1-5.31,6L47,22.52c2.57-1.61,4.2-4.77,4.2-5.65,0-.4-.48-.61-1-.81l.07-.25a3.35,3.35,0,0,1,.84,0,2.94,2.94,0,0,1,1.15.36,11.58,11.58,0,0,0,2.23-2.06c.16-.25.09-.3-.16-.3-.62,0-4.18.54-5.59.83-.51.12-.56.39-.9.39a1.88,1.88,0,0,1-1.2-1,2.35,2.35,0,0,1-.15-.86Z"/><path class="cls-2" d="M60.12,12.13a2.84,2.84,0,0,1,.82,0c.61.09,1.37.52,1.37.78s-.17.35-.37.68-.3.48-.47.71a.68.68,0,0,0,.19,0,18.35,18.35,0,0,0,2.5-.29c.35-.08.48-.32.71-.32s1.3.57,1.3,1-.44.39-.65.73a16.1,16.1,0,0,1-8.29,7.43l-.2-.27a17.17,17.17,0,0,0,7.43-7.69c.05-.17,0-.23-.13-.23a15.87,15.87,0,0,0-1.94.32,3.42,3.42,0,0,1-.73.17,1.15,1.15,0,0,1-.57-.32,11.61,11.61,0,0,1-4,3.38L56.93,18c2-1.52,3.9-4.16,3.9-4.92,0-.25-.34-.48-.78-.68Z"/><path class="cls-2" d="M74.13,18.33A13,13,0,0,0,76,15.81c.09-.16,0-.25-.16-.22a33.31,33.31,0,0,0-3.71,1.13c-.07,1.09-.09,2.26-.09,3,0,1.09.18,1.19,1.65,1.19a12,12,0,0,0,2.69-.31c.41,0,1,.17,1,.56s-.26.42-.61.48a15.38,15.38,0,0,1-2.64.25c-2.13,0-2.93-.16-2.94-1.93,0-.85,0-2.09,0-3-.59.21-1.29.47-1.77.68s-.56.44-.95.44a2.18,2.18,0,0,1-1.27-1,1.43,1.43,0,0,1-.08-.76l.19-.07c.26.37.5.64.85.64a21.06,21.06,0,0,0,3-.77c0-1.05,0-2.34,0-2.85,0-.32-.41-.41-1-.53V12.6a3,3,0,0,1,1-.22c.54,0,1.42.52,1.42.84s-.26.48-.33.91-.1,1-.15,1.81L75.6,15c.39-.12.52-.36.73-.36.43,0,1.4.78,1.4,1.14s-.44.36-.73.64a17.71,17.71,0,0,1-2.66,2.13Z"/><path class="cls-2" d="M81.55,13.42c.24.32.51.76,1,.76a29.43,29.43,0,0,0,3.94-.62c.29-.08.46-.36.68-.36.43,0,1.38.76,1.38,1.1s-.46.42-.63.66a22,22,0,0,1-2.1,2.89c2.12.86,4.17,2.24,4.17,3.43a.53.53,0,0,1-.53.57c-.41,0-.64-.4-1.25-1.15a10.29,10.29,0,0,0-2.71-2.53,15.09,15.09,0,0,1-5.77,3.89l-.18-.3a17.67,17.67,0,0,0,7.33-7.34c.07-.18,0-.22-.15-.2-.81.12-2.58.56-3.27.76-.41.11-.49.37-.83.37s-1-.62-1.13-1a2.85,2.85,0,0,1-.16-.85Z"/><line class="cls-3" x1="0.5" y1="6.98" x2="0.5" y2="45.98"/></g></g></svg>