<svg xmlns="http://www.w3.org/2000/svg" viewBox="0 0 137 52.16"><defs><style>.cls-1{fill:#fff;}.cls-2{fill:#afafb0;}.cls-3{fill:none;stroke:#717071;stroke-miterlimit:10;}</style></defs><title>header_main_nav_contents_ul_kenmigawa_li_comming_05</title><g id="レイヤー_2" data-name="レイヤー 2"><g id="レイヤー_1-2" data-name="レイヤー 1"><rect class="cls-1" width="137" height="52.16"/><path class="cls-2" d="M43.84,37a1.9,1.9,0,0,1-1.92,1.27,2.3,2.3,0,0,1-2.33-2.57A2.45,2.45,0,0,1,42,33.06a1.76,1.76,0,0,1,1.81,1.32.43.43,0,0,1-.45.38.52.52,0,0,1-.55-.48l-.2-.73a2,2,0,0,0-.56-.09c-.94,0-1.58.77-1.58,2.11s.71,2.09,1.71,2.09a1.72,1.72,0,0,0,1.44-.78Z"/><path class="cls-2" d="M44.67,35.67a2.39,2.39,0,1,1,4.76,0,2.39,2.39,0,1,1-4.76,0Zm3.8,0c0-1.44-.53-2.21-1.42-2.21s-1.43.77-1.43,2.21.52,2.17,1.43,2.17S48.47,37.09,48.47,35.67Z"/><path class="cls-2" d="M58.89,37.78v.33H56.52v-.33l.77-.11c0-.52,0-1.24,0-1.74V35c0-1-.28-1.24-.87-1.24a2.1,2.1,0,0,0-1.42.69,4.22,4.22,0,0,1,0,.53v1c0,.5,0,1.22,0,1.74l.71.11v.33H53.41v-.33l.78-.11c0-.52,0-1.24,0-1.74V35c0-.95-.27-1.26-.85-1.26A2.06,2.06,0,0,0,52,34.4v1.53c0,.48,0,1.21,0,1.74l.72.11v.33H50.31v-.33l.76-.11c0-.53,0-1.26,0-1.74v-.54c0-.58,0-.94,0-1.36L50.24,34v-.31l1.46-.57.14.1.08.84a2.53,2.53,0,0,1,1.81-.95A1.14,1.14,0,0,1,55,34a2.43,2.43,0,0,1,1.87-1c.85,0,1.33.52,1.33,1.8v1.07c0,.5,0,1.22,0,1.74Z"/><path class="cls-2" d="M62,37.78v.33H59.58v-.33l.79-.11c0-.53,0-1.26,0-1.74v-.55c0-.57,0-.91,0-1.36l-.84-.08v-.31l1.59-.56.14.1,0,1.37v1.39c0,.48,0,1.21,0,1.74Zm-1.83-6.54a.67.67,0,0,1,1.33,0,.67.67,0,0,1-1.33,0Z"/><path class="cls-2" d="M68.28,37.78v.33H65.9v-.33l.77-.11c0-.52,0-1.24,0-1.74V35c0-.94-.26-1.26-.86-1.26a2.13,2.13,0,0,0-1.45.69v1.53c0,.48,0,1.21,0,1.74l.72.11v.33H62.74v-.33l.76-.11c0-.53,0-1.26,0-1.74v-.54c0-.58,0-.94,0-1.36L62.67,34v-.31l1.46-.57.14.1.08.85a2.64,2.64,0,0,1,1.86-1c.88,0,1.33.55,1.33,1.88v1c0,.5,0,1.22,0,1.74Z"/><path class="cls-2" d="M73.72,33.79l-1,0a1.83,1.83,0,0,1,.27,1,1.67,1.67,0,0,1-1.86,1.71,2.66,2.66,0,0,1-.82-.13A1,1,0,0,0,70,37c0,.3.14.48.66.48H72c1.13,0,1.66.49,1.66,1.31s-.86,1.78-2.55,1.78c-1.5,0-2.15-.53-2.15-1.28,0-.44.27-.79,1-1.14a.81.81,0,0,1-.67-.8c0-.33.19-.66.71-1.14a1.57,1.57,0,0,1-.8-1.47,1.68,1.68,0,0,1,1.87-1.69,2,2,0,0,1,1.31.41l1.18-.4.15.11Zm-3,4.46-.51,0a1.22,1.22,0,0,0-.42.93c0,.69.54,1,1.35,1,1.18,0,1.79-.47,1.79-1.08s-.27-.83-1-.83Zm1.42-3.52c0-.77-.38-1.31-1-1.31S70,34,70,34.76s.39,1.35,1,1.35S72.12,35.54,72.12,34.73Z"/><path class="cls-2" d="M79.05,35.27c1,.36,1.42.84,1.42,1.49,0,.8-.69,1.48-2,1.48a3.19,3.19,0,0,1-1.55-.39l0-1.13h.49l.22,1a2.06,2.06,0,0,0,.86.17c.81,0,1.18-.34,1.18-.83s-.28-.69-1-.94l-.48-.17c-.76-.28-1.26-.68-1.26-1.39s.64-1.45,1.8-1.45a2.57,2.57,0,0,1,1.44.43l0,1h-.47l-.2-.87a1.54,1.54,0,0,0-.74-.19c-.66,0-1,.3-1,.75s.26.66,1,.92Z"/><path class="cls-2" d="M81.33,35.67a2.39,2.39,0,1,1,4.75,0,2.38,2.38,0,1,1-4.75,0Zm3.8,0c0-1.44-.53-2.21-1.43-2.21s-1.43.77-1.43,2.21.52,2.17,1.43,2.17S85.13,37.09,85.13,35.67Z"/><path class="cls-2" d="M87,35.67a2.39,2.39,0,1,1,4.75,0,2.38,2.38,0,1,1-4.75,0Zm3.8,0c0-1.44-.53-2.21-1.43-2.21S88,34.23,88,35.67s.52,2.17,1.42,2.17S90.81,37.09,90.81,35.67Z"/><path class="cls-2" d="M98.19,37.78v.33H95.81v-.33l.76-.11c0-.52,0-1.24,0-1.74V35c0-.94-.25-1.26-.86-1.26a2.13,2.13,0,0,0-1.44.69v1.53c0,.48,0,1.21,0,1.74l.71.11v.33H92.64v-.33l.77-.11c0-.53,0-1.26,0-1.74v-.54c0-.58,0-.94,0-1.36L92.58,34v-.31L94,33.07l.14.1.09.85a2.64,2.64,0,0,1,1.86-1c.88,0,1.32.55,1.32,1.88v1c0,.5,0,1.22,0,1.74Z"/><path class="cls-2" d="M55.08,14.39c.82,0,4.72-.41,5.36-.54.39-.1.45-.29.71-.29.45,0,1.53.87,1.53,1.27s-.41.46-.6.89a12.63,12.63,0,0,1-7.71,7.1l-.18-.29c3.68-1.87,6.12-4.77,6.87-7.76.06-.17,0-.2-.14-.2a48.3,48.3,0,0,0-4.85.73c-.35.08-.64.31-.91.31-.44,0-1.08-.67-1.21-1a3.55,3.55,0,0,1-.11-.79l.23-.09C54.32,14,54.61,14.39,55.08,14.39Zm7-1.61a1.39,1.39,0,1,1,1.39,1.39A1.38,1.38,0,0,1,62,12.78Zm.45,0a.93.93,0,1,0,1.86,0,.93.93,0,0,0-1.86,0Z"/><path class="cls-2" d="M65.83,15.42l.23-.12c.31.4.53.69.94.69.77,0,4.42-.47,5.35-.61.4-.07.53-.29.78-.29.43,0,1.31.73,1.31,1.11s-.53.44-.73.82a11.54,11.54,0,0,1-6.77,5.83l-.18-.29a12.45,12.45,0,0,0,6-6.28c.05-.17,0-.24-.16-.22-1,.09-3.73.53-4.6.74-.39.09-.6.32-.88.32s-1-.61-1.11-.95A2.57,2.57,0,0,1,65.83,15.42Zm6.62-2a22.41,22.41,0,0,1-3.83.52c-.71,0-1.1-.39-1.54-1.16l.18-.16a2.21,2.21,0,0,0,1.3.48,8.21,8.21,0,0,0,2.16-.32c.74-.17.91-.36,1.17-.36.65,0,1.13.19,1.13.57C73,13.2,72.87,13.33,72.45,13.42Z"/><path class="cls-2" d="M86,14.48l.29.18a19.32,19.32,0,0,1-6.84,6.78c-.3.18-.46.53-.77.53A2.59,2.59,0,0,1,77,20.89a2.75,2.75,0,0,1-.26-.95l.19-.13c.37.41.8.85,1.23.85C79.3,20.66,84.15,17.19,86,14.48Zm-9-1.23c1.57.35,3.45,1.19,3.45,2.3a.56.56,0,0,1-.56.6c-.27,0-.48-.17-.8-.59a8.66,8.66,0,0,0-2.25-2.05Z"/><line class="cls-3" x1="0.5" y1="6.98" x2="0.5" y2="45.98"/></g></g></svg>