<?xml version="1.0" encoding="utf-8"?>
<!-- Generator: Adobe Illustrator 24.0.0, SVG Export Plug-In . SVG Version: 6.00 Build 0)  -->
<svg version="1.1" id="レイヤー_1" xmlns="http://www.w3.org/2000/svg" xmlns:xlink="http://www.w3.org/1999/xlink" x="0px"
	 y="0px" viewBox="0 0 390 127.1" style="enable-background:new 0 0 390 127.1;" xml:space="preserve">
<style type="text/css">
	.st0{fill:#EE9B19;}
	.st1{fill:#FFFFFF;}
</style>
<title>button_index_top_nav_ul_li_01</title>
<g>
	<g>
		<rect y="0" class="st0" width="390" height="127.1"/>
	</g>
	<g>
		<g>
			<path class="st1" d="M129.8,55.7c-1.5,0.9-3.7,2.3-7,3.9c-0.1,0.4-0.4,0.6-0.7,0.7l-1.6-3.5c1.6-0.2,5.4-0.8,9.3-1.5L129.8,55.7z
				 M121.2,74.5c3.5-1,7.2-3.1,9-4.7l3.5,2.3c-0.2,0.3-0.8,0.4-1.6,0.2c-2.5,1.3-6.8,2.3-10.8,2.6L121.2,74.5z M122.4,49.9
				c7.8,0.1,5.9,5.9,2.8,4.2c-0.5-1.5-1.9-3.1-3-4L122.4,49.9z M138.3,70.5v-1.1h-9.9v0.7c0,0.3-1.4,1-2.7,1h-0.5V58.4l3.3,1.3h9.4
				l1.4-1.6l3,2.3c-0.2,0.2-0.5,0.4-1,0.5v8.8c0,0.2-1.6,0.8-2.7,0.8H138.3z M137.5,53c0.8,2.3,3.1,3.7,8.3,4.3l0,0.4
				c-1.4,0.3-2.1,0.9-2.2,2.5c-4.3-1.1-5.9-3.6-6.5-6.5c-1.1,3.3-4.2,4.8-9.1,5.6l-0.1-0.4c3.9-1.3,5.7-3,6.3-5.9h-1.8
				c-1.2,1-2.6,1.9-4.2,2.5l-0.2-0.2c1.6-1.4,2.9-3.8,3.5-6l4.1,0.9c-0.1,0.3-0.3,0.4-1,0.4c-0.4,0.5-0.8,1.1-1.3,1.6h7.9l1.5-1.5
				l2.6,2.5c-0.2,0.2-0.5,0.3-1.1,0.3c-1,0.7-2.7,1.6-3.9,2l-0.3-0.1c0.4-0.7,0.8-1.6,1.1-2.4H137.5z M128.4,60.5v2.2h9.9v-2.2
				H128.4z M138.3,63.4h-9.9v2.2h9.9V63.4z M138.3,68.7v-2.3h-9.9v2.3H138.3z M134.1,70.6c15.3,0.2,9.8,5.8,6.9,3.7
				c-1.3-1.1-3.6-2.5-7-3.4L134.1,70.6z"/>
			<path class="st1" d="M169.3,62.2c7.3,1.5,4.9,6.8,2.2,4.9c-0.2-1.6-1.2-3.3-2.2-4.5v11.2c0,0.3-1.3,1-2.3,1h-0.6v-8.9
				c-1.3,1.8-2.8,3.4-4.6,4.8l-0.3-0.3c1.9-2.6,3.2-6.2,4-9.7h-3.7l-0.2-0.8h4.9V49.3l3.9,0.4c-0.1,0.4-0.2,0.7-1,0.8V60h0.9l1.5-2
				c0,0,1.7,1.4,2.8,2.3c-0.1,0.3-0.4,0.4-0.7,0.4h-4.4V62.2z M162.1,51.7c5.9,3.3,3,7.9,0.9,5.7c0.1-1.9-0.6-4-1.2-5.6L162.1,51.7z
				 M169.9,57.9c0.4-1.6,0.8-4.1,1.1-6.3l3.6,1.1c-0.1,0.3-0.4,0.6-1,0.6c-1,1.6-2.2,3.5-3.3,4.8L169.9,57.9z M185,63.4
				c0,0,1.7,1.1,2.8,1.9c0,0.3-0.3,0.5-0.6,0.6l-3.4,0.7v7.2c0,0.3-1.3,1.1-2.5,1.1h-0.6v-7.7l-7.1,1.4l-0.4-0.7l7.5-1.5V49.3
				l4.1,0.4c-0.1,0.4-0.2,0.7-1,0.8v15.2l0.1,0L185,63.4z M174.1,58.2c7.5,0.8,5.5,6.4,2.7,4.6c-0.4-1.6-1.7-3.3-2.9-4.4L174.1,58.2
				z M174.6,51.7c7.4,1.3,5,6.6,2.3,4.7c-0.3-1.6-1.5-3.3-2.5-4.5L174.6,51.7z"/>
			<path class="st1" d="M211.5,52.9c0,0,1.6,1.3,2.5,2.2c-0.1,0.3-0.3,0.4-0.7,0.4h-10.2l-0.2-0.8h7.2L211.5,52.9z M210.5,56.5
				c0,0,1.5,1.3,2.5,2.1c-0.1,0.3-0.4,0.4-0.7,0.4h-7.8l-0.2-0.8h4.9L210.5,56.5z M210.5,60c0,0,1.5,1.3,2.5,2.2
				c-0.1,0.3-0.4,0.4-0.7,0.4h-7.8l-0.2-0.8h4.9L210.5,60z M210.8,64.1l2.8,2.1c-0.2,0.2-0.5,0.4-1.1,0.5V73c0,0.2-1.4,0.8-2.3,0.8
				h-0.5v-1.6H207v1.8c0,0.3-1.2,0.9-2.4,0.9h-0.4V64.3l2.9,1.2h2.3L210.8,64.1z M204.5,52.1l-0.2-0.8h4.6l1.4-1.9
				c0,0,1.6,1.3,2.6,2.2c-0.1,0.3-0.3,0.4-0.7,0.4H204.5z M209.7,71.4v-5.1H207v5.1H209.7z M226,56.3c0,0,1.7,1.4,2.8,2.3
				c-0.1,0.3-0.4,0.4-0.7,0.4h-14.6l-0.2-0.8h5.9V56h-4.2l-0.2-0.7h4.4V53h-5l-0.2-0.8h5.2v-2.8l4.1,0.4c-0.1,0.4-0.3,0.7-1,0.7v1.7
				h1.7l1.6-2c0,0,1.7,1.4,2.8,2.3c-0.1,0.3-0.3,0.4-0.7,0.4h-5.3v2.3h1.4l1.4-1.9c0,0,1.6,1.3,2.6,2.2c-0.1,0.3-0.4,0.4-0.7,0.4
				h-4.7v2.3h2.3L226,56.3z M224.8,59.6l3,2.3c-0.2,0.2-0.5,0.4-1,0.5v8.8c0,2.1-0.4,3.3-3.8,3.6c-0.1-1-0.2-1.8-0.5-2.2
				c-0.4-0.5-0.8-0.8-1.9-1v-0.4c0,0,2.1,0.1,2.6,0.1c0.4,0,0.5-0.2,0.5-0.5v-2.3h-5.5v5.2c0,0.3-1.3,1-2.6,1h-0.5V59.9l3.2,1.3h5.1
				L224.8,59.6z M218.2,61.9v2.5h5.5v-2.5H218.2z M223.7,67.8v-2.6h-5.5v2.6H223.7z"/>
			<path class="st1" d="M268.2,59.4c-0.1,0.3-0.4,0.4-1,0.3c-1.5,1.1-3.6,2.6-5.7,3.7c2.3,3,5.3,4.5,8.2,5.6l-0.1,0.3
				c-1.3,0.3-2.3,1.5-2.7,3c-4.1-2.7-6.7-6.1-8.2-12.9V71c0,2.3-0.5,3.5-4.4,3.9c-0.1-1-0.3-1.8-0.8-2.3s-1.2-0.9-2.7-1.1V71
				c0,0,3.2,0.2,3.9,0.2c0.5,0,0.6-0.2,0.6-0.5v-5.9c-1.7,1.6-4,3.7-7.2,6.3c-0.1,0.4-0.2,0.7-0.5,0.8l-2.5-3.4
				c1.8-0.7,6-2.6,10.3-4.7V56h-10.3l-0.2-0.8h10.6v-5.8l4.2,0.4c-0.1,0.4-0.3,0.6-1,0.7v4.6h6l1.8-2.3c0,0,2,1.5,3.2,2.6
				c-0.1,0.3-0.4,0.4-0.8,0.4h-10.2v1.9c0.5,2,1.4,3.6,2.3,5c1.3-1.9,2.7-4.4,3.4-5.9L268.2,59.4z M247.8,57.4
				c8.3,1.9,5.6,8.1,2.6,5.8c-0.3-2-1.6-4.2-2.8-5.6L247.8,57.4z M260.1,50.4c7.2-0.2,5.3,5.3,2.4,3.8c-0.4-1.3-1.6-2.8-2.6-3.6
				L260.1,50.4z"/>
		</g>
	</g>
</g>
</svg>
