<svg xmlns="http://www.w3.org/2000/svg" viewBox="0 0 178.3 48"><defs><style>.cls-1{fill:#009fe8;}.cls-2{fill:#fff;}</style></defs><g id="telボタン"><rect class="cls-1" x="-24.17" y="-9.83" width="233.33" height="64.04"/><path class="cls-2" d="M41.38,23.64c0-4.47,1.75-6.65,4.39-6.65s4.37,2.21,4.36,6.66-1.76,6.76-4.38,6.75S41.37,28.09,41.38,23.64Zm6.32,0c0-3.62-.83-4.67-1.93-4.67s-2,1.05-2,4.66.83,4.75,1.95,4.75S47.7,27.28,47.7,23.65Z"/><path class="cls-2" d="M52.67,28.09h2.78V19.92H53.12V18.33a8.59,8.59,0,0,0,3-1.08H58V28.1h2.43v2.08H52.67Z"/><path class="cls-2" d="M62.63,28.7c3.51-3.14,5.6-5.57,5.6-7.56A1.86,1.86,0,0,0,66.29,19a3.32,3.32,0,0,0-2.37,1.33L62.52,19A5.2,5.2,0,0,1,66.63,17a3.78,3.78,0,0,1,4.06,4c0,2.34-1.94,4.86-4.3,7.16.64-.07,1.5-.14,2.09-.14h2.81v2.16H62.63Z"/><path class="cls-2" d="M73.29,23.68c0-4.47,1.76-6.65,4.39-6.65s4.37,2.21,4.36,6.66-1.75,6.76-4.37,6.75S73.29,28.13,73.29,23.68Zm6.32,0c0-3.62-.83-4.67-1.93-4.67s-2,1.05-2,4.66.83,4.75,2,4.76S79.61,27.32,79.61,23.69Z"/><path class="cls-2" d="M84,24.29h4.76v1.84H84Z"/><path class="cls-2" d="M91.4,28.14h2.78V20H91.85V18.38a8.61,8.61,0,0,0,3-1.08h1.91l0,10.85h2.43v2.08H91.4Z"/><path class="cls-2" d="M107.3,19.46h-5.81V17.31h8.59v1.55c-3,3.67-3.41,6.3-3.63,11.37h-2.6C104.08,25.75,104.84,22.88,107.3,19.46Z"/><path class="cls-2" d="M112.67,28.17h2.78V20h-2.34V18.4a8.4,8.4,0,0,0,3-1.07H118V28.17h2.43v2.08h-7.77Z"/><path class="cls-2" d="M122.74,24.34h4.77v1.84h-4.77Z"/><path class="cls-2" d="M130.12,28.19h2.78V20h-2.34V18.43a8.66,8.66,0,0,0,3-1.08h1.9V28.2h2.42v2.08h-7.77Z"/><path class="cls-2" d="M140.15,27.07a3.76,3.76,0,0,1,2.22-3.37v-.09a3.65,3.65,0,0,1-1.7-3.07c0-2.08,1.64-3.41,3.89-3.4s3.76,1.38,3.75,3.44a3.74,3.74,0,0,1-1.66,3v.09a3.73,3.73,0,0,1,2.16,3.46c0,2-1.73,3.45-4.35,3.45C142,30.53,140.15,29.09,140.15,27.07Zm6.27-.08c0-1.35-1.18-1.91-2.86-2.59a3.1,3.1,0,0,0-1.19,2.39,2,2,0,0,0,2.16,1.92A1.68,1.68,0,0,0,146.42,27Zm-.2-6.25a1.66,1.66,0,0,0-1.71-1.81,1.51,1.51,0,0,0-1.57,1.61c0,1.22,1,1.82,2.35,2.36A3.09,3.09,0,0,0,146.22,20.74Z"/><path class="cls-2" d="M150.74,23.78c0-4.47,1.75-6.65,4.39-6.65s4.37,2.21,4.36,6.66-1.76,6.76-4.38,6.75S150.73,28.23,150.74,23.78Zm6.32,0c0-3.62-.83-4.67-1.93-4.67s-2,1.05-2,4.66.83,4.76,2,4.76S157.06,27.42,157.06,23.79Z"/><path class="cls-2" d="M37.62,28.07a1.18,1.18,0,1,0,0,2.35,1.17,1.17,0,0,0,1.18-1.17A1.18,1.18,0,0,0,37.62,28.07Zm0,2.22a1,1,0,1,1,1-1A1,1,0,0,1,37.62,30.29Z"/><path class="cls-2" d="M38,29.12a.37.37,0,0,0,.1-.26.4.4,0,0,0-.13-.3.54.54,0,0,0-.35-.1h-.44V30h.18V29.3h.2L38,30h.23l-.5-.75A.44.44,0,0,0,38,29.12Zm-.64,0v-.54h.23c.21,0,.32.09.32.26a.25.25,0,0,1-.09.2.34.34,0,0,1-.23.08Z"/><path class="cls-2" d="M21.8,27.49a2.31,2.31,0,0,0,2.31-2.41c0-1.26-1.25-2.27-2.31-2.88-1.06.61-2.31,1.61-2.31,2.88A2.33,2.33,0,0,0,21.8,27.49Z"/><path class="cls-2" d="M31.2,27.48a2.33,2.33,0,0,0,2.31-2.41c0-1.27-1.25-2.28-2.31-2.88-1.06.6-2.31,1.61-2.31,2.87A2.33,2.33,0,0,0,31.2,27.48Z"/><path class="cls-2" d="M17.08,19.88A10.71,10.71,0,0,1,21.83,21a10.59,10.59,0,0,1,9.3,0,10.81,10.81,0,0,1,4.76-1.07V18L17.08,18Z"/><path class="cls-2" d="M34.59,25.1a3.5,3.5,0,0,1-3.47,3.46,3.46,3.46,0,0,1-3.4-3.47A4.37,4.37,0,0,1,30,21.65,9,9,0,0,0,26.48,21a8.9,8.9,0,0,0-3.47.68,4.36,4.36,0,0,1,2.22,3.45,3.43,3.43,0,0,1-3.41,3.45,3.5,3.5,0,0,1-3.48-3.46,4.44,4.44,0,0,1,2.32-3.44A9.71,9.71,0,0,0,17.08,21l0,9.3,18.82,0V21a9.7,9.7,0,0,0-3.58.67A4.45,4.45,0,0,1,34.59,25.1Z"/><path class="cls-2" d="M27.57,34.35v1h-.35v-.64H23.85v.64h-.34v-1h.7a4.94,4.94,0,0,0-.4-.57l.31-.14a3.08,3.08,0,0,1,.46.64l-.15.07h1a4.52,4.52,0,0,0-.36-.68l.32-.1a2.8,2.8,0,0,1,.38.69l-.24.09h.9a4.52,4.52,0,0,0,.5-.73l.38.12a5.87,5.87,0,0,1-.48.61Zm-1.93,1.83c-.05.14-.1.28-.15.4h1.73v1.5h-.36V37.9H24.24v.19H23.9V36.58h1.23c0-.12.08-.27.11-.4h-1V35h2.6v1.14Zm1.22.72H24.24v.67h2.62Zm-2.28-1h1.9v-.57h-1.9Z"/><path class="cls-2" d="M31,36.91a4.46,4.46,0,0,0,1.77.78,1.15,1.15,0,0,0-.25.33,4.7,4.7,0,0,1-1.86-1v1.08h-.36V37a4.92,4.92,0,0,1-1.84,1,1.72,1.72,0,0,0-.24-.31,4.73,4.73,0,0,0,1.75-.78H28.31V36.6h2v-.37H28.78V36h1.48v-.36H28.53v-.3h1.08a2.06,2.06,0,0,0-.25-.49l.18,0H28.33v-.32h.79a3.93,3.93,0,0,0-.39-.71l.31-.11a3.75,3.75,0,0,1,.42.73l-.25.09h.6v-.87h.34v.87h.59v-.87h.35v.87h.6l-.19,0a5.39,5.39,0,0,0,.38-.76l.37.1a4.59,4.59,0,0,1-.43.71h.77v.32h-1c-.1.19-.21.38-.31.53h1.12v.3H30.62V36h1.55v.28H30.62v.37h2v.31Zm-1.23-2.15a1.9,1.9,0,0,1,.25.49l-.16,0H31l-.05,0a3.48,3.48,0,0,0,.26-.51Z"/><path class="cls-2" d="M34.72,37.12H33.65v.4h-.33V33.9h1.4Zm-1.07-2.89v1.09h.72V34.23Zm.72,2.56V35.64h-.72v1.15ZM37,35.44V36h.57v.32H37v1.33c0,.2,0,.31-.2.37a3.11,3.11,0,0,1-.8,0,1.74,1.74,0,0,0-.12-.34h.66c.08,0,.11,0,.11-.1V36.32H34.82V36h1.87v-.56h-1.9v-.33H36v-.63H35v-.32h1v-.59h.36v.59h1.07v.32H36.39v.63h1.28v.33Zm-1.62,1.05a3.82,3.82,0,0,1,.64.84l-.31.2a4.11,4.11,0,0,0-.63-.87Z"/><path class="cls-2" d="M38.69,35.47v2.62h-.37V33.78H40.1v1.69Zm0-1.4v.41h1.06v-.41Zm1.06,1.12v-.44H38.69v.44Zm0,2.44v.24h-.33v-2h1.83v1.79Zm0-1.51v.46H40.9v-.46Zm1.16,1.21v-.47H39.74v.47Zm1.47.27c0,.23,0,.35-.22.42a3.15,3.15,0,0,1-.83.06,1.39,1.39,0,0,0-.12-.38c.3,0,.6,0,.69,0s.11,0,.11-.12V35.47H40.54V33.78h1.83ZM40.9,34.07v.41H42v-.41ZM42,35.19v-.44H40.9v.44Z"/><path class="cls-2" d="M44.34,37.33h.81v-2.7h-.64v-.29a2.19,2.19,0,0,0,.75-.26h.34v3.25h.73v.37h-2Z"/><path class="cls-2" d="M46.89,35.88c0-1.26.44-1.86,1.13-1.86s1.13.61,1.13,1.86-.44,1.89-1.13,1.89S46.89,37.14,46.89,35.88Zm1.82,0c0-1.06-.28-1.5-.69-1.5s-.69.44-.69,1.5.28,1.53.69,1.53S48.71,37,48.71,35.88Z"/><path class="cls-2" d="M51.49,34.65a.38.38,0,0,1,.75,0,.38.38,0,0,1-.75,0Zm0,2.42a.38.38,0,1,1,.37.37A.37.37,0,0,1,51.49,37.07Z"/><path class="cls-2" d="M54.58,35.88c0-1.26.44-1.86,1.13-1.86s1.12.61,1.12,1.86-.44,1.89-1.12,1.89S54.58,37.14,54.58,35.88Zm1.81,0c0-1.06-.27-1.5-.68-1.5s-.69.44-.69,1.5.27,1.53.69,1.53S56.39,37,56.39,35.88Z"/><path class="cls-2" d="M57.32,35.88c0-1.26.44-1.86,1.13-1.86s1.13.61,1.13,1.86-.44,1.89-1.13,1.89S57.32,37.14,57.32,35.88Zm1.82,0c0-1.06-.28-1.5-.69-1.5s-.69.44-.69,1.5.27,1.53.69,1.53S59.14,37,59.14,35.88Z"/><path class="cls-2" d="M64.08,35.68V36H60.5v-.34Z"/><path class="cls-2" d="M65.19,37.33H66v-2.7h-.64v-.29a2.19,2.19,0,0,0,.75-.26h.34v3.25h.73v.37h-2Z"/><path class="cls-2" d="M68,37.12a.8.8,0,0,0,.6.27c.47,0,.88-.38.91-1.51a1.13,1.13,0,0,1-.83.45c-.61,0-1-.39-1-1.14a1.08,1.08,0,0,1,1-1.17c.69,0,1.21.57,1.21,1.72,0,1.47-.63,2-1.31,2a1.16,1.16,0,0,1-.87-.37Zm1.51-1.61c0-.74-.33-1.14-.79-1.14s-.62.33-.62.82.22.81.65.81A1,1,0,0,0,69.55,35.51Z"/><path class="cls-2" d="M72.34,34.65a.38.38,0,0,1,.75,0,.38.38,0,0,1-.75,0Zm0,2.42a.38.38,0,1,1,.37.37A.37.37,0,0,1,72.34,37.07Z"/><path class="cls-2" d="M75.43,35.88c0-1.26.44-1.86,1.13-1.86s1.12.61,1.12,1.86-.44,1.89-1.12,1.89S75.43,37.14,75.43,35.88Zm1.81,0c0-1.06-.27-1.5-.68-1.5s-.69.44-.69,1.5.27,1.53.69,1.53S77.24,37,77.24,35.88Z"/><path class="cls-2" d="M78.17,35.88c0-1.26.44-1.86,1.13-1.86s1.13.61,1.13,1.86S80,37.77,79.3,37.77,78.17,37.14,78.17,35.88Zm1.82,0c0-1.06-.28-1.5-.69-1.5s-.69.44-.69,1.5.27,1.53.69,1.53S80,37,80,35.88Z"/><path class="cls-2" d="M84.18,33.53h1.26v.26h-.91v4.08h.91v.26H84.18Z"/><path class="cls-2" d="M88.25,35.23a2.82,2.82,0,0,0,2,2.52,1.61,1.61,0,0,0-.24.34,3.12,3.12,0,0,1-2-2.15,3.09,3.09,0,0,1-1.93,2.15,2.27,2.27,0,0,0-.25-.31,2.86,2.86,0,0,0,2-2.55V33.64h.39ZM87,34.64a2.26,2.26,0,0,1-.69,1.52L86,36a2,2,0,0,0,.65-1.38Zm3.11.08a11.36,11.36,0,0,1-.81,1.36l-.3-.14a7.8,7.8,0,0,0,.71-1.38Z"/><path class="cls-2" d="M93,35.3a.52.52,0,0,1,.52.53.52.52,0,1,1-1,0A.52.52,0,0,1,93,35.3Z"/><path class="cls-2" d="M97.52,34.91A4.13,4.13,0,0,1,96,37.61a1.65,1.65,0,0,0-.29-.3,3.37,3.37,0,0,0,1.4-2.11H95.78v-.37h1.49Zm2.55-.3a12.32,12.32,0,0,1-1.34,1.28,3.38,3.38,0,0,0,1.54,1.48,1.4,1.4,0,0,0-.27.33,3.94,3.94,0,0,1-1.84-2.26v2.12c0,.26-.07.38-.23.45a3.11,3.11,0,0,1-.91.08,1.36,1.36,0,0,0-.15-.41c.36,0,.67,0,.77,0s.14,0,.14-.14v-4h.38v.89a6.25,6.25,0,0,0,.41,1.12,9,9,0,0,0,1.17-1.23Z"/><path class="cls-2" d="M105.16,37.9h-2.28v.15h-.34V36.3a2.57,2.57,0,0,1-.33.33l-.12-.14v.64h-.94v.41h-.32V33.89h1.26V36.3a3.33,3.33,0,0,0,.73-1h-.53V35h.92v-.36h-.83v-.25h.83V34h-.91v-.27h1.23v1.51h-.46l.12,0a3.13,3.13,0,0,1-.19.36h.71c.06-.13.11-.28.15-.39h-.13V35h.94v-.36h-.87v-.25h.87V34h-.93v-.27H105v1.51H104l.19,0-.18.35h1v.29H104v.38h1v.25h-1V37h1v.26h-1v.41h1.19Zm-4-3.69v1.11h.61V34.21Zm.61,2.6V35.64h-.61v1.17Zm1.88-.87h-.76v.38h.76Zm0,.63h-.76V37h.76Zm-.76,1h.76v-.41h-.76Z"/><path class="cls-2" d="M108,37.59a4.12,4.12,0,0,0,.8.06h1.27A.92.92,0,0,0,110,38H108.8c-1,0-1.75-.18-2.2-1a2.74,2.74,0,0,1-.74,1.1,1.86,1.86,0,0,0-.3-.24,2.87,2.87,0,0,0,.92-2l.38,0a6.45,6.45,0,0,1-.12.66,1.46,1.46,0,0,0,.91,1V35.42h-1.23v-.34h2.86v.34H108v.82h1.47v.34H108Zm-1.87-2.38h-.36V34.14h1.85v-.56H108v.56h1.87v1.07h-.37v-.73h-3.37Z"/><path class="cls-2" d="M112.13,33.72a7.49,7.49,0,0,1-.53,1.06v3.29h-.36V35.3a5.51,5.51,0,0,1-.59.66,1.57,1.57,0,0,0-.22-.37,5.14,5.14,0,0,0,1.34-2Zm1.66,1.46a5.32,5.32,0,0,0,1.34,2,1.24,1.24,0,0,0-.27.29,5.9,5.9,0,0,1-1.28-2v2.61h-.36V35.58a5.38,5.38,0,0,1-1.29,1.9,2.47,2.47,0,0,0-.28-.28,4.91,4.91,0,0,0,1.37-2h-1.19v-.36h1.39V33.64h.36v1.18H115v.36Z"/><path class="cls-2" d="M118.68,35.83a3.28,3.28,0,0,1,1-2.35l.29.15a3.11,3.11,0,0,0,0,4.4l-.29.15A3.3,3.3,0,0,1,118.68,35.83Z"/><path class="cls-2" d="M122.15,36.63a7.62,7.62,0,0,0-.59-.64v2.09h-.36v-1.9a4.27,4.27,0,0,1-.71.6,1.74,1.74,0,0,0-.18-.33,4.33,4.33,0,0,0,1.46-1.62h-1.29v-.34h.72v-.91h.36v.91H122l.2.13a4.91,4.91,0,0,1-.58,1c.21.18.62.56.73.68Zm2.4,1.11c.12,0,.14-.1.15-.71a1,1,0,0,0,.31.14c0,.69-.11.88-.42.88h-.43c-.34,0-.42-.11-.42-.48V35.81h-.48c-.05,1.1-.22,1.85-1.07,2.29a1.13,1.13,0,0,0-.24-.3c.78-.36.91-1,1-2h-.48V33.9h2.31v1.91h-.64v1.76c0,.15,0,.17.13.17Zm-1.78-2.26h1.6V34.23h-1.6Z"/><path class="cls-2" d="M129.23,33.91V38h-.39V37.7h-2.45V38H126V33.91Zm-2.84.36v1.34h2.45V34.27Zm2.45,3.07V36h-2.45v1.37Z"/><path class="cls-2" d="M131.35,34a2.62,2.62,0,0,0-.09.33,13,13,0,0,0-.24,2,3.67,3.67,0,0,0,0,.66c.08-.22.19-.51.27-.71l.21.17a9.18,9.18,0,0,0-.34,1.08.83.83,0,0,0,0,.22,1,1,0,0,0,0,.16l-.36,0a6.38,6.38,0,0,1-.18-1.55,15.11,15.11,0,0,1,.22-2.05,2.16,2.16,0,0,0,0-.35Zm3.18,3.56a3.44,3.44,0,0,0-.74-.56V37a.74.74,0,0,1-.85.8c-.65,0-1-.27-1-.71s.36-.74,1-.74a2.19,2.19,0,0,1,.46,0c0-.37,0-.84,0-1.25h-.47c-.28,0-.53,0-.82,0v-.37a7.56,7.56,0,0,0,.83,0h.46v-.61a1.43,1.43,0,0,0,0-.29h.45l0,.29c0,.13,0,.36,0,.59a5.31,5.31,0,0,0,.84-.12v.39c-.26,0-.55.07-.84.09,0,.49,0,1,.06,1.39a3.42,3.42,0,0,1,1,.64Zm-1.13-.73a1.59,1.59,0,0,0-.5-.08c-.36,0-.61.16-.61.39s.23.38.58.38.54-.2.54-.53A1,1,0,0,0,133.4,36.78Z"/><path class="cls-2" d="M136.83,33.91c-.15.41-.32.91-.49,1.3a1.52,1.52,0,0,1,.44,1.06.68.68,0,0,1-.19.56.54.54,0,0,1-.26.09H136a.71.71,0,0,0-.09-.33,1.48,1.48,0,0,0,.29,0,.33.33,0,0,0,.15,0,.42.42,0,0,0,.1-.34,1.39,1.39,0,0,0-.44-1c.15-.36.29-.8.39-1.13h-.64v4h-.33v-4.3h1.17Zm.76,2.68a3.52,3.52,0,0,1-.72,1.18,1.94,1.94,0,0,0-.27-.21,2.69,2.69,0,0,0,.66-1.05Zm.75-3A4.6,4.6,0,0,0,139.8,35a2,2,0,0,0-.21.3,5,5,0,0,1-1.39-1.33,4.67,4.67,0,0,1-1.37,1.36,1.81,1.81,0,0,0-.19-.29,4.1,4.1,0,0,0,1.38-1.4Zm0,2.66v1.42c0,.19,0,.29-.16.35a2,2,0,0,1-.64.06,1.16,1.16,0,0,0-.12-.34h.5c.06,0,.08,0,.08-.07V36.25h-1.09v-.32H138v-.61h-.76V35h1.9v.32h-.8v.61h1.18v.32Zm.65.25a6,6,0,0,1,.69,1.09l-.3.16a6.72,6.72,0,0,0-.67-1.12Z"/><path class="cls-2" d="M143.43,34.07c-.11.08-.26.21-.34.28-.34.29-1,.86-1.4,1.15s-.3.33,0,.59,1.35,1.11,1.83,1.58l-.36.33c-.1-.12-.23-.25-.34-.36-.26-.29-1.08-1-1.54-1.36s-.41-.61,0-1,1.1-.89,1.44-1.23a2.67,2.67,0,0,0,.28-.32Z"/><path class="cls-2" d="M146.4,35.83a3.29,3.29,0,0,1-1,2.35l-.3-.15a3.09,3.09,0,0,0,0-4.4l.3-.15A3.27,3.27,0,0,1,146.4,35.83Z"/><path class="cls-2" d="M151.26,38.13H150v-.26h.92V33.79H150v-.26h1.26Z"/><path class="cls-2" d="M4.34,12.84c0,.71.18,1.22,1.38,1.22a5.6,5.6,0,0,0,1.44-.21c.15,0,.36.08.36.23s0,.18-.24.24a5,5,0,0,1-1.47.17c-1.44,0-1.82-.67-1.6-1.64Zm.68-1,.77-.52s0-.06,0-.06a1.42,1.42,0,0,1-1.36-.52l.07-.09a1.61,1.61,0,0,0,1,.29,6.31,6.31,0,0,0,1-.12c.22,0,.54.12.54.27s-.07.16-.22.19a3.14,3.14,0,0,0-.58.14,12.76,12.76,0,0,0-1.18.52ZM7,10.29a2,2,0,0,1,.65.35.4.4,0,0,1,.17.33.13.13,0,0,1-.14.15c-.09,0-.15-.11-.25-.25a2.48,2.48,0,0,0-.49-.49ZM7.44,10a2.13,2.13,0,0,1,.64.3.43.43,0,0,1,.19.33c0,.11,0,.16-.13.16s-.16-.11-.27-.25a2.34,2.34,0,0,0-.5-.45Z"/><path class="cls-2" d="M13.58,12.11a.39.39,0,0,1-.23.07A6.74,6.74,0,0,1,12,13.26l-.06,0a6.61,6.61,0,0,0,.81-1.13H11.27v2.14c0,.33-.1.56-.74.61a.38.38,0,0,0-.16-.31,1.46,1.46,0,0,0-.61-.18v-.07l.92.05c.1,0,.14,0,.14-.12V12.08H8.6l0-.15h2.74a3.24,3.24,0,0,0-1.29-1l0-.07a3.47,3.47,0,0,1,1.1.32,9.55,9.55,0,0,0,1-.72H9.22l0-.16h3l.29-.27.47.45a.41.41,0,0,1-.24.06,8.4,8.4,0,0,1-1.5.7c.45.29.47.61.32.73h1.25l.29-.28Z"/><path class="cls-2" d="M13.92,14.32a5.85,5.85,0,0,0,.39-1.5l.55.15c0,.06-.08.1-.2.11A3.36,3.36,0,0,1,14,14.36Zm1.53-2.72c1.12.52.76,1.31.39,1a1.76,1.76,0,0,0-.13-.41l-.41.1v2.41s-.13.13-.33.13H14.9V12.38l-.66.14a.17.17,0,0,1-.14.11L14,12.17l.61,0a11.11,11.11,0,0,0,.89-1.65l.58.23c0,.06-.1.1-.21.08a8.77,8.77,0,0,1-1.08,1.33l.9-.06a2.88,2.88,0,0,0-.26-.43Zm0-1.54c0,.06-.09.11-.21.1a4.42,4.42,0,0,1-.62.79c.46.34.22.77-.07.57a1.72,1.72,0,0,0-.54-.76l.05,0a1.54,1.54,0,0,1,.43.16,9.45,9.45,0,0,0,.36-1Zm0,2.73c1.05.62.65,1.41.28,1.07a2.89,2.89,0,0,0-.34-1Zm3.42-1.66a.35.35,0,0,1-.23.09c-.05,1.78-.17,3-.45,3.33a.94.94,0,0,1-.72.26.38.38,0,0,0-.11-.32,1.93,1.93,0,0,0-.64-.2v-.08c.29,0,.76.07.9.07a.26.26,0,0,0,.22-.08,8.25,8.25,0,0,0,.37-3H16.71a4.08,4.08,0,0,1-.61.87L16,12a7.47,7.47,0,0,0,.68-2.11l.63.19a.2.2,0,0,1-.2.11,6.86,6.86,0,0,1-.34.83h1.43l.25-.27Zm-2.23.74c1.28.6.88,1.55.46,1.18a2.33,2.33,0,0,0-.52-1.14Z"/><path class="cls-2" d="M20.51,12.87a.53.53,0,1,1,.52-.53A.53.53,0,0,1,20.51,12.87Z"/><path class="cls-2" d="M24.1,12.7a3.18,3.18,0,0,1,1.46-.39,1,1,0,0,1,1.11,1,1,1,0,0,1-1.12,1,1.22,1.22,0,0,1-1-.6l.09-.08a1.21,1.21,0,0,0,.84.32.74.74,0,0,0,.81-.76c0-.39-.24-.71-.82-.71a2.91,2.91,0,0,0-1.33.46c0,.75.09.94.09,1.14s-.17.53-.35.53-.15-.18-.32-.34a4.6,4.6,0,0,0-.55-.43c-.16.16-.23.23-.31.23a.29.29,0,0,1-.19-.11.35.35,0,0,1-.12-.26c0-.15,0-.19.17-.18a.44.44,0,0,0,.32-.07c.18-.11.6-.43,1-.64v-1a3.54,3.54,0,0,1-.59.09c-.29,0-.52-.07-.73-.59l.09-.06c.27.26.36.31.63.3a2.42,2.42,0,0,0,.6-.1v-.85c0-.14,0-.16-.12-.19a1.16,1.16,0,0,0-.35,0l0-.1a.77.77,0,0,1,.42-.13c.22,0,.59.18.59.32s-.08.22-.12.39a3.33,3.33,0,0,0-.07.49c.38-.15.55-.31.65-.31s.3,0,.3.17a.25.25,0,0,1-.18.22,5.46,5.46,0,0,1-.79.3c0,.24,0,.48,0,.71Zm-.28.45a9.09,9.09,0,0,0-.74.63l.58.27c.12,0,.16,0,.16-.11Zm1.64-2.25a1.51,1.51,0,0,1,.73-.05,1,1,0,0,1,.85.8c0,.12-.05.23-.18.24s-.19-.13-.36-.11a2.76,2.76,0,0,0-.43.15L26,11.85a4,4,0,0,0,.43-.3.14.14,0,0,0,0-.21,1.09,1.09,0,0,0-1-.32Z"/><path class="cls-2" d="M28.18,11.72v2.94c0,.06-.14.16-.34.16h-.07V10l.44.21h1l.22-.23.44.35a.34.34,0,0,1-.2.1v1.49a.59.59,0,0,1-.34.12h-.07v-.31Zm0-1.36v.51h1.06v-.51Zm1.06,1.21V11H28.18v.54Zm1.92,1a.37.37,0,0,1-.2.1V14a.61.61,0,0,1-.34.13h-.07v-.32H29.34v.28a.51.51,0,0,1-.36.13h-.06V12.29l.44.19H30.5l.21-.23Zm-.61,1v-1H29.34v1Zm1.85-3.3a.32.32,0,0,1-.22.1v3.83c0,.31-.07.49-.62.54,0-.12,0-.22-.12-.27a.74.74,0,0,0-.43-.15V14.3l.62,0c.1,0,.13,0,.13-.13V11.72H30.65v.14s-.17.13-.35.13h-.05V10l.43.18h1l.21-.25Zm-1.75,0v.51h1.11v-.51Zm1.11,1.21V11H30.65v.54Z"/><path class="cls-2" d="M33.66,11.48c0-.3-.06-.45-.42-.72l0-.07a1.17,1.17,0,0,1,.38.08c.22.09.52.35.52.59A6.8,6.8,0,0,0,34,12.52a1.15,1.15,0,0,0,.51,1.07.14.14,0,0,0,.19-.05,6.71,6.71,0,0,0,.53-1l.13.06a9.23,9.23,0,0,0-.3,1c0,.27,0,.29,0,.42s-.17.27-.43.17a1.73,1.73,0,0,1-1-1.65C33.63,12.16,33.66,11.76,33.66,11.48Zm2.53-.16,0-.12a1.68,1.68,0,0,1,1.08.53,1.84,1.84,0,0,1,.47,1.2c0,.25-.09.37-.26.37a.2.2,0,0,1-.2-.19A3.55,3.55,0,0,0,37,12.05,1.52,1.52,0,0,0,36.19,11.32Z"/><path class="cls-2" d="M41.23,10c0,.07-.09.1-.23.11a5,5,0,0,0,2.31,1.54v.07a.49.49,0,0,0-.37.38,4.43,4.43,0,0,1-2-1.92,6.24,6.24,0,0,1-2.61,2.11l0-.07a5.76,5.76,0,0,0,2.26-2.39Zm.86,2.57.5.39a.45.45,0,0,1-.23.11v1.59a.74.74,0,0,1-.38.13h-.07v-.37H39.66v.27s-.2.14-.38.14h-.07V12.61l.48.21h2.16Zm-.52-1.09s.32.25.52.43c0,.06-.07.08-.15.08H39.55l0-.15h1.77Zm.34,2.78V13H39.66v1.27Z"/><path class="cls-2" d="M45.45,12A3,3,0,0,1,47,11.47a1.3,1.3,0,0,1,1.37,1.25c0,.79-.56,1.48-2.06,1.82l0-.12c1.36-.52,1.64-1.22,1.64-1.82a.91.91,0,0,0-1-.93,2.53,2.53,0,0,0-1.53.63,10.36,10.36,0,0,0,.06,1.49c0,.16,0,.26,0,.39s-.09.49-.26.49-.18-.07-.21-.2a1.64,1.64,0,0,0-.1-.38,3.63,3.63,0,0,0-.36-.61c-.1.16-.2.3-.29.43s-.13.19-.22.19-.18-.09-.18-.22a.4.4,0,0,1,.13-.3,13.19,13.19,0,0,0,1.16-1.51c0-.13,0-.26,0-.38l-.47.27c-.11.07-.16.18-.26.18a.62.62,0,0,1-.47-.41,1,1,0,0,1,0-.24l.09,0c.08.15.16.24.26.24a4.53,4.53,0,0,0,.91-.36c0-.36.08-.65.08-.81a.16.16,0,0,0-.13-.18,1.3,1.3,0,0,0-.31-.09v-.11a1,1,0,0,1,.36-.07c.25,0,.54.25.54.43a2.84,2.84,0,0,1-.11.38,3.12,3.12,0,0,0-.1.36h0c.1.05.22.16.22.23s-.05.12-.13.2-.15.17-.23.28Zm-.31,1.78c0-.24,0-.68,0-1.13l-.48.72.39.45C45.1,13.88,45.13,13.87,45.14,13.78Z"/><path class="cls-2" d="M51.71,10.33a1,1,0,0,1,.37-.11c.28,0,.62.23.62.39s-.11.14-.12.33,0,.35,0,.58a5.75,5.75,0,0,1,.81-.14c.24,0,.47.1.47.29s-.09.17-.25.17a5.31,5.31,0,0,0-.83,0l-.22,0a6.21,6.21,0,0,1-.11,1.08c-.05.25-.19.42-.41.42a.2.2,0,0,1-.2-.14c-.08-.17-.32-.28-.54-.38l0-.11a3.43,3.43,0,0,0,.61.14.17.17,0,0,0,.19-.14,7.19,7.19,0,0,0,.07-.82c-.51.09-1.09.23-1.48.34,0,.47,0,1,0,1.22,0,.54.12.62.81.62a7.93,7.93,0,0,0,1.26-.15c.2,0,.37.08.37.24s-.07.17-.25.21a5.82,5.82,0,0,1-1.23.09c-.81,0-1.26-.16-1.29-.8,0-.3,0-.81,0-1.31a9.62,9.62,0,0,1-1,.35c-.16,0-.37-.2-.46-.4a.74.74,0,0,1,0-.31L49,12c.09.14.23.28.36.28a9.93,9.93,0,0,0,1-.22c0-.37,0-.69,0-.86s0-.19-.13-.22a1,1,0,0,0-.32-.06v-.11a1.17,1.17,0,0,1,.39-.09c.24,0,.6.21.6.36s-.09.13-.12.34,0,.31,0,.54l1.48-.35c0-.31,0-.73,0-.95s0-.13-.14-.16l-.32,0Z"/><path class="cls-2" d="M55.93,12.46c-.11.29-.32.88-.39,1.08a1.7,1.7,0,0,0-.08.38c0,.17.08.35.08.49s-.06.21-.19.21-.2-.09-.28-.22a2.46,2.46,0,0,1-.32-1.29,5.73,5.73,0,0,1,.25-1.5,3.06,3.06,0,0,0,.14-.65,1,1,0,0,0-.31-.6l.08-.07a.9.9,0,0,1,.32.17,1,1,0,0,1,.39.63c0,.12-.08.22-.21.52A3.6,3.6,0,0,0,55,13.05a.94.94,0,0,0,.09.49c0,.07.08.08.13,0s.41-.86.54-1.14Zm2.15-.65c0,.54,0,1,.07,1.43a2.11,2.11,0,0,1,.9.49.46.46,0,0,1,.17.32c0,.13-.06.2-.17.2s-.16-.07-.28-.18a2,2,0,0,0-.59-.43.49.49,0,0,1,0,.12c0,.44-.28.73-1,.73-.48,0-.88-.23-.88-.65s.5-.69,1.09-.69a2,2,0,0,1,.35,0c0-.38,0-.92,0-1.36a4,4,0,0,1-.59,0,.88.88,0,0,1-.86-.54l.08-.07a1.21,1.21,0,0,0,.75.27,3,3,0,0,0,.62-.06v-.67c0-.15,0-.17-.11-.2a2,2,0,0,0-.38-.07l0-.1a1.13,1.13,0,0,1,.43-.13c.27,0,.56.16.56.29s0,.15-.08.38a3.47,3.47,0,0,0,0,.42l.24-.08c.28-.1.37-.17.42-.17s.32.07.32.2-.08.17-.28.24a5.11,5.11,0,0,1-.71.19Zm-.28,1.68a2.38,2.38,0,0,0-.56-.07c-.32,0-.67.14-.67.39s.24.33.55.33c.57,0,.68-.21.68-.63Z"/><path class="cls-2" d="M60.35,9.83H62V10H60.55v3.3h-.2Z"/><path class="cls-2" d="M63.2,11.07a.86.86,0,0,0,.55.26,8.93,8.93,0,0,0,1.2-.12,2.7,2.7,0,0,0,.89-.27c.22,0,.58.15.58.28s-.06.17-.23.2l-1.35.14c.18.08.33.18.33.29s-.08.19-.1.35-.06.68-.09,1.06l1.11-.08a2.12,2.12,0,0,0,.39-.07c.24,0,.7.22.7.42a.17.17,0,0,1-.19.18,10.78,10.78,0,0,0-1.17-.16,9.82,9.82,0,0,0-2.25.22,3.2,3.2,0,0,1-.48.14c-.17,0-.44-.26-.5-.39a.66.66,0,0,1-.07-.32l.09,0a.61.61,0,0,0,.46.27c.18,0,.82-.06,1.52-.13,0-.39,0-.94,0-1.2a.73.73,0,0,0-.16-.5,6.59,6.59,0,0,1-.78.11.53.53,0,0,1-.35-.21,1.28,1.28,0,0,1-.23-.38Z"/><path class="cls-2" d="M69.12,10.2a1.33,1.33,0,0,1,.34,0c.25,0,.57.22.57.32s-.07.15-.16.29a2.9,2.9,0,0,1-.19.29h.08a7.28,7.28,0,0,0,1-.12c.14,0,.2-.14.29-.14s.55.24.55.41-.19.16-.27.3a6.68,6.68,0,0,1-3.45,3.09l-.08-.11a7.13,7.13,0,0,0,3.08-3.2c0-.07,0-.09,0-.09a5.84,5.84,0,0,0-.81.13,1.28,1.28,0,0,1-.3.07.57.57,0,0,1-.24-.13,4.86,4.86,0,0,1-1.65,1.4l-.08-.1a4.76,4.76,0,0,0,1.63-2.05c0-.11-.15-.2-.33-.28Z"/><path class="cls-2" d="M74.94,12.78a5.22,5.22,0,0,0,.8-1c0-.06,0-.1-.07-.09-.29,0-1.07.31-1.54.47,0,.46,0,.94,0,1.26s.07.5.69.5a4.81,4.81,0,0,0,1.11-.13c.18,0,.42.07.42.23s-.11.17-.25.2a6.89,6.89,0,0,1-1.1.1c-.89,0-1.22-.06-1.22-.8,0-.35,0-.87,0-1.23l-.74.28c-.2.1-.23.19-.39.19a.94.94,0,0,1-.53-.41.66.66,0,0,1,0-.32l.08,0c.11.15.2.26.35.26a8.93,8.93,0,0,0,1.26-.32c0-.44,0-1,0-1.18s-.17-.17-.44-.22v-.1a1.32,1.32,0,0,1,.43-.09c.23,0,.59.21.59.35s-.11.2-.13.38,0,.42-.07.75l1.41-.4c.17-.05.22-.15.31-.15s.58.33.58.48-.18.15-.3.26a7,7,0,0,1-1.11.89Z"/><path class="cls-2" d="M77.37,10.81a1.12,1.12,0,0,1,.41-.12c.24,0,.62.27.62.41s-.12.18-.14.35-.06,1.69-.06,2.2c0,0,0,.07.06.06a8.61,8.61,0,0,0,3-2l.1.09a7.7,7.7,0,0,1-2.86,2.29c-.18.09-.19.22-.31.22s-.46-.33-.46-.47.09-.17.1-.36c0-.37,0-2,0-2.36,0-.12-.06-.19-.44-.27Z"/><path class="cls-2" d="M85.74,11.18l.12.08A8,8,0,0,1,83,14.07c-.13.08-.19.22-.32.22a1.09,1.09,0,0,1-.69-.44,1,1,0,0,1-.11-.4l.08,0c.15.17.33.35.51.35A8.14,8.14,0,0,0,85.74,11.18ZM82,10.67c.65.15,1.44.5,1.44,1a.23.23,0,0,1-.23.24c-.12,0-.2-.07-.34-.24a3.57,3.57,0,0,0-.93-.85Z"/><path class="cls-2" d="M86.6,10.34a1.7,1.7,0,0,1,.38-.09c.25,0,.65.22.65.36s-.11.16-.13.33,0,.62,0,.92a4.34,4.34,0,0,1,1.34.46.57.57,0,0,1,.33.46.21.21,0,0,1-.21.23c-.23,0-.28-.22-.63-.51a3.72,3.72,0,0,0-.83-.45v1.81c0,.25,0,.41,0,.5s-.06.26-.2.26-.32-.29-.32-.54,0-.23.07-.45c0-.4,0-1.24,0-1.63s0-1,0-1.31-.16-.22-.43-.25Z"/><path class="cls-2" d="M90.13,11.69l.05-.12a4.84,4.84,0,0,1,.72.2c.35.12.59.32.59.56a.18.18,0,0,1-.19.2c-.19,0-.29-.2-.56-.42A3.18,3.18,0,0,0,90.13,11.69Zm4.08-.33.12.08a7.85,7.85,0,0,1-3,2.75c-.13.07-.19.22-.34.22a1.11,1.11,0,0,1-.67-.42,1.18,1.18,0,0,1-.12-.41l.08-.05c.14.16.31.35.5.35A8,8,0,0,0,94.21,11.36Zm-3.37-.74.06-.12a6.09,6.09,0,0,1,.7.2c.36.16.58.34.58.57a.21.21,0,0,1-.2.21c-.18,0-.28-.22-.57-.45A3.45,3.45,0,0,0,90.84,10.62Z"/><path class="cls-2" d="M94.93,11.6c.12.14.22.27.36.27.37,0,1.81-.22,2.72-.3.38,0,.47-.1.55-.1.25,0,.57.13.57.31s0,.16-.17.16-.32,0-.6,0a10.75,10.75,0,0,0-1.12.06c.16.09.29.19.29.29s-.13.14-.21.33a3.63,3.63,0,0,1-1.89,2.12l-.1-.11a3.43,3.43,0,0,0,1.6-2.39.31.31,0,0,0-.08-.21c-.42.06-.89.15-1,.19a2.83,2.83,0,0,1-.47.13.69.69,0,0,1-.45-.39.8.8,0,0,1,0-.29Zm.8-1.15a.94.94,0,0,0,.55.19,4.75,4.75,0,0,0,1-.13c.3-.07.37-.16.48-.16.26,0,.46.09.46.25s-.06.14-.23.17a10.13,10.13,0,0,1-1.69.22c-.29,0-.45-.17-.63-.48Z"/><path class="cls-2" d="M100.84,11.31a1.23,1.23,0,0,1,.32,0c.19.07.42.27.42.4s-.09.11-.2.23-.35.37-.6.61c.12.09.22.16.22.23s0,.13,0,.24c0,.58,0,1.18,0,1.4s-.07.26-.19.26-.27-.21-.27-.39,0-.16,0-.3a9.13,9.13,0,0,0,0-1.08.71.71,0,0,0,0-.17,5.55,5.55,0,0,1-1.6,1l0-.09a5.69,5.69,0,0,0,2.14-2c0-.09-.13-.17-.24-.23Z"/><path class="cls-2" d="M104.36,11.3s-.09.08-.22.06a6.66,6.66,0,0,1-.47.56l.18.07a.22.22,0,0,1-.16.1V14.7a.48.48,0,0,1-.35.13h-.08V12.32a5.45,5.45,0,0,1-.85.67l-.06-.06A7.83,7.83,0,0,0,103.77,11Zm-.08-1.11c0,.05-.09.07-.21.05a6.28,6.28,0,0,1-1.56,1.2l-.05-.06a6.39,6.39,0,0,0,1.26-1.52Zm2.66,1.06s.32.25.51.42c0,.06-.07.09-.14.09h-.87v2.43c0,.33-.1.56-.73.61a.37.37,0,0,0-.16-.31,1.37,1.37,0,0,0-.62-.17v-.08l.92,0c.12,0,.15,0,.15-.12V11.76h-1.7l0-.16h2.42Zm-2.35-.73,0-.16h1.9l.28-.35s.31.25.49.42c0,.06-.07.09-.14.09Z"/><path class="cls-2" d="M109.47,11.23c0,.06-.08.09-.21.08a6.41,6.41,0,0,1-.38.6l.2.07s-.07.08-.15.1v2.6a.47.47,0,0,1-.35.15h-.08V12.39a4.64,4.64,0,0,1-.67.66l-.06-.06a7.38,7.38,0,0,0,1.09-2Zm0-1.07c0,.06-.09.08-.22.06a5.71,5.71,0,0,1-1.37,1.21l-.06-.06a6.28,6.28,0,0,0,1.08-1.52Zm.38,3.16a1.13,1.13,0,0,1-.21,1.06c-.1.11-.33.14-.41,0a.26.26,0,0,1,.13-.33,1.19,1.19,0,0,0,.4-.73Zm.11-.66v.21s-.13.11-.33.11h-.07V11.17l.46.19h.79v-.58h-1.4l0-.15h1.44V9.9l.63.06c0,.08-.06.13-.2.15v.52H112l.28-.36s.32.25.51.43c0,.06-.07.08-.14.08h-1.47v.58h.92l.19-.23.42.32a.3.3,0,0,1-.19.09V12.8a.49.49,0,0,1-.34.11h-.06v-.25Zm0-1.15v1h.49v-1Zm1.95,2.82c.12,0,.15.09.15.16s-.17.25-.9.25h-.48c-.4,0-.47-.09-.47-.36V13.14l.54.06c0,.06,0,.11-.14.13v1c0,.06,0,.08.16.08h.8c.06,0,.08,0,.1-.06a3.45,3.45,0,0,0,.16-.54h.07Zm-1.32-1.52c1.23.16,1,1,.59.78a1.63,1.63,0,0,0-.63-.73Zm.71-.3v-1h-.52v1Zm.34-1v1h.54v-1Zm.27,1.67c1.34.58,1,1.55.56,1.21a2.36,2.36,0,0,0-.63-1.17Z"/><path class="cls-2" d="M113.54,13.11c.38,1.55-.61,1.38-.32.93a1.5,1.5,0,0,0,.24-.93Zm2.21-.51a.27.27,0,0,1-.21.08c-.06,1.09-.2,1.62-.43,1.81a.74.74,0,0,1-.51.16.37.37,0,0,0-.07-.25.64.64,0,0,0-.34-.13v-.09l.5,0a.24.24,0,0,0,.18-.05,3.14,3.14,0,0,0,.3-1.52h-1.29v.17a.35.35,0,0,1-.31.13h-.06V10.06l.43.19h1.11l.25-.31s.28.22.46.38a.14.14,0,0,1-.14.08h-.9V11H115l.22-.27s.24.19.39.34c0,.06-.06.09-.13.09h-.8v.59h.3l.22-.28s.25.2.4.35c0,.06-.06.09-.14.09h-.78v.59h.41l.21-.22Zm-1.89.46c.55.68.21,1.28,0,1a2.66,2.66,0,0,0,0-1Zm0-2.66V11h.48V10.4Zm.48.74h-.48v.59h.48Zm-.48,1.34h.48v-.59h-.48Zm.3.49c.73.52.43,1.08.18.83a1.92,1.92,0,0,0-.25-.81Zm.33-.12c.79.23.56.8.29.61a1.17,1.17,0,0,0-.35-.57Zm2.27-.73a3.18,3.18,0,0,0,1.5,2.24v.06a.53.53,0,0,0-.36.4,3.69,3.69,0,0,1-1.23-2.7h-.3a3.41,3.41,0,0,1-1,2.71l-.08-.05a4.67,4.67,0,0,0,.7-2.9V10.07l.47.19h1l.22-.24.47.36a.35.35,0,0,1-.22.11v1.83s-.21.13-.35.13h-.06v-.33Zm-.4-.15h1.18V10.42h-1.18V12Z"/><path class="cls-2" d="M123.08,10.5s.34.26.54.44a.13.13,0,0,1-.14.09h-4.81l0-.16h1.73a.35.35,0,0,1-.13,0,1.87,1.87,0,0,0-.55-.91l.06-.05c1.07.27,1,1,.72,1h1a6.86,6.86,0,0,0,.48-1l.66.19c0,.06-.09.1-.2.1a7,7,0,0,1-.78.74h1.14Zm-2.46.84.49.38a.49.49,0,0,1-.23.11v2.46c0,.31-.06.49-.56.54a.42.42,0,0,0-.08-.29.57.57,0,0,0-.34-.14v-.08l.46,0c.08,0,.1,0,.1-.1v-.84h-.95v1.26c0,.05-.16.15-.34.15h-.07V11.4l.44.19h.86Zm-1.11.41v.65h.95v-.65Zm.95,1.51v-.7h-.95v.7Zm1.5.59s-.17.12-.33.12h-.07V11.5l.6.07c0,.07-.06.13-.2.14Zm.75-2.48.61.06c0,.07-.07.12-.2.14v2.69c0,.33-.07.51-.63.56a.41.41,0,0,0-.12-.28.91.91,0,0,0-.47-.15v-.08l.68,0c.1,0,.13,0,.13-.11Z"/><path class="cls-2" d="M125.65,14.85H124v-.19h1.47v-3.3h.21Z"/><path class="cls-2" d="M127.55,11.14c.34,0,2-.17,2.23-.22s.19-.12.3-.12.63.36.63.53-.17.19-.25.37a5.25,5.25,0,0,1-3.2,3l-.08-.12A5.29,5.29,0,0,0,130,11.3c0-.07,0-.08-.06-.08-.28,0-1.71.23-2,.3a1.84,1.84,0,0,1-.37.13c-.19,0-.45-.28-.51-.43a2.29,2.29,0,0,1,0-.33l.09,0C127.24,11,127.36,11.14,127.55,11.14Zm2.89-.67A.57.57,0,0,1,131,9.9a.58.58,0,1,1,0,1.15A.57.57,0,0,1,130.44,10.47Zm.19,0a.39.39,0,1,0,.77,0,.39.39,0,0,0-.77,0Z"/><path class="cls-2" d="M132.06,11a1.26,1.26,0,0,1,.68.27l0,0c.54,0,1.75-.14,2-.17s.23-.16.35-.16.58.34.58.5-.18.18-.22.34-.16.91-.28,1.47c.19,0,.34.1.34.22a.16.16,0,0,1-.18.18c-.14,0-.42,0-.69,0s-1.12,0-1.75.08v.18c0,.14,0,.23-.19.23s-.26-.17-.26-.4,0-.41,0-.63a9.82,9.82,0,0,0-.15-1.56.84.84,0,0,0-.31-.45Zm2.7,2.27a17.89,17.89,0,0,0,.22-1.78c0-.05,0-.07-.07-.07-.33,0-1.15.07-1.44.1s-.34.07-.44.07a.59.59,0,0,1-.23-.07c0,.37.06,1.35.07,1.88Z"/><path class="cls-2" d="M136.75,11.77l0-.11a4.91,4.91,0,0,1,.73.19c.34.13.59.33.59.57a.19.19,0,0,1-.19.2c-.2,0-.29-.21-.56-.42A3.25,3.25,0,0,0,136.75,11.77Zm4.08-.32.11.07A7.63,7.63,0,0,1,138,14.27c-.12.08-.18.23-.34.23a.88.88,0,0,1-.78-.84l.08-.05c.14.17.31.36.5.36A8.06,8.06,0,0,0,140.83,11.45Zm-3.37-.74,0-.12a4.36,4.36,0,0,1,.71.2c.36.15.57.33.57.57a.2.2,0,0,1-.19.21c-.18,0-.28-.22-.57-.46A2.86,2.86,0,0,0,137.46,10.71Zm2.67.34a2.48,2.48,0,0,0-.49-.52l.07-.09a1.85,1.85,0,0,1,.65.37.44.44,0,0,1,.18.32.15.15,0,0,1-.16.16C140.3,11.29,140.24,11.19,140.13,11.05Zm.55-.43a2.48,2.48,0,0,0-.49-.48l.06-.09a2.09,2.09,0,0,1,.64.32.45.45,0,0,1,.2.33c0,.1-.05.16-.14.16S140.79,10.75,140.68,10.62Z"/><path class="cls-2" d="M141.54,12a.66.66,0,0,0,.44.2,6.4,6.4,0,0,0,.9-.1,2.33,2.33,0,0,0,.66-.2c.19,0,.49.12.49.24s0,.16-.18.17l-1,.1c.14.06.25.14.25.24a1.8,1.8,0,0,1-.07.27c0,.17-.06.48-.08.76l.77-.06a2.91,2.91,0,0,0,.33-.07c.19,0,.57.2.57.36a.16.16,0,0,1-.17.16,8.64,8.64,0,0,0-1-.13,7.18,7.18,0,0,0-1.56.16,2.11,2.11,0,0,1-.41.12c-.14,0-.37-.22-.42-.33a.62.62,0,0,1,0-.26l.06,0a.51.51,0,0,0,.37.2c.16,0,.64,0,1.14-.09,0-.28,0-.66,0-.87a.64.64,0,0,0-.1-.39c-.28,0-.47.08-.58.08a.44.44,0,0,1-.3-.19,1.22,1.22,0,0,1-.16-.3Z"/><path class="cls-2" d="M146.4,10.2a1.33,1.33,0,0,1,.34,0c.26,0,.58.22.58.32s-.07.15-.16.29a3,3,0,0,1-.2.29h.09a7.13,7.13,0,0,0,1-.12c.15,0,.2-.14.3-.14s.54.24.54.41-.18.16-.27.3a6.68,6.68,0,0,1-3.45,3.09l-.08-.11a7.16,7.16,0,0,0,3.09-3.2c0-.07,0-.09-.06-.09a5.72,5.72,0,0,0-.8.13,1.56,1.56,0,0,1-.3.07.52.52,0,0,1-.24-.13,4.89,4.89,0,0,1-1.66,1.4l-.07-.1a4.71,4.71,0,0,0,1.62-2.05c0-.11-.14-.2-.32-.28Z"/><path class="cls-2" d="M149.79,10.34a1.59,1.59,0,0,1,.38-.09c.24,0,.64.22.64.36s-.1.16-.12.33a6.63,6.63,0,0,0-.05.92,4.53,4.53,0,0,1,1.34.46.59.59,0,0,1,.33.46.22.22,0,0,1-.22.23c-.22,0-.27-.22-.62-.51a4,4,0,0,0-.83-.45c0,.42,0,1.26,0,1.81,0,.25,0,.41,0,.5s-.05.26-.2.26-.31-.29-.31-.54.05-.23.07-.45c0-.4,0-1.24,0-1.63a12.67,12.67,0,0,0,0-1.31c0-.17-.15-.22-.42-.25Z"/><path class="cls-2" d="M153,10.58c1.11.09.83.86.43.64a1.4,1.4,0,0,0-.48-.6Zm4.43,2.54s.34.26.55.45a.15.15,0,0,1-.15.08h-2.12v1c0,.05-.2.13-.36.13h-.08V13.65h-2.2l-.05-.16h2.25V13A.54.54,0,0,1,155,13h-.07V11.18a3.24,3.24,0,0,1-.61.52l-.07-.07a4.41,4.41,0,0,0,1-1.81l.6.23c0,.06-.09.11-.21.09-.07.15-.14.28-.22.42h.69c.07-.22.14-.5.19-.71l.62.15c0,.07-.07.12-.19.11a4.62,4.62,0,0,1-.44.45h.82l.27-.34s.3.23.49.41c0,.06-.06.08-.14.08h-1.21v.5H157l.25-.32.46.39c0,.06-.07.09-.14.09h-1.05v.52H157l.25-.33s.28.23.46.4a.14.14,0,0,1-.15.08h-1.05v.53h.73l.26-.34s.31.24.49.41a.13.13,0,0,1-.14.09h-2.51v.15s0,0,0,0l.57.06s-.05.09-.15.12v.38h1.42ZM153.37,12c.07,0,.09,0,.15-.09s.12-.14,1.12-1.49l.08,0c-.21.38-.72,1.2-.81,1.37a.88.88,0,0,0-.11.35c0,.18.15.34.14.65a.29.29,0,0,1-.31.3c-.09,0-.16-.08-.19-.21.06-.43,0-.69-.08-.76a.91.91,0,0,0-.26-.06V12Zm.08-2.09c1.12.13.83.91.43.67a1.44,1.44,0,0,0-.47-.63Zm1.89.84v.5h.76v-.5Zm.76.66h-.76v.52h.76Zm0,.67h-.76v.53h.76Z"/><path class="cls-2" d="M159.57,11.4a.2.2,0,0,1-.17.09V14.7a.53.53,0,0,1-.34.12H159v-2.9a4.64,4.64,0,0,1-.55.73l-.08-.05a10.36,10.36,0,0,0,1-2.75L160,10c0,.06-.08.11-.21.11a8.46,8.46,0,0,1-.45,1.16Zm3.35-.42s.31.24.5.42c0,0-.07.08-.14.08h-3v.78a3.77,3.77,0,0,1-.69,2.56l-.07-.06a5.8,5.8,0,0,0,.38-2.5V11.13l.45.19h2.3Zm-3.06-.47h.92V9.84l.57.06c0,.08,0,.13-.17.15v.46h.75V9.84l.59.06c0,.07-.06.13-.19.15v.46h.4l.23-.31a5.58,5.58,0,0,1,.45.38.12.12,0,0,1-.13.09h-.95V11s-.1.1-.33.1h-.07v-.47h-.75v.39s-.12.1-.33.1h-.07v-.49h-.88Zm2.95,1.17.49.36a.32.32,0,0,1-.22.11v2.13c0,.31-.06.48-.53.53a.5.5,0,0,0-.08-.29.44.44,0,0,0-.3-.13V14.3l.41,0c.07,0,.09,0,.09-.1v-.58H162v1s-.12.12-.31.12h-.06V13.65h-.68v1s-.15.13-.32.13h-.06V11.73l.41.19h1.66Zm-1.88.39v.63h.68v-.63Zm.68,1.42v-.63h-.68v.63Zm.37-1.42v.63h.69v-.63Zm.69,1.42v-.63H162v.63Z"/><path class="cls-2" d="M168.24,14.15s.33.25.53.43c0,.06-.06.08-.14.08H163.9l-.05-.15h2.23V13.6H164.4l0-.15h1.72V12.7l.63.06c0,.08-.05.12-.18.15v.54h1l.27-.33a6.17,6.17,0,0,1,.5.4c0,.06-.07.08-.14.08h-1.64v.91H168Zm.56-3.44s-.1,0-.2.06a3.56,3.56,0,0,1-.6.47l.18.15c0,.06-.07.08-.15.08h-1.8a5.33,5.33,0,0,1-.81.89l2-.12a4.7,4.7,0,0,0-.61-.53l.05-.06c1.71.49,1.54,1.45,1.06,1.22a2.1,2.1,0,0,0-.39-.51c-.72.13-1.67.28-2.94.43a.22.22,0,0,1-.15.12l-.21-.52.94,0a4.4,4.4,0,0,0,.46-.89h-1.09l-.05-.15h2.89l.27-.32.23.18c.06-.14.14-.33.19-.49h-3.52a.82.82,0,0,1-.24.67c-.13.1-.34.11-.41,0a.27.27,0,0,1,.14-.34,1,1,0,0,0,.34-.78h.09c0,.11.05.22.07.32h1.5V9.85l.64.06c0,.07-.06.13-.19.15v.47h1.57l.25-.25Z"/><path class="cls-2" d="M169.26,12.35l.08-.07a.7.7,0,0,0,.34.19.39.39,0,0,0,.27-.15c.26-.23.72-.74.92-1a.48.48,0,0,1,.37-.2.67.67,0,0,1,.5.24,8.88,8.88,0,0,0,2.16,1.92.44.44,0,0,1,.25.39.2.2,0,0,1-.21.22,2.56,2.56,0,0,1-1.15-.82c-.46-.47-.88-1.06-1.27-1.47a.39.39,0,0,0-.27-.14q-.09,0-.21.15c-.19.22-.57.75-.77,1s-.21.31-.37.31a.78.78,0,0,1-.52-.31A.65.65,0,0,1,169.26,12.35Z"/></g></svg>