<svg xmlns="http://www.w3.org/2000/svg" viewBox="0 0 347.72 130.97"><defs><style>.cls-1{fill:#717071;}.cls-2{fill:#009c94;}.cls-3{fill:#c29a62;}.cls-4{fill:none;stroke:#c29a62;stroke-miterlimit:10;}</style></defs><g id="レイヤー_2" data-name="レイヤー 2"><g id="wire"><path class="cls-1" d="M9.85,83.78a1.2,1.2,0,0,1-.6.27V94.37a1.18,1.18,0,0,1-.82.36H8.29V93.56H1.76v.87c0,.14-.33.37-.76.37H.84V83l1,.49h6.3l.55-.61Zm-8.09.1v4.34H8.29V83.88Zm6.53,9.27V88.63H1.76v4.52Z"/><path class="cls-1" d="M25.43,85.1c-.1.11-.25.12-.53.14a9.4,9.4,0,0,1-1.54,1.4l-.2-.11a10.92,10.92,0,0,0,.6-1.45H14.6A2.28,2.28,0,0,1,13.82,87c-.34.27-.84.29-1,0a.6.6,0,0,1,.34-.76A2.54,2.54,0,0,0,14.21,84h.25a6.7,6.7,0,0,1,.13.68h3.93V82.1l1.42.15c0,.2-.17.34-.49.38v2.05h1.16a24.71,24.71,0,0,0,1.33-2.46l1.4.58a.49.49,0,0,1-.54.2A14.18,14.18,0,0,1,21,84.68h2.75l.59-.62ZM23,89.8l1.19.87a1.2,1.2,0,0,1-.62.27V93c0,.7-.15,1.16-1.47,1.29a.92.92,0,0,0-.28-.66,2.65,2.65,0,0,0-1.19-.35v-.21s1.39.1,1.72.1.33-.09.33-.27V90.77H19.42v3.75a.85.85,0,0,1-.77.37h-.14V90.77H15.37V94c0,.08-.39.29-.75.29h-.14V89.9l1,.45h3.05V88.89H16.45v.41c0,.08-.39.29-.75.29h-.15V85.88l1,.44h4.93l.48-.52,1.09.81a.94.94,0,0,1-.53.25v2.28a1.27,1.27,0,0,1-.77.3h-.14v-.55H19.42v1.46h3.1Zm-7.86-7.53c2.8.81,2,2.83,1.08,2.14a3.5,3.5,0,0,0-1.23-2Zm1.33,6.23h5.13V86.72H16.45Z"/><path class="cls-1" d="M32.08,84.94a1.28,1.28,0,0,1-.62.27v8.26a1.06,1.06,0,0,1-.74.32h-.13v-1H28.07v1c0,.12-.32.34-.73.34H27.2v-10l.93.44h.53c.17-.67.4-1.77.55-2.53l1.45.34c-.05.21-.22.3-.52.3-.28.56-.74,1.33-1.08,1.89h1.39l.51-.57Zm-4,.11V88.4h2.52V85.05Zm2.52,7.32V88.79H28.07v3.58Zm8.92-7.46a.85.85,0,0,1-.58.23c-.2,5-.69,8.16-1.46,9a2.13,2.13,0,0,1-1.71.67.76.76,0,0,0-.27-.67,4.17,4.17,0,0,0-1.42-.44l0-.24c.65.07,1.7.17,2,.17a.73.73,0,0,0,.63-.22c.63-.56,1-3.79,1.26-8.41H33.9a11.38,11.38,0,0,1-2.06,2.93l-.2-.13A17.29,17.29,0,0,0,33.9,82.1l1.43.42c-.06.17-.21.28-.52.28a17.05,17.05,0,0,1-.72,1.81h3.77l.56-.65Zm-6,2.3c3.53,1.5,2.73,3.77,1.71,3a6.82,6.82,0,0,0-1.86-2.88Z"/><path class="cls-1" d="M44,83a2.71,2.71,0,0,1,.82-.16,2.15,2.15,0,0,1,1,.23c.23.14.18.4-.34,2.19,1.35-.42,1.63-.76,1.89-.76a.48.48,0,0,1,.52.42c0,.26-.32.45-.48.53a9.46,9.46,0,0,1-2.21.72,25.19,25.19,0,0,1-2.65,5.76c-.19.28-.36.5-.63.5s-.4-.29-.4-.55a1.08,1.08,0,0,1,.25-.67,16.49,16.49,0,0,0,2.66-4.9,7.16,7.16,0,0,1-1.11.08,1.89,1.89,0,0,1-2-1.38l.25-.2a2.41,2.41,0,0,0,1.88.81,5.61,5.61,0,0,0,1.19-.15A13.4,13.4,0,0,0,45,83.91c0-.3-.06-.41-.29-.51a3.65,3.65,0,0,0-.66-.22Zm5,2.41a3.93,3.93,0,0,1,1.93.17c.86.32,1.29.87,1.29,1.43,0,.32-.14.5-.4.5a5.43,5.43,0,0,0-1.17-.18,2.2,2.2,0,0,0-1.3.55A1.64,1.64,0,0,0,49,89.09c0,.42.16,1.3.27,2.14a6.51,6.51,0,0,1,2.18,1c.68.44,1,.83,1,1.18s-.13.45-.35.45-.43-.24-.74-.52a5.65,5.65,0,0,0-2-1.28c0,.21,0,.4,0,.56,0,1.17-.85,1.84-2.28,1.84s-2.24-.71-2.24-1.53c0-1.06,1.13-1.85,3-1.85.23,0,.44,0,.63,0,0-.61-.11-1.25-.11-1.79a2.29,2.29,0,0,1,.67-1.75,4.52,4.52,0,0,1,1.56-.9c.29-.15.24-.33,0-.52A2.73,2.73,0,0,0,49,85.71Zm-.46,6.46a6.53,6.53,0,0,0-1.2-.11c-1.28,0-1.95.53-1.95,1s.47.88,1.5.88c1.34,0,1.65-.67,1.65-1.5Z"/><path class="cls-1" d="M56,86.85l.14-.31a14.27,14.27,0,0,1,1.88.59c.86.35,1.37.85,1.37,1.38A.4.4,0,0,1,59,89c-.44,0-.66-.51-1.39-1A9.8,9.8,0,0,0,56,86.85Zm10.34-.79.32.21a20,20,0,0,1-7.64,7c-.28.16-.44.53-.8.53a2.85,2.85,0,0,1-1.63-1,2.37,2.37,0,0,1-.31-.94l.23-.12c.38.44.81.92,1.29.92C58.76,92.59,63.83,89.57,66.35,86.06Zm-8.46-1.9.15-.32a13.71,13.71,0,0,1,1.77.6c.95.47,1.37.94,1.37,1.43a.42.42,0,0,1-.4.46c-.4,0-.68-.56-1.42-1.16A8.09,8.09,0,0,0,57.89,84.16Z"/><path class="cls-1" d="M72,87.09c.21.25.42.54.75.54.65,0,3.42-.29,4-.39.37,0,.44-.25.67-.25s1.17.59,1.17.91-.33.33-.37.66c-.15.82-.42,2.64-.61,3.86.32.1.6.33.6.52a.31.31,0,0,1-.34.34c-.22,0-.73-.1-1.17-.1a27.06,27.06,0,0,0-3.37.31,5.93,5.93,0,0,1-.71.19c-.35,0-.84-.54-1-.81a1.45,1.45,0,0,1-.13-.57l.17-.1c.24.26.45.56.84.56.71,0,3-.27,4.23-.35.07-.55.14-1.3.22-2-1.17.08-2.49.25-3.33.36-.32.06-.48.2-.67.2s-.73-.45-.87-.72a1.34,1.34,0,0,1-.15-.57l.18-.1A1.25,1.25,0,0,0,73,90c.41,0,2.76-.25,4.1-.35.09-.71.16-1.34.2-1.67,0-.08,0-.11-.1-.11a29.46,29.46,0,0,0-3.68.42,5.29,5.29,0,0,1-.76.24c-.32,0-.82-.57-.91-.84a2.37,2.37,0,0,1-.08-.57Z"/><path class="cls-1" d="M85,87.67l.17-.15a5.28,5.28,0,0,1,1,.71A2.07,2.07,0,0,1,87,89.66c0,.3-.14.51-.43.51-.45,0-.47-.55-.86-1.31A6.73,6.73,0,0,0,85,87.67Zm1.11,6.85L86,94.27c3.71-1.93,5.82-5.55,5.82-6.61,0-.22-.19-.39-.74-.62l.07-.21a2.91,2.91,0,0,1,.66,0c.52.09,1.19.7,1.19,1s-.24.34-.39.66A11.49,11.49,0,0,1,86.12,94.52ZM87.47,87l.17-.16a5.1,5.1,0,0,1,1,.74,1.81,1.81,0,0,1,.74,1.35.43.43,0,0,1-.46.47c-.42,0-.42-.57-.76-1.26A6,6,0,0,0,87.47,87Z"/><path class="cls-1" d="M105.05,85.5a1.63,1.63,0,0,1,.65.24,1.91,1.91,0,0,1,.79,1.08c0,.28-.36.36-.9.64a32.41,32.41,0,0,1-5.28,2.06c0,.84,0,1.59,0,2,0,1.37.31,1.47,2,1.47a18.57,18.57,0,0,0,3.64-.45c.66,0,1.08.16,1.08.48s-.2.41-.46.5a17.87,17.87,0,0,1-4.16.34c-2.51,0-2.87-.42-2.89-2.4,0-1.24.16-5.85.08-6.51,0-.39-.36-.48-1.09-.57v-.26a3.9,3.9,0,0,1,1-.18c.58,0,1.39.56,1.39.9s-.27.32-.31.75c-.07.61-.14,2.08-.19,3.42A19.29,19.29,0,0,0,105,86.68c.24-.18.28-.3.17-.53a1.73,1.73,0,0,0-.33-.47Zm4.14-1a1.51,1.51,0,1,1-1.5-1.5A1.5,1.5,0,0,1,109.19,84.48Zm-.46,0a1,1,0,1,0-1,1A1,1,0,0,0,108.73,84.48Z"/><path class="cls-1" d="M122.32,85.57l.33.21A21.06,21.06,0,0,1,115.29,93c-.28.17-.43.52-.74.52a2.73,2.73,0,0,1-1.67-1.08,3.09,3.09,0,0,1-.29-.91l.22-.14c.42.46.87.91,1.32.91C115.21,92.27,120.33,88.56,122.32,85.57Zm-9.41-1.31c1.6.44,3.53,1.4,3.53,2.48a.48.48,0,0,1-.49.51c-.22,0-.41-.15-.77-.58a9.12,9.12,0,0,0-2.44-2.12Z"/><path class="cls-1" d="M129.32,83.22a4.25,4.25,0,0,1,.84.06c.55.12,1.29.54,1.29.79s-.2.38-.41.73-.31.52-.47.76h.26a27.23,27.23,0,0,0,2.79-.26c.38-.09.48-.33.71-.33s1.22.58,1.22.94-.46.37-.66.73a17.53,17.53,0,0,1-8.71,8l-.21-.3c3.6-1.88,6.89-5.5,8-8.27.07-.17,0-.21-.12-.21-.3,0-1.73.23-2.24.32a4.63,4.63,0,0,1-.78.18,1.1,1.1,0,0,1-.6-.33,13.08,13.08,0,0,1-4.15,3.64l-.21-.29c2.18-1.57,4.24-4.43,4.24-5.24,0-.24-.36-.46-.85-.67Zm5.25.17a5.1,5.1,0,0,1,1.61.91,1.16,1.16,0,0,1,.48.85.33.33,0,0,1-.34.37c-.19,0-.36-.31-.64-.68a7,7,0,0,0-1.29-1.23Zm1.21-.89a6.35,6.35,0,0,1,1.59.82,1.11,1.11,0,0,1,.54.87.32.32,0,0,1-.33.36c-.23,0-.37-.32-.68-.67a7.55,7.55,0,0,0-1.29-1.14Z"/><path class="cls-1" d="M145.2,85.57s.73.6,1.17,1c0,.15-.16.22-.36.22h-2.89v1c3.51,1.5,2.85,3.62,1.87,2.92a7.1,7.1,0,0,0-1.87-2.64v6.47c0,.09-.32.31-.75.31h-.16V88.42a13.12,13.12,0,0,1-3.64,4.18l-.18-.19a15,15,0,0,0,3.49-5.59h-3l-.11-.41h3.4V83.86c-1.08.21-2.24.38-3.34.48l-.06-.25a23.42,23.42,0,0,0,6-2l1.16,1c-.12.12-.39.12-.73,0-.58.19-1.33.39-2.13.57v2.73h1.42Zm2.5,6.19c0,.13-.37.33-.71.33h-.17V83.28l1.39.15c0,.2-.17.34-.51.38Zm3.56-9.26c0,.2-.18.33-.52.37V93.51c0,.78-.16,1.24-1.49,1.38a1.11,1.11,0,0,0-.31-.67,3.08,3.08,0,0,0-1.28-.38v-.21s1.53.12,1.82.12.37-.09.37-.32V82.34Z"/><path class="cls-1" d="M155.75,86c0,.13-.18.23-.42.27v8.33a1,1,0,0,1-.74.31h-.17V87a13.46,13.46,0,0,1-1.76,2.2l-.2-.14a22.6,22.6,0,0,0,3.15-7l1.44.47c-.05.15-.22.26-.53.25a21.89,21.89,0,0,1-1.34,3Zm5.35,3.8a5.17,5.17,0,0,1-1,2.8,13.07,13.07,0,0,0,5.52,1.23V94a1.14,1.14,0,0,0-.82.9,10.79,10.79,0,0,1-5.21-1.77,8.58,8.58,0,0,1-3.92,1.78l-.14-.21a7.9,7.9,0,0,0,3.53-2,6.63,6.63,0,0,1-1.47-1.93l.21-.12a5.5,5.5,0,0,0,1.63,1.59,5.4,5.4,0,0,0,.77-2.42h-2.43v.52c0,.1-.39.31-.75.31h-.14V84.8l1,.44h2.4V83.67h-3.57l-.12-.41h7l.67-.85s.77.6,1.23,1c0,.16-.15.23-.35.23h-4v1.57h2.42l.52-.56,1.13.86a1,1,0,0,1-.6.29v4.41a1.16,1.16,0,0,1-.77.31h-.14v-.76Zm-3.32-4.13V87.3h2.47V85.66Zm2.45,3.72c0-.24,0-.49,0-.75V87.7h-2.47v1.68Zm3.49,0V87.7h-2.56v.9c0,.26,0,.53,0,.78Zm-2.56-3.72V87.3h2.56V85.66Z"/><path class="cls-1" d="M174.33,87.67c2.17,1.08,3,2.37,3,3.9,0,1.34-1.15,2.93-3.59,2.93a2.65,2.65,0,0,1-2.91-2.86,11.68,11.68,0,0,1,.09-1.23c-1.31-.28-2.07-.93-2.07-1.74s.84-1.58,1.91-2.12a3.81,3.81,0,0,1-1-.44,2.26,2.26,0,0,1-1-1.42l.24-.14a3.05,3.05,0,0,0,1.27,1.15,5,5,0,0,0,1.55.35,19.11,19.11,0,0,0,.54-2.06c0-.35-.07-.43-.33-.55a3.27,3.27,0,0,0-.74-.21l0-.32a6,6,0,0,1,.77,0c.65,0,1.5.68,1.5,1.06s-.2.35-.37.7a13,13,0,0,0-.56,1.49l.52,0c.45,0,.63.28.63.52s-.18.35-.53.37a7.61,7.61,0,0,1-.9,0c-.21.7-.48,1.69-.67,2.63.7,0,1.27,0,1.57,0s.56.18.56.46-.17.39-.69.44a8.47,8.47,0,0,1-1.61,0,7.6,7.6,0,0,0-.11,1.14c0,1.4.91,2,2.23,2a2.45,2.45,0,0,0,2.73-2.38c0-1.54-.94-2.42-2.24-3.39ZM171,89.55c.15-.92.38-1.89.55-2.59-.94.07-2.19.88-2.19,1.55C169.4,88.93,169.72,89.37,171,89.55Z"/><path class="cls-1" d="M180.7,91.4a5.46,5.46,0,0,1,3,1.92,1.49,1.49,0,0,1,.34.94.56.56,0,0,1-.57.63c-.3,0-.48-.17-.68-.59a6.48,6.48,0,0,0-2.27-2.66Z"/><path class="cls-1" d="M206.17,93.35s.73.57,1.19,1c0,.16-.15.23-.35.23H194.77l-.11-.41h4.77a.61.61,0,0,1-.32-.16,3.71,3.71,0,0,0-.81-1.79l.15-.08c1.91.71,1.71,1.93,1.14,2h2.17a17.35,17.35,0,0,0,.85-2.07l1.39.44a.47.47,0,0,1-.53.24,11.22,11.22,0,0,1-1.32,1.39h3.35Zm-11.08-4.71-.13-.41h10.3l.66-.79s.71.56,1.19,1c0,.14-.18.21-.38.21Zm2.24-1.09c0,.08-.36.29-.73.29h-.14V83l.94.43h1.81V82.08l1.29.13c0,.2-.14.31-.45.37v.86h1.83V82.08l1.33.14c0,.19-.15.33-.47.37v.85h1.82l.49-.54,1.12.85a1.08,1.08,0,0,1-.6.27v3.36a1.19,1.19,0,0,1-.73.29h-.14v-.4h-7.37Zm6.85,4.77V92h-6.37v.29c0,.06-.28.25-.75.25h-.12v-3.3l1,.45h6.16l.45-.52,1,.74a.89.89,0,0,1-.49.23v1.93a1,1,0,0,1-.76.26Zm-6.85-8.46v1.28h1.88V83.86Zm1.88,1.68h-1.88v1.31h1.88Zm5,6v-1.5h-6.37v1.5Zm-4.13-7.71v1.28h1.83V83.86Zm0,3h1.83V85.54h-1.83Zm2.69-3v1.28h2V83.86Zm2,3V85.54h-2v1.31Z"/><path class="cls-1" d="M212.4,83.33a2.26,2.26,0,0,1,.91-.18c.57,0,1.61.49,1.61.84s-.28.46-.44.81-.35.87-.61,1.49a7.1,7.1,0,0,1,1.16-.13c1.05,0,1.65.58,1.65,2.23a8.27,8.27,0,0,1-1.33,4.69,2.1,2.1,0,0,1-1.69.88c-.47,0-.56-.19-.75-.6-.09-.21-.19-.38-1-1l.17-.22a4.93,4.93,0,0,0,1.68.84,1.22,1.22,0,0,0,1.12-.73,8.55,8.55,0,0,0,1-4c0-1-.23-1.46-1-1.46a5.86,5.86,0,0,0-1.26.21c-.41.94-.88,2-1.33,2.94a35.3,35.3,0,0,1-2.07,3.81c-.21.34-.37.44-.58.44a.49.49,0,0,1-.42-.52.88.88,0,0,1,.23-.64,22.51,22.51,0,0,0,2.18-3.46c.34-.68.72-1.5,1-2.32-.52.17-1,.34-1.27.45a3.31,3.31,0,0,1-1.15.39c-.37,0-.88-.53-1-1a1.87,1.87,0,0,1,0-.81l.28,0c.16.38.25.83.66.83a26.11,26.11,0,0,0,2.75-.56,11.2,11.2,0,0,0,.72-2.26.33.33,0,0,0-.22-.36,3.21,3.21,0,0,0-1.06-.21Zm5.37,2.84a3.66,3.66,0,0,1,2.4,1.17A3.79,3.79,0,0,1,221,89.9c0,.56-.18,1-.59,1s-.38-.39-.78-.48a9.92,9.92,0,0,0-1.66.07l-.08-.33a15.86,15.86,0,0,0,1.79-.42c.3-.12.34-.24.32-.61a3.11,3.11,0,0,0-.57-1.57,2.75,2.75,0,0,0-1.86-1.09Z"/><path class="cls-1" d="M226,83a2.71,2.71,0,0,1,.82-.16,2.15,2.15,0,0,1,1,.23c.23.14.18.4-.34,2.19,1.35-.42,1.63-.76,1.89-.76a.48.48,0,0,1,.52.42c0,.26-.32.45-.48.53a9.46,9.46,0,0,1-2.21.72,25.19,25.19,0,0,1-2.65,5.76c-.19.28-.36.5-.63.5s-.4-.29-.4-.55a1.08,1.08,0,0,1,.25-.67,16.49,16.49,0,0,0,2.66-4.9,7.16,7.16,0,0,1-1.11.08,1.89,1.89,0,0,1-2-1.38l.25-.2a2.41,2.41,0,0,0,1.88.81,5.61,5.61,0,0,0,1.19-.15,13.4,13.4,0,0,0,.25-1.51c0-.3-.06-.41-.29-.51a3.65,3.65,0,0,0-.66-.22Zm5,2.41a3.93,3.93,0,0,1,1.93.17c.86.32,1.29.87,1.29,1.43,0,.32-.14.5-.4.5a5.43,5.43,0,0,0-1.17-.18,2.2,2.2,0,0,0-1.3.55,1.64,1.64,0,0,0-.35,1.26c0,.42.16,1.3.27,2.14a6.51,6.51,0,0,1,2.18,1c.68.44,1,.83,1,1.18s-.13.45-.35.45-.43-.24-.74-.52a5.65,5.65,0,0,0-2-1.28c0,.21,0,.4,0,.56,0,1.17-.85,1.84-2.28,1.84s-2.24-.71-2.24-1.53c0-1.06,1.13-1.85,3-1.85.23,0,.44,0,.63,0,0-.61-.11-1.25-.11-1.79a2.29,2.29,0,0,1,.67-1.75,4.52,4.52,0,0,1,1.56-.9c.29-.15.24-.33,0-.52a2.73,2.73,0,0,0-1.61-.42Zm-.46,6.46a6.53,6.53,0,0,0-1.2-.11c-1.28,0-2,.53-2,1s.47.88,1.5.88c1.34,0,1.65-.67,1.65-1.5Z"/><path class="cls-1" d="M240.09,82.59c-.07.15-.24.25-.54.24A19.58,19.58,0,0,1,238,85c1,.82.46,1.77-.2,1.32a4.2,4.2,0,0,0-1.27-1.85l.14-.11a4.07,4.07,0,0,1,1,.43c.32-.75.7-1.8,1-2.73Zm-3.53,11.07a16,16,0,0,0,.82-3.65l1.26.31a.46.46,0,0,1-.49.31,10,10,0,0,1-1.37,3.14Zm3.53-6.8c2.5,1.33,1.68,3.1.88,2.4a4,4,0,0,0-.27-.91l-1,.19v6.08a.89.89,0,0,1-.74.28h-.13V88.71l-1.48.27a.51.51,0,0,1-.35.28l-.41-1.05,1.3,0c.81-1.36,1.8-3.18,2.4-4.48l1.33.54a.5.5,0,0,1-.56.21,34.84,34.84,0,0,1-2.75,3.71c.68,0,1.44-.07,2.24-.11a7.1,7.1,0,0,0-.65-1.1Zm.26,2.92c2.16,1.35,1.26,3,.54,2.25a5.62,5.62,0,0,0-.72-2.17Zm9-1.15c0,.11-.23.21-.51.12a17.67,17.67,0,0,1-2.06,1.68A6.93,6.93,0,0,0,249.64,93l0,.15a1.1,1.1,0,0,0-.78.83c-1.6-1.23-2.68-2.72-3.21-5.76v5.32c0,.7-.15,1.21-1.32,1.35a.91.91,0,0,0-.23-.65,1.89,1.89,0,0,0-1-.33v-.23s1.17.1,1.42.1.28-.07.28-.25V90.85c-.66.63-1.58,1.54-2.76,2.6a.51.51,0,0,1-.17.4L241,93c.64-.37,2.22-1.38,3.78-2.4V87.3h-3.27l-.11-.41h5.38v-1.6h-4.13l-.13-.39h4.26V83.35h-4.38l-.13-.41h4.33l.57-.63,1.25,1a1.34,1.34,0,0,1-.74.35v3.28h.19l.61-.85a14.68,14.68,0,0,1,1.1,1c0,.16-.17.23-.35.23h-3.53a9.08,9.08,0,0,0,1,2.92,22.31,22.31,0,0,0,1.55-2.36Zm-7.27-.49c2.65,1.13,1.9,2.91,1.06,2.25A5,5,0,0,0,242,88.23Z"/><path class="cls-1" d="M258.93,85.1a3,3,0,0,1,1,.26,1.67,1.67,0,0,1,.85,1.12c0,.28-.33.4-.89.59a23.58,23.58,0,0,0-3.42,1.6c-1.12.64-2.66,1.82-2.66,3.12,0,.83.78,1.49,3,1.49a19.27,19.27,0,0,0,3.44-.4c.49,0,.93.13.93.55,0,.18-.23.35-.51.44a15.26,15.26,0,0,1-3.57.33c-2.45,0-3.92-.8-3.92-2.25s1.62-3,2.55-3.6a2.51,2.51,0,0,1-.83-1.19,17.79,17.79,0,0,1-.62-2.93.47.47,0,0,0-.39-.46,5.76,5.76,0,0,0-.77-.19v-.29a3.19,3.19,0,0,1,.9-.14c.63,0,1.37.45,1.38.77s-.11.39-.1.73a9.61,9.61,0,0,0,.31,2.13,2,2,0,0,0,.77,1.15c1-.62,2.48-1.35,3-1.63.22-.11.28-.21.18-.39a1.51,1.51,0,0,0-.71-.59Z"/><path class="cls-1" d="M270.88,86.08a1.39,1.39,0,0,1-.61.28v7.31c0,.66-.15,1.08-1.34,1.19a.74.74,0,0,0-.28-.55,2.62,2.62,0,0,0-1.11-.32v-.22s1.3.1,1.58.1.31-.09.31-.3v-2.7h-3.19a7.33,7.33,0,0,1-1.56,4l-.19-.16a13.32,13.32,0,0,0,1-6.19V86.05a8.58,8.58,0,0,1-.86.85l-.19-.14a13.07,13.07,0,0,0,2.17-4.7l1.32.4c0,.17-.22.3-.53.28-.1.26-.2.51-.31.76h1.26l.55-.55,1,.93a1,1,0,0,1-.54.11A16.63,16.63,0,0,1,268,85.78h1.29l.45-.57Zm-4-2.16a11.65,11.65,0,0,1-1,1.61l.56.25h1.13a12.56,12.56,0,0,0,.77-1.86Zm-.57,4.61a19.11,19.11,0,0,1-.07,2h1.2v-2h-1.13Zm0-.48h1.13V86.19h-1.13Zm1.89-1.86v1.86h1.2V86.19Zm1.2,4.29v-2h-1.2v2Zm6.18.46c2.81,2.39,2,4.61,1.13,3.75a5.61,5.61,0,0,0-.35-1.55c-1.16.28-2.73.64-4.81,1.09a.48.48,0,0,1-.33.28l-.5-1.15c.6,0,1.64-.11,2.9-.22V89.48h-1.56v.84c0,.07-.26.27-.67.27h-.13v-6l1,.42h1.39V82.31l1.36.15c0,.2-.14.33-.51.38v2.21h1.59l.4-.51,1,.74a.79.79,0,0,1-.52.24v4.54a1,1,0,0,1-.7.26h-.11v-.84H274.5v3.57l1.8-.18a13.89,13.89,0,0,0-.89-1.85Zm-2-1.87V85.46h-1.56v3.61Zm.85-3.61v3.61h1.63V85.46Z"/><path class="cls-1" d="M291.86,91.65A3.79,3.79,0,0,1,289,93.39a1.61,1.61,0,0,1-1.68-1.84c0-1.55.59-3.18.59-4.69,0-.88-.25-1.34-.95-1.34-1.19,0-2.83,1.26-4.23,2.78a27.23,27.23,0,0,0,.14,4.14c0,.35.07.64.07,1,0,.48-.2,1.13-.59,1.13s-.39-.15-.46-.47a4.73,4.73,0,0,0-.24-.88,12.14,12.14,0,0,0-1-1.83l-.91,1.28c-.17.24-.29.42-.5.42s-.37-.21-.37-.49a.92.92,0,0,1,.3-.7,35.46,35.46,0,0,0,3.07-4c0-.41.06-.78.12-1.16-.48.25-1,.53-1.31.73s-.44.5-.68.5a1.57,1.57,0,0,1-1.15-1,1.86,1.86,0,0,1-.05-.62l.25-.07c.21.42.42.66.67.66a11.17,11.17,0,0,0,2.37-1c.11-.89.21-1.62.22-2s-.07-.38-.32-.47a5.69,5.69,0,0,0-.74-.2l0-.28a2.75,2.75,0,0,1,.86-.15c.57,0,1.29.61,1.29,1s-.17.42-.32,1c-.07.21-.17.57-.28,1,.22.15.5.42.5.55s-.15.29-.32.51a4.14,4.14,0,0,0-.45.59c1.33-1.21,3-2.48,4.41-2.48,1,0,1.57.59,1.57,1.89,0,1.09-.6,3.1-.6,4.52,0,.76.32,1.07,1,1.07a3.34,3.34,0,0,0,2.41-1.08Zm-9.76-2.49c-.38.59-.84,1.23-1.27,1.86.39.55.89,1.22,1.09,1.46s.2.12.2-.1C282.13,91.71,282.06,90.42,282.1,89.16Z"/><path class="cls-1" d="M300.09,82.39c0,.17-.22.23-.56.26a13.69,13.69,0,0,0,6,4.25l0,.21a1.06,1.06,0,0,0-.83.73,12,12,0,0,1-5.43-5,17.1,17.1,0,0,1-6.69,5.55l-.11-.21c2.4-1.33,5.23-4.15,6-6.16Zm2.36,6.74,1.16.9a1.2,1.2,0,0,1-.59.28v4.17c0,.1-.5.3-.81.3h-.14v-.91H296v.71c0,.1-.41.31-.8.31H295V89.26l1,.46h5.91ZM301.2,86.3s.74.58,1.22,1c0,.14-.18.21-.38.21h-6.23l-.11-.41h4.86Zm.87,7.15V90.13H296v3.32Z"/><path class="cls-1" d="M309.4,86.54c.23.57.48.88.8.88.62,0,2.45-1.13,3.95-1.13s2.45,1.15,2.45,3c0,3.09-2.41,4.82-6.19,5.41l-.11-.33c3.4-.82,5.29-2.48,5.29-5.25,0-1.5-.66-2.32-1.52-2.32A6.56,6.56,0,0,0,311.25,88c-.31.21-.56.49-.91.49a1.54,1.54,0,0,1-1.13-.92,1.66,1.66,0,0,1-.06-1Zm1.09-3.81.17-.23a4.41,4.41,0,0,0,2.65.82c.4,0,.9-.11,1.12-.11.5,0,1.09.22,1.09.6,0,.18-.17.28-.47.29a5.09,5.09,0,0,0-1,.14c-.7.2-1.87.67-2.55,1l-.13-.26c.59-.32,1.23-.67,1.63-.94A3.72,3.72,0,0,1,310.49,82.73Z"/><path class="cls-1" d="M325.36,83.67a1.08,1.08,0,0,1-.59.28v8.81c0,.11-.44.33-.75.33h-.13v-1h-2v1.29c0,.08-.28.32-.73.32h-.14V82.91l1.05.45h1.64l.5-.57Zm-3.43.11v3.74h2V83.78Zm2,8v-3.8h-2v3.8Zm1.22-4.61-.11-.41h3.46V84.66h-2.92l-.11-.4h3V82.13l1.41.15c0,.2-.17.34-.52.39v1.59h1.81l.65-.82a15.46,15.46,0,0,1,1.19,1,.36.36,0,0,1-.38.22h-3.27v2.06h2.26l.64-.84s.77.59,1.21,1c0,.16-.16.23-.35.23Zm7.3,1.13a13.72,13.72,0,0,1,1.15,1c0,.15-.19.22-.37.22h-2.06v4.11c0,.75-.14,1.2-1.48,1.33a.84.84,0,0,0-.32-.65,2.94,2.94,0,0,0-1.25-.35v-.22s1.53.1,1.82.1.34-.07.34-.28v-4h-5.06l-.11-.4h5.17V87.41l1.37.15c0,.2-.17.3-.48.35v1.14h.68ZM326.26,90c3.09,1.14,2.28,3.21,1.3,2.48a5.65,5.65,0,0,0-1.46-2.37Z"/><path class="cls-1" d="M336.28,87v7.58c0,.12-.31.36-.73.36h-.17V82.53l1,.45h2.75l.46-.5,1.05.8a1,1,0,0,1-.52.25v3.78a1.22,1.22,0,0,1-.76.28h-.11V87Zm0-3.56v1.35h2.94V83.4Zm2.94,3.15v-1.4h-2.94v1.4Zm4.85,2.22a.88.88,0,0,1-.52.26V93.3c0,.1-.46.33-.76.33h-.12v-.76h-3.41v.59c0,.08-.36.29-.72.29h-.14V88.07l.92.43h3.22L343,88Zm-4.81.12v1.53h3.41V88.89Zm3.41,3.56V90.84h-3.41v1.61Zm4.55-9.16a1.19,1.19,0,0,1-.62.29v10c0,.74-.14,1.22-1.47,1.36a.88.88,0,0,0-.28-.69,2.87,2.87,0,0,0-1.2-.36v-.23s1.41.11,1.71.11.35-.08.35-.3V87h-3.06v.31c0,.08-.39.28-.77.28h-.12v-5l.95.4h2.86l.46-.57Zm-4.57.11v1.35h3.06V83.4Zm3.06,3.15v-1.4h-3.06v1.4Z"/><path class="cls-1" d="M6.33,105.67c2.17,1.08,3,2.37,3,3.9,0,1.34-1.15,2.93-3.59,2.93a2.65,2.65,0,0,1-2.91-2.86,11.68,11.68,0,0,1,.09-1.23c-1.31-.28-2.07-.93-2.07-1.74s.84-1.58,1.91-2.12a3.81,3.81,0,0,1-1-.44,2.26,2.26,0,0,1-1-1.42l.24-.14a3.05,3.05,0,0,0,1.27,1.15,5,5,0,0,0,1.55.35A19.11,19.11,0,0,0,4.36,102c0-.35-.07-.43-.33-.55a3.27,3.27,0,0,0-.74-.21l0-.32a6,6,0,0,1,.77,0c.65,0,1.5.68,1.5,1.06s-.2.35-.37.7a13,13,0,0,0-.56,1.49l.52,0c.45,0,.63.28.63.52s-.18.35-.53.37a7.61,7.61,0,0,1-.9,0c-.21.7-.48,1.69-.67,2.63.7,0,1.27,0,1.57,0s.56.18.56.46-.17.39-.69.44a8.47,8.47,0,0,1-1.61,0,7.6,7.6,0,0,0-.11,1.14c0,1.4.91,2,2.23,2a2.45,2.45,0,0,0,2.73-2.38c0-1.54-.94-2.42-2.24-3.39ZM3,107.55c.15-.92.38-1.89.55-2.59-.94.07-2.19.88-2.19,1.55C1.4,106.93,1.72,107.37,3,107.55Z"/><path class="cls-1" d="M12.58,111a2,2,0,1,1,2,2A2,2,0,0,1,12.58,111Zm.48,0a1.49,1.49,0,1,0,3,0,1.49,1.49,0,1,0-3,0Z"/><path class="cls-1" d="M30,101.21c.24.43.49.91.76.91a22.72,22.72,0,0,0,3.12-.66c.48-.16.49-.34.74-.34s1.22.6,1.22,1-.35.26-.7.63c-1.5,1.5-2.59,2.38-4.28,4-.06.05,0,.11,0,.1,1.38-.4,3.44-1,4.4-1.24a11,11,0,0,1,1.94-.37c.54,0,1.1.28,1.1.64s-.19.38-.72.38c-.31,0-.63,0-1.22,0a6,6,0,0,0-3.08.88A2.84,2.84,0,0,0,32,109.51c0,1.12.87,1.7,2.13,1.88.75.11,1.28,0,1.61.07a.75.75,0,0,1,.58.6c0,.3-.28.44-.88.44a7.76,7.76,0,0,1-1.71-.2,2.69,2.69,0,0,1-2.4-2.58A3.52,3.52,0,0,1,32.78,107c.14-.13.11-.2-.07-.14a15.91,15.91,0,0,0-2.9,1.1c-.89.48-1.19.82-1.6.82a.65.65,0,0,1-.6-.59.47.47,0,0,1,.35-.48,10.33,10.33,0,0,0,1.2-.43A5.52,5.52,0,0,0,30.8,106a27.88,27.88,0,0,0,3.52-4c.11-.18,0-.2-.11-.16a24.26,24.26,0,0,0-2.32.76c-.58.25-.71.46-1,.46a1.64,1.64,0,0,1-1.18-1.2,2.1,2.1,0,0,1,.08-.69Z"/><path class="cls-1" d="M43,101.7v-.3a4.17,4.17,0,0,1,.91-.1c.66,0,1.63.75,1.63,1.14s-.27.39-.39,1A36,36,0,0,0,44.7,109c0,1.78.52,2.45,2.06,2.45a6.49,6.49,0,0,0,5.31-3l.31.21a6.26,6.26,0,0,1-5.62,3.73c-1.87,0-2.84-.91-2.84-3.31,0-2.17.33-5.46.33-6.27,0-.51-.08-.66-.32-.8A2.5,2.5,0,0,0,43,101.7Z"/><path class="cls-1" d="M55.33,103.08a1.22,1.22,0,0,0,.88.7c.73,0,3.43-.81,5.74-1.34a19,19,0,0,1,3.18-.58,2.83,2.83,0,0,1,1,.16c.31.14.42.29.42.49s-.17.36-.48.36-.69,0-1.2,0a4.65,4.65,0,0,0-2.36.52c-.63.38-2,1.68-2,4.48a2.62,2.62,0,0,0,1.19,2.51,5.35,5.35,0,0,0,2.72.46c.34,0,.8.24.8.59s-.38.46-1,.46a5.38,5.38,0,0,1-3.15-.78A3.36,3.36,0,0,1,59.68,108a5.87,5.87,0,0,1,2.11-4.75c.09-.08.08-.17-.08-.12a29.18,29.18,0,0,0-4.39,1.42,2.27,2.27,0,0,1-.86.35,1.71,1.71,0,0,1-1.34-1.09,3.55,3.55,0,0,1-.06-.64Z"/><path class="cls-1" d="M80.11,104.67s.77.61,1.25,1c0,.15-.17.22-.36.22H78.28a9,9,0,0,1-1.77,3.91c4.67,1.51,4.32,3.44,3.21,3a14.25,14.25,0,0,0-3.81-2.38c-1.5,1.33-3.77,2.09-7.31,2.44l-.06-.27c3-.49,5.12-1.26,6.5-2.53a26.06,26.06,0,0,0-2.83-.94c-.18.38-.36.73-.51,1a1.21,1.21,0,0,1-1-.07,41,41,0,0,0,2-4.17h-4l-.12-.42h4.27c.42-1,.78-1.93,1-2.56l1.36.26c-.06.18-.2.31-.56.31-.19.49-.48,1.21-.82,2h5.52Zm1.29-2.12c-.08.1-.25.13-.52.14a9.29,9.29,0,0,1-1.62,1.57l-.17-.1a15.94,15.94,0,0,0,.67-1.64H70.63a2,2,0,0,1-.76,1.75c-.35.26-.85.28-1,0a.65.65,0,0,1,.35-.78,2.28,2.28,0,0,0,1-2.12h.25a7.12,7.12,0,0,1,.18.78h3.92V100l1.45.16c0,.19-.17.33-.51.39v1.51h4.28l.58-.59Zm-7.69,3.39c-.43,1-.92,2-1.37,3a28,28,0,0,1,3.22.67,7.86,7.86,0,0,0,1.64-3.63Z"/><path class="cls-1" d="M84.56,104.71a5.2,5.2,0,0,1-.81,4.72c-.41.43-1,.61-1.21.33a.67.67,0,0,1,.19-.86,5.58,5.58,0,0,0,1.58-4.19Zm3.18-1.29c0,.18-.17.32-.48.38v7.32c0,.33.12.44.86.44H90c.84,0,1.47,0,1.74,0a.37.37,0,0,0,.34-.25,20,20,0,0,0,.53-2.44h.18l0,2.55c.34.11.43.22.43.42,0,.49-.53.64-3.26.64H88c-1.31,0-1.67-.23-1.67-1.13v-8.06Zm2.28-.11a8.19,8.19,0,0,0-3.51-2.68l.08-.22C91.73,101.39,91.13,103.89,90,103.31Zm4.5,6a6.64,6.64,0,0,0-2.07-4.64l.14-.15C96.75,106.82,95.54,110.52,94.52,109.33Z"/><path class="cls-1" d="M102.47,111.56c3.43-.6,5.08-2.37,5.08-4.91a4,4,0,0,0-4.16-4.09c-.17,0-.33,0-.5,0a2.64,2.64,0,0,1,.6,1.49,7,7,0,0,1-.43,2.25c-.59,1.68-2.22,4.4-3.64,4.4-.94,0-1.92-1.48-1.92-3.21a5.37,5.37,0,0,1,1.86-3.93,6,6,0,0,1,4.09-1.5c2.88,0,5.11,1.89,5.11,4.79,0,2.32-1.45,4.7-6,5Zm-.1-8.88a5.31,5.31,0,0,0-2.65,1.38,4.55,4.55,0,0,0-1.44,3.24c0,1.34.62,2.37,1.19,2.37.93,0,2.21-2.22,2.79-3.55a6.69,6.69,0,0,0,.5-2.16A2.41,2.41,0,0,0,102.37,102.68Z"/><path class="cls-1" d="M122.06,105.28s.82.65,1.34,1.12c0,.16-.15.21-.36.21h-5.49v4.88c0,.77-.2,1.27-1.78,1.41a.9.9,0,0,0-.44-.66,4.66,4.66,0,0,0-1.63-.39v-.22s2.08.14,2.47.14.42-.09.42-.35v-4.81h-5.84l-.09-.4h5.93v-2.32l.8.09a17.52,17.52,0,0,0,2.76-2.3h-8l-.12-.4h8.3l.68-.63,1.13,1a1.22,1.22,0,0,1-.63.15,23.15,23.15,0,0,1-3.77,2.2l.25,0c0,.21-.16.31-.47.36v1.8h3.75Z"/><path class="cls-1" d="M136,100.94s.76.59,1.22,1c0,.15-.17.22-.37.22h-6.22a19.7,19.7,0,0,1-1.56,1.88c1.41,0,3.11-.09,4.88-.14a10.05,10.05,0,0,0-1.7-1.18l.12-.15c4.27.94,4,3.43,2.89,2.88a4.33,4.33,0,0,0-1-1.24c-1.8.22-4.23.49-7.53.8a.62.62,0,0,1-.38.29l-.55-1.22c.62,0,1.56,0,2.68,0a17.49,17.49,0,0,0,.94-1.89H125l-.11-.39h5.68v-1.71l1.43.15c0,.2-.16.34-.5.38v1.18h3.85Zm-1.82,4.57,1.18.88a1.12,1.12,0,0,1-.59.26v5c0,.72-.17,1.15-1.52,1.29a.83.83,0,0,0-.32-.63,2.76,2.76,0,0,0-1.24-.33v-.23s1.49.11,1.82.11.35-.09.35-.29v-1.37h-5.55v2.39c0,.11-.36.32-.76.32h-.15v-7.25l1,.45h5.34Zm-5.87,1v1.38h5.55v-1.38Zm5.55,3.26v-1.46h-5.55v1.46Z"/><path class="cls-1" d="M139.33,103.08a1.22,1.22,0,0,0,.88.7c.73,0,3.43-.81,5.74-1.34a19,19,0,0,1,3.18-.58,2.83,2.83,0,0,1,1,.16c.31.14.42.29.42.49s-.17.36-.48.36-.69,0-1.2,0a4.65,4.65,0,0,0-2.36.52c-.63.38-2,1.68-2,4.48a2.62,2.62,0,0,0,1.19,2.51,5.35,5.35,0,0,0,2.72.46c.34,0,.8.24.8.59s-.38.46-1,.46a5.38,5.38,0,0,1-3.15-.78,3.36,3.36,0,0,1-1.35-3.07,5.87,5.87,0,0,1,2.11-4.75c.09-.08.08-.17-.08-.12a29.18,29.18,0,0,0-4.39,1.42,2.27,2.27,0,0,1-.86.35,1.71,1.71,0,0,1-1.34-1.09,3.55,3.55,0,0,1-.06-.64Z"/><path class="cls-1" d="M157,108.85c-.86.55-2.08,1.38-3.72,2.33a.47.47,0,0,1-.24.38l-.6-1.08c.39-.13,1.06-.39,1.89-.73v-4H152.8l-.12-.41h1.63V102h-1.6l-.1-.41h2.78l.61-.79s.7.57,1.14,1c0,.15-.17.21-.37.21h-1.56v3.4h.3l.58-.78s.63.57,1,1c0,.15-.17.22-.37.22h-1.52v3.57l1.68-.71Zm8.18.23c-.08.12-.19.14-.46.07a14.49,14.49,0,0,1-1.9,1,7.73,7.73,0,0,0,2.78,1.61V112a.91.91,0,0,0-.74.73,7.89,7.89,0,0,1-3.81-4.23c-.1.12-.21.25-.32.36v3.81c0,.09-.31.28-.76.28h-.15v-3.22a13.59,13.59,0,0,1-4.37,2.32l-.15-.23a12.6,12.6,0,0,0,4.73-3.49h-1.49v.29c0,.09-.38.28-.74.28h-.13v-3.46l.94.42H163l.49-.53,1.13.84a1.16,1.16,0,0,1-.59.28v2l0,0Zm-.89-5.37s.71.52,1.16.9c0,.15-.17.22-.36.22h-8.28l-.11-.4h7Zm-6.21.09c0,.08-.39.28-.74.28h-.11v-3.76l.94.42h5.28l.5-.53,1.12.83a1.33,1.33,0,0,1-.61.29v2.14a1.11,1.11,0,0,1-.73.3h-.14v-.28h-5.51Zm0-2.65v1.93h1.32v-1.93Zm5.07,6.72v-1.64h-4.62v1.64Zm-3-6.72v1.93h1.34v-1.93Zm1.13,7.13a6.52,6.52,0,0,0,1.22,1.61,12.2,12.2,0,0,0,1.5-1.46,1.43,1.43,0,0,1-.72.24h-.14v-.39Zm.95-7.13v1.93h1.35v-1.93Z"/><path class="cls-1" d="M171.12,108.11c-.89.55-2.14,1.33-3.81,2.26a.48.48,0,0,1-.26.35l-.6-1.18c.37-.1,1-.32,1.79-.59v-4.27h-1.57l-.1-.42h1.67v-3.88l1.41.15c0,.2-.15.33-.52.38v3.35h.24l.58-.83s.66.62,1,1c0,.15-.16.22-.35.22h-1.5v3.95c.61-.22,1.27-.46,1.91-.71Zm8.17,3.64c.25.1.32.21.32.38,0,.38-.36.53-2.07.53h-1.12c-.93,0-1.08-.21-1.08-.81v-2.93h-1c-.44,2.41-1.94,3.48-5,4l-.06-.22c2.59-.73,3.69-1.77,4-3.79h-.85v.55c0,.08-.39.29-.77.29h-.13v-4.94l1,.45h4.51l.52-.58,1.12.87a1.12,1.12,0,0,1-.59.28v3.45c0,.1-.46.31-.77.31h-.14v-.68h-1v2.74c0,.18,0,.21.41.21h1.82a.23.23,0,0,0,.22-.16,11.42,11.42,0,0,0,.38-1.61h.2Zm-8.56-7.9h2.56a1.12,1.12,0,0,1-.15-.11,4.36,4.36,0,0,0-.67-1.78h-1.42l-.11-.4h3.41v-1.45l1.41.16c0,.19-.17.33-.52.38v.91h2.12l.64-.82s.73.58,1.18,1c0,.16-.18.21-.38.21h-2.12l1,.31a.47.47,0,0,1-.53.24,10.06,10.06,0,0,1-1.14,1.34h1.69l.65-.82a15.27,15.27,0,0,1,1.21,1,.32.32,0,0,1-.35.22h-8.34Zm1.81,1.81v1.22h4.72v-1.22Zm0,2.87h4.72V107.3h-4.72Zm.26-6.57c1.43.7,1.39,1.64,1,1.89h1.79a17,17,0,0,0,.67-1.89Z"/><path class="cls-1" d="M188.33,105.67c2.17,1.08,3,2.37,3,3.9,0,1.34-1.15,2.93-3.59,2.93a2.65,2.65,0,0,1-2.91-2.86,11.68,11.68,0,0,1,.09-1.23c-1.31-.28-2.07-.93-2.07-1.74s.84-1.58,1.91-2.12a3.81,3.81,0,0,1-1-.44,2.26,2.26,0,0,1-1-1.42l.24-.14a3.05,3.05,0,0,0,1.27,1.15,5,5,0,0,0,1.55.35,19.11,19.11,0,0,0,.54-2.06c0-.35-.07-.43-.33-.55a3.27,3.27,0,0,0-.74-.21l0-.32a6,6,0,0,1,.77,0c.65,0,1.5.68,1.5,1.06s-.2.35-.37.7a13,13,0,0,0-.56,1.49l.52,0c.45,0,.63.28.63.52s-.18.35-.53.37a7.61,7.61,0,0,1-.9,0c-.21.7-.48,1.69-.67,2.63.7,0,1.27,0,1.57,0s.56.18.56.46-.17.39-.69.44a8.47,8.47,0,0,1-1.61,0,7.6,7.6,0,0,0-.11,1.14c0,1.4.91,2,2.23,2a2.45,2.45,0,0,0,2.73-2.38c0-1.54-.94-2.42-2.24-3.39ZM185,107.55c.15-.92.38-1.89.55-2.59-.94.07-2.19.88-2.19,1.55C183.4,106.93,183.72,107.37,185,107.55Z"/><path class="cls-1" d="M194.58,111a2,2,0,1,1,2,2A2,2,0,0,1,194.58,111Zm.48,0a1.49,1.49,0,1,0,3,0,1.49,1.49,0,1,0-3,0Z"/><path class="cls-1" d="M213.46,103.74c-.07.14-.2.2-.53.13a15.52,15.52,0,0,1-1.23,1.52l.43.16c0,.12-.17.22-.41.26v6.8a1,1,0,0,1-.75.31h-.16V106.3a15.11,15.11,0,0,1-2.23,1.85l-.16-.16a20.11,20.11,0,0,0,3.72-4.95Zm-.15-2.91c-.09.14-.21.19-.54.12a16.3,16.3,0,0,1-3.93,3.24l-.16-.18a17.87,17.87,0,0,0,3.38-3.9Zm7.06,2.94s.75.57,1.2,1c0,.15-.17.22-.35.22h-2.33v6.43c0,.76-.22,1.29-1.72,1.43a.83.83,0,0,0-.39-.67,4.18,4.18,0,0,0-1.57-.41v-.21s2,.14,2.35.14.4-.08.4-.31V105h-4.57l-.11-.4h6.43Zm-6.21-2-.11-.42h5.06l.65-.81s.75.58,1.19,1c0,.15-.16.22-.36.22Z"/><path class="cls-1" d="M226.73,103.53c-.08.15-.21.22-.54.18-.27.49-.59,1-1,1.61l.51.2c-.05.13-.19.21-.42.25v6.82a1,1,0,0,1-.73.33h-.16v-6.53a13.28,13.28,0,0,1-1.81,1.86l-.17-.17a17.76,17.76,0,0,0,2.91-5.15Zm0-2.74c-.09.14-.21.19-.54.12a15,15,0,0,1-3.48,3.24l-.14-.17a15.92,15.92,0,0,0,2.88-3.9Zm1,8.32a3,3,0,0,1-.62,2.67c-.28.27-.78.37-1,.06a.61.61,0,0,1,.26-.75,2.94,2.94,0,0,0,1.07-2Zm.15-1.71v.52a.8.8,0,0,1-.7.28H227v-4.61l1,.43h2.31v-1.53h-3.71l-.11-.42h3.82v-1.85l1.42.15c0,.19-.17.33-.52.39v1.31h2.38l.66-.82s.77.59,1.23,1c0,.15-.15.22-.35.22H231.2V104h2.63l.42-.5,1,.74a.84.84,0,0,1-.52.22v3.28a.92.92,0,0,1-.71.27h-.14v-.63Zm0-3V107h1.43v-2.56Zm5.23,7.35c.28.09.35.2.35.37,0,.37-.39.54-2.28.54h-1.31c-1,0-1.16-.21-1.16-.84v-3.21l1.26.16c0,.15-.15.28-.39.32v2.55c0,.18.06.22.46.22h2.23c.15,0,.19,0,.25-.14a9,9,0,0,0,.37-1.47H233Zm-3.38-4c3,.54,2.5,2.5,1.56,2a4.47,4.47,0,0,0-1.68-1.87Zm1.87-.83v-2.56H230V107Zm.77-2.56V107h1.57v-2.56Zm.75,4.31c3.31,1.57,2.54,3.88,1.59,3.13a6,6,0,0,0-1.74-3Z"/><path class="cls-1" d="M238.49,104.57l.27-.13c.29.44.53.76.94.76.82,0,4.9-.53,5.88-.67.39-.06.52-.27.75-.27.42,0,1.28.71,1.28,1.06s-.55.42-.72.77a12.59,12.59,0,0,1-7.11,6.38l-.2-.32a13.42,13.42,0,0,0,6.46-6.77c.06-.17,0-.25-.17-.22-1.13.11-4.2.56-5.15.75-.44.1-.63.35-.94.35s-.95-.57-1.09-.91A3.19,3.19,0,0,1,238.49,104.57Zm7-2.22a24.51,24.51,0,0,1-4,.54c-.71,0-1.1-.4-1.56-1.14l.21-.18a2.17,2.17,0,0,0,1.34.56,10.36,10.36,0,0,0,2.28-.32c.83-.18,1-.41,1.31-.41.6,0,1.08.2,1.08.53S246,102.26,245.51,102.35Z"/><path class="cls-1" d="M258.3,101.11a2.49,2.49,0,0,1,.91.15c.55.18,1.17.8,1.17,1.16s-.25.24-.63.66c-.52.58-1.21,1.33-2.13,2.22.39.25.71.49.71.68a6.43,6.43,0,0,0-.12.73c-.1,2,0,4.17,0,5,0,.51-.13.68-.42.68-.47,0-.7-.67-.7-1.13,0-.26.11-.53.16-1a34.24,34.24,0,0,0,.13-3.92,1,1,0,0,0-.21-.62,19.47,19.47,0,0,1-5.25,3.32l-.18-.33a22.28,22.28,0,0,0,6.94-5.93,1.64,1.64,0,0,0,.38-.71c0-.23-.24-.42-.82-.72Z"/><path class="cls-1" d="M267.88,103.18c.8,0,5.25-.48,5.92-.62.37-.08.55-.3.79-.3.4,0,1.38.72,1.38,1.12s-.44.54-.64,1a13.57,13.57,0,0,1-8.11,7.7l-.21-.34c4-2,6.58-5,7.45-8.29.06-.21,0-.24-.17-.24-.61,0-4.59.56-5.39.74-.38.09-.69.37-.95.37-.42,0-1.08-.68-1.22-1a2.82,2.82,0,0,1-.14-.8l.26-.09C267.08,102.73,267.39,103.18,267.88,103.18Z"/><path class="cls-1" d="M284.47,111.56c3.43-.6,5.08-2.37,5.08-4.91a4,4,0,0,0-4.16-4.09c-.17,0-.33,0-.5,0a2.64,2.64,0,0,1,.6,1.49,7,7,0,0,1-.43,2.25c-.59,1.68-2.22,4.4-3.64,4.4-.94,0-1.92-1.48-1.92-3.21a5.37,5.37,0,0,1,1.86-3.93,6,6,0,0,1,4.09-1.5c2.88,0,5.11,1.89,5.11,4.79,0,2.32-1.45,4.7-6,5Zm-.1-8.88a5.31,5.31,0,0,0-2.65,1.38,4.55,4.55,0,0,0-1.44,3.24c0,1.34.62,2.37,1.19,2.37.93,0,2.21-2.22,2.79-3.55a6.69,6.69,0,0,0,.5-2.16A2.41,2.41,0,0,0,284.37,102.68Z"/><path class="cls-1" d="M297.47,108.87c-1.05.54-2.47,1.34-4.31,2.27a.54.54,0,0,1-.29.35l-.45-1.15c.4-.1,1.1-.34,2-.62v-4h-1.65l-.1-.39h1.75V102H292.7l-.1-.39h3l.64-.83a13,13,0,0,1,1.19,1c0,.15-.16.21-.36.21h-1.82v3.4h.39l.56-.81s.66.59,1,1c0,.15-.16.22-.35.22h-1.64v3.67l2.1-.74Zm7,2.25s.78.62,1.23,1.07c0,.14-.17.21-.37.21h-9.12l-.11-.4h4.47v-2.46h-3l-.11-.42h3.08V107h-2.13v.57c0,.11-.36.31-.74.31h-.15v-7.23l1,.45h5.09l.52-.56,1.12.87a1.24,1.24,0,0,1-.61.28v5.59a1.14,1.14,0,0,1-.75.33h-.14V107h-2.27v2.14h1.79l.66-.83s.73.59,1.16,1c0,.15-.17.22-.36.22h-3.25V112h2.32Zm-6-9.63v2.32h2.13v-2.32Zm2.13,5.08v-2.34h-2.13v2.34Zm.9-5.08v2.32h2.27v-2.32Zm2.27,5.08v-2.34h-2.27v2.34Z"/><path class="cls-1" d="M310.28,107.92c0,.12-.37.33-.7.33h-.18v-3.89a9.9,9.9,0,0,1-2.76,3.16l-.18-.21a11.22,11.22,0,0,0,2.6-4.52h-2.32l-.1-.41h2.76V100l1.39.16c0,.2-.16.32-.51.38v1.83h.83l.62-.81s.7.57,1.15,1a.35.35,0,0,1-.38.23h-2.22v1c3,.83,2.36,2.67,1.45,2.09a4.89,4.89,0,0,0-1.45-1.84Zm-1.38,1.14a3,3,0,0,1-1.18,3c-.38.24-.88.29-1.05,0s.07-.55.35-.74a3.16,3.16,0,0,0,1.64-2.22Zm7.32,2.55c.32.1.42.2.42.38,0,.42-.47.58-3.06.58h-1.92c-1.24,0-1.47-.19-1.47-.9v-2.94l1.31.14a.43.43,0,0,1-.4.33v2.31c0,.2.07.24.7.24h1.79c.83,0,1.46,0,1.69,0s.24,0,.31-.19A8.41,8.41,0,0,0,316,110h.18Zm-4.41-3.43c3.24.67,2.76,2.84,1.75,2.27a4.65,4.65,0,0,0-1.89-2.13Zm2.31-.31c0,.12-.36.33-.74.33h-.14v-7.7l.95.44h3.19l.52-.56,1.14.87a1.28,1.28,0,0,1-.6.29v6.21a1.21,1.21,0,0,1-.77.32h-.14v-.81h-3.41Zm0-6.51v1.53h3.41v-1.53Zm3.41,3.49v-1.56h-3.41v1.56Zm0,2v-1.6h-3.41v1.6Zm-1.22,2.06c3.89,1.22,3.27,3.75,2.15,3a6.42,6.42,0,0,0-2.31-2.89Z"/><path class="cls-1" d="M330.62,104.11a2.3,2.3,0,0,1,1,.37,1.64,1.64,0,0,1,.76,1.1c0,.25-.14.29-.69.46a27,27,0,0,0-4,1.58c0,.8,0,1.82,0,2.27s-.15.55-.43.55-.46-.16-.46-.54.05-1.09.06-1.84c-1.35.77-2.33,1.66-2.33,2.49s.89,1.12,2.22,1.12a23.21,23.21,0,0,0,3.56-.43c.49,0,.74.16.74.43s-.07.39-.51.52a15.81,15.81,0,0,1-3.14.38c-2.61,0-3.46-.82-3.46-1.92s1.27-2.23,2.91-3.27c-.05-1.19-.32-1.62-1.05-1.62a4,4,0,0,0-2.3,1.4c-.49.53-.88,1.19-1.22,1.2s-.47-.21-.47-.56.52-.73,1.15-1.4a13.68,13.68,0,0,0,2-2.56,9,9,0,0,1-1,.07c-1.15,0-1.39-.31-1.95-1.42l.3-.18a2,2,0,0,0,1.83.88,6.38,6.38,0,0,0,1.25-.14,5.61,5.61,0,0,0,.46-1.23c.07-.25,0-.35-.25-.46a3.19,3.19,0,0,0-.79-.2v-.26a2.81,2.81,0,0,1,.8-.14c.44,0,1.35.24,1.35.57s-.11.3-.27.6-.28.58-.45.93a13.34,13.34,0,0,0,1.82-.6c.59-.27.69-.4.9-.4s.6.12.6.38-.12.31-.39.44a16.35,16.35,0,0,1-3.38,1,15.41,15.41,0,0,1-1.34,2c-.06.07,0,.14.08.08a3.61,3.61,0,0,1,1.54-.47c.89,0,1.42.6,1.56,1.65,1.13-.62,2.56-1.19,3.4-1.64.24-.13.27-.25.07-.48a2,2,0,0,0-.68-.47Z"/><path class="cls-1" d="M339.67,102.23a1.2,1.2,0,0,1-.59.28v7.07a1.2,1.2,0,0,1-.8.32h-.14v-1.37h-2.2v1.64c0,.11-.33.35-.74.35h-.15v-9l1,.46h2l.52-.58Zm-1.53,5.9v-5.79h-2.2v5.79Zm8.31-3.93s.8.62,1.27,1.08c0,.14-.18.21-.37.21h-3.8v7c0,.14-.41.38-.76.38h-.16v-7.4h-3.42l-.11-.39h3.53v-4.79l1.41.17c0,.19-.15.32-.49.38v4.24h2.21Z"/><path class="cls-1" d="M1.29,122.27c.21.48.47.79.77.79a30.17,30.17,0,0,0,3.75-.81c.35-.1.48-.3.69-.3.41,0,1.25.51,1.25.91s-.45.38-.94.74-2,1.77-2.79,2.51a3.57,3.57,0,0,1,.84-.07,1.12,1.12,0,0,1,1.12.74c.16.45.31,1,.44,1.54.19.75.42,1,1.09,1A13.16,13.16,0,0,0,9.88,129c.54,0,.84.2.84.51,0,.56-1.83.69-2.88.69-1.51,0-1.91-.37-2.15-1.5-.09-.45-.2-1-.32-1.54a.74.74,0,0,0-.76-.66,1.83,1.83,0,0,0-1.28.52A18.8,18.8,0,0,0,1,129.68a.75.75,0,0,1-.59.35.43.43,0,0,1-.42-.45c0-.49.31-.77.69-1.13.58-.56,1.73-1.62,2.46-2.32,1.07-1,2.41-2.39,3-3.07.2-.23.07-.35-.19-.28a20.7,20.7,0,0,0-2.82.88c-.38.18-.53.41-.81.41a1.51,1.51,0,0,1-1.26-1,1.58,1.58,0,0,1,0-.78Zm1.4-3.58.21-.2a4.67,4.67,0,0,0,2.65,1,7.17,7.17,0,0,0,.8-.05c.42,0,.93.28.93.68,0,.19-.12.35-.49.35a6.67,6.67,0,0,0-.86,0,14,14,0,0,0-2.41.65l-.13-.3c.56-.24,1.28-.53,1.71-.73A4.05,4.05,0,0,1,2.69,118.69Z"/><path class="cls-1" d="M16,119.49c.18.4.37.82.73.82a19.17,19.17,0,0,0,3-.63c.3-.1.35-.24.54-.24.42,0,1.19.59,1.19,1s-.32.28-.81.72c-.71.58-2.58,2.39-3.21,3.09-.1.08,0,.2.07.14a6.9,6.9,0,0,1,2.41-.49A3.09,3.09,0,0,1,23.17,127c0,1.75-1.59,3.19-4.24,3.19-1.57,0-2.63-.63-2.63-1.64a1.42,1.42,0,0,1,1.57-1.31,2.28,2.28,0,0,1,2.28,2,2.63,2.63,0,0,0,2.13-2.46,2.44,2.44,0,0,0-2.62-2.47c-2,0-3.43,1.26-4.61,2.78-.21.26-.32.35-.53.33s-.38-.21-.37-.56a1.19,1.19,0,0,1,.47-.77c2.2-2.3,4.73-4.71,5.32-5.64.13-.21,0-.27-.13-.24-.44.1-1.66.53-2.27.77-.26.11-.46.32-.68.32a1.46,1.46,0,0,1-1.16-1,1.72,1.72,0,0,1,0-.78Zm3.36,9.91a1.73,1.73,0,0,0-1.66-1.64.79.79,0,0,0-.87.75c0,.49.6.92,2,.92A5.3,5.3,0,0,0,19.32,129.4Z"/><path class="cls-1" d="M37.57,129s.82.62,1.33,1.09c0,.16-.17.23-.37.23H26.15l-.11-.42h5.88v-4.08h-4.2l-.11-.39h4.31v-3.56H28.77a12.63,12.63,0,0,1-2.63,3.25L26,125a18.52,18.52,0,0,0,3.11-6.41l1.47.46c-.06.17-.24.29-.55.28a17.58,17.58,0,0,1-1,2.15h2.91V118.1l1.46.17c0,.19-.15.33-.49.39v2.81h3.17l.71-.86a14.22,14.22,0,0,1,1.3,1c0,.15-.18.22-.38.22h-4.8v3.56h2.65l.73-.88s.79.61,1.3,1.06c0,.14-.17.21-.37.21H32.89v4.08h4Z"/><path class="cls-1" d="M39.8,121.35c3,.35,2.47,2.38,1.46,1.83a4.25,4.25,0,0,0-1.58-1.69Zm4.12-.55c-.63,1.73-1.82,4.93-2,5.61a4.38,4.38,0,0,0-.22,1.2A13.47,13.47,0,0,1,42,130c0,.61-.29,1-.78,1-.25,0-.41-.25-.43-.69.18-1.44.11-2.52-.2-2.72a1.32,1.32,0,0,0-.7-.21V127h.63c.17,0,.22,0,.36-.27.26-.5.26-.5,2.76-6Zm-3.08-2.51c3.07.47,2.52,2.55,1.48,2a4.54,4.54,0,0,0-1.61-1.86Zm10.56,3.27s.78.61,1.25,1a.32.32,0,0,1-.35.22H48.4v2.79h2l.52-.57,1.13.87a1.2,1.2,0,0,1-.6.28v4.3a1.18,1.18,0,0,1-.77.32h-.14v-1h-5.2v.79c0,.09-.38.3-.76.3h-.14v-5.7l1,.45h2.08v-2.79H43.64l-.11-.4h3.95v-2.54c-1.18.16-2.43.28-3.62.34l0-.25a35,35,0,0,0,7.09-1.76l1.09,1a.73.73,0,0,1-.74,0c-.8.18-1.78.38-2.85.53v2.68h2.33ZM45.32,126v3.37h5.2V126Z"/><path class="cls-1" d="M57.56,123.66c-.42.28-.94.63-1.55,1v4.92c0,.73-.12,1.18-1.3,1.32a1,1,0,0,0-.25-.66,1.85,1.85,0,0,0-1-.32v-.23s1.18.08,1.42.08.29-.06.29-.28v-4.27c-.32.21-.67.44-1,.66a.47.47,0,0,1-.25.38l-.54-1.09c.37-.13,1-.4,1.83-.72v-3H53.54l-.1-.42h1.72v-3l1.37.16c0,.2-.18.34-.52.38v2.48h.4l.54-.75s.62.55,1,.94c0,.16-.17.23-.37.23H56v2.59c.48-.21,1-.42,1.46-.65Zm4-2.8a.74.74,0,0,1-.52.21,18.42,18.42,0,0,1-1.31,6c1,1.92,2.38,2.46,4.47,2.46h2.26v.18a.75.75,0,0,0-.51.76H64.07c-2.19,0-3.69-.62-4.67-2.75a8.5,8.5,0,0,1-2.94,3.17l-.17-.18a9.19,9.19,0,0,0,2.78-3.84,17.19,17.19,0,0,1-.72-3.41,12.15,12.15,0,0,1-1.12,2.72l-.23-.11a26.68,26.68,0,0,0,1.31-7.94l1.39.18a.49.49,0,0,1-.48.38c-.07.61-.14,1.23-.24,1.83h1.14l.49-.54Zm-2.65.08c-.11.63-.23,1.23-.37,1.82a19,19,0,0,0,.79,3.37,20.8,20.8,0,0,0,.89-5.19Zm1.94,7.41c1-1.69,1-3.84,1-5.82V119l1,.45h1l.47-.54,1,.91a.86.86,0,0,1-.56.21v7.39c0,.18,0,.24.15.24h.41a.21.21,0,0,0,.15-.11c.06-.14.2-.94.3-1.5H66l.05,1.54c.24.1.31.18.31.36s-.29.52-1.22.52h-.39c-.66,0-.77-.25-.77-.78v-7.83H62.7v2.7c0,1.86-.09,4.33-1.66,6Z"/><path class="cls-1" d="M69.43,127.55a2.68,2.68,0,0,1-1.08,3.17c-.42.24-.95.25-1.1-.08a.6.6,0,0,1,.38-.73,2.55,2.55,0,0,0,1.56-2.36Zm.81-1.17v.52c0,.09-.41.3-.79.3h-.12v-5l1,.45h2.62V118l1.47.16c0,.21-.18.35-.53.42v1.59h3.6l.67-.86s.76.6,1.24,1.05c0,.15-.17.22-.38.22H73.88v2h3l.52-.56,1.15.87a1.2,1.2,0,0,1-.6.28v3.6a1.36,1.36,0,0,1-.79.29H77v-.74Zm0-3.34V126H77V123Zm1.4,4.57c2.06,1.88.94,3.81.17,2.87a6.87,6.87,0,0,0-.37-2.81Zm2.53,0c3,1.62,2.13,3.74,1.2,2.94A7.1,7.1,0,0,0,74,127.65Zm2.79-.06c3.87,1.51,3.24,4,2.16,3.24a7.4,7.4,0,0,0-2.33-3.11Z"/><path class="cls-1" d="M90.94,122.11a2.3,2.3,0,0,1,1,.37,1.64,1.64,0,0,1,.76,1.1c0,.25-.14.29-.69.46a27,27,0,0,0-4,1.58c0,.8,0,1.82,0,2.27s-.15.55-.43.55-.46-.16-.46-.54,0-1.09.06-1.84c-1.35.77-2.33,1.66-2.33,2.49s.89,1.12,2.22,1.12a23.21,23.21,0,0,0,3.56-.43c.49,0,.74.16.74.43s-.07.39-.51.52a15.81,15.81,0,0,1-3.14.38c-2.61,0-3.46-.82-3.46-1.92s1.27-2.23,2.91-3.27c0-1.19-.32-1.62-1-1.62a4,4,0,0,0-2.3,1.4c-.49.53-.88,1.19-1.22,1.2s-.47-.21-.47-.56.52-.73,1.15-1.4a13.68,13.68,0,0,0,2-2.56,9,9,0,0,1-1,.07c-1.15,0-1.39-.31-2-1.42l.3-.18a2,2,0,0,0,1.83.88,6.38,6.38,0,0,0,1.25-.14,5.61,5.61,0,0,0,.46-1.23c.07-.25,0-.35-.25-.46a3.19,3.19,0,0,0-.79-.2v-.26a2.81,2.81,0,0,1,.8-.14c.44,0,1.35.24,1.35.57s-.11.3-.27.6-.28.58-.45.93a13.34,13.34,0,0,0,1.82-.6c.59-.27.69-.4.9-.4s.6.12.6.38-.12.31-.39.44a16.35,16.35,0,0,1-3.38,1,15.41,15.41,0,0,1-1.34,2c-.06.07,0,.14.08.08a3.61,3.61,0,0,1,1.54-.47c.89,0,1.42.6,1.56,1.65,1.13-.62,2.56-1.19,3.4-1.64.24-.13.27-.25.07-.48a2,2,0,0,0-.68-.47Z"/><path class="cls-1" d="M99.61,123.62a1,1,0,0,1-.54.25v5.62a1.29,1.29,0,0,1-.75.26H98.2v-1H96.59v1.36a.85.85,0,0,1-.72.28h-.12v-5.72a13,13,0,0,1-1,1.6l-.21-.18a18.41,18.41,0,0,0,1.93-6.32H94.77l-.1-.42h3.49l.64-.79s.71.56,1.18,1a.33.33,0,0,1-.37.23H97.37a17,17,0,0,1-.92,3.39l.3.14h1.33l.47-.53Zm-1.41,4.75v-4.64H96.59v4.64Zm8.22.39a13.87,13.87,0,0,1,1.11,1c0,.15-.16.22-.34.22h-5.7v.66c0,.07-.27.29-.7.29h-.14V124a9.94,9.94,0,0,1-1.33,1.17l-.17-.15A12.82,12.82,0,0,0,102,120.4h-1.27a2.05,2.05,0,0,1-.48,1.37c-.28.22-.74.28-.91,0a.58.58,0,0,1,.29-.74,2.28,2.28,0,0,0,.7-1.72h.24a3.16,3.16,0,0,1,.13.7h1.44a14.9,14.9,0,0,0,.55-1.92l1.41.41c-.05.17-.18.25-.54.25q-.19.61-.45,1.26H106l.56-.57,1,1c-.11.11-.24.13-.52.14a12.24,12.24,0,0,1-1.3,1.18l-.2-.09c.13-.32.33-.82.47-1.24h-3a13.76,13.76,0,0,1-1.37,2.43l.07,0h1.55a15.13,15.13,0,0,0,.52-2l1.36.31c-.06.17-.21.29-.51.29a11.54,11.54,0,0,1-1,1.43h1.93l.6-.71s.68.5,1.1.89a.33.33,0,0,1-.37.23h-2.7V125h1.2l.58-.71s.64.5,1.05.91c0,.15-.17.22-.37.22h-2.46v1.81h1.3l.58-.73s.64.52,1,.91c0,.16-.17.23-.35.23h-2.58v1.89h1.62Zm-4.93-5.49V125h1.83v-1.73Zm1.83,2.15h-1.83v1.81h1.83Zm-1.83,4.11h1.83v-1.89h-1.83Z"/><path class="cls-1" d="M119.89,128.91s.82.62,1.31,1.08c0,.16-.16.23-.37.23H108.46l-.12-.41h7.07a59.36,59.36,0,0,0,2-7.55l1.55.41c0,.16-.21.29-.53.3a43.73,43.73,0,0,1-2.7,6.84h3.43ZM109,121h5.32v-2.87l1.44.15c0,.2-.17.34-.5.38V121h3.43l.7-.9s.81.63,1.33,1.07c0,.15-.19.22-.39.22H109.06Zm2.27,1.43c3,4,2.25,7.32,1.15,6.16A17.43,17.43,0,0,0,111,122.5Z"/><path class="cls-1" d="M124.5,119.7v-.3a4.17,4.17,0,0,1,.91-.1c.66,0,1.63.75,1.63,1.14s-.27.39-.39,1a36,36,0,0,0-.47,5.49c0,1.78.52,2.45,2.06,2.45a6.49,6.49,0,0,0,5.31-3l.31.21a6.26,6.26,0,0,1-5.62,3.73c-1.87,0-2.84-.91-2.84-3.31,0-2.17.34-5.46.34-6.27,0-.51-.09-.66-.33-.8A2.5,2.5,0,0,0,124.5,119.7Z"/><path class="cls-1" d="M142.93,124.12a11.83,11.83,0,0,0,2-.43,5,5,0,0,1,.88-.31c.29,0,.66.14.66.43s-.16.35-.41.45a16,16,0,0,1-3.12.62c0,.91.12,1.69.19,2.35a7.48,7.48,0,0,1,3.34,1.49,1,1,0,0,1,.47.77.36.36,0,0,1-.38.4c-.25,0-.4-.14-.65-.38a7.21,7.21,0,0,0-2.72-1.52c0,.19,0,.38,0,.56,0,1.19-1,1.88-2.54,1.88-1.37,0-2.38-.64-2.38-1.63s1.44-1.72,3.19-1.72a8.45,8.45,0,0,1,.89,0c0-.56-.07-1.32-.1-2.17-.58,0-1.15.08-1.71.08-2,0-2.93-.91-1.43-2.39l.3.17c-.9,1.16-.31,1.49,1.09,1.49a14.26,14.26,0,0,0,1.72-.09v-.56c0-.47,0-1,0-1.43-.71.07-1.43.12-2.11.12a2.91,2.91,0,0,1-2.84-1.45l.24-.2a3.18,3.18,0,0,0,2.48.91,17.28,17.28,0,0,0,2.24-.17c0-.71,0-1.26,0-1.38,0-.28-.05-.35-.28-.44a5.58,5.58,0,0,0-1-.15l0-.3a2.36,2.36,0,0,1,1-.22c.6,0,1.47.39,1.47.76s-.18.4-.25.77-.09.51-.13.85a16.26,16.26,0,0,0,2.13-.49,3.89,3.89,0,0,1,.81-.28c.34,0,.73.14.73.43s-.2.35-.46.45a19.79,19.79,0,0,1-3.29.7c0,.47-.06,1-.06,1.68Zm-.52,3.67a7.59,7.59,0,0,0-1.27-.11c-1.38,0-2.26.5-2.26,1.08s.51.9,1.44.9C142,129.66,142.4,129.12,142.41,127.79Z"/><path class="cls-1" d="M151.94,119.7v-.3a4.17,4.17,0,0,1,.91-.1c.66,0,1.63.75,1.63,1.14s-.27.39-.39,1a36,36,0,0,0-.47,5.49c0,1.78.52,2.45,2.06,2.45a6.49,6.49,0,0,0,5.31-3l.31.21a6.26,6.26,0,0,1-5.62,3.73c-1.87,0-2.84-.91-2.84-3.31,0-2.17.33-5.46.33-6.27,0-.51-.08-.66-.32-.8A2.5,2.5,0,0,0,151.94,119.7Z"/><path class="cls-1" d="M166.78,119a3.2,3.2,0,0,1,.89-.1c.5,0,1.38.37,1.4.69a6.31,6.31,0,0,1-.37,1.12c-.07.25-.15.6-.26,1a11.81,11.81,0,0,0,1.76-.74,1.32,1.32,0,0,1,.48-.19c.24,0,.6.14.6.39s-.15.4-.67.63a19.63,19.63,0,0,1-2.43.78c-.19.69-.43,1.45-.68,2.12a34.08,34.08,0,0,1-2.16,5.12c-.2.33-.34.45-.62.45s-.4-.25-.4-.57.12-.43.33-.81a19.13,19.13,0,0,0,2.19-4.43c.18-.52.36-1.11.53-1.69a9.55,9.55,0,0,1-1.61.16,2,2,0,0,1-1.95-1.37l.24-.18a2.38,2.38,0,0,0,1.71.8,7.73,7.73,0,0,0,1.82-.23,13.64,13.64,0,0,0,.35-1.82.46.46,0,0,0-.29-.56,6.47,6.47,0,0,0-.89-.24Zm2.47,7.83a4,4,0,0,0,.47,1.33,2.78,2.78,0,0,0,2.55,1.08,13.67,13.67,0,0,0,2.26-.26c.32,0,.69.15.69.47s-.37.44-.77.52a8.67,8.67,0,0,1-1.88.18c-1.63,0-2.92-.49-3.35-1.72a4.09,4.09,0,0,1-.31-1.56Zm.8-3.28a7.29,7.29,0,0,1,2.53-.5,4.49,4.49,0,0,1,1.89.34c.32.16.51.37.51.61s-.24.32-.58.35a2.51,2.51,0,0,0-.82.23,14.49,14.49,0,0,0-1.57.73l-.18-.26c.47-.31,1.28-.84,1.47-1s.07-.15-.06-.2a4,4,0,0,0-1.23-.16,8.61,8.61,0,0,0-1.88.22Z"/><path class="cls-1" d="M177,129a2,2,0,1,1,2,2A2,2,0,0,1,177,129Zm.47,0a1.5,1.5,0,1,0,3,0,1.5,1.5,0,0,0-3,0Z"/><path class="cls-2" d="M84,3.22a4.82,4.82,0,0,1-.21,3.57c-.27.4-.85.57-1.1.25a.74.74,0,0,1,.21-.93,4.92,4.92,0,0,0,.81-2.91Zm2.58-3c0,.22-.18.38-.58.44V14.34c0,.16-.45.4-.81.4H85V.06Zm5.47,7.87c.51,2.11,1.88,4,5.48,5.22l0,.19c-.53.08-.86.26-1,.83a7.47,7.47,0,0,1-4.78-6.24h-.11c-.47,2.91-1.73,4.9-5.19,6.28l-.19-.31a7.15,7.15,0,0,0,4.37-6H86.77l-.12-.48h4.06a32.83,32.83,0,0,0,.19-3.9H88.05l-.12-.47h3c0-.94,0-1.95,0-3L92.5.42c0,.22-.19.4-.56.44,0,.85,0,1.65,0,2.42h2.29l.57-.62,1.25,1a1.34,1.34,0,0,1-.69.32V7.65h.34l.66-.94s.75.68,1.18,1.17a.37.37,0,0,1-.4.25ZM86.53,2.82c2.42,1.58,1.4,3.45.55,2.64a6.1,6.1,0,0,0-.75-2.56Zm5.4.93a32.54,32.54,0,0,1-.21,3.9h2.66V3.75Z"/><path class="cls-2" d="M104.17,11.83c1.13,1.3,2.38,1.49,5.17,1.49,1.92,0,4.48,0,6.43-.07v.23a.89.89,0,0,0-.78.86h-5.64c-2.94,0-4.26-.37-5.39-2.19a27.47,27.47,0,0,1-2.08,2.18.31.31,0,0,1-.16.36L101,13.41c.53-.25,1.4-.75,2.21-1.24V7.38h-2.06L101,6.91H103l.6-.83L105,7.23a1.26,1.26,0,0,1-.78.29ZM101.83.56c3.84,1.3,3,3.92,1.79,3.06a6.5,6.5,0,0,0-2-2.93Zm3.22,1.18h4.59V0l1.55.16c0,.21-.16.35-.52.42V1.74h2.92l.74-.91A15.56,15.56,0,0,1,115.72,2c0,.17-.17.24-.4.24H112l1.47.38c0,.18-.25.32-.56.32a9.18,9.18,0,0,1-1.23,1.32h2l.53-.66,1.33,1a1.18,1.18,0,0,1-.71.3v6.55c0,.78-.16,1.26-1.5,1.37a1,1,0,0,0-.29-.67,2.29,2.29,0,0,0-1.15-.35v-.22a2.19,2.19,0,0,1-.28,0h-.16v-.72h-2.51v.8c0,.08-.37.29-.73.29H108V7.7l.94.43h.77V6.67H107.3l-.12-.46h2.54V5l1.31.16c0,.17-.16.3-.45.35v.75h1.29l.56-.69s.62.51,1,.9a.37.37,0,0,1-.4.25h-2.47V8.13h.84l.43-.51,1,.85a1.29,1.29,0,0,1-.6.27v2.59c0,.05-.16.13-.35.19.29,0,1.3.1,1.57.1s.32-.08.32-.29V4.69H106.7v7.67c0,.11-.39.36-.82.36h-.16v-9l1.07.52h1.63a1.12,1.12,0,0,1-.27-.16,3.84,3.84,0,0,0-.73-1.78l.17-.08c1.91.64,1.78,1.81,1.22,2h2.35a14.41,14.41,0,0,0,.66-2h-6.66Zm6.33,8.65V8.59h-2.51v1.8Z"/><path class="cls-2" d="M132.49,1.7a1.54,1.54,0,0,1-.77.35V14.23a1.28,1.28,0,0,1-.93.42h-.16V13.41H123v.88c0,.15-.4.44-.86.44h-.21V.78l1.17.55h7.38l.64-.74ZM123,1.79V5.14h7.65V1.79Zm0,3.81V9h7.65V5.6ZM130.63,13V9.48H123V13Z"/><path class="cls-2" d="M151.07,2.08s.89.69,1.44,1.22c0,.17-.18.24-.4.24H137.92l-.12-.47h5.26a.76.76,0,0,1-.41-.16A5.52,5.52,0,0,0,141,.24l.18-.13c3,1,2.83,2.92,2,3h3.15a23.06,23.06,0,0,0,1.55-3l1.7.5c-.08.17-.27.3-.64.28a15.91,15.91,0,0,1-2.11,2.21h3.47Zm-7.33,2.47,1.34,1a1.31,1.31,0,0,1-.69.31V13.3c0,.82-.16,1.3-1.45,1.43a1,1,0,0,0-.28-.71,1.76,1.76,0,0,0-1-.35v-.26s1.15.1,1.44.1.29-.1.29-.3V10.6h-3.09v3.76c0,.11-.4.37-.85.37h-.18v-10l1.11.5h2.85Zm-3.46,1.12V7.6h3.09V5.67Zm3.09,4.45v-2h-3.09v2Zm4.78-5c0,.22-.19.38-.59.45V12c0,.13-.43.35-.8.35h-.19V5ZM150,4.61l1.59.18c-.05.2-.19.35-.56.4v8.05c0,.83-.19,1.34-1.67,1.47A.94.94,0,0,0,149,14a3,3,0,0,0-1.36-.38v-.26s1.64.13,2,.13.36-.1.36-.34Z"/><path class="cls-2" d="M156,10.72a6.29,6.29,0,0,1,3.46,2.2,1.79,1.79,0,0,1,.38,1.07.64.64,0,0,1-.66.72c-.33,0-.54-.19-.77-.67a7.26,7.26,0,0,0-2.59-3Z"/><path class="cls-2" d="M167.56,9.7c1,4.55-1.76,4.07-1,2.85a4.68,4.68,0,0,0,.72-2.85ZM174,8.16a.92.92,0,0,1-.62.24c-.16,3.16-.58,4.79-1.22,5.33a2.06,2.06,0,0,1-1.43.47.89.89,0,0,0-.2-.66,2.75,2.75,0,0,0-1-.33v-.28c.48,0,1.23.1,1.52.1a.73.73,0,0,0,.53-.15c.4-.35.72-1.84.88-4.59h-4V8.8a.86.86,0,0,1-.78.34h-.15V.74l1.14.48H172l.71-.84s.78.6,1.28,1.06c0,.18-.2.26-.42.26h-2.71V3.39H172l.59-.78a13.86,13.86,0,0,1,1.15,1c0,.18-.19.26-.4.26h-2.45V5.59h1.05l.6-.77s.72.56,1.16,1a.37.37,0,0,1-.4.26h-2.41V7.83h1.41l.56-.6ZM168.5,9.54c1.54,2.05.56,3.76-.09,3a7.7,7.7,0,0,0-.15-2.9Zm-.11-7.84V3.39h1.55V1.7Zm1.55,2.16h-1.55V5.59h1.55Zm-1.55,4h1.55V6.07h-1.55Zm1.06,1.44c2.05,1.57,1.23,3.17.52,2.46a6,6,0,0,0-.73-2.37Zm1-.35c2.25.78,1.56,2.4.8,1.8a3.46,3.46,0,0,0-1-1.68Zm6.6-2.13c.67,3,2.14,5.71,4.45,6.83l0,.18a1.2,1.2,0,0,0-.9.93c-2.22-1.59-3.3-4.31-3.84-7.94h-1c-.06,2.72-.46,5.81-2.85,8l-.24-.16c1.86-2.4,2.08-5.46,2.08-8.51V.74l1.2.51h3.51L180,.62l1.26,1a1,1,0,0,1-.65.3V7.35a1.49,1.49,0,0,1-.87.33h-.14V6.79Zm-1.33-.48h3.86V1.71h-3.86v4.6Z"/><path class="cls-2" d="M190.15,4c-.09.18-.25.24-.64.18a17.64,17.64,0,0,1-1.38,1.86l.45.17c-.06.15-.22.24-.48.29v7.84a1.08,1.08,0,0,1-.83.37h-.19V7.27A19.63,19.63,0,0,1,185,9.19L184.81,9a25.17,25.17,0,0,0,3.81-5.72ZM189.82.9c-.1.16-.26.22-.61.14a16.25,16.25,0,0,1-4.12,3.33l-.17-.21A16.75,16.75,0,0,0,188.36.08ZM195.13,13a10.31,10.31,0,0,0,2.56.27c.53,0,1.63,0,2.26,0v.23c-.37.06-.55.41-.56.85h-1.81c-3.09,0-4.87-.9-5.89-4.33a8.81,8.81,0,0,1-2.8,4.71l-.18-.18c1.6-1.84,2.21-4.85,2.32-7.36l1.67.3c0,.23-.23.36-.58.37-.08.53-.18,1.09-.3,1.65a5.16,5.16,0,0,0,2.29,3.11V6.07l1.53.16c0,.2-.16.36-.51.41V8.9h2l.74-.93s.83.67,1.36,1.14c0,.17-.21.25-.44.25h-3.66ZM190.42,2.53h3.4V.18l1.57.16c0,.2-.18.35-.53.41V2.53H197l.74-.91s.83.64,1.36,1.13c0,.18-.19.26-.42.26h-3.79V5.49h2.8l.73-.93s.85.66,1.38,1.15c-.05.18-.19.26-.41.26h-9.62l-.13-.48h4.21V3h-3.27Z"/><path class="cls-2" d="M216.6,4.15s.91.7,1.48,1.21c-.05.18-.2.26-.44.26H203.56l-.13-.48h3.07V1.28l1.54.16c0,.21-.18.35-.53.42V5.14h2.72V.06l1.63.18c0,.22-.19.38-.57.43V2.48H214l.79-1s.88.71,1.44,1.19c0,.18-.21.26-.44.26h-4.54V5.14h4.5Zm-7.78,2.92c-.08.15-.22.23-.59.16A13.45,13.45,0,0,1,203.62,11l-.14-.21a14,14,0,0,0,3.87-4.48Zm-4.77,7.35c4.13-.81,7.37-2,10-5.67l1.42.84c-.09.16-.27.19-.67.11-2.9,3.47-6.19,4.5-10.64,5ZM208,10s1.59.12,1.91.12.33-.08.33-.31V5.7l1.59.17c0,.23-.19.32-.53.39V9.88c0,.83-.19,1.34-1.65,1.48a1.06,1.06,0,0,0-.35-.73,2.53,2.53,0,0,0-1.3-.39Zm5.28-3.47c5,1.3,4.68,4,3.38,3.41a10.7,10.7,0,0,0-3.52-3.23Z"/><path class="cls-2" d="M223.46,6.72a6.29,6.29,0,0,1,1.81-.27c2.21,0,3.71,1.26,3.71,3.52a3.66,3.66,0,0,1-4,3.75,2.94,2.94,0,0,1-3.2-2.31.75.75,0,0,1,.75-.53c.45,0,.64.23.85,1l.32,1a4.33,4.33,0,0,0,1.18.18,2.64,2.64,0,0,0,2.8-2.95,2.59,2.59,0,0,0-2.8-2.85,5.41,5.41,0,0,0-1.74.27l-.45-.09.37-5.24h5.62v1.2h-5Z"/><path class="cls-2" d="M239.42.72c-.07.18-.21.27-.61.22A14.26,14.26,0,0,1,233,7.27l-.15-.21a15.2,15.2,0,0,0,5-7Zm4.65,5,1.24,1a1.07,1.07,0,0,1-.64.24c-.21,3.52-.68,6.29-1.45,7a2.53,2.53,0,0,1-1.88.63.85.85,0,0,0-.36-.77,6.47,6.47,0,0,0-1.82-.48v-.27c.82.08,2.25.21,2.65.21a.8.8,0,0,0,.65-.21c.56-.47.95-3.06,1.12-6.26h-3.9c-.27,2.66-1.12,5.65-6.05,7.88l-.21-.26c4.32-2.39,5-5.25,5.1-7.62h-3.36L235,6.37h8.43ZM241.91.05a12.49,12.49,0,0,0,5.84,5.84l0,.18a1.18,1.18,0,0,0-1,.83A13.2,13.2,0,0,1,241.64.21Z"/><path class="cls-2" d="M251.08,12.55a2.25,2.25,0,1,1,2.25,2.26A2.26,2.26,0,0,1,251.08,12.55Zm.54,0a1.71,1.71,0,1,0,1.71-1.7A1.7,1.7,0,0,0,251.62,12.55Z"/><path class="cls-2" d="M76.16,33.83a6.57,6.57,0,0,1-2.36,4.83l-.19-.21c1.41-1.77,1.56-4,1.56-6.05V29.22h0V26l1.07.45h3l.51-.51,1.12.83a1,1,0,0,1-.51.26V28.8a1.3,1.3,0,0,1-.83.31h-.16v-2.2H76.14v2c0,.1-.45.31-.85.31H75.2l1.2.51h4.22V28.27l1.41.15V26l1.06.45h2.82l.54-.57,1.26.93a1.4,1.4,0,0,1-.67.3V28.8s0,.05-.08.08c.18.13.83.66,1.28,1.07,0,.18-.19.24-.41.24H83.22v1.22h2.33l.53-.59,1.22.91a1.12,1.12,0,0,1-.59.29v2a1.51,1.51,0,0,1-.87.32h-.16v-.56ZM74.7,25.49,74.57,25h4.58l.67-.81s.76.59,1.23,1c0,.18-.19.26-.43.26Zm3.81,11.73,3.41-.38,0,.25c-1.2.34-2.88.79-5.2,1.3a.51.51,0,0,1-.35.35l-.64-1.25c.41,0,1-.08,1.74-.16V34l1.47.15c0,.17-.14.3-.46.37v.91h1.63l.61-.79s.71.56,1.14,1a.36.36,0,0,1-.4.26h-3Zm-2.3-4.82c0,.31,0,.63,0,1h2.56V31.86H76.21Zm0-2.21v1.22h2.54V30.19Zm.76-3c2.26.53,1.52,2.08.72,1.51a2.64,2.64,0,0,0-.89-1.38Zm5.27,3H79.73v1.22h2.51Zm-2.51,3.16h2.51V31.86H79.73Zm1.77-7.86L81.38,25H86l.71-.84s.78.6,1.28,1.05c0,.18-.21.26-.44.26Zm.16,4.24h4.55l.64-.78a1.83,1.83,0,0,1-.64.16h-.16v-2.2H83v2c0,.1-.44.32-.84.32H82v-.61a.55.55,0,0,1-.37.2Zm6.2,7.64c.33.11.43.22.43.43,0,.45-.46.59-2.8.59H83.87c-1.2,0-1.41-.24-1.41-1V34l1.48.16c0,.19-.18.33-.47.36V36a14.05,14.05,0,0,0,3-1.47l1.12.8c-.12.13-.25.16-.57.06a18.06,18.06,0,0,1-3.51,1v.94c0,.21.07.26.59.26h1.48c.64,0,1.18,0,1.37,0s.23,0,.29-.16A5.34,5.34,0,0,0,87.6,36h.21Zm-4.64-5.51v1.49h2.46V31.86Zm.52-4.69c2.34.51,1.6,2.14.77,1.55a2.79,2.79,0,0,0-.93-1.42Z"/><path class="cls-2" d="M93.36,25.92v-.34a4.72,4.72,0,0,1,1-.11c.75,0,1.85.85,1.85,1.3s-.3.45-.44,1.2a41.64,41.64,0,0,0-.53,6.27c0,2,.59,2.8,2.35,2.8a7.42,7.42,0,0,0,6.07-3.42l.35.24a7.15,7.15,0,0,1-6.42,4.26c-2.14,0-3.25-1-3.25-3.78,0-2.48.39-6.24.39-7.17,0-.58-.1-.75-.37-.91A3,3,0,0,0,93.36,25.92Z"/><path class="cls-2" d="M114.21,37.19c3.92-.69,5.81-2.71,5.81-5.6a4.55,4.55,0,0,0-4.76-4.68,5.46,5.46,0,0,0-.57,0,3,3,0,0,1,.69,1.69,8,8,0,0,1-.5,2.58c-.67,1.92-2.53,5-4.16,5-1.07,0-2.19-1.7-2.19-3.67a6.15,6.15,0,0,1,2.12-4.5,6.94,6.94,0,0,1,4.68-1.71c3.3,0,5.84,2.16,5.84,5.47,0,2.66-1.66,5.38-6.9,5.72ZM114.09,27a6.07,6.07,0,0,0-3,1.59,5.15,5.15,0,0,0-1.65,3.69c0,1.54.71,2.71,1.36,2.71,1.06,0,2.53-2.53,3.19-4.05a7.66,7.66,0,0,0,.57-2.47A2.73,2.73,0,0,0,114.09,27Z"/><path class="cls-2" d="M129.5,29.22l.11-.31a3.41,3.41,0,0,1,.95.1c.67.18,1.52,1.1,1.52,1.58,0,.31-.35.45-.64.8a18,18,0,0,1-5.72,4.73l-.24-.32c2.07-1.41,5.11-4.47,5.11-5.59C130.59,29.84,129.92,29.43,129.5,29.22Zm9.25,6.19c-.4,0-.49-.32-.75-1a12.85,12.85,0,0,0-4.11-5.31l.25-.32c2.28,1.23,5,3.71,5.19,5.65C139.39,35.06,139.12,35.41,138.75,35.41Zm-2.7-7.7a1.76,1.76,0,1,1,1.76,1.76A1.76,1.76,0,0,1,136.05,27.71Zm.53,0a1.23,1.23,0,1,0,1.23-1.23A1.23,1.23,0,0,0,136.58,27.71Z"/><path class="cls-2" d="M145.12,30.72c.35.55.61,1,1.28,1,1.42,0,7-.37,7.76-.4,1.07-.08,1.52-.17,1.94-.17.61,0,1.33.27,1.33.7s-.16.47-.71.47-1.12,0-2.09,0-5.51.24-6.71.39c-.91.09-1.09.33-1.55.33s-1.2-.78-1.43-1.33a2.67,2.67,0,0,1-.14-.89Z"/><path class="cls-2" d="M166.33,25.15a4.86,4.86,0,0,1,1,.07c.62.14,1.47.62,1.47.91s-.23.43-.47.83-.35.59-.54.87h.3a31.08,31.08,0,0,0,3.19-.3c.43-.1.54-.37.82-.37s1.39.66,1.39,1.07-.53.42-.75.83a20.12,20.12,0,0,1-10,9.16l-.24-.35c4.11-2.15,7.87-6.28,9.12-9.45.08-.19,0-.24-.13-.24-.35,0-2,.26-2.56.37a5.25,5.25,0,0,1-.89.21,1.33,1.33,0,0,1-.69-.38,15,15,0,0,1-4.74,4.16l-.24-.34c2.5-1.79,4.85-5.06,4.85-6,0-.27-.41-.52-1-.76Z"/><path class="cls-2" d="M184.56,25.42a3.3,3.3,0,0,1,1-.2c.74,0,1.62.65,1.62,1s-.29.26-.32.92,0,1.42-.07,2.11c1.89-.16,2.05-.27,2.4-.27.64,0,1.52.3,1.52.8,0,.27-.11.37-.39.37s-1-.15-2.18-.15l-1.36,0c-.07,2-.13,4-1.17,5.4a8.51,8.51,0,0,1-4.08,2.78l-.23-.36A8.36,8.36,0,0,0,184.79,35a9.63,9.63,0,0,0,1-4.91c-1.15.08-2.38.19-3.39.3,0,1.28,0,2.6,0,3.06,0,.64-.13.88-.47.88s-.65-.69-.65-1.14.22-1,.25-2.7a14.79,14.79,0,0,0-1.93.33,5.87,5.87,0,0,1-1.12.32c-.4,0-1.06-.75-1.22-1.1a2.67,2.67,0,0,1-.1-.88l.29-.1c.29.47.58,1,1,1,.61,0,2.14-.17,3.1-.28a16.48,16.48,0,0,0-.11-2.45c-.08-.32-.45-.42-1.12-.51v-.33a3.18,3.18,0,0,1,.9-.17c.51,0,1.47.45,1.47.88s-.19.35-.22.86a16.39,16.39,0,0,0,0,1.64l3.39-.34a29.08,29.08,0,0,0,0-3.06c0-.33-.46-.41-1.15-.51Z"/><path class="cls-2" d="M201.89,25.25a2.81,2.81,0,0,1,1,.17c.62.21,1.33.92,1.33,1.33s-.29.28-.72.75c-.6.66-1.38,1.53-2.44,2.53.45.29.82.56.82.79a7.27,7.27,0,0,0-.14.83c-.12,2.32,0,4.77,0,5.73,0,.59-.14.79-.48.79-.52,0-.8-.77-.8-1.3,0-.29.13-.61.2-1.14a42.15,42.15,0,0,0,.14-4.48,1.08,1.08,0,0,0-.24-.7,22.51,22.51,0,0,1-6,3.79l-.21-.38a25.41,25.41,0,0,0,7.94-6.78,1.92,1.92,0,0,0,.43-.81c0-.26-.27-.48-.94-.82Z"/><path class="cls-2" d="M210.82,25.62a4.65,4.65,0,0,1,1-.2c.67,0,1.76.61,1.76,1s-.29.39-.35.91c-.08.77-.11,1.94-.13,2.82a13.7,13.7,0,0,1,3.95,1.47,1.61,1.61,0,0,1,.9,1.2.51.51,0,0,1-.51.55c-.53,0-.71-.55-1.67-1.28a12.48,12.48,0,0,0-2.67-1.38c0,1.1,0,3.73,0,5.43,0,.7.05,1.18.05,1.45s-.16.61-.51.61c-.53,0-.8-.88-.8-1.42,0-.36.14-.64.21-1.25.13-1.19.13-3.81.13-5s0-3-.1-3.82c-.05-.52-.4-.61-1.25-.71Zm5.07,1.17a6.91,6.91,0,0,1,1.82,1,1.33,1.33,0,0,1,.56,1,.36.36,0,0,1-.38.4c-.26,0-.43-.35-.77-.77a7.52,7.52,0,0,0-1.45-1.39Zm1.33-1.32a6,6,0,0,1,1.82.93,1.29,1.29,0,0,1,.59,1c0,.28-.14.4-.36.4s-.45-.37-.79-.76A8.58,8.58,0,0,0,217,25.74Z"/><path class="cls-2" d="M228,30.45l-1.77,1.17v5.62c0,.83-.14,1.34-1.48,1.5a1.12,1.12,0,0,0-.29-.75,2.25,2.25,0,0,0-1.15-.37v-.25s1.34.09,1.61.09.34-.08.34-.32V32.26l-1.19.75a.55.55,0,0,1-.28.43l-.63-1.24c.43-.15,1.19-.45,2.1-.82V28h-1.86l-.11-.48h2V24.08l1.57.18c0,.22-.21.38-.6.43v2.83h.45l.63-.85s.7.63,1.13,1.08c0,.17-.19.25-.41.25h-1.8v3l1.67-.73Zm4.57-3.2c-.11.14-.27.19-.59.24a21.23,21.23,0,0,1-1.5,6.87c1.1,2.19,2.72,2.81,5.1,2.81h2.6v.21a.85.85,0,0,0-.6.86h-2.14c-2.5,0-4.21-.7-5.33-3.14a9.86,9.86,0,0,1-3.36,3.62l-.19-.21a10.54,10.54,0,0,0,3.16-4.38,19.93,19.93,0,0,1-.81-3.89,14.74,14.74,0,0,1-1.28,3.1l-.27-.13a30.76,30.76,0,0,0,1.5-9.07l1.58.21c0,.22-.2.38-.54.43-.08.7-.16,1.41-.27,2.1h1.29l.56-.63Zm-3,.09c-.13.73-.27,1.41-.43,2.09a21.16,21.16,0,0,0,.91,3.84,23.66,23.66,0,0,0,1-5.93Zm2.21,8.47c1.12-1.93,1.17-4.38,1.17-6.66V25.07l1.1.51h1.17l.54-.62,1.17,1a.93.93,0,0,1-.64.24v8.45c0,.21,0,.27.18.27h.46a.24.24,0,0,0,.18-.12c.06-.16.22-1.08.33-1.72h.21l.07,1.76c.27.12.35.21.35.42,0,.37-.34.59-1.4.59h-.44c-.76,0-.88-.29-.88-.89V26.05h-1.46v3.09c0,2.13-.1,4.94-1.89,6.86Z"/><path class="cls-2" d="M244.3,34.9c.48,2.05-.46,3.2-1.23,3.62-.48.27-1.09.29-1.25-.1s.1-.65.43-.83A2.91,2.91,0,0,0,244,34.9Zm.93-1.34v.59c0,.11-.46.35-.9.35h-.14V28.77l1.14.51h3V24l1.68.18c0,.24-.21.4-.61.48v1.82h4.12l.76-1s.87.69,1.41,1.2c-.05.18-.19.26-.43.26h-5.86v2.3h3.4l.59-.64,1.31,1A1.27,1.27,0,0,1,254,30v4.12a1.48,1.48,0,0,1-.89.33H253v-.84Zm0-3.81v3.33H253V29.75Zm1.6,5.21c2.35,2.15,1.07,4.36.19,3.29a8,8,0,0,0-.41-3.22Zm2.9,0c3.38,1.85,2.43,4.27,1.36,3.36A8.06,8.06,0,0,0,249.52,35Zm3.18-.07c4.42,1.73,3.7,4.55,2.47,3.7A8.55,8.55,0,0,0,252.72,35Z"/><path class="cls-2" d="M260,36.55a2.25,2.25,0,1,1,2.26,2.26A2.27,2.27,0,0,1,260,36.55Zm.55,0a1.71,1.71,0,1,0,1.71-1.7A1.7,1.7,0,0,0,260.53,36.55Z"/><rect class="cls-3" x="169.86" y="55.52" width="4.95" height="4.95" transform="translate(9.47 138.84) rotate(-45)"/><line class="cls-4" x1="179.67" y1="57.99" x2="274.53" y2="57.99"/><line class="cls-4" x1="70.47" y1="57.99" x2="165.33" y2="57.99"/></g></g></svg>