<svg xmlns="http://www.w3.org/2000/svg" viewBox="0 0 960 180.04"><defs><style>.cls-1{fill:#595757;}.cls-2{fill:#009c94;}.cls-3{fill:#c29a62;}.cls-4,.cls-5{fill:none;}.cls-4{stroke:#c29a62;stroke-miterlimit:10;}</style></defs><g id="レイヤー_2" data-name="レイヤー 2"><g id="wire"><path class="cls-1" d="M234.33,99.58a1.64,1.64,0,0,1-.86.38V114.7a1.65,1.65,0,0,1-1.16.52h-.2v-1.68h-9.32v1.24c0,.2-.48.54-1.1.54h-.22V98.44l1.44.7h9l.78-.88Zm-11.54.14v6.2h9.32v-6.2ZM232.11,113V106.5h-9.32V113Z"/><path class="cls-1" d="M258.59,101.46c-.14.16-.36.18-.76.2a12.42,12.42,0,0,1-2.2,2l-.28-.16a18.27,18.27,0,0,0,.86-2.06H243.13a3.23,3.23,0,0,1-1.13,2.68c-.48.38-1.2.42-1.44,0A.85.85,0,0,1,241,103a3.68,3.68,0,0,0,1.53-3.1h.35c.08.34.15.66.19,1h5.62V97.18l2,.22c0,.28-.24.48-.7.54v2.92h1.66a37.61,37.61,0,0,0,1.9-3.5l2,.82a.69.69,0,0,1-.78.28,20.08,20.08,0,0,1-2.56,2.4h3.92L257,100Zm-3.5,6.72,1.7,1.24a1.73,1.73,0,0,1-.88.38v3c0,1-.22,1.66-2.1,1.84a1.29,1.29,0,0,0-.4-.94,3.79,3.79,0,0,0-1.7-.5v-.3s2,.14,2.46.14.46-.12.46-.38v-3.06H250v5.36a1.22,1.22,0,0,1-1.1.52h-.2v-5.88h-4.48v4.64c0,.12-.56.42-1.08.42h-.21v-6.3l1.41.64h4.36v-2.08h-2.94v.58c0,.12-.56.42-1.08.42h-.2v-5.3l1.38.62h7l.68-.74,1.56,1.16a1.42,1.42,0,0,1-.76.36v3.26a1.84,1.84,0,0,1-1.1.42h-.2v-.78H250V109h4.42ZM243.87,97.42c4,1.16,2.88,4,1.54,3.06a5,5,0,0,0-1.76-2.9Zm1.9,8.9h7.32v-2.54h-7.32Z"/><path class="cls-1" d="M270.09,101.24a1.72,1.72,0,0,1-.88.38v11.8a1.59,1.59,0,0,1-1.06.46H268v-1.44h-3.61v1.48c0,.16-.46.48-1,.48h-.2V100.16l1.32.64h.77c.24-1,.58-2.54.78-3.62l2.08.48c-.08.3-.32.44-.74.44-.4.8-1.06,1.9-1.54,2.7h2l.72-.82Zm-5.73.16v4.78H268V101.4ZM268,111.84v-5.1h-3.61v5.1Zm12.74-10.64a1.27,1.27,0,0,1-.84.32c-.28,7.08-1,11.66-2.08,12.86a3,3,0,0,1-2.44,1,1.09,1.09,0,0,0-.38-1,6,6,0,0,0-2-.62l0-.34c.92.1,2.42.24,2.88.24a1,1,0,0,0,.9-.32c.9-.8,1.5-5.4,1.8-12h-5.86a16,16,0,0,1-2.94,4.18l-.28-.18a24.84,24.84,0,0,0,3.22-8.16l2,.6c-.08.24-.3.4-.74.4a24.73,24.73,0,0,1-1,2.58h5.38l.8-.92Zm-8.6,3.28c5,2.14,3.9,5.38,2.44,4.26a9.64,9.64,0,0,0-2.66-4.1Z"/><path class="cls-1" d="M289.15,98.4a3.75,3.75,0,0,1,1.18-.24,3,3,0,0,1,1.46.34c.34.2.26.56-.48,3.12,1.92-.6,2.32-1.08,2.7-1.08a.68.68,0,0,1,.74.6c0,.36-.46.64-.68.76a13.9,13.9,0,0,1-3.16,1,35.86,35.86,0,0,1-3.78,8.22c-.28.4-.52.72-.9.72s-.59-.42-.59-.78a1.52,1.52,0,0,1,.36-1,23.21,23.21,0,0,0,3.81-7,10.92,10.92,0,0,1-1.58.12c-1.5,0-2.18-.56-2.83-2l.36-.28a3.47,3.47,0,0,0,2.69,1.16,7.59,7.59,0,0,0,1.7-.22,16.63,16.63,0,0,0,.36-2.16c0-.42-.08-.58-.42-.72a5.8,5.8,0,0,0-.94-.32Zm7.16,3.44a5.67,5.67,0,0,1,2.76.24c1.22.46,1.84,1.24,1.84,2,0,.46-.2.72-.58.72s-.8-.32-1.66-.26a3.09,3.09,0,0,0-1.86.78,2.34,2.34,0,0,0-.5,1.8c0,.6.22,1.86.38,3.06a9.25,9.25,0,0,1,3.12,1.4c1,.62,1.38,1.18,1.38,1.68s-.18.64-.5.64-.62-.34-1.06-.74a8,8,0,0,0-2.82-1.82c0,.3,0,.56,0,.8,0,1.66-1.22,2.62-3.26,2.62s-3.2-1-3.2-2.18c0-1.52,1.62-2.64,4.28-2.64.32,0,.62,0,.9,0-.06-.88-.16-1.78-.16-2.56a3.24,3.24,0,0,1,1-2.5,6.28,6.28,0,0,1,2.22-1.28c.42-.22.34-.48,0-.74a3.86,3.86,0,0,0-2.3-.6Zm-.66,9.22a9.31,9.31,0,0,0-1.72-.16c-1.82,0-2.78.76-2.78,1.48s.68,1.26,2.14,1.26c1.92,0,2.36-1,2.36-2.14Z"/><path class="cls-1" d="M306.79,104l.2-.44a21,21,0,0,1,2.68.84c1.22.5,2,1.22,2,2a.58.58,0,0,1-.58.62c-.62,0-.94-.72-2-1.5A14,14,0,0,0,306.79,104Zm14.76-1.12.46.3c-2.28,4-6.5,7.5-10.92,9.94-.4.24-.62.76-1.14.76a4.08,4.08,0,0,1-2.32-1.48,3.3,3.3,0,0,1-.44-1.34l.32-.18c.54.64,1.16,1.32,1.84,1.32C310.71,112.16,318,107.84,321.55,102.84Zm-12.08-2.72.22-.46a19.83,19.83,0,0,1,2.52.86c1.36.68,2,1.34,2,2a.6.6,0,0,1-.58.66c-.56,0-1-.8-2-1.66A12.36,12.36,0,0,0,309.47,100.12Z"/><path class="cls-1" d="M326.59,104.3c.3.36.6.78,1.08.78.92,0,4.88-.42,5.78-.56.52-.06.62-.36,1-.36s1.66.84,1.66,1.3-.46.48-.52.94c-.22,1.18-.6,3.78-.88,5.52.46.14.86.46.86.74a.44.44,0,0,1-.48.48c-.32,0-1-.14-1.68-.14a38.22,38.22,0,0,0-4.8.44,7.32,7.32,0,0,1-1,.28c-.5,0-1.2-.78-1.36-1.16a2.26,2.26,0,0,1-.18-.82l.24-.14c.34.38.64.8,1.2.8,1,0,4.34-.38,6-.5.1-.78.2-1.86.32-2.9-1.68.12-3.56.36-4.76.52-.46.08-.68.28-1,.28s-1-.64-1.24-1a2.16,2.16,0,0,1-.22-.82l.26-.14a1.83,1.83,0,0,0,1.16.7c.58,0,3.94-.36,5.86-.5.12-1,.22-1.92.28-2.38,0-.12,0-.16-.14-.16a41.6,41.6,0,0,0-5.26.6,7.15,7.15,0,0,1-1.08.34c-.46,0-1.18-.82-1.3-1.2a4.06,4.06,0,0,1-.12-.82Z"/><path class="cls-1" d="M341.47,105.14l.24-.22a6.67,6.67,0,0,1,1.4,1,2.94,2.94,0,0,1,1.26,2c0,.42-.2.72-.62.72-.64,0-.66-.78-1.22-1.86A9.16,9.16,0,0,0,341.47,105.14Zm1.58,9.78-.24-.36c5.3-2.76,8.32-7.92,8.32-9.44,0-.32-.28-.56-1.06-.88l.1-.3a3.69,3.69,0,0,1,.94,0c.74.12,1.7,1,1.7,1.5,0,.32-.34.48-.56.94A16.43,16.43,0,0,1,343.05,114.92ZM345,104.1l.24-.22a6.81,6.81,0,0,1,1.48,1.06,2.59,2.59,0,0,1,1.06,1.92.62.62,0,0,1-.66.68c-.6,0-.6-.82-1.08-1.8A8.75,8.75,0,0,0,345,104.1Z"/><path class="cls-1" d="M367.43,102a2.29,2.29,0,0,1,.94.34,2.68,2.68,0,0,1,1.12,1.54c0,.4-.52.52-1.28.92a46.24,46.24,0,0,1-7.54,2.94c0,1.2-.06,2.26-.06,2.78,0,2,.44,2.1,2.84,2.1a26.53,26.53,0,0,0,5.2-.64c.94,0,1.54.22,1.54.68s-.28.58-.66.72a25.7,25.7,0,0,1-5.94.48c-3.58,0-4.1-.6-4.12-3.42,0-1.78.22-8.36.12-9.3-.08-.56-.52-.68-1.56-.82l0-.36a5.2,5.2,0,0,1,1.42-.26c.82,0,2,.8,2,1.28s-.38.46-.44,1.08c-.1.86-.2,3-.28,4.88a28,28,0,0,0,6.68-3.26c.34-.26.4-.42.24-.76a2.24,2.24,0,0,0-.48-.66Zm5.92-1.46a2.15,2.15,0,1,1-2.14-2.14A2.14,2.14,0,0,1,373.35,100.58Zm-.66,0a1.49,1.49,0,1,0-1.48,1.48A1.48,1.48,0,0,0,372.69,100.58Z"/><path class="cls-1" d="M392,102.14l.46.3c-2.4,4.26-6.12,7.46-10.5,10.26-.4.24-.62.74-1.06.74a3.9,3.9,0,0,1-2.38-1.54,4.28,4.28,0,0,1-.42-1.3l.32-.2c.6.66,1.24,1.3,1.88,1.3C381.79,111.7,389.11,106.4,392,102.14Zm-13.44-1.88c2.28.64,5,2,5,3.54a.68.68,0,0,1-.7.74c-.32,0-.58-.22-1.1-.84a13.47,13.47,0,0,0-3.48-3Z"/><path class="cls-1" d="M401,98.78a6.47,6.47,0,0,1,1.2.08c.78.18,1.84.78,1.84,1.14s-.28.54-.58,1-.44.74-.68,1.08a2.55,2.55,0,0,0,.38,0,38.55,38.55,0,0,0,4-.38c.54-.12.68-.46,1-.46s1.74.82,1.74,1.34-.66.52-.94,1a25.1,25.1,0,0,1-12.44,11.44l-.3-.44c5.14-2.68,9.84-7.84,11.4-11.8.1-.24,0-.3-.16-.3-.44,0-2.48.32-3.2.46a6.64,6.64,0,0,1-1.12.26,1.64,1.64,0,0,1-.86-.48,18.48,18.48,0,0,1-5.92,5.2l-.3-.42c3.12-2.24,6.06-6.32,6.06-7.48,0-.34-.52-.66-1.22-1Zm7.5.24a7.26,7.26,0,0,1,2.3,1.3,1.67,1.67,0,0,1,.68,1.22.46.46,0,0,1-.48.52c-.28,0-.52-.44-.92-1a9.85,9.85,0,0,0-1.84-1.76Zm1.72-1.26a8.78,8.78,0,0,1,2.28,1.16,1.59,1.59,0,0,1,.76,1.24c0,.34-.18.52-.46.52s-.54-.46-1-1a10,10,0,0,0-1.84-1.62Z"/><path class="cls-1" d="M424.49,102.14s1,.86,1.68,1.46c-.06.22-.24.32-.52.32h-4.12v1.46c5,2.14,4.06,5.16,2.66,4.16a10.17,10.17,0,0,0-2.66-3.76V115c0,.12-.46.44-1.08.44h-.22V106.2a18.84,18.84,0,0,1-5.2,6l-.26-.28a21.37,21.37,0,0,0,5-8h-4.22l-.16-.58h4.86V99.7a47.4,47.4,0,0,1-4.78.68l-.08-.36A33.58,33.58,0,0,0,424,97.16l1.66,1.46c-.18.18-.56.18-1,0-.84.28-1.9.56-3,.82v3.9h2Zm3.58,8.84c0,.18-.54.46-1,.46h-.24V98.86l2,.22c-.06.28-.24.48-.72.54Zm5.08-13.22c-.06.28-.26.46-.74.52v15.2c0,1.1-.24,1.76-2.14,2a1.6,1.6,0,0,0-.44-1,4.35,4.35,0,0,0-1.82-.54v-.3s2.18.18,2.6.18.52-.14.52-.46V97.52Z"/><path class="cls-1" d="M441.57,102.74c-.06.18-.26.32-.6.38V115a1.5,1.5,0,0,1-1.06.44h-.24V104.24a18.61,18.61,0,0,1-2.52,3.14l-.28-.2a32.52,32.52,0,0,0,4.5-10l2.06.66c-.08.22-.32.38-.76.36a30.61,30.61,0,0,1-1.92,4.26Zm7.64,5.42a7.32,7.32,0,0,1-1.42,4,18.78,18.78,0,0,0,7.88,1.76v.24a1.6,1.6,0,0,0-1.16,1.28,15.52,15.52,0,0,1-7.44-2.52,12.51,12.51,0,0,1-5.6,2.54l-.2-.3a11.4,11.4,0,0,0,5-2.88,9.7,9.7,0,0,1-2.1-2.76l.3-.18a7.89,7.89,0,0,0,2.32,2.28,7.6,7.6,0,0,0,1.1-3.46h-3.46v.74c0,.14-.56.44-1.08.44h-.2V101l1.38.62H448V99.42h-5.1l-.16-.58h10l1-1.22s1.1.86,1.76,1.48c0,.22-.22.32-.5.32h-5.7v2.24h3.46l.74-.8,1.62,1.24a1.56,1.56,0,0,1-.86.4v6.3c0,.14-.66.44-1.1.44H453v-1.08Zm-4.74-5.9v2.34H448v-2.34Zm3.5,5.32c0-.34,0-.7,0-1.08v-1.32h-3.52v2.4Zm5,0v-2.4h-3.66v1.28c0,.38,0,.76,0,1.12Zm-3.66-5.32v2.34H453v-2.34Z"/><path class="cls-1" d="M468.37,105.14c3.1,1.54,4.26,3.38,4.26,5.56,0,1.92-1.64,4.18-5.12,4.18a3.79,3.79,0,0,1-4.16-4.08,15.09,15.09,0,0,1,.14-1.76c-1.88-.4-3-1.32-3-2.48s1.2-2.26,2.72-3a5.16,5.16,0,0,1-1.46-.64,3.18,3.18,0,0,1-1.38-2l.34-.2a4.35,4.35,0,0,0,1.82,1.64,7.09,7.09,0,0,0,2.22.5,26.89,26.89,0,0,0,.76-2.94c0-.5-.1-.62-.46-.78a4.22,4.22,0,0,0-1.06-.3l0-.46a9.16,9.16,0,0,1,1.1-.08c.94,0,2.14,1,2.14,1.52,0,.38-.28.5-.52,1a17.66,17.66,0,0,0-.8,2.12c.26,0,.5,0,.74,0,.64.06.9.4.9.74s-.26.5-.76.52a10.13,10.13,0,0,1-1.28,0c-.3,1-.68,2.42-1,3.76,1,.06,1.82,0,2.24,0s.8.26.8.66-.24.56-1,.62a11.68,11.68,0,0,1-2.3-.06,10.73,10.73,0,0,0-.16,1.62c0,2,1.3,2.92,3.18,2.92,2.64,0,3.9-1.72,3.9-3.4,0-2.2-1.34-3.46-3.2-4.84Zm-4.7,2.68c.22-1.32.54-2.7.78-3.7-1.34.1-3.12,1.26-3.12,2.22C461.33,106.94,461.79,107.56,463.67,107.82Z"/><path class="cls-1" d="M476.85,110.46a7.83,7.83,0,0,1,4.32,2.74,2.2,2.2,0,0,1,.48,1.34.8.8,0,0,1-.82.9c-.42,0-.68-.24-1-.84a9.24,9.24,0,0,0-3.24-3.8Z"/><path class="cls-1" d="M505.61,113.24s1,.82,1.7,1.42c0,.22-.22.32-.5.32H489.33l-.16-.58H496a1,1,0,0,1-.46-.22,5.26,5.26,0,0,0-1.16-2.56l.22-.12c2.72,1,2.44,2.76,1.62,2.9h3.1a25,25,0,0,0,1.22-3l2,.64a.68.68,0,0,1-.76.34,15.5,15.5,0,0,1-1.88,2h4.78Zm-15.82-6.72-.18-.58h14.7l.94-1.14s1,.8,1.7,1.42c-.06.2-.26.3-.54.3ZM493,105c0,.12-.52.42-1,.42h-.2v-6.9l1.34.62h2.58V97.16l1.84.18c0,.28-.2.44-.64.52V99.1h2.62V97.16l1.9.2c0,.26-.22.46-.68.52V99.1h2.6l.7-.78,1.6,1.22a1.5,1.5,0,0,1-.86.38v4.8a1.64,1.64,0,0,1-1,.42h-.2v-.58H493Zm9.78,6.82v-.48h-9.1v.42c0,.08-.4.36-1.06.36h-.18v-4.72l1.48.64h8.8l.64-.74,1.4,1.06a1.2,1.2,0,0,1-.7.32v2.76a1.41,1.41,0,0,1-1.08.38ZM493,99.7v1.82h2.68V99.7Zm2.68,2.4H493V104h2.68Zm7.1,8.6v-2.14h-9.1v2.14Zm-5.9-11v1.82h2.62V99.7Zm0,4.26h2.62V102.1h-2.62Zm3.84-4.26v1.82h2.8V99.7Zm2.8,4.26V102.1h-2.8V104Z"/><path class="cls-1" d="M516.59,98.94a3.32,3.32,0,0,1,1.3-.26c.82,0,2.3.7,2.3,1.2s-.4.66-.62,1.16-.5,1.24-.88,2.12a10.24,10.24,0,0,1,1.66-.18c1.5,0,2.36.82,2.36,3.18a11.83,11.83,0,0,1-1.9,6.7,3,3,0,0,1-2.42,1.26c-.66,0-.8-.28-1.06-.86-.14-.3-.28-.54-1.4-1.5l.24-.32a7,7,0,0,0,2.4,1.2,1.75,1.75,0,0,0,1.6-1,12.34,12.34,0,0,0,1.4-5.74c0-1.46-.34-2.08-1.46-2.08a7.8,7.8,0,0,0-1.8.3c-.58,1.34-1.26,2.86-1.9,4.2a50.9,50.9,0,0,1-3,5.44c-.3.48-.52.62-.82.62a.68.68,0,0,1-.6-.74,1.33,1.33,0,0,1,.32-.92,31.34,31.34,0,0,0,3.12-4.94c.48-1,1-2.14,1.5-3.3-.74.24-1.42.48-1.82.64a4.73,4.73,0,0,1-1.64.56c-.52,0-1.26-.76-1.42-1.4a2.55,2.55,0,0,1,0-1.16l.4-.06c.22.54.36,1.18.94,1.18a35.67,35.67,0,0,0,3.92-.8,16.39,16.39,0,0,0,1-3.22.49.49,0,0,0-.32-.52,5.24,5.24,0,0,0-1.52-.3Zm7.68,4.06a5.2,5.2,0,0,1,3.42,1.66,5.44,5.44,0,0,1,1.24,3.66c0,.8-.26,1.46-.84,1.48s-.54-.56-1.12-.68a12.43,12.43,0,0,0-2.36.1l-.12-.48a22.11,22.11,0,0,0,2.56-.6c.42-.16.48-.34.46-.86a4.53,4.53,0,0,0-.82-2.24,3.9,3.9,0,0,0-2.66-1.56Z"/><path class="cls-1" d="M537.37,98.4a3.75,3.75,0,0,1,1.18-.24,3,3,0,0,1,1.46.34c.34.2.26.56-.48,3.12,1.92-.6,2.32-1.08,2.7-1.08a.68.68,0,0,1,.74.6c0,.36-.46.64-.68.76a13.9,13.9,0,0,1-3.16,1,35.86,35.86,0,0,1-3.78,8.22c-.28.4-.52.72-.9.72s-.58-.42-.58-.78a1.52,1.52,0,0,1,.36-1,23.43,23.43,0,0,0,3.8-7,10.92,10.92,0,0,1-1.58.12c-1.5,0-2.18-.56-2.82-2L534,101a3.43,3.43,0,0,0,2.68,1.16,7.59,7.59,0,0,0,1.7-.22,16.63,16.63,0,0,0,.36-2.16c0-.42-.08-.58-.42-.72a5.8,5.8,0,0,0-.94-.32Zm7.16,3.44a5.67,5.67,0,0,1,2.76.24c1.22.46,1.84,1.24,1.84,2,0,.46-.2.72-.58.72s-.8-.32-1.66-.26a3.09,3.09,0,0,0-1.86.78,2.34,2.34,0,0,0-.5,1.8c0,.6.22,1.86.38,3.06a9.25,9.25,0,0,1,3.12,1.4c1,.62,1.38,1.18,1.38,1.68s-.18.64-.5.64-.62-.34-1.06-.74a8,8,0,0,0-2.82-1.82c0,.3,0,.56,0,.8,0,1.66-1.22,2.62-3.26,2.62s-3.2-1-3.2-2.18c0-1.52,1.62-2.64,4.28-2.64.32,0,.62,0,.9,0-.06-.88-.16-1.78-.16-2.56a3.24,3.24,0,0,1,1-2.5,6.28,6.28,0,0,1,2.22-1.28c.42-.22.34-.48,0-.74a3.86,3.86,0,0,0-2.3-.6Zm-.66,9.22a9.31,9.31,0,0,0-1.72-.16c-1.82,0-2.78.76-2.78,1.48s.68,1.26,2.14,1.26c1.92,0,2.36-1,2.36-2.14Z"/><path class="cls-1" d="M558.85,97.88c-.1.22-.34.36-.76.34a29.66,29.66,0,0,1-2.22,3.12c1.42,1.16.66,2.52-.28,1.88a6.06,6.06,0,0,0-1.82-2.64l.2-.16a6.1,6.1,0,0,1,1.48.62c.46-1.08,1-2.58,1.42-3.9Zm-5,15.8a22.42,22.42,0,0,0,1.18-5.2l1.8.44a.67.67,0,0,1-.7.44,14.39,14.39,0,0,1-2,4.48Zm5-9.7c3.58,1.9,2.4,4.42,1.26,3.42a6.22,6.22,0,0,0-.38-1.3l-1.42.28v8.68a1.27,1.27,0,0,1-1.06.4h-.18v-8.84L555,107a.69.69,0,0,1-.5.4l-.58-1.5,1.86,0c1.16-1.94,2.56-4.54,3.42-6.4l1.9.78a.72.72,0,0,1-.8.3,51.09,51.09,0,0,1-3.92,5.3l3.2-.16a10.64,10.64,0,0,0-.94-1.58Zm.38,4.16c3.08,1.94,1.8,4.26.76,3.22a8,8,0,0,0-1-3.1Zm12.88-1.64c-.06.16-.34.3-.74.18a26.15,26.15,0,0,1-2.94,2.4,9.93,9.93,0,0,0,4.06,3.66l0,.22a1.57,1.57,0,0,0-1.12,1.18c-2.28-1.76-3.82-3.88-4.58-8.22v7.6c0,1-.22,1.72-1.88,1.92a1.29,1.29,0,0,0-.34-.92,2.66,2.66,0,0,0-1.46-.48v-.32s1.66.14,2,.14.4-.1.4-.36v-3.82c-.94.9-2.26,2.2-3.94,3.7a.74.74,0,0,1-.24.58l-1.22-1.28c.92-.52,3.18-2,5.4-3.42V104.6h-4.66l-.16-.58h7.68v-2.28h-5.9l-.18-.56h6.08V99h-6.26l-.18-.58h6.18l.82-.9,1.78,1.36a1.94,1.94,0,0,1-1.06.5V104h.28l.86-1.22a20.58,20.58,0,0,1,1.58,1.48c0,.22-.24.32-.5.32h-5a13.29,13.29,0,0,0,1.42,4.18,31,31,0,0,0,2.22-3.38Zm-10.38-.7c3.78,1.62,2.7,4.16,1.5,3.22a7,7,0,0,0-1.72-3.08Z"/><path class="cls-1" d="M586.17,101.46a4.44,4.44,0,0,1,1.42.38,2.37,2.37,0,0,1,1.22,1.6c0,.4-.48.56-1.28.84a33,33,0,0,0-4.88,2.28c-1.6.92-3.8,2.6-3.8,4.46,0,1.18,1.12,2.12,4.24,2.12a28.34,28.34,0,0,0,4.92-.56c.7,0,1.32.18,1.32.78,0,.26-.32.5-.72.62a21,21,0,0,1-5.1.48c-3.5,0-5.6-1.14-5.6-3.22,0-2.26,2.32-4.2,3.64-5.14a3.47,3.47,0,0,1-1.18-1.7,23.11,23.11,0,0,1-.88-4.18.71.71,0,0,0-.56-.66,7.92,7.92,0,0,0-1.1-.26l0-.42a4.66,4.66,0,0,1,1.28-.2c.9,0,2,.64,2,1.1a10.18,10.18,0,0,0-.14,1,12.68,12.68,0,0,0,.44,3,2.84,2.84,0,0,0,1.1,1.64c1.48-.88,3.54-1.92,4.28-2.32.32-.16.4-.3.26-.56a2.17,2.17,0,0,0-1-.84Z"/><path class="cls-1" d="M603.55,102.86a1.91,1.91,0,0,1-.86.4V113.7c0,.94-.22,1.54-1.92,1.7a1.06,1.06,0,0,0-.4-.78,3.52,3.52,0,0,0-1.58-.46v-.32s1.86.14,2.26.14.44-.12.44-.42V109.7h-4.56a10.49,10.49,0,0,1-2.22,5.74l-.28-.22c1.4-2.66,1.48-5.9,1.48-8.84v-3.56a11.83,11.83,0,0,1-1.24,1.22l-.26-.2a18.89,18.89,0,0,0,3.1-6.72l1.88.58c-.08.24-.32.42-.76.4-.14.36-.28.72-.44,1.08H600l.78-.78,1.38,1.32a1.46,1.46,0,0,1-.78.16,22.74,22.74,0,0,1-1.94,2.56h1.84l.64-.82Zm-5.66-3.08a16.28,16.28,0,0,1-1.38,2.3l.8.36h1.6a16.2,16.2,0,0,0,1.1-2.66Zm-.82,6.58a27.16,27.16,0,0,1-.1,2.78h1.72v-2.88h-1.62Zm0-.68h1.62V103h-1.62Zm2.7-2.66v2.66h1.72V103Zm1.72,6.12v-2.88h-1.72v2.88Zm8.82.66c4,3.42,2.88,6.58,1.62,5.36a9,9,0,0,0-.5-2.22c-1.66.4-3.9.92-6.88,1.56a.65.65,0,0,1-.46.4l-.72-1.64c.86,0,2.34-.16,4.14-.32v-5.22h-2.22v1.2c0,.1-.38.38-1,.38h-.18v-8.5l1.38.6h2V97.48l1.94.22c0,.28-.2.46-.72.54v3.16H611l.58-.74,1.38,1.06a1,1,0,0,1-.74.34v6.48a1.33,1.33,0,0,1-1,.38h-.16v-1.2h-2.32v5.1c.82-.08,1.68-.16,2.56-.26a19.15,19.15,0,0,0-1.26-2.64Zm-2.8-2.66V102h-2.22v5.16Zm1.22-5.16v5.16h2.32V102Z"/><path class="cls-1" d="M636,110.82a5.43,5.43,0,0,1-4.1,2.48,2.3,2.3,0,0,1-2.4-2.62c0-2.22.84-4.54.84-6.7,0-1.26-.36-1.92-1.36-1.92-1.7,0-4,1.8-6,4a41.17,41.17,0,0,0,.2,5.9c0,.5.1.92.1,1.36,0,.68-.28,1.62-.84,1.62-.36,0-.56-.22-.66-.68a6.49,6.49,0,0,0-.34-1.26,17.34,17.34,0,0,0-1.48-2.6l-1.3,1.82c-.24.34-.42.6-.72.6s-.52-.3-.52-.7a1.28,1.28,0,0,1,.42-1,49.76,49.76,0,0,0,4.38-5.68c.06-.58.1-1.12.18-1.66-.68.36-1.38.76-1.88,1s-.62.72-1,.72a2.23,2.23,0,0,1-1.64-1.42,2.63,2.63,0,0,1-.08-.88l.36-.1c.3.6.6.94,1,.94a15.81,15.81,0,0,0,3.38-1.42c.16-1.28.3-2.32.32-2.9s-.1-.54-.46-.68a8.6,8.6,0,0,0-1.06-.28l0-.4a3.69,3.69,0,0,1,1.22-.22c.82,0,1.84.88,1.84,1.46,0,.42-.24.6-.46,1.4-.1.3-.24.82-.4,1.48.32.22.72.6.72.8s-.22.4-.46.72a7.66,7.66,0,0,0-.64.84c1.9-1.72,4.26-3.54,6.3-3.54,1.38,0,2.24.84,2.24,2.7,0,1.56-.86,4.42-.86,6.46,0,1.08.46,1.52,1.42,1.52a4.76,4.76,0,0,0,3.44-1.54ZM622,107.26c-.54.84-1.2,1.76-1.82,2.66.56.78,1.28,1.74,1.56,2.08s.28.18.28-.14C622.05,110.9,622,109.06,622,107.26Z"/><path class="cls-1" d="M649.77,97.6c-.06.24-.32.32-.8.36,1.76,2.52,5.08,4.68,8.6,6.08l0,.3a1.5,1.5,0,0,0-1.18,1c-3.3-1.64-6.34-4.26-7.76-7.18a24.37,24.37,0,0,1-9.54,7.92l-.16-.3c3.42-1.9,7.46-5.92,8.52-8.8Zm3.36,9.62,1.66,1.28a1.64,1.64,0,0,1-.84.4v6c0,.14-.72.42-1.16.42h-.2V114h-8.74v1c0,.14-.58.44-1.14.44h-.22v-8l1.46.66h8.44Zm-1.78-4s1.06.82,1.74,1.44c-.06.2-.26.3-.54.3h-8.9l-.16-.58h6.94Zm1.24,10.2v-4.74h-8.74v4.74Z"/><path class="cls-1" d="M663,103.52c.32.82.68,1.26,1.14,1.26.88,0,3.5-1.62,5.64-1.62s3.5,1.64,3.5,4.3c0,4.42-3.44,6.88-8.84,7.72l-.16-.46c4.86-1.18,7.56-3.54,7.56-7.5,0-2.14-.94-3.32-2.18-3.32s-3.26,1.24-4,1.74c-.44.3-.8.7-1.3.7a2.22,2.22,0,0,1-1.62-1.32,2.45,2.45,0,0,1-.08-1.38Zm1.56-5.44.24-.32a6.33,6.33,0,0,0,3.78,1.16c.58,0,1.28-.16,1.6-.16.72,0,1.56.32,1.56.86,0,.26-.24.4-.68.42a6.57,6.57,0,0,0-1.44.2c-1,.28-2.66,1-3.64,1.36l-.18-.38c.84-.46,1.76-1,2.32-1.34A5.27,5.27,0,0,1,664.59,98.08Z"/><path class="cls-1" d="M685.17,99.42a1.49,1.49,0,0,1-.84.4V112.4c0,.16-.64.48-1.08.48h-.18V111.5h-2.8v1.84c0,.12-.4.46-1,.46H679V98.34l1.5.64h2.34l.72-.82Zm-4.9.16v5.34h2.8V99.58Zm2.8,11.36v-5.42h-2.8v5.42Zm1.74-6.58-.16-.58h4.94v-2.94h-4.16l-.16-.58h4.32v-3l2,.22c0,.28-.24.48-.74.56v2.26h2.58l.92-1.16s1.06.8,1.7,1.42c-.06.22-.26.32-.54.32h-4.66v2.94h3.22l.92-1.2a21.76,21.76,0,0,1,1.72,1.46c0,.22-.22.32-.5.32ZM695.23,106a19.21,19.21,0,0,1,1.64,1.38c0,.22-.26.32-.52.32h-2.94v5.86c0,1.08-.2,1.72-2.12,1.9a1.18,1.18,0,0,0-.46-.92,3.87,3.87,0,0,0-1.78-.5v-.32s2.18.14,2.6.14.48-.1.48-.4v-5.76h-7.22l-.16-.58h7.38v-2.34l2,.22c0,.28-.24.42-.68.5v1.62h1Zm-8.78,2.44c4.42,1.62,3.26,4.58,1.86,3.54a8,8,0,0,0-2.08-3.38Z"/><path class="cls-1" d="M702.77,104.12v10.82c0,.18-.44.52-1,.52h-.24V97.8l1.38.64h3.92l.66-.72,1.5,1.14a1.35,1.35,0,0,1-.74.36v5.4a1.73,1.73,0,0,1-1.08.4H707v-.9Zm0-5.08V101H707V99Zm4.2,4.5v-2h-4.2v2Zm6.92,3.16a1.23,1.23,0,0,1-.74.38v6.1a1.6,1.6,0,0,1-1.08.46h-.18v-1.08H707v.84c0,.12-.52.42-1,.42h-.2V105.7l1.32.62h4.6l.68-.76Zm-6.86.18v2.18h4.86v-2.18Zm4.86,5.08v-2.3H707V112Zm6.5-13.08a1.72,1.72,0,0,1-.88.42v14.24c0,1.06-.2,1.74-2.1,1.94a1.35,1.35,0,0,0-.4-1,4.24,4.24,0,0,0-1.72-.52v-.32s2,.16,2.44.16.5-.12.5-.44v-9.26h-4.36v.44c0,.12-.56.4-1.1.4h-.18v-7.1l1.36.58H716l.66-.82Zm-6.52.16V101h4.36V99Zm4.36,4.5v-2h-4.36v2Z"/><path class="cls-1" d="M731.67,105.14c3.1,1.54,4.26,3.38,4.26,5.56,0,1.92-1.64,4.18-5.12,4.18a3.79,3.79,0,0,1-4.16-4.08,15.09,15.09,0,0,1,.14-1.76c-1.88-.4-3-1.32-3-2.48s1.2-2.26,2.72-3a5.16,5.16,0,0,1-1.46-.64,3.18,3.18,0,0,1-1.38-2l.34-.2a4.35,4.35,0,0,0,1.82,1.64,7.09,7.09,0,0,0,2.22.5,26.89,26.89,0,0,0,.76-2.94c0-.5-.1-.62-.46-.78a4.22,4.22,0,0,0-1.06-.3l0-.46a9.16,9.16,0,0,1,1.1-.08c.94,0,2.14,1,2.14,1.52,0,.38-.28.5-.52,1a17.66,17.66,0,0,0-.8,2.12c.26,0,.5,0,.74,0,.64.06.9.4.9.74s-.26.5-.76.52a10.13,10.13,0,0,1-1.28,0c-.3,1-.68,2.42-1,3.76,1,.06,1.82,0,2.24,0s.8.26.8.66-.24.56-1,.62a11.68,11.68,0,0,1-2.3-.06,10.73,10.73,0,0,0-.16,1.62c0,2,1.3,2.92,3.18,2.92,2.64,0,3.9-1.72,3.9-3.4,0-2.2-1.34-3.46-3.2-4.84Zm-4.7,2.68c.22-1.32.54-2.7.78-3.7-1.34.1-3.12,1.26-3.12,2.22C724.63,106.94,725.09,107.56,727,107.82Z"/><path class="cls-1" d="M740.17,112.74a2.81,2.81,0,1,1,2.82,2.82A2.83,2.83,0,0,1,740.17,112.74Zm.68,0a2.13,2.13,0,1,0,4.26,0,2.13,2.13,0,0,0-4.26,0Z"/><path class="cls-1" d="M358.51,130.76c.34.62.7,1.3,1.08,1.3a31.87,31.87,0,0,0,4.46-.94c.68-.22.7-.48,1.06-.48s1.74.86,1.74,1.42-.5.38-1,.9c-2.14,2.14-3.7,3.4-6.12,5.7-.08.08,0,.16.06.14,2-.56,4.92-1.44,6.28-1.76a15.17,15.17,0,0,1,2.78-.54c.76,0,1.56.4,1.56.92,0,.32-.26.54-1,.54-.44,0-.9,0-1.74,0a8.76,8.76,0,0,0-4.4,1.26,4.06,4.06,0,0,0-1.88,3.4c0,1.6,1.24,2.42,3,2.68,1.06.16,1.82,0,2.3.1s.82.48.82.86-.4.62-1.26.62a11.14,11.14,0,0,1-2.44-.28c-1.84-.42-3.42-1.56-3.42-3.68a5.06,5.06,0,0,1,2.12-3.92c.2-.18.16-.28-.1-.2a23.65,23.65,0,0,0-4.14,1.58c-1.26.68-1.7,1.16-2.28,1.16a.94.94,0,0,1-.86-.84.66.66,0,0,1,.5-.68,15.11,15.11,0,0,0,1.72-.62,7.86,7.86,0,0,0,2.34-1.74,39.28,39.28,0,0,0,5-5.64c.16-.26.06-.28-.16-.22a31.88,31.88,0,0,0-3.3,1.08c-.84.36-1,.66-1.48.66a2.35,2.35,0,0,1-1.68-1.72,2.8,2.8,0,0,1,.12-1Z"/><path class="cls-1" d="M376.21,131.46V131a5.54,5.54,0,0,1,1.3-.14c.94,0,2.32,1.06,2.32,1.62s-.38.56-.56,1.5a52.75,52.75,0,0,0-.66,7.84c0,2.54.74,3.5,2.94,3.5a9.28,9.28,0,0,0,7.58-4.28l.44.3a8.93,8.93,0,0,1-8,5.32c-2.68,0-4.06-1.3-4.06-4.72,0-3.1.48-7.8.48-9,0-.72-.12-.94-.46-1.14A4,4,0,0,0,376.21,131.46Z"/><path class="cls-1" d="M393.35,133.44a1.78,1.78,0,0,0,1.26,1c1,0,4.9-1.16,8.2-1.92a27,27,0,0,1,4.54-.82,4.07,4.07,0,0,1,1.42.22c.44.2.6.42.6.7s-.24.52-.68.52-1-.06-1.72-.06a6.71,6.71,0,0,0-3.36.74c-.9.54-2.9,2.4-2.9,6.4,0,2.18.9,3.08,1.7,3.58a7.53,7.53,0,0,0,3.88.66c.48,0,1.14.34,1.14.84s-.54.66-1.44.66a7.6,7.6,0,0,1-4.5-1.12c-1.26-.92-1.92-2.12-1.92-4.38a8.38,8.38,0,0,1,3-6.78c.14-.12.12-.24-.1-.18a42.24,42.24,0,0,0-6.28,2,3.36,3.36,0,0,1-1.22.5,2.48,2.48,0,0,1-1.92-1.56,4.91,4.91,0,0,1-.08-.92Z"/><path class="cls-1" d="M429.27,135.7s1.1.88,1.78,1.5c0,.22-.24.32-.52.32h-3.88a12.74,12.74,0,0,1-2.52,5.58c6.66,2.16,6.16,4.92,4.58,4.26a20.07,20.07,0,0,0-5.44-3.4c-2.14,1.9-5.38,3-10.44,3.48l-.08-.38c4.34-.7,7.3-1.8,9.28-3.62a39.84,39.84,0,0,0-4-1.34c-.26.54-.52,1-.74,1.48a1.76,1.76,0,0,1-1.4-.1,58.07,58.07,0,0,0,2.9-6h-5.66l-.18-.6H419c.6-1.44,1.12-2.76,1.4-3.66l1.94.38c-.08.26-.28.44-.8.44-.26.7-.68,1.72-1.16,2.84h7.88Zm1.84-3c-.12.14-.36.18-.74.2a13.72,13.72,0,0,1-2.32,2.24l-.24-.14a23.65,23.65,0,0,0,1-2.34h-13a2.93,2.93,0,0,1-1.08,2.5c-.5.36-1.22.4-1.48-.06a.93.93,0,0,1,.5-1.12,3.23,3.23,0,0,0,1.4-3l.36,0a9.81,9.81,0,0,1,.26,1.12h5.6V129.1l2.06.22c0,.28-.24.48-.72.56V132h6.1l.84-.84Zm-11,4.84c-.62,1.4-1.32,2.9-2,4.22a41.55,41.55,0,0,1,4.6,1,11.17,11.17,0,0,0,2.34-5.18Z"/><path class="cls-1" d="M437.63,135.76c.82,3.52-.28,5.8-1.16,6.74-.58.62-1.38.88-1.72.48s-.1-.86.26-1.24c1.18-.92,2.3-3.3,2.26-6Zm4.54-1.84c0,.26-.24.46-.68.54v10.46c0,.46.16.62,1.22.62h2.62c1.2,0,2.1,0,2.48,0a.52.52,0,0,0,.48-.36,26.79,26.79,0,0,0,.76-3.48h.26l0,3.64c.48.16.62.32.62.6,0,.7-.76.92-4.66.92h-2.76c-1.86,0-2.38-.34-2.38-1.62V133.7Zm3.26-.16a11.71,11.71,0,0,0-5-3.82l.12-.32C447.87,131,447,134.6,445.43,133.76Zm6.42,8.6a9.42,9.42,0,0,0-3-6.62l.2-.22C455,138.78,453.31,144.06,451.85,142.36Z"/><path class="cls-1" d="M465.07,145.54c4.9-.86,7.26-3.38,7.26-7a5.68,5.68,0,0,0-5.94-5.84c-.24,0-.48,0-.72,0a3.73,3.73,0,0,1,.86,2.12,10,10,0,0,1-.62,3.22c-.84,2.4-3.16,6.28-5.2,6.28-1.34,0-2.74-2.12-2.74-4.58a7.68,7.68,0,0,1,2.66-5.62,8.65,8.65,0,0,1,5.84-2.14c4.12,0,7.3,2.7,7.3,6.84,0,3.32-2.08,6.72-8.62,7.14Zm-.14-12.68a7.61,7.61,0,0,0-3.78,2,6.44,6.44,0,0,0-2.06,4.62c0,1.92.88,3.38,1.7,3.38,1.32,0,3.16-3.16,4-5.06a9.41,9.41,0,0,0,.72-3.08A3.49,3.49,0,0,0,464.93,132.86Z"/><path class="cls-1" d="M494.79,136.58s1.18.92,1.92,1.6c0,.22-.22.3-.52.3h-7.84v7c0,1.1-.28,1.82-2.54,2a1.27,1.27,0,0,0-.62-.94,6.37,6.37,0,0,0-2.34-.56v-.32s3,.2,3.54.2.6-.12.6-.5v-6.86h-8.34l-.14-.58H487v-3.3l1.14.12a25.38,25.38,0,0,0,3.94-3.28H480.69l-.18-.58h11.86l1-.9,1.62,1.46a1.71,1.71,0,0,1-.9.22,33.5,33.5,0,0,1-5.38,3.14l.36,0c-.06.3-.24.44-.68.52v2.56h5.36Z"/><path class="cls-1" d="M516.65,130.38s1.08.84,1.74,1.44c0,.22-.24.32-.52.32H509a27.38,27.38,0,0,1-2.24,2.68c2,0,4.44-.12,7-.2a14.44,14.44,0,0,0-2.44-1.68l.18-.22c6.1,1.34,5.76,4.9,4.12,4.12a6.21,6.21,0,0,0-1.36-1.78c-2.58.32-6,.7-10.76,1.14a.83.83,0,0,1-.54.42l-.78-1.74c.88,0,2.22,0,3.82,0a24.2,24.2,0,0,0,1.34-2.7h-6.38l-.16-.56h8.12v-2.44l2,.22c0,.28-.24.48-.72.54v1.68h5.5Zm-2.6,6.52,1.68,1.26a1.64,1.64,0,0,1-.84.38v7.08c0,1-.24,1.64-2.16,1.84a1.2,1.2,0,0,0-.46-.9,4.11,4.11,0,0,0-1.78-.48v-.32s2.14.16,2.6.16.5-.14.5-.42v-2h-7.92V147c0,.16-.52.46-1.08.46h-.22V137.06l1.4.64h7.62Zm-8.38,1.4v2h7.92v-2Zm7.92,4.66v-2.08h-7.92V143Z"/><path class="cls-1" d="M522.75,133.44a1.78,1.78,0,0,0,1.26,1c1,0,4.9-1.16,8.2-1.92a27,27,0,0,1,4.54-.82,4.07,4.07,0,0,1,1.42.22c.44.2.6.42.6.7s-.24.52-.68.52-1-.06-1.72-.06a6.71,6.71,0,0,0-3.36.74c-.9.54-2.9,2.4-2.9,6.4,0,2.18.9,3.08,1.7,3.58a7.53,7.53,0,0,0,3.88.66c.48,0,1.14.34,1.14.84s-.54.66-1.44.66a7.6,7.6,0,0,1-4.5-1.12c-1.26-.92-1.92-2.12-1.92-4.38a8.38,8.38,0,0,1,3-6.78c.14-.12.12-.24-.1-.18a42.24,42.24,0,0,0-6.28,2,3.36,3.36,0,0,1-1.22.5,2.48,2.48,0,0,1-1.92-1.56,4.91,4.91,0,0,1-.08-.92Z"/><path class="cls-1" d="M548.49,141.68c-1.24.78-3,2-5.32,3.32a.65.65,0,0,1-.34.54L542,144c.56-.18,1.52-.56,2.7-1v-5.64h-2.16l-.16-.58h2.32v-4.86h-2.28l-.14-.58h4l.88-1.14s1,.82,1.62,1.42c-.06.22-.24.3-.52.3H546v4.86h.44l.82-1.12s.9.82,1.44,1.38c-.06.22-.24.32-.52.32H546v5.1c.76-.32,1.58-.66,2.4-1Zm11.68.32c-.12.18-.28.2-.66.1a21.31,21.31,0,0,1-2.72,1.48,11.09,11.09,0,0,0,4,2.3l0,.22a1.32,1.32,0,0,0-1.06,1,11.27,11.27,0,0,1-5.44-6,5.7,5.7,0,0,1-.46.52v5.44c0,.12-.44.4-1.08.4h-.22v-4.6a19.54,19.54,0,0,1-6.24,3.32l-.2-.34a17.89,17.89,0,0,0,6.74-5h-2.12v.42c0,.12-.54.4-1.06.4h-.18v-4.94l1.34.6h6.32l.7-.76,1.62,1.2a1.73,1.73,0,0,1-.84.4V141l0-.06Zm-1.28-7.66s1,.74,1.66,1.28c-.06.22-.24.32-.52.32H548.21l-.16-.58h10Zm-8.86.12c0,.12-.56.4-1.06.4h-.16V129.5l1.34.6h7.54l.72-.76,1.6,1.18a1.89,1.89,0,0,1-.88.42V134a1.58,1.58,0,0,1-1,.42h-.2V134H550Zm0-3.78v2.76h1.88v-2.76Zm7.24,9.6v-2.34h-6.6v2.34Zm-4.28-9.6v2.76h1.92v-2.76Zm1.62,10.18a9.18,9.18,0,0,0,1.74,2.3,17.57,17.57,0,0,0,2.14-2.08,2.05,2.05,0,0,1-1,.34h-.2v-.56ZM556,130.68v2.76h1.92v-2.76Z"/><path class="cls-1" d="M570.69,140.62c-1.28.78-3.06,1.9-5.44,3.22a.67.67,0,0,1-.38.5l-.86-1.68c.54-.14,1.44-.46,2.56-.84v-6.1h-2.24l-.14-.6h2.38v-5.54l2,.22c-.06.28-.22.46-.74.54v4.78h.34l.82-1.18s.94.88,1.48,1.46c0,.22-.24.32-.5.32h-2.14v5.64c.86-.32,1.8-.66,2.72-1Zm11.66,5.2c.36.14.46.3.46.54,0,.54-.52.76-3,.76h-1.6c-1.32,0-1.54-.3-1.54-1.16v-4.18h-1.36c-.62,3.44-2.76,5-7.08,5.72l-.08-.32c3.7-1,5.26-2.52,5.74-5.4h-1.22v.78c0,.12-.56.42-1.1.42h-.18v-7.06l1.38.64h6.44l.74-.82,1.6,1.24a1.64,1.64,0,0,1-.84.4v4.92c0,.14-.66.44-1.1.44h-.2v-1H578v3.9c0,.26.06.3.58.3h2.6a.32.32,0,0,0,.32-.22,16.65,16.65,0,0,0,.54-2.3h.28Zm-12.22-11.28h3.66a1.53,1.53,0,0,1-.22-.16,6.21,6.21,0,0,0-1-2.54h-2l-.16-.58h4.86V129.2l2,.22c0,.28-.24.48-.74.54v1.3h3l.92-1.16s1,.82,1.68,1.44c0,.22-.26.3-.54.3h-3l1.38.44a.68.68,0,0,1-.76.34,14.77,14.77,0,0,1-1.62,1.92H580l.94-1.18s1.08.82,1.72,1.44a.45.45,0,0,1-.5.32h-11.9Zm2.58,2.58v1.74h6.74v-1.74Zm0,4.1h6.74v-1.76h-6.74Zm.38-9.38c2,1,2,2.34,1.4,2.7h2.56a24.23,24.23,0,0,0,1-2.7Z"/><path class="cls-1" d="M595.53,137.14c3.1,1.54,4.26,3.38,4.26,5.56,0,1.92-1.64,4.18-5.12,4.18a3.79,3.79,0,0,1-4.16-4.08,15.09,15.09,0,0,1,.14-1.76c-1.88-.4-3-1.32-3-2.48s1.2-2.26,2.72-3a5.16,5.16,0,0,1-1.46-.64,3.18,3.18,0,0,1-1.38-2l.34-.2a4.35,4.35,0,0,0,1.82,1.64,7.09,7.09,0,0,0,2.22.5,26.89,26.89,0,0,0,.76-2.94c0-.5-.1-.62-.46-.78a4.22,4.22,0,0,0-1.06-.3l0-.46a9.16,9.16,0,0,1,1.1-.08c.94,0,2.14,1,2.14,1.52,0,.38-.28.5-.52,1a17.66,17.66,0,0,0-.8,2.12c.26,0,.5,0,.74,0,.64.06.9.4.9.74s-.26.5-.76.52a10.13,10.13,0,0,1-1.28,0c-.3,1-.68,2.42-1,3.76,1,.06,1.82,0,2.24,0s.8.26.8.66-.24.56-1,.62a11.68,11.68,0,0,1-2.3-.06,10.73,10.73,0,0,0-.16,1.62c0,2,1.3,2.92,3.18,2.92,2.64,0,3.9-1.72,3.9-3.4,0-2.2-1.34-3.46-3.2-4.84Zm-4.7,2.68c.22-1.32.54-2.7.78-3.7-1.34.1-3.12,1.26-3.12,2.22C588.49,138.94,589,139.56,590.83,139.82Z"/><path class="cls-1" d="M604,144.74a2.81,2.81,0,1,1,2.82,2.82A2.83,2.83,0,0,1,604,144.74Zm.68,0a2.13,2.13,0,1,0,4.26,0,2.13,2.13,0,0,0-4.26,0Z"/><path class="cls-1" d="M248.44,166.38c-.1.2-.28.28-.76.18a23.42,23.42,0,0,1-1.76,2.18l.62.22c0,.18-.24.32-.58.38V179a1.51,1.51,0,0,1-1.08.44h-.22V170a23.45,23.45,0,0,1-3.18,2.64l-.25-.24a28.51,28.51,0,0,0,5.33-7.06Zm-.22-4.16c-.12.2-.3.28-.76.18a23.69,23.69,0,0,1-5.62,4.62l-.23-.26a25.18,25.18,0,0,0,4.83-5.56Zm10.08,4.2s1.08.82,1.72,1.44c0,.22-.24.32-.5.32H256.2v9.18c0,1.08-.32,1.84-2.46,2a1.18,1.18,0,0,0-.56-1,6.1,6.1,0,0,0-2.24-.58v-.3s2.8.2,3.36.2.56-.12.56-.44v-9.14h-6.52l-.16-.58h9.18Zm-8.86-2.82-.16-.6h7.22l.94-1.16s1.06.82,1.7,1.44c0,.22-.24.32-.52.32Z"/><path class="cls-1" d="M269.4,166.08c-.12.22-.3.32-.78.26a26.39,26.39,0,0,1-1.4,2.3l.74.28a.75.75,0,0,1-.6.36V179a1.39,1.39,0,0,1-1,.46h-.24v-9.32a19.1,19.1,0,0,1-2.58,2.66l-.25-.24a25.43,25.43,0,0,0,4.17-7.36Zm-.08-3.92c-.12.2-.3.28-.76.18a21.6,21.6,0,0,1-5,4.62l-.2-.24a22.68,22.68,0,0,0,4.12-5.56ZM270.74,174a4.31,4.31,0,0,1-.88,3.82c-.4.38-1.12.52-1.38.08a.86.86,0,0,1,.38-1.06,4.25,4.25,0,0,0,1.52-2.86Zm.22-2.44v.74a1.14,1.14,0,0,1-1,.4h-.18v-6.58l1.42.62h3.3V164.6h-5.3L269,164h5.46v-2.64l2,.2c0,.28-.24.48-.74.56V164h3.4l.94-1.18s1.1.84,1.76,1.46c-.06.22-.22.32-.5.32h-5.6v2.18h3.76l.6-.72,1.42,1.06a1.22,1.22,0,0,1-.74.32v4.68a1.35,1.35,0,0,1-1,.38h-.2v-.9Zm0-4.24V171h2v-3.66Zm7.46,10.5c.4.12.5.28.5.52,0,.54-.56.78-3.26.78H273.8c-1.4,0-1.66-.3-1.66-1.2v-4.58l1.8.22c0,.22-.22.4-.56.46v3.64c0,.26.08.32.66.32h1.64c.76,0,1.34,0,1.54,0s.28-.06.36-.2a12.94,12.94,0,0,0,.52-2.1h.26Zm-4.82-5.66c4.24.78,3.56,3.58,2.22,2.84a6.34,6.34,0,0,0-2.4-2.66Zm2.66-1.18v-3.66H274.1V171Zm1.1-3.66V171h2.24v-3.66Zm1.08,6.16c4.72,2.24,3.62,5.54,2.26,4.46a8.57,8.57,0,0,0-2.48-4.3Z"/><path class="cls-1" d="M286.64,167.56l.38-.18c.42.62.76,1.08,1.34,1.08,1.18,0,7-.76,8.4-1,.56-.08.74-.38,1.08-.38.6,0,1.82,1,1.82,1.52s-.78.6-1,1.1a18,18,0,0,1-10.16,9.1l-.28-.46a19.13,19.13,0,0,0,9.22-9.66c.08-.24,0-.36-.24-.32-1.62.16-6,.8-7.36,1.08-.62.14-.9.5-1.34.5s-1.36-.82-1.56-1.3A4.83,4.83,0,0,1,286.64,167.56Zm10-3.16a35.53,35.53,0,0,1-5.76.76c-1,0-1.58-.56-2.24-1.62l.3-.26a3.11,3.11,0,0,0,1.92.8,14.56,14.56,0,0,0,3.26-.46c1.18-.26,1.44-.58,1.86-.58.86,0,1.54.28,1.54.76C297.54,164.08,297.3,164.26,296.66,164.4Z"/><path class="cls-1" d="M313.08,162.62a3.55,3.55,0,0,1,1.3.22c.78.26,1.66,1.14,1.66,1.66s-.36.34-.9.94c-.74.82-1.72,1.9-3,3.16.56.36,1,.7,1,1a8.82,8.82,0,0,0-.18,1c-.14,2.9,0,6,0,7.16,0,.74-.18,1-.6,1-.66,0-1-1-1-1.62,0-.36.16-.76.24-1.42a50.86,50.86,0,0,0,.18-5.6,1.38,1.38,0,0,0-.3-.88,28.15,28.15,0,0,1-7.5,4.74l-.26-.48a31.79,31.79,0,0,0,9.92-8.46,2.42,2.42,0,0,0,.54-1c0-.32-.34-.6-1.18-1Z"/><path class="cls-1" d="M323.68,165.58c1.14,0,7.5-.68,8.46-.88.52-.12.78-.44,1.12-.44.58,0,2,1,2,1.6s-.64.78-.92,1.44a19.33,19.33,0,0,1-11.58,11l-.3-.48c5.72-2.88,9.4-7.16,10.64-11.84.08-.3,0-.34-.24-.34-.88,0-6.56.8-7.7,1.06-.54.12-1,.52-1.36.52-.6,0-1.54-1-1.74-1.46a4.05,4.05,0,0,1-.2-1.14l.38-.14C322.54,164.94,323,165.58,323.68,165.58Z"/><path class="cls-1" d="M347.54,177.54c4.9-.86,7.26-3.38,7.26-7a5.68,5.68,0,0,0-5.94-5.84c-.24,0-.48,0-.72,0a3.73,3.73,0,0,1,.86,2.12,10,10,0,0,1-.62,3.22c-.84,2.4-3.16,6.28-5.2,6.28-1.34,0-2.74-2.12-2.74-4.58a7.68,7.68,0,0,1,2.66-5.62,8.65,8.65,0,0,1,5.84-2.14c4.12,0,7.3,2.7,7.3,6.84,0,3.32-2.08,6.72-8.62,7.14Zm-.14-12.68a7.61,7.61,0,0,0-3.78,2,6.44,6.44,0,0,0-2.06,4.62c0,1.92.88,3.38,1.7,3.38,1.32,0,3.16-3.16,4-5.06a9.41,9.41,0,0,0,.72-3.08A3.49,3.49,0,0,0,347.4,164.86Z"/><path class="cls-1" d="M367.86,173.7c-1.5.78-3.54,1.92-6.16,3.24a.76.76,0,0,1-.42.5l-.64-1.64c.58-.14,1.58-.48,2.82-.88v-5.68H361.1l-.14-.56h2.5v-4.86H361l-.14-.56h4.34l.92-1.18a20.9,20.9,0,0,1,1.7,1.44c0,.22-.24.3-.52.3h-2.6v4.86h.56l.8-1.16s.94.84,1.48,1.4c0,.22-.22.32-.5.32h-2.34v5.24l3-1.06Zm10,3.22s1.12.88,1.76,1.52c-.06.2-.24.3-.52.3h-13l-.16-.56h6.38v-3.52H368.1l-.16-.6h4.4V171h-3v.82c0,.16-.52.44-1.06.44H368V161.94l1.38.64h7.26l.74-.8L379,163a1.64,1.64,0,0,1-.86.4v8a1.6,1.6,0,0,1-1.08.48h-.2V171h-3.24v3.06h2.56l.94-1.18s1,.84,1.66,1.46c0,.22-.24.32-.52.32h-4.64v3.52h3.32Zm-8.6-13.76v3.32h3v-3.32Zm3,7.26v-3.34h-3v3.34Zm1.28-7.26v3.32h3.24v-3.32Zm3.24,7.26v-3.34h-3.24v3.34Z"/><path class="cls-1" d="M388.16,172.34c0,.18-.54.48-1,.48h-.26v-5.56a14.16,14.16,0,0,1-3.94,4.52l-.26-.3a16.17,16.17,0,0,0,3.72-6.46H383.1l-.14-.58h3.94v-3.38l2,.22c0,.28-.22.46-.72.54v2.62h1.18l.88-1.16s1,.82,1.64,1.42c-.06.22-.26.32-.54.32h-3.16v1.5c4.24,1.18,3.36,3.82,2.06,3a7,7,0,0,0-2.06-2.62Zm-2,1.64a4.3,4.3,0,0,1-1.68,4.22c-.54.34-1.26.42-1.5,0a.91.91,0,0,1,.5-1.06,4.56,4.56,0,0,0,2.34-3.18Zm10.46,3.64c.46.14.6.28.6.54,0,.6-.68.82-4.38.82h-2.74c-1.76,0-2.1-.26-2.1-1.28v-4.2l1.88.2a.63.63,0,0,1-.58.48v3.3c0,.28.1.34,1,.34h2.56c1.18,0,2.08,0,2.42,0s.34-.06.44-.26a12.48,12.48,0,0,0,.6-2.2h.26Zm-6.3-4.9c4.62,1,3.94,4.06,2.5,3.24a6.67,6.67,0,0,0-2.7-3Zm3.3-.44c0,.16-.52.46-1.06.46h-.2v-11l1.36.62h4.56l.74-.8,1.62,1.24a1.8,1.8,0,0,1-.86.42v8.86a1.62,1.62,0,0,1-1.1.46h-.2V171.4h-4.86Zm0-9.3v2.18h4.86V163Zm4.86,5v-2.22h-4.86V168Zm0,2.86v-2.28h-4.86v2.28Zm-1.74,2.94c5.56,1.74,4.68,5.36,3.08,4.32a9.25,9.25,0,0,0-3.3-4.12Z"/><path class="cls-1" d="M418.7,166.9a3.38,3.38,0,0,1,1.48.54,2.33,2.33,0,0,1,1.08,1.56c0,.36-.2.42-1,.66a38.59,38.59,0,0,0-5.7,2.26c.06,1.14.06,2.6.06,3.24,0,.48-.22.78-.62.78s-.66-.22-.66-.76.08-1.56.1-2.64c-1.94,1.1-3.34,2.38-3.34,3.56s1.28,1.6,3.18,1.6c3,0,4.12-.62,5.08-.62.7,0,1.06.24,1.06.62s-.1.56-.74.74a21.82,21.82,0,0,1-4.48.54c-3.72,0-4.94-1.16-4.94-2.74s1.82-3.18,4.16-4.66c-.08-1.7-.46-2.32-1.5-2.32s-2.44,1.12-3.28,2-1.26,1.7-1.74,1.72-.68-.3-.68-.8.74-1,1.64-2a19.29,19.29,0,0,0,2.8-3.66,12.17,12.17,0,0,1-1.44.1c-1.64,0-2-.44-2.78-2l.42-.26a2.87,2.87,0,0,0,2.62,1.26,9.7,9.7,0,0,0,1.78-.2,7.83,7.83,0,0,0,.66-1.76c.1-.36,0-.5-.36-.66a3.94,3.94,0,0,0-1.12-.28v-.38a4.28,4.28,0,0,1,1.14-.2c.62,0,1.92.34,1.92.82,0,.28-.16.42-.38.86s-.4.82-.64,1.32a19.71,19.71,0,0,0,2.6-.86c.84-.38,1-.56,1.28-.56s.86.16.86.54-.18.44-.56.62a23.43,23.43,0,0,1-4.82,1.48,23.75,23.75,0,0,1-1.92,2.82c-.08.1,0,.2.12.12a5.07,5.07,0,0,1,2.2-.68c1.26,0,2,.86,2.22,2.36,1.62-.88,3.66-1.7,4.86-2.34.34-.18.38-.36.1-.68a2.84,2.84,0,0,0-1-.68Z"/><path class="cls-1" d="M433,164.22a1.64,1.64,0,0,1-.84.4v10.1a1.79,1.79,0,0,1-1.14.46h-.2v-2h-3.14v2.34c0,.16-.48.5-1.06.5h-.22V163.14l1.4.66h2.84l.74-.84Zm-2.18,8.42v-8.26h-3.14v8.26Zm11.86-5.6s1.14.88,1.82,1.54c-.06.2-.26.3-.54.3H438.5v10c0,.2-.58.54-1.08.54h-.24V168.88H432.3l-.16-.56h5v-6.84l2,.24c-.06.28-.22.46-.7.54v6.06h3.16Z"/><path class="cls-1" d="M450.7,167.14c.3.68.68,1.12,1.1,1.12a42.27,42.27,0,0,0,5.36-1.16c.5-.14.68-.42,1-.42.58,0,1.78.72,1.78,1.3,0,.38-.64.54-1.34,1.06s-2.9,2.52-4,3.58a5.11,5.11,0,0,1,1.2-.1,1.59,1.59,0,0,1,1.6,1.06c.22.64.44,1.48.62,2.2.28,1.06.6,1.4,1.56,1.4a18.65,18.65,0,0,0,3.38-.4c.78,0,1.2.28,1.2.72,0,.8-2.6,1-4.1,1-2.16,0-2.74-.52-3.08-2.14-.12-.64-.28-1.48-.46-2.2a1.05,1.05,0,0,0-1.08-.94,2.62,2.62,0,0,0-1.82.74,25.78,25.78,0,0,0-3.32,3.78,1.06,1.06,0,0,1-.84.5.61.61,0,0,1-.6-.64c0-.7.44-1.1,1-1.62.84-.8,2.48-2.32,3.52-3.32,1.52-1.48,3.44-3.4,4.3-4.38.28-.32.1-.5-.28-.4a30.22,30.22,0,0,0-4,1.26c-.54.26-.76.58-1.16.58a2.15,2.15,0,0,1-1.8-1.36,2.12,2.12,0,0,1,0-1.12Zm2-5.12.3-.28a6.8,6.8,0,0,0,3.78,1.46c.56,0,.8-.08,1.14-.08.6,0,1.34.4,1.34,1,0,.26-.18.5-.7.5a9.19,9.19,0,0,0-1.24,0,20.29,20.29,0,0,0-3.44.92l-.18-.42c.8-.34,1.82-.76,2.44-1A5.87,5.87,0,0,1,452.7,162Z"/><path class="cls-1" d="M471.54,163.16c.26.58.52,1.18,1,1.18a26.61,26.61,0,0,0,4.22-.9c.44-.14.5-.34.78-.34.6,0,1.7.84,1.7,1.38,0,.38-.46.4-1.16,1-1,.84-3.68,3.42-4.58,4.42-.14.12-.06.28.1.2a9.88,9.88,0,0,1,3.44-.7c2.6,0,4.82,1.7,4.76,4.48,0,2.5-2.28,4.56-6.06,4.56-2.24,0-3.76-.9-3.76-2.34a2,2,0,0,1,2.24-1.88,3.25,3.25,0,0,1,3.26,2.88,3.76,3.76,0,0,0,3-3.52,3.47,3.47,0,0,0-3.74-3.52c-2.88,0-4.9,1.8-6.58,4-.3.38-.46.5-.76.48s-.54-.3-.52-.8.2-.64.66-1.1c3.14-3.28,6.76-6.72,7.6-8.06.18-.3.06-.38-.18-.34a32.79,32.79,0,0,0-3.24,1.1c-.38.16-.66.46-1,.46a2.09,2.09,0,0,1-1.66-1.44,2.66,2.66,0,0,1,0-1.12Zm4.8,14.16A2.47,2.47,0,0,0,474,175a1.12,1.12,0,0,0-1.24,1.06c0,.7.86,1.32,2.8,1.32C475.8,177.36,476.08,177.34,476.34,177.32Z"/><path class="cls-1" d="M503,176.76s1.18.88,1.9,1.56c-.06.22-.24.32-.52.32H486.66l-.16-.6h8.4v-5.82h-6l-.16-.56h6.16v-5.08h-4.5a17.74,17.74,0,0,1-3.76,4.64l-.26-.2a26.09,26.09,0,0,0,4.44-9.16l2.1.66c-.08.24-.34.42-.78.4a24,24,0,0,1-1.4,3.08h4.16v-4.82l2.08.24c-.06.28-.22.48-.7.56v4h4.52l1-1.24a22.26,22.26,0,0,1,1.86,1.5c-.06.22-.26.32-.54.32h-6.86v5.08h3.78l1-1.26s1.14.88,1.86,1.52c0,.2-.24.3-.52.3h-6.16V178h5.64Z"/><path class="cls-1" d="M508.56,165.82c4.26.5,3.52,3.4,2.08,2.62a5.94,5.94,0,0,0-2.26-2.42Zm5.88-.78c-.9,2.46-2.6,7-2.9,8a6.58,6.58,0,0,0-.32,1.72c0,.88.58,1.8.5,3.42,0,.86-.42,1.36-1.12,1.36-.36,0-.58-.36-.62-1,.26-2.06.16-3.6-.28-3.88a1.85,1.85,0,0,0-1-.3v-.44h.9c.24,0,.32,0,.52-.38.36-.72.36-.72,3.94-8.6Zm-4.4-3.58c4.38.66,3.6,3.64,2.12,2.84a6.5,6.5,0,0,0-2.3-2.66Zm15.08,4.66s1.12.88,1.78,1.5c-.06.22-.22.32-.5.32h-5.56v4h2.82l.74-.82,1.62,1.24a1.64,1.64,0,0,1-.86.4v6.14a1.62,1.62,0,0,1-1.1.46h-.2v-1.48h-7.42V179c0,.14-.54.44-1.08.44h-.2v-8.14l1.4.64h3v-4H514l-.16-.58h5.64v-3.62c-1.68.22-3.46.4-5.16.48l-.08-.36a50.47,50.47,0,0,0,10.12-2.5L526,162.8a1.08,1.08,0,0,1-1.06,0c-1.14.26-2.54.54-4.06.76v3.82h3.32Zm-8.68,6.36v4.8h7.42v-4.8Z"/><path class="cls-1" d="M536.32,169.12c-.6.4-1.34.9-2.2,1.46v7c0,1-.18,1.68-1.86,1.88a1.35,1.35,0,0,0-.36-.94,2.85,2.85,0,0,0-1.44-.46v-.32s1.68.12,2,.12.42-.1.42-.4v-6.1c-.46.3-1,.62-1.48.94a.7.7,0,0,1-.36.54l-.78-1.56c.54-.18,1.48-.56,2.62-1v-4.22h-2.32l-.14-.6h2.46v-4.3l2,.22c-.06.28-.26.48-.74.54v3.54h.56l.78-1.06s.88.78,1.42,1.34c-.06.22-.24.32-.52.32h-2.24v3.7c.68-.3,1.38-.6,2.08-.92Zm5.72-4c-.14.18-.34.24-.74.3a26.36,26.36,0,0,1-1.88,8.58c1.38,2.74,3.4,3.52,6.38,3.52l3.24,0v.26a1.07,1.07,0,0,0-.74,1.08h-2.68c-3.12,0-5.26-.88-6.66-3.92a12.33,12.33,0,0,1-4.2,4.52l-.24-.26a13.15,13.15,0,0,0,4-5.48,24.67,24.67,0,0,1-1-4.86,18.25,18.25,0,0,1-1.6,3.88l-.34-.16a38.06,38.06,0,0,0,1.88-11.34l2,.26a.7.7,0,0,1-.68.54c-.1.88-.2,1.76-.34,2.62H540l.7-.78Zm-3.78.12c-.16.9-.34,1.76-.54,2.6a27,27,0,0,0,1.14,4.8,29.53,29.53,0,0,0,1.26-7.4ZM541,175.82c1.4-2.42,1.46-5.48,1.46-8.32v-5.1l1.38.64h1.46l.68-.78,1.46,1.3a1.2,1.2,0,0,1-.8.3v10.56c0,.26,0,.34.22.34h.58a.31.31,0,0,0,.22-.16c.08-.2.28-1.34.42-2.14h.26l.08,2.2c.34.14.44.26.44.52,0,.46-.42.74-1.74.74h-.56c-.94,0-1.1-.36-1.1-1.12V163.62h-1.82v3.86c0,2.66-.12,6.18-2.36,8.58Z"/><path class="cls-1" d="M555.68,174.68c.6,2.56-.58,4-1.54,4.52-.6.34-1.36.36-1.56-.12s.12-.82.54-1a3.64,3.64,0,0,0,2.22-3.36Zm1.16-1.68v.74c0,.14-.58.44-1.12.44h-.18V167l1.42.64h3.74V161.1l2.1.22c0,.3-.26.5-.76.6v2.28h5.14l1-1.24s1.08.86,1.76,1.5c-.06.22-.24.32-.54.32H562v2.88h4.24l.74-.8,1.64,1.24a1.64,1.64,0,0,1-.86.4v5.14a1.87,1.87,0,0,1-1.12.42h-.2V173Zm0-4.76v4.16h9.64v-4.16Zm2,6.52c2.94,2.68,1.34,5.44.24,4.1a9.91,9.91,0,0,0-.52-4Zm3.62-.06c4.22,2.32,3,5.34,1.7,4.2a10.16,10.16,0,0,0-2-4.08Zm4-.08c5.52,2.16,4.62,5.68,3.08,4.62a10.71,10.71,0,0,0-3.32-4.44Z"/><path class="cls-1" d="M588.3,166.9a3.38,3.38,0,0,1,1.48.54,2.33,2.33,0,0,1,1.08,1.56c0,.36-.2.42-1,.66a38.59,38.59,0,0,0-5.7,2.26c.06,1.14.06,2.6.06,3.24,0,.48-.22.78-.62.78s-.66-.22-.66-.76.08-1.56.1-2.64c-1.94,1.1-3.34,2.38-3.34,3.56s1.28,1.6,3.18,1.6c3,0,4.12-.62,5.08-.62.7,0,1.06.24,1.06.62s-.1.56-.74.74a21.82,21.82,0,0,1-4.48.54c-3.72,0-4.94-1.16-4.94-2.74s1.82-3.18,4.16-4.66c-.08-1.7-.46-2.32-1.5-2.32s-2.44,1.12-3.28,2S577,173,576.52,173s-.68-.3-.68-.8.74-1,1.64-2a19.29,19.29,0,0,0,2.8-3.66,12.17,12.17,0,0,1-1.44.1c-1.64,0-2-.44-2.78-2l.42-.26a2.87,2.87,0,0,0,2.62,1.26,9.7,9.7,0,0,0,1.78-.2,7.83,7.83,0,0,0,.66-1.76c.1-.36,0-.5-.36-.66a3.94,3.94,0,0,0-1.12-.28v-.38a4.28,4.28,0,0,1,1.14-.2c.62,0,1.92.34,1.92.82,0,.28-.16.42-.38.86s-.4.82-.64,1.32a19.71,19.71,0,0,0,2.6-.86c.84-.38,1-.56,1.28-.56s.86.16.86.54-.18.44-.56.62a23.43,23.43,0,0,1-4.82,1.48,23.75,23.75,0,0,1-1.92,2.82c-.08.1,0,.2.12.12a5.07,5.07,0,0,1,2.2-.68c1.26,0,2,.86,2.22,2.36,1.62-.88,3.66-1.7,4.86-2.34.34-.18.38-.36.1-.68a2.84,2.84,0,0,0-1-.68Z"/><path class="cls-1" d="M602.42,169.06a1.49,1.49,0,0,1-.78.36v8a1.8,1.8,0,0,1-1.06.38h-.18v-1.38h-2.3v1.94a1.19,1.19,0,0,1-1,.4h-.18v-8.16a17.24,17.24,0,0,1-1.5,2.28l-.3-.26a26,26,0,0,0,2.76-9H595.5l-.14-.6h5l.92-1.12s1,.8,1.68,1.4c-.06.22-.24.32-.52.32h-3.2a24.21,24.21,0,0,1-1.32,4.84l.44.2h1.9l.66-.76Zm-2,6.78v-6.62h-2.3v6.62Zm11.74.56s1,.78,1.58,1.38c0,.22-.22.32-.48.32H605.1V179c0,.1-.38.42-1,.42h-.2V169.6a13.91,13.91,0,0,1-1.9,1.68l-.24-.22a18.29,18.29,0,0,0,4.1-6.6H604a2.88,2.88,0,0,1-.68,2c-.4.32-1.06.4-1.3,0a.84.84,0,0,1,.42-1.06,3.29,3.29,0,0,0,1-2.46h.34a4.81,4.81,0,0,1,.18,1h2.06a20.5,20.5,0,0,0,.78-2.74l2,.58c-.08.24-.26.36-.78.36-.18.58-.4,1.18-.64,1.8h4l.8-.82,1.46,1.42c-.16.16-.34.18-.74.2a16.59,16.59,0,0,1-1.86,1.68l-.28-.12c.18-.46.46-1.18.66-1.78H607.2a20.21,20.21,0,0,1-2,3.48l.1,0h2.22a22,22,0,0,0,.74-2.9l1.94.44a.67.67,0,0,1-.72.42,16.67,16.67,0,0,1-1.38,2h2.76l.86-1s1,.72,1.56,1.28c-.06.22-.24.32-.52.32h-3.86V171h1.72l.82-1s.92.72,1.5,1.3c-.06.22-.24.32-.52.32h-3.52v2.58h1.86l.82-1s.92.74,1.5,1.3c0,.22-.24.32-.5.32h-3.68v2.7h2.32Zm-7-7.84V171h2.62v-2.48Zm2.62,3.08H605.1v2.58h2.62Zm-2.62,5.86h2.62v-2.7H605.1Z"/><path class="cls-1" d="M633.78,176.62s1.18.88,1.88,1.54c-.06.22-.24.32-.54.32H617.46l-.16-.58h10.08a83.43,83.43,0,0,0,2.86-10.78l2.22.58c-.08.24-.3.42-.76.44a62.34,62.34,0,0,1-3.86,9.76h4.9Zm-15.62-11.3h7.6v-4.1l2.06.22c0,.28-.24.48-.72.54v3.34H632l1-1.28s1.16.9,1.9,1.52c-.06.22-.28.32-.56.32h-16Zm3.24,2c4.34,5.72,3.22,10.46,1.64,8.8a24.94,24.94,0,0,0-2-8.7Z"/><path class="cls-1" d="M640.86,163.46V163a5.54,5.54,0,0,1,1.3-.14c.94,0,2.32,1.06,2.32,1.62s-.38.56-.56,1.5a52.75,52.75,0,0,0-.66,7.84c0,2.54.74,3.5,2.94,3.5a9.28,9.28,0,0,0,7.58-4.28l.44.3a8.93,8.93,0,0,1-8,5.32c-2.68,0-4.06-1.3-4.06-4.72,0-3.1.48-7.8.48-9,0-.72-.12-.94-.46-1.14A4,4,0,0,0,640.86,163.46Z"/><path class="cls-1" d="M666.8,169.78a16.38,16.38,0,0,0,2.88-.62,8,8,0,0,1,1.26-.44c.42,0,.94.2.94.62s-.22.5-.58.64a22.84,22.84,0,0,1-4.46.88c.06,1.3.18,2.42.28,3.36a10.67,10.67,0,0,1,4.76,2.12,1.5,1.5,0,0,1,.68,1.1.52.52,0,0,1-.54.58c-.36,0-.58-.2-.94-.54a10.07,10.07,0,0,0-3.88-2.18c0,.28,0,.54,0,.8,0,1.7-1.4,2.68-3.62,2.68-2,0-3.4-.9-3.4-2.32,0-1.58,2.06-2.46,4.56-2.46q.66,0,1.26.06c0-.8-.1-1.88-.14-3.1-.82.08-1.64.12-2.44.12-2.8,0-4.18-1.3-2-3.42l.42.24c-1.28,1.66-.44,2.14,1.56,2.14a20.52,20.52,0,0,0,2.46-.14v-.8c0-.66,0-1.36,0-2-1,.1-2,.18-3,.18a4.18,4.18,0,0,1-4.06-2.08l.34-.28a4.54,4.54,0,0,0,3.54,1.3,25.15,25.15,0,0,0,3.2-.24c0-1,.06-1.8.06-2,0-.4-.08-.5-.4-.62a7.82,7.82,0,0,0-1.46-.22l-.06-.42a3.28,3.28,0,0,1,1.4-.32c.86,0,2.1.56,2.1,1.08s-.26.58-.36,1.1c-.06.34-.12.74-.18,1.22a23.77,23.77,0,0,0,3-.7,5.69,5.69,0,0,1,1.16-.4c.48,0,1,.2,1,.62s-.28.5-.66.64a29.16,29.16,0,0,1-4.7,1c0,.66-.08,1.46-.08,2.4Zm-.74,5.24a10.81,10.81,0,0,0-1.82-.16c-2,0-3.22.72-3.22,1.54s.72,1.28,2.06,1.28C665.5,177.68,666,176.92,666.06,175Z"/><path class="cls-1" d="M679,163.46V163a5.54,5.54,0,0,1,1.3-.14c.94,0,2.32,1.06,2.32,1.62s-.38.56-.56,1.5a52.75,52.75,0,0,0-.66,7.84c0,2.54.74,3.5,2.94,3.5a9.28,9.28,0,0,0,7.58-4.28l.44.3a8.93,8.93,0,0,1-8,5.32c-2.68,0-4.06-1.3-4.06-4.72,0-3.1.48-7.8.48-9,0-.72-.12-.94-.46-1.14A4,4,0,0,0,679,163.46Z"/><path class="cls-1" d="M700.76,162.44a4.28,4.28,0,0,1,1.26-.14c.72,0,2,.52,2,1a9.18,9.18,0,0,1-.52,1.6c-.1.36-.22.86-.38,1.42a18.41,18.41,0,0,0,2.52-1.06,1.85,1.85,0,0,1,.68-.28c.34,0,.86.2.86.56s-.22.58-1,.9a28.3,28.3,0,0,1-3.46,1.12c-.28,1-.62,2.06-1,3a48.26,48.26,0,0,1-3.08,7.32c-.28.46-.48.64-.88.64s-.58-.36-.58-.82.18-.62.48-1.16a27.2,27.2,0,0,0,3.12-6.32c.26-.74.52-1.58.76-2.42a12.64,12.64,0,0,1-2.3.24,2.79,2.79,0,0,1-2.78-2l.34-.26A3.4,3.4,0,0,0,699.3,167a11.42,11.42,0,0,0,2.6-.32,19.66,19.66,0,0,0,.5-2.6.66.66,0,0,0-.42-.8,9,9,0,0,0-1.26-.34Zm3.52,11.18a5.74,5.74,0,0,0,.68,1.9c.7,1.08,1.92,1.54,3.64,1.54a18.85,18.85,0,0,0,3.22-.38c.46,0,1,.22,1,.68s-.52.62-1.1.74a12.39,12.39,0,0,1-2.68.26c-2.32,0-4.16-.7-4.78-2.46a5.7,5.7,0,0,1-.44-2.22Zm1.14-4.68a10.21,10.21,0,0,1,3.62-.72,6.65,6.65,0,0,1,2.7.48c.46.24.72.54.72.88s-.34.46-.82.5a3.75,3.75,0,0,0-1.18.32,24.32,24.32,0,0,0-2.24,1l-.26-.36a23.32,23.32,0,0,0,2.1-1.46c.16-.12.1-.22-.08-.28a5.43,5.43,0,0,0-1.76-.24,12.26,12.26,0,0,0-2.68.32Z"/><path class="cls-1" d="M716.94,176.74a2.81,2.81,0,1,1,2.82,2.82A2.83,2.83,0,0,1,716.94,176.74Zm.68,0a2.13,2.13,0,1,0,4.26,0,2.13,2.13,0,0,0-4.26,0Z"/><path class="cls-2" d="M138.3,6c.81,3.09.33,5.55-.39,6.69-.51.75-1.59,1.08-2.07.48a1.39,1.39,0,0,1,.39-1.74A9.24,9.24,0,0,0,137.76,6ZM143.13.48c-.09.42-.33.72-1.08.84V26.88c0,.3-.84.75-1.53.75h-.39V.12Zm10.26,14.76c1,4,3.51,7.53,10.26,9.78l0,.36c-1,.15-1.62.48-1.83,1.56-6.33-2.67-8.25-7.26-9-11.7h-.21c-.87,5.46-3.24,9.18-9.72,11.76l-.36-.57c5.34-2.58,7.41-6.12,8.19-11.19h-7.26l-.24-.9h7.62A66.71,66.71,0,0,0,151.2,7h-5.34l-.24-.87h5.58c0-1.77,0-3.66,0-5.7l3,.33c-.09.42-.36.75-1,.84,0,1.59,0,3.09,0,4.53h4.29L158.49,5l2.34,1.8a2.46,2.46,0,0,1-1.29.6v7h.63l1.23-1.77s1.41,1.29,2.22,2.19a.68.68,0,0,1-.75.48ZM143,5.28c4.53,3,2.61,6.48,1,5a11.31,11.31,0,0,0-1.41-4.8ZM153.12,7a59.58,59.58,0,0,1-.39,7.32h5V7Z"/><path class="cls-2" d="M176.07,22.17c2.13,2.43,4.47,2.79,9.69,2.79,3.6,0,8.4,0,12.06-.12v.42a1.7,1.7,0,0,0-1.47,1.62H185.79c-5.52,0-8-.69-10.11-4.11a46.56,46.56,0,0,1-3.9,4.08.56.56,0,0,1-.3.69l-1.41-2.4c1-.48,2.61-1.41,4.14-2.34v-9h-3.87l-.15-.87h3.63L175,11.4l2.58,2.16a2.47,2.47,0,0,1-1.47.54ZM171.69,1.05c7.2,2.43,5.58,7.35,3.36,5.73-.39-1.86-2.19-4.17-3.69-5.49Zm6,2.22h8.61V0l2.91.3c-.06.39-.3.66-1,.78V3.27h5.49l1.38-1.71a30.41,30.41,0,0,1,2.61,2.13c-.09.33-.33.45-.75.45h-6.3l2.76.72a1,1,0,0,1-1.05.6,17.24,17.24,0,0,1-2.31,2.46h3.69l1-1.23,2.49,1.89a2.17,2.17,0,0,1-1.32.57V21.42c0,1.47-.3,2.37-2.82,2.58a1.87,1.87,0,0,0-.54-1.26,4.29,4.29,0,0,0-2.16-.66v-.42a2.64,2.64,0,0,1-.51.06h-.3V20.37h-4.71v1.5c0,.15-.69.54-1.38.54h-.24v-8l1.77.81h1.44V12.51H182l-.24-.87h4.77V9.27l2.46.3c-.06.33-.3.57-.84.66v1.41h2.4l1.05-1.29s1.17,1,1.92,1.68a.68.68,0,0,1-.75.48H188.1v2.73h1.56l.81-1,1.83,1.59a2.25,2.25,0,0,1-1.11.51v4.86a1.33,1.33,0,0,1-.66.36c.54.06,2.43.18,2.94.18s.6-.15.6-.54V8.79H180.81V23.16c0,.21-.72.69-1.53.69H179V7l2,1h3.06a1.51,1.51,0,0,1-.51-.3,7.12,7.12,0,0,0-1.38-3.33l.33-.15c3.57,1.2,3.33,3.39,2.28,3.78h4.41a26.41,26.41,0,0,0,1.23-3.78H177.93Zm11.88,16.2V16.11h-4.71v3.36Z"/><path class="cls-2" d="M229.17,3.18a2.69,2.69,0,0,1-1.44.66V26.67a2.41,2.41,0,0,1-1.74.78h-.3V25.14H211.35v1.65c0,.27-.75.81-1.62.81h-.39V1.47l2.19,1h13.83l1.2-1.38Zm-17.82.18V9.63h14.34V3.36Zm0,7.14v6.36h14.34V10.5Zm14.34,13.77V17.76H211.35v6.51Z"/><path class="cls-2" d="M264,3.9s1.68,1.29,2.7,2.28c-.09.33-.33.45-.75.45H239.37l-.24-.87H249a1.5,1.5,0,0,1-.78-.3,10.33,10.33,0,0,0-3.18-5l.33-.24c5.64,1.8,5.31,5.46,3.75,5.55H255A43.58,43.58,0,0,0,257.94.15l3.18.93c-.15.33-.51.57-1.2.54a29.6,29.6,0,0,1-4,4.14h6.51ZM250.26,8.52l2.52,1.89a2.59,2.59,0,0,1-1.29.57v14c0,1.53-.3,2.43-2.73,2.67a1.78,1.78,0,0,0-.51-1.32,3.4,3.4,0,0,0-1.92-.66v-.48s2.16.18,2.7.18.54-.18.54-.57V19.86h-5.79v7.05c0,.21-.75.69-1.59.69h-.33V8.79l2.07.93h5.34Zm-6.48,2.1v3.63h5.79V10.62ZM249.57,19V15.15h-5.79V19Zm9-9.33c-.06.42-.36.72-1.11.84v12c0,.24-.81.66-1.5.66h-.36V9.3Zm3.45-1L265,9c-.09.39-.36.66-1,.75V24.81c0,1.56-.36,2.52-3.12,2.76a1.78,1.78,0,0,0-.69-1.29,5.39,5.39,0,0,0-2.55-.72v-.48s3.09.24,3.75.24.69-.18.69-.63Z"/><path class="cls-2" d="M273.33,20.1c3.6,1.14,5.49,2.67,6.48,4.11a3.3,3.3,0,0,1,.72,2,1.2,1.2,0,0,1-1.23,1.35c-.63,0-1-.36-1.44-1.26a13.87,13.87,0,0,0-4.86-5.7Z"/><path class="cls-2" d="M294.93,18.18c1.8,8.52-3.3,7.62-1.83,5.34.84-1,1.32-2.91,1.35-5.34Zm12-2.88a1.86,1.86,0,0,1-1.17.45c-.3,5.91-1.08,9-2.28,10a3.88,3.88,0,0,1-2.67.87,1.65,1.65,0,0,0-.39-1.23,4.91,4.91,0,0,0-1.89-.63v-.51c.9.06,2.31.18,2.85.18a1.39,1.39,0,0,0,1-.27c.75-.66,1.35-3.45,1.65-8.61h-7.53v1a1.62,1.62,0,0,1-1.47.63h-.27V1.38l2.13.9h6.36L304.56.72s1.47,1.11,2.4,2c-.09.33-.36.48-.78.48h-5.07V6.36h2.07l1.11-1.47s1.38,1.08,2.16,1.86c-.06.33-.36.48-.75.48h-4.59v3.24h1.95L304.2,9s1.35,1.05,2.16,1.86a.68.68,0,0,1-.75.48h-4.5v3.3h2.64l1.05-1.11ZM296.7,17.88c2.88,3.84,1.05,7.05-.18,5.55a14.11,14.11,0,0,0-.27-5.43Zm-.21-14.7V6.36h2.91V3.18Zm2.91,4.05h-2.91v3.24h2.91Zm-2.91,7.44h2.91v-3.3h-2.91Zm2,2.7c3.84,2.94,2.31,5.94,1,4.62a11,11,0,0,0-1.38-4.44Zm1.89-.66c4.2,1.47,2.91,4.5,1.5,3.39A6.55,6.55,0,0,0,300,17Zm12.36-4c1.26,5.58,4,10.71,8.34,12.81l-.06.33a2.26,2.26,0,0,0-1.68,1.74c-4.17-3-6.18-8.07-7.2-14.88h-1.89c-.12,5.1-.87,10.89-5.34,14.91l-.45-.3c3.48-4.5,3.9-10.23,3.9-16v-10l2.25,1h6.57l1-1.17L320.58,3a2,2,0,0,1-1.23.57v10.2a2.66,2.66,0,0,1-1.62.63h-.27V12.72Zm-2.49-.9h7.23V3.21h-7.23v8.61Z"/><path class="cls-2" d="M337.29,7.56c-.18.33-.48.45-1.2.33a34.27,34.27,0,0,1-2.58,3.48l.84.33a1.12,1.12,0,0,1-.9.54v14.7a2.08,2.08,0,0,1-1.56.69h-.36v-14a36.48,36.48,0,0,1-3.9,3.6l-.36-.36a46.22,46.22,0,0,0,7.14-10.71Zm-.63-5.88c-.18.3-.48.42-1.14.27a30.37,30.37,0,0,1-7.71,6.24l-.33-.39A31.72,31.72,0,0,0,333.93.15Zm10,22.68a19.15,19.15,0,0,0,4.8.51c1,0,3.06,0,4.23,0v.42c-.69.12-1,.78-1,1.59h-3.39c-5.79,0-9.12-1.68-11-8.1a16.54,16.54,0,0,1-5.25,8.82l-.33-.33c3-3.45,4.14-9.09,4.35-13.8l3.12.57c-.09.42-.42.66-1.08.69-.15,1-.33,2-.57,3.09,1,3,2.4,4.77,4.29,5.82V11.37l2.88.3c-.06.39-.3.69-1,.78v4.23h3.75l1.38-1.74s1.56,1.26,2.55,2.13c-.09.33-.39.48-.81.48h-6.87ZM337.8,4.74h6.36V.33l2.94.3c-.06.39-.33.66-1,.78V4.74h4L351.45,3S353,4.23,354,5.16c-.09.33-.36.48-.78.48h-7.11v4.65h5.25l1.38-1.74s1.59,1.23,2.58,2.16c-.09.33-.36.48-.78.48h-18l-.24-.9h7.89V5.64H338Z"/><path class="cls-2" d="M386.88,7.77s1.71,1.32,2.76,2.28c-.09.33-.36.48-.81.48h-26.4l-.24-.9H368V2.4l2.88.3c-.06.39-.33.66-1,.78V9.63h5.1V.12L378,.45c-.06.42-.36.72-1.08.81V4.65h5.16l1.47-1.83s1.65,1.32,2.7,2.22c-.06.33-.39.48-.81.48h-8.52V9.63h8.43ZM372.3,13.26c-.15.27-.42.42-1.11.3a25.34,25.34,0,0,1-8.64,7l-.27-.39a26.22,26.22,0,0,0,7.26-8.4ZM363.36,27c7.74-1.53,13.8-3.72,18.66-10.62L384.69,18c-.18.3-.51.36-1.26.21-5.43,6.51-11.61,8.43-19.95,9.42Zm7.38-8.28s3,.21,3.57.21.63-.15.63-.57V10.68l3,.33c-.09.42-.36.6-1,.72v6.78c0,1.56-.36,2.52-3.09,2.79a2,2,0,0,0-.66-1.38,4.8,4.8,0,0,0-2.43-.72Zm9.9-6.51c9.3,2.43,8.76,7.53,6.33,6.39-1.11-2.1-4.26-4.65-6.6-6.06Z"/><path class="cls-2" d="M399.75,12.6a11.44,11.44,0,0,1,3.39-.51c4.14,0,7,2.37,7,6.6s-2.94,7-7.47,7c-3.18,0-5.31-1.44-6-4.32a1.41,1.41,0,0,1,1.41-1c.84,0,1.2.42,1.59,1.83l.6,1.95a8,8,0,0,0,2.22.33c3.39,0,5.25-2.16,5.25-5.52s-2.07-5.34-5.25-5.34a10.07,10.07,0,0,0-3.27.51l-.84-.18L399,4.17h10.53V6.42H400.2Z"/><path class="cls-2" d="M429.66,1.35c-.12.33-.39.51-1.14.42a26.74,26.74,0,0,1-11,11.85l-.27-.39a28.47,28.47,0,0,0,9.36-13Zm8.73,9.36,2.31,1.92a2,2,0,0,1-1.2.45c-.39,6.6-1.26,11.79-2.7,13.17a4.87,4.87,0,0,1-3.54,1.17A1.59,1.59,0,0,0,432.6,26a12.06,12.06,0,0,0-3.42-.9l0-.51c1.53.15,4.2.39,5,.39a1.53,1.53,0,0,0,1.23-.39c1.05-.87,1.77-5.73,2.1-11.73h-7.32c-.51,5-2.1,10.59-11.34,14.76l-.39-.48c8.1-4.47,9.3-9.84,9.57-14.28h-6.3l-.27-.9h15.81ZM434.34.09c1.89,4.65,6.63,8.85,11,11l-.09.33a2.22,2.22,0,0,0-1.86,1.56A24.7,24.7,0,0,1,433.83.39Z"/><path class="cls-2" d="M451.53,23.52a4.22,4.22,0,1,1,4.23,4.23A4.24,4.24,0,0,1,451.53,23.52Zm1,0a3.2,3.2,0,1,0,6.39,0,3.2,3.2,0,0,0-6.39,0Z"/><path class="cls-2" d="M475.92,18.42c-.27,3.09-1.23,6.54-4.41,9.06l-.36-.39c2.64-3.33,2.91-7.47,2.91-11.34v-6h0V3.72l2,.84h5.58l1-1,2.1,1.56a1.91,1.91,0,0,1-1,.48V9a2.48,2.48,0,0,1-1.56.57h-.3V5.46h-6V9.21c0,.18-.84.57-1.59.57h-.18l2.25,1h7.92V8l2.64.27V3.72l2,.84h5.28l1-1.08,2.37,1.74a2.74,2.74,0,0,1-1.26.57V9s-.06.09-.15.15c.33.24,1.56,1.23,2.4,2-.09.33-.36.45-.78.45h-8.64v2.28h4.38l1-1.11,2.28,1.71a2,2,0,0,1-1.11.54v3.84a2.78,2.78,0,0,1-1.62.6h-.3v-1ZM473.19,2.79,473,1.92h8.58L482.79.39s1.41,1.11,2.31,1.92c-.09.33-.36.48-.81.48Zm7.14,22c1.95-.21,4.14-.45,6.39-.72l.06.48c-2.25.63-5.4,1.47-9.75,2.43a1,1,0,0,1-.66.66l-1.2-2.34c.78-.06,1.89-.15,3.27-.3V18.75l2.76.27c0,.33-.27.57-.87.69v1.71h3.06L484.53,20s1.32,1.05,2.13,1.83a.68.68,0,0,1-.75.48h-5.58Zm-4.32-9c0,.57,0,1.17,0,1.77h4.8V14.73H476Zm0-4.14v2.28h4.77V11.61ZM477.45,6c4.23,1,2.85,3.9,1.35,2.82a4.93,4.93,0,0,0-1.68-2.58Zm9.87,5.61h-4.71v2.28h4.71Zm-4.71,5.91h4.71V14.73h-4.71Zm3.33-14.73-.24-.87h8.67L495.69.33s1.47,1.14,2.4,2c-.09.33-.39.48-.81.48Zm.3,8h8.52L496,9.27a3.37,3.37,0,0,1-1.2.3h-.3V5.46h-5.67V9.15c0,.18-.84.6-1.59.6h-.27V8.61a1,1,0,0,1-.69.36Zm11.61,14.31c.63.21.81.42.81.81,0,.84-.87,1.11-5.25,1.11h-3c-2.25,0-2.64-.45-2.64-1.8V18.81l2.76.3c0,.36-.33.63-.87.69v2.64a26.53,26.53,0,0,0,5.55-2.76l2.1,1.5c-.24.24-.48.3-1.08.12a34.13,34.13,0,0,1-6.57,1.77v1.77c0,.39.12.48,1.11.48h2.76c1.2,0,2.22,0,2.58,0s.42-.06.54-.3a9.75,9.75,0,0,0,.75-2.43h.39Zm-8.7-10.32v2.79h4.62V14.73Zm1-8.79c4.38,1,3,4,1.44,2.91a5.27,5.27,0,0,0-1.74-2.67Z"/><path class="cls-2" d="M508.17,3.6V3a8.31,8.31,0,0,1,1.95-.21c1.41.06,3.48,1.59,3.48,2.43,0,.63-.57.84-.84,2.25a79.13,79.13,0,0,0-1,11.76c0,3.81,1.11,5.25,4.41,5.25A13.92,13.92,0,0,0,527.55,18l.66.45a13.39,13.39,0,0,1-12,8c-4,0-6.09-1.95-6.09-7.08,0-4.65.72-11.7.72-13.44,0-1.08-.18-1.41-.69-1.71A6,6,0,0,0,508.17,3.6Z"/><path class="cls-2" d="M547.26,24.72c7.35-1.29,10.89-5.07,10.89-10.5s-4-8.76-8.91-8.76c-.36,0-.72,0-1.08.06a5.6,5.6,0,0,1,1.29,3.18,15,15,0,0,1-.93,4.83c-1.26,3.6-4.74,9.42-7.8,9.42-2,0-4.11-3.18-4.11-6.87a11.52,11.52,0,0,1,4-8.43,13,13,0,0,1,8.76-3.21c6.18,0,10.95,4.05,10.95,10.26,0,5-3.12,10.08-12.93,10.71Zm-.21-19a11.41,11.41,0,0,0-5.67,3,9.65,9.65,0,0,0-3.09,6.93c0,2.88,1.32,5.07,2.55,5.07,2,0,4.74-4.74,6-7.59a14.12,14.12,0,0,0,1.08-4.62A5.24,5.24,0,0,0,547.05,5.7Z"/><path class="cls-2" d="M575.94,9.78l.21-.57a6.54,6.54,0,0,1,1.77.18c1.26.33,2.85,2.07,2.85,3,0,.57-.66.84-1.2,1.5a33.74,33.74,0,0,1-10.71,8.85l-.45-.6c3.87-2.64,9.57-8.37,9.57-10.47C578,11,576.72,10.17,575.94,9.78Zm17.34,11.61c-.75,0-.93-.6-1.41-1.8a24.14,24.14,0,0,0-7.71-10l.48-.6c4.26,2.31,9.3,7,9.72,10.59C594.48,20.73,594,21.39,593.28,21.39ZM588.21,7a3.3,3.3,0,1,1,3.3,3.3A3.29,3.29,0,0,1,588.21,7Zm1,0a2.31,2.31,0,1,0,2.31-2.31A2.29,2.29,0,0,0,589.2,7Z"/><path class="cls-2" d="M605.22,12.6c.66,1,1.14,2,2.4,2,2.67,0,13.17-.69,14.55-.75,2-.15,2.85-.33,3.63-.33,1.14,0,2.49.51,2.49,1.32,0,.54-.3.87-1.32.87s-2.1-.06-3.93-.06-10.32.45-12.57.72c-1.71.18-2,.63-2.91.63s-2.25-1.47-2.67-2.49a5.32,5.32,0,0,1-.27-1.68Z"/><path class="cls-2" d="M645,2.16a9.7,9.7,0,0,1,1.8.12c1.17.27,2.76,1.17,2.76,1.71s-.42.81-.87,1.56c-.33.54-.66,1.11-1,1.62a3.83,3.83,0,0,0,.57,0,57.83,57.83,0,0,0,6-.57c.81-.18,1-.69,1.53-.69.72,0,2.61,1.23,2.61,2,0,.6-1,.78-1.41,1.56a37.65,37.65,0,0,1-18.66,17.16l-.45-.66c7.71-4,14.76-11.76,17.1-17.7.15-.36,0-.45-.24-.45-.66,0-3.72.48-4.8.69a10,10,0,0,1-1.68.39,2.46,2.46,0,0,1-1.29-.72A27.73,27.73,0,0,1,638,16l-.45-.63c4.68-3.36,9.09-9.48,9.09-11.22,0-.51-.78-1-1.83-1.44Z"/><path class="cls-2" d="M679.17,2.67a6.09,6.09,0,0,1,1.8-.39c1.38,0,3,1.23,3,1.89s-.54.48-.6,1.71-.09,2.67-.12,4c3.54-.3,3.84-.51,4.5-.51,1.2,0,2.85.57,2.85,1.5,0,.51-.21.69-.75.69-.72,0-1.83-.27-4.08-.27-.75,0-1.62,0-2.55.06-.12,3.72-.24,7.47-2.19,10.11a16,16,0,0,1-7.65,5.22L673,26a15.44,15.44,0,0,0,6.6-5.31c1.47-2.31,1.8-5.73,1.83-9.21-2.16.15-4.47.36-6.36.57,0,2.4,0,4.86,0,5.73,0,1.2-.24,1.65-.87,1.65-.78,0-1.23-1.29-1.23-2.13,0-1,.42-1.89.48-5.07a26.73,26.73,0,0,0-3.63.63,11.34,11.34,0,0,1-2.1.6c-.75,0-2-1.41-2.28-2.07a4.72,4.72,0,0,1-.18-1.65l.54-.18c.54.87,1.08,1.8,1.83,1.8,1.14,0,4-.33,5.82-.54a31.94,31.94,0,0,0-.21-4.59c-.15-.6-.84-.78-2.1-1v-.6a5.56,5.56,0,0,1,1.68-.33c1,0,2.76.84,2.76,1.65,0,.63-.36.66-.42,1.62-.06.54-.09,1.74-.09,3.06,1.92-.18,4.38-.42,6.36-.63,0-2.7,0-4.56-.09-5.73-.09-.63-.87-.78-2.16-1Z"/><path class="cls-2" d="M709.56,2.34a5.33,5.33,0,0,1,2,.33c1.17.39,2.49,1.71,2.49,2.49,0,.57-.54.51-1.35,1.41-1.11,1.23-2.58,2.85-4.56,4.74.84.54,1.53,1,1.53,1.47a13.24,13.24,0,0,0-.27,1.56c-.21,4.35-.06,8.94-.06,10.74,0,1.11-.27,1.47-.9,1.47-1,0-1.5-1.44-1.5-2.43,0-.54.24-1.14.36-2.13a76.29,76.29,0,0,0,.27-8.4,2.07,2.07,0,0,0-.45-1.32,42.22,42.22,0,0,1-11.25,7.11l-.39-.72A47.69,47.69,0,0,0,710.31,6a3.62,3.62,0,0,0,.81-1.53c0-.48-.51-.9-1.77-1.53Z"/><path class="cls-2" d="M726.3,3a9.15,9.15,0,0,1,1.92-.36c1.26,0,3.3,1.14,3.3,1.83s-.54.72-.66,1.71c-.15,1.44-.21,3.63-.24,5.28A25.78,25.78,0,0,1,738,14.25a3,3,0,0,1,1.68,2.25,1,1,0,0,1-1,1c-1,0-1.32-1-3.12-2.4a23.52,23.52,0,0,0-5-2.58c0,2.07-.06,7,0,10.17,0,1.32.09,2.22.09,2.73,0,.78-.3,1.14-1,1.14-1,0-1.5-1.65-1.5-2.67,0-.66.27-1.2.39-2.34.24-2.22.24-7.14.24-9.42s0-5.67-.18-7.17c-.09-1-.75-1.14-2.34-1.32Zm9.51,2.19a13.43,13.43,0,0,1,3.42,1.92,2.51,2.51,0,0,1,1,1.89.67.67,0,0,1-.72.75c-.48,0-.81-.66-1.44-1.44a14.45,14.45,0,0,0-2.73-2.61Zm2.49-2.46a11.21,11.21,0,0,1,3.42,1.74,2.42,2.42,0,0,1,1.11,1.86c0,.51-.27.75-.69.75s-.84-.69-1.47-1.44a15.51,15.51,0,0,0-2.73-2.4Z"/><path class="cls-2" d="M758.55,12.09c-.9.6-2,1.35-3.3,2.19V24.81c0,1.56-.27,2.52-2.79,2.82a2,2,0,0,0-.54-1.41,4.28,4.28,0,0,0-2.16-.69v-.48s2.52.18,3,.18.63-.15.63-.6V15.48c-.69.45-1.44.93-2.22,1.41a1.06,1.06,0,0,1-.54.81l-1.17-2.34c.81-.27,2.22-.84,3.93-1.53V7.5h-3.48l-.21-.9h3.69V.15l2.94.33c-.09.42-.39.72-1.11.81V6.6h.84L757.26,5s1.32,1.17,2.13,2c-.09.33-.36.48-.78.48h-3.36v5.55c1-.45,2.07-.9,3.12-1.38Zm8.58-6c-.21.27-.51.36-1.11.45-.39,4.41-1,8.91-2.82,12.87,2.07,4.11,5.1,5.28,9.57,5.28l4.86,0v.39a1.6,1.6,0,0,0-1.11,1.62h-4c-4.68,0-7.89-1.32-10-5.88a18.49,18.49,0,0,1-6.3,6.78l-.36-.39A19.73,19.73,0,0,0,761.79,19a37,37,0,0,1-1.53-7.29,27.37,27.37,0,0,1-2.4,5.82l-.51-.24a57.1,57.1,0,0,0,2.82-17l3,.39a1.05,1.05,0,0,1-1,.81c-.15,1.32-.3,2.64-.51,3.93H764l1.05-1.17Zm-5.67.18c-.24,1.35-.51,2.64-.81,3.9a40.53,40.53,0,0,0,1.71,7.2,44.29,44.29,0,0,0,1.89-11.1Zm4.14,15.87c2.1-3.63,2.19-8.22,2.19-12.48V2l2.07,1h2.19l1-1.17,2.19,2a1.8,1.8,0,0,1-1.2.45V20c0,.39.06.51.33.51h.87a.47.47,0,0,0,.33-.24c.12-.3.42-2,.63-3.21h.39l.12,3.3c.51.21.66.39.66.78,0,.69-.63,1.11-2.61,1.11h-.84c-1.41,0-1.65-.54-1.65-1.68V3.84h-2.73V9.63c0,4-.18,9.27-3.54,12.87Z"/><path class="cls-2" d="M789.09,20.43c.9,3.84-.87,6-2.31,6.78-.9.51-2,.54-2.34-.18s.18-1.23.81-1.56a5.45,5.45,0,0,0,3.33-5Zm1.74-2.52V19c0,.21-.87.66-1.68.66h-.27V8.94l2.13,1h5.61V.06l3.15.33c-.06.45-.39.75-1.14.9V4.71h7.71l1.44-1.86s1.62,1.29,2.64,2.25c-.09.33-.36.48-.81.48h-11V9.9H805l1.11-1.2,2.46,1.86a2.46,2.46,0,0,1-1.29.6v7.71a2.8,2.8,0,0,1-1.68.63h-.3V17.91Zm0-7.14V17h14.46V10.77Zm3,9.78c4.41,4,2,8.16.36,6.15a14.86,14.86,0,0,0-.78-6Zm5.43-.09c6.33,3.48,4.56,8,2.55,6.3a15.24,15.24,0,0,0-2.94-6.12Zm6-.12c8.28,3.24,6.93,8.52,4.62,6.93-.6-2.25-3-5-5-6.66Z"/><path class="cls-2" d="M818.49,23.52a4.22,4.22,0,1,1,4.23,4.23A4.24,4.24,0,0,1,818.49,23.52Zm1,0a3.2,3.2,0,1,0,6.39,0,3.2,3.2,0,0,0-6.39,0Z"/><rect class="cls-3" x="475.98" y="56.42" width="7.07" height="7.07" transform="translate(98.05 356.63) rotate(-45)"/><line class="cls-4" x1="490" y1="59.96" x2="625.51" y2="59.96"/><line class="cls-4" x1="334" y1="59.96" x2="469.51" y2="59.96"/><rect class="cls-5" y="65.37" width="960" height="114.67"/></g></g></svg>