<svg xmlns="http://www.w3.org/2000/svg" viewBox="0 0 320 54.47"><defs><style>.cls-1{fill:#009c94;}.cls-2{fill:#fff;}</style></defs><g id="レイヤー_2" data-name="レイヤー 2"><g id="wire"><rect class="cls-1" width="320" height="54.47"/><path class="cls-2" d="M78,25c.57-.05.63-.41.94-.41s1.54.91,1.54,1.31-.51.49-.61.93c-.14.72-.5,2.92-.83,4.7.59.05,1,.28,1,.59a.43.43,0,0,1-.48.48c-.35,0-1.22-.1-2-.1-1.27,0-3.48.11-5.44.23,0,.21,0,.4,0,.65,0,.41-.15.6-.49.6S71,33.5,71,32.83c0-.32.05-1.34.05-2a27.1,27.1,0,0,0-.46-4.53,2.53,2.53,0,0,0-.88-1.37l.23-.28a4,4,0,0,1,1.76.85C73.28,25.4,77.31,25,78,25Zm0,6.53A53.38,53.38,0,0,0,78.65,26c0-.13-.05-.18-.2-.18-1,0-3.78.21-4.68.31-.54.05-1,.22-1.29.22a1.65,1.65,0,0,1-.66-.22c.05,1,.2,4,.27,5.79C73.83,31.75,76.45,31.56,78,31.49Z"/><path class="cls-2" d="M88.29,22.11a3.63,3.63,0,0,1,1.11.35c.45.22,1,.75,1,1s-.35.38-.54.7a16.13,16.13,0,0,1-1.21,2,2,2,0,0,0,.6.1c.93,0,4.67-.51,5.57-.65.72-.1.82-.32,1.13-.32.55,0,1.32.36,1.32.77s-.08.44-.64.44-1.5,0-2.25,0c-.56,0-1.49.13-2.38.24.66.28,1.15.69,1.15,1s-.27.39-.4.75a12.94,12.94,0,0,1-6.11,6.83L86.38,35c3.18-2.13,5.35-5.75,5.35-7.35a1,1,0,0,0-.55-.79l-.93.13c-.41,0-.8.16-1.11.16a1.6,1.6,0,0,1-.84-.47,14.25,14.25,0,0,1-3.59,3.35l-.28-.31c2.6-2.17,4.44-5.38,4.44-6.37,0-.36-.26-.62-.75-1Z"/><path class="cls-2" d="M100.08,27.9c.36.55.62,1.06,1.3,1.06,1.46,0,7.17-.38,7.92-.41,1.1-.08,1.55-.18,2-.18.62,0,1.35.28,1.35.72,0,.29-.16.47-.71.47s-1.15,0-2.14,0-5.62.25-6.84.39c-.94.1-1.11.35-1.59.35s-1.22-.8-1.45-1.36a2.85,2.85,0,0,1-.15-.91Z"/><path class="cls-2" d="M116.07,26.67l.16-.36a16,16,0,0,1,2.19.69c1,.41,1.6,1,1.6,1.62a.47.47,0,0,1-.48.5c-.5,0-.76-.59-1.61-1.22A11.74,11.74,0,0,0,116.07,26.67Zm12.05-.91.37.24c-1.86,3.27-5.3,6.13-8.91,8.12-.33.2-.51.62-.93.62a3.33,3.33,0,0,1-1.9-1.2,2.9,2.9,0,0,1-.36-1.1l.26-.15c.45.53.95,1.08,1.51,1.08C119.27,33.37,125.18,29.84,128.12,25.76Zm-9.87-2.23.18-.37a16.2,16.2,0,0,1,2.06.7c1.11.56,1.6,1.1,1.6,1.67a.49.49,0,0,1-.47.54c-.46,0-.79-.66-1.65-1.36A10.63,10.63,0,0,0,118.25,23.53Z"/><path class="cls-2" d="M131.42,27c.24.29.49.64.88.64.75,0,4-.35,4.72-.46.42-.05.5-.29.78-.29s1.36.68,1.36,1.06-.38.39-.43.77c-.18,1-.49,3.08-.72,4.51.38.11.71.37.71.6a.36.36,0,0,1-.4.39c-.26,0-.85-.11-1.37-.11a30.06,30.06,0,0,0-3.92.36,6.74,6.74,0,0,1-.83.23c-.41,0-1-.64-1.11-.95a2,2,0,0,1-.15-.67l.2-.12c.28.32.52.66,1,.66.83,0,3.54-.31,4.93-.41.08-.64.16-1.52.26-2.37-1.37.1-2.9.29-3.88.42-.38.07-.56.23-.79.23s-.85-.52-1-.83a1.79,1.79,0,0,1-.18-.67l.21-.11a1.49,1.49,0,0,0,1,.57c.47,0,3.22-.3,4.78-.41.1-.83.18-1.57.23-1.95,0-.09,0-.13-.11-.13a34.37,34.37,0,0,0-4.3.49,4.83,4.83,0,0,1-.88.28c-.37,0-1-.67-1.06-1a4,4,0,0,1-.1-.67Z"/><path class="cls-2" d="M155.24,25.18l.38.25c-2,3.48-5,6.09-8.57,8.38-.33.2-.51.61-.87.61a3.16,3.16,0,0,1-1.94-1.26,3.53,3.53,0,0,1-.34-1.06l.26-.17c.49.54,1,1.07,1.53,1.07C147,33,152.92,28.67,155.24,25.18Zm-11-1.53c1.86.52,4.12,1.63,4.12,2.89a.56.56,0,0,1-.58.61c-.26,0-.47-.18-.89-.69A11.22,11.22,0,0,0,144.08,24Z"/><path class="cls-2" d="M162.32,23.4s.78.64,1.29,1.11c-.05.17-.2.25-.43.25h-5.71l-.13-.46h4.26Zm-4.18-.68-.13-.48h2.9l.69-.86s.8.6,1.3,1.08c-.05.18-.21.26-.44.26Zm3,3.64.66-.78s.71.57,1.16,1c0,.18-.18.26-.41.26h-4.39l-.14-.49Zm-3,2.57-.14-.46h3.12l.66-.82s.71.59,1.16,1c0,.18-.18.26-.41.26Zm3.82,1,1.25,1a1.3,1.3,0,0,1-.67.31v3.89c0,.11-.52.34-.86.34h-.15V34.6h-2.5v1.14c0,.1-.41.34-.83.34h-.16v-6l1.08.49h2.26Zm-.43,4.18V31.05h-2.5v3.07Zm9.63-4a18.41,18.41,0,0,1,1.39,1.21c0,.16-.19.24-.41.24h-3.87v4.25c0,.07-.34.31-.88.31h-.16V31.52h-3.77l-.13-.47h3.9V28.14h-3.17l-.13-.47h3.3V25h-3.41l-.13-.48h4.86a35.44,35.44,0,0,0,1.18-3.36l1.63.52c-.07.19-.26.31-.6.29A21.46,21.46,0,0,1,169,24.48h1.26l.74-.93s.8.67,1.32,1.14c-.05.18-.2.27-.44.27h-3.55v2.71h1.57l.74-.93s.8.65,1.32,1.14c0,.18-.2.26-.43.26h-3.2v2.91h2.14Zm-6.41-8.89c3.08,1.49,2,3.76,1,2.84a5.38,5.38,0,0,0-1.21-2.72Z"/><path class="cls-2" d="M174.58,34.73a18,18,0,0,0,1.14-4.63l1.51.4a.56.56,0,0,1-.59.32,11.65,11.65,0,0,1-1.81,4ZM179,26.52c2.89,1.67,2,3.73,1,2.9a4,4,0,0,0-.34-1.2l-1.31.28v7.24a1,1,0,0,1-.87.33h-.14V28.7c-.57.13-1.19.24-1.86.37a.59.59,0,0,1-.41.35l-.41-1.23,1.7-.08a29.27,29.27,0,0,0,2.76-5.18l1.52.6a.61.61,0,0,1-.64.27,22.47,22.47,0,0,1-3.09,4.26l2.6-.18a9.12,9.12,0,0,0-.74-1.26Zm-.15-4.85c-.06.2-.24.31-.59.28a14.26,14.26,0,0,1-1.76,2.32c1.46,1.06.82,2.34,0,1.76a5.3,5.3,0,0,0-1.65-2.32l.17-.14a5.25,5.25,0,0,1,1.16.5,27.46,27.46,0,0,0,1.12-3Zm.3,8.25c2.51,2.21,1.5,4.33.58,3.42a9,9,0,0,0-.81-3.33Zm10.51-7a1.09,1.09,0,0,1-.7.29V35.43a1.16,1.16,0,0,1-.88.38h-.15V34.74H182.4v.84c0,.1-.36.36-.88.36h-.13V22.06l1.21.53h5.22l.57-.69Zm-7.25.18v5.23h2.21V23.08Zm0,11.17h2.21V28.76H182.4Zm3.2-11.17v5.23h2.32V23.08Zm2.32,11.17V28.76H185.6v5.49Z"/><path class="cls-2" d="M193.71,22.52a2.57,2.57,0,0,1,.83.49,2.94,2.94,0,0,1,1.09,1.78c0,.36-.23.66-.63,1.64a11.43,11.43,0,0,0-1.07,4.31,3.29,3.29,0,0,0,.31,1.65c.1.2.25.23.38,0,.34-.54,1.24-2.73,1.62-3.56l.39.19c-.31.85-1,2.77-1.23,3.36a5.5,5.5,0,0,0-.26,1.12c0,.51.23,1,.23,1.41a.44.44,0,0,1-.46.5c-.29,0-.53-.26-.78-.62a7.65,7.65,0,0,1-.95-3.82,15.91,15.91,0,0,1,.79-4.56,8.72,8.72,0,0,0,.42-1.9,2.83,2.83,0,0,0-.95-1.78Zm7,.29a3.68,3.68,0,0,1,1.19-.31c.69,0,1.56.45,1.56.84s-.15.42-.27,1.14c-.06.36-.09.82-.13,1.36a9.66,9.66,0,0,0,1.06-.36,7.34,7.34,0,0,1,1-.44c.34,0,.85.19.85.52s-.21.46-.75.65-1.28.38-2.22.58c0,1.68.14,3.36.24,4.62a6.44,6.44,0,0,1,2.7,1.47,1.35,1.35,0,0,1,.52.92c0,.32-.15.52-.43.52s-.44-.2-.75-.49a6.79,6.79,0,0,0-2-1.42c0,.18,0,.32,0,.47,0,1.24-.76,2.13-2.77,2.13-1.46,0-2.61-.67-2.61-1.85,0-1.39,1.43-2,3.2-2a10.41,10.41,0,0,1,1.17.08c0-1.16-.15-2.85-.18-4.28a12.91,12.91,0,0,1-1.84.15,2.73,2.73,0,0,1-2.57-1.49l.25-.23a3.53,3.53,0,0,0,2.28.84,10.94,10.94,0,0,0,1.88-.17c0-.8,0-1.76,0-2.19s-.06-.47-.29-.53a4.57,4.57,0,0,0-1.14-.15Zm1.68,9.24a6.67,6.67,0,0,0-1.68-.2c-1,0-2.12.43-2.12,1.21s.73,1,1.71,1c1.78,0,2.09-.66,2.09-2Z"/><path class="cls-2" d="M211,30c0,2.07.41,3.72,4.18,3.72a16.56,16.56,0,0,0,4.43-.64c.4,0,.9.23.9.58s-.18.45-.67.62a15.32,15.32,0,0,1-4.48.54c-4.14,0-5.37-1.95-4.8-4.82Zm2.13-3.17,2.43-1.59c.18-.11.16-.16-.07-.18-1.91,0-3.08-.1-4.29-1.42l.24-.3a5.12,5.12,0,0,0,3.25.9,17.7,17.7,0,0,0,3-.34c.6,0,1.45.31,1.45.69s-.16.42-.57.49a10,10,0,0,0-1.76.45c-.82.3-2.31,1.05-3.43,1.62Z"/><path class="cls-2" d="M226.74,22.19a4.87,4.87,0,0,1,1-.16c.74,0,1.68.49,1.68.87s-.32.42-.45.93-.22.78-.36,1.35a11.28,11.28,0,0,0,2.84-.86,3.59,3.59,0,0,1,1.19-.52c.34,0,.82.11.82.5s-.45.56-1,.79a22.25,22.25,0,0,1-4.05,1c-.33,1.27-.88,3.27-1.13,4.18-.1.38-.1.46.26.17a7.67,7.67,0,0,1,4.69-1.93c2.4,0,3.52,1.45,3.52,3.1,0,2.94-4.17,4.11-7.9,3.86l0-.41a14.11,14.11,0,0,0,3.2-.47c2.89-.79,3.64-2.09,3.64-3.25a2.28,2.28,0,0,0-2.48-2.28c-1.81,0-3.62,1.41-4.8,2.75-.24.28-.49.9-.8.9s-.68-.61-.68-1.11c0-.26.11-.33.36-.92.34-.88,1-3.2,1.27-4.49-.36,0-.72.05-1.08.05-1.37,0-1.86-.13-2.79-1.78l.29-.22a3.31,3.31,0,0,0,2.67,1.15,8.93,8.93,0,0,0,1.11-.07,18.43,18.43,0,0,0,.36-2.06c0-.32-.07-.41-.33-.49a5.28,5.28,0,0,0-1-.23Z"/><path class="cls-2" d="M242,22.49l.1-.36a6,6,0,0,1,2.94.93A1.77,1.77,0,0,1,246,24.6c0,.4-.18.62-.53.62a11.58,11.58,0,0,0-1.25-.1,13.59,13.59,0,0,0-2.47.39c-.26.07-.34.18-.34.35s.19.62.19.94a5.25,5.25,0,0,1-.31,1.41,11.91,11.91,0,0,0-.39,2.4c0,.18.1.21.23.1a8.9,8.9,0,0,1,5.45-2.35c2.45,0,3.63,1.6,3.63,3.23,0,2.94-4.36,4.14-8.1,3.91l-.05-.41a14.9,14.9,0,0,0,3.1-.46c3-.82,3.91-2.14,3.91-3.33a2.38,2.38,0,0,0-2.55-2.37c-1.83,0-3.77,1.43-5.05,2.89-.24.28-.44.78-.75.78a.74.74,0,0,1-.55-.34,1.25,1.25,0,0,1-.33-.75c0-.26.12-.64.16-1.05.12-1,.41-2.4.54-3.2a6.46,6.46,0,0,0,.05-1.47c0-.34.15-.62.67-.75.85-.23,2.43-.57,3.09-.82.24-.08.28-.24,0-.52A4.77,4.77,0,0,0,242,22.49Z"/></g></g></svg>