<svg xmlns="http://www.w3.org/2000/svg" viewBox="0 0 470 80"><defs><style>.cls-1{fill:#009c94;}.cls-2{fill:#fff;}</style></defs><g id="レイヤー_2" data-name="レイヤー 2"><g id="wire"><rect class="cls-1" width="470" height="80"/><path class="cls-2" d="M114.49,36.65c.84-.07.93-.6,1.39-.6s2.26,1.35,2.26,1.92-.75.72-.89,1.37c-.22,1.06-.75,4.3-1.23,6.92.87.07,1.47.4,1.47.86a.62.62,0,0,1-.7.69c-.53,0-1.8-.14-2.9-.14-1.87,0-5.11.17-8,.34,0,.31,0,.6,0,1,0,.6-.22.88-.72.88s-1-.64-1-1.63c0-.48.07-2,.07-3a39.57,39.57,0,0,0-.67-6.65,3.7,3.7,0,0,0-1.29-2l.33-.41a5.8,5.8,0,0,1,2.59,1.25C107.63,37.3,113.55,36.77,114.49,36.65Zm0,9.61a77.61,77.61,0,0,0,1-8.14c0-.19-.07-.27-.29-.27-1.53,0-5.56.32-6.88.46-.79.07-1.46.31-1.9.31a2.48,2.48,0,0,1-1-.31c.08,1.46.29,5.83.39,8.5C108.44,46.64,112.28,46.35,114.51,46.26Z"/><path class="cls-2" d="M129.67,32.48a5.15,5.15,0,0,1,1.63.5c.67.34,1.51,1.11,1.51,1.54s-.5.55-.79,1a22.7,22.7,0,0,1-1.77,2.9,3,3,0,0,0,.89.15c1.36,0,6.86-.75,8.17-1,1.06-.15,1.2-.46,1.66-.46.82,0,1.94.53,1.94,1.13,0,.41-.12.65-.93.65s-2.21,0-3.31,0c-.82,0-2.19.19-3.5.36,1,.4,1.7,1,1.7,1.41s-.41.58-.6,1.11a19,19,0,0,1-9,10l-.43-.46c4.67-3.12,7.86-8.44,7.86-10.8a1.43,1.43,0,0,0-.81-1.15l-1.37.19c-.6.07-1.17.24-1.63.24a2.33,2.33,0,0,1-1.22-.69,21.21,21.21,0,0,1-5.28,4.92l-.41-.46c3.82-3.19,6.53-7.9,6.53-9.36,0-.53-.39-.91-1.11-1.49Z"/><path class="cls-2" d="M147,41c.53.82.91,1.56,1.92,1.56,2.13,0,10.53-.55,11.63-.6,1.61-.12,2.28-.26,2.9-.26.92,0,2,.41,2,1.06,0,.43-.24.69-1.06.69s-1.68-.05-3.14-.05-8.25.36-10.05.58c-1.37.15-1.63.5-2.33.5s-1.8-1.17-2.13-2a4,4,0,0,1-.22-1.34Z"/><path class="cls-2" d="M170.47,39.17l.24-.52a25.25,25.25,0,0,1,3.22,1c1.46.6,2.35,1.47,2.35,2.38a.69.69,0,0,1-.7.74c-.74,0-1.13-.86-2.37-1.8A17.24,17.24,0,0,0,170.47,39.17Zm17.7-1.34.56.36c-2.74,4.8-7.8,9-13.1,11.93-.48.29-.74.91-1.37.91a4.93,4.93,0,0,1-2.78-1.77,4.07,4.07,0,0,1-.53-1.61l.39-.22c.64.77,1.39,1.59,2.2,1.59C175.17,49,183.86,43.83,188.17,37.83Zm-14.48-3.26L174,34a22.66,22.66,0,0,1,3,1c1.63.81,2.35,1.6,2.35,2.44a.72.72,0,0,1-.69.8c-.67,0-1.15-1-2.42-2A15.53,15.53,0,0,0,173.69,34.57Z"/><path class="cls-2" d="M193,39.58c.36.43.72.94,1.29.94,1.11,0,5.86-.51,6.94-.67.62-.08.74-.44,1.15-.44s2,1,2,1.56-.55.58-.62,1.13c-.27,1.42-.72,4.54-1.06,6.63.55.16,1,.55,1,.89a.53.53,0,0,1-.57.57c-.39,0-1.25-.17-2-.17a46,46,0,0,0-5.76.53,8.29,8.29,0,0,1-1.22.34c-.6,0-1.44-.94-1.63-1.39a2.68,2.68,0,0,1-.22-1l.29-.17c.41.46.77,1,1.44,1,1.22,0,5.21-.45,7.24-.6.12-.93.24-2.23.39-3.48-2,.15-4.27.43-5.71.63-.55.09-.82.33-1.15.33-.51,0-1.25-.77-1.49-1.22a2.58,2.58,0,0,1-.26-1l.31-.17a2.2,2.2,0,0,0,1.39.84c.7,0,4.73-.43,7-.6.14-1.23.26-2.31.33-2.86,0-.14,0-.19-.16-.19a50.06,50.06,0,0,0-6.31.72,8.86,8.86,0,0,1-1.3.41c-.55,0-1.41-1-1.56-1.44a5.13,5.13,0,0,1-.14-1Z"/><path class="cls-2" d="M228,37l.55.36c-2.88,5.11-7.34,8.95-12.59,12.31-.48.29-.75.89-1.28.89a4.69,4.69,0,0,1-2.85-1.85,4.8,4.8,0,0,1-.5-1.56l.38-.24c.72.79,1.49,1.56,2.25,1.56C215.83,48.46,224.61,42.1,228,37ZM211.9,34.73c2.73.77,6,2.4,6,4.25a.82.82,0,0,1-.84.89c-.38,0-.69-.26-1.32-1a16.11,16.11,0,0,0-4.17-3.62Z"/><path class="cls-2" d="M238.4,34.37s1.15.94,1.9,1.64q-.12.36-.63.36h-8.39l-.2-.68h6.27Zm-6.14-1-.19-.7h4.27l1-1.27s1.17.89,1.91,1.58c-.07.27-.31.39-.64.39Zm4.46,5.35,1-1.15s1.06.84,1.7,1.48c0,.27-.26.39-.59.39h-6.46l-.19-.72Zm-4.39,3.77-.19-.68h4.58l1-1.2s1.06.87,1.7,1.49c0,.27-.26.39-.59.39ZM238,44l1.84,1.43a2,2,0,0,1-1,.46v5.71c0,.17-.77.51-1.27.51h-.22V50.81h-3.67V52.5c0,.14-.6.5-1.22.5h-.24V44.17l1.58.72h3.34Zm-.63,6.14V45.61h-3.67v4.51Zm14.15-5.95s1.3,1,2,1.77c-.07.24-.28.36-.6.36h-5.68v6.24a1.6,1.6,0,0,1-1.3.46h-.24V46.3h-5.54l-.19-.69h5.73V41.33H241l-.19-.69h4.84v-4h-5l-.19-.69h7.15A48.48,48.48,0,0,0,249.36,31l2.4.77c-.09.29-.38.46-.89.43A32.08,32.08,0,0,1,248.21,36h1.85l1.08-1.37s1.17,1,1.94,1.68c-.07.26-.29.38-.65.38h-5.2v4h2.3l1.08-1.37s1.18,1,1.94,1.68c-.07.26-.28.38-.62.38h-4.7v4.28h3.14Zm-9.42-13.06c4.53,2.18,3,5.52,1.48,4.18a7.88,7.88,0,0,0-1.77-4Z"/><path class="cls-2" d="M256.41,51a26.56,26.56,0,0,0,1.68-6.79l2.21.57a.81.81,0,0,1-.86.48,17,17,0,0,1-2.67,5.93Zm6.48-12c4.25,2.45,2.88,5.47,1.51,4.25a6.12,6.12,0,0,0-.5-1.76l-1.92.41V52.5a1.52,1.52,0,0,1-1.27.48h-.22V42.15c-.84.19-1.75.36-2.73.55a.86.86,0,0,1-.6.51l-.6-1.8c.57,0,1.44-.08,2.49-.12a42.63,42.63,0,0,0,4.06-7.61l2.23.89a.87.87,0,0,1-.94.38,33.19,33.19,0,0,1-4.53,6.26l3.81-.26a12.56,12.56,0,0,0-1.08-1.85Zm-.21-7.13c-.1.29-.36.46-.87.41a22.1,22.1,0,0,1-2.59,3.41c2.14,1.56,1.2,3.43,0,2.59a7.87,7.87,0,0,0-2.42-3.41l.24-.22a7.52,7.52,0,0,1,1.7.75A39.07,39.07,0,0,0,260.4,31ZM263.11,44c3.69,3.24,2.2,6.36.86,5a13.38,13.38,0,0,0-1.2-4.9Zm15.44-10.32a1.57,1.57,0,0,1-1,.43V52a1.68,1.68,0,0,1-1.29.55H276V51H267.9v1.23c0,.14-.52.52-1.29.52h-.19V32.41l1.77.76h7.68l.84-1Zm-10.65.26v7.68h3.24V33.89Zm0,16.42h3.24V42.25H267.9Zm4.71-16.42v7.68H276V33.89ZM276,50.31V42.25h-3.4v8.06Z"/><path class="cls-2" d="M284.5,33.08a3.69,3.69,0,0,1,1.23.72,4.29,4.29,0,0,1,1.6,2.61c0,.53-.33,1-.93,2.4a17,17,0,0,0-1.56,6.34,4.85,4.85,0,0,0,.45,2.42c.15.29.36.34.55,0,.51-.79,1.83-4,2.38-5.23l.58.29c-.46,1.25-1.49,4.06-1.8,4.92a7.38,7.38,0,0,0-.39,1.66c0,.74.34,1.49.34,2.06s-.24.75-.67.75-.79-.39-1.15-.92a11.22,11.22,0,0,1-1.4-5.61,23.46,23.46,0,0,1,1.16-6.7,13.09,13.09,0,0,0,.62-2.78,4.21,4.21,0,0,0-1.39-2.62Zm10.34.43a5,5,0,0,1,1.75-.46c1,0,2.28.65,2.28,1.23s-.22.62-.38,1.68a17.46,17.46,0,0,0-.2,2,13.63,13.63,0,0,0,1.56-.53,11.13,11.13,0,0,1,1.54-.65c.5,0,1.25.29,1.25.77s-.32.67-1.11,1a32.94,32.94,0,0,1-3.26.84c0,2.47.22,4.95.36,6.8a9.23,9.23,0,0,1,4,2.16,1.91,1.91,0,0,1,.77,1.34c0,.48-.22.77-.63.77s-.65-.29-1.1-.72a10.17,10.17,0,0,0-2.9-2.09c0,.26,0,.48,0,.7,0,1.82-1.13,3.12-4.08,3.12-2.13,0-3.84-1-3.84-2.72,0-2,2.12-3,4.71-3a11.51,11.51,0,0,1,1.72.12c-.07-1.71-.21-4.2-.26-6.29a20.87,20.87,0,0,1-2.71.21c-1.49,0-2.47-.33-3.77-2.18l.36-.34a5.2,5.2,0,0,0,3.36,1.23,16.88,16.88,0,0,0,2.76-.24c0-1.18,0-2.59,0-3.22s-.1-.69-.43-.79a8.37,8.37,0,0,0-1.68-.22Zm2.47,13.56a9.91,9.91,0,0,0-2.47-.29c-1.49,0-3.12.63-3.12,1.78s1.08,1.54,2.52,1.54c2.61,0,3.07-1,3.07-2.91Z"/><path class="cls-2" d="M310,44.07c0,3,.6,5.47,6.14,5.47a24.58,24.58,0,0,0,6.5-.93c.6,0,1.32.33,1.32.84s-.26.67-1,.91a22.2,22.2,0,0,1-6.58.79c-6.09,0-7.89-2.85-7.05-7.08Zm3.12-4.66c1.2-.76,2.71-1.75,3.57-2.32.27-.17.24-.24-.09-.27-2.81,0-4.54-.14-6.31-2.09l.36-.43a7.53,7.53,0,0,0,4.77,1.32,25.73,25.73,0,0,0,4.34-.5c.89,0,2.14.45,2.14,1s-.24.62-.84.72a15.71,15.71,0,0,0-2.59.67c-1.2.43-3.38,1.53-5,2.37Z"/><path class="cls-2" d="M333,32.6a7,7,0,0,1,1.51-.24c1.08,0,2.47.72,2.47,1.27s-.48.62-.67,1.37c-.17.53-.32,1.15-.53,2A16.8,16.8,0,0,0,340,35.72a5.33,5.33,0,0,1,1.75-.77c.51,0,1.2.17,1.2.74,0,.41-.65.82-1.51,1.16a31.66,31.66,0,0,1-5.95,1.48c-.48,1.88-1.29,4.8-1.65,6.15-.15.55-.15.67.38.24,2.23-1.7,4.37-2.83,6.88-2.83,3.53,0,5.19,2.13,5.19,4.56,0,4.32-6.14,6-11.61,5.66l-.08-.6a19.8,19.8,0,0,0,4.71-.7c4.24-1.15,5.34-3.07,5.34-4.77A3.35,3.35,0,0,0,341,42.7c-2.66,0-5.33,2.07-7.05,4-.36.41-.72,1.33-1.18,1.33s-1-.89-1-1.64c0-.38.17-.48.53-1.34.51-1.3,1.42-4.71,1.87-6.6-.52.05-1,.07-1.58.07-2,0-2.74-.19-4.1-2.62l.43-.31a4.84,4.84,0,0,0,3.91,1.68,13.45,13.45,0,0,0,1.63-.09,28.85,28.85,0,0,0,.53-3c0-.48-.1-.6-.48-.72a7.55,7.55,0,0,0-1.44-.33Z"/><path class="cls-2" d="M355.48,33l.14-.53a8.76,8.76,0,0,1,4.32,1.37,2.6,2.6,0,0,1,1.36,2.26c0,.6-.26.91-.76.91s-.79-.17-1.85-.15a20.81,20.81,0,0,0-3.62.58c-.39.1-.51.26-.51.5s.29.92.29,1.4a8,8,0,0,1-.45,2.06,17.12,17.12,0,0,0-.58,3.53c0,.26.14.31.34.14a13.05,13.05,0,0,1,8-3.45c3.6,0,5.32,2.35,5.32,4.75,0,4.32-6.4,6.07-11.89,5.74l-.08-.6a21.52,21.52,0,0,0,4.56-.68c4.44-1.2,5.73-3.14,5.73-4.89a3.48,3.48,0,0,0-3.74-3.48c-2.68,0-5.54,2.11-7.41,4.24-.36.41-.65,1.16-1.1,1.16a1.11,1.11,0,0,1-.82-.51,1.85,1.85,0,0,1-.48-1.1c0-.39.17-.94.24-1.54.17-1.44.6-3.53.79-4.7a10,10,0,0,0,.08-2.16c0-.51.21-.91,1-1.11,1.25-.33,3.57-.84,4.53-1.2.36-.12.41-.36,0-.76A7.22,7.22,0,0,0,355.48,33Z"/></g></g></svg>