<svg xmlns="http://www.w3.org/2000/svg" viewBox="0 0 350 447.98"><defs><style>.cls-1{fill:#fff;}.cls-2{fill:#a6e8e6;}.cls-3{fill:#c29a62;}.cls-4{fill:none;stroke:#fff;stroke-miterlimit:10;}</style></defs><g id="レイヤー_2" data-name="レイヤー 2"><g id="wire"><path class="cls-1" d="M7.27,38.56H20.84v1.55H8.91V67.38H7.27Z"/><path class="cls-1" d="M43.9,50.35c-.22.44-.62.62-1.68.4a51.35,51.35,0,0,1-3.91,4.83l1.38.49c-.09.4-.53.71-1.29.84V78.42a3.35,3.35,0,0,1-2.39,1h-.49V58.46a52.31,52.31,0,0,1-7.05,5.86l-.53-.53A63.46,63.46,0,0,0,39.73,48.13Zm-.49-9.22c-.26.44-.66.62-1.68.4A52.68,52.68,0,0,1,29.27,51.77l-.49-.58A56.47,56.47,0,0,0,39.47,38.87Zm22.35,9.31s2.4,1.82,3.82,3.19c-.09.49-.54.71-1.11.71H61.11V74.69c0,2.4-.71,4.08-5.46,4.53a2.61,2.61,0,0,0-1.24-2.13c-.84-.53-2.35-.93-5-1.29v-.66s6.21.44,7.45.44c1,0,1.25-.27,1.25-1V54.34H43.68l-.35-1.28H63.68ZM46.12,44.19l-.36-1.33h16l2.09-2.58s2.35,1.82,3.77,3.2c-.09.48-.54.71-1.16.71Z"/><path class="cls-1" d="M90.38,49.69c-.27.48-.67.7-1.73.57a56.64,56.64,0,0,1-3.11,5.1l1.65.62a1.67,1.67,0,0,1-1.33.8V78.37a3.09,3.09,0,0,1-2.31,1H83V58.73a42.59,42.59,0,0,1-5.72,5.9l-.53-.53A57.1,57.1,0,0,0,86,47.78ZM90.2,41c-.27.45-.66.62-1.68.4a48.08,48.08,0,0,1-11,10.25L77,51.1a50.44,50.44,0,0,0,9.14-12.32Zm3.15,26.34c.75,4.22-.62,7.14-1.95,8.47-.89.85-2.48,1.16-3.06.18a1.91,1.91,0,0,1,.84-2.35,9.45,9.45,0,0,0,3.37-6.34Zm.49-5.41v1.64c0,.23-.89.89-2.22.89h-.4V49.86l3.15,1.38h7.32V46.4H89.93l-.35-1.33h12.11V39.22l4.47.44c-.08.62-.53,1.07-1.64,1.25v4.16h7.54l2.09-2.61s2.43,1.86,3.9,3.23c-.13.49-.49.71-1.11.71H104.52v4.84h8.34l1.33-1.6L117.34,52a2.7,2.7,0,0,1-1.64.71V63.08a3,3,0,0,1-2.26.84H113v-2Zm0-9.4v8.12h4.52V52.52ZM110.38,75.8c.88.27,1.11.62,1.11,1.16,0,1.19-1.25,1.72-7.23,1.72h-4.13c-3.1,0-3.68-.66-3.68-2.66V65.87l4,.49c0,.49-.48.88-1.24,1v8.07c0,.57.18.71,1.47.71h3.63c1.69,0,3,0,3.42,0s.62-.13.79-.44A28.68,28.68,0,0,0,109.67,71h.57ZM99.69,63.25c9.4,1.73,7.89,7.94,4.92,6.3-.71-2.08-3.23-4.57-5.32-5.9Zm5.9-2.61V52.52H100.8v8.12ZM108,52.52v8.12h5V52.52Zm2.39,13.66c10.47,5,8,12.28,5,9.89-.4-3.24-3.1-7.18-5.5-9.53Z"/><path class="cls-1" d="M139.07,79.62H125.5V78.06h11.93V50.79h1.64Z"/><path class="cls-1" d="M20.09,11.43a16.46,16.46,0,0,0,8.24,4.78l0,.21a1.52,1.52,0,0,0-1.16,1.11,14.79,14.79,0,0,1-7.45-6v6.06c0,.17-.55.49-1.06.49h-.26v-5.6a20.2,20.2,0,0,1-8.14,5.18L10,17.33a19.86,19.86,0,0,0,7.43-5.9H14.26v.71c0,.12-.57.42-1.09.42H13V4.65l1.4.65h4V3.23H10.59l-.16-.57h7.93V0l2,.24c-.06.27-.22.47-.69.55V2.66h5.11l1-1.3s1.16.93,1.91,1.56c-.06.21-.27.31-.55.31H19.68V5.3h4l.75-.8L26,5.74a1.46,1.46,0,0,1-.83.37V12a1.83,1.83,0,0,1-1.12.43h-.2v-1ZM14.26,5.88V8h4.1V5.88Zm0,5h4.1V8.62h-4.1Zm5.42-5V8h4.18V5.88Zm4.18,5V8.62H19.68v2.22Z"/><path class="cls-1" d="M36.2,13.17c-.16.2-.32.26-.75.16a17.9,17.9,0,0,1-5.62,3.86l-.22-.27a18.6,18.6,0,0,0,4.87-4.7ZM45.78,1.44S47,2.35,47.71,3c-.06.21-.28.31-.55.31H30.08l-.17-.57h8.14V0l2,.22c0,.27-.24.47-.71.53v2h5.34Zm-6.39,9v5.84c0,1-.3,1.71-2.25,1.89a1.17,1.17,0,0,0-.47-.91,4.79,4.79,0,0,0-2-.49V16.4s2.36.18,2.84.18.51-.12.51-.39v-5.8H34.42v.71c0,.12-.57.43-1.1.43h-.2V4.89l1.42.63h8.3l.71-.83L45.21,6a1.81,1.81,0,0,1-.87.4v4.57c0,.14-.67.44-1.13.44H43v-1ZM43,9.82V6.07h-8.6V9.82Zm-1.5,2.64c6.43,2.21,5.95,5.42,4.34,4.63a19,19,0,0,0-4.54-4.43Z"/><path class="cls-1" d="M59.18,1.93a3.89,3.89,0,0,1,1.54.32c.69.35,1.38,1.08,1.38,1.59s-.46.44-.79,1-1.5,2.64-2.72,4.3c1.46,1.1,3.29,2.86,3.31,3.88,0,.45-.22.81-.67.81-.79,0-.91-1.3-3.47-3.59a22.5,22.5,0,0,1-8.87,6.51l-.26-.4a28.2,28.2,0,0,0,8.2-6.9,34.21,34.21,0,0,0-4.61-3.13l.28-.46A27.48,27.48,0,0,1,57.58,8.5c1.3-1.9,2.6-4.32,2.6-5S59.75,2.7,59,2.29Z"/><path class="cls-1" d="M67.42,1.83a6.41,6.41,0,0,1,1.26-.23c.83,0,2.17.75,2.17,1.2s-.36.47-.44,1.12c-.09,1-.13,2.39-.15,3.47a17.22,17.22,0,0,1,4.87,1.82,1.93,1.93,0,0,1,1.1,1.48.64.64,0,0,1-.63.67c-.65,0-.87-.67-2-1.58a15.92,15.92,0,0,0-3.29-1.7c0,1.36,0,4.6,0,6.69,0,.86.05,1.46.05,1.79,0,.51-.19.75-.63.75-.65,0-1-1.08-1-1.76,0-.43.18-.78.26-1.53.15-1.46.15-4.69.15-6.19s0-3.73-.12-4.71c0-.64-.49-.75-1.53-.87Z"/><path class="cls-1" d="M90.16,4.65c.69-.06.77-.49,1.15-.49s1.85,1.1,1.85,1.58-.61.59-.73,1.12c-.18.87-.61,3.53-1,5.68.71.06,1.2.33,1.2.71a.51.51,0,0,1-.57.57c-.44,0-1.48-.12-2.39-.12-1.54,0-4.2.14-6.56.28,0,.25,0,.49,0,.79,0,.49-.18.73-.59.73s-.81-.54-.81-1.34c0-.4.06-1.62.06-2.47a32.28,32.28,0,0,0-.56-5.46,3.07,3.07,0,0,0-1.06-1.66l.28-.33a4.81,4.81,0,0,1,2.12,1C84.53,5.19,89.4,4.75,90.16,4.65Zm0,7.89A63.11,63.11,0,0,0,91,5.86c0-.16-.06-.22-.23-.22-1.27,0-4.58.26-5.66.37-.65.06-1.2.26-1.56.26A2,2,0,0,1,82.77,6c.06,1.21.24,4.79.32,7C85.2,12.85,88.35,12.62,90.18,12.54Z"/><path class="cls-1" d="M106.31,11.43a16.37,16.37,0,0,0,8.24,4.78l0,.21a1.52,1.52,0,0,0-1.17,1.11,14.79,14.79,0,0,1-7.45-6v6.06c0,.17-.55.49-1.06.49h-.26v-5.6a20.2,20.2,0,0,1-8.14,5.18l-.18-.33a19.86,19.86,0,0,0,7.43-5.9h-3.21v.71c0,.12-.57.42-1.08.42h-.2V4.65l1.4.65h4V3.23H96.8l-.15-.57h7.92V0l2,.24c-.06.27-.21.47-.69.55V2.66H111l1-1.3s1.17.93,1.92,1.56c-.06.21-.28.31-.56.31h-7.51V5.3h4l.75-.8,1.6,1.24a1.46,1.46,0,0,1-.83.37V12a1.83,1.83,0,0,1-1.12.43h-.2v-1Zm-5.84-5.55V8h4.1V5.88Zm0,5h4.1V8.62h-4.1Zm5.42-5V8h4.18V5.88Zm4.18,5V8.62h-4.18v2.22Z"/><path class="cls-1" d="M127.24,5.54h4.16l.67-.83,1.5,1.19a1.42,1.42,0,0,1-.81.35V17.49a1.42,1.42,0,0,1-1.09.41h-.19V16h-12.9v1.54a1.22,1.22,0,0,1-1,.41h-.2v-13l1.48.63h3.41V2.23h-6l-.16-.57h15l1-1.25s1.12.87,1.81,1.5c0,.22-.24.32-.51.32h-6.21Zm0,.57v4.36c0,.29.06.35.43.35h.87c.41,0,.71,0,.87,0a.32.32,0,0,0,.27-.17,21.87,21.87,0,0,0,.5-2.39h.25l.06,2.47c.36.11.47.27.47.53,0,.51-.51.77-2.44.77h-1.14c-1.17,0-1.38-.36-1.38-1.23V6.11h-2.53c-.08,2.58-.71,5.38-4.55,7.2l-.24-.28a7.73,7.73,0,0,0,3.55-6.92h-3.65v9.35h12.9V6.11ZM126,5.54V2.23h-2.53V5.54Z"/><path class="cls-1" d="M140.6.73c-.1.22-.33.35-.75.33a25.67,25.67,0,0,1-2.17,3c1.42,1.16.65,2.54-.29,1.87a6,6,0,0,0-1.8-2.6l.2-.16a6.16,6.16,0,0,1,1.46.61c.45-1.06,1-2.54,1.4-3.82Zm-5,15.57a22.35,22.35,0,0,0,1.17-5.12l1.77.43a.65.65,0,0,1-.69.44A14,14,0,0,1,136,16.46Zm5-9.74c3.43,2,2.23,4.4,1.1,3.4a4.25,4.25,0,0,0-.25-1.09l-1.38.28v8.51a1.26,1.26,0,0,1-1,.4h-.17V9.36l-2.09.36a.73.73,0,0,1-.52.41l-.55-1.49,1.84,0c1.14-1.9,2.52-4.46,3.37-6.31l1.83.84a.75.75,0,0,1-.79.28,53.05,53.05,0,0,1-3.86,5.17c1,0,2.07-.08,3.21-.14a11.49,11.49,0,0,0-.95-1.76ZM141,11c3,2.23,1.77,4.61.71,3.55a9.12,9.12,0,0,0-1-3.45Zm6.36.2c-.15.18-.33.21-.77.23a9.18,9.18,0,0,1-4.61,5.64l-.18-.29a9.32,9.32,0,0,0,3.53-5.44h-2.58l-.18-.58h2.7L146,10Zm6.53-.79a.57.57,0,0,1-.73.16,21.6,21.6,0,0,1-2.72,1.89,9.29,9.29,0,0,0,3.76,3.17l0,.24a1.49,1.49,0,0,0-1,1.12c-2.27-1.67-3.79-3.8-4.5-8.08v7.24c0,1-.21,1.71-1.87,1.91a1.31,1.31,0,0,0-.35-.93,3.27,3.27,0,0,0-1.56-.49v-.3s1.81.14,2.19.14.39-.1.39-.37V8.44H145V9c0,.12-.42.37-1.05.37h-.18V1.66l1.44.63h1.4c.16-.67.36-1.62.5-2.29l2.05.41a.65.65,0,0,1-.71.44l-1.15,1.44h3.77l.63-.77,1.4,1.1a1.21,1.21,0,0,1-.73.32V8.81a1.29,1.29,0,0,1-1,.38h-.19V8.44h-2.37a11.48,11.48,0,0,0,1.42,3.7,20.66,20.66,0,0,0,2.09-2.87ZM145,2.84V5.07h6.13V2.84Zm6.13,5V5.64H145V7.87Z"/><path class="cls-1" d="M148.86,72.45c1.57,7.46-2.9,6.67-1.61,4.67a7.68,7.68,0,0,0,1.18-4.67Zm10.51-2.53a1.66,1.66,0,0,1-1,.4c-.26,5.17-1,7.85-2,8.75a3.39,3.39,0,0,1-2.34.76,1.43,1.43,0,0,0-.34-1.08A4.36,4.36,0,0,0,152,78.2v-.45c.79.06,2,.16,2.49.16a1.21,1.21,0,0,0,.87-.24c.66-.57,1.18-3,1.45-7.54h-6.6V71c0,.14-.5.56-1.29.56h-.23V57.73l1.86.79h5.57l1.16-1.37s1.29,1,2.1,1.74c-.08.29-.31.42-.68.42h-4.44v2.78h1.81l1-1.28s1.21.94,1.9,1.62c-.06.29-.32.42-.66.42h-4v2.84H156l1-1.26a24.84,24.84,0,0,1,1.9,1.63.6.6,0,0,1-.66.42h-3.94v2.89h2.31l.92-1Zm-9,2.26c2.52,3.37.92,6.18-.16,4.86a12.22,12.22,0,0,0-.24-4.75Zm-.19-12.87v2.78h2.55V59.31Zm2.55,3.54h-2.55v2.84h2.55Zm-2.55,6.52h2.55V66.48h-2.55ZM152,71.74c3.36,2.57,2,5.2.86,4a9.52,9.52,0,0,0-1.21-3.89Zm1.65-.58c3.68,1.29,2.55,3.94,1.31,3a5.7,5.7,0,0,0-1.62-2.76Zm10.83-3.5c1.1,4.89,3.52,9.38,7.3,11.22l-.05.29a2,2,0,0,0-1.47,1.53c-3.66-2.61-5.42-7.07-6.31-13h-1.65c-.11,4.47-.77,9.54-4.68,13.06l-.4-.26c3-3.94,3.42-9,3.42-14V57.73l2,.84h5.76l.92-1,2.07,1.6a1.73,1.73,0,0,1-1.08.5v8.93a2.29,2.29,0,0,1-1.42.55h-.23V67.66Zm-2.18-.78h6.33V59.33h-6.33v7.55Z"/><path class="cls-1" d="M186.15,65.9c0,1.21.1,4.68.26,6.76,0,.23.05.47.08.68a15.24,15.24,0,0,1,3.78,1.21c1.63.73,3.86,2.1,3.86,3.47a.69.69,0,0,1-.76.76c-.79,0-1.63-1.5-4.15-2.92a10.75,10.75,0,0,0-2.55-1c0,.34.05.71.05,1.16,0,2.2-1.65,3.68-4.86,3.68-2.73,0-4.65-1.19-4.65-3.05,0-2.45,3-3.55,6.2-3.55.61,0,1.18,0,1.71.08-.08-2-.31-5.62-.31-7.41s-.06-4.63-.11-5.15a.93.93,0,0,0-.71-1,8.87,8.87,0,0,0-1.84-.26l-.05-.55a5.94,5.94,0,0,1,1.94-.4c1.37,0,3,.87,3,1.5s-.32.82-.53,1.6a21.44,21.44,0,0,0-.34,3.16c.29,0,.58,0,.76,0a14.62,14.62,0,0,0,3.39-.52,10.14,10.14,0,0,1,1.66-.58c1,0,1.52.34,1.52.92,0,.32-.29.63-1,.84a18.71,18.71,0,0,1-4.62.71,4.66,4.66,0,0,1-1.76-.5Zm-1,8.57a16,16,0,0,0-2.55-.21c-2.52,0-4.36.94-4.36,2.21,0,.92,1,1.65,3,1.65C184.44,78.12,185.15,77,185.17,74.47Z"/><path class="cls-1" d="M203.07,57.73l.34-.34a4.3,4.3,0,0,1,3,3,6.6,6.6,0,0,1-.34,1.55,20.42,20.42,0,0,0-.61,2.65c-.1.55.11.58.4,0,1.23-2.18,3.07-3.76,4.78-3.76,3.15,0,4.6,3.39,4.6,8.07,0,5.44-2.42,9.83-9.46,11.67l-.29-.61c6.36-2.55,7.91-6.54,7.91-11.24,0-4.29-1.19-6.83-3-6.83-1.24,0-2.89,1.18-3.81,2.94a10.48,10.48,0,0,0-1.37,5c0,1,.16,1.81.16,2.68a.76.76,0,0,1-.74.84.93.93,0,0,1-.92-.66,7.39,7.39,0,0,1-.39-2.44c0-2.84,1.26-7.91,1.26-9.33S204.17,59,203.07,57.73Z"/><path class="cls-1" d="M231,63.14c-.15.29-.42.4-1,.29a28.19,28.19,0,0,1-2.26,3.05l.74.29a1,1,0,0,1-.79.47V80.12a1.83,1.83,0,0,1-1.37.6h-.31V68.45a30.53,30.53,0,0,1-3.42,3.15l-.31-.31a40.5,40.5,0,0,0,6.25-9.38ZM230.4,58c-.16.27-.42.37-1,.24a26.69,26.69,0,0,1-6.75,5.47l-.29-.35a27.68,27.68,0,0,0,5.65-6.7Zm8.73,19.87a17,17,0,0,0,4.2.45c.87,0,2.68,0,3.71,0v.37c-.61.1-.9.68-.92,1.39h-3c-5.07,0-8-1.47-9.67-7.1a14.52,14.52,0,0,1-4.6,7.73l-.29-.29c2.63-3,3.62-8,3.81-12.09l2.73.5c-.08.37-.37.58-.94.61-.14.86-.29,1.78-.5,2.7.89,2.61,2.1,4.18,3.75,5.1V66.48l2.53.26c-.06.35-.27.61-.84.69v3.7h3.28l1.21-1.52s1.37,1.1,2.23,1.86c-.08.29-.34.42-.71.42h-6ZM231.4,60.67H237V56.81l2.58.26c-.06.35-.29.58-.87.69v2.91h3.47l1.21-1.49s1.36,1,2.23,1.86c-.08.29-.32.42-.68.42h-6.23v4.08h4.6L244.49,64s1.39,1.08,2.26,1.89c-.08.29-.32.42-.69.42H230.27l-.21-.78H237V61.46h-5.36Z"/><path class="cls-1" d="M273.08,63.33s1.5,1.15,2.42,2c-.08.29-.32.43-.71.43H251.66l-.21-.79h5.05V58.62l2.52.27c0,.34-.29.58-.87.68V65h4.47V56.63l2.68.29c-.05.36-.31.63-.94.71v3h4.52L270.16,59s1.45,1.16,2.37,1.95c-.06.29-.34.42-.71.42h-7.46V65h7.38Zm-12.77,4.81c-.13.23-.37.36-1,.26a22.25,22.25,0,0,1-7.57,6.15l-.24-.34a23,23,0,0,0,6.36-7.36ZM252.48,80.2c6.78-1.34,12.09-3.26,16.34-9.3l2.34,1.36c-.16.26-.45.32-1.1.19-4.76,5.7-10.17,7.38-17.48,8.25Zm6.46-7.26s2.6.19,3.13.19.55-.13.55-.5V65.88l2.6.29c-.08.36-.31.52-.86.63v5.93c0,1.37-.32,2.21-2.71,2.45a1.71,1.71,0,0,0-.58-1.21,4.18,4.18,0,0,0-2.13-.63Zm8.67-5.7c8.15,2.13,7.68,6.6,5.55,5.6-1-1.84-3.73-4.07-5.78-5.31Z"/><path class="cls-1" d="M332.61,57.23c-.11.3-.35.46-1,.38a24,24,0,0,1-9.84,10.61l-.24-.35a25.53,25.53,0,0,0,8.39-11.69Zm7.82,8.38,2.07,1.72a1.8,1.8,0,0,1-1.08.41c-.35,5.91-1.13,10.56-2.42,11.79a4.31,4.31,0,0,1-3.17,1,1.42,1.42,0,0,0-.59-1.29,11,11,0,0,0-3.06-.81l0-.45c1.37.13,3.76.35,4.43.35a1.35,1.35,0,0,0,1.1-.35c.94-.78,1.59-5.13,1.88-10.51h-6.55c-.46,4.46-1.88,9.49-10.16,13.22l-.35-.43c7.26-4,8.33-8.81,8.57-12.79h-5.64l-.24-.8h14.16ZM336.8,56.1c1.69,4.17,5.94,7.93,9.81,9.81l-.08.29a2,2,0,0,0-1.67,1.4,22.17,22.17,0,0,1-8.52-11.23Z"/><path class="cls-2" d="M289.65,44.77l11.62-34.25,5.17-.11c1.61,0,3.94.07,7,.2,1.84.09,3,.14,3.54.14a47.47,47.47,0,0,0,7.41-.34,2.63,2.63,0,0,0,1.41-1.1,2,2,0,0,1,1.68-.87h1.07l-2.14,7.18a6.45,6.45,0,0,1-1,2.26,36.12,36.12,0,0,1-5.73.45q-3,0-10.85-.29c-2.69-.11-5-.16-6.91-.16l-5.86,17.29a19.31,19.31,0,0,1,5.38-1A14.74,14.74,0,0,1,316.6,49.48q0,8.31-5.7,16.62T293.64,79.52Q285.72,83,273,83.39a10.42,10.42,0,0,1-.11-1.35,2,2,0,0,1,.39-1.17,48.25,48.25,0,0,0,10.11-1.49,36,36,0,0,0,12-5.22A31.07,31.07,0,0,0,305,63.77q3.9-6.65,3.9-12.27a10.26,10.26,0,0,0-2.72-7.35,9.16,9.16,0,0,0-6.94-2.86Q295.26,41.29,289.65,44.77Z"/><rect class="cls-3" x="31.01" y="234.15" width="287.99" height="24"/><path class="cls-1" d="M62.46,241.52s1,.72,1.52,1.25c0,.17-.17.25-.41.25H60.7a13.74,13.74,0,0,1-2.53,6c5.64,2.22,5.14,4.46,3.86,3.86a16.65,16.65,0,0,0-4.5-3.16c-1.71,1.67-4.24,2.72-8.16,3.3l-.1-.27c3.43-.74,5.75-1.83,7.35-3.48a30.44,30.44,0,0,0-3.86-1.53c-.16.33-.3.64-.45.93a1.65,1.65,0,0,1-1.2-.12A57.08,57.08,0,0,0,53.74,243H49.37l-.13-.46h4.69c.69-1.67,1.3-3.25,1.6-4.26l1.62.3c-.07.23-.23.39-.64.39-.31.83-.83,2.14-1.44,3.57h6.56ZM54.88,243c-.64,1.51-1.36,3.11-2,4.42a37.83,37.83,0,0,1,4.27,1.2A12.88,12.88,0,0,0,59.5,243Z"/><path class="cls-1" d="M66.75,241.61a4.8,4.8,0,0,1-.29,3.59c-.28.4-.83.56-1.09.27a.77.77,0,0,1,.19-.93,5,5,0,0,0,.91-2.93Zm2.51-3.09c-.05.23-.18.39-.59.45v13.64c0,.16-.44.4-.8.4h-.21V238.33Zm-.11,2.57c2.44,1.48,1.45,3.34.6,2.52a5.56,5.56,0,0,0-.81-2.43ZM78.86,251s.87.67,1.38,1.17c0,.16-.19.24-.4.24H70l-.13-.45h4.56v-4.72H71.23l-.13-.47h3.31v-3.87H72a11.22,11.22,0,0,1-1.74,3l-.26-.16a20.25,20.25,0,0,0,1.87-6.4l1.57.4c-.06.19-.2.35-.56.35a21,21,0,0,1-.7,2.29h2.27v-4l1.54.16c0,.22-.13.37-.5.42v3.39h2.21l.75-.94s.84.67,1.36,1.16c0,.18-.19.26-.41.26H75.45v3.87h1.8l.73-1s.85.69,1.35,1.19c0,.16-.2.24-.42.24H75.45V252h2.66Z"/><path class="cls-1" d="M94.37,240a1.46,1.46,0,0,1-.77.36V252.5a1.3,1.3,0,0,1-.93.41h-.16v-1.23H84.86v.88c0,.15-.4.43-.87.43h-.21V239.05l1.17.55h7.38l.64-.74Zm-9.51.1v3.35h7.65v-3.35Zm0,3.81v3.39h7.65v-3.39Zm7.65,7.35v-3.48H84.86v3.48Z"/><path class="cls-1" d="M101.29,238.92c-.08.18-.27.29-.61.28a22.43,22.43,0,0,1-1.76,2.46c1.15,1,.53,2.07-.24,1.52a4.89,4.89,0,0,0-1.46-2.11l.16-.13a5,5,0,0,1,1.19.5c.37-.87.8-2.07,1.13-3.11Zm-4,12.65a17.72,17.72,0,0,0,1-4.16l1.44.35a.51.51,0,0,1-.56.35,11.71,11.71,0,0,1-1.57,3.59Zm4-7.91c2.78,1.59,1.81,3.57.89,2.76a3.7,3.7,0,0,0-.2-.88l-1.12.22v6.91a1,1,0,0,1-.85.32h-.15v-7.05c-.51.09-1.08.19-1.69.28a.61.61,0,0,1-.42.34l-.45-1.22,1.49,0c.93-1.54,2-3.62,2.74-5.12l1.49.69a.6.6,0,0,1-.64.22,43.41,43.41,0,0,1-3.14,4.19c.78,0,1.68-.06,2.61-.11a8.88,8.88,0,0,0-.77-1.42Zm.29,3.6c2.48,1.81,1.44,3.75.57,2.89a7.32,7.32,0,0,0-.78-2.81Zm5.17.16c-.13.15-.28.18-.63.2a7.43,7.43,0,0,1-3.74,4.57l-.15-.24a7.61,7.61,0,0,0,2.87-4.41H103l-.14-.47h2.19l.61-.59Zm5.29-.64c-.06.13-.28.24-.59.13a15.93,15.93,0,0,1-2.21,1.54A7.6,7.6,0,0,0,112.3,251l0,.19a1.2,1.2,0,0,0-.85.91c-1.84-1.36-3.07-3.09-3.65-6.56v5.87c0,.82-.18,1.39-1.52,1.55a1.07,1.07,0,0,0-.29-.75,2.62,2.62,0,0,0-1.26-.4v-.24s1.47.11,1.77.11.32-.08.32-.3v-6.23h-1.92v.44c0,.09-.33.3-.84.3h-.15v-6.24l1.17.51h1.14c.12-.54.28-1.31.4-1.86l1.66.34c-.06.22-.25.35-.58.35-.25.34-.62.78-.92,1.17h3l.52-.63,1.13.9a1,1,0,0,1-.59.26v4.77a1.06,1.06,0,0,1-.85.3h-.16v-.61h-1.92a9.51,9.51,0,0,0,1.15,3,17.53,17.53,0,0,0,1.7-2.33Zm-7.17-6.14v1.81h5v-1.81Zm5,4.08v-1.81h-5v1.81Z"/><path class="cls-1" d="M113.56,241.84a1.42,1.42,0,0,0,1,.8c.83,0,3.92-.93,6.56-1.54a21.62,21.62,0,0,1,3.63-.65,3.34,3.34,0,0,1,1.14.17c.35.16.48.34.48.56s-.19.42-.55.42-.78,0-1.37,0a5.44,5.44,0,0,0-2.69.59c-.72.43-2.32,1.92-2.32,5.12a3,3,0,0,0,1.36,2.87,6.07,6.07,0,0,0,3.1.53c.39,0,.92.27.92.67s-.44.53-1.16.53a6.12,6.12,0,0,1-3.6-.9,3.81,3.81,0,0,1-1.53-3.5,6.7,6.7,0,0,1,2.4-5.43c.11-.1.09-.19-.08-.14a33.15,33.15,0,0,0-5,1.63,2.75,2.75,0,0,1-1,.4,2,2,0,0,1-1.53-1.25,3.85,3.85,0,0,1-.07-.74Zm9.83,1.93a6,6,0,0,1,1.82,1.08,1.33,1.33,0,0,1,.54,1,.37.37,0,0,1-.38.41c-.24,0-.42-.36-.74-.78a8.78,8.78,0,0,0-1.47-1.39Zm1.4-1.07a6.48,6.48,0,0,1,1.81.93,1.26,1.26,0,0,1,.6,1c0,.28-.13.42-.37.42s-.42-.37-.75-.77a8.34,8.34,0,0,0-1.49-1.28Z"/><path class="cls-1" d="M130.76,242.3c.9,0,6-.54,6.75-.7.42-.08.52-.32.79-.32.48,0,1.65.91,1.65,1.36s-.47.51-.69,1a15.42,15.42,0,0,1-9.27,8.79l-.24-.36c4.59-2.32,7.54-5.73,8.52-9.47.06-.24,0-.27-.2-.27-.7,0-5.25.65-6.16.84-.43.1-.77.39-1.09.39-.48,0-1.23-.75-1.39-1.15a3.34,3.34,0,0,1-.16-.92l.3-.12C129.85,241.81,130.18,242.3,130.76,242.3Zm8.51-2.08a1.69,1.69,0,0,1,1.7-1.68,1.69,1.69,0,0,1,0,3.38A1.69,1.69,0,0,1,139.27,240.22Zm.55,0a1.15,1.15,0,1,0,1.15-1.14A1.15,1.15,0,0,0,139.82,240.22Z"/><path class="cls-1" d="M144,243.47l.3-.14c.34.49.61.86,1.07.86,1,0,5.6-.61,6.72-.77.45-.06.6-.3.87-.3.48,0,1.46.81,1.46,1.21s-.63.48-.82.88a14.44,14.44,0,0,1-8.13,7.29l-.23-.37a15.24,15.24,0,0,0,7.38-7.73c.07-.19,0-.29-.19-.26-1.3.13-4.8.64-5.89.87-.5.11-.72.4-1.07.4s-1.09-.66-1.25-1A3.71,3.71,0,0,1,144,243.47Zm8-2.53a27.67,27.67,0,0,1-4.6.61c-.82,0-1.27-.45-1.8-1.3l.24-.21a2.52,2.52,0,0,0,1.54.65,12.07,12.07,0,0,0,2.61-.37c.94-.21,1.15-.47,1.49-.47.68,0,1.23.23,1.23.61C152.73,240.69,152.54,240.83,152,240.94Z"/><path class="cls-1" d="M168.58,242.33l.37.24a24.16,24.16,0,0,1-8.4,8.22c-.32.19-.5.59-.85.59a3.12,3.12,0,0,1-1.9-1.23,3.47,3.47,0,0,1-.34-1.05l.26-.16c.48.53,1,1,1.5,1C160.45,250,166.31,245.74,168.58,242.33Zm-10.75-1.5c1.82.51,4,1.6,4,2.83a.54.54,0,0,1-.56.59c-.25,0-.46-.17-.88-.67a10.72,10.72,0,0,0-2.78-2.41Z"/><path class="cls-1" d="M170.55,248l.32-.12a1.61,1.61,0,0,0,1.24.84c.71,0,5.61-.63,8.81-.74a10.41,10.41,0,0,0,1.09-.19c.65,0,1.92.61,1.92,1.17,0,.27-.18.41-.48.41a21.39,21.39,0,0,0-3.56-.43,32.62,32.62,0,0,0-6.48.69,7.2,7.2,0,0,1-1.25.37c-.48,0-1.23-.77-1.41-1.12A2.38,2.38,0,0,1,170.55,248Zm10.18-4.79c-2.63.3-5.61.67-6.18.67a1.77,1.77,0,0,1-1.2-.77,4.12,4.12,0,0,1-.4-.91l.29-.16c.6.61,1,.88,1.48.88a26.17,26.17,0,0,0,3.65-.45c.93-.19,1-.41,1.41-.41.59,0,1.47.24,1.47.65S181.08,243.18,180.73,243.23Z"/><path class="cls-1" d="M197.93,242.33l.36.24a24.07,24.07,0,0,1-8.4,8.22c-.32.19-.49.59-.85.59a3.12,3.12,0,0,1-1.9-1.23,3.47,3.47,0,0,1-.34-1.05l.26-.16c.48.53,1,1,1.5,1C189.79,250,195.65,245.74,197.93,242.33Zm-10.76-1.5c1.83.51,4,1.6,4,2.83a.54.54,0,0,1-.56.59c-.25,0-.46-.17-.88-.67a10.39,10.39,0,0,0-2.78-2.41Z"/><path class="cls-1" d="M203.84,239.65a5.49,5.49,0,0,1,1,.06c.63.14,1.48.62,1.48.91s-.23.43-.47.83-.35.6-.54.87h.3a31.08,31.08,0,0,0,3.19-.3c.43-.1.54-.37.81-.37s1.4.66,1.4,1.07-.53.42-.76.84a20.08,20.08,0,0,1-10,9.15l-.24-.35c4.11-2.14,7.87-6.27,9.12-9.44.08-.2,0-.24-.13-.24-.35,0-2,.25-2.56.36a5.25,5.25,0,0,1-.89.21,1.33,1.33,0,0,1-.69-.38,14.91,14.91,0,0,1-4.74,4.16l-.24-.34c2.5-1.79,4.85-5,4.85-6,0-.27-.42-.53-1-.77Zm6,.19a5.8,5.8,0,0,1,1.84,1,1.31,1.31,0,0,1,.54,1,.37.37,0,0,1-.38.42c-.23,0-.42-.35-.74-.77a7.73,7.73,0,0,0-1.47-1.41Zm1.37-1a6.94,6.94,0,0,1,1.83.93,1.26,1.26,0,0,1,.61,1c0,.27-.15.42-.37.42s-.43-.37-.79-.77a7.84,7.84,0,0,0-1.47-1.3Z"/><path class="cls-1" d="M214.77,240.19v-.34a4.77,4.77,0,0,1,1-.11c.75,0,1.86.85,1.86,1.3s-.31.45-.45,1.2a41.64,41.64,0,0,0-.53,6.27c0,2,.59,2.8,2.35,2.8a7.43,7.43,0,0,0,6.07-3.42l.35.24a7.14,7.14,0,0,1-6.42,4.26c-2.14,0-3.25-1-3.25-3.78,0-2.48.39-6.24.39-7.17,0-.58-.1-.75-.37-.91A3,3,0,0,0,214.77,240.19Z"/><path class="cls-1" d="M230.61,239.37a3.3,3.3,0,0,1,1-.11c.57,0,1.58.42,1.6.78a6.69,6.69,0,0,1-.42,1.29c-.08.28-.17.68-.3,1.13a14.64,14.64,0,0,0,2-.85,1.58,1.58,0,0,1,.54-.22c.27,0,.69.16.69.45s-.18.46-.77.72a21.8,21.8,0,0,1-2.77.89c-.22.79-.5,1.65-.78,2.42a39.24,39.24,0,0,1-2.47,5.86c-.22.37-.38.51-.7.51s-.47-.29-.47-.65.15-.5.39-.93a22,22,0,0,0,2.49-5.06c.21-.59.42-1.27.61-1.94a10.25,10.25,0,0,1-1.84.19,2.22,2.22,0,0,1-2.22-1.56l.27-.21a2.71,2.71,0,0,0,1.95.91,8.83,8.83,0,0,0,2.08-.26,15.54,15.54,0,0,0,.4-2.08.54.54,0,0,0-.33-.64,7.17,7.17,0,0,0-1-.27Zm2.82,8.95a4.56,4.56,0,0,0,.54,1.52,3.16,3.16,0,0,0,2.91,1.23,15.12,15.12,0,0,0,2.58-.3c.37,0,.79.18.79.54s-.42.5-.88.6a10.22,10.22,0,0,1-2.15.2c-1.86,0-3.33-.56-3.82-2a4.53,4.53,0,0,1-.36-1.78Zm.91-3.75a8.26,8.26,0,0,1,2.9-.57,5.49,5.49,0,0,1,2.16.38c.37.19.57.43.57.71s-.27.37-.65.4a3.12,3.12,0,0,0-.95.25c-.49.18-1.24.56-1.79.84l-.21-.29a17.3,17.3,0,0,0,1.68-1.17c.13-.1.08-.18-.06-.22a4.22,4.22,0,0,0-1.41-.2,9.78,9.78,0,0,0-2.14.26Z"/><path class="cls-1" d="M247.49,240.48s.8.62,1.28,1.07c-.05.18-.19.24-.42.24h-6.16l-.13-.45h4.74Zm-1.43,2.88.61-.79s.74.58,1.19,1a.39.39,0,0,1-.42.26H242.9l-.13-.48Zm-3.16,2.51-.13-.46H246l.64-.82a15.4,15.4,0,0,1,1.19,1c0,.16-.18.24-.39.24Zm.06-6-.13-.48H246l.68-.85s.76.62,1.26,1.07c0,.18-.19.26-.42.26Zm4.51,12.1c0,.09-.51.33-.84.33h-.15v-.88h-2.67v1.09c0,.11-.42.34-.84.34h-.14v-5.88l1.06.47h2.43l.56-.61,1.27,1a1.31,1.31,0,0,1-.68.32Zm-1-1v-3.06h-2.67V251Zm9.33-5.06a.9.9,0,0,1-.65.22,10.94,10.94,0,0,1-2.47,3.81,11.3,11.3,0,0,0,4.37,2l0,.17a1.27,1.27,0,0,0-1,.9,10.45,10.45,0,0,1-4-2.45,13.37,13.37,0,0,1-4.91,2.45l-.13-.24a12.37,12.37,0,0,0,4.51-2.8,10.53,10.53,0,0,1-1.92-4h-1.18l-.14-.45H254l.68-.65Zm-7.89-1.06a5.22,5.22,0,0,0,1.7-4.32v-1.89l1.2.53h2.1l.54-.61,1.12,1a.8.8,0,0,1-.53.24v3.31c0,.16,0,.21.32.21h.71a4.74,4.74,0,0,0,.62,0c.13,0,.16,0,.22-.16a18.76,18.76,0,0,0,.42-1.92h.21l.05,1.95c.28.13.33.26.33.44,0,.43-.41.64-1.9.64h-.93c-.9,0-1.06-.26-1.06-.93v-3.67h-2.43v.9A4.66,4.66,0,0,1,248.1,245Zm2,1.12a8,8,0,0,0,2.13,3.41A10.48,10.48,0,0,0,254,246Z"/><path class="cls-1" d="M261.42,242.85a.52.52,0,0,1-.49.27v9.54a1.15,1.15,0,0,1-.8.33h-.2v-8.78a14.74,14.74,0,0,1-1.68,2.38l-.22-.14a28.73,28.73,0,0,0,3-8.1l1.67.49c-.06.2-.26.32-.61.32a26,26,0,0,1-1.34,3.43Zm10-1.12s.86.65,1.38,1.13c0,.18-.2.26-.42.26h-8.95v2.45c0,2.16-.06,5.28-1.85,7.42l-.24-.17c1.1-2.21,1.15-4.88,1.15-7.25v-3.44l1.13.52h7.08Zm-9.09-1.44h2.81v-2l1.53.16c0,.22-.17.38-.55.43v1.38h2.42v-2l1.52.16c0,.22-.16.38-.55.43v1.38h1.35l.66-.87s.8.61,1.26,1.06c0,.17-.18.25-.4.25h-2.87v1.11c0,.06-.27.27-.81.27h-.16v-1.38h-2.42v1.17c0,.1-.33.26-.8.26h-.18v-1.43h-2.7Zm8.8,3.53,1.33,1a1.42,1.42,0,0,1-.69.34v6.43c0,.8-.14,1.28-1.39,1.42a1.05,1.05,0,0,0-.26-.73,1.47,1.47,0,0,0-.94-.35v-.28s1,.1,1.31.1.29-.1.29-.3v-1.88h-2.29v2.93c0,.08-.3.32-.8.32h-.14v-3.25h-2.26v3.09c0,.1-.39.34-.79.34h-.16v-9l1,.48h5.26Zm-5.84,1.11v1.82h2.26v-1.82Zm2.26,4.16V247.2h-2.26v1.89Zm3.23-4.16h-2.29v1.82h2.29Zm0,4.16V247.2h-2.29v1.89Z"/><path class="cls-1" d="M279.55,238.91c-.08.19-.26.32-.61.29a24,24,0,0,1-1.65,3.47l.56.21c0,.14-.2.24-.49.27v9.46a1.18,1.18,0,0,1-.87.35h-.19v-8.72a16.66,16.66,0,0,1-2.06,2.42l-.23-.15a28.56,28.56,0,0,0,3.88-8.16Zm4,5.34v7.45h2.65l.78-1s.88.67,1.42,1.18c0,.18-.19.26-.41.26h-9.45l-.12-.48h4v-7.45h-4.35l-.13-.46h4.48v-5.31l1.7.19c-.05.24-.2.4-.6.45v4.67h3.05l.78-1s.88.69,1.41,1.19a.37.37,0,0,1-.4.25Z"/><path class="cls-1" d="M293.52,244.45c2.88,1.52,2,3.42,1.05,2.64a7.31,7.31,0,0,0-1.05-2.24v7.74c0,.15-.44.37-.8.37h-.21v-7.39a13.24,13.24,0,0,1-2.34,3.76l-.22-.23a17.63,17.63,0,0,0,2.37-6.54h-2.13l-.11-.47h2.43v-3.74l1.58.19c0,.24-.17.38-.57.45v3.1H294l.71-.91s.78.64,1.26,1.12c0,.18-.21.26-.42.26h-2ZM304.43,247c-.12.15-.25.2-.6.08a16.19,16.19,0,0,1-2.37,1.64,7.32,7.32,0,0,0,3.61,2.43v.18a1.2,1.2,0,0,0-.82.94,7.35,7.35,0,0,1-3.95-5.12v4.32c0,.8-.16,1.36-1.51,1.5a1.1,1.1,0,0,0-.28-.72,2.46,2.46,0,0,0-1.19-.36v-.24s1.36.09,1.65.09.34-.08.34-.3v-2.4c-.82.62-2,1.5-3.45,2.54a.54.54,0,0,1-.24.43l-.88-1.08c.79-.32,2.66-1.24,4.53-2.17l0,.07v-3.19h-3.83l-.11-.46h3.94v-1.75h-3.11l-.13-.46h3.24v-1.57h-3.59l-.13-.48h2.85a.68.68,0,0,1-.37-.17,4.84,4.84,0,0,0-1.1-2.26l.17-.1c2.33.9,2.1,2.45,1.43,2.53h2c.32-.77.74-1.86,1-2.61l1.57.48c-.07.18-.26.31-.61.29a23.53,23.53,0,0,1-1.57,1.84h1.57l.74-.88s.81.63,1.34,1.11a.39.39,0,0,1-.42.25h-3.9V243h1.81l.73-.9s.82.64,1.33,1.11c-.05.17-.19.25-.41.25h-3.46v1.75h2.5l.71-.91s.85.64,1.35,1.12c0,.17-.19.25-.42.25h-4.14v.56a7,7,0,0,0,1,2.24,17.93,17.93,0,0,0,1.87-2.32Zm-8.16-.73c3,1,2,3,1.07,2.25a4.19,4.19,0,0,0-1.26-2.14Z"/><path class="cls-1" d="M19.71,271.38a3.31,3.31,0,0,1,1.14-.25c.76,0,1.78.63,1.78,1s-.38.45-.41,1c0,.37-.07,1-.09,1.51,1.17-.07,2.5-.14,3.24-.23.32,0,.63-.38.92-.38a2.21,2.21,0,0,1,1.51,1.38c0,.33-.58.54-.7.89A16.72,16.72,0,0,1,18.42,286l-.31-.38a16.77,16.77,0,0,0,7.73-10.14c.05-.25,0-.28-.24-.28-4.77.14-6.73.61-7.38.61a1.15,1.15,0,0,1-.68-.24c.07.8.48,4.14.48,4.47s-.2.58-.48.59c-.49,0-.87-.86-.89-1.38,0-.22.08-.54.08-.85a15.7,15.7,0,0,0-.38-2.59,3.9,3.9,0,0,0-1.15-1.68l.21-.3a8.34,8.34,0,0,1,1.44.66,1.76,1.76,0,0,1,.52.45c1,0,2.49-.16,3.71-.25,0-.65,0-1.71,0-2.14s0-.51-.33-.61a3.26,3.26,0,0,0-1-.2Z"/><path class="cls-1" d="M34.53,275.09a4,4,0,0,1,1-.22c.69,0,1.46.49,1.46.76s-.2.36-.25.86a11.88,11.88,0,0,0-.09,1.39,10.51,10.51,0,0,0,2.34-.45c.54,0,1.37.43,1.37.83a.39.39,0,0,1-.41.39,25.49,25.49,0,0,0-3.3,0c0,1.21,0,3.28,0,4.29,0,.73.09,1.13.09,1.56,0,.63-.47,1.32-.92,1.32s-.42-.51-.72-.8a9.23,9.23,0,0,0-1.5-.86l.11-.23c.58.1,1.24.27,1.66.3a.23.23,0,0,0,.29-.21c0-.53,0-2.38,0-4a15.88,15.88,0,0,1-6.34,4.9l-.16-.29a18,18,0,0,0,5.88-5.82c-.93.11-1.78.25-2.41.38a8,8,0,0,1-1.33.36c-.42,0-1.08-.67-1.21-1a2.83,2.83,0,0,1-.09-.81l.24-.07c.32.49.59.76,1,.76.9,0,2.94-.27,4.4-.43,0-.65,0-1.46,0-1.95,0-.27-.11-.36-.32-.47a3.66,3.66,0,0,0-.85-.25Z"/><path class="cls-1" d="M43.1,277.45c.39.61.68,1.17,1.44,1.17,1.6,0,7.9-.42,8.73-.45,1.21-.09,1.71-.2,2.18-.2.68,0,1.49.3,1.49.79,0,.32-.18.52-.79.52s-1.26,0-2.36,0-6.19.27-7.54.43c-1,.11-1.23.38-1.75.38s-1.35-.89-1.6-1.5a2.89,2.89,0,0,1-.16-1Z"/><path class="cls-1" d="M64.27,271.18a6,6,0,0,1,1.08.07c.7.16,1.65.7,1.65,1s-.25.48-.52.93-.4.67-.61,1a2,2,0,0,0,.34,0,34.45,34.45,0,0,0,3.58-.35c.49-.1.62-.41.92-.41s1.57.74,1.57,1.21-.6.46-.85.93a22.59,22.59,0,0,1-11.2,10.3l-.27-.4c4.63-2.41,8.86-7.05,10.27-10.62.09-.21,0-.27-.15-.27-.39,0-2.23.29-2.88.42a6,6,0,0,1-1,.23,1.48,1.48,0,0,1-.77-.43,16.53,16.53,0,0,1-5.33,4.68l-.27-.38c2.81-2,5.45-5.69,5.45-6.73,0-.31-.46-.6-1.09-.87Z"/><path class="cls-1" d="M82.55,271.29a3.12,3.12,0,0,1,1.18.2c.7.23,1.49,1,1.49,1.49s-.32.31-.81.85c-.67.74-1.55,1.71-2.74,2.84.51.33.92.63.92.88a8.38,8.38,0,0,0-.16.94c-.13,2.61,0,5.37,0,6.45,0,.66-.16.88-.54.88-.59,0-.9-.87-.9-1.46,0-.32.15-.68.22-1.28a47.76,47.76,0,0,0,.16-5,1.24,1.24,0,0,0-.27-.79,25.36,25.36,0,0,1-6.75,4.27l-.24-.44A28.49,28.49,0,0,0,83,273.47a2.14,2.14,0,0,0,.49-.92c0-.29-.3-.54-1.06-.92Z"/><path class="cls-1" d="M102.05,274.46l.41.27C100.3,278.56,97,281.44,93,284c-.36.22-.56.67-1,.67a3.52,3.52,0,0,1-2.14-1.39,3.64,3.64,0,0,1-.38-1.17l.29-.18c.54.6,1.11,1.17,1.69,1.17C92.9,283.06,99.49,278.29,102.05,274.46ZM90,272.76c2,.58,4.54,1.81,4.54,3.19a.61.61,0,0,1-.63.67c-.29,0-.52-.2-1-.76a12.48,12.48,0,0,0-3.13-2.72Z"/><path class="cls-1" d="M108.71,271.18a6,6,0,0,1,1.08.07c.7.16,1.65.7,1.65,1s-.25.48-.52.93-.39.67-.61,1a2.06,2.06,0,0,0,.34,0,34.67,34.67,0,0,0,3.59-.35c.48-.1.61-.41.91-.41s1.57.74,1.57,1.21-.59.46-.85.93a22.55,22.55,0,0,1-11.2,10.3l-.27-.4c4.63-2.41,8.86-7.05,10.27-10.62.09-.21,0-.27-.15-.27-.39,0-2.23.29-2.88.42a5.81,5.81,0,0,1-1,.23,1.51,1.51,0,0,1-.77-.43,16.53,16.53,0,0,1-5.33,4.68l-.27-.38c2.81-2,5.46-5.69,5.46-6.73,0-.31-.47-.6-1.1-.87Z"/><path class="cls-1" d="M128.37,274.21c.63-.06.7-.45,1-.45s1.69,1,1.69,1.44-.56.54-.66,1c-.17.79-.56,3.22-.92,5.19.65,0,1.1.3,1.1.65a.47.47,0,0,1-.53.52c-.39,0-1.35-.11-2.17-.11-1.41,0-3.84.13-6,.25,0,.24,0,.45,0,.72,0,.45-.16.67-.54.67s-.74-.49-.74-1.23c0-.36,0-1.47,0-2.25a29,29,0,0,0-.5-5,2.82,2.82,0,0,0-1-1.52l.25-.3a4.23,4.23,0,0,1,1.94.93C123.22,274.69,127.66,274.3,128.37,274.21Zm0,7.2a57.07,57.07,0,0,0,.76-6.11c0-.14,0-.19-.22-.19-1.15,0-4.17.23-5.16.34-.6.05-1.1.23-1.43.23a2,2,0,0,1-.72-.23c.06,1.1.22,4.37.29,6.37C123.83,281.7,126.71,281.48,128.38,281.41Z"/><path class="cls-1" d="M135.15,277.45c.4.61.68,1.17,1.44,1.17,1.6,0,7.9-.42,8.73-.45,1.21-.09,1.71-.2,2.18-.2.69,0,1.5.3,1.5.79,0,.32-.18.52-.8.52s-1.26,0-2.36,0-6.19.27-7.54.43c-1,.11-1.22.38-1.75.38s-1.35-.89-1.6-1.5a3.44,3.44,0,0,1-.16-1Z"/><path class="cls-1" d="M155.62,272a4.32,4.32,0,0,1,1.33-.23c.65,0,1.82.68,1.82,1.08s-.36.63-.44,1.17-.14,1.53-.21,2.7c1.55-.45,3.83-1.08,4.89-1.38.53-.15.65-.47.92-.47.53,0,1.75,1,1.75,1.4s-.52.43-.94.85a23.68,23.68,0,0,1-3.49,3l-.31-.31a18.5,18.5,0,0,0,2.71-3.44c.12-.21,0-.34-.2-.3a55.46,55.46,0,0,0-5.37,1.58c-.07,1.59-.12,3.28-.11,4.34,0,1.48.22,1.62,2.42,1.62a18.06,18.06,0,0,0,3.74-.39c.49,0,1.21.21,1.21.68,0,.32-.34.49-.83.56a22.41,22.41,0,0,1-3.58.3c-2.83,0-3.91-.16-4-2.53,0-1.25,0-3,.06-4.22-.87.29-2,.7-2.79,1s-.67.54-1.17.54a2.83,2.83,0,0,1-1.64-1.24,2,2,0,0,1-.11-1l.29-.11c.36.54.65.9,1.1.9a30.13,30.13,0,0,0,4.34-1.11c0-1.48.09-3.28,0-4,0-.45-.57-.56-1.46-.68Zm7.65-.09a8.27,8.27,0,0,1,2,1.19,1.51,1.51,0,0,1,.61,1.08c0,.31-.14.49-.43.49s-.47-.41-.83-.86a8.84,8.84,0,0,0-1.66-1.57Zm1.55-1.13a7.57,7.57,0,0,1,2.07,1,1.54,1.54,0,0,1,.66,1.12c0,.31-.16.47-.43.47s-.47-.43-.86-.87a9,9,0,0,0-1.66-1.45Z"/><path class="cls-1" d="M169,277.16l.22-.2a6.13,6.13,0,0,1,1.26.92,2.63,2.63,0,0,1,1.13,1.83c0,.38-.18.65-.56.65-.57,0-.59-.7-1.1-1.67A7.7,7.7,0,0,0,169,277.16Zm1.42,8.8-.21-.32c4.77-2.49,7.49-7.13,7.49-8.5,0-.29-.26-.5-1-.79l.09-.27a3,3,0,0,1,.85,0c.66.11,1.53.9,1.53,1.35,0,.29-.31.43-.5.84A14.8,14.8,0,0,1,170.41,286Zm1.75-9.74.22-.2a6.29,6.29,0,0,1,1.33,1,2.34,2.34,0,0,1,.95,1.73.56.56,0,0,1-.59.61c-.54,0-.54-.74-1-1.62A8.43,8.43,0,0,0,172.16,276.22Z"/><path class="cls-1" d="M182.44,271.63a5.43,5.43,0,0,1,1.15-.22c.76,0,2,.69,2,1.1s-.32.43-.4,1c-.09.86-.12,2.18-.14,3.17a15.29,15.29,0,0,1,4.45,1.65,1.81,1.81,0,0,1,1,1.35.58.58,0,0,1-.58.62c-.59,0-.79-.62-1.87-1.44a14.25,14.25,0,0,0-3-1.55c0,1.24,0,4.19,0,6.1,0,.79.06,1.33.06,1.64,0,.47-.18.68-.58.68-.59,0-.9-1-.9-1.6,0-.39.16-.72.23-1.4.15-1.33.15-4.29.15-5.66s0-3.4-.11-4.3c-.05-.58-.45-.68-1.4-.79Z"/><path class="cls-1" d="M198.08,286.57l-.51-.5,16.21-16.2.5.5Z"/><path class="cls-1" d="M221.86,281.32a17.77,17.77,0,0,1,7.47,2.18c.61.41.93.81.93,1.22a.54.54,0,0,1-.61.56c-.39,0-.81-.4-1.42-.81a19.81,19.81,0,0,0-6.5-2.72Zm.79-4.81a14.48,14.48,0,0,1,5,1.12c.68.32,1.06.66,1.06,1.17a.52.52,0,0,1-.56.52,2.31,2.31,0,0,1-1-.47,19.57,19.57,0,0,0-4.64-1.93Zm7.25-1.8a.52.52,0,0,1-.5.56c-.38,0-.61-.24-1.1-.58a16.91,16.91,0,0,0-5.36-2.18l.07-.39a17.11,17.11,0,0,1,5.62,1.24C229.62,273.85,229.9,274.21,229.9,274.71Z"/><path class="cls-1" d="M236.27,273c.31.44.65,1.08,1.25,1.08a42.23,42.23,0,0,0,5.52-.88c.38-.11.6-.45.85-.45.54,0,1.71.94,1.71,1.33s-.54.51-.77.87a30.88,30.88,0,0,1-3,4.08c2.9,1.32,5.85,3.32,5.85,4.81a.6.6,0,0,1-.61.67c-.49,0-.74-.58-1.7-1.66a16,16,0,0,0-4-3.37,22,22,0,0,1-7.64,5.32l-.27-.45c4.23-2.2,8.48-6.43,10.16-10.12.09-.24,0-.27-.22-.25-1.28.19-3.78.81-4.77,1.06-.56.14-.63.47-1.06.47s-1.25-.78-1.46-1.25a2.86,2.86,0,0,1-.25-1.09Z"/><path class="cls-1" d="M251.29,271.63a5.32,5.32,0,0,1,1.15-.22c.75,0,2,.69,2,1.1s-.33.43-.4,1c-.09.86-.12,2.18-.14,3.17a15.29,15.29,0,0,1,4.45,1.65,1.8,1.8,0,0,1,1,1.35.57.57,0,0,1-.57.62c-.6,0-.79-.62-1.87-1.44a14.25,14.25,0,0,0-3-1.55c0,1.24,0,4.19,0,6.1,0,.79,0,1.33,0,1.64,0,.47-.18.68-.57.68-.6,0-.9-1-.9-1.6,0-.39.16-.72.23-1.4.15-1.33.15-4.29.15-5.66s0-3.4-.11-4.3c-.06-.58-.45-.68-1.41-.79Z"/><path class="cls-1" d="M270.21,271.49a3.47,3.47,0,0,1,1.08-.24c.82,0,1.81.74,1.81,1.14s-.32.28-.36,1-.05,1.61-.07,2.38c2.13-.18,2.31-.31,2.7-.31.72,0,1.71.35,1.71.9,0,.31-.12.42-.45.42s-1.1-.16-2.45-.16l-1.53,0c-.07,2.23-.14,4.49-1.31,6.07a9.66,9.66,0,0,1-4.59,3.13l-.25-.41a9.31,9.31,0,0,0,4-3.19c.88-1.38,1.08-3.44,1.09-5.53-1.29.09-2.68.22-3.81.35,0,1.44,0,2.91,0,3.43,0,.73-.15,1-.52,1s-.74-.78-.74-1.28.25-1.14.29-3.05a17,17,0,0,0-2.18.38,6.82,6.82,0,0,1-1.26.36c-.45,0-1.19-.84-1.37-1.24a2.79,2.79,0,0,1-.11-1l.32-.11c.33.52.65,1.08,1.1,1.08.69,0,2.42-.2,3.5-.32a18.92,18.92,0,0,0-.13-2.76c-.09-.36-.5-.46-1.26-.57v-.36a3.29,3.29,0,0,1,1-.2c.57,0,1.65.5,1.65,1s-.21.4-.25,1c0,.33-.05,1.05-.05,1.84,1.15-.11,2.63-.25,3.81-.38,0-1.62,0-2.74-.05-3.44-.05-.38-.52-.47-1.29-.58Z"/><path class="cls-1" d="M283.94,271.38a3.21,3.21,0,0,1,1.13-.25c.76,0,1.79.63,1.79,1s-.38.45-.42,1c0,.37-.07,1-.09,1.51,1.17-.07,2.5-.14,3.24-.23.33,0,.63-.38.92-.38a2.21,2.21,0,0,1,1.51,1.38c0,.33-.57.54-.7.89a16.72,16.72,0,0,1-8.68,9.72l-.3-.38a16.76,16.76,0,0,0,7.72-10.14c.05-.25,0-.28-.23-.28-4.78.14-6.74.61-7.39.61a1.15,1.15,0,0,1-.68-.24c.07.8.49,4.14.49,4.47s-.2.58-.49.59c-.49,0-.86-.86-.88-1.38,0-.22.07-.54.07-.85a15.7,15.7,0,0,0-.38-2.59,3.82,3.82,0,0,0-1.15-1.68l.21-.3a8.45,8.45,0,0,1,1.45.66,1.76,1.76,0,0,1,.52.45c1,0,2.48-.16,3.71-.25,0-.65,0-1.71,0-2.14s0-.51-.32-.61a3.33,3.33,0,0,0-1-.2Z"/><path class="cls-1" d="M300.1,271.83a4,4,0,0,1,1.3-.4c.81,0,1.89.61,1.89,1s-.32.38-.36,1.12-.07,1.82-.09,2.66a43.19,43.19,0,0,0,4.61-.61c.54,0,1.69.38,1.69.86s-.25.49-.56.49a48.79,48.79,0,0,0-5.76.13c-.27,4.23-1.92,7.11-6.25,8.85l-.27-.37c3.59-2,5.08-4.45,5.35-8.39-1.38.14-3.19.39-4.09.57-.57.13-.84.42-1.27.42s-1.35-.87-1.53-1.26a2.32,2.32,0,0,1-.22-1l.31-.13c.36.52.75,1.1,1.33,1.08.75,0,3.82-.34,5.51-.52a31.43,31.43,0,0,0-.07-3.62c-.06-.43-.89-.49-1.48-.54Z"/><path class="cls-1" d="M315.29,286.57l-.5-.5,16.2-16.2.51.5Z"/><path class="cls-1" d="M75,305c0,2.91-.18,6.75-2.74,9.43l-.25-.2c1.68-2.72,1.82-6.08,1.82-9.23v-5l1.37.59h5V298l1.82.19c0,.26-.22.44-.67.49v2h4.78l.88-1.11s1,.79,1.58,1.35c0,.19-.2.29-.45.29H75Zm7.47.43a15.17,15.17,0,0,0,6.31,6.25l0,.18a1.38,1.38,0,0,0-1.1,1,15.43,15.43,0,0,1-5.42-7V314c0,.17-.5.45-1,.45h-.2v-7.59a15.46,15.46,0,0,1-6.21,6.32l-.2-.27a16.67,16.67,0,0,0,5.71-7.51H75.73l-.14-.52h5.49v-3.06l1.8.19c0,.27-.2.45-.65.53v2.34h3.84l.81-1.07s.93.76,1.51,1.3a.43.43,0,0,1-.47.29Z"/><path class="cls-1" d="M91.84,311v1.53c0,.11-.34.41-.92.41h-.18V299l1.34.57h1.83l.65-.74L96,300a1.38,1.38,0,0,1-.77.36v11.32c0,.15-.54.44-.94.44h-.16V311Zm0-10.88V305h2.25v-4.85Zm2.25,10.36v-5H91.84v5Zm11-2c-.12.14-.3.2-.73.21A9.22,9.22,0,0,1,102,311.8a14.2,14.2,0,0,0,4.9,1.53l0,.2a1.17,1.17,0,0,0-.94.94,11.74,11.74,0,0,1-4.71-2.07,13.67,13.67,0,0,1-5,2.08l-.1-.28a12.64,12.64,0,0,0,4.5-2.36,8.15,8.15,0,0,1-1.73-2.54,11.13,11.13,0,0,1-5,5.06l-.25-.29a10.67,10.67,0,0,0,4.93-7.6H95.35l-.14-.52h3.46c.07-.65.12-1.28.14-1.89h-3l-.14-.54h6.44a17.44,17.44,0,0,0,1.88-3.67l1.76.64c-.09.2-.31.31-.68.29a14.32,14.32,0,0,1-2.51,2.74h1.73l.78-.95s.86.7,1.38,1.2c0,.2-.21.29-.45.29h-5.94a15.56,15.56,0,0,1-.2,1.89h4.49l.79-1a18.63,18.63,0,0,1,1.49,1.29c0,.18-.2.27-.45.27H99.78a16.08,16.08,0,0,1-.4,1.59h3.68l.75-.71Zm1-9.28c-.18.15-.51.13-.92-.07a65.63,65.63,0,0,1-9.08.74l0-.34a51.36,51.36,0,0,0,8.84-1.59Zm-9.35,1.12c2.94,1.39,1.77,3.48.78,2.58a5.66,5.66,0,0,0-1-2.49Zm2.42,8.46a6.61,6.61,0,0,0,2.1,2.47A8.54,8.54,0,0,0,103,308.6H99.21ZM99.6,300c2.77,1.56,1.55,3.63.58,2.68a5.37,5.37,0,0,0-.8-2.58Z"/><path class="cls-1" d="M122.89,305.93s.92.7,1.52,1.24a.43.43,0,0,1-.47.29h-7a9.89,9.89,0,0,1-.36,1.75h4.34l.68-.69,1.33,1.09a1.23,1.23,0,0,1-.68.25c-.18,2.18-.56,3.63-1.21,4.12a3,3,0,0,1-1.8.49.9.9,0,0,0-.34-.8,5.14,5.14,0,0,0-1.71-.43l0-.32c.75.07,2.11.18,2.48.18a1,1,0,0,0,.63-.15c.35-.28.6-1.51.76-3.24h-4.68c-.69,1.75-2.2,3.44-5.74,4.77l-.24-.28c4.34-2,5-4.52,5.2-6.74H111.5a10.46,10.46,0,0,1-3.28,6.86l-.23-.19c2.18-2.87,2.5-6.34,2.5-9.51v-3.89l1.37.59h9.63l.61-.68,1.41,1.08a1.31,1.31,0,0,1-.69.31v3.06a1.68,1.68,0,0,1-1,.37h-.18v-.77h-10c0,.7,0,1.46-.09,2.25h4.9v-2.05l1.67.16c0,.22-.18.36-.52.41v1.48h4.47Zm-14-6.34-.15-.54h13.06l.86-1s1,.76,1.61,1.3c-.06.19-.24.28-.49.28Zm2.77,2.26v2.3h10v-2.3Z"/><path class="cls-1" d="M131.17,314.57l-.5-.5,16.2-16.2.51.5Z"/><path class="cls-1" d="M170,303.07a1.31,1.31,0,0,0-1,.95,16.21,16.21,0,0,1-6.86-5.15,20.63,20.63,0,0,1-4.81,3.89l1.13.54h2.69v-2.21l1.74.18c0,.23-.18.4-.56.47v1.56H165l.61-.66,1.35,1a.93.93,0,0,1-.63.31v4.63a1.47,1.47,0,0,1-1,.43h-.18v-.54h-3.35A7.56,7.56,0,0,0,164,311a19.93,19.93,0,0,0,3.06-2.45l1.47,1c-.12.16-.27.23-.64.11a22.93,22.93,0,0,1-3.5,1.6,14.72,14.72,0,0,0,5.53,1.93l0,.21a1.3,1.3,0,0,0-1,1.05c-3.66-.94-6.2-2.72-7.49-6h-3v3.91l4.58-.76.05.31c-1.67.52-4,1.24-7.35,2.1a.61.61,0,0,1-.39.42l-.87-1.5c.65-.07,1.62-.21,2.83-.39v-9.74a25.2,25.2,0,0,1-3.51,1.78l-.14-.25c2.89-1.43,6.51-4.43,7.49-6.52l2.12.47c0,.21-.27.3-.74.34a19.57,19.57,0,0,0,7.64,4.12Zm-11.67.74v1.78h6.79v-1.78Zm6.79,4.16v-1.84h-6.79V308Z"/><path class="cls-1" d="M181.81,306.08a11.8,11.8,0,0,0,6.26,2.57l0,.2a1.31,1.31,0,0,0-.63,1.13,10.52,10.52,0,0,1-1.08-.34,1.4,1.4,0,0,1-.31.09V314a1.53,1.53,0,0,1-1,.38h-.18v-1h-3.21v.66c0,.13-.48.38-.95.38h-.16v-6l1.2.55h3l0,0a9.74,9.74,0,0,1-3.42-2.88H178a12.88,12.88,0,0,1-3.64,2.79l.27.12h2.83l.65-.7,1.4,1.06a1.31,1.31,0,0,1-.74.36v4.16c0,.13-.57.4-.95.4h-.18v-.88h-3.1v.7c0,.12-.45.38-.92.38h-.18v-5.15a16.86,16.86,0,0,1-2,.77l-.15-.25a13.74,13.74,0,0,0,5.32-3.76h-5l-.15-.54H177a12.42,12.42,0,0,0,1-1.64,1.4,1.4,0,0,1-.34.05h-.18v-.75h-3.15V304c0,.1-.49.34-1,.34h-.17v-5.76l1.21.54h2.9l.63-.69,1.4,1.06a1.31,1.31,0,0,1-.73.36v3.68s0,0,0,0l1.35.51a.67.67,0,0,1-.72.28,11.35,11.35,0,0,1-.79,1.16h7l.86-1.07s1,.74,1.59,1.32a.45.45,0,0,1-.49.29Zm-4.29-3.42v-3h-3.15v3Zm-3,6.84v3.35h3.1V309.5Zm7.22-5.67c0,.1-.49.36-1,.36h-.17v-5.6l1.21.54h3l.65-.71L187,299.5a1.46,1.46,0,0,1-.75.38v3.77a1.69,1.69,0,0,1-1,.37h-.18v-.82h-3.31Zm3.1,9V309.5h-3.21v3.35Zm-3.1-13.2v3h3.31v-3Z"/><path class="cls-1" d="M189.42,302c3.8.54,3,3.12,1.76,2.36a4.74,4.74,0,0,0-1.93-2.18Zm5.25-.83c-.77,2.27-2.32,6.54-2.59,7.4a5.44,5.44,0,0,0-.27,1.57,17,17,0,0,1,.45,3.1c0,.75-.38,1.22-1,1.22-.32,0-.52-.32-.57-.88.25-1.84.16-3.24-.26-3.49a1.55,1.55,0,0,0-.9-.27v-.4h.83c.22,0,.27,0,.45-.36.31-.65.31-.65,3.51-8Zm-3.9-3c3.9.58,3.2,3.25,1.87,2.52a5.73,5.73,0,0,0-2-2.35Zm14.89,14.7c.36.14.45.28.45.52,0,.48-.49.72-2.74.72h-1.44c-1.22,0-1.46-.31-1.46-1.14v-6.73H198.4c-.3,4.11-1.53,6.59-5.53,8.21l-.12-.27c3.31-1.89,4.16-4.3,4.36-7.94h-3.25l-.14-.52h5.47v-3.57h-2.7a9.79,9.79,0,0,1-1.87,2.85l-.27-.16a17.76,17.76,0,0,0,1.91-6.45l1.87.4c0,.21-.25.39-.63.41a18.69,18.69,0,0,1-.77,2.43h2.46V298l1.82.2c0,.25-.21.43-.66.5v2.88H203l.85-1.08s.95.78,1.53,1.32c0,.19-.22.28-.47.28h-4.57v3.57h3.18l.85-1.08s1,.75,1.57,1.31a.44.44,0,0,1-.47.29h-3.87v6.45c0,.27,0,.34.56.34h1.2c.58,0,1,0,1.17,0s.22-.05.29-.23a24.47,24.47,0,0,0,.54-2.67h.23Z"/><path class="cls-1" d="M210.05,303.39c0-1-.13-1.42-1.41-2.32l.16-.29a5,5,0,0,1,1.14.29c.65.31,1.58,1.12,1.58,1.86s-.61,1.92-.61,3.78c0,2.28,1.05,3.45,1.8,3.85a.42.42,0,0,0,.63-.13,28.66,28.66,0,0,0,1.69-3.29l.47.21c-.41,1.19-1,2.71-1.1,3.26-.16.81.13.9.13,1.28s-.49.78-1.23.47c-1.4-.61-3.27-2.18-3.33-5.62C209.94,305.45,210.05,304.2,210.05,303.39Zm8.39-.45.16-.43a5.64,5.64,0,0,1,3.38,1.78,6.43,6.43,0,0,1,1.57,4.06c0,.7-.23,1-.72,1-.29,0-.5-.21-.58-.63a9.8,9.8,0,0,0-1-3.6A5.22,5.22,0,0,0,218.44,302.94Z"/><path class="cls-1" d="M232.35,309.17s.86.71,1.42,1.23c0,.2-.21.29-.47.29H230v3.47a1.22,1.22,0,0,1-1,.34h-.18v-3.81h-3.31l-.13-.54h3.44V308h-1.37v.5c0,.13-.46.38-.91.38h-.18v-6.84l1.18.56h1.3v-1.8h-3.26l-.12-.53h3.38V298l1.75.18c0,.24-.18.42-.6.49v1.67h1.37l.83-1.06s.92.76,1.51,1.3c-.05.2-.23.29-.48.29H230v1.8h1.24l.63-.7,1.41,1.09a1.46,1.46,0,0,1-.74.33v5a1.47,1.47,0,0,1-1,.39h-.15V308H230v2.11h1.62Zm-4.92-6v1.87h4v-1.87Zm0,4.35h4v-1.94h-4Zm5.71-3.24a15.87,15.87,0,0,0,2.5-6.33l2,.55c-.05.22-.25.36-.65.36a14.78,14.78,0,0,1-1,2.33h3.6l.81-1.07s1,.76,1.53,1.32c0,.2-.2.29-.45.29h-5.8a10,10,0,0,1-2.27,2.73Zm8.3,8.43c.45.13.58.22.58.45,0,.52-.94.79-2.83.79h-2.72c-1.92,0-2.77-.39-2.88-1.55-.14-1.38,1.87-3.31,4.86-7.5h-4.07l-.14-.53h4.43l.54-.63,1.33,1.1a1.09,1.09,0,0,1-.77.24c-3.44,4.17-5.08,6.33-5,7.2.05.48.59.63,1.76.63h2.62c1.18,0,1.35-.06,1.47-.31a9.49,9.49,0,0,0,.61-2.37h.26Z"/><path class="cls-1" d="M244.75,302c.49,2,.4,3.48-.29,4.2s-1.71,0-.83-.94a5.14,5.14,0,0,0,.83-3.24Zm10,7.35a11,11,0,0,0,5.53,3.4l0,.2a1.36,1.36,0,0,0-1,1,10.11,10.11,0,0,1-4.77-4.34V314c0,.15-.51.4-.92.4h-.22v-4.16a13.78,13.78,0,0,1-6.12,3.82l-.18-.33a12.35,12.35,0,0,0,5.6-4.44h-4.1c1.71,1.6.91,3.11,0,2.37a7.67,7.67,0,0,0-1.8-3.15,8.88,8.88,0,0,1-3.14,5.78l-.23-.3c3-3.19,2.59-8.07,2.59-15.83l1.8.2c0,.27-.21.45-.63.48,0,1.79,0,3.43,0,4.92a25.73,25.73,0,0,0,1.27-2.41l1.53,1a.54.54,0,0,1-.66.18A17.09,17.09,0,0,1,247,304.4a30.28,30.28,0,0,1-.29,3.77,6.74,6.74,0,0,1,1.71,1.11l-.13-.47h5v-1.44l1.78.2c0,.24-.19.4-.64.47v.77h3.08l.81-1a18.71,18.71,0,0,1,1.53,1.26c0,.2-.2.27-.45.27Zm-4.71-6h2.07l.56-.58,1.24,1a1,1,0,0,1-.6.28v3.05c0,.12-.55.37-.91.37h-.15v-.75h-2.28v.66a1.23,1.23,0,0,1-.89.35h-.14v-4.83Zm-.07.54v2.28h2.28V303.9Zm1.9-1.51c0,.1-.48.36-.93.36h-.16v-4.58l1.18.52h3.93l.63-.66,1.37,1a1.29,1.29,0,0,1-.7.35v2.79a1.44,1.44,0,0,1-1,.38H256V302h-4.18Zm0-3.17v2.26H256v-2.26Zm3.87,4.14H258l.57-.61,1.33,1a1.2,1.2,0,0,1-.68.32v3a1.46,1.46,0,0,1-.9.36h-.16v-.72h-2.5V307a1.22,1.22,0,0,1-.89.34h-.16v-4.48Zm-.08.54v2.28h2.5V303.9Z"/><path class="cls-1" d="M264.91,304.28c3.13,1.6,2.2,3.74,1.19,2.91a6.59,6.59,0,0,0-1.19-2.5V314c0,.16-.47.41-.88.41h-.24v-8.32a15.34,15.34,0,0,1-2.46,4.25l-.27-.23a22.19,22.19,0,0,0,2.46-7.4h-2l-.12-.54h2.35V298l1.77.2c-.06.27-.2.43-.65.5v3.5h.49l.72-1a15.22,15.22,0,0,1,1.29,1.28c0,.2-.2.29-.45.29h-2Zm12.66,8.87c.48.61.54.87.41,1.06-.38.54-1.4.09-2.16-.5a7.08,7.08,0,0,1-1.82-1.8,12.84,12.84,0,0,1-4.88,2.38L269,314a12.33,12.33,0,0,0,4.46-2.92,13.58,13.58,0,0,1-1.2-3.17h-2.7a12.13,12.13,0,0,1-.15,1.32c3.13.75,2.34,3,1.15,2.25a4.19,4.19,0,0,0-1.24-1.78,7.07,7.07,0,0,1-3.24,4.73l-.25-.27a8.17,8.17,0,0,0,2.52-6.25h-1.26l-.14-.5h5.2a33.34,33.34,0,0,1-.7-6.36.76.76,0,0,1-.58.16,32.79,32.79,0,0,1-2.29,3.71c.56,0,1.19-.1,1.82-.16a5.92,5.92,0,0,0-.65-1.17l.22-.12c2.75,1.44,1.75,3.38.79,2.57a4,4,0,0,0-.21-.92c-.65.22-1.53.51-2.67.85a.53.53,0,0,1-.41.36l-.67-1.28c.31,0,.74,0,1.26-.07.6-1.24,1.35-3.08,1.93-4.68l1.44.57c0-.92,0-1.85,0-2.81l1.8.24c0,.23-.19.43-.63.5a36.7,36.7,0,0,0,.69,8.61h2.59l.76-1s.88.72,1.42,1.24a.42.42,0,0,1-.45.27h-4.2a10.48,10.48,0,0,0,.87,2.29,11.41,11.41,0,0,0,1.28-2l1.54.76c-.1.18-.28.25-.68.2a9.68,9.68,0,0,1-1.55,2,5.54,5.54,0,0,0,1.5,1.44c.3.24.41.24.57-.12a14,14,0,0,0,.7-2l.24,0Zm-7.22-14.49a.6.6,0,0,1-.65.32c-.43.7-.9,1.48-1.37,2.11,1.35.94.67,2.12-.14,1.58a4.82,4.82,0,0,0-1.37-2l.2-.15a5.84,5.84,0,0,1,.88.33c.27-.8.59-1.82.86-2.76Zm2.65,1.89a8,8,0,0,1,.75.32,28.43,28.43,0,0,0,1-2.81l1.59.6c-.07.2-.29.34-.67.3a19.43,19.43,0,0,1-1.55,2.13c1.39,1,.67,2.16-.1,1.58a4.77,4.77,0,0,0-1.21-2Zm4.53.14a.61.61,0,0,1-.7.29,29.61,29.61,0,0,1-2.3,3.39l2-.18a6,6,0,0,0-.77-1.3l.23-.11c2.9,1.57,1.86,3.67.94,2.81a4,4,0,0,0-.23-1l-2.76.79a.52.52,0,0,1-.43.36l-.5-1.27.95-.06a43.21,43.21,0,0,0,2.07-4.34Zm-3.38,4.9c2.57.2,1.87,2,.9,1.44a2.85,2.85,0,0,0-1.06-1.28Z"/><rect class="cls-3" x="31.01" y="339.64" width="287.99" height="24"/><path class="cls-1" d="M112.64,349.07s.88.71,1.42,1.2c0,.18-.19.26-.42.26h-3.1a10.26,10.26,0,0,1-2,4.47c5.33,1.73,4.93,3.93,3.67,3.41a16,16,0,0,0-4.36-2.73c-1.71,1.53-4.3,2.39-8.35,2.79l-.06-.3c3.47-.56,5.84-1.44,7.42-2.9a29.82,29.82,0,0,0-3.23-1.07l-.59,1.18a1.4,1.4,0,0,1-1.12-.08,46.93,46.93,0,0,0,2.32-4.77H99.69l-.15-.48h4.89c.48-1.15.89-2.21,1.12-2.93l1.55.31c-.07.2-.23.35-.64.35-.21.56-.55,1.37-.93,2.27h6.31Zm1.47-2.41c-.1.11-.29.14-.59.16a11.3,11.3,0,0,1-1.86,1.79l-.19-.11c.24-.5.56-1.27.77-1.87H101.8a2.38,2.38,0,0,1-.86,2c-.4.28-1,.32-1.19-.05a.76.76,0,0,1,.4-.9,2.57,2.57,0,0,0,1.12-2.42h.29a7.18,7.18,0,0,1,.21.9h4.48v-2.36l1.65.18c0,.22-.19.38-.58.45v1.73h4.88l.68-.68Zm-8.79,3.87c-.49,1.12-1,2.32-1.57,3.38a31.61,31.61,0,0,1,3.68.77,9,9,0,0,0,1.88-4.15Z"/><path class="cls-1" d="M117.72,349.12c.66,2.82-.22,4.64-.93,5.4-.46.49-1.1.7-1.38.38a.78.78,0,0,1,.21-1,6.33,6.33,0,0,0,1.81-4.79Zm3.63-1.47c0,.21-.19.37-.54.43v8.37c0,.37.13.5,1,.5h2.09c1,0,1.68,0,2,0a.41.41,0,0,0,.38-.29,21.87,21.87,0,0,0,.61-2.79h.21l0,2.92c.38.13.5.25.5.48,0,.56-.61.73-3.73.73h-2.21c-1.49,0-1.91-.27-1.91-1.29v-9.21Zm2.61-.13a9.38,9.38,0,0,0-4-3.06l.1-.25C125.91,345.33,125.23,348.19,124,347.52Zm5.14,6.88a7.51,7.51,0,0,0-2.37-5.29l.16-.18C131.64,351.54,130.27,355.76,129.1,354.4Z"/><path class="cls-1" d="M144.63,349.07s.88.71,1.43,1.2c0,.18-.19.26-.42.26h-3.1a10.26,10.26,0,0,1-2,4.47c5.33,1.73,4.93,3.93,3.67,3.41a16.34,16.34,0,0,0-4.36-2.73c-1.71,1.53-4.3,2.39-8.35,2.79l-.07-.3c3.48-.56,5.85-1.44,7.43-2.9a30.57,30.57,0,0,0-3.23-1.07c-.21.43-.42.83-.6,1.18a1.41,1.41,0,0,1-1.12-.08,44.9,44.9,0,0,0,2.32-4.77h-4.52l-.15-.48h4.88c.48-1.15.9-2.21,1.12-2.93l1.56.31c-.07.2-.23.35-.64.35-.21.56-.55,1.37-.93,2.27h6.3Zm1.48-2.41c-.1.11-.29.14-.6.16a10.85,10.85,0,0,1-1.85,1.79l-.19-.11a18.18,18.18,0,0,0,.76-1.87H133.8a2.36,2.36,0,0,1-.87,2c-.4.28-1,.32-1.18-.05a.76.76,0,0,1,.4-.9,2.57,2.57,0,0,0,1.12-2.42h.29q.13.48.21.9h4.48v-2.36l1.65.18c0,.22-.19.38-.58.45v1.73h4.88l.68-.68Zm-8.79,3.87c-.5,1.12-1.06,2.32-1.57,3.38a31.61,31.61,0,0,1,3.68.77,9,9,0,0,0,1.88-4.15Z"/><path class="cls-1" d="M156.12,344.21c0,.19-.24.25-.64.3a16.48,16.48,0,0,0,6.93,5.09l0,.23a1.29,1.29,0,0,0-1,.86,14.66,14.66,0,0,1-6.2-6,20.76,20.76,0,0,1-7.68,6.58l-.15-.22c2.69-1.6,6-5,6.85-7.35Zm4.32,12.23s.91.69,1.49,1.21c-.05.18-.22.24-.45.24H148l-.15-.44h6.37V354H150l-.13-.44h4.32v-3.05h-4l-.11-.46h7.47l.74-.86s.83.6,1.35,1.07c0,.17-.21.25-.42.25h-4v3.05h2.81l.79-.92s.85.64,1.41,1.12c-.05.16-.21.24-.43.24h-4.58v3.45h4.34Z"/><path class="cls-1" d="M170.07,357c3.92-.69,5.81-2.71,5.81-5.6a4.54,4.54,0,0,0-4.75-4.68,5.65,5.65,0,0,0-.58,0,3,3,0,0,1,.69,1.69,8,8,0,0,1-.5,2.58c-.67,1.92-2.53,5-4.16,5-1.07,0-2.19-1.69-2.19-3.66a6.16,6.16,0,0,1,2.13-4.5,6.9,6.9,0,0,1,4.67-1.71c3.3,0,5.84,2.16,5.84,5.47,0,2.66-1.66,5.38-6.9,5.72ZM170,346.8a6.18,6.18,0,0,0-3,1.59,5.14,5.14,0,0,0-1.64,3.69c0,1.54.7,2.71,1.36,2.71,1,0,2.52-2.53,3.18-4.05a7.69,7.69,0,0,0,.58-2.47A2.82,2.82,0,0,0,170,346.8Z"/><path class="cls-1" d="M187.81,352.37a16.7,16.7,0,0,0,2.41-3.06c.11-.19,0-.3-.18-.27-.88.15-3.33.93-4.77,1.41-.06,1.41-.11,2.91-.1,3.86,0,1.31.2,1.44,2.15,1.44a16.09,16.09,0,0,0,3.33-.35c.43,0,1.07.19,1.07.6s-.3.44-.74.5a19,19,0,0,1-3.18.27c-2.51,0-3.47-.14-3.51-2.25,0-1.11,0-2.69.05-3.75-.77.26-1.81.63-2.48.91s-.59.48-1,.48a2.52,2.52,0,0,1-1.46-1.1,1.8,1.8,0,0,1-.09-.85l.25-.1c.32.48.58.81,1,.81a26.71,26.71,0,0,0,3.86-1c0-1.31.08-2.91,0-3.55,0-.4-.51-.5-1.3-.61v-.3a3.64,3.64,0,0,1,1.18-.21c.58,0,1.62.61,1.62,1s-.32.56-.39,1-.12,1.36-.19,2.4c1.38-.4,3.41-1,4.36-1.23.46-.13.57-.42.81-.42.47,0,1.55.87,1.55,1.25s-.46.38-.83.75a21.27,21.27,0,0,1-3.1,2.64Z"/><path class="cls-1" d="M197.62,345.44a4.77,4.77,0,0,1,1.25-.32c.69,0,1.57.38,1.58.72s-.22.42-.17.91.14.92.27,1.59c.69-.18,1.33-.35,1.9-.53s.93-.4,1.08-.42c.46,0,1.2.12,1.2.5s-.24.42-.64.5c-.88.17-2.4.49-3.38.72l.56,2.67c1.26-.29,3-.74,3.51-.91s.52-.21.67-.23c.72-.05,1.37.21,1.37.56s-.09.42-.51.45a34.2,34.2,0,0,0-4.86.88c.33,1.51.62,2.77.78,3.39a6.64,6.64,0,0,1,.3,1.51c0,.24-.11.5-.43.5s-.7-.5-.8-.92c-.08-.27-.19-1.26-.35-2.16-.1-.56-.22-1.31-.38-2.11-1.14.29-2.63.7-3.48,1-.59.21-.75.45-1.1.45a2.21,2.21,0,0,1-1.27-.71,2.45,2.45,0,0,1-.3-.77l.27-.17c.42.37.66.53.9.53a49,49,0,0,0,4.83-1.08c-.21-1-.41-2.06-.56-2.69-.86.2-1.71.42-2.34.61-.44.15-.54.32-.83.32a2.23,2.23,0,0,1-1.25-.73,1.55,1.55,0,0,1-.25-.71l.27-.13c.26.26.48.55.85.55s2.06-.37,3.38-.67a15.33,15.33,0,0,0-.65-2.37c-.17-.34-.81-.31-1.37-.4Z"/><path class="cls-1" d="M209.94,350.08a1.79,1.79,0,0,0,1,.59,24.68,24.68,0,0,0,3.12-.46c.28-.06.44-.35.66-.35s1.36.62,1.36.94-.37.42-.46.76c-.18.59-.58,2.27-.87,3.44.4,0,.79-.05,1.12-.07a4.69,4.69,0,0,0,.9-.13c.54,0,1.57.5,1.57.93a.37.37,0,0,1-.42.4c-.37,0-1.3-.3-2.66-.35a24.33,24.33,0,0,0-5,.5,6.36,6.36,0,0,1-1.08.32c-.39,0-1-.6-1.14-.9a1.77,1.77,0,0,1-.16-.74l.21,0a1.43,1.43,0,0,0,1,.59c.45,0,2.66-.26,4.69-.43.26-1.35.61-3.35.71-4,0-.09-.05-.14-.15-.14a17.93,17.93,0,0,0-2.58.58c-.3.09-.51.27-.78.27a1.72,1.72,0,0,1-1.1-.88,1.49,1.49,0,0,1-.13-.71Z"/><path class="cls-1" d="M220.48,346.58v-.32a3.39,3.39,0,0,1,.91-.18c.6,0,1.57.58,1.57,1s-.19.46-.24,1.05,0,4.21,0,4.87-.23.8-.52.8-.62-.5-.62-1.09c0-.43.13-1.05.16-2.37,0-.73,0-2.3-.1-2.89,0-.39,0-.52-.32-.63A3.32,3.32,0,0,0,220.48,346.58Zm1.84,11.57-.21-.35c3.13-1.65,4.63-3.8,4.82-7.08a37.63,37.63,0,0,0,0-3.92.7.7,0,0,0-.35-.65,2.93,2.93,0,0,0-1-.21l0-.32a3.13,3.13,0,0,1,1.09-.31c.61,0,1.67.63,1.67,1s-.28.44-.31,1c0,.94-.1,2.56-.14,3.55C227.78,354.48,225.94,356.79,222.32,358.15Z"/><path class="cls-1" d="M232.51,349c.31.43.63.85,1,.85,1.09,0,5.16-.61,8.1-.87,1.12-.11,1.38-.28,1.62-.28.66,0,1.57.35,1.57.81,0,.26-.1.4-.45.4s-.86-.09-1.65-.09-2.06,0-3.54.17c.44.24.8.53.8.79s-.36.38-.54.86a10.59,10.59,0,0,1-5.43,6.47l-.32-.34a10,10,0,0,0,4.76-7,1,1,0,0,0-.27-.64c-1.33.16-2.82.4-3.3.53a6.3,6.3,0,0,1-1.28.34c-.37,0-1.09-.63-1.27-1.07a2.67,2.67,0,0,1-.11-.79Zm2.45-3.38a2.48,2.48,0,0,0,1.55.63,14.79,14.79,0,0,0,2.89-.37c.94-.21,1.15-.47,1.48-.47.69,0,1.22.24,1.22.63s-.18.38-.69.48a33.47,33.47,0,0,1-4.9.61c-.81,0-1.26-.47-1.79-1.3Z"/><path class="cls-1" d="M251.36,348.26a2.32,2.32,0,0,1,.85.11c.53.18,1.14.74,1.14,1.1s-.23.28-.56.61c-.45.5-1,1.15-1.81,1.88.35.24.62.44.62.64s-.11.35-.12.67c-.07,1.74,0,3.55,0,4.24,0,.48-.14.67-.46.67-.47,0-.72-.59-.72-1.07,0-.21.11-.45.14-.86a31.51,31.51,0,0,0,.13-3.3,1.32,1.32,0,0,0-.13-.51,16.92,16.92,0,0,1-4.66,2.83l-.16-.29c3.4-1.9,6.34-5.19,6.34-5.84,0-.26-.35-.51-.7-.67Z"/><path class="cls-1" d="M109.62,389.2v1.35h-7.94v-1.08c1.11-1.15,2.23-2.35,3.09-3.27,2-2.15,2.78-3.62,2.78-5.13a2.44,2.44,0,0,0-2.49-2.72,4.16,4.16,0,0,0-1.19.16l-.45,1.39c-.21.77-.48,1.11-1,1.11a1,1,0,0,1-.87-.56c.31-1.89,2-2.84,3.86-2.84,2.43,0,3.56,1.35,3.56,3.33,0,1.66-.86,2.95-3.74,5.83-.51.54-1.42,1.46-2.41,2.43Z"/><path class="cls-1" d="M119.84,386.59h-2.12v4h-1.35v-4H111v-.83l5.83-8h.94v7.86h2.12Zm-3.47-1v-6.17l-4.45,6.17Z"/><path class="cls-1" d="M132.79,378.26c0,1.71,0,3.45,0,5.24v1c0,1.72,0,3.49,0,5.22l1.89.2v.64h-5.37v-.64l1.87-.18c0-1.7,0-3.46,0-5.57h-6.74c0,2.09,0,3.86.06,5.55l1.87.2v.64h-5.35v-.64l1.88-.2c0-1.71,0-3.46,0-5.22v-1c0-1.75,0-3.52,0-5.24l-1.88-.2v-.63h5.35v.63l-1.87.2c-.06,1.67-.06,3.4-.06,5.15h6.74c0-1.73,0-3.46,0-5.15l-1.87-.2v-.63h5.37v.63Z"/><path class="cls-1" d="M146.1,385.06a18,18,0,0,0,2.7-3.44c.13-.21.06-.34-.19-.3a55.46,55.46,0,0,0-5.37,1.58c-.07,1.59-.12,3.28-.11,4.34,0,1.48.22,1.62,2.42,1.62a18.06,18.06,0,0,0,3.74-.39c.49,0,1.21.21,1.21.68s-.34.49-.83.56a22.51,22.51,0,0,1-3.58.3c-2.83,0-3.91-.16-4-2.53,0-1.25,0-3,.06-4.22-.87.29-2,.7-2.79,1s-.67.54-1.17.54a2.83,2.83,0,0,1-1.64-1.24,2,2,0,0,1-.11-1l.29-.11c.36.54.65.9,1.1.9a29.72,29.72,0,0,0,4.33-1.11c0-1.48.09-3.28,0-4,0-.45-.58-.56-1.46-.68l0-.35a4.43,4.43,0,0,1,1.34-.23c.64,0,1.82.68,1.82,1.08s-.36.63-.44,1.17-.14,1.53-.21,2.7c1.55-.45,3.83-1.08,4.89-1.38.53-.15.65-.47.92-.47.53,0,1.75,1,1.75,1.4s-.52.43-.94.85a23.68,23.68,0,0,1-3.49,3Z"/><path class="cls-1" d="M157.14,377.27a5.33,5.33,0,0,1,1.4-.36c.78,0,1.77.43,1.78.81s-.25.46-.19,1,.16,1,.3,1.79c.78-.2,1.5-.4,2.15-.6s1-.45,1.2-.47c.52,0,1.35.13,1.35.56s-.27.47-.72.56c-1,.2-2.7.56-3.8.81.22,1,.43,2.05.63,3,1.43-.33,3.33-.83,3.95-1s.59-.23.75-.25c.81-.06,1.55.23,1.55.63,0,.23-.11.47-.58.5a37.5,37.5,0,0,0-5.47,1c.38,1.7.7,3.12.88,3.82a7.64,7.64,0,0,1,.35,1.69.5.5,0,0,1-.49.56c-.38,0-.79-.56-.9-1-.09-.3-.22-1.42-.4-2.43-.11-.63-.25-1.47-.43-2.37-1.28.32-2.95.79-3.91,1.13-.66.24-.84.51-1.24.51a2.48,2.48,0,0,1-1.42-.8,2.28,2.28,0,0,1-.34-.86l.3-.2c.47.41.74.59,1,.59a54.62,54.62,0,0,0,5.44-1.2c-.24-1.17-.47-2.32-.63-3-1,.22-1.93.47-2.63.69-.5.16-.61.36-.94.36a2.48,2.48,0,0,1-1.4-.83,1.7,1.7,0,0,1-.29-.79l.31-.15c.28.29.54.62.95.62s2.32-.42,3.8-.76a17,17,0,0,0-.72-2.67c-.2-.37-.92-.34-1.55-.45Z"/><path class="cls-1" d="M171,382.49a2,2,0,0,0,1.11.66,27.39,27.39,0,0,0,3.52-.52c.3-.07.48-.39.73-.39s1.53.7,1.53,1.06-.41.47-.52.84c-.2.67-.65,2.56-1,3.88.45,0,.88-.06,1.26-.08a5.28,5.28,0,0,0,1-.14c.61,0,1.76.56,1.76,1a.42.42,0,0,1-.47.45,28.94,28.94,0,0,0-3-.39,26.75,26.75,0,0,0-5.63.56,7.94,7.94,0,0,1-1.22.36c-.44,0-1.12-.67-1.28-1a2,2,0,0,1-.18-.83l.23-.05a1.62,1.62,0,0,0,1.15.66c.51,0,3-.29,5.28-.48.29-1.52.68-3.77.79-4.54a.14.14,0,0,0-.16-.16,21.55,21.55,0,0,0-2.9.64,3.21,3.21,0,0,1-.88.31,2,2,0,0,1-1.25-1,1.84,1.84,0,0,1-.14-.79Z"/><path class="cls-1" d="M182.86,378.54v-.36a4.27,4.27,0,0,1,1-.19c.66,0,1.76.64,1.76,1.09s-.22.53-.27,1.19,0,4.74,0,5.48-.25.9-.57.9-.71-.56-.71-1.23c0-.48.15-1.19.18-2.66,0-.83,0-2.59-.1-3.26,0-.43-.06-.58-.37-.7A3.85,3.85,0,0,0,182.86,378.54Zm2.07,13-.23-.39c3.51-1.86,5.2-4.27,5.42-8a41.54,41.54,0,0,0,0-4.41c0-.31-.07-.56-.4-.74a3.63,3.63,0,0,0-1.08-.24l0-.36a3.58,3.58,0,0,1,1.23-.34c.68,0,1.87.7,1.87,1.08s-.3.49-.34,1.06c0,1.07-.11,2.89-.16,4C191.07,387.44,189,390,184.93,391.56Z"/><path class="cls-1" d="M196.39,381.28c.35.49.71,1,1.17,1,1.23,0,5.8-.69,9.12-1a17.37,17.37,0,0,0,1.81-.32c.74,0,1.77.4,1.77.92,0,.29-.11.45-.51.45s-1-.11-1.85-.11-2.32,0-4,.2c.49.27.9.59.9.88s-.41.43-.61,1a11.91,11.91,0,0,1-6.11,7.28l-.36-.38a11.31,11.31,0,0,0,5.35-7.91,1.1,1.1,0,0,0-.3-.72,36.72,36.72,0,0,0-3.71.6,7.57,7.57,0,0,1-1.44.38c-.42,0-1.23-.71-1.43-1.21a2.86,2.86,0,0,1-.12-.88Zm2.76-3.8a2.72,2.72,0,0,0,1.75.7,16,16,0,0,0,3.24-.41c1.06-.23,1.29-.52,1.67-.52.77,0,1.37.27,1.37.7,0,.27-.2.43-.77.54a37.55,37.55,0,0,1-5.51.68c-.92,0-1.43-.52-2-1.45Z"/><path class="cls-1" d="M217.6,380.44a2.75,2.75,0,0,1,1,.12c.59.2,1.27.83,1.27,1.24s-.25.31-.63.69c-.5.56-1.17,1.29-2,2.1.4.27.7.51.7.72s-.12.4-.14.76c-.07,2,0,4,0,4.77,0,.54-.17.76-.53.76-.52,0-.81-.67-.81-1.21,0-.23.13-.5.17-1a36.88,36.88,0,0,0,.14-3.71,1.5,1.5,0,0,0-.14-.58,19.08,19.08,0,0,1-5.24,3.19l-.18-.32c3.81-2.15,7.13-5.84,7.13-6.57,0-.29-.4-.58-.8-.76Z"/><path class="cls-1" d="M227.79,392.07l-.51-.51,16.21-16.2.5.5Z"/><path class="cls-1" d="M62.91,405a6.23,6.23,0,0,1,1.29-.22c.69,0,1.89.67,1.89,1.12s-.41.4-.54,1.08c-.09.47-.23,1.28-.41,2l2.92-.36c.48-.06.63-.45.91-.45s1.45.84,1.45,1.22-.46.34-.53.85A21.19,21.19,0,0,1,68,417.15a2.35,2.35,0,0,1-1.89,1.37c-.31,0-.45-.16-.56-.54-.18-.67-.76-1-1.78-1.73l.21-.34c.76.34,1.68.75,2,.88s.66.13.92-.18c1.15-1.42,1.87-5.82,1.87-7,0-.12-.07-.2-.22-.2a32.06,32.06,0,0,0-3.6.38,14.31,14.31,0,0,1-7.4,9.53l-.29-.36a15.67,15.67,0,0,0,6.47-9c-1.16.2-2.74.49-3.24.61s-.67.38-1,.38-1.19-.88-1.33-1.29a2.6,2.6,0,0,1-.11-1.14l.36-.09c.25.49.52,1.1,1,1.1s2.57-.22,4.55-.47a20.34,20.34,0,0,0,.45-2.93c0-.35,0-.47-.32-.58a6.08,6.08,0,0,0-1.15-.25Z"/><path class="cls-1" d="M73.83,409.23l.34-.16c.38.55.69,1,1.21,1,1.06,0,6.3-.69,7.56-.87.51-.07.67-.34,1-.34.54,0,1.63.92,1.63,1.37s-.7.54-.92,1a16.18,16.18,0,0,1-9.14,8.19l-.25-.41a17.28,17.28,0,0,0,8.3-8.7c.07-.21,0-.32-.22-.29-1.46.15-5.4.72-6.63,1-.55.12-.81.45-1.2.45s-1.23-.74-1.41-1.17A5.15,5.15,0,0,1,73.83,409.23Zm9-2.85a32.13,32.13,0,0,1-5.18.69c-.92,0-1.43-.51-2-1.46l.27-.24a2.75,2.75,0,0,0,1.73.72,12.86,12.86,0,0,0,2.93-.41c1.07-.23,1.3-.52,1.68-.52.77,0,1.38.25,1.38.68C83.64,406.09,83.43,406.26,82.85,406.38Z"/><path class="cls-1" d="M88.79,410.94c.39.61.68,1.17,1.44,1.17,1.6,0,7.9-.42,8.73-.45,1.21-.09,1.71-.2,2.18-.2.68,0,1.49.31,1.49.79,0,.33-.18.52-.79.52s-1.26,0-2.36,0-6.19.27-7.54.43c-1,.11-1.23.38-1.75.38s-1.35-.88-1.6-1.5a3.08,3.08,0,0,1-.16-1Z"/><path class="cls-1" d="M107.82,406.72a2.07,2.07,0,0,0,1.38.85,41.5,41.5,0,0,0,5.38-.65c1-.2,1.41-.54,1.66-.54.92,0,1.59.36,1.6.76,0,.23-.12.45-.63.5-1.08.11-3.31.38-4.86.58.47.22.78.47.78.65s-.15.43-.2.81-.09,1-.13,1.65l4.13-.5c1-.14,1.33-.27,1.69-.27.59,0,1.67.43,1.67.92,0,.29-.16.5-.55.5-.6,0-1.59-.16-2.65-.16s-2.61.16-4.34.34c0,1.28-.09,2.65-.07,3.42,0,1,.27,1.35,1.9,1.35a13.49,13.49,0,0,0,3.28-.32c.85,0,1.24.41,1.24.68s-.23.49-.77.6a22.35,22.35,0,0,1-3.44.23c-2.52,0-3.19-.57-3.2-2.19,0-.71,0-2.24,0-3.64a31.47,31.47,0,0,0-3.31.63c-.74.2-.94.45-1.37.45a2,2,0,0,1-1.42-1.21,2.54,2.54,0,0,1-.13-.83l.27-.1c.38.41.67.77,1.19.77.74,0,3.19-.36,4.79-.54,0-.79,0-1.46,0-1.8a2,2,0,0,0-.4-1.33l-.5.07c-.67.09-1.32.29-1.75.29s-1-.56-1.31-1a3.63,3.63,0,0,1-.29-.81Z"/><path class="cls-1" d="M122.81,414.34l.36-.13c.38.49.77.94,1.4.94.8,0,6.31-.7,9.91-.83a9.9,9.9,0,0,0,1.22-.21c.74,0,2.16.68,2.16,1.31,0,.31-.2.47-.54.47a23.64,23.64,0,0,0-4-.49,36.26,36.26,0,0,0-7.3.78,7.85,7.85,0,0,1-1.4.41c-.54,0-1.39-.86-1.59-1.26A2.76,2.76,0,0,1,122.81,414.34ZM134.26,409c-2.95.34-6.3.75-6.95.75a2,2,0,0,1-1.35-.86,4.53,4.53,0,0,1-.45-1l.32-.18c.69.69,1.14,1,1.68,1a30.29,30.29,0,0,0,4.1-.5c1-.22,1.16-.47,1.59-.47.67,0,1.66.27,1.66.74C134.86,408.69,134.66,408.9,134.26,409Z"/><path class="cls-1" d="M147,407.43a29.69,29.69,0,0,0,3.67-.42c.51-.09.62-.41.92-.41.45,0,1.53.77,1.53,1.24s-.61.47-.83.92a28.23,28.23,0,0,1-2.73,4.14c1.1.83,2,1.75,2,2.43a.56.56,0,0,1-.59.65c-.5,0-.83-.77-2.2-2.18a22,22,0,0,1-8.08,5.58l-.25-.41A25.19,25.19,0,0,0,148,413a15.46,15.46,0,0,0-3.8-2.43,16.45,16.45,0,0,1-3.54,2.7l-.29-.37c2.77-2,5.83-6.13,5.83-7.17,0-.32-.47-.59-1.1-.86l.09-.35a4.11,4.11,0,0,1,1.08.08c.72.16,1.62.68,1.62,1s-.27.47-.52.94c-.16.27-.34.56-.52.83Zm3.93.3c-.64.06-2.31.33-2.94.47a5.69,5.69,0,0,1-1,.22,1.39,1.39,0,0,1-.67-.31,24.64,24.64,0,0,1-1.81,2.16,24.8,24.8,0,0,1,4.1,2,15.48,15.48,0,0,0,2.5-4.23C151.25,407.79,151.16,407.73,151,407.73Z"/><path class="cls-1" d="M156.22,410.94c.39.61.68,1.17,1.44,1.17,1.6,0,7.9-.42,8.73-.45,1.21-.09,1.71-.2,2.18-.2.68,0,1.49.31,1.49.79,0,.33-.18.52-.79.52s-1.26,0-2.36,0-6.19.27-7.54.43c-1,.11-1.23.38-1.75.38s-1.35-.88-1.6-1.5a3.08,3.08,0,0,1-.16-1Z"/><path class="cls-1" d="M181.06,404.78a3.31,3.31,0,0,1,1.17.2c.7.23,1.49,1,1.49,1.49s-.32.31-.81.85c-.66.74-1.54,1.71-2.73,2.84.5.33.92.63.92.89a7.32,7.32,0,0,0-.17.93c-.12,2.61,0,5.37,0,6.45,0,.66-.16.88-.54.88-.6,0-.9-.86-.9-1.46,0-.32.14-.68.21-1.28a45.42,45.42,0,0,0,.17-5,1.3,1.3,0,0,0-.27-.79,25.62,25.62,0,0,1-6.76,4.27l-.23-.43a28.73,28.73,0,0,0,8.93-7.62A2.27,2.27,0,0,0,182,406c0-.29-.31-.54-1.07-.92Z"/><path class="cls-1" d="M200.56,408l.41.27c-2.16,3.83-5.51,6.72-9.45,9.24-.36.21-.56.66-1,.66a3.51,3.51,0,0,1-2.14-1.38,4.09,4.09,0,0,1-.38-1.17l.29-.18c.54.59,1.12,1.17,1.69,1.17C191.41,416.56,198,411.78,200.56,408Zm-12.1-1.69c2,.57,4.53,1.8,4.53,3.18a.61.61,0,0,1-.63.67c-.28,0-.52-.2-1-.76a12.13,12.13,0,0,0-3.13-2.72Z"/><path class="cls-1" d="M209.43,407.43a29.69,29.69,0,0,0,3.67-.42c.51-.09.61-.41.92-.41s1.53.77,1.53,1.24-.61.47-.83.92A28.23,28.23,0,0,1,212,412.9c1.09.83,2,1.75,2,2.43a.56.56,0,0,1-.59.65c-.51,0-.83-.77-2.2-2.18a22,22,0,0,1-8.08,5.58l-.25-.41A25.19,25.19,0,0,0,210.4,413a15.46,15.46,0,0,0-3.8-2.43,16.27,16.27,0,0,1-3.55,2.7l-.28-.37c2.77-2,5.83-6.13,5.83-7.17,0-.32-.47-.59-1.1-.86l.09-.35a4.11,4.11,0,0,1,1.08.08c.72.16,1.62.68,1.62,1s-.27.47-.52.94c-.16.27-.34.56-.52.83Zm3.92.3c-.63.06-2.3.33-2.93.47a5.69,5.69,0,0,1-1,.22,1.36,1.36,0,0,1-.67-.31,23.12,23.12,0,0,1-1.82,2.16,24.92,24.92,0,0,1,4.11,2,15.48,15.48,0,0,0,2.5-4.23C213.64,407.79,213.55,407.73,213.35,407.73Z"/><path class="cls-1" d="M218.61,410.94c.39.61.68,1.17,1.44,1.17,1.6,0,7.9-.42,8.73-.45,1.21-.09,1.71-.2,2.18-.2.68,0,1.49.31,1.49.79,0,.33-.18.52-.79.52s-1.26,0-2.36,0-6.19.27-7.54.43c-1,.11-1.23.38-1.75.38s-1.35-.88-1.6-1.5a2.83,2.83,0,0,1-.16-1Z"/><path class="cls-1" d="M240.89,405.41a7.38,7.38,0,0,1,1.35-.18c.74,0,1.68.63,1.68,1s-.36.36-.4.87-.05,1.15-.07,1.94a35,35,0,0,0,4.3-.75c.67,0,1.57.41,1.57.83s-.18.52-.63.52-1.05-.06-1.84-.06-2.21.17-3.42.29c0,.6,0,1.19,0,1.64,0,1.35.09,5.26.09,5.74,0,.78-.41,1.57-1,1.57s-.49-.36-.89-.85a6.29,6.29,0,0,0-1.51-1.11l.18-.38c.6.2,1.28.43,1.75.54.2,0,.36,0,.38-.23.05-.83.05-3.77.05-5.3V410c-1.17.16-2.75.36-3.69.58-.72.14-.9.46-1.3.46a2.12,2.12,0,0,1-1.37-1.09,3.65,3.65,0,0,1-.21-1l.32-.15c.34.47.72.94,1.12.92.83,0,3.76-.4,5.11-.56,0-1.1,0-2.18-.09-2.59-.07-.56-.48-.67-1.42-.79Zm-1.39,7c-.19,2-1.58,4.45-2.86,4.45a.6.6,0,0,1-.63-.63c0-.45.36-.56.92-1a5.6,5.6,0,0,0,2.11-2.94Zm6.42-.32c1.81.72,3.61,2,3.9,3.49.09.5-.12.88-.56.88s-.72-.59-1.06-1.17a8.56,8.56,0,0,0-2.54-2.88Z"/><path class="cls-1" d="M266.22,408l.42.27c-2.16,3.83-5.51,6.72-9.46,9.24-.36.21-.55.66-.95.66a3.51,3.51,0,0,1-2.14-1.38,3.8,3.8,0,0,1-.38-1.17l.29-.18c.54.59,1.11,1.17,1.69,1.17C257.08,416.56,263.67,411.78,266.22,408Zm-12.1-1.69c2.05.57,4.54,1.8,4.54,3.18a.61.61,0,0,1-.63.67c-.29,0-.52-.2-1-.76a12.48,12.48,0,0,0-3.13-2.72Z"/><path class="cls-1" d="M272.79,420.07l-.51-.51,16.21-16.2.5.5Z"/><path class="cls-1" d="M63,434.89a1.71,1.71,0,0,1-.8.36v12.17a1.43,1.43,0,0,1-1,.47H61v-1.21H52.47v.77c0,.17-.45.47-1,.47h-.21V433.86l1.31.61h2.61a18,18,0,0,0,.7-3l2.06.36c-.06.23-.26.39-.63.41a14.11,14.11,0,0,1-1.57,2.23h5.08l.68-.77ZM52.47,435v3.28H61V435Zm0,3.8v3.37H61v-3.37ZM61,446.16v-3.44H52.47v3.44Z"/><path class="cls-1" d="M73.41,435.46a1.4,1.4,0,0,1-.81.2,14.79,14.79,0,0,1-2,2.95c3.47,1.05,2.79,3.24,1.64,2.58A6.63,6.63,0,0,0,70.56,439v8.51c0,.11-.39.42-1,.42h-.18v-8a17.37,17.37,0,0,1-3.13,2.45l-.22-.2a19.55,19.55,0,0,0,5.26-6.7H66.64l-.14-.5h2.88v-3.42l1.78.2c0,.25-.22.43-.65.48V435h.85l.79-.76Zm8.08,10s1,.78,1.55,1.34c0,.19-.21.28-.45.28H72.06l-.14-.52h4.79v-8.32H73.12l-.14-.52h3.73v-6.16l1.85.22c0,.27-.2.45-.63.5v5.44h2.2l.82-1.08s1,.76,1.55,1.32c0,.19-.21.28-.47.28h-4.1v8.32h2.72Z"/><path class="cls-1" d="M97.64,438.79l1.13-1.49s1.32,1.06,2.11,1.82c0,.21-.25.29-.54.29H84.68l-.18-.62Z"/><path class="cls-1" d="M117.53,433.19s.9.72,1.46,1.25a.4.4,0,0,1-.45.28h-2.65c0,.78-.11,1.64-.18,2.33a1.72,1.72,0,0,1-1.22.14l.05-.48h-8.19l-.07.52a1.63,1.63,0,0,1-1.21.09c.13-.78.25-1.69.38-2.6h-2.88l-.15-.54h3.08c.13-.91.22-1.78.27-2.41l1.3.6h7.63l.6-.71,1.47,1.12a1.2,1.2,0,0,1-.77.32l-.07,1.08h.79Zm-14.84,14.48a20.83,20.83,0,0,0,5.89-2.52l1.51,1.08c-.12.18-.41.22-.84.07a25.4,25.4,0,0,1-6.47,1.68Zm12-2.34v-.56h-8.07v.49c0,.12-.48.41-1,.41h-.2v-8.28l1.3.58h7.8l.63-.69,1.38,1.06a1.23,1.23,0,0,1-.68.33v6.26a1.53,1.53,0,0,1-1,.4Zm-8.14-10.61c0,.49-.13,1-.18,1.45H110c0-.42.09-.92.14-1.45Zm.18-1.83q0,.57-.12,1.29h3.49c0-.45,0-.9.09-1.29Zm-.11,5.6V440h8.07v-1.55Zm8.07,2.07h-8.07v1.57h8.07Zm0,3.67v-1.56h-8.07v1.56Zm-.14-8.06c.05-.47.09-1,.12-1.45h-3.55c0,.53-.09,1-.14,1.45Zm-3.28-3.28c0,.39-.06.84-.09,1.29h3.55c0-.46,0-.9.07-1.29Zm.72,12.62c8.53.54,6.43,3.17,5,2.23A16.34,16.34,0,0,0,112,445.8Z"/><path class="cls-1" d="M121.45,437.59l.18-.4A18.87,18.87,0,0,1,124,438c1.1.45,1.77,1.1,1.77,1.78a.52.52,0,0,1-.52.56c-.56,0-.85-.65-1.79-1.35A11.9,11.9,0,0,0,121.45,437.59Zm13.29-1,.41.27c-2.05,3.6-5.85,6.75-9.83,8.95-.36.21-.56.68-1,.68a3.63,3.63,0,0,1-2.08-1.33,3,3,0,0,1-.4-1.21l.29-.16c.48.58,1,1.19,1.65,1.19C125,445,131.5,441.08,134.74,436.58Zm-10.88-2.45.2-.41a17.91,17.91,0,0,1,2.27.77c1.22.61,1.76,1.21,1.76,1.84a.53.53,0,0,1-.52.59c-.5,0-.86-.72-1.82-1.49A10.72,10.72,0,0,0,123.86,434.13Z"/><path class="cls-1" d="M139.36,434.45c.31.44.65,1.09,1.24,1.09a42.41,42.41,0,0,0,5.53-.89c.38-.11.6-.45.85-.45.54,0,1.71.94,1.71,1.34s-.54.5-.78.86a29.74,29.74,0,0,1-3,4.09c2.9,1.31,5.86,3.31,5.86,4.8a.61.61,0,0,1-.62.67c-.48,0-.73-.58-1.69-1.66a15.79,15.79,0,0,0-4-3.36,21.94,21.94,0,0,1-7.63,5.31l-.27-.45c4.23-2.2,8.48-6.43,10.15-10.12.09-.24,0-.27-.21-.25-1.28.2-3.78.81-4.77,1.06-.56.14-.63.47-1.07.47s-1.24-.78-1.45-1.25a3,3,0,0,1-.26-1.09Z"/><path class="cls-1" d="M153.78,437.28c.34.49.7,1,1.17,1,1.22,0,5.8-.69,9.11-1a17.9,17.9,0,0,0,1.82-.32c.74,0,1.76.4,1.76.92,0,.29-.11.45-.5.45s-1-.11-1.86-.11-2.32,0-4,.2c.49.27.9.59.9.88s-.41.43-.61,1a11.92,11.92,0,0,1-6.1,7.28l-.36-.38a11.31,11.31,0,0,0,5.35-7.91,1.06,1.06,0,0,0-.31-.72,37.23,37.23,0,0,0-3.71.6,7.57,7.57,0,0,1-1.44.38c-.41,0-1.22-.71-1.42-1.21a2.82,2.82,0,0,1-.13-.88Zm2.75-3.8a2.76,2.76,0,0,0,1.75.7,15.92,15.92,0,0,0,3.24-.41c1.06-.23,1.3-.52,1.68-.52.77,0,1.36.27,1.36.7,0,.27-.19.43-.77.54a37.55,37.55,0,0,1-5.51.68c-.92,0-1.42-.52-2-1.45Z"/><path class="cls-1" d="M177.67,439.64c2.05,1.24,4.37,3.76,4.37,5.69,0,.5-.27.85-.7.85-.58,0-.54-.81-1.22-2.4-2.65.58-7.13,1.28-8.75,1.64-.38.07-.74.52-1.05.52-.48,0-1.2-.79-1.37-1.31a2.32,2.32,0,0,1,0-.69l.23-.12a1.63,1.63,0,0,0,1,.43l.91-.05c1.34-2.35,3.91-7.91,3.91-8.77,0-.4-.34-.72-.93-1.05l.12-.32a3.63,3.63,0,0,1,1,.18c.74.23,1.53,1,1.53,1.42s-.42.43-.61.81c-.83,1.71-2.76,5.49-4,7.64,2.25-.24,5.78-.67,7.76-1a11.86,11.86,0,0,0-2.45-3.12Z"/><path class="cls-1" d="M189.49,440c-.38.94-1.2,3-1.4,3.66a4.75,4.75,0,0,0-.31,1.29c0,.52.36,1.1.36,1.53a.48.48,0,0,1-.52.54c-.32,0-.61-.29-.85-.66a8.27,8.27,0,0,1-1-4,16.08,16.08,0,0,1,.86-4.75,10,10,0,0,0,.45-2.09,2.9,2.9,0,0,0-1-1.89l.28-.23a3.84,3.84,0,0,1,.92.54,3,3,0,0,1,1.17,1.89c0,.41-.25.74-.68,1.82a10.59,10.59,0,0,0-1.15,4.41,2.87,2.87,0,0,0,.28,1.55c.11.21.24.25.4,0,.4-.63,1.4-2.88,1.8-3.8Zm1.8,1.55a7.22,7.22,0,0,0,.52,1.57c.62,1.06,1.57,1.69,3.79,1.69a17.08,17.08,0,0,0,3.06-.33c.48,0,1,.17,1,.58,0,.72-1.67.94-3.62.94-2.81,0-4.34-.94-4.88-2.78a5.78,5.78,0,0,1-.23-1.6Zm.2-5.64a9.23,9.23,0,0,1,4.3-1.11,6.07,6.07,0,0,1,2.51.37c.37.17.54.42.54.64s-.11.39-.49.44a5.26,5.26,0,0,0-1.48.35,29,29,0,0,0-3,1.64l-.3-.33c.81-.57,2.08-1.51,2.46-1.83.22-.2.2-.33-1-.33a11.19,11.19,0,0,0-3.42.6Z"/><path class="cls-1" d="M208.25,437.8c0,.83.07,3.21.18,4.63,0,.16,0,.32,0,.47a10.72,10.72,0,0,1,2.6.83c1.11.5,2.64,1.44,2.64,2.37a.47.47,0,0,1-.52.53c-.54,0-1.12-1-2.84-2a7.57,7.57,0,0,0-1.75-.72c0,.23,0,.48,0,.79,0,1.51-1.14,2.52-3.33,2.52-1.88,0-3.19-.81-3.19-2.09,0-1.67,2.09-2.43,4.25-2.43.41,0,.81,0,1.17.05-.06-1.36-.22-3.85-.22-5.07s0-3.17-.07-3.53a.63.63,0,0,0-.49-.65,5.55,5.55,0,0,0-1.26-.18l0-.38a4.14,4.14,0,0,1,1.33-.27c.94,0,2.05.6,2.05,1s-.21.56-.36,1.1a13.07,13.07,0,0,0-.23,2.16,5.17,5.17,0,0,0,.52,0,9.94,9.94,0,0,0,2.32-.36,6.91,6.91,0,0,1,1.14-.4c.7,0,1,.23,1,.63,0,.22-.2.43-.66.58a12.86,12.86,0,0,1-3.17.48,3.33,3.33,0,0,1-1.21-.34Zm-.67,5.87a10.76,10.76,0,0,0-1.74-.14c-1.73,0-3,.65-3,1.51,0,.63.66,1.14,2,1.14C207.08,446.18,207.57,445.38,207.58,443.67Z"/><path class="cls-1" d="M219.46,433.27c.24.52.47,1.06.94,1.06a24.43,24.43,0,0,0,3.8-.81c.39-.13.45-.31.7-.31.54,0,1.53.76,1.53,1.24s-.41.36-1.05.92c-.91.76-3.31,3.08-4.12,4-.12.11,0,.25.09.18a9,9,0,0,1,3.1-.63,4,4,0,0,1,4.28,4c0,2.25-2,4.1-5.45,4.1-2,0-3.39-.81-3.39-2.11a1.83,1.83,0,0,1,2-1.69,2.92,2.92,0,0,1,2.93,2.59,3.36,3.36,0,0,0,2.74-3.16,3.12,3.12,0,0,0-3.37-3.17c-2.59,0-4.41,1.62-5.92,3.56-.27.34-.41.45-.68.43s-.49-.27-.47-.72.18-.57.59-1c2.83-2.95,6.09-6,6.85-7.25.16-.27,0-.35-.17-.31a29.63,29.63,0,0,0-2.91,1c-.35.14-.6.42-.89.42a1.88,1.88,0,0,1-1.49-1.3,2.47,2.47,0,0,1,0-1ZM223.78,446a2.21,2.21,0,0,0-2.14-2.1,1,1,0,0,0-1.12.95c0,.63.78,1.19,2.52,1.19C223.3,446.05,223.55,446,223.78,446Z"/><path class="cls-1" d="M234.2,433.77a9.45,9.45,0,0,1-2.79,2.47l-.21-.24a11.63,11.63,0,0,0,3-4.55l1.6.7c-.07.18-.29.31-.66.25-.17.29-.33.56-.51.83h3l.75-.92s.83.65,1.36,1.17a.43.43,0,0,1-.47.29H235.9c1.73,1.12.73,2.56-.11,1.8a4.22,4.22,0,0,0-.63-1.8Zm13.33,3.31c-.11.15-.33.17-.67.18a9.54,9.54,0,0,1-1.8,1.66l-.23-.13a18.28,18.28,0,0,0,.72-1.72H233.86a3.1,3.1,0,0,1-.75,2.28c-.38.36-1,.45-1.25.07s0-.73.36-1a3.54,3.54,0,0,0,1.08-2.84h.33a7.62,7.62,0,0,1,.2,1h5v-1q-.27.17-.54.3l-.23-.23a11.87,11.87,0,0,0,3-4.16l1.6.74c-.09.18-.32.3-.7.23a7.93,7.93,0,0,1-.6.83H245l.81-1s.92.7,1.52,1.26a.45.45,0,0,1-.49.29H243c1.83,1,.91,2.58,0,1.86a4.35,4.35,0,0,0-.9-1.86h-1.25a10.38,10.38,0,0,1-1.35,1.24l1.07.11c0,.22-.18.38-.58.45v1h5.49l.7-.75Zm-3.19,5.66,1.41,1a1.3,1.3,0,0,1-.71.33v3.36a1.5,1.5,0,0,1-1,.38h-.2v-1H236v.59a1.07,1.07,0,0,1-1,.41h-.18v-9.83l1.33.56h6.65l.61-.65,1.37,1a1,1,0,0,1-.65.32V442c0,.13-.61.38-1,.38H243v-.63h-7v1.62h7.71ZM236,439.17v2.09h7v-2.09Zm7.87,7.19v-2.43H236v2.43Z"/><path class="cls-1" d="M255.39,442.75c-1.35.71-3.19,1.73-5.55,2.92a.65.65,0,0,1-.37.45l-.58-1.47c.52-.13,1.42-.44,2.54-.8v-5.11H249.3l-.12-.5h2.25v-4.38h-2.18l-.12-.5H253l.83-1.07a19.14,19.14,0,0,1,1.53,1.3c0,.2-.22.27-.47.27h-2.34v4.38h.51l.72-1.05s.84.76,1.33,1.26c0,.2-.2.29-.45.29h-2.11v4.72l2.7-1Zm9,2.9s1,.8,1.58,1.37c-.05.18-.21.27-.46.27H253.82l-.14-.5h5.74v-3.17h-3.81l-.15-.54h4v-2.76h-2.73v.74c0,.15-.47.4-1,.4h-.19v-9.29l1.24.57h6.53L264,432l1.44,1.12a1.49,1.49,0,0,1-.77.36v7.18a1.45,1.45,0,0,1-1,.44h-.18v-.8h-2.91v2.76h2.3l.85-1.06s.93.75,1.49,1.31c0,.2-.21.29-.47.29h-4.17v3.17h3Zm-7.74-12.38v3h2.73v-3Zm2.73,6.53v-3h-2.73v3Zm1.16-6.53v3h2.91v-3Zm2.91,6.53v-3h-2.91v3Z"/><path class="cls-1" d="M276.81,431.93c-.07.22-.29.31-.74.36a17.43,17.43,0,0,0,7.66,5.14l0,.27a1.56,1.56,0,0,0-1.15,1.08,14.89,14.89,0,0,1-6.81-6.29,20.59,20.59,0,0,1-8.57,6.59l-.12-.27c3-1.6,6.59-5,7.52-7.42Zm4.32,7.78s1,.78,1.7,1.37c-.06.2-.24.27-.51.27h-7.56A34.65,34.65,0,0,1,272,446c2.12-.13,4.77-.33,7.56-.51a19,19,0,0,0-2.36-2.61l.22-.14c5.8,2.59,5,6.07,3.4,5a7.19,7.19,0,0,0-1-1.89c-2.48.42-5.74.9-10.23,1.5a.64.64,0,0,1-.46.37l-.74-1.58c.7,0,1.71-.05,2.91-.13a36.49,36.49,0,0,0,1.86-4.66h-5l-.15-.5h12.26Zm-3-3.22s1,.77,1.65,1.35c-.05.2-.23.29-.48.29H271l-.14-.54h6.35Z"/><path class="cls-1" d="M292.11,435.46a1.4,1.4,0,0,1-.81.2,14.79,14.79,0,0,1-2,2.95c3.47,1.05,2.79,3.24,1.64,2.58a6.59,6.59,0,0,0-1.71-2.16v8.51c0,.11-.4.42-1,.42h-.18v-8a17.37,17.37,0,0,1-3.13,2.45l-.22-.2a19.55,19.55,0,0,0,5.26-6.7h-4.68l-.14-.5h2.88v-3.42l1.78.2c0,.25-.22.43-.65.48V435h.85l.79-.76Zm8.09,10s1,.78,1.54,1.34c0,.19-.21.28-.45.28H290.76l-.14-.52h4.79v-8.32h-3.59l-.14-.52h3.73v-6.16l1.85.22c0,.27-.2.45-.63.5v5.44h2.2l.83-1.08s.95.76,1.54,1.32c-.05.19-.21.28-.46.28h-4.11v8.32h2.72Z"/><line class="cls-4" y1="98.81" x2="350" y2="98.81"/><line class="cls-4" y1="205.81" x2="350" y2="205.81"/><path class="cls-1" d="M3.48,130.48H10v.75H4.26v13H3.48Z"/><path class="cls-1" d="M30.65,133.16a1.89,1.89,0,0,1-.92.4v15.62a1.74,1.74,0,0,1-1.23.55h-.21V148H18.42v1.31c0,.22-.51.57-1.17.57H17V132l1.52.74h9.54l.83-.93Zm-12.23.14v6.57h9.87V133.3Zm9.87,14v-6.84H18.42v6.84Z"/><path class="cls-1" d="M47.79,136.21a20.18,20.18,0,0,0,8.77,8.54l0,.21a1.74,1.74,0,0,0-1.4,1.17,20.11,20.11,0,0,1-7.82-9.92v8.69h1.93l1-1.34s1.12.93,1.84,1.61c-.06.24-.28.34-.57.34H47.3v4c0,.21-.59.52-1.14.52h-.28v-4.49H41.41l-.17-.61h4.64v-7.46A21.7,21.7,0,0,1,37,146.32l-.21-.32a23.68,23.68,0,0,0,7.95-9.79H37.23l-.19-.64h8.84v-5l2.2.25c-.06.32-.23.53-.78.62v4.13h5.85l1.1-1.38s1.23,1,2,1.68c0,.23-.25.34-.55.34Z"/><path class="cls-1" d="M64.44,137.54c3.67,1.91,2.44,4.39,1.21,3.37a7.85,7.85,0,0,0-1.21-2.82v11.36c0,.22-.57.51-1.06.51h-.27v-9.79a17.17,17.17,0,0,1-2.78,4.88l-.29-.28a24.26,24.26,0,0,0,2.77-8.58H60.44l-.15-.64h2.82v-4.94l2.1.23c-.07.32-.24.51-.77.6v4.11H65l.89-1.17s1,.85,1.64,1.47a.48.48,0,0,1-.53.34H64.44ZM75,134.91a9.69,9.69,0,0,0,4.71,2.46v.24a1.35,1.35,0,0,0-1,1.08,8.59,8.59,0,0,1-2.35-1.44l-.15,0V140c0,.15-.68.43-1.11.43h-.21v-.6H70.8v.45a1.57,1.57,0,0,1-1.08.38h-.19V137.1A14.07,14.07,0,0,1,66.65,139l-.19-.32a12.09,12.09,0,0,0,3.64-3.73H67l-.17-.63h3.66a11,11,0,0,0,.68-1.59c-1.29.1-2.6.17-3.88.17l-.08-.43a44.32,44.32,0,0,0,9.13-1.78l1.42,1.4c-.19.17-.57.15-1,0-1.09.19-2.44.38-3.9.53a12.2,12.2,0,0,1-.85,1.74h4.91l.94-1.15s1.08.83,1.76,1.45c0,.23-.26.33-.55.33Zm2.9,5.66,1.76,1.34a1.51,1.51,0,0,1-.89.38v5.83c0,1-.21,1.65-1.93,1.84a1.25,1.25,0,0,0-.36-.91,2.86,2.86,0,0,0-1.42-.47v-.33s1.59.1,2,.1.42-.1.42-.36v-5.93H68.43v7.44c0,.14-.55.46-1.1.46h-.19v-9.22l1.42.68h8.73Zm-2.35,6.53c0,.15-.59.47-1,.47h-.17v-.85h-3.1v.85a1.36,1.36,0,0,1-1,.38h-.16v-5.22l1.25.58h2.84l.65-.7,1.42,1.12a1.27,1.27,0,0,1-.72.32Zm-4-12.19a10.86,10.86,0,0,1-1.2,1.42l.57.26h3.83l.49-.49a7.64,7.64,0,0,1-.78-1.19Zm3.35,4.33v-2H70.8v2Zm-.48,6.84v-2.16h-3.1v2.16Z"/><path class="cls-1" d="M89.77,150.11H83.28v-.74H89v-13h.79Z"/><path class="cls-1" d="M96.84,144.89c.87,4.15-1.61,3.71-.89,2.6a4.36,4.36,0,0,0,.65-2.6Zm5.84-1.41a.85.85,0,0,1-.57.22c-.14,2.88-.52,4.37-1.11,4.87a1.85,1.85,0,0,1-1.3.42.77.77,0,0,0-.19-.59,2.17,2.17,0,0,0-.92-.31v-.25c.44,0,1.13.09,1.39.09a.69.69,0,0,0,.48-.13c.37-.33.66-1.68.81-4.2H97.6v.47a.81.81,0,0,1-.72.31h-.13V136.7l1,.44h3.1l.64-.76s.72.54,1.17,1a.35.35,0,0,1-.38.24H99.85v1.55h1l.54-.72s.67.53,1,.91c0,.16-.18.23-.37.23H99.85v1.58h1l.55-.7s.66.51,1.06.9a.34.34,0,0,1-.37.24H99.85v1.61h1.28l.52-.54Zm-5,1.26c1.4,1.87.51,3.44-.09,2.71a6.82,6.82,0,0,0-.13-2.65Zm-.1-7.16v1.55H99v-1.55Zm1.41,2H97.6v1.58H99Zm-1.41,3.63H99v-1.61H97.6Zm1,1.31c1.87,1.43,1.13,2.9.48,2.25a5.3,5.3,0,0,0-.67-2.16Zm.92-.32c2,.72,1.42,2.19.73,1.65a3.12,3.12,0,0,0-.9-1.53Zm6-1.94c.62,2.72,2,5.22,4.07,6.24l0,.16a1.08,1.08,0,0,0-.82.85c-2-1.45-3-3.94-3.51-7.25h-.92c-.06,2.48-.42,5.3-2.6,7.26l-.22-.14c1.7-2.2,1.9-5,1.9-7.78V136.7l1.1.47h3.2l.51-.57,1.15.89a1,1,0,0,1-.59.28v5a1.3,1.3,0,0,1-.79.31h-.14v-.82Zm-1.21-.44h3.52v-4.2h-3.52v4.2Z"/><path class="cls-2" d="M120.43,149.08l7.18-24.63a36.46,36.46,0,0,1-7.42,4.2l-.09-1.26q7-3.24,10.45-7.39H132l-8.52,29.08Z"/><path class="cls-2" d="M131.73,149.33a1.46,1.46,0,0,1,.19-.8,2.06,2.06,0,0,1,.87-.37,16.21,16.21,0,0,0,6.09-3.38,28.34,28.34,0,0,0,5.36-5.66,39.21,39.21,0,0,0,4-7.49,20,20,0,0,0,1.85-6.85,4.07,4.07,0,0,0-.81-2.72,2.43,2.43,0,0,0-1.91-.94,6.43,6.43,0,0,0-3.72,1.49,11.86,11.86,0,0,0-3.46,4.58,13,13,0,0,0-1.45,5.4,2.81,2.81,0,0,0,.68,1.93,2,2,0,0,0,1.5.76,4.66,4.66,0,0,0,1.29-.21,5.14,5.14,0,0,0,1.36-.64.23.23,0,0,1,.21.11,1,1,0,0,1,.13.58,1.07,1.07,0,0,1-.63.88,5.91,5.91,0,0,1-3.17.79,4.16,4.16,0,0,1-2.1-.58,3.9,3.9,0,0,1-1.61-1.8,6.2,6.2,0,0,1-.58-2.67,11.62,11.62,0,0,1,4-8.53c2.31-2.19,4.62-3.28,6.95-3.28a5.32,5.32,0,0,1,4.13,1.69,7.34,7.34,0,0,1,1.56,5.11,16,16,0,0,1-.43,3.73,24.16,24.16,0,0,1-2.58,6.21,25.36,25.36,0,0,1-4.57,5.74,33.66,33.66,0,0,1-4.7,3.73,22.2,22.2,0,0,1-5.53,2.81c-1,.27-1.53.43-1.66.49a1.92,1.92,0,0,1-.59.18A1.41,1.41,0,0,1,131.73,149.33Z"/><path class="cls-1" d="M158.63,136.69c-.06.16-.19.25-.55.2a13.07,13.07,0,0,1-5.36,5.78l-.13-.19a13.88,13.88,0,0,0,4.56-6.36Zm4.25,4.56,1.13.93a.9.9,0,0,1-.58.22c-.19,3.22-.62,5.75-1.32,6.42a2.41,2.41,0,0,1-1.73.57.76.76,0,0,0-.32-.7,5.8,5.8,0,0,0-1.66-.44V148c.75.07,2.05.19,2.41.19a.73.73,0,0,0,.6-.19c.51-.42.87-2.79,1-5.71h-3.57c-.25,2.42-1,5.16-5.53,7.19l-.19-.24c4-2.18,4.54-4.79,4.67-7h-3.07l-.13-.44h7.7Zm-2-5.18a11.39,11.39,0,0,0,5.34,5.34l-.05.16a1.08,1.08,0,0,0-.9.76,12,12,0,0,1-4.64-6.11Z"/><path class="cls-1" d="M3.48,167.24H10V168H4.26v13H3.48Z"/><path class="cls-1" d="M24.41,179.62a17.76,17.76,0,0,0,8.86,5.13l0,.23A1.61,1.61,0,0,0,32,186.17a15.83,15.83,0,0,1-8-6.45v6.51c0,.19-.59.53-1.15.53h-.27v-6a21.83,21.83,0,0,1-8.75,5.57l-.19-.36a21.47,21.47,0,0,0,8-6.33H18.14v.76c0,.13-.61.44-1.17.44h-.21v-8.49l1.51.69h4.28V170.8H14.2l-.17-.61h8.52v-2.87l2.16.26c-.06.3-.23.51-.74.59v2h5.49l1.12-1.4s1.25,1,2.06,1.67c-.07.23-.3.34-.6.34H24V173h4.28l.81-.86,1.71,1.33a1.51,1.51,0,0,1-.89.4v6.34a1.89,1.89,0,0,1-1.21.47h-.21v-1.08Zm-6.27-6V176h4.41v-2.33Zm0,5.34h4.41v-2.39H18.14ZM24,173.64V176h4.49v-2.33ZM28.46,179v-2.39H24V179Z"/><path class="cls-1" d="M67.16,181.48c-.17.21-.34.28-.81.17a19.2,19.2,0,0,1-6,4.16l-.23-.3a20.09,20.09,0,0,0,5.23-5Zm10.3-12.61s1.27,1,2.07,1.68c-.06.23-.29.33-.59.33H60.59l-.19-.61h8.75v-3l2.18.24c0,.29-.25.51-.76.57v2.14h5.74Zm-6.87,9.62v6.28c0,1.1-.32,1.84-2.42,2a1.24,1.24,0,0,0-.5-1,4.93,4.93,0,0,0-2.1-.53V185s2.54.19,3.05.19.55-.13.55-.43v-6.23H65.25v.77a1.64,1.64,0,0,1-1.19.46h-.21v-7.14l1.53.68H74.3l.76-.89,1.78,1.35a2,2,0,0,1-.93.43v4.92a1.84,1.84,0,0,1-1.21.46h-.21v-1Zm3.9-.61v-4H65.25v4Zm-1.61,2.84c6.91,2.37,6.4,5.83,4.66,5a20.49,20.49,0,0,0-4.87-4.77Z"/><path class="cls-1" d="M89.77,186.87H83.28v-.75H89v-13h.79Z"/><path class="cls-1" d="M96.84,181.64c.87,4.15-1.61,3.71-.89,2.6a4.34,4.34,0,0,0,.65-2.6Zm5.84-1.4a1,1,0,0,1-.57.22c-.14,2.88-.52,4.37-1.11,4.87a1.9,1.9,0,0,1-1.3.42.79.79,0,0,0-.19-.6,2.49,2.49,0,0,0-.92-.31v-.25c.44,0,1.13.09,1.39.09a.69.69,0,0,0,.48-.13c.37-.32.66-1.68.81-4.2H97.6v.47c0,.08-.28.31-.72.31h-.13v-7.67l1,.43h3.1l.64-.76s.72.54,1.17,1a.35.35,0,0,1-.38.23H99.85v1.55h1l.54-.71s.67.52,1,.9c0,.16-.18.24-.37.24H99.85v1.57h1l.55-.7a13.77,13.77,0,0,1,1.06.91.34.34,0,0,1-.37.23H99.85v1.61h1.28l.52-.54Zm-5,1.26c1.4,1.87.51,3.43-.09,2.7a6.83,6.83,0,0,0-.13-2.65Zm-.1-7.17v1.55H99v-1.55Zm1.41,2H97.6v1.57H99Zm-1.41,3.62H99v-1.61H97.6Zm1,1.32c1.87,1.43,1.13,2.89.48,2.25a5.34,5.34,0,0,0-.67-2.17Zm.92-.32c2,.71,1.42,2.19.73,1.65a3.2,3.2,0,0,0-.9-1.54Zm6-2c.62,2.72,2,5.22,4.07,6.24l0,.16a1.11,1.11,0,0,0-.82.85c-2-1.45-3-3.93-3.51-7.25h-.92c-.06,2.49-.42,5.31-2.6,7.27l-.22-.15c1.7-2.19,1.9-5,1.9-7.78v-4.86l1.1.46h3.2l.51-.57,1.15.89a.91.91,0,0,1-.59.28v5a1.3,1.3,0,0,1-.79.31h-.14V179Zm-1.21-.44h3.52v-4.19h-3.52v4.19Z"/><path class="cls-2" d="M131,183l-.74,2.84H114.22l.12-.61q9.16-8.65,12.26-11.89a28.05,28.05,0,0,0,5-6.5,8,8,0,0,0,.77-3.57,4.72,4.72,0,0,0-1.07-3.36,3.9,3.9,0,0,0-3-1.14,6,6,0,0,0-3.69,1.16,11.11,11.11,0,0,0-3,4.24h-1.22a11.78,11.78,0,0,1,3.53-5.61,7.79,7.79,0,0,1,5-1.83,7,7,0,0,1,5,1.75,6.06,6.06,0,0,1,1.82,4.56,8,8,0,0,1-.49,2.86,11.69,11.69,0,0,1-2.21,3.43q-1.58,1.78-6.88,6.48l-8,7.19Z"/><path class="cls-2" d="M142,185.84l7.17-24.64a35.66,35.66,0,0,1-7.41,4.2l-.09-1.25q7-3.24,10.45-7.4h1.48l-8.51,29.09Z"/><path class="cls-1" d="M163.23,173.44c0,.16-.19.25-.55.21a13,13,0,0,1-5.35,5.77l-.13-.19a13.83,13.83,0,0,0,4.56-6.36Zm4.26,4.56,1.12.94a1,1,0,0,1-.58.22c-.19,3.21-.61,5.74-1.32,6.41a2.3,2.3,0,0,1-1.72.57.77.77,0,0,0-.32-.7A6.24,6.24,0,0,0,163,185v-.24c.75.07,2.05.19,2.42.19a.78.78,0,0,0,.6-.19c.51-.43.86-2.8,1-5.72h-3.57c-.25,2.43-1,5.16-5.52,7.19l-.19-.23c3.94-2.18,4.53-4.8,4.66-7h-3.07l-.13-.44h7.7Zm-2-5.17a11.45,11.45,0,0,0,5.34,5.33l0,.16a1.09,1.09,0,0,0-.91.76,12,12,0,0,1-4.63-6.11Z"/><path class="cls-1" d="M182.25,130.48h6.49v.75H183v13h-.79Z"/><path class="cls-1" d="M202.79,137.46c.76,4,3,8.28,9.3,11.17l0,.23a1.47,1.47,0,0,0-1.47,1.17c-5.89-3.25-7.58-8.31-8.2-12.55-.59,4.94-2.54,9.32-9.81,12.52l-.23-.38c6.18-3.3,8-7.44,8.56-12.16h-8.16l-.19-.62H201c.17-2,.17-4.05.17-6.21l2.27.24c-.06.31-.23.53-.72.61,0,1.82-.06,3.62-.23,5.36h6.1l1.17-1.46s1.29,1,2.07,1.74c0,.23-.23.34-.55.34Z"/><path class="cls-1" d="M233.37,140.64s1.25.93,2,1.61a.52.52,0,0,1-.55.34h-8.59v5.19c0,1.14-.32,2-2.63,2.18a1.31,1.31,0,0,0-.61-1,5.9,5.9,0,0,0-2.37-.61V148s2.94.24,3.54.24.61-.17.61-.56v-5.1h-9.11l-.19-.6h9.3v-4.15h-7.71l-.17-.62h7.88V133.3a79,79,0,0,1-7.91.55l-.08-.42a64.6,64.6,0,0,0,14.69-2.82l1.63,1.53c-.19.19-.57.19-1.14,0-1.62.38-3.59.72-5.73,1v4.11h4.88l1.06-1.31s1.18.93,1.93,1.59c-.05.23-.26.34-.55.34h-7.32V142h6.06Z"/><path class="cls-1" d="M247.84,131.54l1.65,1.32a1.64,1.64,0,0,1-.91.42v13.33a1.66,1.66,0,0,1-1.1.49h-.19v-1.57H241.2v1.7c0,.17-.46.49-1.06.49h-.25v-16l1.42.7h5.76ZM241.2,133v5.53h2.34V133Zm0,11.87h2.34v-5.73H241.2ZM244.79,133v5.53h2.5V133Zm2.5,11.87v-5.73h-2.5v5.73Zm9.6-13.48a21.48,21.48,0,0,1,1.9,1.61.5.5,0,0,1-.55.34h-3.13v14.39c0,1.12-.26,2-2.29,2.14a1.37,1.37,0,0,0-.49-1,4.45,4.45,0,0,0-2-.57V148s2.39.17,2.86.17.55-.13.55-.47V133.37h-4.07l-.15-.64h6.34Z"/><path class="cls-1" d="M268.54,150.11h-6.48v-.74h5.7v-13h.78Z"/><path class="cls-1" d="M275.61,144.89c.88,4.15-1.61,3.71-.89,2.6a4.35,4.35,0,0,0,.66-2.6Zm5.85-1.41a.87.87,0,0,1-.57.22c-.15,2.88-.53,4.37-1.11,4.87a1.89,1.89,0,0,1-1.3.42.81.81,0,0,0-.19-.59,2.28,2.28,0,0,0-.93-.31v-.25c.44,0,1.13.09,1.39.09a.72.72,0,0,0,.49-.13c.36-.33.65-1.68.8-4.2h-3.67v.47a.81.81,0,0,1-.72.31h-.13V136.7l1,.44h3.1l.64-.76s.72.54,1.17,1c0,.16-.17.24-.38.24h-2.47v1.55h1l.54-.72s.67.53,1.05.91c0,.16-.17.23-.36.23h-2.24v1.58h.95l.56-.7a13.74,13.74,0,0,1,1.05.9c0,.17-.18.24-.37.24h-2.19v1.61h1.29l.51-.54Zm-5,1.26c1.41,1.87.51,3.44-.09,2.71a6.63,6.63,0,0,0-.13-2.65Zm-.1-7.16v1.55h1.42v-1.55Zm1.42,2h-1.42v1.58h1.42Zm-1.42,3.63h1.42v-1.61h-1.42Zm1,1.31c1.88,1.43,1.13,2.9.49,2.25a5.45,5.45,0,0,0-.67-2.16Zm.93-.32c2,.72,1.41,2.19.73,1.65a3.14,3.14,0,0,0-.91-1.53Zm6-1.94c.61,2.72,2,5.22,4.06,6.24l0,.16a1.11,1.11,0,0,0-.82.85c-2-1.45-3-3.94-3.5-7.25h-.92c-.06,2.48-.43,5.3-2.61,7.26l-.22-.14c1.7-2.2,1.9-5,1.9-7.78V136.7l1.1.47h3.2l.51-.57,1.16.89a1,1,0,0,1-.6.28v5a1.3,1.3,0,0,1-.79.31h-.13v-.82Zm-1.21-.44h3.52v-4.2h-3.52v4.2Z"/><path class="cls-2" d="M309.78,146.25l-.74,2.83H293l.13-.6q9.15-8.65,12.26-11.9a28.63,28.63,0,0,0,5-6.49,8,8,0,0,0,.76-3.58,4.71,4.71,0,0,0-1.07-3.36,3.94,3.94,0,0,0-3-1.13,5.84,5.84,0,0,0-3.68,1.16,11.26,11.26,0,0,0-3,4.23H299.2a11.8,11.8,0,0,1,3.52-5.61,7.83,7.83,0,0,1,5-1.83,6.94,6.94,0,0,1,5,1.76,6,6,0,0,1,1.82,4.56,7.71,7.71,0,0,1-.49,2.85,11.72,11.72,0,0,1-2.2,3.43q-1.57,1.78-6.88,6.49l-8,7.19Z"/><path class="cls-2" d="M316.21,139.6a23.76,23.76,0,0,1,2.07-9.35q2.49-5.85,5.46-8.09a9.74,9.74,0,0,1,5.85-2.23,4.79,4.79,0,0,1,4,1.89q1.91,2.49,1.91,7.73a25.93,25.93,0,0,1-3.13,12,18.75,18.75,0,0,1-5.05,6.18,7.63,7.63,0,0,1-4.68,1.84,5,5,0,0,1-4.14-2.09A12.63,12.63,0,0,1,316.21,139.6Zm3,3c0,2.29.3,3.85.92,4.67a2.87,2.87,0,0,0,2.4,1.22,4.79,4.79,0,0,0,3.71-1.87q2.44-2.73,4.81-10.72a37.79,37.79,0,0,0,1.91-10,6.27,6.27,0,0,0-1.12-4,2.7,2.7,0,0,0-2.27-1,5.65,5.65,0,0,0-4.23,2.27q-2.54,2.86-4.52,9.92A36.23,36.23,0,0,0,319.16,142.63Z"/><path class="cls-1" d="M342,136.69c-.06.16-.19.25-.56.2a13.1,13.1,0,0,1-5.35,5.78l-.13-.19a13.88,13.88,0,0,0,4.56-6.36Zm4.25,4.56,1.13.93a.93.93,0,0,1-.59.22c-.19,3.22-.61,5.75-1.31,6.42a2.43,2.43,0,0,1-1.73.57.76.76,0,0,0-.32-.7,5.79,5.79,0,0,0-1.67-.44l0-.25c.74.07,2,.19,2.41.19a.73.73,0,0,0,.6-.19c.51-.42.86-2.79,1-5.71h-3.56c-.25,2.42-1,5.16-5.53,7.19l-.19-.24c3.95-2.18,4.53-4.79,4.66-7h-3.07l-.13-.44h7.71Zm-2-5.18a11.41,11.41,0,0,0,5.33,5.34l0,.16a1.09,1.09,0,0,0-.91.76,12.07,12.07,0,0,1-4.63-6.11Z"/><path class="cls-1" d="M182.25,167.24h6.49V168H183v13h-.79Z"/><path class="cls-1" d="M192.51,172.43c4.53.51,3.75,3.58,2.2,2.78a6.15,6.15,0,0,0-2.4-2.59Zm6.86-1.35c-1.1,2.67-3.22,7.73-3.58,8.73a6.49,6.49,0,0,0-.38,1.84c0,.93.59,1.91.55,3.63,0,.91-.47,1.46-1.19,1.46-.4,0-.61-.4-.68-1.08.28-2.19.15-3.8-.31-4.11a2.05,2.05,0,0,0-1.11-.32v-.47h1c.28,0,.34,0,.57-.42.43-.77.43-.77,4.75-9.39Zm-5.11-3.44c4.69.74,3.78,3.92,2.19,3a6.71,6.71,0,0,0-2.36-2.82Zm17.91,4.11a1.27,1.27,0,0,1-.93.28c-2.37,7.95-6.21,12.23-13.94,14.73l-.22-.36c6.62-2.88,10.35-6.91,12.51-14.63H203a27.56,27.56,0,0,1-1.74,2.82c5.81,1.61,5,5.24,3.29,4.26a11.16,11.16,0,0,0-3.52-3.94,18.19,18.19,0,0,1-3.33,3.46l-.23-.24A26.49,26.49,0,0,0,203,167.39l2.33.68c-.09.25-.28.38-.81.33-.31.85-.72,1.79-1.18,2.74h6.25l.85-.91Z"/><path class="cls-1" d="M244.93,170.57c4.43,2.5,3.25,5.51,1.89,4.38a5.09,5.09,0,0,0-.42-1.35c-1.49.8-3.46,1.86-6,3.09a.69.69,0,0,1-.4.53l-1-1.65c.49-.13,1.21-.34,2.08-.64v-6.55l1.74.77a34.28,34.28,0,0,0,3.81-1.8l1.59,1.35c-.19.19-.55.19-1,0a39.31,39.31,0,0,1-4.77,1.1v4.67c1.15-.38,2.44-.85,3.78-1.32a13,13,0,0,0-1.55-2.46Zm9.78,6.44,1.71,1.31a1.79,1.79,0,0,1-.91.43v7.44c0,.15-.72.46-1.17.46h-.21v-1.21H243.41v.87c0,.15-.6.47-1.15.47H242v-9.62l1.48.7h10.41Zm-11.3,1.46v2.82h4.66v-2.82Zm0,6.34h4.66v-2.88h-4.66Zm14.69-15.49a1.52,1.52,0,0,1-.83.31c-.21,3.63-.7,5.73-1.55,6.43a3.13,3.13,0,0,1-2,.61,1.12,1.12,0,0,0-.34-.95,4.08,4.08,0,0,0-1.63-.47l0-.38c.72.06,1.95.17,2.37.17s.56,0,.7-.19c.47-.43.87-2.33,1.08-5.39h-3.26c-.25,2.95-1.06,5.75-5.83,7.7l-.27-.3c3.94-2.14,4.47-4.77,4.62-7.4H248.5l-.2-.63h7.46l.77-.81Zm-8.65,9.15v2.82h4.68v-2.82Zm4.68,6.34v-2.88h-4.68v2.88Z"/><path class="cls-1" d="M268.54,186.87h-6.48v-.75h5.7v-13h.78Z"/><path class="cls-1" d="M275.61,181.64c.88,4.15-1.61,3.71-.89,2.6a4.33,4.33,0,0,0,.66-2.6Zm5.85-1.4a1,1,0,0,1-.57.22c-.15,2.88-.53,4.37-1.11,4.87a1.94,1.94,0,0,1-1.3.42.83.83,0,0,0-.19-.6,2.63,2.63,0,0,0-.93-.31v-.25c.44,0,1.13.09,1.39.09a.72.72,0,0,0,.49-.13c.36-.32.65-1.68.8-4.2h-3.67v.47c0,.08-.28.31-.72.31h-.13v-7.67l1,.43h3.1l.64-.76s.72.54,1.17,1c0,.16-.17.23-.38.23h-2.47v1.55h1l.54-.71s.67.52,1.05.9c0,.16-.17.24-.36.24h-2.24v1.57h.95l.56-.7a12.51,12.51,0,0,1,1.05.91c0,.16-.18.23-.37.23h-2.19v1.61h1.29l.51-.54Zm-5,1.26c1.41,1.87.51,3.43-.09,2.7a6.64,6.64,0,0,0-.13-2.65Zm-.1-7.17v1.55h1.42v-1.55Zm1.42,2h-1.42v1.57h1.42Zm-1.42,3.62h1.42v-1.61h-1.42Zm1,1.32c1.88,1.43,1.13,2.89.49,2.25a5.5,5.5,0,0,0-.67-2.17Zm.93-.32c2,.71,1.41,2.19.73,1.65a3.22,3.22,0,0,0-.91-1.54Zm6-2c.61,2.72,2,5.22,4.06,6.24l0,.16a1.14,1.14,0,0,0-.82.85c-2-1.45-3-3.93-3.5-7.25h-.92c-.06,2.49-.43,5.31-2.61,7.27l-.22-.15c1.7-2.19,1.9-5,1.9-7.78v-4.86l1.1.46h3.2l.51-.57,1.16.89a.91.91,0,0,1-.6.28v5a1.3,1.3,0,0,1-.79.31h-.13V179Zm-1.21-.44h3.52v-4.19h-3.52v4.19Z"/><path class="cls-2" d="M309.78,183l-.74,2.84H293l.13-.61q9.15-8.65,12.26-11.89a28.64,28.64,0,0,0,5-6.5,8,8,0,0,0,.76-3.57,4.68,4.68,0,0,0-1.07-3.36,3.9,3.9,0,0,0-3-1.14,5.9,5.9,0,0,0-3.68,1.16,11.22,11.22,0,0,0-3,4.24H299.2a11.7,11.7,0,0,1,3.52-5.61,7.83,7.83,0,0,1,5-1.83,6.94,6.94,0,0,1,5,1.75,6,6,0,0,1,1.82,4.56,7.76,7.76,0,0,1-.49,2.86,11.85,11.85,0,0,1-2.2,3.43q-1.57,1.78-6.88,6.48L297,183Z"/><path class="cls-2" d="M329.52,183l-.74,2.84h-16l.12-.61q9.16-8.65,12.26-11.89a28.05,28.05,0,0,0,5-6.5,8,8,0,0,0,.77-3.57,4.72,4.72,0,0,0-1.07-3.36,3.9,3.9,0,0,0-3-1.14,6,6,0,0,0-3.69,1.16,11.11,11.11,0,0,0-3,4.24h-1.22a11.78,11.78,0,0,1,3.53-5.61,7.8,7.8,0,0,1,5-1.83,7,7,0,0,1,5,1.75,6.06,6.06,0,0,1,1.82,4.56,7.76,7.76,0,0,1-.49,2.86,11.69,11.69,0,0,1-2.21,3.43q-1.58,1.78-6.88,6.48l-8,7.19Z"/><path class="cls-1" d="M340.17,173.44c-.06.16-.19.25-.56.21a13,13,0,0,1-5.35,5.77l-.13-.19a13.83,13.83,0,0,0,4.56-6.36Zm4.25,4.56,1.12.94a1,1,0,0,1-.58.22c-.19,3.21-.61,5.74-1.32,6.41a2.3,2.3,0,0,1-1.72.57.77.77,0,0,0-.32-.7,6.24,6.24,0,0,0-1.67-.44l0-.24c.74.07,2,.19,2.41.19a.76.76,0,0,0,.6-.19c.51-.43.86-2.8,1-5.72h-3.57c-.24,2.43-1,5.16-5.52,7.19l-.19-.23c3.95-2.18,4.53-4.8,4.66-7h-3.07l-.13-.44h7.7Zm-2-5.17a11.39,11.39,0,0,0,5.33,5.33l0,.16a1.09,1.09,0,0,0-.91.76A12,12,0,0,1,342.2,173Z"/></g></g></svg>