<svg xmlns="http://www.w3.org/2000/svg" viewBox="0 0 965.26 364.8"><defs><style>.cls-1{fill:#fff;}.cls-2{fill:#a6e8e6;}.cls-3,.cls-4{fill:none;stroke:#fff;stroke-miterlimit:10;}.cls-3{stroke-width:2px;}.cls-5{fill:#c29a62;}</style></defs><g id="レイヤー_2" data-name="レイヤー 2"><g id="wire"><path class="cls-1" d="M.35,46.94H16.88v1.89H2.35V82h-2Z"/><path class="cls-1" d="M45,61.3c-.27.54-.76.76-2.06.49a62.33,62.33,0,0,1-4.75,5.88l1.68.6c-.11.48-.65.86-1.57,1V95.48c0,.33-1.57,1.19-2.92,1.19h-.59V71.18a62.51,62.51,0,0,1-8.59,7.13l-.64-.65A77.55,77.55,0,0,0,39.88,58.6Zm-.6-11.23c-.32.54-.81.76-2,.49A63.88,63.88,0,0,1,27.14,63l-.6-.7a68.83,68.83,0,0,0,13-15ZM71.58,61.41s2.91,2.21,4.64,3.89c-.11.59-.65.86-1.35.86h-9V91c0,2.91-.87,5-6.64,5.51a3.2,3.2,0,0,0-1.52-2.6c-1-.64-2.86-1.13-6-1.56v-.81s7.56.54,9.07.54c1.19,0,1.51-.32,1.51-1.19V66.16H44.69l-.44-1.56H69ZM47.66,53.8l-.44-1.62h19.5L69.26,49s2.86,2.22,4.59,3.89c-.11.6-.65.87-1.41.87Z"/><path class="cls-1" d="M101.55,60.49c-.33.6-.81.87-2.11.7a69.7,69.7,0,0,1-3.78,6.21l2,.76a2,2,0,0,1-1.62,1v26.3a3.76,3.76,0,0,1-2.81,1.24h-.65V71.51a51.4,51.4,0,0,1-7,7.18L85,78C89.83,72.43,94.15,64,96.2,58.17Zm-.22-10.58c-.32.54-.81.75-2,.48A58.09,58.09,0,0,1,85.83,62.87l-.54-.65a61,61,0,0,0,11.13-15ZM105.17,82c.91,5.13-.76,8.7-2.38,10.32-1.08,1-3,1.4-3.73.22-.54-1,.06-2.11,1-2.87a11.43,11.43,0,0,0,4.1-7.72Zm.59-6.58v2c0,.27-1.08,1.08-2.7,1.08h-.49V60.71l3.84,1.67h8.91V56.5H101l-.43-1.62h14.74V47.75l5.45.54c-.11.75-.65,1.29-2,1.51v5.08H128l2.54-3.19s3,2.27,4.75,3.94c-.16.6-.59.87-1.35.87H118.77v5.88h10.16l1.62-1.94,3.83,2.86a3.28,3.28,0,0,1-2,.86V76.8a3.62,3.62,0,0,1-2.75,1h-.54V75.4Zm0-11.45v9.88h5.51V64ZM125.9,92.3c1.08.32,1.35.76,1.35,1.4,0,1.46-1.51,2.11-8.8,2.11h-5c-3.78,0-4.48-.81-4.48-3.24V80.2l4.86.6c-.06.59-.6,1.08-1.52,1.24v9.83c0,.7.22.86,1.79.86h4.42c2.06,0,3.62,0,4.16,0s.76-.16,1-.54A35.22,35.22,0,0,0,125,86.47h.7ZM112.89,77c11.45,2.1,9.61,9.66,6,7.66-.86-2.53-3.94-5.56-6.48-7.18Zm7.18-3.19V64h-5.83v9.88ZM123,64v9.88h6V64ZM126,80.58c12.74,6,9.77,15,6.1,12-.49-3.94-3.78-8.74-6.7-11.61Z"/><path class="cls-1" d="M160.84,96.94H144.32V95.05h14.52V61.84h2Z"/><path class="cls-1" d="M16,13.92c2.23,2.71,6.34,4.9,10,5.81L26,20a1.85,1.85,0,0,0-1.42,1.35A18,18,0,0,1,15.46,14v7.37c0,.22-.67.6-1.3.6h-.31V15.19a24.65,24.65,0,0,1-9.91,6.32l-.22-.41a24.24,24.24,0,0,0,9-7.18H8.86v.87c0,.14-.7.5-1.32.5H7.3V5.66l1.7.8h4.85V3.94H4.39l-.19-.7h9.65V0L16.3.29c-.07.33-.27.57-.84.67V3.24h6.21L23,1.66s1.41,1.12,2.32,1.89c-.07.27-.33.39-.67.39H15.46V6.46h4.85l.91-1L23.16,7a1.76,1.76,0,0,1-1,.46v7.18a2.15,2.15,0,0,1-1.36.53h-.24V13.92ZM8.86,7.15V9.79h5V7.15Zm0,6h5V10.49h-5Zm6.6-6V9.79h5.09V7.15Zm5.09,6V10.49H15.46V13.2Z"/><path class="cls-1" d="M35.57,16c-.19.24-.38.32-.91.2a22,22,0,0,1-6.84,4.7l-.27-.34a22.56,22.56,0,0,0,5.93-5.71ZM47.23,1.75s1.44,1.11,2.36,1.9c-.08.26-.34.38-.68.38H28.13l-.22-.69h9.92V0L40.3.26c0,.34-.29.58-.87.65V3.34h6.51Zm-7.77,10.9v7.1c0,1.25-.36,2.09-2.74,2.31A1.42,1.42,0,0,0,36.15,21a6,6,0,0,0-2.38-.6V20s2.88.22,3.46.22.62-.15.62-.48V12.65H33.41v.86c0,.15-.7.53-1.35.53h-.24V6l1.73.77H43.66l.86-1,2,1.54a2.23,2.23,0,0,1-1.06.48V13.3c0,.17-.81.53-1.37.53h-.24V12.65Zm4.41-.7V7.39H33.41V12Zm-1.82,3.22c7.82,2.69,7.25,6.6,5.28,5.64-1-1.7-3.65-4-5.52-5.4Z"/><path class="cls-1" d="M63.55,2.35a4.78,4.78,0,0,1,1.88.39c.84.43,1.68,1.32,1.68,1.94,0,.46-.56.53-1,1.27s-1.83,3.22-3.32,5.24c1.78,1.34,4,3.48,4,4.72,0,.56-.27,1-.82,1-1,0-1.1-1.59-4.22-4.37A27.41,27.41,0,0,1,51,20.45L50.71,20a34.35,34.35,0,0,0,10-8.4,41.13,41.13,0,0,0-5.62-3.82l.34-.55a34.47,34.47,0,0,1,6.19,3.14c1.58-2.3,3.17-5.25,3.17-6.07,0-.65-.53-1-1.39-1.49Z"/><path class="cls-1" d="M73.59,2.23a7.59,7.59,0,0,1,1.53-.29c1,0,2.64.92,2.64,1.47s-.43.57-.53,1.37C77.11,5.93,77.07,7.68,77,9A20.67,20.67,0,0,1,83,11.21,2.38,2.38,0,0,1,84.31,13a.77.77,0,0,1-.76.82c-.8,0-1.06-.82-2.5-1.93a18.89,18.89,0,0,0-4-2.06C77,11.5,77,15.43,77,18c0,1.05.07,1.77.07,2.18,0,.63-.24.91-.77.91-.79,0-1.2-1.32-1.2-2.13,0-.53.22-1,.31-1.87.2-1.78.2-5.72.2-7.54s0-4.54-.15-5.74c-.07-.77-.6-.91-1.87-1Z"/><path class="cls-1" d="M101.28,5.66c.84-.07.94-.6,1.39-.6s2.26,1.35,2.26,1.92-.74.72-.89,1.37c-.21,1.06-.74,4.3-1.22,6.92.86.07,1.46.4,1.46.86a.62.62,0,0,1-.69.7c-.53,0-1.8-.15-2.91-.15-1.87,0-5.11.17-8,.34,0,.31,0,.6,0,1,0,.6-.21.89-.72.89s-1-.65-1-1.64c0-.48.07-2,.07-3a39.57,39.57,0,0,0-.67-6.65,3.72,3.72,0,0,0-1.3-2l.34-.41A5.8,5.8,0,0,1,92,6.41C94.42,6.31,100.35,5.78,101.28,5.66Zm0,9.61a79.89,79.89,0,0,0,1-8.14c0-.19-.07-.27-.28-.27-1.54,0-5.57.32-6.89.46-.79.07-1.47.31-1.9.31a2.48,2.48,0,0,1-1-.31c.07,1.46.29,5.83.39,8.5C95.23,15.65,99.07,15.36,101.31,15.27Z"/><path class="cls-1" d="M120.94,13.92c2.23,2.71,6.33,4.9,10,5.81l-.05.26a1.83,1.83,0,0,0-1.41,1.35,18,18,0,0,1-9.08-7.3v7.37c0,.22-.67.6-1.29.6h-.31V15.19a24.68,24.68,0,0,1-9.92,6.32l-.21-.41a24.24,24.24,0,0,0,9-7.18h-3.92v.87c0,.14-.69.5-1.32.5h-.24V5.66l1.71.8h4.85V3.94h-9.46l-.19-.7h9.65V0l2.44.29c-.07.33-.26.57-.84.67V3.24h6.22l1.27-1.58s1.42,1.12,2.33,1.89c-.07.27-.33.39-.67.39h-9.15V6.46h4.85l.91-1L128.14,7a1.79,1.79,0,0,1-1,.46v7.18a2.19,2.19,0,0,1-1.37.53h-.24V13.92Zm-7.11-6.77V9.79h5V7.15Zm0,6h5V10.49h-5Zm6.6-6V9.79h5.09V7.15Zm5.09,6V10.49h-5.09V13.2Z"/><path class="cls-1" d="M146.43,6.74h5.06l.82-1,1.82,1.44a1.69,1.69,0,0,1-1,.43V21.29a1.72,1.72,0,0,1-1.32.5h-.24v-2.3h-15.7v1.87a1.45,1.45,0,0,1-1.27.51h-.24V6l1.8.76h4.15v-4H133L132.84,2h18.31L152.4.5s1.37,1.06,2.21,1.83c-.05.26-.29.38-.62.38h-7.56Zm0,.7v5.31c0,.35.07.43.52.43H148a9.31,9.31,0,0,0,1.06,0,.38.38,0,0,0,.33-.21A26.18,26.18,0,0,0,150,10h.31l.08,3c.43.15.57.34.57.65,0,.63-.62.94-3,.94h-1.4c-1.41,0-1.68-.43-1.68-1.49V7.44h-3.07c-.09,3.14-.86,6.55-5.54,8.76l-.29-.33c3.55-2.43,4.25-5.38,4.32-8.43h-4.44V18.82h15.7V7.44Zm-1.52-.7v-4h-3.07v4Z"/><path class="cls-1" d="M162.7.89c-.12.26-.41.43-.91.41A33.54,33.54,0,0,1,159.15,5c1.72,1.42.79,3.1-.36,2.28A7.34,7.34,0,0,0,156.6,4.1l.24-.19a7.15,7.15,0,0,1,1.78.75c.55-1.3,1.2-3.1,1.7-4.66Zm-6,19a26.62,26.62,0,0,0,1.41-6.24l2.17.53a.79.79,0,0,1-.84.53A17.42,17.42,0,0,1,157,20ZM162.7,8c4.17,2.38,2.71,5.36,1.34,4.13a5.82,5.82,0,0,0-.31-1.32l-1.68.34V21.51a1.52,1.52,0,0,1-1.27.48h-.22V11.4c-.77.14-1.63.29-2.54.43a.9.9,0,0,1-.63.51l-.67-1.83c.53,0,1.3,0,2.23,0a82.32,82.32,0,0,0,4.11-7.68l2.23,1a.91.91,0,0,1-1,.33,65.94,65.94,0,0,1-4.7,6.29l3.91-.17a14,14,0,0,0-1.15-2.13Zm.43,5.4c3.72,2.72,2.16,5.62.86,4.32a11,11,0,0,0-1.17-4.2Zm7.75.24c-.19.22-.41.27-.93.29a11.22,11.22,0,0,1-5.62,6.87l-.22-.36a11.38,11.38,0,0,0,4.3-6.63h-3.14l-.22-.7h3.29l.91-.88Zm8-1c-.1.2-.43.36-.89.2a27.26,27.26,0,0,1-3.31,2.3A11.41,11.41,0,0,0,179.21,19l-.05.29a1.82,1.82,0,0,0-1.27,1.37c-2.76-2-4.61-4.63-5.47-9.84v8.81c0,1.22-.27,2.09-2.28,2.33a1.61,1.61,0,0,0-.43-1.13,3.83,3.83,0,0,0-1.9-.6V19.9s2.21.17,2.66.17.48-.12.48-.46V10.27h-2.88v.65c0,.14-.5.46-1.27.46h-.21V2l1.75.76H170c.19-.81.43-2,.6-2.78l2.5.5a.79.79,0,0,1-.87.53c-.38.51-.93,1.18-1.39,1.75h4.59l.76-.93,1.71,1.34a1.5,1.5,0,0,1-.89.39v7.15a1.57,1.57,0,0,1-1.27.46h-.24v-.92h-2.88a13.81,13.81,0,0,0,1.73,4.52,26.32,26.32,0,0,0,2.54-3.51ZM168.07,3.46V6.17h7.47V3.46Zm7.47,6.12V6.86h-7.47V9.58Z"/><path class="cls-1" d="M172.75,88.21c1.92,9.09-3.52,8.13-1.95,5.7.89-1.06,1.41-3.11,1.44-5.7Zm12.8-3.07a2.07,2.07,0,0,1-1.25.48c-.32,6.3-1.15,9.57-2.43,10.65a4.11,4.11,0,0,1-2.85.93,1.76,1.76,0,0,0-.42-1.31,5.12,5.12,0,0,0-2-.67v-.55c1,.07,2.46.2,3,.2a1.48,1.48,0,0,0,1.05-.29c.8-.71,1.44-3.68,1.76-9.19h-8v1a1.71,1.71,0,0,1-1.56.67h-.29V70.29l2.27,1h6.78L183,69.59s1.57,1.18,2.56,2.11c-.1.35-.38.51-.83.51h-5.41V75.6h2.21L182.73,74s1.47,1.15,2.31,2c-.07.35-.39.51-.8.51h-4.9V80h2.08l1.22-1.54a29.47,29.47,0,0,1,2.3,2,.73.73,0,0,1-.8.51h-4.8v3.52h2.82l1.12-1.19Zm-10.91,2.75c3.07,4.1,1.12,7.52-.19,5.92a15.14,15.14,0,0,0-.29-5.79Zm-.23-15.68V75.6h3.11V72.21Zm3.11,4.32h-3.11V80h3.11Zm-3.11,7.94h3.11V81h-3.11Zm2.11,2.88c4.1,3.13,2.47,6.33,1.06,4.92a11.73,11.73,0,0,0-1.47-4.73Zm2-.71c4.48,1.57,3.1,4.8,1.6,3.62a7,7,0,0,0-2-3.36Zm13.18-4.25c1.35,6,4.29,11.42,8.9,13.66l-.06.35a2.42,2.42,0,0,0-1.8,1.86c-4.44-3.17-6.59-8.61-7.68-15.87h-2c-.13,5.44-.93,11.61-5.7,15.9l-.48-.32c3.71-4.8,4.16-10.91,4.16-17V70.29l2.4,1h7l1.12-1.25,2.53,2a2.11,2.11,0,0,1-1.31.61V83.51a2.88,2.88,0,0,1-1.73.67h-.29V82.39Zm-2.65-1h7.71V72.24h-7.71v9.19Z"/><path class="cls-1" d="M218.16,80.24c0,1.47.12,5.7.32,8.23,0,.28.06.57.09.83a19,19,0,0,1,4.61,1.47c2,.9,4.7,2.56,4.7,4.22a.84.84,0,0,1-.92.93c-1,0-2-1.82-5.06-3.55a13.64,13.64,0,0,0-3.1-1.28c0,.42.06.86.06,1.41,0,2.69-2,4.48-5.92,4.48-3.33,0-5.66-1.44-5.66-3.71,0-3,3.71-4.32,7.55-4.32.73,0,1.44,0,2.08.09-.1-2.43-.39-6.85-.39-9s-.06-5.63-.12-6.27a1.12,1.12,0,0,0-.87-1.15,9.38,9.38,0,0,0-2.24-.32l-.06-.68a7.46,7.46,0,0,1,2.37-.48c1.66,0,3.64,1.06,3.64,1.83s-.38,1-.64,2a24.88,24.88,0,0,0-.41,3.84c.35,0,.7,0,.93,0a17.62,17.62,0,0,0,4.12-.64,11.89,11.89,0,0,1,2-.7c1.25,0,1.86.41,1.86,1.12,0,.38-.36.76-1.19,1a22.56,22.56,0,0,1-5.63.87,5.8,5.8,0,0,1-2.14-.61ZM217,90.67a19.27,19.27,0,0,0-3.1-.25c-3.07,0-5.31,1.15-5.31,2.69,0,1.12,1.18,2,3.58,2C216.08,95.12,216.94,93.71,217,90.67Z"/><path class="cls-1" d="M238.77,70.29l.41-.41a5.17,5.17,0,0,1,3.65,3.64,7.54,7.54,0,0,1-.42,1.89,25.4,25.4,0,0,0-.73,3.23c-.13.67.12.71.48.07,1.5-2.66,3.74-4.58,5.82-4.58,3.84,0,5.6,4.13,5.6,9.82,0,6.63-2.94,12-11.52,14.21l-.35-.73c7.74-3.11,9.63-8,9.63-13.7,0-5.21-1.44-8.32-3.68-8.32-1.5,0-3.52,1.44-4.64,3.59a12.89,12.89,0,0,0-1.66,6.11c0,1.28.19,2.2.19,3.26a.91.91,0,0,1-.9,1,1.14,1.14,0,0,1-1.12-.8,8.89,8.89,0,0,1-.48-3c0-3.46,1.54-9.63,1.54-11.36S240.11,71.83,238.77,70.29Z"/><path class="cls-1" d="M272.72,76.88c-.19.36-.51.48-1.28.36A39.79,39.79,0,0,1,268.69,81l.89.35a1.21,1.21,0,0,1-1,.58V97.55a2.18,2.18,0,0,1-1.66.74h-.39V83.35a39.34,39.34,0,0,1-4.16,3.84L262,86.8a49.5,49.5,0,0,0,7.62-11.42Zm-.67-6.27c-.2.32-.52.45-1.22.29a32.38,32.38,0,0,1-8.22,6.66l-.36-.42A33.69,33.69,0,0,0,269.13,69ZM282.67,94.8a20.13,20.13,0,0,0,5.12.55c1,0,3.26,0,4.51,0v.45c-.74.13-1.09.83-1.12,1.7h-3.62c-6.17,0-9.72-1.79-11.77-8.64-1,3.52-2.62,7-5.6,9.41l-.35-.36c3.2-3.68,4.41-9.69,4.64-14.72l3.32.61c-.09.45-.44.71-1.15.74-.16,1-.35,2.17-.61,3.29,1.09,3.17,2.56,5.09,4.58,6.21V81l3.07.32c-.06.41-.32.73-1,.83v4.51h4l1.47-1.86s1.66,1.35,2.72,2.28c-.1.35-.42.51-.86.51h-7.33Zm-9.41-20.92H280V69.17l3.14.32c-.06.42-.35.71-1.06.83v3.56h4.23l1.47-1.83s1.66,1.28,2.72,2.27c-.1.36-.38.52-.83.52h-7.59v5h5.6l1.48-1.85s1.69,1.31,2.75,2.3c-.1.36-.39.51-.83.51H271.89l-.26-1H280v-5h-6.52Z"/><path class="cls-1" d="M324,77.11s1.83,1.41,2.95,2.43c-.1.35-.39.51-.87.51H297.93l-.25-1h6.14V71.38l3.07.32c-.06.42-.35.7-1.05.83v6.56h5.44V69l3.26.35c-.06.45-.38.77-1.15.86v3.62h5.5l1.57-2s1.76,1.41,2.88,2.37c-.06.35-.42.51-.86.51h-9.09v4.38h9ZM308.46,83c-.16.29-.45.45-1.18.32a27.09,27.09,0,0,1-9.22,7.49l-.29-.42a28,28,0,0,0,7.75-8.95Zm-9.53,14.69c8.25-1.63,14.71-4,19.9-11.33L321.68,88c-.2.32-.55.38-1.35.22-5.79,6.94-12.38,9-21.28,10.05Zm7.87-8.83s3.16.22,3.8.22.68-.16.68-.61V80.21l3.16.35c-.09.45-.38.64-1.05.77v7.23c0,1.67-.39,2.69-3.3,3a2,2,0,0,0-.7-1.47,5,5,0,0,0-2.59-.77Zm10.56-6.94c9.92,2.59,9.34,8,6.75,6.81-1.19-2.24-4.55-5-7-6.46Z"/><path class="cls-1" d="M396.5,69.68c-.13.36-.42.55-1.24.45a29.13,29.13,0,0,1-12,12.93l-.29-.42A31.16,31.16,0,0,0,393.2,68.4ZM406,79.89,408.55,82a2.12,2.12,0,0,1-1.31.49c-.43,7.2-1.38,12.87-2.95,14.37a5.28,5.28,0,0,1-3.86,1.28,1.73,1.73,0,0,0-.72-1.57,13.12,13.12,0,0,0-3.73-1l0-.55c1.67.16,4.59.42,5.4.42a1.67,1.67,0,0,0,1.35-.42c1.14-1,1.93-6.25,2.29-12.8h-8c-.56,5.43-2.29,11.55-12.37,16.1l-.43-.52c8.84-4.88,10.15-10.73,10.44-15.58h-6.87l-.29-1h17.24ZM401.61,68.3c2.06,5.07,7.23,9.66,11.95,12l-.1.36a2.39,2.39,0,0,0-2,1.7,27,27,0,0,1-10.38-13.68Z"/><path class="cls-1" d="M491.57,23.41h8.87v1h-7.8V42.27h-1.07Z"/><path class="cls-1" d="M528.75,27.07a2.47,2.47,0,0,1-1.25.55V49a2.41,2.41,0,0,1-1.68.75h-.29V47.31H512v1.8c0,.29-.7.78-1.6.78h-.32V25.41l2.09,1h13.06l1.13-1.28Zm-16.74.2v9h13.52v-9Zm13.52,19.2V37.1H512v9.37Z"/><path class="cls-1" d="M552.2,31.24a27.56,27.56,0,0,0,12,11.69l-.05.29a2.37,2.37,0,0,0-1.92,1.6,27.48,27.48,0,0,1-10.7-13.58v11.9h2.64l1.36-1.83s1.54,1.27,2.52,2.2c-.08.32-.37.47-.78.47h-5.74V49.4c0,.29-.81.73-1.57.73h-.38V44h-6.12l-.23-.84h6.35V32.93a29.66,29.66,0,0,1-12.12,12.15l-.29-.44a32.35,32.35,0,0,0,10.88-13.4h-10.3l-.26-.87h12.09V23.53l3,.35c-.09.43-.32.72-1.07.84v5.65h8l1.51-1.88s1.68,1.3,2.7,2.29c-.06.32-.35.46-.75.46Z"/><path class="cls-1" d="M575,33.07c5,2.61,3.33,6,1.65,4.61A11,11,0,0,0,575,33.82V49.37c0,.29-.79.7-1.45.7h-.38V36.67a23.48,23.48,0,0,1-3.8,6.67L569,43a33,33,0,0,0,3.8-11.75h-3.25l-.2-.87h3.86V23.58l2.87.32c-.09.44-.32.7-1,.82v5.62h.72l1.22-1.59s1.39,1.16,2.23,2c-.08.32-.32.46-.72.46H575Zm14.5-3.6a13.22,13.22,0,0,0,6.44,3.37v.32a1.85,1.85,0,0,0-1.42,1.48,11.9,11.9,0,0,1-3.22-2l-.2.06v3.74c0,.21-.93.58-1.51.58h-.29v-.81h-5.6v.61c0,.15-.78.52-1.48.52H582v-4.9A18.82,18.82,0,0,1,578,35l-.26-.43a16.63,16.63,0,0,0,5-5.11h-4.26l-.23-.87h5a15.24,15.24,0,0,0,.93-2.17c-1.77.14-3.57.23-5.31.23l-.11-.58a62.3,62.3,0,0,0,12.5-2.44l1.94,1.92c-.26.23-.78.2-1.42-.06-1.48.26-3.33.52-5.34.72a14.57,14.57,0,0,1-1.16,2.38H592L593.3,27s1.48,1.13,2.41,2c-.06.32-.35.46-.76.46Zm4,7.75,2.41,1.83a2.21,2.21,0,0,1-1.22.52v8c0,1.4-.29,2.27-2.64,2.53a1.73,1.73,0,0,0-.49-1.25,4,4,0,0,0-1.94-.64v-.46s2.17.14,2.7.14.58-.14.58-.49V39.25H580.45V49.43c0,.2-.75.64-1.51.64h-.26V37.45l1.94.93h12Zm-3.22,8.93c0,.21-.81.64-1.39.64h-.23V45.63H584.4v1.16c0,.15-.7.52-1.37.52h-.23V40.18l1.71.78h3.89l.9-1,1.94,1.54a1.86,1.86,0,0,1-1,.44Zm-5.54-16.68a14.55,14.55,0,0,1-1.65,2l.78.35h5.25l.67-.67a11.46,11.46,0,0,1-1.07-1.63Zm4.59,5.92V32.61h-5.6v2.78Zm-.67,9.37v-3H584.4v3Z"/><path class="cls-1" d="M609.65,50.27h-8.87v-1h7.8V31.42h1.07Z"/><path class="cls-1" d="M619.33,43.12c1.2,5.68-2.2,5.08-1.22,3.56a5.92,5.92,0,0,0,.9-3.56Zm8-1.92a1.24,1.24,0,0,1-.78.3c-.2,3.94-.72,6-1.52,6.66a2.58,2.58,0,0,1-1.78.58,1.1,1.1,0,0,0-.26-.82,3.27,3.27,0,0,0-1.26-.42v-.34c.6,0,1.54.12,1.9.12a.93.93,0,0,0,.66-.18c.5-.44.9-2.3,1.1-5.74h-5V42a1.08,1.08,0,0,1-1,.42h-.18V31.92l1.42.6h4.24l.88-1s1,.74,1.6,1.32c-.06.22-.24.32-.52.32h-3.38v2.12h1.38l.74-1s.92.72,1.44,1.24c0,.22-.24.32-.5.32h-3.06V38h1.3l.76-1s.9.7,1.44,1.24a.45.45,0,0,1-.5.32h-3v2.2h1.76l.7-.74Zm-6.82,1.72c1.92,2.56.7,4.7-.12,3.7a9.41,9.41,0,0,0-.18-3.62Zm-.14-9.8v2.12h1.94V33.12Zm1.94,2.7h-1.94V38h1.94Zm-1.94,5h1.94v-2.2h-1.94Zm1.32,1.8c2.56,2,1.54,4,.66,3.08a7.32,7.32,0,0,0-.92-3Zm1.26-.44c2.8,1,1.94,3,1,2.26a4.36,4.36,0,0,0-1.24-2.1Zm8.24-2.66c.84,3.72,2.68,7.14,5.56,8.54l0,.22a1.51,1.51,0,0,0-1.12,1.16c-2.78-2-4.12-5.38-4.8-9.92h-1.26c-.08,3.4-.58,7.26-3.56,9.94l-.3-.2c2.32-3,2.6-6.82,2.6-10.64V31.92l1.5.64h4.38l.7-.78L636.43,33a1.31,1.31,0,0,1-.82.38v6.8a1.77,1.77,0,0,1-1.08.42h-.18V39.48Zm-1.66-.6h4.82V33.14h-4.82v5.74Z"/><path class="cls-2" d="M651.62,48.86l9.81-33.71a48.81,48.81,0,0,1-10.15,5.75l-.12-1.72q9.54-4.42,14.3-10.12h2l-11.65,39.8Z"/><path class="cls-2" d="M667.08,49.2a1.92,1.92,0,0,1,.26-1.09,2.8,2.8,0,0,1,1.19-.51A22.18,22.18,0,0,0,676.86,43a38.78,38.78,0,0,0,7.34-7.75A53,53,0,0,0,689.61,25c1.7-4.1,2.54-7.22,2.54-9.37A5.55,5.55,0,0,0,691,11.89a3.34,3.34,0,0,0-2.61-1.29,8.76,8.76,0,0,0-5.09,2,16.08,16.08,0,0,0-4.74,6.26,17.91,17.91,0,0,0-2,7.39,3.79,3.79,0,0,0,.92,2.64A2.71,2.71,0,0,0,679.6,30a7.16,7.16,0,0,0,3.63-1.17.31.31,0,0,1,.28.15,1.48,1.48,0,0,1,.18.8,1.45,1.45,0,0,1-.86,1.2A8,8,0,0,1,678.49,32a5.73,5.73,0,0,1-2.87-.79,5.25,5.25,0,0,1-2.2-2.47,8.33,8.33,0,0,1-.8-3.65q0-6.39,5.51-11.68Q682.86,9,687.63,9a7.28,7.28,0,0,1,5.66,2.32c1.42,1.54,2.12,3.87,2.12,7a21.48,21.48,0,0,1-.58,5.1,33.24,33.24,0,0,1-3.52,8.5,35.19,35.19,0,0,1-6.26,7.86,46.82,46.82,0,0,1-6.43,5.1,30.24,30.24,0,0,1-7.57,3.84c-1.33.37-2.09.59-2.28.68a2.61,2.61,0,0,1-.8.24A1.83,1.83,0,0,1,667.08,49.2Z"/><path class="cls-1" d="M703.89,31.9c-.08.22-.26.34-.76.28a17.82,17.82,0,0,1-7.32,7.9l-.18-.26a19,19,0,0,0,6.24-8.7Zm5.82,6.24,1.54,1.28a1.31,1.31,0,0,1-.8.3c-.26,4.4-.84,7.86-1.8,8.78a3.25,3.25,0,0,1-2.36.78,1.06,1.06,0,0,0-.44-1,8,8,0,0,0-2.28-.6l0-.34c1,.1,2.8.26,3.3.26a1,1,0,0,0,.82-.26c.7-.58,1.18-3.82,1.4-7.82h-4.88c-.34,3.32-1.4,7.06-7.56,9.84l-.26-.32c5.4-3,6.2-6.56,6.38-9.52h-4.2l-.18-.6H709ZM707,31.06a15.57,15.57,0,0,0,7.3,7.3l-.06.22a1.48,1.48,0,0,0-1.24,1,16.47,16.47,0,0,1-6.34-8.36Z"/><path class="cls-1" d="M491.57,73.71h8.87v1h-7.8V92.56h-1.07Z"/><path class="cls-1" d="M520.22,90.65c2.7,3.28,7.66,5.92,12.12,7l-.06.32a2.2,2.2,0,0,0-1.71,1.62,21.62,21.62,0,0,1-11-8.82V99.7c0,.26-.81.72-1.57.72h-.38V92.19a29.77,29.77,0,0,1-12,7.62l-.27-.49a29.45,29.45,0,0,0,10.94-8.67h-4.73v1c0,.18-.84.61-1.59.61h-.29V80.67l2.06,1h5.85v-3H506.24l-.24-.84h11.66V73.82l3,.35c-.08.41-.32.7-1,.81v2.76h7.51l1.54-1.91s1.71,1.36,2.81,2.29c-.08.32-.4.46-.81.46h-11v3h5.86l1.1-1.19,2.35,1.83a2.2,2.2,0,0,1-1.22.55v8.67a2.65,2.65,0,0,1-1.65.64h-.29V90.65Zm-8.59-8.18v3.19h6V82.47Zm0,7.31h6V86.5h-6Zm8-7.31v3.19h6.15V82.47Zm6.15,7.31V86.5h-6.15v3.28Z"/><path class="cls-1" d="M578.71,93.2c-.23.29-.46.38-1.1.23a26.25,26.25,0,0,1-8.27,5.69l-.32-.41a27.44,27.44,0,0,0,7.17-6.9Zm14.1-17.26s1.74,1.34,2.84,2.29a.75.75,0,0,1-.81.47H569.72l-.26-.84h12v-4l3,.32c0,.41-.34.7-1,.79v2.93h7.86Zm-9.4,13.17V97.7c0,1.51-.44,2.52-3.31,2.78a1.7,1.7,0,0,0-.69-1.33,7.15,7.15,0,0,0-2.88-.73V98s3.48.26,4.18.26.76-.17.76-.58V89.11H576.1v1c0,.17-.84.63-1.63.63h-.29V81l2.09.93h12.22l1-1.22L592,82.58a2.63,2.63,0,0,1-1.28.59v6.72c0,.21-1,.64-1.65.64h-.29V89.11Zm5.34-.84V82.76H576.1v5.51Zm-2.21,3.89c9.46,3.25,8.76,8,6.38,6.81-1.19-2.06-4.41-4.87-6.67-6.52Z"/><path class="cls-1" d="M609.65,100.57h-8.87v-1h7.8V81.71h1.07Z"/><path class="cls-1" d="M619.33,93.42c1.2,5.68-2.2,5.08-1.22,3.56a5.92,5.92,0,0,0,.9-3.56Zm8-1.92a1.24,1.24,0,0,1-.78.3c-.2,3.94-.72,6-1.52,6.66a2.58,2.58,0,0,1-1.78.58,1.1,1.1,0,0,0-.26-.82,3.27,3.27,0,0,0-1.26-.42v-.34c.6,0,1.54.12,1.9.12a.93.93,0,0,0,.66-.18c.5-.44.9-2.3,1.1-5.74h-5v.64a1.08,1.08,0,0,1-1,.42h-.18V82.22l1.42.6h4.24l.88-1s1,.74,1.6,1.32c-.06.22-.24.32-.52.32h-3.38v2.12h1.38l.74-1s.92.72,1.44,1.24c0,.22-.24.32-.5.32h-3.06v2.16h1.3l.76-1s.9.7,1.44,1.24a.45.45,0,0,1-.5.32h-3v2.2h1.76l.7-.74Zm-6.82,1.72c1.92,2.56.7,4.7-.12,3.7a9.41,9.41,0,0,0-.18-3.62Zm-.14-9.8v2.12h1.94V83.42Zm1.94,2.7h-1.94v2.16h1.94Zm-1.94,5h1.94v-2.2h-1.94Zm1.32,1.8c2.56,2,1.54,4,.66,3.08a7.32,7.32,0,0,0-.92-3Zm1.26-.44c2.8,1,1.94,3,1,2.26a4.36,4.36,0,0,0-1.24-2.1Zm8.24-2.66c.84,3.72,2.68,7.14,5.56,8.54l0,.22a1.51,1.51,0,0,0-1.12,1.16c-2.78-2-4.12-5.38-4.8-9.92h-1.26c-.08,3.4-.58,7.26-3.56,9.94l-.3-.2c2.32-3,2.6-6.82,2.6-10.64V82.22l1.5.64h4.38l.7-.78,1.58,1.22a1.31,1.31,0,0,1-.82.38v6.8a1.77,1.77,0,0,1-1.08.42h-.18V89.78Zm-1.66-.6h4.82V83.44h-4.82v5.74Z"/><path class="cls-2" d="M666.09,95.29l-1,3.87h-22l.17-.83q12.54-11.83,16.78-16.27,5.21-5.48,6.83-8.89a10.92,10.92,0,0,0,1.05-4.89,6.45,6.45,0,0,0-1.47-4.6,5.34,5.34,0,0,0-4.1-1.56,8.12,8.12,0,0,0-5,1.59,15.61,15.61,0,0,0-4.06,5.8H651.6a16.11,16.11,0,0,1,4.83-7.68,10.67,10.67,0,0,1,6.86-2.5,9.56,9.56,0,0,1,6.89,2.39A8.3,8.3,0,0,1,672.67,68a10.65,10.65,0,0,1-.67,3.91,16,16,0,0,1-3,4.69,127.39,127.39,0,0,1-9.41,8.87l-11,9.85Z"/><path class="cls-2" d="M681.15,99.16,691,65.45a49.27,49.27,0,0,1-10.15,5.75l-.12-1.72Q690.23,65,695,59.36h2l-11.66,39.8Z"/><path class="cls-1" d="M710.19,82.2c-.08.22-.26.34-.76.28a17.82,17.82,0,0,1-7.32,7.9l-.18-.26a19,19,0,0,0,6.24-8.7ZM716,88.44l1.54,1.28a1.31,1.31,0,0,1-.8.3c-.26,4.4-.84,7.86-1.8,8.78a3.25,3.25,0,0,1-2.36.78,1.06,1.06,0,0,0-.44-1,8,8,0,0,0-2.28-.6l0-.34c1,.1,2.8.26,3.3.26a1,1,0,0,0,.82-.26c.7-.58,1.18-3.82,1.4-7.82h-4.88c-.34,3.32-1.4,7.06-7.56,9.84l-.26-.32c5.4-3,6.2-6.56,6.38-9.52h-4.2l-.18-.6h10.54Zm-2.7-7.08a15.57,15.57,0,0,0,7.3,7.3l-.06.22a1.48,1.48,0,0,0-1.24,1A16.47,16.47,0,0,1,713,81.56Z"/><path class="cls-1" d="M736.22,23.41h8.87v1h-7.8V42.27h-1.07Z"/><path class="cls-1" d="M764.32,33c1,5.49,4.11,11.35,12.73,15.29l-.06.32a2,2,0,0,0-2,1.6c-8.06-4.44-10.38-11.38-11.23-17.18-.81,6.76-3.48,12.77-13.43,17.15L750,49.6c8.47-4.52,11-10.18,11.71-16.65H750.57l-.26-.84h11.51c.23-2.69.23-5.54.23-8.5l3.11.32c-.09.44-.32.73-1,.84-.06,2.5-.09,5-.32,7.34h8.36l1.59-2s1.77,1.39,2.84,2.38c0,.32-.31.46-.75.46Z"/><path class="cls-1" d="M806.17,37.31s1.71,1.27,2.72,2.2a.69.69,0,0,1-.75.46H796.39v7.11c0,1.57-.43,2.73-3.6,3a1.73,1.73,0,0,0-.84-1.39,8,8,0,0,0-3.25-.85V47.4s4,.32,4.85.32c.64,0,.84-.23.84-.76V40H781.92l-.27-.81h12.74V33.48H783.83l-.23-.84h10.79V27.27c-3.48.4-7.22.69-10.82.75l-.12-.58c7.17-.55,15.67-2.23,20.1-3.86l2.24,2.09c-.26.26-.79.26-1.57-.05-2.2.52-4.9,1-7.83,1.39v5.63h6.67l1.45-1.8s1.63,1.27,2.64,2.17c-.06.32-.35.47-.75.47h-10v5.68h8.3Z"/><path class="cls-1" d="M826,24.86l2.26,1.8a2.27,2.27,0,0,1-1.24.58V45.49a2.31,2.31,0,0,1-1.51.66h-.26V44h-8.33v2.32c0,.23-.64.66-1.45.66h-.35V25.06L817,26h7.89Zm-9.08,2v7.57h3.19V26.89Zm0,16.25h3.19V35.3h-3.19Zm4.9-16.25v7.57h3.43V26.89Zm3.43,16.25V35.3h-3.43v7.84Zm13.14-18.45a30.73,30.73,0,0,1,2.61,2.2.7.7,0,0,1-.76.47h-4.29V47.05c0,1.54-.35,2.67-3.13,2.93a1.88,1.88,0,0,0-.67-1.39,5.92,5.92,0,0,0-2.73-.78v-.44s3.28.23,3.92.23.75-.17.75-.64V27.36h-5.57l-.2-.87H837Z"/><path class="cls-1" d="M854.3,50.27h-8.87v-1h7.8V31.42h1.07Z"/><path class="cls-1" d="M864,43.12c1.2,5.68-2.2,5.08-1.22,3.56a5.92,5.92,0,0,0,.9-3.56Zm8-1.92a1.24,1.24,0,0,1-.78.3c-.2,3.94-.72,6-1.52,6.66a2.58,2.58,0,0,1-1.78.58,1.1,1.1,0,0,0-.26-.82,3.27,3.27,0,0,0-1.26-.42v-.34c.6,0,1.54.12,1.9.12a.93.93,0,0,0,.66-.18c.5-.44.9-2.3,1.1-5.74h-5V42a1.08,1.08,0,0,1-1,.42h-.18V31.92l1.42.6h4.24l.88-1s1,.74,1.6,1.32c-.06.22-.24.32-.52.32H868.1v2.12h1.38l.74-1s.92.72,1.44,1.24c0,.22-.24.32-.5.32H868.1V38h1.3l.76-1s.9.7,1.44,1.24a.45.45,0,0,1-.5.32h-3v2.2h1.76l.7-.74Zm-6.82,1.72c1.92,2.56.7,4.7-.12,3.7a9.41,9.41,0,0,0-.18-3.62Zm-.14-9.8v2.12H867V33.12Zm1.94,2.7H865V38H867Zm-1.94,5H867v-2.2H865Zm1.32,1.8c2.56,2,1.54,4,.66,3.08a7.32,7.32,0,0,0-.92-3Zm1.26-.44c2.8,1,1.94,3,1,2.26a4.36,4.36,0,0,0-1.24-2.1Zm8.24-2.66c.84,3.72,2.68,7.14,5.56,8.54l0,.22a1.51,1.51,0,0,0-1.12,1.16c-2.78-2-4.12-5.38-4.8-9.92h-1.26c-.08,3.4-.58,7.26-3.56,9.94l-.3-.2c2.32-3,2.6-6.82,2.6-10.64V31.92l1.5.64h4.38l.7-.78L881.08,33a1.31,1.31,0,0,1-.82.38v6.8a1.77,1.77,0,0,1-1.08.42H879V39.48Zm-1.66-.6H879V33.14h-4.82v5.74Z"/><path class="cls-2" d="M910.74,45l-1,3.87h-22l.17-.83q12.54-11.83,16.78-16.27,5.2-5.48,6.83-8.89A10.89,10.89,0,0,0,912.59,18a6.47,6.47,0,0,0-1.47-4.6,5.33,5.33,0,0,0-4.1-1.55,8.11,8.11,0,0,0-5,1.58,15.5,15.5,0,0,0-4.06,5.8h-1.66a16.16,16.16,0,0,1,4.83-7.68A10.67,10.67,0,0,1,907.94,9a9.52,9.52,0,0,1,6.89,2.4,8.28,8.28,0,0,1,2.49,6.24,10.65,10.65,0,0,1-.67,3.91,15.92,15.92,0,0,1-3,4.69,127.39,127.39,0,0,1-9.41,8.87l-11,9.85Z"/><path class="cls-2" d="M919.54,35.88a32.52,32.52,0,0,1,2.83-12.79q3.4-8,7.47-11.06a13.34,13.34,0,0,1,8-3.06,6.56,6.56,0,0,1,5.48,2.58q2.61,3.42,2.61,10.58a35.54,35.54,0,0,1-4.27,16.49,25.66,25.66,0,0,1-6.93,8.46,10.4,10.4,0,0,1-6.39,2.52,6.78,6.78,0,0,1-5.66-2.86C920.58,44.05,919.54,40.44,919.54,35.88Zm4,4.16q0,4.7,1.26,6.38a3.92,3.92,0,0,0,3.29,1.67,6.6,6.6,0,0,0,5.08-2.55q3.34-3.75,6.58-14.67,2.61-8.84,2.61-13.63a8.65,8.65,0,0,0-1.53-5.51,3.7,3.7,0,0,0-3.11-1.35q-3.07,0-5.78,3.11-3.48,3.9-6.19,13.56A49.48,49.48,0,0,0,923.57,40Z"/><path class="cls-1" d="M954.84,31.9c-.08.22-.26.34-.76.28a17.82,17.82,0,0,1-7.32,7.9l-.18-.26a19,19,0,0,0,6.24-8.7Zm5.82,6.24,1.54,1.28a1.31,1.31,0,0,1-.8.3c-.26,4.4-.84,7.86-1.8,8.78a3.25,3.25,0,0,1-2.36.78,1.06,1.06,0,0,0-.44-1,8,8,0,0,0-2.28-.6l0-.34c1,.1,2.8.26,3.3.26a1,1,0,0,0,.82-.26c.7-.58,1.18-3.82,1.4-7.82h-4.88c-.34,3.32-1.4,7.06-7.56,9.84l-.26-.32c5.4-3,6.2-6.56,6.38-9.52h-4.2l-.18-.6H959.9ZM958,31.06a15.57,15.57,0,0,0,7.3,7.3l-.06.22a1.48,1.48,0,0,0-1.24,1,16.47,16.47,0,0,1-6.34-8.36Z"/><path class="cls-1" d="M736.22,73.71h8.87v1h-7.8V92.56h-1.07Z"/><path class="cls-1" d="M750.25,80.82c6.21.69,5.13,4.9,3,3.8A8.47,8.47,0,0,0,750,81.08Zm9.4-1.86c-1.51,3.65-4.41,10.59-4.91,12a8.92,8.92,0,0,0-.52,2.52c0,1.28.81,2.61.76,5-.06,1.25-.64,2-1.63,2-.55,0-.84-.56-.93-1.48.38-3,.21-5.2-.43-5.63a2.93,2.93,0,0,0-1.51-.44v-.63h1.36c.38,0,.47,0,.79-.58.58-1,.58-1,6.49-12.85Zm-7-4.7c6.41,1,5.16,5.37,3,4.12a9.1,9.1,0,0,0-3.22-3.86Zm24.51,5.63a1.74,1.74,0,0,1-1.28.37c-3.25,10.88-8.5,16.74-19.09,20.16l-.29-.49c9-3.94,14.16-9.46,17.12-20h-9a38.12,38.12,0,0,1-2.37,3.85c7.94,2.21,6.9,7.17,4.49,5.83-.72-1.85-3-4-4.81-5.39a24.61,24.61,0,0,1-4.56,4.73l-.32-.32c3.72-4,6.41-10.12,7.57-14.71l3.2.93c-.12.35-.38.52-1.11.46-.43,1.16-1,2.44-1.62,3.75h8.56l1.16-1.25Z"/><path class="cls-1" d="M822,78.26c6.06,3.43,4.43,7.54,2.58,6a7.33,7.33,0,0,0-.58-1.86c-2,1.1-4.73,2.55-8.18,4.24a1,1,0,0,1-.55.72l-1.37-2.26c.67-.18,1.66-.47,2.85-.87v-9l2.37,1a41.73,41.73,0,0,0,5.23-2.47l2.17,1.86c-.26.26-.75.26-1.42,0a56.27,56.27,0,0,1-6.53,1.51v6.38c1.57-.52,3.34-1.16,5.17-1.8a17.27,17.27,0,0,0-2.12-3.36Zm13.37,8.82,2.35,1.8a2.47,2.47,0,0,1-1.25.58V99.64c0,.2-1,.64-1.59.64h-.3V98.63H819.91v1.18c0,.21-.82.64-1.57.64H818V87.28l2,1h14.24Zm-15.46,2v3.86h6.38V89.08Zm0,8.68h6.38v-4h-6.38ZM840,76.55a2,2,0,0,1-1.13.44c-.29,5-1,7.83-2.12,8.79a4.25,4.25,0,0,1-2.73.84,1.55,1.55,0,0,0-.46-1.31,5.86,5.86,0,0,0-2.23-.64l0-.52c1,.09,2.66.23,3.24.23s.76,0,1-.26c.64-.58,1.19-3.19,1.48-7.37h-4.47c-.34,4-1.45,7.87-8,10.53l-.38-.4c5.4-2.93,6.12-6.53,6.32-10.13h-3.68l-.26-.87h10.21l1-1.1ZM828.17,89.08v3.86h6.41V89.08Zm6.41,8.68v-4h-6.41v4Z"/><path class="cls-1" d="M854.3,100.57h-8.87v-1h7.8V81.71h1.07Z"/><path class="cls-1" d="M864,93.42c1.2,5.68-2.2,5.08-1.22,3.56a5.92,5.92,0,0,0,.9-3.56Zm8-1.92a1.24,1.24,0,0,1-.78.3c-.2,3.94-.72,6-1.52,6.66a2.58,2.58,0,0,1-1.78.58,1.1,1.1,0,0,0-.26-.82,3.27,3.27,0,0,0-1.26-.42v-.34c.6,0,1.54.12,1.9.12a.93.93,0,0,0,.66-.18c.5-.44.9-2.3,1.1-5.74h-5v.64a1.08,1.08,0,0,1-1,.42h-.18V82.22l1.42.6h4.24l.88-1s1,.74,1.6,1.32c-.06.22-.24.32-.52.32H868.1v2.12h1.38l.74-1s.92.72,1.44,1.24c0,.22-.24.32-.5.32H868.1v2.16h1.3l.76-1s.9.7,1.44,1.24a.45.45,0,0,1-.5.32h-3v2.2h1.76l.7-.74Zm-6.82,1.72c1.92,2.56.7,4.7-.12,3.7a9.41,9.41,0,0,0-.18-3.62Zm-.14-9.8v2.12H867V83.42Zm1.94,2.7H865v2.16H867Zm-1.94,5H867v-2.2H865Zm1.32,1.8c2.56,2,1.54,4,.66,3.08a7.32,7.32,0,0,0-.92-3Zm1.26-.44c2.8,1,1.94,3,1,2.26a4.36,4.36,0,0,0-1.24-2.1Zm8.24-2.66c.84,3.72,2.68,7.14,5.56,8.54l0,.22a1.51,1.51,0,0,0-1.12,1.16c-2.78-2-4.12-5.38-4.8-9.92h-1.26c-.08,3.4-.58,7.26-3.56,9.94l-.3-.2c2.32-3,2.6-6.82,2.6-10.64V82.22l1.5.64h4.38l.7-.78,1.58,1.22a1.31,1.31,0,0,1-.82.38v6.8a1.77,1.77,0,0,1-1.08.42H879V89.78Zm-1.66-.6H879V83.44h-4.82v5.74Z"/><path class="cls-2" d="M910.74,95.29l-1,3.87h-22l.17-.83q12.54-11.83,16.78-16.27,5.2-5.48,6.83-8.89a10.92,10.92,0,0,0,1.05-4.89,6.45,6.45,0,0,0-1.47-4.6,5.34,5.34,0,0,0-4.1-1.56,8.12,8.12,0,0,0-5,1.59,15.5,15.5,0,0,0-4.06,5.8h-1.66a16.11,16.11,0,0,1,4.83-7.68,10.67,10.67,0,0,1,6.86-2.5,9.56,9.56,0,0,1,6.89,2.39A8.3,8.3,0,0,1,917.32,68a10.65,10.65,0,0,1-.67,3.91,16,16,0,0,1-3,4.69,127.39,127.39,0,0,1-9.41,8.87l-11,9.85Z"/><path class="cls-2" d="M937.75,95.29l-1,3.87h-22l.18-.83q12.52-11.83,16.77-16.27,5.21-5.48,6.83-8.89a10.92,10.92,0,0,0,1.05-4.89,6.5,6.5,0,0,0-1.46-4.6A5.37,5.37,0,0,0,934,62.12a8.12,8.12,0,0,0-5,1.59,15.61,15.61,0,0,0-4.06,5.8h-1.66a16.11,16.11,0,0,1,4.83-7.68,10.67,10.67,0,0,1,6.86-2.5,9.56,9.56,0,0,1,6.89,2.39A8.3,8.3,0,0,1,944.33,68a10.65,10.65,0,0,1-.67,3.91,16,16,0,0,1-3,4.69,127.39,127.39,0,0,1-9.41,8.87l-11,9.85Z"/><path class="cls-1" d="M952.32,82.2c-.08.22-.26.34-.76.28a17.82,17.82,0,0,1-7.32,7.9l-.18-.26a19,19,0,0,0,6.24-8.7Zm5.82,6.24,1.54,1.28a1.31,1.31,0,0,1-.8.3c-.26,4.4-.84,7.86-1.8,8.78a3.25,3.25,0,0,1-2.36.78,1.06,1.06,0,0,0-.44-1A8,8,0,0,0,952,98l0-.34c1,.1,2.8.26,3.3.26a1,1,0,0,0,.82-.26c.7-.58,1.18-3.82,1.4-7.82h-4.88c-.34,3.32-1.4,7.06-7.56,9.84l-.26-.32c5.4-3,6.2-6.56,6.38-9.52H947l-.18-.6h10.54Zm-2.7-7.08a15.57,15.57,0,0,0,7.3,7.3l-.06.22a1.48,1.48,0,0,0-1.24,1,16.47,16.47,0,0,1-6.34-8.36Z"/><line class="cls-3" x1="469.33" y1="2.75" x2="414.94" y2="98.9"/><line class="cls-4" y1="127.9" x2="960" y2="127.9"/><path class="cls-2" d="M344.76,54.51l14.15-41.7,6.29-.14c1.95,0,4.8.09,8.54.25,2.23.11,3.67.16,4.31.16a56.43,56.43,0,0,0,9-.41,3.18,3.18,0,0,0,1.71-1.33,2.37,2.37,0,0,1,2.05-1.06h1.3L389.53,19a7.85,7.85,0,0,1-1.23,2.76,44.72,44.72,0,0,1-7,.54c-2.46,0-6.87-.11-13.2-.34-3.29-.14-6.09-.2-8.42-.2l-7.14,21.05a23.82,23.82,0,0,1,6.56-1.16,17.94,17.94,0,0,1,18.45,18.59q0,10.13-6.94,20.24t-21,16.33q-9.64,4.25-25.09,4.72a12.2,12.2,0,0,1-.14-1.64,2.49,2.49,0,0,1,.48-1.44,58.43,58.43,0,0,0,12.31-1.81,43.74,43.74,0,0,0,14.66-6.35,37.82,37.82,0,0,0,11.55-12.65q4.75-8.1,4.75-14.94a12.45,12.45,0,0,0-3.31-9,11.13,11.13,0,0,0-8.44-3.49Q351.6,50.27,344.76,54.51Z"/><rect class="cls-5" y="165.9" width="360" height="30"/><path class="cls-1" d="M39.32,175.11s1.2.9,1.9,1.56c0,.22-.22.32-.52.32H37.12A17.25,17.25,0,0,1,34,184.47c7,2.78,6.42,5.58,4.82,4.82a20.66,20.66,0,0,0-5.62-3.94c-2.14,2.08-5.3,3.4-10.2,4.12l-.12-.34c4.28-.92,7.18-2.28,9.18-4.34a39,39,0,0,0-4.82-1.92c-.2.42-.38.8-.56,1.16a2,2,0,0,1-1.5-.14,72.67,72.67,0,0,0,3.28-6.9H23l-.16-.58h5.86c.86-2.08,1.62-4.06,2-5.32l2,.38c-.08.28-.28.48-.8.48-.38,1-1,2.68-1.8,4.46h8.2ZM29.84,177c-.8,1.88-1.7,3.88-2.46,5.52a47.57,47.57,0,0,1,5.34,1.5,16.09,16.09,0,0,0,2.9-7Z"/><path class="cls-1" d="M44.68,175.23a5.94,5.94,0,0,1-.36,4.48c-.34.5-1,.7-1.36.34a1,1,0,0,1,.24-1.16,6.26,6.26,0,0,0,1.14-3.66Zm3.14-3.86c-.06.28-.22.48-.74.56v17c0,.2-.54.5-1,.5h-.26V171.13Zm-.14,3.2c3.06,1.86,1.82,4.18.76,3.16a7,7,0,0,0-1-3ZM59.82,187s1.08.84,1.72,1.46c0,.2-.24.3-.5.3H48.72l-.16-.56h5.7v-5.9h-4l-.16-.58h4.14v-4.84H51.2a14.13,14.13,0,0,1-2.18,3.8l-.32-.2a25.38,25.38,0,0,0,2.34-8l2,.5a.64.64,0,0,1-.7.44,26.38,26.38,0,0,1-.88,2.86h2.84v-5l1.92.2c0,.28-.16.46-.62.52v4.24h2.76l.94-1.18s1,.84,1.7,1.46c-.06.22-.24.32-.52.32H55.56v4.84H57.8l.92-1.2s1.06.86,1.68,1.48c0,.2-.24.3-.52.3H55.56v5.9h3.32Z"/><path class="cls-1" d="M79.2,173.17a1.79,1.79,0,0,1-1,.44v15.22a1.61,1.61,0,0,1-1.16.52h-.2v-1.54H67.32v1.1c0,.18-.5.54-1.08.54H66V172l1.46.68h9.22l.8-.92Zm-11.88.12v4.18h9.56v-4.18Zm0,4.76v4.24h9.56v-4.24Zm9.56,9.18v-4.34H67.32v4.34Z"/><path class="cls-1" d="M87.86,171.87c-.1.22-.34.36-.76.34a26.35,26.35,0,0,1-2.2,3.08c1.44,1.18.66,2.58-.3,1.9a6.06,6.06,0,0,0-1.82-2.64l.2-.16a5.77,5.77,0,0,1,1.48.62c.46-1.08,1-2.58,1.42-3.88Zm-5,15.8a22.42,22.42,0,0,0,1.18-5.2l1.8.44a.65.65,0,0,1-.7.44,14.39,14.39,0,0,1-2,4.48Zm5-9.88c3.48,2,2.26,4.46,1.12,3.44a4.84,4.84,0,0,0-.26-1.1l-1.4.28v8.64a1.27,1.27,0,0,1-1.06.4h-.18v-8.82c-.64.12-1.36.24-2.12.36a.75.75,0,0,1-.52.42l-.56-1.52,1.86,0a71.45,71.45,0,0,0,3.42-6.4l1.86.86a.76.76,0,0,1-.8.28,53,53,0,0,1-3.92,5.24c1,0,2.1-.08,3.26-.14a11.29,11.29,0,0,0-1-1.78Zm.36,4.5c3.1,2.26,1.8,4.68.72,3.6a9.15,9.15,0,0,0-1-3.5Zm6.46.2c-.16.18-.34.22-.78.24a9.31,9.31,0,0,1-4.68,5.72l-.18-.3a9.51,9.51,0,0,0,3.58-5.52H90l-.18-.58h2.74l.76-.74Zm6.62-.8a.58.58,0,0,1-.74.16,21.5,21.5,0,0,1-2.76,1.92,9.5,9.5,0,0,0,3.82,3.22l0,.24a1.51,1.51,0,0,0-1.06,1.14c-2.3-1.7-3.84-3.86-4.56-8.2v7.34c0,1-.22,1.74-1.9,1.94a1.3,1.3,0,0,0-.36-.94,3.2,3.2,0,0,0-1.58-.5v-.3s1.84.14,2.22.14.4-.1.4-.38v-7.78h-2.4v.54c0,.12-.42.38-1.06.38H91.1v-7.8l1.46.64H94c.16-.68.36-1.64.5-2.32l2.08.42c-.08.28-.32.44-.72.44-.32.42-.78,1-1.16,1.46H98.5l.64-.78,1.42,1.12a1.21,1.21,0,0,1-.74.32v6a1.32,1.32,0,0,1-1.06.38h-.2v-.76h-2.4a11.62,11.62,0,0,0,1.44,3.76,21.92,21.92,0,0,0,2.12-2.92Zm-9-7.68v2.26h6.22V174Zm6.22,5.1v-2.26H92.34v2.26Z"/><path class="cls-1" d="M103.2,175.51a1.78,1.78,0,0,0,1.26,1c1,0,4.9-1.16,8.2-1.92a27,27,0,0,1,4.54-.82,4.07,4.07,0,0,1,1.42.22c.44.2.6.42.6.7s-.24.52-.68.52-1-.06-1.72-.06a6.71,6.71,0,0,0-3.36.74c-.9.54-2.9,2.4-2.9,6.4,0,2.18.9,3.08,1.7,3.58a7.53,7.53,0,0,0,3.88.66c.48,0,1.14.34,1.14.84s-.54.66-1.44.66a7.6,7.6,0,0,1-4.5-1.12c-1.26-.92-1.92-2.12-1.92-4.38a8.38,8.38,0,0,1,3-6.78c.14-.12.12-.24-.1-.18a42.24,42.24,0,0,0-6.28,2,3.36,3.36,0,0,1-1.22.5,2.48,2.48,0,0,1-1.92-1.56,4.91,4.91,0,0,1-.08-.92Zm12.28,2.42a7.6,7.6,0,0,1,2.28,1.34,1.67,1.67,0,0,1,.68,1.2.46.46,0,0,1-.48.52c-.3,0-.52-.46-.92-1a11.31,11.31,0,0,0-1.84-1.74Zm1.76-1.34a8,8,0,0,1,2.26,1.16,1.59,1.59,0,0,1,.74,1.24c0,.34-.16.52-.46.52s-.52-.46-.94-1A10.11,10.11,0,0,0,117,177Z"/><path class="cls-1" d="M124.7,176.09c1.12,0,7.48-.68,8.44-.88.52-.1.64-.4,1-.4.6,0,2.06,1.14,2.06,1.7s-.58.64-.86,1.3a19.22,19.22,0,0,1-11.58,11l-.3-.44c5.74-2.9,9.42-7.16,10.64-11.84.08-.3,0-.34-.24-.34-.88,0-6.56.82-7.7,1.06-.54.12-1,.48-1.36.48-.6,0-1.54-.94-1.74-1.44a4.2,4.2,0,0,1-.2-1.14l.38-.16C123.56,175.47,124,176.09,124.7,176.09Zm10.64-2.6a2.11,2.11,0,0,1,4.22,0,2.11,2.11,0,1,1-4.22,0Zm.68,0a1.44,1.44,0,1,0,1.44-1.42A1.44,1.44,0,0,0,136,173.49Z"/><path class="cls-1" d="M141.26,177.55l.38-.18c.42.62.76,1.08,1.34,1.08,1.18,0,7-.76,8.4-1,.56-.08.74-.38,1.08-.38.6,0,1.82,1,1.82,1.52s-.78.6-1,1.1a18,18,0,0,1-10.16,9.1l-.28-.46a19.13,19.13,0,0,0,9.22-9.66c.08-.24,0-.36-.24-.32-1.62.16-6,.8-7.36,1.08-.62.14-.9.5-1.34.5s-1.36-.82-1.56-1.3A4.83,4.83,0,0,1,141.26,177.55Zm10-3.16a35.53,35.53,0,0,1-5.76.76c-1,0-1.58-.56-2.24-1.62l.3-.26a3.11,3.11,0,0,0,1.92.8,14.56,14.56,0,0,0,3.26-.46c1.18-.26,1.44-.58,1.86-.58.86,0,1.54.28,1.54.76C152.16,174.07,151.92,174.25,151.28,174.39Z"/><path class="cls-1" d="M172,176.13l.46.3c-2.4,4.26-6.12,7.46-10.5,10.26-.4.24-.62.74-1.06.74a3.9,3.9,0,0,1-2.38-1.54,4.28,4.28,0,0,1-.42-1.3l.32-.2c.6.66,1.24,1.3,1.88,1.3C161.82,185.69,169.14,180.39,172,176.13Zm-13.44-1.88c2.28.64,5,2,5,3.54a.68.68,0,0,1-.7.74c-.32,0-.58-.22-1.1-.84a13.47,13.47,0,0,0-3.48-3Z"/><path class="cls-1" d="M174.44,183.23l.4-.14a2.05,2.05,0,0,0,1.56,1c.88,0,7-.78,11-.92a11.59,11.59,0,0,0,1.36-.24c.82,0,2.4.76,2.4,1.46,0,.34-.22.52-.6.52a26.55,26.55,0,0,0-4.44-.54,40.49,40.49,0,0,0-8.1.86,8.74,8.74,0,0,1-1.56.46c-.6,0-1.54-1-1.76-1.4A3,3,0,0,1,174.44,183.23Zm12.72-6c-3.28.38-7,.84-7.72.84a2.25,2.25,0,0,1-1.5-1,5.11,5.11,0,0,1-.5-1.14l.36-.2c.76.76,1.26,1.1,1.86,1.1a33.12,33.12,0,0,0,4.56-.56c1.16-.24,1.28-.52,1.76-.52.74,0,1.84.3,1.84.82C187.82,177,187.6,177.19,187.16,177.25Z"/><path class="cls-1" d="M208.66,176.13l.46.3c-2.4,4.26-6.12,7.46-10.5,10.26-.4.24-.62.74-1.06.74a3.9,3.9,0,0,1-2.38-1.54,4.28,4.28,0,0,1-.42-1.3l.32-.2c.6.66,1.24,1.3,1.88,1.3C198.5,185.69,205.82,180.39,208.66,176.13Zm-13.44-1.88c2.28.64,5,2,5,3.54a.68.68,0,0,1-.7.74c-.32,0-.58-.22-1.1-.84a13.47,13.47,0,0,0-3.48-3Z"/><path class="cls-1" d="M216.06,172.77a6.47,6.47,0,0,1,1.2.08c.78.18,1.84.78,1.84,1.14s-.28.54-.58,1-.44.74-.68,1.08a2.55,2.55,0,0,0,.38,0,38.55,38.55,0,0,0,4-.38c.54-.12.68-.46,1-.46s1.74.82,1.74,1.34-.66.52-.94,1a25.1,25.1,0,0,1-12.44,11.44l-.3-.44c5.14-2.68,9.84-7.84,11.4-11.8.1-.24,0-.3-.16-.3-.44,0-2.48.32-3.2.46a6.64,6.64,0,0,1-1.12.26,1.64,1.64,0,0,1-.86-.48,18.48,18.48,0,0,1-5.92,5.2l-.3-.42c3.12-2.24,6.06-6.32,6.06-7.48,0-.34-.52-.66-1.22-1Zm7.5.24a7.26,7.26,0,0,1,2.3,1.3,1.67,1.67,0,0,1,.68,1.22.46.46,0,0,1-.48.52c-.28,0-.52-.44-.92-1a9.85,9.85,0,0,0-1.84-1.76Zm1.72-1.26a8.78,8.78,0,0,1,2.28,1.16,1.59,1.59,0,0,1,.76,1.24c0,.34-.18.52-.46.52s-.54-.46-1-1a10,10,0,0,0-1.84-1.62Z"/><path class="cls-1" d="M229.72,173.45V173a5.54,5.54,0,0,1,1.3-.14c.94,0,2.32,1.06,2.32,1.62s-.38.56-.56,1.5a52.75,52.75,0,0,0-.66,7.84c0,2.54.74,3.5,2.94,3.5a9.28,9.28,0,0,0,7.58-4.28l.44.3a8.93,8.93,0,0,1-8,5.32c-2.68,0-4.06-1.3-4.06-4.72,0-3.1.48-7.8.48-9,0-.72-.12-.94-.46-1.14A4,4,0,0,0,229.72,173.45Z"/><path class="cls-1" d="M249.52,172.43a4.28,4.28,0,0,1,1.26-.14c.72,0,2,.52,2,1a9.18,9.18,0,0,1-.52,1.6c-.1.36-.22.86-.38,1.42a18.41,18.41,0,0,0,2.52-1.06,1.85,1.85,0,0,1,.68-.28c.34,0,.86.2.86.56s-.22.58-1,.9a28.3,28.3,0,0,1-3.46,1.12c-.28,1-.62,2.06-1,3a48.26,48.26,0,0,1-3.08,7.32c-.28.46-.48.64-.88.64s-.58-.36-.58-.82.18-.62.48-1.16a27.2,27.2,0,0,0,3.12-6.32c.26-.74.52-1.58.76-2.42a12.64,12.64,0,0,1-2.3.24,2.79,2.79,0,0,1-2.78-2l.34-.26a3.4,3.4,0,0,0,2.44,1.14,11.42,11.42,0,0,0,2.6-.32,19.66,19.66,0,0,0,.5-2.6.66.66,0,0,0-.42-.8,9,9,0,0,0-1.26-.34ZM253,183.61a5.74,5.74,0,0,0,.68,1.9c.7,1.08,1.92,1.54,3.64,1.54a18.85,18.85,0,0,0,3.22-.38c.46,0,1,.22,1,.68s-.52.62-1.1.74a12.39,12.39,0,0,1-2.68.26c-2.32,0-4.16-.7-4.78-2.46a5.7,5.7,0,0,1-.44-2.22Zm1.14-4.68a10.21,10.21,0,0,1,3.62-.72,6.65,6.65,0,0,1,2.7.48c.46.24.72.54.72.88s-.34.46-.82.5a3.75,3.75,0,0,0-1.18.32,24.32,24.32,0,0,0-2.24,1l-.26-.36a23.32,23.32,0,0,0,2.1-1.46c.16-.12.1-.22-.08-.28a5.43,5.43,0,0,0-1.76-.24,12.26,12.26,0,0,0-2.68.32Z"/><path class="cls-1" d="M270.62,173.81s1,.78,1.6,1.34c-.06.22-.24.3-.52.3H264l-.16-.56h5.92Zm-1.78,3.6.76-1s.92.72,1.48,1.26a.48.48,0,0,1-.52.32h-5.68l-.16-.6Zm-4,3.14-.16-.58h4l.8-1a18.36,18.36,0,0,1,1.48,1.3c0,.2-.22.3-.48.3ZM265,173l-.16-.6h4l.84-1.06s1,.78,1.58,1.34c0,.22-.24.32-.52.32Zm5.64,15.12c0,.12-.64.42-1.06.42h-.18v-1.1H266v1.36c0,.14-.52.42-1,.42h-.18v-7.34l1.32.58h3l.7-.76,1.58,1.2a1.64,1.64,0,0,1-.84.4Zm-1.24-1.24v-3.82H266v3.82ZM281,180.57c-.16.18-.38.24-.82.28a13.66,13.66,0,0,1-3.08,4.76,14.18,14.18,0,0,0,5.46,2.52l0,.22a1.56,1.56,0,0,0-1.26,1.12,12.9,12.9,0,0,1-5-3.06,16.67,16.67,0,0,1-6.14,3.06l-.16-.3a15.56,15.56,0,0,0,5.64-3.5,13,13,0,0,1-2.4-5h-1.48l-.18-.56h7.16l.86-.82Zm-9.86-1.32a6.54,6.54,0,0,0,2.12-5.4v-2.36l1.5.66h2.62l.68-.76,1.4,1.22a1,1,0,0,1-.66.3v4.14c0,.2,0,.26.4.26h.88a7.36,7.36,0,0,0,.78,0c.16,0,.2,0,.28-.2s.32-1.38.52-2.4h.26l.06,2.44c.36.16.42.32.42.54,0,.54-.52.8-2.38.8h-1.16c-1.12,0-1.32-.32-1.32-1.16v-4.58h-3v1.12a5.82,5.82,0,0,1-3.14,5.66Zm2.48,1.4a10.24,10.24,0,0,0,2.66,4.26,13.07,13.07,0,0,0,2.42-4.26Z"/><path class="cls-1" d="M288,176.77a.64.64,0,0,1-.62.34V189a1.41,1.41,0,0,1-1,.42h-.24v-11a19.56,19.56,0,0,1-2.1,3l-.28-.18a36.14,36.14,0,0,0,3.78-10.12l2.08.62c-.08.24-.32.4-.76.4a32.26,32.26,0,0,1-1.68,4.28Zm12.54-1.4s1.08.82,1.72,1.42c0,.22-.24.32-.52.32H290.6v3.06c0,2.7-.08,6.6-2.32,9.28l-.3-.22c1.38-2.76,1.44-6.1,1.44-9.06v-4.3l1.42.66h8.84Zm-11.36-1.8h3.52v-2.46l1.9.2c0,.28-.2.48-.68.54v1.72h3v-2.46l1.9.2c0,.28-.2.48-.68.54v1.72h1.68l.82-1.08s1,.76,1.58,1.32c0,.22-.22.32-.5.32H298.2v1.38c0,.08-.34.34-1,.34H297v-1.72h-3v1.46c0,.12-.42.32-1,.32h-.22v-1.78h-3.38Zm11,4.42,1.66,1.22a1.8,1.8,0,0,1-.86.42v8c0,1-.18,1.6-1.74,1.78a1.37,1.37,0,0,0-.32-.92,1.89,1.89,0,0,0-1.18-.44v-.34s1.3.12,1.64.12.36-.12.36-.38v-2.34h-2.86v3.66c0,.1-.38.4-1,.4h-.18v-4.06h-2.82V189c0,.12-.48.42-1,.42h-.2V178.17l1.28.6h6.58Zm-7.3,1.38v2.28h2.82v-2.28Zm2.82,5.2v-2.36h-2.82v2.36Zm4-5.2h-2.86v2.28h2.86Zm0,5.2v-2.36h-2.86v2.36Z"/><path class="cls-1" d="M310.7,171.85c-.1.24-.32.4-.76.36a30.9,30.9,0,0,1-2.06,4.34l.7.26c-.06.18-.26.3-.62.34V189a1.47,1.47,0,0,1-1.08.44h-.24v-10.9a20.59,20.59,0,0,1-2.58,3l-.28-.18a35.33,35.33,0,0,0,4.84-10.2Zm5,6.68v9.3H319l1-1.2s1.1.84,1.78,1.48c0,.22-.24.32-.52.32h-11.8l-.16-.6h5v-9.3h-5.44l-.16-.58h5.6v-6.64l2.12.24c-.06.3-.24.5-.74.56V178h3.8l1-1.22s1.1.86,1.76,1.48a.45.45,0,0,1-.5.32Z"/><path class="cls-1" d="M328.16,178.77c3.6,1.9,2.46,4.28,1.32,3.3a9.34,9.34,0,0,0-1.32-2.8V189c0,.18-.54.46-1,.46h-.26v-9.24a16.38,16.38,0,0,1-2.92,4.7l-.28-.28a21.86,21.86,0,0,0,3-8.18H324l-.14-.58h3v-4.68l2,.24c-.06.3-.22.48-.72.56v3.88h.58l.88-1.14s1,.8,1.58,1.4c0,.22-.26.32-.52.32h-2.52ZM341.8,182c-.16.18-.32.24-.76.1a19.93,19.93,0,0,1-3,2,9.17,9.17,0,0,0,4.52,3l0,.22a1.52,1.52,0,0,0-1,1.18,9.23,9.23,0,0,1-4.94-6.4v5.4c0,1-.2,1.7-1.88,1.88a1.33,1.33,0,0,0-.36-.9,3,3,0,0,0-1.48-.46v-.3s1.7.12,2.06.12.42-.1.42-.38v-3c-1,.78-2.44,1.88-4.3,3.18a.7.7,0,0,1-.3.54l-1.1-1.36c1-.4,3.32-1.54,5.66-2.7l0,.08v-4H330.6l-.14-.58h4.92v-2.18H331.5l-.16-.58h4v-2H330.9l-.16-.6h3.56a.88.88,0,0,1-.46-.22,6.12,6.12,0,0,0-1.38-2.82l.22-.12c2.9,1.12,2.62,3.06,1.78,3.16H337c.4-1,.92-2.32,1.26-3.26l2,.6c-.08.22-.32.38-.76.36-.5.66-1.26,1.56-2,2.3h2l.92-1.1s1,.78,1.68,1.38a.48.48,0,0,1-.52.32h-4.88v2h2.26l.92-1.12s1,.8,1.66,1.38c-.06.22-.24.32-.52.32h-4.32v2.18h3.12l.9-1.14s1.06.8,1.68,1.4c0,.22-.24.32-.52.32h-5.18v.7a9,9,0,0,0,1.2,2.8,22.2,22.2,0,0,0,2.34-2.9Zm-10.2-.92c3.68,1.22,2.52,3.78,1.34,2.82a5.31,5.31,0,0,0-1.58-2.68Z"/><path class="cls-1" d="M9.74,221.65a5.27,5.27,0,0,1,1.7-.37c1.14,0,2.68.94,2.68,1.48s-.57.68-.62,1.49c-.06.56-.11,1.51-.14,2.26,1.76-.1,3.75-.21,4.86-.35.49,0,.94-.56,1.38-.56a3.3,3.3,0,0,1,2.26,2.07c0,.49-.86.81-1.05,1.33-2.43,6.42-6.34,11.33-13,14.57L7.34,243c5.78-3.43,10.2-9.24,11.58-15.2.08-.38,0-.43-.35-.43-7.15.21-10.09.91-11.07.91a1.74,1.74,0,0,1-1-.35c.11,1.19.73,6.21.73,6.7a.76.76,0,0,1-.73.89c-.73.05-1.3-1.3-1.32-2.08,0-.32.1-.81.1-1.27a23.52,23.52,0,0,0-.56-3.89A5.81,5.81,0,0,0,3,225.78l.32-.45a13.12,13.12,0,0,1,2.16,1,2.39,2.39,0,0,1,.78.68c1.52-.05,3.73-.24,5.57-.38,0-1,0-2.56-.06-3.21s-.05-.76-.48-.92a5.76,5.76,0,0,0-1.49-.3Z"/><path class="cls-1" d="M36.42,227.22a5.76,5.76,0,0,1,1.57-.33c1,0,2.18.73,2.18,1.14s-.29.53-.38,1.29a16.69,16.69,0,0,0-.13,2.08,14.76,14.76,0,0,0,3.51-.68c.81,0,2,.65,2,1.25a.59.59,0,0,1-.62.59,36.27,36.27,0,0,0-4.94,0c0,1.81,0,4.91.05,6.42.06,1.11.14,1.7.14,2.35,0,.94-.7,2-1.38,2s-.62-.76-1.08-1.19a13.58,13.58,0,0,0-2.24-1.29l.16-.35c.87.16,1.87.4,2.49.45a.34.34,0,0,0,.43-.32c.08-.78,0-3.56,0-6a23.72,23.72,0,0,1-9.5,7.34l-.25-.43c3.57-2.22,7.16-5.67,8.83-8.72-1.4.16-2.67.38-3.62.57a11.74,11.74,0,0,1-2,.54c-.62,0-1.62-1-1.81-1.54a4.13,4.13,0,0,1-.14-1.22l.35-.1c.49.72.89,1.13,1.52,1.13,1.34,0,4.4-.41,6.58-.65,0-1,0-2.18,0-2.91,0-.41-.16-.54-.48-.71a5,5,0,0,0-1.27-.37Z"/><path class="cls-1" d="M53.73,230.75c.59.92,1,1.76,2.16,1.76,2.4,0,11.85-.62,13.09-.68,1.81-.13,2.56-.3,3.27-.3,1,0,2.24.46,2.24,1.19,0,.49-.27.78-1.19.78s-1.89-.05-3.54-.05-9.28.41-11.31.65c-1.54.16-1.83.57-2.62.57s-2-1.33-2.4-2.25a4.82,4.82,0,0,1-.24-1.51Z"/><path class="cls-1" d="M89.94,221.36a8.48,8.48,0,0,1,1.61.11c1.06.24,2.49,1.05,2.49,1.53s-.38.73-.78,1.41c-.3.48-.6,1-.92,1.46a4.61,4.61,0,0,0,.51,0,53.2,53.2,0,0,0,5.37-.51c.73-.16.92-.62,1.38-.62.65,0,2.35,1.11,2.35,1.81,0,.54-.89.7-1.27,1.4a33.91,33.91,0,0,1-16.79,15.44l-.41-.59c6.94-3.62,13.28-10.58,15.39-15.93.13-.32,0-.4-.22-.4-.59,0-3.34.43-4.32.62a9.24,9.24,0,0,1-1.51.35,2.23,2.23,0,0,1-1.16-.65,25,25,0,0,1-8,7l-.4-.57c4.21-3,8.18-8.53,8.18-10.09,0-.46-.7-.89-1.65-1.3Z"/><path class="cls-1" d="M121.82,221.52a4.76,4.76,0,0,1,1.76.3c1,.35,2.24,1.54,2.24,2.24,0,.51-.49.46-1.22,1.27-1,1.1-2.32,2.56-4.1,4.26.75.49,1.37.95,1.37,1.32a12,12,0,0,0-.24,1.41c-.19,3.91,0,8,0,9.66,0,1-.25,1.32-.81,1.32-.89,0-1.35-1.29-1.35-2.18,0-.49.21-1,.32-1.92a68.06,68.06,0,0,0,.25-7.56,1.89,1.89,0,0,0-.41-1.19,37.79,37.79,0,0,1-10.12,6.4l-.35-.65a42.87,42.87,0,0,0,13.39-11.41,3.26,3.26,0,0,0,.72-1.38c0-.43-.45-.81-1.59-1.38Z"/><path class="cls-1" d="M155.52,226.27l.62.41c-3.24,5.74-8.26,10.06-14.18,13.84-.53.33-.83,1-1.43,1a5.27,5.27,0,0,1-3.21-2.08,5.65,5.65,0,0,1-.56-1.75l.43-.27c.81.89,1.67,1.75,2.53,1.75C141.8,239.17,151.68,232,155.52,226.27Zm-18.14-2.54c3.07.87,6.8,2.7,6.8,4.78a.93.93,0,0,1-1,1c-.43,0-.78-.3-1.48-1.13a18.2,18.2,0,0,0-4.7-4.08Z"/><path class="cls-1" d="M170,221.36a8.53,8.53,0,0,1,1.62.11c1.06.24,2.49,1.05,2.49,1.53s-.38.73-.79,1.41c-.29.48-.59,1-.91,1.46a4.61,4.61,0,0,0,.51,0,53.78,53.78,0,0,0,5.37-.51c.73-.16.92-.62,1.38-.62.64,0,2.35,1.11,2.35,1.81,0,.54-.9.7-1.27,1.4a33.91,33.91,0,0,1-16.79,15.44l-.41-.59c6.94-3.62,13.28-10.58,15.39-15.93.13-.32,0-.4-.22-.4-.59,0-3.34.43-4.32.62a9.24,9.24,0,0,1-1.51.35,2.23,2.23,0,0,1-1.16-.65,25,25,0,0,1-8,7l-.4-.57c4.21-3,8.18-8.53,8.18-10.09,0-.46-.71-.89-1.65-1.3Z"/><path class="cls-1" d="M203.9,225.89c.95-.08,1-.67,1.57-.67s2.53,1.51,2.53,2.16-.83.81-1,1.54c-.25,1.18-.84,4.83-1.38,7.77,1,.08,1.65.46,1.65,1a.7.7,0,0,1-.79.78c-.59,0-2-.16-3.26-.16-2.11,0-5.75.19-9,.38,0,.35,0,.67,0,1.08,0,.68-.25,1-.81,1s-1.11-.73-1.11-1.84c0-.54.08-2.21.08-3.37a44.71,44.71,0,0,0-.76-7.48,4.24,4.24,0,0,0-1.45-2.27l.37-.45a6.46,6.46,0,0,1,2.92,1.4C196.18,226.62,202.85,226,203.9,225.89Zm0,10.8a88.8,88.8,0,0,0,1.13-9.15c0-.22-.08-.3-.32-.3-1.73,0-6.26.35-7.75.52-.89.08-1.65.35-2.13.35a2.94,2.94,0,0,1-1.08-.35c.08,1.64.32,6.55.43,9.55C197.1,237.12,201.42,236.8,203.93,236.69Z"/><path class="cls-1" d="M218.54,230.75c.59.92,1,1.76,2.16,1.76,2.4,0,11.85-.62,13.09-.68,1.81-.13,2.57-.3,3.27-.3,1,0,2.24.46,2.24,1.19,0,.49-.27.78-1.19.78s-1.89-.05-3.54-.05-9.28.41-11.31.65c-1.53.16-1.83.57-2.61.57s-2-1.33-2.41-2.25a4.82,4.82,0,0,1-.24-1.51Z"/><path class="cls-1" d="M253.69,222.65a6.58,6.58,0,0,1,2-.35c1,0,2.73,1,2.73,1.62s-.54,1-.65,1.76-.22,2.29-.33,4c2.33-.68,5.75-1.62,7.35-2.08.78-.22,1-.7,1.37-.7.79,0,2.62,1.45,2.62,2.1s-.78.65-1.4,1.27a35.8,35.8,0,0,1-5.24,4.45l-.46-.46a28,28,0,0,0,4.05-5.15c.19-.33.08-.51-.3-.46-1.48.24-5.61,1.57-8,2.38-.11,2.37-.19,4.91-.16,6.5,0,2.21.32,2.43,3.62,2.43a26.94,26.94,0,0,0,5.61-.59c.73,0,1.81.32,1.81,1,0,.49-.51.73-1.24.84a33.61,33.61,0,0,1-5.37.46c-4.24,0-5.86-.25-5.92-3.81-.05-1.86,0-4.53.08-6.31-1.29.43-3,1-4.18,1.53-1,.44-1,.81-1.75.81a4.25,4.25,0,0,1-2.46-1.86,3,3,0,0,1-.16-1.43l.43-.16c.54.81,1,1.35,1.65,1.35a45.13,45.13,0,0,0,6.5-1.68c.06-2.21.14-4.91.06-6-.06-.67-.87-.83-2.19-1Zm11.47-.13a12.21,12.21,0,0,1,3.08,1.78,2.24,2.24,0,0,1,.92,1.62c0,.46-.22.73-.65.73s-.7-.62-1.24-1.3a13.63,13.63,0,0,0-2.48-2.35Zm2.33-1.7a11.16,11.16,0,0,1,3.1,1.56,2.29,2.29,0,0,1,1,1.68.61.61,0,0,1-.65.7c-.4,0-.7-.65-1.29-1.3a13.66,13.66,0,0,0-2.49-2.18Z"/><path class="cls-1" d="M278.21,230.32l.32-.3a9.15,9.15,0,0,1,1.89,1.38,4,4,0,0,1,1.7,2.75c0,.57-.27,1-.83,1-.87,0-.89-1.05-1.65-2.51A12.47,12.47,0,0,0,278.21,230.32Zm2.13,13.2L280,243c7.15-3.72,11.23-10.69,11.23-12.74,0-.43-.38-.75-1.43-1.19l.13-.4a4.9,4.9,0,0,1,1.27,0c1,.16,2.29,1.35,2.29,2,0,.44-.45.65-.75,1.27A22.14,22.14,0,0,1,280.34,243.52Zm2.62-14.6.32-.3a8.79,8.79,0,0,1,2,1.43,3.48,3.48,0,0,1,1.43,2.59.85.85,0,0,1-.89.92c-.81,0-.81-1.11-1.46-2.43A11.31,11.31,0,0,0,283,228.92Z"/><path class="cls-1" d="M302.83,222a8.47,8.47,0,0,1,1.73-.32c1.13,0,3,1,3,1.65s-.49.64-.59,1.53c-.14,1.3-.19,3.27-.22,4.76a23,23,0,0,1,6.67,2.48,2.67,2.67,0,0,1,1.51,2,.87.87,0,0,1-.86.92c-.9,0-1.19-.92-2.81-2.16a21,21,0,0,0-4.51-2.32c0,1.86-.05,6.29,0,9.15,0,1.19.08,2,.08,2.46,0,.7-.27,1-.86,1-.89,0-1.35-1.48-1.35-2.4,0-.59.24-1.08.35-2.11.22-2,.22-6.42.22-8.47s0-5.1-.16-6.45c-.09-.87-.68-1-2.11-1.19Z"/><path class="cls-1" d="M335.21,244.44l-.76-.76,24.3-24.29.75.75Z"/><path class="cls-1" d="M379.78,236.56c5,.45,9.29,2,11.21,3.26.91.62,1.4,1.22,1.4,1.84a.81.81,0,0,1-.92.83c-.59,0-1.21-.59-2.13-1.21-3.29-2.19-5.75-3-9.75-4.08Zm1.19-7.21a21.94,21.94,0,0,1,7.56,1.67c1,.49,1.59,1,1.59,1.76a.78.78,0,0,1-.84.78,3.48,3.48,0,0,1-1.48-.7,29.06,29.06,0,0,0-7-2.89Zm10.88-2.7a.8.8,0,0,1-.76.84c-.56,0-.91-.36-1.64-.87a25.06,25.06,0,0,0-8.05-3.26l.11-.6a26,26,0,0,1,8.42,1.86C391.42,225.35,391.85,225.89,391.85,226.65Z"/><path class="cls-1" d="M405.87,224c.45.65,1,1.62,1.86,1.62a62.92,62.92,0,0,0,8.29-1.32c.56-.16.89-.68,1.26-.68.81,0,2.57,1.41,2.57,2s-.81.76-1.16,1.3a45.51,45.51,0,0,1-4.48,6.12c4.34,2,8.77,5,8.77,7.21a.9.9,0,0,1-.92,1c-.73,0-1.1-.86-2.54-2.48a23.68,23.68,0,0,0-6-5.05,32.78,32.78,0,0,1-11.45,8l-.4-.67c6.34-3.3,12.71-9.64,15.22-15.17.14-.36,0-.41-.32-.38-1.92.29-5.67,1.21-7.15,1.59-.84.22-.95.7-1.6.7s-1.86-1.16-2.18-1.86a4.53,4.53,0,0,1-.38-1.65Z"/><path class="cls-1" d="M432.84,222a8.24,8.24,0,0,1,1.73-.32c1.13,0,3,1,3,1.65s-.49.64-.6,1.53c-.13,1.3-.19,3.27-.21,4.76a22.93,22.93,0,0,1,6.66,2.48,2.67,2.67,0,0,1,1.51,2,.86.86,0,0,1-.86.92c-.89,0-1.19-.92-2.81-2.16a20.88,20.88,0,0,0-4.5-2.32c0,1.86-.06,6.29,0,9.15,0,1.19.08,2,.08,2.46,0,.7-.27,1-.86,1-.9,0-1.35-1.48-1.35-2.4,0-.59.24-1.08.35-2.11.21-2,.21-6.42.21-8.47s0-5.1-.16-6.45c-.08-.87-.67-1-2.1-1.19Z"/><path class="cls-1" d="M465.67,221.82a5.44,5.44,0,0,1,1.62-.35c1.24,0,2.72,1.1,2.72,1.7s-.48.43-.54,1.54-.08,2.4-.1,3.56c3.18-.27,3.45-.46,4.05-.46,1.08,0,2.56.51,2.56,1.35,0,.46-.19.62-.67.62-.65,0-1.65-.24-3.68-.24-.67,0-1.45,0-2.29.05-.11,3.35-.22,6.72-2,9.1a14.4,14.4,0,0,1-6.88,4.69l-.38-.62a14,14,0,0,0,5.94-4.77c1.32-2.08,1.62-5.16,1.64-8.29-1.94.13-4,.32-5.72.51,0,2.16,0,4.37,0,5.16,0,1.08-.22,1.48-.78,1.48s-1.11-1.16-1.11-1.91c0-.92.38-1.71.43-4.57a24.71,24.71,0,0,0-3.26.57,10.41,10.41,0,0,1-1.89.54c-.68,0-1.78-1.27-2.05-1.86a4.34,4.34,0,0,1-.17-1.49l.49-.16c.49.78,1,1.62,1.65,1.62,1,0,3.61-.3,5.23-.49a27.43,27.43,0,0,0-.19-4.12c-.13-.54-.75-.71-1.89-.87v-.54a5.13,5.13,0,0,1,1.52-.3c.86,0,2.48.76,2.48,1.49,0,.57-.32.59-.38,1.46-.05.48-.08,1.56-.08,2.75,1.73-.16,3.94-.38,5.72-.57,0-2.43,0-4.1-.08-5.15-.08-.57-.78-.7-1.94-.87Z"/><path class="cls-1" d="M490.73,221.65a5.21,5.21,0,0,1,1.7-.37c1.13,0,2.67.94,2.67,1.48s-.57.68-.62,1.49c-.06.56-.11,1.51-.14,2.26,1.76-.1,3.75-.21,4.86-.35.49,0,.95-.56,1.38-.56a3.32,3.32,0,0,1,2.27,2.07c0,.49-.87.81-1.06,1.33-2.43,6.42-6.34,11.33-13,14.57l-.46-.56c5.78-3.43,10.21-9.24,11.58-15.2.08-.38,0-.43-.35-.43-7.15.21-10.09.91-11.07.91a1.74,1.74,0,0,1-1-.35c.11,1.19.73,6.21.73,6.7a.76.76,0,0,1-.73.89c-.73.05-1.3-1.3-1.32-2.08,0-.32.1-.81.1-1.27a23.52,23.52,0,0,0-.56-3.89,5.72,5.72,0,0,0-1.73-2.51l.32-.45a13.12,13.12,0,0,1,2.16,1,2.57,2.57,0,0,1,.79.68c1.51-.05,3.72-.24,5.56-.38,0-1,0-2.56-.06-3.21s-.05-.76-.48-.92a5.67,5.67,0,0,0-1.49-.3Z"/><path class="cls-1" d="M519.43,222.33a6,6,0,0,1,1.94-.59c1.22,0,2.84.91,2.84,1.51s-.49.56-.54,1.67-.11,2.73-.14,4a64.32,64.32,0,0,0,6.91-.92c.81,0,2.54.56,2.54,1.29,0,.52-.38.73-.84.73a75.1,75.1,0,0,0-8.64.19c-.4,6.35-2.88,10.66-9.36,13.28l-.41-.56c5.37-3.05,7.61-6.67,8-12.58-2.08.21-4.78.59-6.13.86-.86.19-1.27.62-1.91.62s-2-1.29-2.3-1.89a3.34,3.34,0,0,1-.32-1.51l.46-.19c.54.78,1.13,1.65,2,1.62,1.14,0,5.73-.51,8.26-.78a40.3,40.3,0,0,0-.11-5.43c-.08-.65-1.32-.73-2.21-.81Z"/><path class="cls-1" d="M551.13,244.44l-.76-.76,24.3-24.29.75.75Z"/><path class="cls-1" d="M597.73,230.08c0,4.37-.27,10.12-4.1,14.14l-.38-.3c2.51-4.07,2.72-9.12,2.72-13.84V222.6l2,.89h7.54v-4l2.72.3c0,.38-.32.65-1,.73v2.94h7.16l1.32-1.67s1.48,1.18,2.37,2c0,.3-.29.43-.67.43H597.73Zm11.2.64a22.71,22.71,0,0,0,9.45,9.37l-.06.27a2.07,2.07,0,0,0-1.64,1.46,23.22,23.22,0,0,1-8.13-10.47v12.28c0,.24-.75.67-1.43.67h-.3V232.91a23.06,23.06,0,0,1-9.31,9.48l-.3-.41a24.84,24.84,0,0,0,8.56-11.26h-7l-.22-.78h8.23v-4.59l2.7.3c-.08.4-.29.67-1,.78v3.51h5.75l1.22-1.59s1.4,1.13,2.26,1.94c-.08.3-.32.43-.7.43Z"/><path class="cls-1" d="M627.43,239.12v2.29c0,.17-.51.62-1.38.62h-.27V221.14l2,.87h2.75l1-1.11,2.11,1.7a2.09,2.09,0,0,1-1.16.54v17c0,.21-.81.65-1.4.65h-.25v-1.65Zm0-16.3v7.26h3.37v-7.26Zm3.37,15.52v-7.45h-3.37v7.45Zm16.47-3c-.19.22-.46.3-1.11.32a13.77,13.77,0,0,1-3.45,4.62,21.35,21.35,0,0,0,7.34,2.29l0,.3a1.76,1.76,0,0,0-1.4,1.4,17.43,17.43,0,0,1-7.07-3.1A20.31,20.31,0,0,1,634,244.3l-.16-.43a18.71,18.71,0,0,0,6.75-3.54,12.4,12.4,0,0,1-2.59-3.8,16.66,16.66,0,0,1-7.48,7.58l-.38-.43a16,16,0,0,0,7.4-11.39h-4.86l-.21-.78h5.18c.11-1,.19-1.92.22-2.84h-4.51l-.22-.81h9.66a26,26,0,0,0,2.81-5.5l2.65,1c-.14.3-.46.46-1,.43a21.34,21.34,0,0,1-3.75,4.1h2.59l1.16-1.43s1.3,1.06,2.08,1.81c-.05.3-.32.43-.68.43h-8.9a28.25,28.25,0,0,1-.3,2.84h6.72l1.19-1.57s1.4,1.11,2.24,1.95c-.05.27-.3.4-.67.4h-9.59c-.16.78-.35,1.59-.59,2.38h5.51l1.13-1.06Zm1.46-13.9c-.27.21-.76.19-1.38-.11a98.26,98.26,0,0,1-13.6,1.11l-.09-.52a77.83,77.83,0,0,0,13.26-2.37Zm-14,1.67c4.4,2.08,2.64,5.21,1.16,3.86a8.27,8.27,0,0,0-1.49-3.72Zm3.61,12.69a10,10,0,0,0,3.16,3.7,13.19,13.19,0,0,0,2.73-4h-5.75Zm.73-13.17c4.16,2.35,2.32,5.45.87,4a8.22,8.22,0,0,0-1.19-3.86Z"/><path class="cls-1" d="M678.45,231.48s1.38,1.05,2.27,1.86c-.08.3-.32.43-.7.43H669.46a14.19,14.19,0,0,1-.54,2.62h6.51l1-1,2,1.62a1.74,1.74,0,0,1-1,.37c-.27,3.27-.84,5.46-1.81,6.19a4.4,4.4,0,0,1-2.7.72,1.34,1.34,0,0,0-.51-1.18,7.56,7.56,0,0,0-2.57-.65l0-.49c1.13.11,3.16.27,3.72.27a1.5,1.5,0,0,0,.95-.21c.51-.43.89-2.27,1.13-4.86h-7c-1,2.62-3.3,5.15-8.62,7.15l-.35-.43c6.51-3,7.53-6.78,7.8-10.1h-6.12c-.44,3.54-1.62,7.37-4.92,10.29l-.35-.3c3.27-4.29,3.76-9.5,3.76-14.25v-5.83l2,.89h14.44l.92-1,2.1,1.62a1.9,1.9,0,0,1-1,.46v4.59a2.46,2.46,0,0,1-1.52.57h-.27v-1.16h-15c0,1,0,2.18-.13,3.37h7.34v-3.08l2.51.25c0,.32-.27.54-.78.62V233h6.69Zm-21-9.5-.22-.81h19.57l1.3-1.57s1.48,1.14,2.4,2c-.08.29-.35.43-.73.43Zm4.15,3.37v3.46h15v-3.46Z"/><path class="cls-1" d="M699.79,244.44l-.76-.76,24.3-24.29.75.75Z"/><path class="cls-1" d="M766.93,227.19a2,2,0,0,0-1.56,1.43c-4.16-1.76-8.21-4.67-10.29-7.72a31.08,31.08,0,0,1-7.2,5.83l1.7.81h4v-3.32l2.62.27c-.06.35-.27.59-.84.7v2.35h4l.92-1,2,1.54a1.47,1.47,0,0,1-1,.46v6.94a2.22,2.22,0,0,1-1.48.64h-.27v-.81h-5a11.37,11.37,0,0,0,3.32,3.78,28.27,28.27,0,0,0,4.58-3.67l2.22,1.51c-.19.25-.41.35-1,.16a33,33,0,0,1-5.24,2.41,21.93,21.93,0,0,0,8.29,2.89l-.06.32a2,2,0,0,0-1.54,1.56c-5.48-1.4-9.28-4.07-11.23-9h-4.53v5.86L756.3,240l.08.46c-2.51.78-6,1.86-11,3.15a.9.9,0,0,1-.59.62l-1.3-2.24c1-.1,2.43-.32,4.24-.59v-14.6a36.68,36.68,0,0,1-5.26,2.67l-.22-.38c4.35-2.13,9.77-6.64,11.23-9.77l3.19.7c-.06.33-.41.46-1.11.52,2.51,2.56,7,4.77,11.45,6.18Zm-17.49,1.1V231h10.18v-2.68Zm10.18,6.24v-2.75H749.44v2.75Z"/><path class="cls-1" d="M789.1,231.7c2,1.83,5,3.18,9.39,3.86l0,.29a2,2,0,0,0-.94,1.7c-.57-.16-1.11-.32-1.62-.51a3.09,3.09,0,0,1-.46.14v6.37a2.34,2.34,0,0,1-1.46.56h-.27v-1.45h-4.81v1c0,.19-.72.57-1.43.57h-.24v-9l1.81.84h4.43l0,0a14.75,14.75,0,0,1-5.13-4.32h-5a19.12,19.12,0,0,1-5.46,4.18l.41.19h4.24l1-1,2.1,1.59a2,2,0,0,1-1.1.54v6.23c0,.19-.87.6-1.43.6h-.27v-1.32h-4.65v1.05c0,.19-.67.56-1.37.56h-.27v-7.71a29.62,29.62,0,0,1-3.08,1.16l-.22-.38a20.52,20.52,0,0,0,8-5.64H773.8l-.22-.81h8.31a17.74,17.74,0,0,0,1.57-2.46,2,2,0,0,1-.51.08h-.27v-1.13H778v1.21c0,.16-.73.51-1.43.51h-.24v-8.63l1.81.81h4.34l1-1,2.1,1.59a2,2,0,0,1-1.1.54v5.51s0,.05-.06.08l2,.76a1,1,0,0,1-1.08.43,16.23,16.23,0,0,1-1.19,1.73h10.53l1.29-1.6s1.46,1.11,2.38,2c-.08.3-.35.44-.73.44Zm-6.42-5.13v-4.51H778v4.51Zm-4.46,10.25v5h4.65v-5Zm10.83-8.5c0,.16-.73.54-1.43.54h-.25v-8.39l1.81.81h4.56l1-1.06,2.16,1.62a2.33,2.33,0,0,1-1.14.57v5.64a2.42,2.42,0,0,1-1.46.57H794v-1.24h-5Zm4.64,13.53v-5h-4.81v5Zm-4.64-19.79v4.51h5v-4.51Z"/><path class="cls-1" d="M805,225.54c5.7.81,4.56,4.67,2.65,3.54a7.13,7.13,0,0,0-2.89-3.27Zm7.88-1.24c-1.16,3.4-3.48,9.8-3.88,11.09a7.85,7.85,0,0,0-.41,2.35c0,1.19.78,2.43.68,4.65-.06,1.13-.57,1.83-1.49,1.83-.48,0-.78-.49-.86-1.32.38-2.75.24-4.86-.38-5.24a2.4,2.4,0,0,0-1.35-.4v-.6h1.24c.33,0,.41,0,.68-.54.46-1,.46-1,5.26-11.93ZM807,219.82c5.85.86,4.8,4.86,2.8,3.78a8.56,8.56,0,0,0-3.07-3.54Zm22.32,22c.54.21.67.43.67.78,0,.73-.73,1.08-4.1,1.08h-2.16c-1.83,0-2.19-.46-2.19-1.7v-10.1h-3.1c-.46,6.16-2.29,9.88-8.29,12.31l-.19-.4c5-2.84,6.24-6.46,6.54-11.91h-4.86l-.22-.78h8.21v-5.35h-4a14.73,14.73,0,0,1-2.81,4.27l-.4-.24a26.68,26.68,0,0,0,2.86-9.67l2.81.6a.93.93,0,0,1-.95.62,26.76,26.76,0,0,1-1.16,3.64h3.7v-5.37l2.72.3c-.05.38-.32.65-1,.75V225h4l1.27-1.62s1.43,1.16,2.29,2c0,.3-.32.43-.7.43h-6.85v5.35h4.77l1.27-1.62s1.46,1.13,2.35,2a.64.64,0,0,1-.7.43h-5.8v9.67c0,.4.08.51.83.51h1.81c.86,0,1.49,0,1.76,0s.32-.08.43-.35a37.74,37.74,0,0,0,.81-4h.35Z"/><path class="cls-1" d="M840.38,227.67c0-1.45-.19-2.13-2.11-3.48l.24-.43a8.06,8.06,0,0,1,1.71.43c1,.46,2.37,1.68,2.37,2.78s-.92,2.89-.92,5.67c0,3.43,1.57,5.18,2.7,5.78a.65.65,0,0,0,1-.19,45.22,45.22,0,0,0,2.53-4.94l.71.32c-.62,1.78-1.49,4-1.65,4.89-.24,1.21.19,1.35.19,1.92,0,.72-.73,1.16-1.84.7-2.1-.92-4.91-3.27-5-8.43C840.22,230.75,840.38,228.89,840.38,227.67ZM853,227l.24-.65a8.41,8.41,0,0,1,5.07,2.67,9.63,9.63,0,0,1,2.35,6.08c0,1.05-.35,1.51-1.08,1.51-.43,0-.75-.32-.86-1a14.78,14.78,0,0,0-1.54-5.39A7.74,7.74,0,0,0,853,227Z"/><path class="cls-1" d="M878.28,236.34s1.3,1,2.14,1.83c-.06.3-.33.44-.71.44h-5v5.21a1.81,1.81,0,0,1-1.45.51H873v-5.72h-5l-.19-.81H873v-3.16h-2.05v.75c0,.19-.71.57-1.38.57h-.27V225.7l1.78.84H873v-2.7h-4.88l-.19-.78H873v-3.51l2.62.27c0,.35-.27.62-.89.73v2.51h2l1.24-1.59s1.38,1.13,2.27,1.94c-.08.3-.35.43-.73.43h-4.83v2.7h1.86l.95-1,2.1,1.64a2.09,2.09,0,0,1-1.1.49v7.48c0,.19-.89.59-1.46.59h-.22v-1.05h-2.16v3.16h2.43Zm-7.36-9v2.81h5.93v-2.81Zm0,6.53h5.93V231h-5.93Zm8.55-4.86a23.66,23.66,0,0,0,3.75-9.5l2.92.84c-.08.32-.38.54-1,.54a22.7,22.7,0,0,1-1.46,3.48h5.4l1.21-1.59s1.43,1.13,2.3,2c-.08.3-.3.43-.68.43h-8.69a15,15,0,0,1-3.4,4.1Zm12.45,12.64c.67.19.86.32.86.67,0,.78-1.4,1.19-4.24,1.19h-4.07c-2.89,0-4.16-.59-4.32-2.32-.22-2.08,2.8-5,7.28-11.26h-6.1l-.21-.78h6.64l.81-.95,2,1.65a1.69,1.69,0,0,1-1.16.35c-5.16,6.26-7.62,9.5-7.48,10.8.08.73.89.94,2.64.94h3.92c1.78,0,2-.08,2.21-.46a14.5,14.5,0,0,0,.92-3.56l.38,0Z"/><path class="cls-1" d="M901.34,225.54c.73,2.94.6,5.21-.43,6.29-1.19,1.19-2.56,0-1.24-1.4a7.81,7.81,0,0,0,1.24-4.86Zm15,11a16.35,16.35,0,0,0,8.28,5.1l-.05.29a2.05,2.05,0,0,0-1.51,1.57,15.16,15.16,0,0,1-7.15-6.51v6.62c0,.21-.76.59-1.38.59h-.32V238a20.71,20.71,0,0,1-9.18,5.72l-.27-.49a18.53,18.53,0,0,0,8.39-6.66H907c2.56,2.4,1.38,4.66,0,3.56a11.4,11.4,0,0,0-2.7-4.73c-.65,3.62-1.94,6.46-4.69,8.67l-.36-.46c4.46-4.78,3.89-12.09,3.89-23.73l2.7.3c0,.41-.32.68-.94.73,0,2.67,0,5.13-.06,7.37a37.42,37.42,0,0,0,1.92-3.62l2.29,1.46a.82.82,0,0,1-1,.27,26.27,26.27,0,0,1-3.23,2.81,45,45,0,0,1-.44,5.64,10.67,10.67,0,0,1,2.57,1.67l-.19-.7h7.48v-2.16l2.67.3c-.06.35-.3.59-1,.7v1.16h4.61l1.22-1.54a26.6,26.6,0,0,1,2.29,1.89c0,.3-.3.41-.67.41Zm-7.07-8.94h3.1l.84-.86,1.86,1.43a1.53,1.53,0,0,1-.89.43v4.56c0,.19-.84.57-1.38.57h-.21v-1.14h-3.43v1c0,.14-.7.52-1.32.52h-.22v-7.24Zm-.11.81v3.43h3.43v-3.43Zm2.86-2.27c0,.16-.73.54-1.4.54h-.25v-6.85l1.78.78H918l.94-1,2.06,1.54a1.92,1.92,0,0,1-1.06.51v4.19c0,.18-.86.56-1.43.56h-.27v-.83H912Zm0-4.75v3.4h6.26v-3.4Zm5.8,6.21h3.38l.86-.92,2,1.49a1.83,1.83,0,0,1-1,.48v4.48c0,.17-.86.54-1.35.54h-.24v-1.08h-3.75v.49a1.81,1.81,0,0,1-1.32.51h-.25v-6.72Zm-.13.81v3.43h3.75v-3.43Z"/><path class="cls-1" d="M936,229c4.69,2.4,3.29,5.61,1.78,4.37a9.76,9.76,0,0,0-1.78-3.75v14c0,.24-.7.62-1.33.62h-.35V231.75a22.93,22.93,0,0,1-3.69,6.37l-.41-.35a33.35,33.35,0,0,0,3.7-11.09H931l-.19-.81h3.53v-6.29l2.65.29c-.08.41-.3.65-1,.76v5.24h.73l1.08-1.54a22.62,22.62,0,0,1,1.94,1.91c0,.3-.3.44-.68.44H936Zm19,13.3c.73.92.81,1.3.62,1.6-.56.81-2.1.13-3.23-.76a10.31,10.31,0,0,1-2.73-2.7,18.91,18.91,0,0,1-7.32,3.56l-.18-.43a18.46,18.46,0,0,0,6.69-4.37,20.42,20.42,0,0,1-1.81-4.75h-4a19.4,19.4,0,0,1-.21,2c4.69,1.13,3.5,4.45,1.72,3.37a6.35,6.35,0,0,0-1.86-2.67,10.59,10.59,0,0,1-4.86,7.1l-.38-.4c3.19-2.89,3.67-6.37,3.78-9.37H939.3l-.21-.76h7.8a49,49,0,0,1-1-9.52,1.15,1.15,0,0,1-.87.24,49.71,49.71,0,0,1-3.43,5.56c.84-.06,1.79-.16,2.73-.24a9.15,9.15,0,0,0-1-1.76l.32-.19c4.13,2.16,2.62,5.08,1.19,3.86a5.43,5.43,0,0,0-.32-1.37c-1,.32-2.3.75-4,1.26a.75.75,0,0,1-.62.54l-1-1.91c.46,0,1.11-.06,1.89-.11.89-1.86,2-4.62,2.89-7l2.16.87c0-1.38-.06-2.78-.06-4.22l2.7.36c0,.35-.29.64-.94.75a54.64,54.64,0,0,0,1,12.9h3.88l1.14-1.51s1.32,1.08,2.13,1.86a.63.63,0,0,1-.68.41h-6.29a16,16,0,0,0,1.3,3.43,16.73,16.73,0,0,0,1.92-3l2.32,1.14c-.16.27-.43.37-1,.29a14.84,14.84,0,0,1-2.32,3,8.67,8.67,0,0,0,2.24,2.16c.46.35.62.35.86-.19a23.32,23.32,0,0,0,1.06-3.05l.35.05Zm-10.82-21.72a.91.91,0,0,1-1,.48c-.65,1.05-1.35,2.21-2.05,3.16,2,1.4,1,3.18-.22,2.37a7.3,7.3,0,0,0-2.05-3l.3-.21a9,9,0,0,1,1.32.48c.4-1.19.89-2.72,1.29-4.13Zm4,2.83a9.53,9.53,0,0,1,1.13.49c.46-1.14,1-2.76,1.46-4.22l2.37.9c-.1.29-.43.51-1,.45a29.46,29.46,0,0,1-2.33,3.19c2.08,1.43,1,3.24-.16,2.37a6.84,6.84,0,0,0-1.81-3Zm6.8.22a.93.93,0,0,1-1.05.43,43,43,0,0,1-3.46,5.07c.89-.08,1.95-.16,3-.27a9.85,9.85,0,0,0-1.16-1.94l.35-.16c4.34,2.34,2.78,5.5,1.4,4.21a5.56,5.56,0,0,0-.35-1.51c-1.05.29-2.4.7-4.13,1.18a.8.8,0,0,1-.65.54l-.75-1.91c.35,0,.83-.06,1.43-.08a66.45,66.45,0,0,0,3.1-6.51ZM949.88,231c3.87.29,2.81,3,1.35,2.16a4.1,4.1,0,0,0-1.59-1.92Z"/><rect class="cls-5" y="286.26" width="360" height="30"/><path class="cls-1" d="M102,298.05s1.1.89,1.78,1.51c0,.21-.24.32-.52.32H99.42a12.74,12.74,0,0,1-2.52,5.58c6.66,2.16,6.16,4.92,4.58,4.26a20.07,20.07,0,0,0-5.44-3.4c-2.14,1.9-5.38,3-10.44,3.48l-.08-.38c4.34-.7,7.3-1.8,9.28-3.62a39.84,39.84,0,0,0-4-1.34c-.26.54-.52,1-.74,1.48a1.76,1.76,0,0,1-1.4-.1,58.07,58.07,0,0,0,2.9-6H85.86l-.18-.61h6.1c.6-1.44,1.12-2.76,1.4-3.66l1.94.38c-.08.26-.28.44-.8.44-.26.7-.68,1.72-1.16,2.84H101Zm1.84-3c-.12.14-.36.18-.74.2a13.72,13.72,0,0,1-2.32,2.24l-.24-.14a23.65,23.65,0,0,0,1-2.34h-13a2.93,2.93,0,0,1-1.08,2.5c-.5.36-1.22.4-1.48-.06a.93.93,0,0,1,.5-1.12,3.23,3.23,0,0,0,1.4-3l.36,0a9.81,9.81,0,0,1,.26,1.12h5.6v-2.94l2.06.22c0,.28-.24.48-.72.56v2.16h6.1l.84-.84Zm-11,4.85c-.62,1.4-1.32,2.9-2,4.22a41.55,41.55,0,0,1,4.6,1,11.17,11.17,0,0,0,2.34-5.18Z"/><path class="cls-1" d="M108.4,298.11c.82,3.53-.28,5.81-1.16,6.75-.58.62-1.38.88-1.72.48s-.1-.86.26-1.24c1.18-.92,2.3-3.3,2.26-6Zm4.54-1.84c0,.26-.24.46-.68.54v10.47c0,.46.16.62,1.22.62h2.62c1.2,0,2.1,0,2.48,0a.52.52,0,0,0,.48-.36,26.79,26.79,0,0,0,.76-3.48h.26l0,3.64c.48.16.62.32.62.6,0,.7-.76.92-4.66.92h-2.76c-1.86,0-2.38-.34-2.38-1.62V296.05Zm3.26-.16a11.71,11.71,0,0,0-5-3.82l.12-.32C118.64,293.37,117.78,297,116.2,296.11Zm6.42,8.61a9.46,9.46,0,0,0-3-6.63l.2-.22C125.8,301.14,124.08,306.42,122.62,304.72Z"/><path class="cls-1" d="M142,298.05s1.1.89,1.78,1.51c0,.21-.24.32-.52.32h-3.88a12.74,12.74,0,0,1-2.52,5.58c6.66,2.16,6.16,4.92,4.58,4.26a20.07,20.07,0,0,0-5.44-3.4c-2.14,1.9-5.38,3-10.44,3.48l-.08-.38c4.34-.7,7.3-1.8,9.28-3.62a39.84,39.84,0,0,0-4-1.34c-.26.54-.52,1-.74,1.48a1.76,1.76,0,0,1-1.4-.1,58.07,58.07,0,0,0,2.9-6h-5.66l-.18-.61h6.1c.6-1.44,1.12-2.76,1.4-3.66l1.94.38c-.08.26-.28.44-.8.44-.26.7-.68,1.72-1.16,2.84H141Zm1.84-3c-.12.14-.36.18-.74.2a13.72,13.72,0,0,1-2.32,2.24l-.24-.14a23.65,23.65,0,0,0,1-2.34h-13a2.93,2.93,0,0,1-1.08,2.5c-.5.36-1.22.4-1.48-.06a.93.93,0,0,1,.5-1.12,3.23,3.23,0,0,0,1.4-3l.36,0a9.81,9.81,0,0,1,.26,1.12h5.6v-2.94l2.06.22c0,.28-.24.48-.72.56v2.16h6.1l.84-.84Zm-11,4.85c-.62,1.4-1.32,2.9-2,4.22a41.55,41.55,0,0,1,4.6,1,11.17,11.17,0,0,0,2.34-5.18Z"/><path class="cls-1" d="M156.4,292c0,.24-.3.32-.8.38,1.8,2.6,5.14,4.84,8.66,6.36l0,.28a1.65,1.65,0,0,0-1.24,1.09,18.49,18.49,0,0,1-7.74-7.49,26.23,26.23,0,0,1-9.6,8.23l-.18-.28c3.36-2,7.46-6.23,8.56-9.19Zm5.4,15.29s1.14.86,1.86,1.52c-.06.22-.28.3-.56.3H146.24l-.18-.56h8v-4.3h-5.24l-.16-.56H154v-3.81h-4.94l-.14-.58h9.34l.92-1.08s1,.77,1.68,1.35c0,.21-.26.31-.52.31h-5v3.81h3.52l1-1.14s1.06.8,1.76,1.4c-.06.2-.26.3-.54.3h-5.72v4.3h5.42Z"/><path class="cls-1" d="M173.84,307.9c4.9-.86,7.26-3.38,7.26-7a5.68,5.68,0,0,0-5.94-5.85c-.24,0-.48,0-.72,0a3.73,3.73,0,0,1,.86,2.12,10.13,10.13,0,0,1-.62,3.23c-.84,2.4-3.16,6.28-5.2,6.28-1.34,0-2.74-2.12-2.74-4.58a7.7,7.7,0,0,1,2.66-5.63,8.65,8.65,0,0,1,5.84-2.14c4.12,0,7.3,2.7,7.3,6.85,0,3.32-2.08,6.72-8.62,7.14Zm-.14-12.69a7.61,7.61,0,0,0-3.78,2,6.46,6.46,0,0,0-2.06,4.63c0,1.92.88,3.38,1.7,3.38,1.32,0,3.16-3.16,4-5.06a9.53,9.53,0,0,0,.72-3.09A3.49,3.49,0,0,0,173.7,295.21Z"/><path class="cls-1" d="M196,302.18a20.33,20.33,0,0,0,3-3.83c.14-.24.06-.38-.22-.34-1.1.18-4.16,1.16-6,1.76-.08,1.77-.14,3.65-.12,4.83,0,1.64.24,1.8,2.68,1.8a19.88,19.88,0,0,0,4.16-.44c.54,0,1.34.24,1.34.76,0,.36-.38.54-.92.62a24.63,24.63,0,0,1-4,.34c-3.14,0-4.34-.18-4.38-2.82,0-1.38,0-3.36.06-4.68-1,.32-2.26.78-3.1,1.14s-.74.6-1.3.6a3.16,3.16,0,0,1-1.82-1.38,2.27,2.27,0,0,1-.12-1.06l.32-.13c.4.61.72,1,1.22,1a32.4,32.4,0,0,0,4.82-1.24c0-1.64.1-3.64,0-4.44,0-.5-.64-.62-1.62-.76l0-.38a4.81,4.81,0,0,1,1.48-.26c.72,0,2,.76,2,1.2s-.4.7-.48,1.3-.16,1.7-.24,3c1.72-.5,4.26-1.2,5.44-1.54.58-.16.72-.52,1-.52.58,0,1.94,1.08,1.94,1.56s-.58.48-1,.94a25.93,25.93,0,0,1-3.88,3.31Z"/><path class="cls-1" d="M208.28,293.51a6,6,0,0,1,1.56-.4c.86,0,2,.48,2,.9s-.28.52-.22,1.14.18,1.14.34,2c.86-.22,1.66-.44,2.38-.66s1.16-.5,1.34-.52c.58,0,1.5.14,1.5.62s-.3.52-.8.62c-1.1.22-3,.62-4.22.9l.7,3.35c1.58-.36,3.7-.92,4.38-1.15s.66-.25.84-.27c.9-.06,1.72.25,1.72.7,0,.26-.12.52-.64.56a41.73,41.73,0,0,0-6.08,1.1c.42,1.88.78,3.46,1,4.24a8.53,8.53,0,0,1,.38,1.88c0,.3-.14.62-.54.62s-.88-.62-1-1.14c-.1-.34-.24-1.58-.44-2.7-.12-.7-.28-1.64-.48-2.64-1.42.36-3.28.88-4.34,1.26-.74.26-.94.56-1.38.56a2.7,2.7,0,0,1-1.58-.88,2.79,2.79,0,0,1-.38-1l.34-.22c.52.46.82.66,1.12.66a61.7,61.7,0,0,0,6-1.34c-.26-1.3-.52-2.59-.7-3.37-1.08.24-2.14.53-2.92.76-.56.18-.68.41-1,.41a2.79,2.79,0,0,1-1.56-.93,1.89,1.89,0,0,1-.32-.88l.34-.16c.32.32.6.68,1.06.68a42.49,42.49,0,0,0,4.22-.84,19.33,19.33,0,0,0-.8-3c-.22-.42-1-.38-1.72-.5Z"/><path class="cls-1" d="M223.68,299.31a2.22,2.22,0,0,0,1.24.75,31.6,31.6,0,0,0,3.9-.58c.34-.08.54-.45.82-.45s1.7.78,1.7,1.19-.46.52-.58.94c-.22.74-.72,2.84-1.08,4.3.5,0,1-.06,1.4-.08a6.6,6.6,0,0,0,1.12-.16c.68,0,2,.62,2,1.16a.47.47,0,0,1-.52.5,33.39,33.39,0,0,0-3.32-.44,30.63,30.63,0,0,0-6.26.62,8.17,8.17,0,0,1-1.36.4c-.48,0-1.24-.74-1.42-1.12a2.33,2.33,0,0,1-.2-.92l.26-.06a1.78,1.78,0,0,0,1.28.74c.56,0,3.32-.32,5.86-.54.32-1.68.76-4.18.88-5a.17.17,0,0,0-.18-.19,23.06,23.06,0,0,0-3.22.73c-.38.12-.64.34-1,.34a2.18,2.18,0,0,1-1.38-1.11,1.92,1.92,0,0,1-.16-.87Z"/><path class="cls-1" d="M236.86,294.93v-.4a4.38,4.38,0,0,1,1.14-.22c.74,0,2,.72,2,1.22s-.24.58-.3,1.32,0,5.27,0,6.09-.28,1-.64,1-.78-.62-.78-1.36c0-.54.16-1.32.2-3,0-.93,0-2.89-.12-3.63,0-.48-.06-.64-.4-.78A4.33,4.33,0,0,0,236.86,294.93Zm2.3,14.47-.26-.44c3.9-2.06,5.78-4.74,6-8.84a45.88,45.88,0,0,0,.06-4.91.89.89,0,0,0-.44-.82,4,4,0,0,0-1.2-.26l0-.4a3.9,3.9,0,0,1,1.36-.38c.76,0,2.08.78,2.08,1.2s-.34.54-.38,1.18c0,1.18-.12,3.21-.18,4.45C246,304.82,243.68,307.7,239.16,309.4Z"/><path class="cls-1" d="M251.9,298c.38.54.78,1.06,1.3,1.06,1.36,0,6.44-.76,10.12-1.08,1.4-.14,1.72-.36,2-.36.82,0,2,.44,2,1,0,.33-.12.5-.56.5s-1.08-.12-2.06-.12-2.58,0-4.42.22c.54.31,1,.67,1,1s-.46.48-.68,1.08a13.22,13.22,0,0,1-6.78,8.08l-.4-.42c4.82-3.14,5.94-7.7,5.94-8.78a1.22,1.22,0,0,0-.34-.81c-1.66.21-3.52.5-4.12.67a8,8,0,0,1-1.6.42c-.46,0-1.36-.79-1.58-1.35a3.09,3.09,0,0,1-.14-1Zm3.06-4.22a3.08,3.08,0,0,0,1.94.78,17.86,17.86,0,0,0,3.6-.46c1.18-.26,1.44-.58,1.86-.58.86,0,1.52.3,1.52.78,0,.3-.22.48-.86.6a41.27,41.27,0,0,1-6.12.76c-1,0-1.58-.58-2.24-1.62Z"/><path class="cls-1" d="M275.46,297a2.87,2.87,0,0,1,1.06.14c.66.22,1.42.92,1.42,1.38s-.28.35-.7.76c-.56.63-1.3,1.45-2.26,2.35.44.3.78.56.78.8s-.14.44-.16.84c-.08,2.18,0,4.44,0,5.3,0,.6-.18.84-.58.84-.58,0-.9-.74-.9-1.34,0-.26.14-.56.18-1.08a39.83,39.83,0,0,0,.16-4.12,1.59,1.59,0,0,0-.16-.64,21,21,0,0,1-5.82,3.54l-.2-.36c4.24-2.38,7.92-6.48,7.92-7.31,0-.32-.44-.64-.88-.84Z"/><path class="cls-1" d="M13.33,360.51v2H1.43v-1.62c1.67-1.73,3.35-3.54,4.64-4.92,3-3.21,4.16-5.42,4.16-7.69,0-2.43-1.4-4.08-3.72-4.08a6.4,6.4,0,0,0-1.79.25l-.67,2.08c-.32,1.16-.73,1.67-1.43,1.67a1.44,1.44,0,0,1-1.3-.84c.46-2.83,3-4.26,5.78-4.26,3.64,0,5.34,2,5.34,5,0,2.48-1.29,4.43-5.61,8.75-.76.81-2.13,2.18-3.62,3.64Z"/><path class="cls-1" d="M28.67,356.6H25.48v5.94h-2V356.6H15.34v-1.25l8.74-12.06h1.4v11.79h3.19Zm-5.21-1.52v-9.25l-6.67,9.25Z"/><path class="cls-1" d="M48.08,344.1c0,2.56,0,5.18,0,7.85v1.49c0,2.59,0,5.24,0,7.83l2.84.29v1H42.87v-1l2.81-.27c0-2.53,0-5.18,0-8.34H35.64c0,3.13,0,5.78.08,8.32l2.81.29v1h-8v-1l2.81-.29c.08-2.57.08-5.19.08-7.83V352c0-2.61,0-5.26-.08-7.85l-2.81-.3v-.94h8v.94l-2.81.3c-.08,2.51-.08,5.1-.08,7.72H45.73c0-2.59,0-5.18,0-7.72l-2.81-.3v-.94h8.05v.94Z"/><path class="cls-1" d="M68.06,354.3a28,28,0,0,0,4-5.15c.19-.33.08-.52-.3-.46a83.48,83.48,0,0,0-8,2.37c-.11,2.38-.19,4.92-.16,6.51,0,2.21.32,2.43,3.62,2.43a26.51,26.51,0,0,0,5.61-.6c.73,0,1.81.33,1.81,1,0,.49-.51.73-1.24.84a33.61,33.61,0,0,1-5.37.46c-4.24,0-5.86-.25-5.92-3.81,0-1.86,0-4.54.08-6.32-1.29.44-3.05,1.06-4.18,1.54-1,.43-1,.81-1.75.81a4.3,4.3,0,0,1-2.46-1.86,3,3,0,0,1-.16-1.43l.43-.16c.54.81,1,1.35,1.65,1.35a45.13,45.13,0,0,0,6.5-1.68c.06-2.21.14-4.91.06-6-.06-.67-.87-.84-2.19-1l0-.51a6.58,6.58,0,0,1,2-.35c1,0,2.73,1,2.73,1.62s-.54.94-.65,1.75-.22,2.3-.33,4c2.33-.67,5.75-1.62,7.35-2.07.78-.22,1-.71,1.37-.71.79,0,2.62,1.46,2.62,2.11s-.78.65-1.4,1.27a36.43,36.43,0,0,1-5.24,4.45Z"/><path class="cls-1" d="M84.62,342.61a8,8,0,0,1,2.1-.54c1.16,0,2.65.65,2.67,1.22s-.37.7-.29,1.54.24,1.54.46,2.67c1.16-.3,2.24-.59,3.21-.89,1.13-.38,1.56-.68,1.81-.7.78-.06,2,.19,2,.83,0,.46-.4.71-1.08.84-1.48.3-4,.84-5.69,1.22l.94,4.5c2.13-.48,5-1.24,5.91-1.53.76-.22.89-.36,1.14-.38,1.21-.08,2.32.35,2.32.94,0,.35-.17.7-.87.76a56.39,56.39,0,0,0-8.2,1.48c.56,2.54,1.05,4.67,1.32,5.72a11.39,11.39,0,0,1,.51,2.54c0,.41-.19.84-.73.84s-1.18-.84-1.35-1.54c-.13-.46-.32-2.13-.59-3.64-.16-.95-.38-2.22-.65-3.57-1.91.49-4.42,1.19-5.85,1.7-1,.35-1.27.76-1.87.76a2.86,2.86,0,0,1-2.64-2.48l.46-.3c.7.62,1.1.89,1.51.89.78,0,5.45-1.11,8.15-1.81-.35-1.75-.7-3.48-.94-4.53-1.46.32-2.89.7-4,1-.75.25-.91.54-1.4.54a3.75,3.75,0,0,1-2.11-1.24,2.58,2.58,0,0,1-.43-1.19l.46-.21c.43.43.81.91,1.43.91a57.92,57.92,0,0,0,5.7-1.13,27,27,0,0,0-1.08-4c-.3-.57-1.38-.52-2.32-.68Z"/><path class="cls-1" d="M105.41,350.44a3,3,0,0,0,1.67,1,43.87,43.87,0,0,0,5.26-.78c.46-.11.73-.6,1.11-.6.57,0,2.29,1.06,2.29,1.6s-.62.7-.78,1.27c-.3,1-1,3.83-1.46,5.8.68-.05,1.33-.08,1.89-.11a9.55,9.55,0,0,0,1.51-.21c.92,0,2.65.83,2.65,1.56a.64.64,0,0,1-.7.68,44.2,44.2,0,0,0-4.48-.6,41.12,41.12,0,0,0-8.45.84,11.64,11.64,0,0,1-1.84.54c-.64,0-1.67-1-1.91-1.51a3,3,0,0,1-.27-1.24l.35-.09a2.38,2.38,0,0,0,1.73,1c.75,0,4.48-.43,7.9-.73.44-2.26,1-5.64,1.19-6.8a.21.21,0,0,0-.24-.24,30.46,30.46,0,0,0-4.35,1c-.51.16-.86.46-1.32.46a3,3,0,0,1-1.86-1.48,2.67,2.67,0,0,1-.22-1.19Z"/><path class="cls-1" d="M123.2,344.53V344a6,6,0,0,1,1.54-.3c1,0,2.64,1,2.64,1.65,0,.51-.32.78-.4,1.78-.08,1.16,0,7.1,0,8.21s-.38,1.35-.86,1.35-1-.84-1-1.84c0-.73.21-1.78.27-4,0-1.24-.06-3.89-.17-4.89,0-.65-.08-.86-.54-1A5.75,5.75,0,0,0,123.2,344.53Zm3.1,19.52-.35-.6c5.27-2.78,7.8-6.39,8.13-11.93a62.32,62.32,0,0,0,.08-6.61,1.22,1.22,0,0,0-.6-1.11,5.34,5.34,0,0,0-1.61-.35l0-.54a5.24,5.24,0,0,1,1.83-.51c1,0,2.81,1.05,2.81,1.62s-.46.73-.51,1.59c-.06,1.59-.16,4.32-.24,6C135.51,357.87,132.4,361.75,126.3,364.05Z"/><path class="cls-1" d="M143.5,348.63c.52.73,1.06,1.43,1.76,1.43,1.83,0,8.69-1,13.66-1.45a27.54,27.54,0,0,0,2.72-.49c1.11,0,2.65.59,2.65,1.38,0,.43-.16.67-.76.67-.43,0-1.46-.16-2.78-.16s-3.48.05-6,.3c.73.4,1.35.89,1.35,1.32s-.62.65-.92,1.46a17.86,17.86,0,0,1-9.15,10.9l-.54-.56c6.5-4.24,8-10.4,8-11.85a1.57,1.57,0,0,0-.45-1.08c-2.24.27-4.75.67-5.56.89a10.47,10.47,0,0,1-2.16.56c-.62,0-1.84-1.05-2.14-1.8a4.48,4.48,0,0,1-.19-1.33Zm4.13-5.69a4.2,4.2,0,0,0,2.62,1.05,23.87,23.87,0,0,0,4.86-.62c1.59-.35,1.94-.78,2.51-.78,1.16,0,2,.4,2,1.05,0,.4-.29.65-1.16.81a55.47,55.47,0,0,1-8.26,1c-1.37,0-2.13-.79-3-2.19Z"/><path class="cls-1" d="M175.31,347.37a4,4,0,0,1,1.43.18c.89.3,1.91,1.25,1.91,1.87s-.37.46-.94,1c-.76.84-1.75,1.95-3.05,3.16.59.41,1.05.76,1.05,1.08s-.19.59-.21,1.13c-.11,2.95,0,6,0,7.16,0,.81-.24,1.13-.78,1.13-.78,0-1.21-1-1.21-1.81,0-.35.18-.75.24-1.46a52.37,52.37,0,0,0,.21-5.56,2.1,2.1,0,0,0-.21-.86,28.57,28.57,0,0,1-7.86,4.78l-.27-.49c5.73-3.21,10.69-8.74,10.69-9.85,0-.43-.59-.86-1.18-1.13Z"/><path class="cls-1" d="M190.59,364.8l-.75-.75,24.29-24.3.76.76Z"/><path class="cls-1" d="M232.93,342.16a8.13,8.13,0,0,1,1.94-.33c1,0,2.83,1,2.83,1.68s-.62.59-.81,1.62c-.13.7-.35,1.91-.62,3l4.38-.54c.73-.08.94-.68,1.37-.68s2.16,1.27,2.16,1.84-.67.51-.78,1.27c-.57,3.8-1.3,7.39-2.92,10.39a3.51,3.51,0,0,1-2.83,2.05c-.46,0-.67-.24-.84-.81-.27-1-1.13-1.46-2.67-2.59l.32-.51c1.14.51,2.52,1.13,3.06,1.32.72.22,1,.19,1.37-.27,1.73-2.13,2.81-8.72,2.81-10.45,0-.19-.11-.29-.32-.29a47.69,47.69,0,0,0-5.4.56,21.42,21.42,0,0,1-11.1,14.28l-.43-.54a23.46,23.46,0,0,0,9.69-13.47c-1.73.3-4.1.73-4.86.92s-1,.57-1.54.57c-.7,0-1.78-1.32-2-1.95a4.07,4.07,0,0,1-.17-1.7l.54-.13c.38.73.79,1.65,1.52,1.65.89,0,3.86-.33,6.82-.71a32.85,32.85,0,0,0,.68-4.4c0-.51-.08-.7-.49-.86a9.65,9.65,0,0,0-1.72-.38Z"/><path class="cls-1" d="M249.32,348.55l.51-.24c.57.84,1,1.46,1.81,1.46,1.59,0,9.45-1,11.34-1.3.75-.11,1-.51,1.45-.51.81,0,2.46,1.38,2.46,2.05,0,.51-1.05.81-1.38,1.49a24.32,24.32,0,0,1-13.71,12.28l-.38-.62a25.86,25.86,0,0,0,12.45-13c.11-.33,0-.49-.33-.43-2.18.21-8.09,1.08-9.93,1.45-.84.19-1.21.68-1.81.68s-1.83-1.11-2.1-1.76A6.3,6.3,0,0,1,249.32,348.55Zm13.52-4.26a47.76,47.76,0,0,1-7.77,1c-1.38,0-2.13-.75-3-2.18l.41-.35a4.23,4.23,0,0,0,2.59,1.08,20.12,20.12,0,0,0,4.4-.62c1.59-.36,1.94-.79,2.51-.79,1.16,0,2.08.38,2.08,1C264,343.86,263.71,344.1,262.84,344.29Z"/><path class="cls-1" d="M271.76,351.12c.59.92,1,1.75,2.16,1.75,2.4,0,11.85-.62,13.09-.67,1.81-.14,2.56-.3,3.26-.3,1,0,2.24.46,2.24,1.19,0,.48-.27.78-1.18.78s-1.89-.05-3.54-.05-9.29.4-11.31.64c-1.54.17-1.84.57-2.62.57s-2-1.32-2.4-2.24a4.55,4.55,0,0,1-.24-1.51Z"/><path class="cls-1" d="M300.29,344.8a3.15,3.15,0,0,0,2.08,1.27,64.2,64.2,0,0,0,8.07-1c1.52-.3,2.11-.81,2.49-.81,1.37,0,2.37.54,2.4,1.13,0,.35-.19.68-.95.76-1.62.16-5,.56-7.28.86.7.33,1.16.7,1.16,1,0,.46-.22.65-.3,1.22s-.14,1.48-.19,2.48L314,351c1.57-.22,2-.41,2.54-.41.89,0,2.51.65,2.51,1.38,0,.43-.24.75-.84.75-.89,0-2.37-.24-4-.24s-3.92.24-6.51.51c-.08,1.92-.13,4-.11,5.13,0,1.54.41,2,2.86,2a19.89,19.89,0,0,0,4.92-.49c1.26,0,1.86.62,1.86,1s-.35.72-1.16.89a32.11,32.11,0,0,1-5.16.35c-3.78,0-4.78-.87-4.8-3.3,0-1,0-3.34.08-5.45a47.93,47.93,0,0,0-5,.95c-1.11.29-1.4.67-2,.67A3.08,3.08,0,0,1,297,353a4,4,0,0,1-.19-1.24l.4-.16c.57.62,1,1.16,1.79,1.16,1.1,0,4.77-.54,7.18-.81,0-1.19,0-2.19,0-2.7a3,3,0,0,0-.59-2l-.76.11c-1,.14-2,.43-2.62.43s-1.56-.83-2-1.54a5.84,5.84,0,0,1-.43-1.21Z"/><path class="cls-1" d="M322.79,356.22l.54-.19a2.75,2.75,0,0,0,2.1,1.4c1.19,0,9.45-1.05,14.85-1.24a15.46,15.46,0,0,0,1.83-.32c1.11,0,3.24,1,3.24,2,0,.46-.29.7-.81.7a35.69,35.69,0,0,0-6-.73A54.51,54.51,0,0,0,327.62,359a12,12,0,0,1-2.11.62c-.81,0-2.08-1.29-2.37-1.89A4,4,0,0,1,322.79,356.22ZM340,348.15c-4.42.51-9.44,1.13-10.42,1.13a3.05,3.05,0,0,1-2-1.29,6.76,6.76,0,0,1-.67-1.54l.48-.27c1,1,1.7,1.48,2.51,1.48a45,45,0,0,0,6.16-.75c1.56-.33,1.72-.71,2.37-.71,1,0,2.48.41,2.48,1.11C340.84,347.74,340.55,348.07,340,348.15Z"/><path class="cls-1" d="M359.13,345.85a45.85,45.85,0,0,0,5.5-.62c.76-.13.92-.62,1.38-.62.67,0,2.29,1.16,2.29,1.86,0,.52-.92.71-1.24,1.38a40.94,40.94,0,0,1-4.1,6.21c1.64,1.24,3,2.62,3,3.64a.85.85,0,0,1-.89,1c-.76,0-1.24-1.17-3.29-3.27a33,33,0,0,1-12.12,8.37l-.38-.62a37.92,37.92,0,0,0,11.28-8.88,22.75,22.75,0,0,0-5.69-3.65,25.23,25.23,0,0,1-5.32,4.05l-.43-.57c4.15-3,8.74-9.17,8.74-10.74,0-.49-.7-.89-1.64-1.3l.13-.51a5.41,5.41,0,0,1,1.62.11c1.08.24,2.43,1,2.43,1.54s-.4.7-.78,1.4c-.24.41-.51.84-.79,1.24Zm5.88.46c-.95.08-3.46.49-4.4.7a8.15,8.15,0,0,1-1.48.33,2,2,0,0,1-1-.46,39.66,39.66,0,0,1-2.73,3.24,37.4,37.4,0,0,1,6.15,3,23.35,23.35,0,0,0,3.76-6.35C365.44,346.39,365.31,346.31,365,346.31Z"/><path class="cls-1" d="M372.9,351.12c.59.92,1,1.75,2.16,1.75,2.4,0,11.85-.62,13.09-.67,1.81-.14,2.56-.3,3.27-.3,1,0,2.24.46,2.24,1.19,0,.48-.27.78-1.19.78s-1.89-.05-3.54-.05-9.28.4-11.31.64c-1.54.17-1.83.57-2.62.57s-2-1.32-2.4-2.24a4.82,4.82,0,0,1-.24-1.51Z"/><path class="cls-1" d="M410.16,341.89a4.7,4.7,0,0,1,1.75.29c1,.35,2.24,1.54,2.24,2.24,0,.52-.49.46-1.21,1.27-1,1.11-2.33,2.57-4.11,4.27.76.48,1.38.94,1.38,1.32a12.1,12.1,0,0,0-.24,1.4c-.19,3.92-.06,8.05-.06,9.67,0,1-.24,1.32-.81,1.32-.89,0-1.35-1.3-1.35-2.19,0-.48.22-1,.33-1.91a70.43,70.43,0,0,0,.24-7.56,1.92,1.92,0,0,0-.4-1.19,38.4,38.4,0,0,1-10.13,6.4l-.35-.65a43,43,0,0,0,13.39-11.42,3.32,3.32,0,0,0,.73-1.37c0-.44-.46-.81-1.59-1.38Z"/><path class="cls-1" d="M439.4,346.64l.62.4c-3.24,5.75-8.26,10.07-14.18,13.85-.54.32-.83,1-1.43,1a5.27,5.27,0,0,1-3.21-2.08,5.92,5.92,0,0,1-.57-1.76l.44-.27c.81.9,1.67,1.76,2.53,1.76C425.68,359.54,435.56,352.39,439.4,346.64Zm-18.14-2.54c3.07.86,6.8,2.7,6.8,4.78a.93.93,0,0,1-.95,1c-.43,0-.78-.3-1.48-1.14a18.18,18.18,0,0,0-4.7-4.07Z"/><path class="cls-1" d="M452.71,345.85a45.61,45.61,0,0,0,5.5-.62c.76-.13.92-.62,1.38-.62.68,0,2.3,1.16,2.3,1.86,0,.52-.92.71-1.25,1.38a40.94,40.94,0,0,1-4.1,6.21c1.65,1.24,3,2.62,3,3.64a.85.85,0,0,1-.89,1c-.75,0-1.24-1.17-3.29-3.27a32.92,32.92,0,0,1-12.12,8.37l-.38-.62a38,38,0,0,0,11.29-8.88,22.64,22.64,0,0,0-5.7-3.65,25.23,25.23,0,0,1-5.32,4.05l-.43-.57c4.16-3,8.75-9.17,8.75-10.74,0-.49-.71-.89-1.65-1.3l.14-.51a5.37,5.37,0,0,1,1.61.11c1.08.24,2.43,1,2.43,1.54s-.4.7-.78,1.4c-.24.41-.51.84-.78,1.24Zm5.88.46c-.94.08-3.45.49-4.4.7a7.8,7.8,0,0,1-1.48.33,2,2,0,0,1-1-.46,37.75,37.75,0,0,1-2.73,3.24,37.51,37.51,0,0,1,6.16,3,23.3,23.3,0,0,0,3.75-6.35C459,346.39,458.89,346.31,458.59,346.31Z"/><path class="cls-1" d="M466.48,351.12c.6.92,1,1.75,2.16,1.75,2.4,0,11.85-.62,13.09-.67,1.81-.14,2.57-.3,3.27-.3,1,0,2.24.46,2.24,1.19,0,.48-.27.78-1.19.78s-1.89-.05-3.53-.05-9.29.4-11.31.64c-1.54.17-1.84.57-2.62.57s-2-1.32-2.41-2.24a5.13,5.13,0,0,1-.24-1.51Z"/><path class="cls-1" d="M499.91,342.83a11.34,11.34,0,0,1,2-.27c1.11.05,2.51.95,2.51,1.57s-.54.54-.59,1.29-.08,1.73-.11,2.92a52.73,52.73,0,0,0,6.45-1.14c1,0,2.35.62,2.35,1.24s-.27.79-.95.79-1.56-.08-2.75-.08-3.32.24-5.13.43c0,.89,0,1.78,0,2.46,0,2,.13,7.88.13,8.61,0,1.16-.62,2.34-1.54,2.34-.75,0-.73-.54-1.32-1.26a10,10,0,0,0-2.27-1.68l.27-.57c.89.3,1.92.65,2.62.81.3.06.54,0,.57-.35.08-1.24.08-5.64.08-7.93v-2.27c-1.76.24-4.13.54-5.54.86-1.08.22-1.35.71-1.94.71a3.17,3.17,0,0,1-2.05-1.65,5.17,5.17,0,0,1-.32-1.49l.48-.21c.51.7,1.08,1.4,1.67,1.38,1.25,0,5.65-.6,7.67-.84,0-1.65-.05-3.27-.13-3.89-.11-.83-.73-1-2.14-1.19Zm-2.08,10.55c-.3,2.95-2.38,6.67-4.29,6.67a.89.89,0,0,1-1-.94c0-.68.54-.84,1.38-1.49a8.48,8.48,0,0,0,3.16-4.4Zm9.61-.48c2.72,1.08,5.42,3,5.85,5.24.14.75-.18,1.32-.83,1.32s-1.08-.89-1.59-1.76a12.94,12.94,0,0,0-3.81-4.32Z"/><path class="cls-1" d="M537.89,346.64l.62.4c-3.24,5.75-8.26,10.07-14.17,13.85-.54.32-.84,1-1.43,1a5.27,5.27,0,0,1-3.21-2.08,5.92,5.92,0,0,1-.57-1.76l.43-.27c.81.9,1.68,1.76,2.54,1.76C524.18,359.54,534.06,352.39,537.89,346.64Zm-18.14-2.54c3.08.86,6.8,2.7,6.8,4.78a.92.92,0,0,1-.94,1c-.43,0-.78-.3-1.48-1.14a18.35,18.35,0,0,0-4.7-4.07Z"/><path class="cls-1" d="M547.75,364.8l-.75-.75,24.29-24.3.76.76Z"/><path class="cls-1" d="M602.37,345a2.24,2.24,0,0,1-1.19.54v18.25a2.13,2.13,0,0,1-1.54.7h-.27v-1.81H586.55v1.16c0,.25-.67.71-1.46.71h-.32V343.51l2,.91h3.91a28.38,28.38,0,0,0,1.06-4.5l3.07.54c-.08.35-.38.59-.94.62a21.45,21.45,0,0,1-2.35,3.34h7.61l1-1.16Zm-15.82.19v4.92h12.82v-4.92Zm0,5.7V356h12.82v-5.05Zm12.82,11v-5.15H586.55v5.15Z"/><path class="cls-1" d="M618,345.91a2.21,2.21,0,0,1-1.22.29,21.79,21.79,0,0,1-2.94,4.43c5.21,1.57,4.19,4.86,2.46,3.86a10.05,10.05,0,0,0-2.57-3.24V364c0,.16-.59.62-1.45.62H612V352.57a25.85,25.85,0,0,1-4.7,3.68l-.32-.3a29.6,29.6,0,0,0,7.88-10h-7l-.22-.76h4.32V340l2.68.3c-.06.38-.33.65-1,.73v4.1h1.27l1.19-1.13Zm12.12,15s1.46,1.16,2.32,2c0,.3-.32.43-.67.43h-15.8l-.21-.78h7.18V350.09h-5.37l-.22-.78h5.59v-9.23l2.78.32c0,.41-.3.68-.95.76v8.15H628l1.24-1.62s1.43,1.13,2.32,2c-.08.3-.32.43-.7.43h-6.16v12.47h4.08Z"/><path class="cls-1" d="M654.29,350.9l1.7-2.24s2,1.59,3.16,2.73c-.08.32-.38.43-.81.43H634.85l-.27-.92Z"/><path class="cls-1" d="M684.12,342.51s1.35,1.08,2.19,1.86c-.08.3-.3.43-.68.43h-4c-.08,1.16-.17,2.46-.27,3.48a2.63,2.63,0,0,1-1.84.22l.08-.73H667.36l-.11.78a2.32,2.32,0,0,1-1.81.14c.19-1.16.38-2.54.57-3.89h-4.32l-.21-.81h4.61c.19-1.38.33-2.67.41-3.62l1.94.89h11.44l.9-1.05,2.21,1.68a1.87,1.87,0,0,1-1.16.48l-.11,1.62h1.19Zm-22.24,21.7a31,31,0,0,0,8.83-3.78l2.26,1.62c-.18.27-.62.32-1.26.11a38.47,38.47,0,0,1-9.69,2.51Zm18.06-3.51v-.84H667.85v.73c0,.19-.73.62-1.49.62h-.3V348.8l2,.86H679.7l.94-1,2.08,1.6a1.9,1.9,0,0,1-1,.48v9.4a2.31,2.31,0,0,1-1.48.59Zm-12.2-15.9c-.08.73-.19,1.46-.27,2.16h5.29c.08-.62.13-1.38.21-2.16Zm.27-2.75c-.06.56-.11,1.21-.19,1.94h5.24c.05-.67.08-1.35.13-1.94Zm-.16,8.39v2.32h12.09v-2.32Zm12.09,3.11H667.85v2.35h12.09Zm0,5.5V356.7H667.85v2.35ZM679.72,347c.08-.7.14-1.43.19-2.16h-5.32c-.05.78-.13,1.54-.21,2.16Zm-4.91-4.91c0,.59-.08,1.27-.13,1.94H680c.06-.7.08-1.35.11-1.94ZM675.89,361c12.79.81,9.64,4.75,7.53,3.35a24.38,24.38,0,0,0-7.64-2.92Z"/><path class="cls-1" d="M690,349.09l.28-.59a29.3,29.3,0,0,1,3.61,1.13c1.65.68,2.65,1.65,2.65,2.67a.78.78,0,0,1-.79.84c-.83,0-1.26-1-2.67-2A18.84,18.84,0,0,0,690,349.09Zm19.93-1.51.62.41c-3.08,5.39-8.78,10.12-14.74,13.41-.54.33-.84,1-1.54,1a5.5,5.5,0,0,1-3.13-2,4.4,4.4,0,0,1-.6-1.81l.44-.24c.73.86,1.56,1.78,2.48,1.78C695.31,360.16,705.08,354.33,709.94,347.58Zm-16.31-3.67.3-.62a26.37,26.37,0,0,1,3.4,1.16c1.84.92,2.65,1.81,2.65,2.75a.81.81,0,0,1-.79.89c-.75,0-1.29-1.08-2.72-2.24A16.36,16.36,0,0,0,693.63,343.91Z"/><path class="cls-1" d="M716.88,344.4c.46.64,1,1.62,1.86,1.62a62.7,62.7,0,0,0,8.29-1.33c.57-.16.89-.67,1.27-.67.81,0,2.56,1.4,2.56,2s-.81.75-1.16,1.29a45.5,45.5,0,0,1-4.48,6.13c4.35,2,8.77,5,8.77,7.21a.89.89,0,0,1-.91,1c-.73,0-1.11-.86-2.54-2.48a24.11,24.11,0,0,0-6-5.05,32.87,32.87,0,0,1-11.44,8l-.41-.68c6.35-3.29,12.72-9.63,15.23-15.17.13-.35,0-.4-.33-.38-1.91.3-5.67,1.22-7.15,1.6-.84.21-.94.7-1.59.7s-1.87-1.16-2.19-1.86a4.88,4.88,0,0,1-.38-1.65Z"/><path class="cls-1" d="M738.51,348.63c.51.73,1,1.43,1.75,1.43,1.84,0,8.69-1,13.66-1.45,1.89-.19,2.32-.49,2.73-.49,1.1,0,2.64.59,2.64,1.38,0,.43-.16.67-.75.67-.44,0-1.46-.16-2.79-.16s-3.48.05-6,.3c.73.4,1.35.89,1.35,1.32s-.62.65-.92,1.46c-.94,2.83-2.67,7.34-9.15,10.9l-.54-.56c6.51-4.24,8-10.4,8-11.85a1.59,1.59,0,0,0-.46-1.08c-2.24.27-4.75.67-5.56.89a10.47,10.47,0,0,1-2.16.56c-.62,0-1.84-1.05-2.13-1.8a3.91,3.91,0,0,1-.19-1.33Zm4.13-5.69a4.15,4.15,0,0,0,2.61,1.05,23.87,23.87,0,0,0,4.86-.62c1.6-.35,1.95-.78,2.51-.78,1.16,0,2,.4,2,1.05,0,.4-.29.65-1.16.81a55.14,55.14,0,0,1-8.26,1c-1.37,0-2.13-.79-3-2.19Z"/><path class="cls-1" d="M774.33,352.17c3.08,1.86,6.56,5.64,6.56,8.53,0,.76-.4,1.27-1,1.27-.87,0-.81-1.22-1.84-3.59-4,.86-10.69,1.91-13.12,2.45-.56.11-1.1.79-1.56.79-.73,0-1.81-1.19-2.05-2a3.33,3.33,0,0,1-.08-1l.35-.19a2.45,2.45,0,0,0,1.46.65c.24,0,.72,0,1.37-.08,2-3.51,5.86-11.85,5.86-13.15,0-.59-.51-1.08-1.4-1.56l.18-.49a5.49,5.49,0,0,1,1.54.27c1.11.35,2.3,1.46,2.3,2.13,0,.46-.62.65-.92,1.22-1.24,2.56-4.13,8.23-6,11.44,3.38-.35,8.67-1,11.64-1.53a18.17,18.17,0,0,0-3.67-4.67Z"/><path class="cls-1" d="M792.07,352.71c-.56,1.4-1.8,4.45-2.1,5.48a7.23,7.23,0,0,0-.46,1.94c0,.79.54,1.65.54,2.3a.72.72,0,0,1-.78.81c-.49,0-.92-.43-1.27-1a12.27,12.27,0,0,1-1.57-6.05,24.2,24.2,0,0,1,1.3-7.12,16.22,16.22,0,0,0,.67-3.14,4.34,4.34,0,0,0-1.51-2.83l.43-.35a6.33,6.33,0,0,1,1.38.81c.57.46,1.76,1.7,1.76,2.83,0,.62-.38,1.11-1,2.73a16,16,0,0,0-1.73,6.61,4.21,4.21,0,0,0,.43,2.32c.16.33.35.38.6,0,.59-.94,2.1-4.32,2.7-5.69Zm2.7,2.32a10.84,10.84,0,0,0,.79,2.35c.91,1.59,2.34,2.54,5.66,2.54a25.42,25.42,0,0,0,4.59-.49c.73,0,1.43.24,1.43.86,0,1.08-2.51,1.41-5.42,1.41-4.21,0-6.51-1.41-7.32-4.16a8.71,8.71,0,0,1-.35-2.4Zm.3-8.45a13.8,13.8,0,0,1,6.45-1.67,8.91,8.91,0,0,1,3.75.57c.57.24.81.62.81.94s-.16.59-.73.68a7.23,7.23,0,0,0-2.21.51,45.89,45.89,0,0,0-4.43,2.45l-.45-.48c1.21-.87,3.13-2.27,3.69-2.75.33-.3.3-.49-1.48-.49a16.87,16.87,0,0,0-5.13.89Z"/><path class="cls-1" d="M820.21,349.42c0,1.24.11,4.8.27,6.93,0,.25,0,.49.08.71a16,16,0,0,1,3.89,1.24c1.67.75,4,2.16,4,3.56a.71.71,0,0,1-.78.78c-.81,0-1.67-1.54-4.26-3a11.54,11.54,0,0,0-2.62-1.08c0,.35,0,.73,0,1.18,0,2.27-1.7,3.78-5,3.78-2.81,0-4.78-1.21-4.78-3.13,0-2.51,3.13-3.64,6.37-3.64.62,0,1.22,0,1.76.08-.09-2-.33-5.78-.33-7.61s-.05-4.75-.11-5.29a.93.93,0,0,0-.73-1,7.56,7.56,0,0,0-1.89-.27l-.05-.57a6,6,0,0,1,2-.41c1.4,0,3.08.89,3.08,1.54s-.33.84-.54,1.65a20.69,20.69,0,0,0-.36,3.24c.3,0,.6,0,.79,0a14.94,14.94,0,0,0,3.48-.53,10.19,10.19,0,0,1,1.7-.6c1,0,1.57.35,1.57.95,0,.32-.3.64-1,.86a19.14,19.14,0,0,1-4.75.73,5,5,0,0,1-1.81-.51Zm-1,8.8a15.78,15.78,0,0,0-2.62-.22c-2.59,0-4.48,1-4.48,2.27,0,.94,1,1.7,3,1.7C818.45,362,819.18,360.78,819.21,358.22Z"/><path class="cls-1" d="M837,342.61c.35.79.7,1.6,1.4,1.6a36,36,0,0,0,5.7-1.22c.59-.19.67-.46,1-.46.81,0,2.3,1.14,2.3,1.87,0,.51-.62.54-1.57,1.37-1.38,1.14-5,4.62-6.18,6-.19.16-.08.38.13.27a13.38,13.38,0,0,1,4.65-.95c3.51,0,6.5,2.3,6.42,6.05,0,3.37-3.08,6.15-8.18,6.15-3,0-5.07-1.21-5.07-3.15a2.74,2.74,0,0,1,3-2.54,4.39,4.39,0,0,1,4.4,3.89c2.7-.76,4-2.65,4.1-4.76.09-2.37-1.72-4.75-5-4.75-3.89,0-6.62,2.43-8.88,5.35-.41.51-.62.67-1,.65s-.73-.41-.7-1.08c0-.49.27-.87.89-1.49,4.24-4.42,9.12-9.07,10.26-10.88.24-.4.08-.51-.25-.46a44.63,44.63,0,0,0-4.37,1.49c-.51.22-.89.62-1.32.62a2.81,2.81,0,0,1-2.24-1.94,3.67,3.67,0,0,1,0-1.51Zm6.48,19.12c-.35-2.08-1.68-3.16-3.21-3.16a1.51,1.51,0,0,0-1.68,1.43c0,.94,1.16,1.78,3.78,1.78C842.78,361.78,843.16,361.75,843.51,361.73Z"/><path class="cls-1" d="M859.14,343.37a14.14,14.14,0,0,1-4.18,3.7l-.33-.35a17.38,17.38,0,0,0,4.43-6.83l2.4,1.05c-.1.27-.43.46-1,.38-.24.43-.48.84-.75,1.24h4.51l1.13-1.38s1.24,1,2,1.76c-.09.3-.33.43-.71.43h-5c2.59,1.67,1.11,3.83-.16,2.7a6.3,6.3,0,0,0-.95-2.7Zm20,5c-.16.21-.49.24-1,.27a15,15,0,0,1-2.7,2.48l-.35-.19a26.39,26.39,0,0,0,1.08-2.59H858.63a4.66,4.66,0,0,1-1.13,3.43c-.57.54-1.52.67-1.87.11a1.19,1.19,0,0,1,.54-1.49,5.34,5.34,0,0,0,1.62-4.26h.49a13,13,0,0,1,.3,1.45h7.5V346c-.27.16-.54.32-.81.46l-.35-.35a17.81,17.81,0,0,0,4.45-6.24l2.41,1.11c-.14.27-.49.46-1.06.35a11.74,11.74,0,0,1-.89,1.24h5.56l1.22-1.51s1.37,1.05,2.26,1.89c-.08.3-.35.43-.72.43h-5.78c2.75,1.57,1.38,3.86,0,2.78a6.37,6.37,0,0,0-1.35-2.78h-1.86a16.67,16.67,0,0,1-2,1.86l1.6.16c0,.33-.27.57-.87.68v1.48h8.23l1.06-1.13Zm-4.78,8.47,2.11,1.57a1.94,1.94,0,0,1-1.06.48v5.05a2.31,2.31,0,0,1-1.46.57h-.29v-1.43h-11.8v.89a1.62,1.62,0,0,1-1.46.62h-.27V349.82l2,.84h10l.92-1,2,1.54a1.65,1.65,0,0,1-1,.48v4.05c0,.19-.92.57-1.51.57h-.24v-.95H861.84v2.43h11.55Zm-12.5-5.34v3.13h10.48v-3.13Zm11.8,10.77v-3.65h-11.8v3.65Z"/><path class="cls-1" d="M890.92,356.84c-2,1.05-4.78,2.59-8.31,4.37a1,1,0,0,1-.57.68l-.86-2.22c.78-.19,2.13-.64,3.8-1.18v-7.67H881.8l-.19-.76H885v-6.55h-3.26l-.19-.76h5.85l1.25-1.59a28,28,0,0,1,2.29,1.94c0,.3-.32.41-.7.41h-3.51v6.55h.75l1.08-1.56s1.27,1.13,2,1.89c0,.3-.29.43-.67.43h-3.16v7.07c1.27-.46,2.67-.94,4-1.43Zm13.55,4.35s1.51,1.18,2.38,2.05c-.08.27-.33.4-.71.4H888.57l-.21-.75H897v-4.75h-5.73l-.21-.81H897V353.2h-4.11v1.1c0,.22-.7.6-1.43.6h-.29V341l1.86.86h9.8l1-1.08,2.16,1.68a2.32,2.32,0,0,1-1.17.54v10.77a2.18,2.18,0,0,1-1.45.64h-.27V353.2h-4.38v4.13h3.46l1.27-1.6s1.4,1.14,2.24,2c-.06.3-.33.44-.7.44h-6.27v4.75h4.48Zm-11.61-18.58v4.49H897v-4.49Zm4.11,9.8v-4.5h-4.11v4.5Zm1.72-9.8v4.49h4.38v-4.49Zm4.38,9.8v-4.5h-4.38v4.5Z"/><path class="cls-1" d="M923.05,340.62c-.11.32-.43.46-1.11.54,2.35,3.13,6.94,6.07,11.47,7.69l0,.4a2.41,2.41,0,0,0-1.73,1.62c-4.37-2.05-8.34-5.66-10.2-9.42-2.46,3.7-7.75,7.78-12.85,9.88l-.19-.4c4.56-2.4,9.88-7.45,11.28-11.12Zm6.48,11.66s1.54,1.16,2.53,2.05c-.08.3-.35.4-.75.4H920a50.07,50.07,0,0,1-4.18,6.94c3.18-.19,7.15-.48,11.34-.75a29.26,29.26,0,0,0-3.54-3.92l.32-.21c8.69,3.88,7.45,9.09,5.1,7.53a10.49,10.49,0,0,0-1.48-2.84c-3.73.62-8.61,1.35-15.33,2.24a1,1,0,0,1-.7.57l-1.11-2.38c1.05,0,2.56-.08,4.37-.18a56,56,0,0,0,2.78-7H910l-.21-.75h18.38ZM925,347.45s1.51,1.16,2.49,2c-.09.3-.35.43-.73.43H914.38l-.21-.81h9.53Z"/><path class="cls-1" d="M946,345.91a2.19,2.19,0,0,1-1.21.29,22.29,22.29,0,0,1-2.95,4.43c5.21,1.57,4.19,4.86,2.46,3.86a10.15,10.15,0,0,0-2.56-3.24V364c0,.16-.6.62-1.46.62H940V352.57a25.85,25.85,0,0,1-4.7,3.68L935,356a29.48,29.48,0,0,0,7.88-10h-7l-.22-.76H940V340l2.68.3c-.06.38-.33.65-1,.73v4.1h1.27l1.19-1.13Zm12.12,15s1.46,1.16,2.32,2c-.05.3-.32.43-.67.43H944l-.22-.78h7.18V350.09h-5.37l-.22-.78h5.59v-9.23l2.78.32c-.05.41-.3.68-.94.76v8.15h3.29l1.24-1.62s1.43,1.13,2.32,2c-.08.3-.32.43-.7.43h-6.15v12.47h4.07Z"/></g></g></svg>