<svg xmlns="http://www.w3.org/2000/svg" viewBox="0 0 83.75 30"><defs><style>.cls-1{fill:#a2a2a2;}.cls-2{fill:#fff;}</style></defs><g id="レイヤー_2" data-name="レイヤー 2"><g id="navi"><rect class="cls-1" width="83.75" height="30"/><path class="cls-2" d="M16.17,16.56l0,2H10.35v-.35l1-.09c0-1,0-2,0-3v-.49c0-1,0-2,0-3l-1-.09v-.36h5.59v2h-.54L15,11.57H12.74c0,1,0,2,0,3h1.5l.15-1.09h.47V16h-.47L14.22,15H12.71c0,1.13,0,2.16,0,3.18h2.49l.39-1.6Z"/><path class="cls-2" d="M23.52,20.5a2.66,2.66,0,0,1-1.4.37,2.13,2.13,0,0,1-2.32-2.18,3.59,3.59,0,0,1-2.75-3.83c0-2.5,1.65-3.89,3.46-3.89S24,12.33,24,14.86a3.6,3.6,0,0,1-2.84,3.85,1.46,1.46,0,0,0,1.48,1.67,2.15,2.15,0,0,0,.8-.16Zm-3-2.15c1.34,0,2-1.54,2-3.49s-.63-3.48-2-3.48-2,1.56-2,3.48S19.17,18.35,20.51,18.35Z"/><path class="cls-2" d="M32.29,11.51l-1,.14,0,3.86c0,2.26-1,3.25-2.68,3.25s-2.81-.84-2.81-3.08V14.57c0-1,0-2,0-3l-.88-.09v-.36h3.34v.36l-1,.1c0,1,0,2,0,3v.93c0,1.84.66,2.5,1.81,2.5s1.88-.74,1.87-2.6l0-3.74-1.16-.15v-.36h2.67Z"/><path class="cls-2" d="M35.45,11.6c0,1,0,2,0,3v.49c0,1,0,2,0,3l.95.09v.35H33.06v-.35l.95-.09c0-1,0-2,0-3v-.49c0-1,0-2,0-3l-.95-.09v-.36H36.4v.36Z"/><path class="cls-2" d="M39.65,15.6c0,.78,0,1.64,0,2.52l1.07.1v.35H37.29v-.35l1-.09c0-1,0-2,0-3v-.49c0-1,0-2,0-3l-1-.09v-.36h3c2.11,0,3,.84,3,2.2s-.84,2.25-3.15,2.25Zm0-4.06c0,1,0,2,0,3.08v.59h.49a1.65,1.65,0,0,0,1.8-1.86c0-1.18-.56-1.81-1.73-1.81Z"/><path class="cls-2" d="M52.16,11.6c0,1,0,2,0,3v.49c0,1,0,2,0,3l1,.09v.35h-3.3v-.35l.92-.09c0-1,0-2,0-2.86l0-3.15-2.44,6.45h-.49l-2.51-6.41c0,1,0,2.33,0,2.75V18.1l1.05.12v.35h-2.6v-.35l1.06-.12,0-6.46-1.05-.13v-.36h2.44l2.22,5.64,2.16-5.64h2.4v.36Z"/><path class="cls-2" d="M59.84,16.56l0,2H54v-.35l.95-.09c0-1,0-2,0-3v-.49c0-1,0-2,0-3L54,11.51v-.36h5.59v2h-.54l-.38-1.54H56.41c0,1,0,2,0,3h1.5L58,13.51h.47V16H58L57.89,15H56.38c0,1.13,0,2.16,0,3.18H58.9l.39-1.6Z"/><path class="cls-2" d="M68,11.51l-.92.13-.05,7h-.69L62,12.39l0,5.7,1.28.13v.35h-2.7v-.35l.93-.12,0-6.29-.16-.21-.76-.09v-.36h2.11l3.92,5.44,0-4.94-1.29-.14v-.36H68Z"/><path class="cls-2" d="M72.58,11.57c0,1,0,2,0,3v.49c0,1,0,2,0,3l1.07.09v.35H70.08v-.35l1.07-.09c0-1,0-2,0-3v-.49c0-1,0-2,0-3H69.6l-.42,1.65h-.56l.07-2.07H75l.06,2.07h-.56l-.41-1.65Z"/></g></g></svg>