<svg xmlns="http://www.w3.org/2000/svg" viewBox="0 0 236.25 40"><defs><style>.cls-1{fill:#a2a2a2;}.cls-2{fill:#fff;}</style></defs><g id="レイヤー_2" data-name="レイヤー 2"><g id="navi"><rect class="cls-1" width="236.25" height="40"/><path class="cls-2" d="M52.12,25.07l0,3.22H42.81v-.56l1.52-.15c0-1.58,0-3.2,0-4.83V22c0-1.6,0-3.22,0-4.84L42.81,17v-.58h8.94l0,3.14h-.86l-.61-2.47H46.63c-.05,1.57-.05,3.17-.05,4.85H49l.23-1.74H50v4h-.76L49,22.54H46.58c0,1.81,0,3.46.05,5.09h4l.62-2.56Z"/><path class="cls-2" d="M63.31,27.68a7.06,7.06,0,0,1-3.57.91,5.83,5.83,0,0,1-6.2-6.24,5.93,5.93,0,0,1,6.26-6.23,6.48,6.48,0,0,1,3.38.9l0,2.77h-.92l-.7-2.74a3.69,3.69,0,0,0-1.44-.27c-2.37,0-4.16,1.84-4.16,5.59s1.76,5.57,4.16,5.57a4.14,4.14,0,0,0,1.57-.31l.7-2.7h.93Z"/><path class="cls-2" d="M75.8,22.35c0,4-2.61,6.24-5.52,6.24s-5.54-2.16-5.54-6.24,2.64-6.23,5.54-6.23S75.8,18.3,75.8,22.35Zm-5.52,5.59c2.15,0,3.15-2.47,3.15-5.59s-1-5.57-3.15-5.57-3.14,2.5-3.14,5.57S68.14,27.94,70.28,27.94Z"/><path class="cls-2" d="M91.55,21.39a11.18,11.18,0,0,1-1.91,4.11l2.11,2.2,1,.11v.49a6.38,6.38,0,0,1-1.51.23A3.07,3.07,0,0,1,89,27.7c-.26-.26-.5-.5-.72-.76a4.33,4.33,0,0,1-3.44,1.6c-2.36,0-3.68-1.47-3.68-3.18,0-1.44.83-2.59,2.77-3.49l-.21-.24a4.26,4.26,0,0,1-1.11-2.75c0-1.65,1.27-2.69,3.11-2.69s2.88.94,2.88,2.29-.88,2.11-2.66,3c.34.38.77.86,1.39,1.53.76.85,1.38,1.53,2,2.18a10.44,10.44,0,0,0,1.26-3.76l-1.46-.19v-.51h3.73v.51Zm-3.64,5.19c-.69-.76-1.31-1.49-1.89-2.16-.84-1-1.34-1.62-1.84-2.21A3.1,3.1,0,0,0,83,24.67a2.57,2.57,0,0,0,2.69,2.67A3.45,3.45,0,0,0,87.91,26.58Zm-3.71-8.2A3,3,0,0,0,85,20.3c.21.27.42.51.66.8a3.6,3.6,0,0,0,1.45-2.65c0-1-.52-1.62-1.39-1.62A1.47,1.47,0,0,0,84.2,18.38Z"/><path class="cls-2" d="M103,21.39c2.37,1,3.23,2,3.23,3.71,0,2.1-1.64,3.49-4.41,3.49a7.07,7.07,0,0,1-3.6-.94L98.34,25h.9l.67,2.58a4,4,0,0,0,1.73.32c1.63,0,2.62-.77,2.62-2.1,0-1.12-.54-1.68-2-2.27l-.73-.32c-2-.88-3.17-1.92-3.17-3.76,0-2.12,1.72-3.32,4.14-3.32a5.62,5.62,0,0,1,3.11.9l-.12,2.51h-.89L104,17.07a2.6,2.6,0,0,0-1.2-.24c-1.41,0-2.39.7-2.39,2s.66,1.74,1.84,2.25Z"/><path class="cls-2" d="M120.7,17.13c0,1.62,0,3.24,0,4.84v.78c0,1.62,0,3.23,0,4.83l1.54.15v.56H117v-.56l1.48-.15c0-1.58,0-3.18,0-4.57l0-5.05L114.6,28.29h-.78L109.8,18c0,1.6.08,3.73.08,4.4v5.11l1.68.19v.56H107.4v-.56l1.69-.19.07-10.34L107.48,17v-.58h3.9l3.56,9,3.45-9h3.85V17Z"/><path class="cls-2" d="M134.71,27.73v.56h-5.17v-.56l1.56-.18-1-3.1h-3.83l-.94,3.09,1.57.19v.56h-3.75v-.56l1.38-.19,3.65-11.18h1.39l3.82,11.22Zm-4.81-3.87-1.77-5.49-1.69,5.49Z"/><path class="cls-2" d="M146.68,27.73v.56a5.73,5.73,0,0,1-1.66.21c-1.3,0-2-.37-2.16-1.46l-.58-2.46c-.27-1.33-.72-1.88-2.05-1.88h-.88c0,1.68,0,3.3.05,4.88l1.55.15v.56H135.6v-.56l1.53-.15c0-1.58,0-3.2,0-4.83V22c0-1.6,0-3.22,0-4.84L135.6,17v-.58H141c2.74,0,4.28,1.14,4.28,3,0,1.36-.95,2.6-3.28,3a2.68,2.68,0,0,1,2.61,2.51l.65,2.69Zm-6.16-5.62a2.41,2.41,0,0,0,2.62-2.64A2.24,2.24,0,0,0,140.57,17H139.4c-.05,1.61-.05,3.23-.05,5.07Z"/><path class="cls-2" d="M153.53,17.08c0,1.61,0,3.24,0,4.89v.78c0,1.6,0,3.22,0,4.83l1.71.15v.56h-5.71v-.56l1.71-.15c0-1.58,0-3.2,0-4.83V22c0-1.62,0-3.27,0-4.89h-2.48l-.68,2.65h-.89l.11-3.32h10.16l.1,3.32h-.89L156,17.08Z"/><path class="cls-2" d="M171.69,24.83l0,3.46h-9l0-.56,1.5-.15c0-1.58,0-3.16,0-4.54V22c0-1.6,0-3.22,0-4.84L162.66,17v-.58h5.43V17l-1.6.16c-.05,1.58-.05,3.18-.05,4.69v1.07c0,1.49,0,3.11.05,4.72h3.65l.68-2.8Z"/><path class="cls-2" d="M176.85,17.13c0,1.6,0,3.2,0,4.84v.78c0,1.6,0,3.23,0,4.83l1.53.15v.56H173v-.56l1.52-.15c0-1.58,0-3.2,0-4.83V22c0-1.6,0-3.22,0-4.84L173,17v-.58h5.35V17Z"/><path class="cls-2" d="M183.62,17.08c-.05,1.57-.05,3.17-.05,4.85H186l.24-1.74H187v4.16h-.76L186,22.54h-2.45c0,1.78,0,3.43.05,5l1.71.16v.56H179.8v-.56l1.52-.15c0-1.58,0-3.2,0-4.83V22c0-1.6,0-3.22,0-4.84L179.8,17v-.58h9l0,3.14H188l-.61-2.47Z"/><path class="cls-2" d="M199.46,25.07l0,3.22h-9.27v-.56l1.52-.15c0-1.58,0-3.2,0-4.83V22c0-1.6,0-3.22,0-4.84L190.15,17v-.58h8.95v3.14h-.86l-.61-2.47H194c0,1.57,0,3.17,0,4.85h2.4l.24-1.74h.75v4h-.75l-.23-1.68h-2.41c0,1.81,0,3.46,0,5.09h4l.62-2.56Z"/></g></g></svg>