<svg xmlns="http://www.w3.org/2000/svg" viewBox="0 0 236.25 40"><defs><style>.cls-1{fill:#a2a2a2;}.cls-2{fill:#fff;}</style></defs><g id="レイヤー_2" data-name="レイヤー 2"><g id="navi"><rect class="cls-1" width="236.25" height="40"/><path class="cls-2" d="M67.39,21.39c2.37,1,3.23,2,3.23,3.71,0,2.1-1.65,3.49-4.42,3.49a7.12,7.12,0,0,1-3.6-.94L62.7,25h.89l.68,2.58a4,4,0,0,0,1.73.32c1.63,0,2.62-.77,2.62-2.1,0-1.12-.54-1.68-2-2.27l-.74-.32c-2-.88-3.17-1.92-3.17-3.76,0-2.12,1.73-3.32,4.15-3.32A5.57,5.57,0,0,1,70,17l-.11,2.51H69l-.67-2.46a2.58,2.58,0,0,0-1.2-.24c-1.41,0-2.38.7-2.38,2s.65,1.74,1.84,2.25Z"/><path class="cls-2" d="M78,17.08c0,1.61,0,3.24,0,4.89v.78c0,1.6,0,3.22,0,4.83l1.72.15v.56H74v-.56l1.72-.15c0-1.58,0-3.2,0-4.83V22c0-1.62,0-3.27,0-4.89H73.2l-.68,2.65h-.89l.11-3.32H81.9l.1,3.32h-.9l-.65-2.65Z"/><path class="cls-2" d="M94.16,27.73v.56a5.76,5.76,0,0,1-1.67.21c-1.29,0-2-.37-2.16-1.46l-.57-2.46c-.27-1.33-.72-1.88-2.05-1.88h-.88c0,1.68,0,3.3,0,4.88l1.55.15v.56H83.08v-.56l1.52-.15c0-1.58,0-3.2,0-4.83V22c0-1.6,0-3.22,0-4.84L83.08,17v-.58h5.41c2.74,0,4.28,1.14,4.28,3,0,1.36-1,2.6-3.28,3a2.68,2.68,0,0,1,2.6,2.51l.66,2.69ZM88,22.11a2.41,2.41,0,0,0,2.62-2.64c0-1.55-.86-2.43-2.58-2.43H86.88c0,1.61,0,3.23,0,5.07Z"/><path class="cls-2" d="M106.88,17l-1.62.22-.06,6.18c0,3.62-1.6,5.2-4.29,5.2s-4.5-1.34-4.5-4.93V21.89c0-1.57,0-3.17,0-4.76L95,17v-.58h5.35V17l-1.63.16c0,1.55,0,3.15,0,4.74v1.49c0,2.94,1.06,4,2.9,4s3-1.19,3-4.17l-.05-6L102.61,17v-.58h4.27Z"/><path class="cls-2" d="M117.92,27.68a7.06,7.06,0,0,1-3.57.91,5.83,5.83,0,0,1-6.2-6.24,5.93,5.93,0,0,1,6.26-6.23,6.48,6.48,0,0,1,3.38.9l0,2.77h-.91l-.71-2.74a3.69,3.69,0,0,0-1.44-.27c-2.37,0-4.16,1.84-4.16,5.59s1.76,5.57,4.16,5.57a4.11,4.11,0,0,0,1.57-.31l.7-2.7h.93Z"/><path class="cls-2" d="M125.29,17.08c0,1.61,0,3.24,0,4.89v.78c0,1.6,0,3.22,0,4.83l1.71.15v.56h-5.71v-.56l1.71-.15c0-1.58,0-3.2,0-4.83V22c0-1.62,0-3.27,0-4.89h-2.48l-.67,2.65H119l.12-3.32h10.16l.1,3.32h-.9l-.66-2.65Z"/><path class="cls-2" d="M142.25,17l-1.61.22-.07,6.18c0,3.62-1.6,5.2-4.29,5.2s-4.49-1.34-4.49-4.93V21.89c0-1.57,0-3.17,0-4.76L130.33,17v-.58h5.35V17l-1.64.16c0,1.55,0,3.15,0,4.74v1.49c0,2.94,1.05,4,2.89,4s3-1.19,3-4.17l0-6L138,17v-.58h4.27Z"/><path class="cls-2" d="M154.56,27.73v.56a5.76,5.76,0,0,1-1.67.21c-1.29,0-2-.37-2.16-1.46l-.57-2.46c-.28-1.33-.72-1.88-2-1.88h-.88c0,1.68,0,3.3.05,4.88l1.55.15v.56h-5.35v-.56l1.52-.15c0-1.58,0-3.2,0-4.83V22c0-1.6,0-3.22,0-4.84L143.48,17v-.58h5.41c2.74,0,4.28,1.14,4.28,3,0,1.36-.95,2.6-3.29,3a2.68,2.68,0,0,1,2.61,2.51l.66,2.69Zm-6.16-5.62A2.41,2.41,0,0,0,151,19.47c0-1.55-.86-2.43-2.58-2.43h-1.16c-.05,1.61-.05,3.23-.05,5.07Z"/><path class="cls-2" d="M164.75,25.07l-.05,3.22h-9.27v-.56l1.52-.15c0-1.58,0-3.2,0-4.83V22c0-1.6,0-3.22,0-4.84L155.43,17v-.58h8.95l0,3.14h-.87l-.61-2.47h-3.66c0,1.57,0,3.17,0,4.85h2.4l.24-1.74h.75v4h-.75l-.22-1.68h-2.42c0,1.81,0,3.46,0,5.09h4l.62-2.56Z"/></g></g></svg>