<svg xmlns="http://www.w3.org/2000/svg" viewBox="0 0 236.25 40"><defs><style>.cls-1{fill:#009145;}.cls-2{fill:#fff;}</style></defs><g id="レイヤー_2" data-name="レイヤー 2"><g id="navi"><rect class="cls-1" width="236.25" height="40"/><path class="cls-2" d="M97.18,24.9l-.1,3.39H88v-.67l6.49-10.54H89.91l-.72,2.65h-1l.18-3.32H97v.71L90.47,27.63h5.09l.77-2.73Z"/><path class="cls-2" d="M107.66,25.07l0,3.22H98.34v-.56l1.52-.15c0-1.58,0-3.2,0-4.83V22c0-1.6,0-3.22,0-4.84L98.34,17v-.58h9v3.14h-.86l-.61-2.47h-3.66c0,1.57,0,3.17,0,4.85h2.4l.24-1.74h.75v4h-.75l-.23-1.68h-2.41c0,1.81,0,3.46,0,5.09h4l.63-2.56Z"/><path class="cls-2" d="M119.94,17.13c0,1.6,0,3.2,0,4.84v.78c0,1.6,0,3.23,0,4.83l1.52.15v.56H116.2v-.56l1.46-.13c0-1.58,0-3.22,0-5.07h-4.9c0,1.84,0,3.47,0,5.07l1.45.13v.56H109v-.56l1.52-.15c0-1.58,0-3.2,0-4.83V22c0-1.6,0-3.22,0-4.82L109,17v-.58h5.26V17l-1.45.14c0,1.57,0,3.17,0,4.77h4.9c0-1.58,0-3.18,0-4.77L116.2,17v-.58h5.26V17Z"/><path class="cls-2" d="M122.9,23.23h4.43v1.09H122.9Z"/><path class="cls-2" d="M141.82,17.13c0,1.62,0,3.24,0,4.84v.78c0,1.62,0,3.23,0,4.83l1.53.15v.56h-5.28v-.56l1.47-.15c.05-1.58,0-3.18.05-4.57l0-5.05-3.9,10.33h-.79l-4-10.26c0,1.6.08,3.73.08,4.4v5.11l1.68.19v.56h-4.16v-.56l1.69-.19.07-10.34L128.6,17v-.58h3.9l3.55,9,3.46-9h3.84V17Z"/></g></g></svg>