<svg xmlns="http://www.w3.org/2000/svg" viewBox="0 0 83.75 30"><defs><style>.cls-1{fill:#009145;}.cls-2{fill:#fff;}</style></defs><g id="レイヤー_2" data-name="レイヤー 2"><g id="navi"><rect class="cls-1" width="83.75" height="30"/><path class="cls-2" d="M24.23,15.5a2.66,2.66,0,0,1-1.4.37,2.13,2.13,0,0,1-2.32-2.18,3.59,3.59,0,0,1-2.75-3.83c0-2.5,1.65-3.89,3.46-3.89s3.45,1.36,3.45,3.89a3.6,3.6,0,0,1-2.84,3.85,1.46,1.46,0,0,0,1.48,1.67,2.15,2.15,0,0,0,.8-.16Zm-3-2.15c1.34,0,2-1.54,2-3.49s-.63-3.48-2-3.48-2,1.56-2,3.48S19.88,13.35,21.22,13.35Z"/><path class="cls-2" d="M33,6.51l-1,.14,0,3.86c0,2.26-1,3.25-2.68,3.25s-2.81-.84-2.81-3.08V9.57c0-1,0-2,0-3l-.88-.09V6.15h3.34v.36l-1,.1c0,1,0,2,0,3v.93c0,1.84.66,2.5,1.81,2.5s1.88-.74,1.87-2.6l0-3.74-1.16-.15V6.15H33Z"/><path class="cls-2" d="M40.67,13.22v.35H37.44v-.35l1-.11-.63-1.94H35.39L34.8,13.1l1,.12v.35H33.44v-.35l.86-.12,2.28-7h.87l2.39,7Zm-3-2.42-1.1-3.43L35.5,10.8Z"/><path class="cls-2" d="M46.87,11.41l0,2.16H41.23v-.35l.94-.09c0-1,0-2,0-2.84V9.62c0-1,0-2,0-3l-1-.09V6.15h3.39v.36l-1,.1c0,1,0,2,0,2.93v.67c0,.93,0,1.94,0,2.95H45.9l.43-1.75Z"/><path class="cls-2" d="M50.1,6.6c0,1,0,2,0,3v.49c0,1,0,2,0,3l.95.09v.35H47.71v-.35l.95-.09c0-1,0-2,0-3V9.62c0-1,0-2,0-3l-.95-.09V6.15h3.34v.36Z"/><path class="cls-2" d="M55.67,6.57c0,1,0,2,0,3v.49c0,1,0,2,0,3l1.07.09v.35H53.17v-.35l1.07-.09c0-1,0-2,0-3V9.62c0-1,0-2,0-3H52.69l-.42,1.65h-.56l.07-2.07h6.35l.06,2.07h-.56l-.41-1.65Z"/><path class="cls-2" d="M62.64,10.47c0,1.23,0,1.9,0,2.66l1.08.09v.35H60.16v-.35l1.07-.09c0-.72,0-1.35,0-2.47l-2-4.08-.66-.07V6.15h3.28v.36l-1,.11,1.58,3.43L64,6.64l-1-.13V6.15h2.4v.36l-.88.13Z"/><path class="cls-2" d="M23.87,19.86c0,2.51-1.63,3.9-3.45,3.9S17,22.41,17,19.86,18.61,16,20.42,16,23.87,17.33,23.87,19.86Zm-3.45,3.49c1.34,0,2-1.54,2-3.49s-.63-3.47-2-3.47-2,1.55-2,3.47S19.08,23.35,20.42,23.35Z"/><path class="cls-2" d="M27.19,16.57c0,1,0,2,0,3h1.53l.15-1.09h.47v2.6h-.47L28.69,20H27.16c0,1.11,0,2.14,0,3.14l1.07.1v.35H24.8v-.35l.95-.09c0-1,0-2,0-3v-.49c0-1,0-2,0-3l-.95-.09v-.35h5.64v1.95h-.54l-.38-1.54Z"/><path class="cls-2" d="M37.51,16.57c0,1,0,2,0,3.05v.49c0,1,0,2,0,3l1.07.09v.35H35v-.35l1.07-.09c0-1,0-2,0-3v-.49c0-1,0-2,0-3.05H34.53l-.42,1.65h-.56l.07-2.06H40L40,18.22h-.56l-.41-1.65Z"/><path class="cls-2" d="M47.62,23.22v.35a3.51,3.51,0,0,1-1,.13c-.8,0-1.23-.23-1.34-.91l-.36-1.54c-.17-.83-.45-1.17-1.28-1.17h-.55c0,1.05,0,2.06,0,3.05l1,.09v.35H40.71v-.35l.95-.09c0-1,0-2,0-3v-.49c0-1,0-2,0-3l-.95-.09v-.35h3.38c1.71,0,2.66.7,2.66,1.89,0,.85-.58,1.62-2,1.85a1.66,1.66,0,0,1,1.62,1.57l.42,1.68Zm-3.84-3.51a1.5,1.5,0,0,0,1.64-1.65,1.4,1.4,0,0,0-1.61-1.52h-.73c0,1,0,2,0,3.17Z"/><path class="cls-2" d="M55.57,16.51l-1,.15,0,3.85c0,2.26-1,3.25-2.67,3.25S49,22.92,49,20.68V19.57c0-1,0-2,0-3l-.88-.09v-.35h3.34v.35l-1,.11c0,1,0,2,0,2.95v.93c0,1.84.66,2.5,1.81,2.5s1.87-.74,1.86-2.6l0-3.74-1.15-.15v-.35h2.66Z"/><path class="cls-2" d="M59.39,19.26c1.48.64,2,1.24,2,2.32,0,1.31-1,2.18-2.76,2.18a4.39,4.39,0,0,1-2.25-.59l.06-1.66H57l.42,1.61a2.51,2.51,0,0,0,1.08.2c1,0,1.64-.48,1.64-1.31s-.34-1.05-1.22-1.42l-.46-.2c-1.26-.55-2-1.2-2-2.35,0-1.32,1.08-2.06,2.59-2.06a3.55,3.55,0,0,1,1.94.55L61,18.1H60.4L60,16.56a1.65,1.65,0,0,0-.75-.15c-.88,0-1.49.44-1.49,1.23s.41,1.09,1.15,1.41Z"/><path class="cls-2" d="M66,16.57c0,1,0,2,0,3.05v.49c0,1,0,2,0,3l1.07.09v.35H63.5v-.35l1.07-.09c0-1,0-2,0-3v-.49c0-1,0-2,0-3.05H63l-.42,1.65H62l.07-2.06h6.34l.06,2.06H68l-.42-1.65Z"/></g></g></svg>