<?xml version="1.0" encoding="utf-8"?>
<!-- Generator: Adobe Illustrator 24.1.1, SVG Export Plug-In . SVG Version: 6.00 Build 0)  -->
<svg version="1.1" id="レイヤー_1" xmlns="http://www.w3.org/2000/svg" xmlns:xlink="http://www.w3.org/1999/xlink" x="0px"
	 y="0px" viewBox="0 0 236.3 40" style="enable-background:new 0 0 236.3 40;" xml:space="preserve">
<style type="text/css">
	.st0{fill:#009145;}
	.st1{fill:#FFFFFF;}
	.st2{fill:#A2A2A2;}
</style>
<rect class="st0" width="236.3" height="40"/>
<path class="st1" d="M52.1,25.1v3.2h-9.3v-0.6l1.5-0.1c0-1.6,0-3.2,0-4.8V22c0-1.6,0-3.2,0-4.8L42.8,17v-0.6h8.9v3.1h-0.9l-0.6-2.5
	h-3.6c0,1.6,0,3.2,0,4.9H49l0.2-1.7H50v4h-0.8L49,22.5h-2.4c0,1.8,0,3.5,0,5.1h4l0.6-2.6L52.1,25.1z"/>
<path class="st1" d="M63.3,27.7c-1.1,0.6-2.3,0.9-3.6,0.9c-3.2,0.2-6-2.2-6.2-5.4c0-0.3,0-0.5,0-0.8c-0.2-3.3,2.3-6.1,5.6-6.2
	c0.2,0,0.4,0,0.6,0c1.2,0,2.4,0.3,3.4,0.9v2.8h-0.9l-0.7-2.7c-0.5-0.2-0.9-0.3-1.4-0.3c-2.4,0-4.2,1.8-4.2,5.6s1.8,5.6,4.2,5.6
	c0.5,0,1.1-0.1,1.6-0.3l0.7-2.7h0.9L63.3,27.7z"/>
<path class="st1" d="M75.8,22.4c0,4-2.6,6.2-5.5,6.2s-5.5-2.2-5.5-6.2s2.6-6.2,5.5-6.2S75.8,18.3,75.8,22.4z M70.3,27.9
	c2.2,0,3.2-2.5,3.2-5.6s-1-5.6-3.2-5.6s-3.1,2.5-3.1,5.6S68.1,27.9,70.3,27.9z"/>
<path class="st1" d="M91.6,21.4c-0.3,1.5-1,2.9-1.9,4.1l2.1,2.2l1,0.1v0.5c-0.5,0.1-1,0.2-1.5,0.2c-0.8,0-1.6-0.3-2.2-0.8
	c-0.3-0.3-0.5-0.5-0.7-0.8c-0.8,1-2.1,1.6-3.4,1.6c-2.4,0-3.7-1.5-3.7-3.2c0-1.4,0.8-2.6,2.8-3.5l-0.2-0.2c-0.7-0.8-1.1-1.7-1.1-2.8
	c0-1.6,1.3-2.7,3.1-2.7s2.9,0.9,2.9,2.3s-0.9,2.1-2.7,3c0.3,0.4,0.8,0.9,1.4,1.5c0.8,0.9,1.4,1.5,2,2.2c0.7-1.2,1.1-2.4,1.3-3.8
	l-1.5-0.2v-0.5h3.7v0.5L91.6,21.4z M87.9,26.6c-0.7-0.8-1.3-1.5-1.9-2.2c-0.8-1-1.3-1.6-1.8-2.2c-0.8,0.6-1.2,1.5-1.2,2.5
	c-0.1,1.4,1,2.6,2.5,2.7c0.1,0,0.2,0,0.2,0C86.5,27.4,87.3,27.1,87.9,26.6z M84.2,18.4c0,0.7,0.3,1.4,0.8,1.9
	c0.2,0.3,0.4,0.5,0.7,0.8c0.8-0.6,1.4-1.6,1.4-2.6c0-1-0.5-1.6-1.4-1.6c-0.8,0-1.5,0.6-1.5,1.4C84.2,18.3,84.2,18.3,84.2,18.4z"/>
<path class="st1" d="M103,21.4c2.4,1,3.2,2,3.2,3.7c0,2.1-1.6,3.5-4.4,3.5c-1.3,0-2.5-0.3-3.6-0.9l0.1-2.6h0.9l0.7,2.6
	c0.5,0.2,1.1,0.3,1.7,0.3c1.6,0,2.6-0.8,2.6-2.1c0-1.1-0.5-1.7-2-2.3l-0.7-0.3c-2-0.9-3.2-1.9-3.2-3.8c0-2.1,1.7-3.3,4.1-3.3
	c1.1,0,2.2,0.3,3.1,0.9l-0.1,2.5h-0.9l-0.6-2.5c-0.4-0.2-0.8-0.3-1.2-0.2c-1.4,0-2.4,0.7-2.4,2s0.7,1.7,1.8,2.3L103,21.4z"/>
<path class="st1" d="M120.7,17.1c0,1.6,0,3.2,0,4.8v0.8c0,1.6,0,3.2,0,4.8l1.5,0.1v0.6H117v-0.6l1.5-0.1c0-1.6,0-3.2,0-4.6V18
	l-3.9,10.3h-0.8l-4-10.3c0,1.6,0.1,3.7,0.1,4.4v5.1l1.7,0.2v0.6h-4.2v-0.6l1.7-0.2l0.1-10.3l-1.7-0.2v-0.6h3.9l3.6,9l3.4-9h3.8V17
	L120.7,17.1z"/>
<path class="st1" d="M134.7,27.7v0.6h-5.2v-0.6l1.6-0.2l-1-3.1h-3.8l-0.9,3.1l1.6,0.2v0.6h-3.8v-0.6l1.4-0.2l3.6-11.2h1.4l3.8,11.2
	L134.7,27.7z M129.9,23.9l-1.8-5.5l-1.7,5.5H129.9z"/>
<path class="st1" d="M146.7,27.7v0.6c-0.5,0.2-1.1,0.2-1.7,0.2c-1.3,0-2-0.4-2.2-1.5l-0.6-2.5c-0.3-1.3-0.7-1.9-2.1-1.9h-0.9
	c0,1.7,0,3.3,0.1,4.9l1.6,0.1v0.6h-5.3v-0.6l1.5-0.1c0-1.6,0-3.2,0-4.8V22c0-1.6,0-3.2,0-4.8l-1.5-0.2v-0.6h5.4c2.7,0,4.3,1.1,4.3,3
	c0,1.4-0.9,2.6-3.3,3c1.4,0,2.5,1.1,2.6,2.5l0.6,2.7L146.7,27.7z M140.5,22.1c1.3,0.1,2.5-0.9,2.6-2.2c0-0.2,0-0.3,0-0.5
	c0.1-1.2-0.7-2.3-2-2.5c-0.2,0-0.4,0-0.6,0h-1.2c-0.1,1.6-0.1,3.2-0.1,5.1L140.5,22.1z"/>
<path class="st1" d="M153.5,17.1c0,1.6,0,3.2,0,4.9v0.8c0,1.6,0,3.2,0,4.8l1.7,0.1v0.6h-5.7v-0.6l1.7-0.1c0-1.6,0-3.2,0-4.8V22
	c0-1.6,0-3.3,0-4.9h-2.5l-0.7,2.6h-0.9l0.1-3.3h10.2l0.1,3.3h-0.9l-0.7-2.7H153.5z"/>
<path class="st1" d="M171.7,24.8v3.5h-9v-0.6l1.5-0.1c0-1.6,0-3.2,0-4.5v-1c0-1.6,0-3.2,0-4.8l-1.5-0.2v-0.6h5.4V17l-1.6,0.2
	c-0.1,1.6-0.1,3.2-0.1,4.7v1.1c0,1.5,0,3.1,0.1,4.7h3.6l0.7-2.8L171.7,24.8z"/>
<path class="st1" d="M176.9,17.1c0,1.6,0,3.2,0,4.8v0.8c0,1.6,0,3.2,0,4.8l1.5,0.1v0.6H173v-0.6l1.5-0.1c0-1.6,0-3.2,0-4.8V22
	c0-1.6,0-3.2,0-4.8L173,17v-0.6h5.4V17L176.9,17.1z"/>
<path class="st1" d="M183.6,17.1c-0.1,1.6-0.1,3.2-0.1,4.9h2.4l0.2-1.7h0.8v4.2h-0.8l-0.2-1.8h-2.4c0,1.8,0,3.4,0.1,5l1.7,0.2v0.6
	h-5.5v-0.6l1.5-0.1c0-1.6,0-3.2,0-4.8V22c0-1.6,0-3.2,0-4.8l-1.5-0.2v-0.6h9v3.1H188l-0.6-2.5L183.6,17.1z"/>
<path class="st1" d="M199.5,25.1v3.2h-9.3v-0.6l1.5-0.1c0-1.6,0-3.2,0-4.8V22c0-1.6,0-3.2,0-4.8l-1.6-0.2v-0.6h8.9v3.1h-0.9
	l-0.6-2.5H194c0,1.6,0,3.2,0,4.9h2.4l0.2-1.7h0.8v4h-0.8l-0.2-1.7H194c0,1.8,0,3.5,0,5.1h4l0.6-2.6L199.5,25.1z"/>
<g>
	<g>
		<rect x="451.8" y="-229.5" class="st2" width="236.3" height="40"/>
		<rect x="210.5" y="-229.5" class="st2" width="236.3" height="40"/>
		<rect x="-30.8" y="-229.5" class="st2" width="236.3" height="40"/>
		<rect x="-272" y="-229.5" class="st0" width="236.3" height="40"/>
		<rect x="451.8" y="-184.5" class="st2" width="236.3" height="40"/>
		<rect x="210.5" y="-184.5" class="st2" width="236.3" height="40"/>
		<rect x="-30.8" y="-184.5" class="st2" width="236.3" height="40"/>
		<rect x="-272" y="-184.5" class="st2" width="236.3" height="40"/>
	</g>
	<g>
		
			<text transform="matrix(1 0 0 1 -253.7131 -201.2236)" class="st1" style="font-family:'NotoSerifJP-Bold-90ms-RKSJ-H'; font-size:16px;">SKILLFULLY PLANNING</text>
	</g>
	<g>
		
			<text transform="matrix(1 0 0 1 56.8855 -201.2236)" class="st1" style="font-family:'NotoSerifJP-Bold-90ms-RKSJ-H'; font-size:16px;">ZEH-M</text>
	</g>
	<g>
		
			<text transform="matrix(1 0 0 1 266.822 -201.2236)" class="st1" style="font-family:'NotoSerifJP-Bold-90ms-RKSJ-H'; font-size:16px;">SMART HEMS</text>
	</g>
	<g>
		
			<text transform="matrix(1 0 0 1 510.7576 -201.2236)" class="st1" style="font-family:'NotoSerifJP-Bold-90ms-RKSJ-H'; font-size:16px;">EQUIPMENT</text>
	</g>
	<g>
		
			<text transform="matrix(1 0 0 1 -229.9138 -156.2236)" class="st1" style="font-family:'NotoSerifJP-Bold-90ms-RKSJ-H'; font-size:16px;">ECO &amp; SMART LIFE</text>
	</g>
	<g>
		
			<text transform="matrix(1 0 0 1 -8.4573 -156.2236)" class="st1" style="font-family:'NotoSerifJP-Bold-90ms-RKSJ-H'; font-size:16px;">AMENITY &amp; SECURITY</text>
	</g>
	<g>
		
			<text transform="matrix(1 0 0 1 272.302 -156.2236)" class="st1" style="font-family:'NotoSerifJP-Bold-90ms-RKSJ-H'; font-size:16px;">STRUCTURE</text>
	</g>
	<g>
		
			<text transform="matrix(1 0 0 1 480.7742 -156.2236)" class="st1" style="font-family:'NotoSerifJP-Bold-90ms-RKSJ-H'; font-size:16px;">QUALITY OF TRUST</text>
	</g>
</g>
</svg>
