<svg xmlns="http://www.w3.org/2000/svg" viewBox="0 0 83.75 30"><defs><style>.cls-1{fill:#a2a2a2;}.cls-2{fill:#fff;}</style></defs><g id="レイヤー_2" data-name="レイヤー 2"><g id="navi"><rect class="cls-1" width="83.75" height="30"/><path class="cls-2" d="M13.48,14.26c1.48.64,2,1.24,2,2.32,0,1.31-1,2.18-2.76,2.18a4.39,4.39,0,0,1-2.25-.59l.06-1.66h.56l.42,1.61a2.51,2.51,0,0,0,1.08.2c1,0,1.64-.48,1.64-1.31S13.91,16,13,15.59l-.46-.2c-1.26-.55-2-1.2-2-2.35,0-1.32,1.08-2.07,2.59-2.07a3.47,3.47,0,0,1,1.94.56l-.07,1.57h-.56l-.42-1.54a1.65,1.65,0,0,0-.75-.15c-.88,0-1.49.44-1.49,1.23s.41,1.09,1.15,1.41Z"/><path class="cls-2" d="M20.09,11.57c0,1,0,2,0,3v.49c0,1,0,2,0,3l1.07.09v.35H17.59v-.35l1.07-.09c0-1,0-2,0-3v-.49c0-1,0-2,0-3H17.11l-.42,1.65h-.56l.08-2.07h6.34l.06,2.07h-.56l-.41-1.65Z"/><path class="cls-2" d="M30.21,18.22v.35a3.51,3.51,0,0,1-1,.13c-.81,0-1.24-.23-1.35-.91l-.36-1.54c-.17-.83-.45-1.17-1.28-1.17h-.55c0,1,0,2.06,0,3l1,.09v.35H23.29v-.35l.95-.09c0-1,0-2,0-3v-.49c0-1,0-2,0-3l-.95-.09v-.36h3.38c1.71,0,2.67.71,2.67,1.9,0,.85-.59,1.62-2.05,1.85a1.68,1.68,0,0,1,1.63,1.57l.41,1.68Zm-3.85-3.51A1.5,1.5,0,0,0,28,13.06a1.4,1.4,0,0,0-1.61-1.52h-.73c0,1,0,2,0,3.17Z"/><path class="cls-2" d="M38.16,11.51l-1,.14,0,3.86c0,2.26-1,3.25-2.68,3.25s-2.81-.84-2.81-3.08V14.57c0-1,0-2,0-3l-.88-.09v-.36h3.34v.36l-1,.1c0,1,0,2,0,3v.93c0,1.84.66,2.5,1.81,2.5s1.88-.74,1.87-2.6l0-3.74-1.16-.15v-.36h2.67Z"/><path class="cls-2" d="M45.06,18.19a4.42,4.42,0,0,1-2.23.57A3.64,3.64,0,0,1,39,14.86,3.7,3.7,0,0,1,42.87,11a4.07,4.07,0,0,1,2.11.56l0,1.73h-.57L44,11.55a2.29,2.29,0,0,0-.9-.17c-1.48,0-2.6,1.15-2.6,3.49s1.1,3.48,2.6,3.48a2.59,2.59,0,0,0,1-.19l.44-1.69h.58Z"/><path class="cls-2" d="M49.67,11.57c0,1,0,2,0,3v.49c0,1,0,2,0,3l1.07.09v.35H47.17v-.35l1.07-.09c0-1,0-2,0-3v-.49c0-1,0-2,0-3H46.69l-.42,1.65h-.56l.07-2.07h6.35l.06,2.07h-.56l-.41-1.65Z"/><path class="cls-2" d="M60.27,11.51l-1,.14,0,3.86c0,2.26-1,3.25-2.68,3.25s-2.81-.84-2.81-3.08V14.57c0-1,0-2,0-3l-.88-.09v-.36h3.34v.36l-1,.1c0,1,0,2,0,3v.93c0,1.84.66,2.5,1.81,2.5s1.88-.74,1.87-2.6l0-3.74-1.16-.15v-.36h2.67Z"/><path class="cls-2" d="M68,18.22v.35a3.51,3.51,0,0,1-1,.13c-.81,0-1.24-.23-1.35-.91l-.36-1.54c-.17-.83-.45-1.17-1.28-1.17h-.55c0,1,0,2.06,0,3l1,.09v.35H61v-.35l1-.09c0-1,0-2,0-3v-.49c0-1,0-2,0-3l-1-.09v-.36h3.38c1.71,0,2.67.71,2.67,1.9,0,.85-.59,1.62-2,1.85a1.68,1.68,0,0,1,1.63,1.57l.41,1.68Zm-3.85-3.51a1.5,1.5,0,0,0,1.64-1.65,1.4,1.4,0,0,0-1.61-1.52h-.73c0,1,0,2,0,3.17Z"/><path class="cls-2" d="M74.33,16.56l0,2H68.51v-.35l.95-.09c0-1,0-2,0-3v-.49c0-1,0-2,0-3l-.95-.09v-.36H74.1v2h-.54l-.38-1.54H70.9c0,1,0,2,0,3h1.5l.15-1.09H73V16h-.47L72.38,15H70.87c0,1.13,0,2.16,0,3.18h2.49l.39-1.6Z"/></g></g></svg>