<svg xmlns="http://www.w3.org/2000/svg" viewBox="0 0 236.25 40"><defs><style>.cls-1{fill:#009145;}.cls-2{fill:#fff;}</style></defs><g id="レイヤー_2" data-name="レイヤー 2"><g id="navi"><rect class="cls-1" width="236.25" height="40"/><path class="cls-2" d="M61.91,21.39c2.37,1,3.23,2,3.23,3.71,0,2.1-1.65,3.49-4.42,3.49a7.12,7.12,0,0,1-3.6-.94l.1-2.66h.9l.67,2.58a4,4,0,0,0,1.73.32c1.63,0,2.62-.77,2.62-2.1,0-1.12-.54-1.68-2-2.27l-.74-.32c-2-.88-3.17-1.92-3.17-3.76,0-2.12,1.73-3.32,4.15-3.32a5.57,5.57,0,0,1,3.1.9l-.11,2.51h-.89l-.68-2.46a2.58,2.58,0,0,0-1.2-.24c-1.41,0-2.38.7-2.38,2s.65,1.74,1.84,2.25Z"/><path class="cls-2" d="M79.58,17.13c0,1.62,0,3.24,0,4.84v.78c0,1.62,0,3.23,0,4.83l1.53.15v.56H75.83v-.56l1.47-.15c0-1.58,0-3.18,0-4.57l0-5.05-3.9,10.33h-.79L68.67,18c0,1.6.08,3.73.08,4.4v5.11l1.69.19v.56H66.27v-.56l1.7-.19L68,17.2,66.35,17v-.58h3.91l3.55,9,3.46-9h3.84V17Z"/><path class="cls-2" d="M93.59,27.73v.56H88.42v-.56L90,27.55l-1-3.1H85.14l-.94,3.09,1.56.19v.56H82v-.56l1.37-.19L87,16.36h1.4l3.82,11.22Zm-4.82-3.87L87,18.37l-1.69,5.49Z"/><path class="cls-2" d="M105.56,27.73v.56a5.76,5.76,0,0,1-1.67.21c-1.29,0-2-.37-2.16-1.46l-.57-2.46c-.28-1.33-.72-1.88-2-1.88h-.88c0,1.68,0,3.3,0,4.88l1.55.15v.56H94.48v-.56L96,27.58c0-1.58,0-3.2,0-4.83V22c0-1.6,0-3.22,0-4.84L94.48,17v-.58h5.41c2.74,0,4.28,1.14,4.28,3,0,1.36-1,2.6-3.29,3a2.68,2.68,0,0,1,2.61,2.51l.66,2.69ZM99.4,22.11A2.41,2.41,0,0,0,102,19.47c0-1.55-.86-2.43-2.58-2.43H98.28c0,1.61,0,3.23,0,5.07Z"/><path class="cls-2" d="M112.4,17.08c0,1.61,0,3.24,0,4.89v.78c0,1.6,0,3.22,0,4.83l1.72.15v.56H108.4v-.56l1.72-.15c0-1.58,0-3.2,0-4.83V22c0-1.62,0-3.27,0-4.89h-2.49L107,19.73h-.89l.11-3.32h10.16l.1,3.32h-.9l-.65-2.65Z"/><path class="cls-2" d="M132.45,17.13c0,1.6,0,3.2,0,4.84v.78c0,1.6,0,3.23,0,4.83l1.52.15v.56h-5.26v-.56l1.46-.13c0-1.58,0-3.22,0-5.07h-4.9c0,1.84,0,3.47,0,5.07l1.45.13v.56h-5.26v-.56l1.52-.15c0-1.58,0-3.2,0-4.83V22c0-1.6,0-3.22,0-4.82L121.54,17v-.58h5.26V17l-1.45.14c0,1.57,0,3.17,0,4.77h4.9c0-1.58,0-3.18,0-4.77L128.71,17v-.58H134V17Z"/><path class="cls-2" d="M144.73,25.07l0,3.22h-9.27v-.56l1.52-.15c0-1.58,0-3.2,0-4.83V22c0-1.6,0-3.22,0-4.84L135.41,17v-.58h9v3.14h-.86l-.61-2.47h-3.66c-.05,1.57-.05,3.17-.05,4.85h2.4l.24-1.74h.75v4h-.75l-.23-1.68h-2.41c0,1.81,0,3.46.05,5.09h4l.62-2.56Z"/><path class="cls-2" d="M159.16,17.13c0,1.62,0,3.24,0,4.84v.78c0,1.62,0,3.23,0,4.83l1.54.15v.56h-5.29v-.56l1.48-.15c0-1.58,0-3.18,0-4.57L157,18l-3.91,10.33h-.78l-4-10.26c.05,1.6.08,3.73.08,4.4v5.11l1.68.19v.56h-4.16v-.56l1.69-.19.07-10.34L145.94,17v-.58h3.9l3.56,9,3.45-9h3.85V17Z"/><path class="cls-2" d="M167,21.39c2.36,1,3.23,2,3.23,3.71,0,2.1-1.65,3.49-4.42,3.49a7.09,7.09,0,0,1-3.6-.94l.1-2.66h.89l.67,2.58a4,4,0,0,0,1.73.32c1.64,0,2.63-.77,2.63-2.1,0-1.12-.55-1.68-1.95-2.27l-.74-.32c-2-.88-3.17-1.92-3.17-3.76,0-2.12,1.73-3.32,4.14-3.32a5.6,5.6,0,0,1,3.11.9l-.11,2.51h-.9l-.67-2.46a2.6,2.6,0,0,0-1.2-.24c-1.41,0-2.39.7-2.39,2s.66,1.74,1.85,2.25Z"/></g></g></svg>