<svg xmlns="http://www.w3.org/2000/svg" viewBox="0 0 83.75 30"><defs><style>.cls-1{fill:#009145;}.cls-2{fill:#fff;}</style></defs><g id="レイヤー_2" data-name="レイヤー 2"><g id="navi"><rect class="cls-1" width="83.75" height="30"/><path class="cls-2" d="M11.42,10.26c1.48.64,2,1.24,2,2.32,0,1.31-1,2.18-2.76,2.18a4.39,4.39,0,0,1-2.25-.59l.06-1.66h.56l.42,1.61a2.51,2.51,0,0,0,1.08.2c1,0,1.64-.48,1.64-1.31s-.34-1-1.22-1.42l-.46-.2c-1.26-.55-2-1.2-2-2.35C8.53,7.72,9.61,7,11.12,7a3.47,3.47,0,0,1,1.94.56L13,9.1h-.56L12,7.56a1.65,1.65,0,0,0-.75-.15c-.88,0-1.49.44-1.49,1.23s.41,1.09,1.15,1.41Z"/><path class="cls-2" d="M21.53,14.22v.35H18.47v-.35l.8-.08-1.78-3.33-.88,1.07c0,.68,0,1.45,0,2.25l.88.09v.35H14.3v-.35l.95-.09c0-1,0-2,0-3v-.49c0-1,0-2,0-3l-.95-.09V7.15h3.29v.36l-1,.1c0,1,0,2,0,3v.71l2.92-3.68-1-.14V7.15h2.57v.36l-1,.14-1.74,2.1,2.42,4.4Z"/><path class="cls-2" d="M24.33,7.6c0,1,0,2,0,3v.49c0,1,0,2,0,3l1,.09v.35H21.94v-.35l.95-.09c0-1,0-2,0-3v-.49c0-1,0-2,0-3l-.95-.09V7.15h3.34v.36Z"/><path class="cls-2" d="M31.81,12.41l0,2.16H26.17v-.35l.94-.09c0-1,0-2,0-2.84v-.67c0-1,0-2,0-3l-.95-.09V7.15h3.39v.36l-1,.1c0,1,0,2,0,2.93v.67c0,.93,0,1.94,0,2.95h2.28l.43-1.75Z"/><path class="cls-2" d="M38.29,12.41l0,2.16H32.65l0-.35.93-.09c0-1,0-2,0-2.84v-.67c0-1,0-2,0-3l-1-.09V7.15H36v.36l-1,.1c0,1,0,2,0,2.93v.67c0,.93,0,1.94,0,2.95h2.28l.43-1.75Z"/><path class="cls-2" d="M41.52,7.57c0,1,0,2,0,3H43l.15-1.09h.47v2.6h-.47L43,11H41.49c0,1.11,0,2.14,0,3.14l1.07.1v.35H39.13v-.35l.95-.09c0-1,0-2,0-3v-.49c0-1,0-2,0-3l-.95-.09V7.15h5.64v2h-.54l-.38-1.54Z"/><path class="cls-2" d="M53,7.51l-1,.14,0,3.86c0,2.26-1,3.25-2.68,3.25s-2.81-.84-2.81-3.08V10.57c0-1,0-2,0-3l-.88-.09V7.15h3.34v.36l-1,.1c0,1,0,2,0,3v.93c0,1.84.66,2.5,1.81,2.5s1.88-.74,1.87-2.6l0-3.74-1.16-.15V7.15H53Z"/><path class="cls-2" d="M59.41,12.41l0,2.16H53.77v-.35l.94-.09c0-1,0-2,0-2.84v-.67c0-1,0-2,0-3l-.95-.09V7.15h3.39v.36l-1,.1c0,1,0,2,0,2.93v.67c0,.93,0,1.94,0,2.95h2.28l.43-1.75Z"/><path class="cls-2" d="M65.89,12.41l0,2.16H60.25v-.35l.94-.09c0-1,0-2,0-2.84v-.67c0-1,0-2,0-3l-1-.09V7.15h3.39v.36l-1,.1c0,1,0,2,0,2.93v.67c0,.93,0,1.94,0,2.95h2.28l.43-1.75Z"/><path class="cls-2" d="M70.5,11.47c0,1.23,0,1.9,0,2.66l1.08.09v.35H68v-.35l1.07-.09c0-.72,0-1.35,0-2.47l-2-4.08-.66-.07V7.15h3.28v.36l-1,.11,1.58,3.43,1.57-3.41-1-.13V7.15h2.4v.36l-.88.13Z"/><path class="cls-2" d="M16.23,21.6c0,.78,0,1.64,0,2.52l1.07.1v.35H13.87v-.35l1-.09c0-1,0-2,0-3v-.49c0-1,0-2,0-3l-1-.09v-.35h3c2.11,0,3,.83,3,2.19S19,21.6,16.7,21.6Zm0-4.06c0,1,0,2,0,3.08v.59h.49a1.65,1.65,0,0,0,1.8-1.86c0-1.18-.56-1.81-1.73-1.81Z"/><path class="cls-2" d="M26.22,22.41l0,2.16H20.58v-.35l.94-.09c0-1,0-2,0-2.84v-.67c0-1,0-2,0-3l-1-.09v-.35H24v.35l-1,.11c0,1,0,2,0,2.92v.67c0,.93,0,1.94,0,2.95h2.28l.43-1.75Z"/><path class="cls-2" d="M34,24.22v.35H30.73v-.35l1-.11-.63-1.94H28.68l-.59,1.93,1,.12v.35H26.73v-.35l.86-.12,2.28-7h.87l2.39,7ZM31,21.8l-1.1-3.43L28.79,21.8Z"/><path class="cls-2" d="M41.86,17.51l-.92.13,0,7H40.2l-4.42-6.22,0,5.7,1.28.13v.35h-2.7v-.35l.93-.12,0-6.29-.16-.21-.76-.09v-.35h2.11l3.92,5.43,0-4.93-1.29-.15v-.35h2.7Z"/><path class="cls-2" d="M50,17.51l-.91.13-.05,7h-.69l-4.42-6.22,0,5.7,1.28.13v.35h-2.7v-.35l.93-.12.05-6.29-.16-.21-.76-.09v-.35h2.11l3.92,5.43,0-4.93-1.29-.15v-.35H50Z"/><path class="cls-2" d="M53.21,17.6c0,1,0,2,0,3v.49c0,1,0,2,0,3l.95.09v.35H50.82v-.35l1-.09c0-1,0-2,0-3v-.49c0-1,0-2,0-3l-1-.09v-.35h3.34v.35Z"/><path class="cls-2" d="M62.38,17.51l-.91.13,0,7h-.69l-4.42-6.22,0,5.7,1.28.13v.35h-2.7v-.35l.93-.12,0-6.29-.16-.21L55,17.51v-.35h2.11L61,22.59l0-4.93-1.29-.15v-.35h2.69Z"/><path class="cls-2" d="M70.17,21.32l-.65.08c0,.7,0,1.42,0,2.21v.49a4.58,4.58,0,0,1-2.42.66,3.65,3.65,0,0,1-3.85-3.91A3.67,3.67,0,0,1,67.14,17a4.15,4.15,0,0,1,2.18.55l0,1.72h-.59l-.42-1.66a2.22,2.22,0,0,0-1-.2c-1.5,0-2.6,1.17-2.6,3.47s1.06,3.49,2.54,3.49a3.34,3.34,0,0,0,.91-.12v-.65c0-.73,0-1.43,0-2.15L67,21.32V21h3.13Z"/></g></g></svg>