<svg xmlns="http://www.w3.org/2000/svg" viewBox="0 0 83.75 30"><defs><style>.cls-1{fill:#a2a2a2;}.cls-2{fill:#fff;}</style></defs><g id="レイヤー_2" data-name="レイヤー 2"><g id="navi"><rect class="cls-1" width="83.75" height="30"/><path class="cls-2" d="M19,13.79v.35l-3.22-.06v-.35l1-.09-.59-2-2.39,0-.62,1.91,1,.14v.35l-2.34,0v-.35l.86-.11L15,6.62l.86,0,2.26,7.05Zm-3-2.47L15,7.87l-1.12,3.41Z"/><path class="cls-2" d="M27.83,7.34c0,1,0,2-.06,3v.49c0,1,0,2-.05,3l1,.11v.35l-3.3-.06v-.35l.92-.07c.05-1,.05-2,.08-2.86l.08-3.15-2.56,6.4H23.4L21,7.77c0,1,0,2.33,0,2.75L21,13.71l1,.14v.35l-2.6,0V13.8l1.07-.1.16-6.45L19.58,7.1V6.74l2.43,0,2.12,5.68,2.26-5.6,2.4,0v.36Z"/><path class="cls-2" d="M35.42,12.44l-.07,2-5.78-.11V14l.95-.07c0-1,.06-2,.08-3v-.49c0-1,0-2,0-3l-.95-.11V6.92L35.29,7l0,2h-.54l-.35-1.55-2.29,0c0,1-.06,2-.08,3l1.5,0,.17-1.08h.47l0,2.51h-.47l-.12-1.06L32,10.8C32,11.93,32,13,32,14l2.49,0,.42-1.59Z"/><path class="cls-2" d="M43.71,7.54l-.92.12-.18,7h-.69l-4.3-6.3L37.54,14l1.28.15v.35l-2.69,0v-.35l.93-.1.17-6.29-.16-.21-.75-.1V7.05l2.11,0,3.82,5.51.06-4.94L41,7.49V7.13l2.7.06Z"/><path class="cls-2" d="M46.91,7.69c0,1-.07,2-.08,3v.49c0,1,0,2,0,3l1,.11v.35l-3.34-.06v-.35l1-.08c0-1,.06-2,.08-3v-.49c0-1,0-2,0-3l-.95-.11V7.2l3.34.06v.36Z"/><path class="cls-2" d="M52.48,7.77c0,1-.06,2-.08,3.05v.49c0,1,0,2,0,3l1.07.11v.35l-3.57-.06v-.35l1.07-.07c0-1,0-2,.07-3v-.49c0-1,0-2,0-3l-1.55,0-.45,1.64h-.56l.11-2.06L55,7.39l0,2.07h-.56L54,7.8Z"/><path class="cls-2" d="M59.38,11.8c0,1.22,0,1.89,0,2.65l1.07.11v.35l-3.58-.06V14.5l1.07-.07c0-.72,0-1.35.06-2.47L56.05,7.84l-.66-.08V7.4l3.28.06v.36l-1,.09,1.52,3.46L60.8,8l-1-.15V7.48l2.39,0v.36L61.33,8Z"/><path class="cls-2" d="M71.54,10.81a6.88,6.88,0,0,1-1.23,2.55l1.29,1.39.63.08,0,.31a4,4,0,0,1-.94.12,1.89,1.89,0,0,1-1.41-.54l-.44-.48a2.71,2.71,0,0,1-2.16,1,2.07,2.07,0,0,1-2.27-2c0-.9.55-1.61,1.77-2.15l-.12-.15A2.64,2.64,0,0,1,66,9.14,1.71,1.71,0,0,1,68,7.5c1.17,0,1.79.62,1.77,1.46s-.57,1.31-1.69,1.82c.2.24.47.54.85,1s.84,1,1.22,1.38a6.41,6.41,0,0,0,.84-2.33L70,10.66v-.32l2.33.05v.32ZM69.22,14c-.42-.48-.81-.95-1.16-1.37l-1.12-1.4a1.92,1.92,0,0,0-.78,1.52,1.6,1.6,0,0,0,1.65,1.7A2.17,2.17,0,0,0,69.22,14ZM67,8.85a1.92,1.92,0,0,0,.45,1.21l.4.5a2.24,2.24,0,0,0,.94-1.64c0-.64-.31-1-.85-1A.92.92,0,0,0,67,8.85Z"/><path class="cls-2" d="M18.82,19.83c1.47.67,2,1.28,2,2.36,0,1.31-1.07,2.16-2.8,2.13a4.54,4.54,0,0,1-2.24-.63L15.85,22h.56l.39,1.61a2.37,2.37,0,0,0,1.08.22c1,0,1.64-.44,1.66-1.27s-.32-1.06-1.19-1.45l-.46-.2c-1.25-.58-2-1.24-1.93-2.39,0-1.32,1.11-2,2.62-2a3.43,3.43,0,0,1,1.93.6l-.1,1.56h-.56l-.39-1.54a1.66,1.66,0,0,0-.75-.17c-.88,0-1.49.41-1.51,1.2s.39,1.1,1.13,1.43Z"/><path class="cls-2" d="M27.48,22.29l-.07,2-5.79-.11v-.35l.95-.07c0-1,.06-2,.08-3v-.49c0-1,0-2,0-3l-.95-.11v-.36l5.59.1,0,2h-.54l-.35-1.54-2.29-.05c-.05,1-.07,2-.09,3l1.5,0,.17-1.09h.47l0,2.52h-.47l-.12-1.05-1.51,0c0,1.13,0,2.16,0,3.18l2.49,0,.42-1.59Z"/><path class="cls-2" d="M34.43,24.05a4.35,4.35,0,0,1-2.24.53,3.64,3.64,0,0,1-3.79-4,3.7,3.7,0,0,1,4-3.81,4,4,0,0,1,2.1.6l-.06,1.72h-.56l-.41-1.71a2.3,2.3,0,0,0-.9-.19c-1.48,0-2.62,1.1-2.66,3.44s1,3.5,2.53,3.52a2.39,2.39,0,0,0,1-.17l.48-1.68h.58Z"/><path class="cls-2" d="M42.83,17.53l-1,.12-.11,3.86c-.05,2.26-1.06,3.23-2.74,3.2s-2.79-.9-2.75-3.13l0-1.11c0-1,0-2,0-3l-.88-.11V17l3.33.06v.36l-1,.09c-.05,1-.07,2-.09,2.95l0,.93c0,1.84.62,2.51,1.77,2.53s1.89-.7,1.91-2.56l0-3.74-1.15-.17v-.36l2.67.05Z"/><path class="cls-2" d="M50.4,24.38v.35a3.57,3.57,0,0,1-1,.11c-.81,0-1.23-.25-1.33-.93l-.33-1.55c-.16-.83-.43-1.18-1.26-1.19h-.55c0,1.05,0,2.05,0,3l1,.11v.35l-3.34-.06v-.35l1-.07c0-1,.05-2,.07-3v-.49c0-1,0-2,0-3l-1-.1v-.36l3.37.06c1.71,0,2.66.76,2.64,1.95,0,.85-.62,1.6-2.09,1.81a1.67,1.67,0,0,1,1.6,1.6l.38,1.68ZM46.62,20.8a1.51,1.51,0,0,0,1.67-1.62,1.41,1.41,0,0,0-1.58-1.55H46c0,1-.07,2-.09,3.17Z"/><path class="cls-2" d="M53.46,17.82c0,1-.06,2-.08,3v.49c0,1,0,2,0,3l.95.11v.35L51,24.74v-.35l.95-.07c0-1,.06-2,.08-3v-.49c0-1,0-2,0-3l-.94-.11v-.36l3.34.07v.36Z"/><path class="cls-2" d="M59,17.89c0,1-.05,2-.07,3.05v.49c0,1,0,2,0,3l1.07.11v.35l-3.57-.07v-.35l1.07-.07c0-1,.05-2,.07-3v-.49c0-1,0-2,0-3l-1.54,0-.46,1.64h-.55l.1-2.07,6.35.12,0,2.07H61l-.38-1.66Z"/><path class="cls-2" d="M65.93,21.92c0,1.23,0,1.9,0,2.66l1.08.11V25L63.39,25v-.35l1.07-.07c0-.72,0-1.35.07-2.47L62.6,18,62,17.89v-.36l3.28.06V18l-1,.09,1.52,3.46,1.63-3.38-1-.15v-.36l2.4,0V18l-.88.12Z"/></g></g></svg>