<svg xmlns="http://www.w3.org/2000/svg" viewBox="0 0 236.25 40"><defs><style>.cls-1{fill:#a2a2a2;}.cls-2{fill:#fff;}</style></defs><g id="レイヤー_2" data-name="レイヤー 2"><g id="navi"><rect class="cls-1" width="236.25" height="40"/><path class="cls-2" d="M23.87,21.39c2.37,1,3.24,2,3.24,3.71,0,2.1-1.65,3.49-4.42,3.49a7.07,7.07,0,0,1-3.6-.94L19.18,25h.9l.67,2.58a4,4,0,0,0,1.73.32c1.63,0,2.63-.77,2.63-2.1,0-1.12-.55-1.68-2-2.27l-.73-.32c-2-.88-3.17-1.92-3.17-3.76,0-2.12,1.73-3.32,4.14-3.32a5.6,5.6,0,0,1,3.11.9l-.11,2.51h-.9l-.67-2.46a2.6,2.6,0,0,0-1.2-.24c-1.41,0-2.39.7-2.39,2s.66,1.74,1.84,2.25Z"/><path class="cls-2" d="M40.05,27.73v.56h-4.9v-.56l1.28-.13-2.85-5.33L32.18,24c0,1.09,0,2.32,0,3.6l1.41.15v.56H28.48v-.56L30,27.58c0-1.58,0-3.2,0-4.83V22c0-1.6,0-3.22,0-4.84L28.48,17v-.58h5.27V17l-1.54.16c0,1.58,0,3.2,0,4.82V23.1l4.67-5.89L35.31,17v-.58h4.12V17l-1.67.22L35,20.57l3.87,7.05Z"/><path class="cls-2" d="M44.53,17.13c-.05,1.6-.05,3.2-.05,4.84v.78c0,1.6,0,3.23.05,4.83l1.52.15v.56H40.7v-.56l1.52-.15c0-1.58,0-3.2,0-4.83V22c0-1.6,0-3.22,0-4.84L40.7,17v-.58h5.35V17Z"/><path class="cls-2" d="M56.5,24.83l0,3.46h-9l0-.56,1.5-.15C49,26,49,24.42,49,23V22c0-1.6,0-3.22,0-4.84L47.47,17v-.58H52.9V17l-1.6.16c0,1.58,0,3.18,0,4.69v1.07c0,1.49,0,3.11,0,4.72H55l.68-2.8Z"/><path class="cls-2" d="M66.87,24.83l0,3.46h-9v-.56l1.51-.15c0-1.58,0-3.16,0-4.54V22c0-1.6,0-3.22,0-4.84L57.84,17v-.58h5.42V17l-1.6.16c0,1.58,0,3.18,0,4.69v1.07c0,1.49,0,3.11,0,4.72h3.65l.69-2.8Z"/><path class="cls-2" d="M72,17.08c0,1.57,0,3.17,0,4.85h2.45l.24-1.74h.76v4.16h-.76l-.24-1.81H72c0,1.78,0,3.43,0,5l1.71.16v.56H68.21v-.56l1.52-.15c0-1.58,0-3.2,0-4.83V22c0-1.6,0-3.22,0-4.84L68.21,17v-.58h9l0,3.14h-.86l-.61-2.47Z"/><path class="cls-2" d="M90.4,17l-1.61.22-.07,6.18c0,3.62-1.6,5.2-4.29,5.2s-4.5-1.34-4.5-4.93V21.89c0-1.57,0-3.17,0-4.76L78.48,17v-.58h5.34V17l-1.63.16c0,1.55,0,3.15,0,4.74v1.49c0,2.94,1.06,4,2.9,4s3-1.19,3-4.17l0-6L86.13,17v-.58H90.4Z"/><path class="cls-2" d="M100.66,24.83l0,3.46h-9l0-.56,1.5-.15c0-1.58,0-3.16,0-4.54V22c0-1.6,0-3.22,0-4.84L91.63,17v-.58h5.43V17l-1.6.16c0,1.58,0,3.18,0,4.69v1.07c0,1.49,0,3.11,0,4.72H99.1l.69-2.8Z"/><path class="cls-2" d="M111,24.83l0,3.46h-9v-.56l1.51-.15c0-1.58,0-3.16,0-4.54V22c0-1.6,0-3.22,0-4.84L102,17v-.58h5.42V17l-1.6.16c0,1.58,0,3.18,0,4.69v1.07c0,1.49,0,3.11,0,4.72h3.65l.69-2.8Z"/><path class="cls-2" d="M118.4,23.33c0,2,0,3,0,4.25l1.73.15v.56h-5.73v-.56l1.71-.15c0-1.15,0-2.16,0-3.95L113,17.1,111.9,17v-.58h5.25V17l-1.63.18,2.53,5.49,2.51-5.46L119,17v-.58h3.84V17l-1.41.21Z"/><path class="cls-2" d="M131.38,23.54c0,1.24,0,2.62,0,4l1.71.16v.56H127.6v-.56l1.52-.15c0-1.58,0-3.2,0-4.83V22c0-1.6,0-3.22,0-4.84L127.6,17v-.58h4.77c3.37,0,4.8,1.35,4.8,3.52,0,2-1.35,3.61-5,3.61Zm0-6.5c0,1.61,0,3.26,0,4.93v.94h.78c2,0,2.88-1.22,2.88-3s-.9-2.89-2.77-2.89Z"/><path class="cls-2" d="M147.36,24.83l0,3.46h-9l0-.56,1.5-.15c0-1.58,0-3.16,0-4.54V22c0-1.6,0-3.22,0-4.84L138.33,17v-.58h5.43V17l-1.6.16c0,1.58,0,3.18,0,4.69v1.07c0,1.49,0,3.11,0,4.72h3.65l.69-2.8Z"/><path class="cls-2" d="M159.75,27.73v.56h-5.17v-.56l1.55-.18-1-3.1h-3.83l-.94,3.09,1.57.19v.56h-3.75v-.56l1.38-.19,3.65-11.18h1.39l3.83,11.22Zm-4.82-3.87-1.76-5.49-1.7,5.49Z"/><path class="cls-2" d="M172.38,17l-1.47.21-.08,11.15h-1.1l-7.08-10,0,9.12,2.05.21v.56h-4.32v-.56l1.49-.19L162,17.47l-.26-.34L160.52,17v-.58h3.38l6.28,8.71-.05-7.91L168.06,17v-.58h4.32Z"/><path class="cls-2" d="M185.42,17,184,17.2l-.08,11.15h-1.1l-7.08-10,.05,9.12,2,.21v.56h-4.32v-.56l1.49-.19L175,17.47l-.26-.34L173.56,17v-.58h3.38l6.28,8.71-.05-7.91L181.1,17v-.58h4.32Z"/><path class="cls-2" d="M190.54,17.13c0,1.6,0,3.2,0,4.84v.78c0,1.6,0,3.23,0,4.83l1.52.15v.56h-5.34v-.56l1.52-.15c0-1.58,0-3.2,0-4.83V22c0-1.6,0-3.22,0-4.84L186.72,17v-.58h5.34V17Z"/><path class="cls-2" d="M205.23,17l-1.47.21-.08,11.15h-1.1l-7.08-10,.05,9.12,2,.21v.56h-4.32v-.56l1.48-.19.08-10.07-.25-.34L193.37,17v-.58h3.38L203,25.12l0-7.91L200.91,17v-.58h4.32Z"/><path class="cls-2" d="M217.7,23.09l-1.06.12c0,1.13,0,2.28,0,3.54v.79a7.38,7.38,0,0,1-3.88,1.05c-3.68,0-6.16-2.43-6.16-6.26a5.9,5.9,0,0,1,6.26-6.21,6.69,6.69,0,0,1,3.49.88l0,2.77h-.95l-.67-2.65a3.35,3.35,0,0,0-1.55-.34c-2.4,0-4.16,1.89-4.16,5.57,0,3.49,1.69,5.59,4.06,5.59a5.72,5.72,0,0,0,1.46-.19V26.7c0-1.16,0-2.28,0-3.44l-1.76-.17v-.56h5Z"/></g></g></svg>