<svg xmlns="http://www.w3.org/2000/svg" viewBox="0 0 236.25 40"><defs><style>.cls-1{fill:#009145;}.cls-2{fill:#fff;}</style></defs><g id="レイヤー_2" data-name="レイヤー 2"><g id="navi"><rect class="cls-1" width="236.25" height="40"/><path class="cls-2" d="M34.06,27.73v.56H28.89v-.56l1.55-.18-1-3.1H25.61l-.95,3.09,1.57.19v.56H22.48v-.56l1.38-.19,3.65-11.18H28.9l3.83,11.22Zm-4.82-3.87-1.76-5.49-1.7,5.49Z"/><path class="cls-2" d="M48,17.13c0,1.62,0,3.24,0,4.84v.78c0,1.62,0,3.23,0,4.83l1.54.15v.56H44.26v-.56l1.48-.15c0-1.58,0-3.18,0-4.57l0-5.05L41.91,28.29h-.78L37.11,18c0,1.6.08,3.73.08,4.4v5.11l1.68.19v.56H34.71v-.56l1.7-.19.06-10.34L34.79,17v-.58h3.9l3.56,9,3.46-9h3.84V17Z"/><path class="cls-2" d="M60.3,25.07l0,3.22H51v-.56l1.52-.15c0-1.58,0-3.2,0-4.83V22c0-1.6,0-3.22,0-4.84L51,17v-.58h9v3.14h-.86l-.61-2.47H54.81c-.05,1.57-.05,3.17-.05,4.85h2.4l.24-1.74h.75v4H57.4l-.22-1.68H54.76c0,1.81,0,3.46.05,5.09h4l.63-2.56Z"/><path class="cls-2" d="M73.42,17,72,17.2l-.08,11.15H70.76l-7.07-10,0,9.12,2.05.21v.56H61.46v-.56L63,27.54,63,17.47l-.26-.34L61.56,17v-.58h3.37l6.28,8.71,0-7.91L69.1,17v-.58h4.32Z"/><path class="cls-2" d="M78.53,17.13c0,1.6,0,3.2,0,4.84v.78c0,1.6,0,3.23,0,4.83l1.52.15v.56H74.71v-.56l1.52-.15c0-1.58,0-3.2,0-4.83V22c0-1.6,0-3.22,0-4.84L74.71,17v-.58h5.34V17Z"/><path class="cls-2" d="M87.45,17.08c0,1.61,0,3.24,0,4.89v.78c0,1.6,0,3.22,0,4.83l1.71.15v.56H83.44v-.56l1.72-.15c0-1.58,0-3.2,0-4.83V22c0-1.62,0-3.27,0-4.89H82.68L82,19.73h-.89l.11-3.32H91.38l.1,3.32h-.9l-.65-2.65Z"/><path class="cls-2" d="M98.6,23.33c0,2,0,3,0,4.25l1.73.15v.56H94.63v-.56l1.71-.15c0-1.15,0-2.16,0-3.95L93.16,17.1,92.1,17v-.58h5.25V17l-1.63.18,2.53,5.49,2.51-5.46L99.17,17v-.58H103V17l-1.41.21Z"/><path class="cls-2" d="M118,21.39a11.18,11.18,0,0,1-1.91,4.11l2.12,2.2,1,.11,0,.49a6.31,6.31,0,0,1-1.5.23,3.08,3.08,0,0,1-2.28-.83c-.25-.26-.49-.5-.72-.76a4.33,4.33,0,0,1-3.44,1.6c-2.35,0-3.68-1.47-3.68-3.18,0-1.44.83-2.59,2.77-3.49l-.21-.24a4.24,4.24,0,0,1-1.1-2.75c0-1.65,1.26-2.69,3.1-2.69s2.88.94,2.88,2.29-.88,2.11-2.65,3c.33.38.76.86,1.39,1.53.75.85,1.37,1.53,2,2.18a10.25,10.25,0,0,0,1.26-3.76l-1.45-.19v-.51h3.73v.51Zm-3.63,5.19c-.69-.76-1.32-1.49-1.89-2.16-.85-1-1.35-1.62-1.84-2.21a3.07,3.07,0,0,0-1.2,2.46,2.56,2.56,0,0,0,2.69,2.67A3.47,3.47,0,0,0,114.41,26.58Zm-3.72-8.2a3,3,0,0,0,.75,1.92c.21.27.42.51.66.8a3.58,3.58,0,0,0,1.46-2.65c0-1-.53-1.62-1.39-1.62A1.47,1.47,0,0,0,110.69,18.38Z"/><path class="cls-2" d="M129.52,21.39c2.37,1,3.24,2,3.24,3.71,0,2.1-1.65,3.49-4.42,3.49a7.07,7.07,0,0,1-3.6-.94l.09-2.66h.9l.67,2.58a4,4,0,0,0,1.73.32c1.63,0,2.63-.77,2.63-2.1,0-1.12-.55-1.68-2-2.27l-.73-.32c-2-.88-3.17-1.92-3.17-3.76,0-2.12,1.73-3.32,4.14-3.32a5.6,5.6,0,0,1,3.11.9L132,19.53h-.9l-.67-2.46a2.6,2.6,0,0,0-1.2-.24c-1.41,0-2.39.7-2.39,2s.66,1.74,1.84,2.25Z"/><path class="cls-2" d="M143.45,25.07l0,3.22h-9.27v-.56l1.52-.15c0-1.58,0-3.2,0-4.83V22c0-1.6,0-3.22,0-4.84L134.13,17v-.58h9v3.14h-.86l-.61-2.47H138c-.05,1.57-.05,3.17-.05,4.85h2.4l.24-1.74h.75v4h-.75l-.22-1.68h-2.42c0,1.81,0,3.46.05,5.09h4l.63-2.56Z"/><path class="cls-2" d="M154.63,27.68a7,7,0,0,1-3.57.91,5.83,5.83,0,0,1-6.19-6.24,5.93,5.93,0,0,1,6.26-6.23,6.47,6.47,0,0,1,3.37.9l0,2.77h-.91l-.71-2.74a3.69,3.69,0,0,0-1.44-.27c-2.37,0-4.16,1.84-4.16,5.59s1.76,5.57,4.16,5.57a4.11,4.11,0,0,0,1.57-.31l.71-2.7h.92Z"/><path class="cls-2" d="M167.88,17l-1.62.22-.06,6.18c0,3.62-1.6,5.2-4.29,5.2s-4.5-1.34-4.5-4.93V21.89c0-1.57,0-3.17,0-4.76L156,17v-.58h5.35V17l-1.63.16c0,1.55,0,3.15,0,4.74v1.49c0,2.94,1.06,4,2.9,4s3-1.19,3-4.17l0-6L163.61,17v-.58h4.27Z"/><path class="cls-2" d="M180.18,27.73v.56a5.73,5.73,0,0,1-1.66.21c-1.3,0-2-.37-2.16-1.46l-.58-2.46c-.27-1.33-.72-1.88-2.05-1.88h-.88c0,1.68,0,3.3.05,4.88l1.55.15v.56h-5.34v-.56l1.52-.15c0-1.58,0-3.2,0-4.83V22c0-1.6,0-3.22,0-4.84L169.11,17v-.58h5.41c2.73,0,4.27,1.14,4.27,3,0,1.36-.94,2.6-3.28,3a2.68,2.68,0,0,1,2.61,2.51l.65,2.69ZM174,22.11a2.41,2.41,0,0,0,2.62-2.64A2.24,2.24,0,0,0,174.07,17H172.9c-.05,1.61-.05,3.23-.05,5.07Z"/><path class="cls-2" d="M184.88,17.13c0,1.6,0,3.2,0,4.84v.78c0,1.6,0,3.23,0,4.83l1.52.15v.56h-5.34v-.56l1.52-.15c0-1.58,0-3.2,0-4.83V22c0-1.6,0-3.22,0-4.84L181.06,17v-.58h5.34V17Z"/><path class="cls-2" d="M193.8,17.08c0,1.61,0,3.24,0,4.89v.78c0,1.6,0,3.22,0,4.83l1.71.15v.56h-5.72v-.56l1.72-.15c0-1.58,0-3.2,0-4.83V22c0-1.62,0-3.27,0-4.89H189l-.68,2.65h-.89l.11-3.32h10.16l.1,3.32h-.9l-.65-2.65Z"/><path class="cls-2" d="M205,23.33c0,2,0,3,0,4.25l1.73.15v.56H201v-.56l1.71-.15c0-1.15,0-2.16,0-3.95l-3.21-6.53L198.45,17v-.58h5.25V17l-1.63.18,2.53,5.49,2.51-5.46L205.52,17v-.58h3.85V17L208,17.2Z"/></g></g></svg>