<svg xmlns="http://www.w3.org/2000/svg" viewBox="0 0 83.75 30"><defs><style>.cls-1{fill:#009145;}.cls-2{fill:#fff;}</style></defs><g id="レイヤー_2" data-name="レイヤー 2"><g id="navi"><rect class="cls-1" width="83.75" height="30"/><path class="cls-2" d="M19,14.22v.35H15.73v-.35l1-.11-.63-1.94H13.68l-.59,1.93,1,.12v.35H11.73v-.35l.86-.12,2.28-7h.87l2.39,7ZM16,11.8l-1.1-3.43L13.79,11.8Z"/><path class="cls-2" d="M27.67,7.6v6.53l1,.09v.35H25.34v-.35l.92-.09c0-1,0-2,0-2.86l0-3.15-2.44,6.45h-.49L20.87,8.16c0,1,.05,2.33.05,2.75V14.1l1,.12v.35h-2.6v-.35l1.06-.12,0-6.46-1-.13V7.15h2.44l2.22,5.64,2.16-5.64h2.39v.36Z"/><path class="cls-2" d="M35.36,12.56l0,2H29.54v-.35l.95-.09c0-1,0-2,0-3v-.49c0-1,0-2,0-3l-.95-.09V7.15h5.59v2H34.6l-.38-1.54H31.93c0,1,0,2,0,3h1.5l.15-1.09H34V12h-.47l-.14-1H31.9c0,1.13,0,2.16,0,3.18h2.49l.39-1.6Z"/><path class="cls-2" d="M43.56,7.51l-.92.13,0,7H41.9L37.48,8.39l0,5.7,1.28.13v.35h-2.7v-.35L37,14.1l0-6.29-.16-.21-.76-.09V7.15h2.11l3.92,5.44,0-4.94-1.29-.14V7.15h2.7Z"/><path class="cls-2" d="M46.76,7.6c0,1,0,2,0,3v.49c0,1,0,2,0,3l1,.09v.35H44.37v-.35l1-.09c0-1,0-2,0-3v-.49c0-1,0-2,0-3l-1-.09V7.15h3.34v.36Z"/><path class="cls-2" d="M52.33,7.57c0,1,0,2,0,3v.49c0,1,0,2,0,3l1.07.09v.35H49.83v-.35l1.07-.09c0-1,0-2,0-3v-.49c0-1,0-2,0-3H49.35l-.42,1.65h-.56l.07-2.07h6.35l.06,2.07h-.56l-.41-1.65Z"/><path class="cls-2" d="M59.3,11.47c0,1.23,0,1.9,0,2.66l1.08.09v.35H56.82v-.35l1.07-.09c0-.72,0-1.35,0-2.47l-2-4.08-.66-.07V7.15h3.28v.36l-1,.11,1.58,3.43,1.57-3.41-1-.13V7.15h2.4v.36l-.88.13Z"/><path class="cls-2" d="M71.45,10.26a7,7,0,0,1-1.19,2.57l1.32,1.37.63.07v.31a4.11,4.11,0,0,1-.94.14,1.9,1.9,0,0,1-1.42-.52c-.16-.16-.31-.31-.45-.47a2.72,2.72,0,0,1-2.15,1,2.06,2.06,0,0,1-2.3-2c0-.9.52-1.62,1.73-2.18l-.13-.15a2.65,2.65,0,0,1-.69-1.72A1.72,1.72,0,0,1,67.79,7c1.17,0,1.8.59,1.8,1.43S69,9.76,67.93,10.29c.21.24.48.54.87,1s.86.95,1.25,1.36a6.53,6.53,0,0,0,.79-2.35l-.91-.12V9.82h2.32v.32ZM69.18,13.5c-.43-.47-.82-.93-1.18-1.35l-1.15-1.38a1.93,1.93,0,0,0-.75,1.54A1.6,1.6,0,0,0,67.78,14,2.14,2.14,0,0,0,69.18,13.5ZM66.86,8.38a1.86,1.86,0,0,0,.47,1.2c.13.17.26.32.41.5a2.25,2.25,0,0,0,.91-1.66c0-.64-.33-1-.87-1A.92.92,0,0,0,66.86,8.38Z"/><path class="cls-2" d="M18.9,20.26c1.48.64,2,1.24,2,2.32,0,1.31-1,2.18-2.76,2.18a4.39,4.39,0,0,1-2.25-.59L16,22.51h.56L17,24.12a2.51,2.51,0,0,0,1.08.2c1,0,1.64-.48,1.64-1.31s-.34-1.05-1.22-1.42l-.46-.2c-1.26-.55-2-1.2-2-2.35C16,17.72,17.09,17,18.6,17a3.55,3.55,0,0,1,1.94.55l-.07,1.57h-.56l-.42-1.54a1.65,1.65,0,0,0-.75-.15c-.88,0-1.49.44-1.49,1.23s.41,1.09,1.15,1.41Z"/><path class="cls-2" d="M27.6,22.56l0,2H21.78v-.35l.95-.09c0-1,0-2,0-3v-.49c0-1,0-2,0-3l-.95-.09v-.35h5.59v1.95h-.54l-.38-1.54H24.17c0,1,0,2,0,3h1.5l.15-1.09h.47V22h-.47L25.65,21H24.14c0,1.13,0,2.16,0,3.18h2.49l.39-1.6Z"/><path class="cls-2" d="M34.59,24.19a4.42,4.42,0,0,1-2.23.57,3.64,3.64,0,0,1-3.87-3.9A3.69,3.69,0,0,1,32.4,17a4.15,4.15,0,0,1,2.11.55l0,1.73h-.57l-.44-1.71a2.28,2.28,0,0,0-.9-.16c-1.48,0-2.6,1.14-2.6,3.48s1.1,3.48,2.6,3.48a2.59,2.59,0,0,0,1-.19L34,22.47h.58Z"/><path class="cls-2" d="M42.87,17.51l-1,.15,0,3.85c0,2.26-1,3.25-2.68,3.25s-2.81-.84-2.81-3.08V20.57c0-1,0-2,0-3l-.88-.09v-.35h3.34v.35l-1,.11c0,1,0,2,0,2.95v.93c0,1.84.66,2.5,1.81,2.5s1.88-.74,1.87-2.6l0-3.74-1.16-.15v-.35h2.67Z"/><path class="cls-2" d="M50.56,24.22v.35a3.51,3.51,0,0,1-1,.13c-.81,0-1.24-.23-1.35-.91l-.36-1.54c-.17-.83-.45-1.17-1.28-1.17H46c0,1.05,0,2.06,0,3.05l1,.09v.35H43.64v-.35l1-.09c0-1,0-2,0-3v-.49c0-1,0-2,0-3l-1-.09v-.35H47c1.71,0,2.67.7,2.67,1.89,0,.85-.59,1.62-2,1.85a1.68,1.68,0,0,1,1.63,1.57l.41,1.68Zm-3.85-3.51a1.5,1.5,0,0,0,1.64-1.65,1.4,1.4,0,0,0-1.61-1.52H46c0,1,0,2,0,3.17Z"/><path class="cls-2" d="M53.5,17.6c0,1,0,2,0,3v.49c0,1,0,2,0,3l1,.09v.35H51.11v-.35l1-.09c0-1,0-2,0-3v-.49c0-1,0-2,0-3l-1-.09v-.35h3.34v.35Z"/><path class="cls-2" d="M59.07,17.57c0,1,0,2,0,3.05v.49c0,1,0,2,0,3l1.07.09v.35H56.57v-.35l1.07-.09c0-1,0-2,0-3v-.49c0-1,0-2,0-3.05H56.09l-.42,1.65h-.56l.07-2.06h6.35l.06,2.06H61l-.41-1.65Z"/><path class="cls-2" d="M66,21.47c0,1.23,0,1.9,0,2.66l1.08.09v.35H63.56v-.35l1.07-.09c0-.72,0-1.35,0-2.47l-2-4.08L62,17.51v-.35h3.28v.35l-1,.11,1.58,3.43,1.57-3.41-1-.13v-.35h2.39v.35l-.87.13Z"/></g></g></svg>