<svg xmlns="http://www.w3.org/2000/svg" viewBox="0 0 83.75 30"><defs><style>.cls-1{fill:#a2a2a2;}.cls-2{fill:#fff;}</style></defs><g id="レイヤー_2" data-name="レイヤー 2"><g id="navi"><rect class="cls-1" width="83.75" height="30"/><path class="cls-2" d="M27,10.26c1.48.64,2,1.24,2,2.32,0,1.31-1,2.18-2.76,2.18A4.39,4.39,0,0,1,24,14.17L24,12.51h.56L25,14.12a2.51,2.51,0,0,0,1.08.2c1,0,1.64-.48,1.64-1.31s-.34-1-1.22-1.42l-.46-.2c-1.26-.55-2-1.2-2-2.35C24.07,7.72,25.15,7,26.66,7a3.47,3.47,0,0,1,1.94.56L28.53,9.1H28l-.42-1.54a1.65,1.65,0,0,0-.75-.15c-.88,0-1.49.44-1.49,1.23s.41,1.09,1.15,1.41Z"/><path class="cls-2" d="M38,7.6c0,1,0,2,0,3v.49c0,1,0,2,0,3l1,.09v.35H35.66v-.35l.92-.09c0-1,0-2,0-2.86l0-3.15-2.44,6.45H33.7L31.19,8.16c0,1,0,2.33,0,2.75V14.1l1.05.12v.35h-2.6v-.35l1.06-.12,0-6.46-1.05-.13V7.15h2.44l2.22,5.64,2.16-5.64H39v.36Z"/><path class="cls-2" d="M46.76,14.22v.35H43.53v-.35l1-.11-.63-1.94H41.48l-.59,1.93,1,.12v.35H39.53v-.35l.86-.12,2.28-7h.87l2.39,7Zm-3-2.42-1.1-3.43L41.59,11.8Z"/><path class="cls-2" d="M54.24,14.22v.35a3.51,3.51,0,0,1-1,.13c-.81,0-1.24-.23-1.35-.91l-.36-1.54c-.17-.83-.45-1.17-1.28-1.17h-.55c0,1.05,0,2.06,0,3.05l1,.09v.35H47.32v-.35l1-.09c0-1,0-2,0-3v-.49c0-1,0-2,0-3l-1-.09V7.15H50.7c1.71,0,2.67.71,2.67,1.9,0,.85-.59,1.62-2,1.85A1.68,1.68,0,0,1,53,12.47l.41,1.68Zm-3.85-3.51A1.5,1.5,0,0,0,52,9.06a1.4,1.4,0,0,0-1.61-1.52h-.73c0,1,0,2,0,3.17Z"/><path class="cls-2" d="M58.52,7.57c0,1,0,2,0,3v.49c0,1,0,2,0,3l1.07.09v.35H56v-.35l1.07-.09c0-1,0-2,0-3v-.49c0-1,0-2,0-3H55.54l-.42,1.65h-.56l.07-2.07H61L61,9.22h-.56l-.41-1.65Z"/><path class="cls-2" d="M34,17.6c0,1,0,2,0,3v.49c0,1,0,2,0,3l.95.09v.35H31.65v-.35l.91-.08c0-1,0-2,0-3.17H29.52c0,1.15,0,2.17,0,3.17l.91.08v.35H27.17v-.35l.95-.09c0-1,0-2,0-3v-.49c0-1,0-2,0-3l-.95-.11v-.35h3.29v.35l-.91.09c0,1,0,2,0,3h3.06c0-1,0-2,0-3l-.91-.09v-.35h3.29v.35Z"/><path class="cls-2" d="M41.66,22.56l0,2H35.84v-.35l.95-.09c0-1,0-2,0-3v-.49c0-1,0-2,0-3l-.95-.09v-.35h5.59v1.95H40.9l-.38-1.54H38.23c0,1,0,2,0,3h1.5l.15-1.09h.47V22h-.47L39.71,21H38.2c0,1.13,0,2.16,0,3.18h2.49l.39-1.6Z"/><path class="cls-2" d="M50.68,17.6c0,1,0,2,0,3v.49c0,1,0,2,0,3l1,.09v.35h-3.3v-.35l.92-.09c0-1,0-2,0-2.86l0-3.15-2.44,6.45h-.49l-2.51-6.41c0,1,.05,2.33.05,2.75V24.1l1,.12v.35h-2.6v-.35l1.06-.12,0-6.46-1-.13v-.35h2.44l2.22,5.63,2.16-5.63h2.4v.35Z"/><path class="cls-2" d="M55.58,20.26c1.48.64,2,1.24,2,2.32,0,1.31-1,2.18-2.76,2.18a4.39,4.39,0,0,1-2.25-.59l.06-1.66h.56l.42,1.61a2.51,2.51,0,0,0,1.08.2c1,0,1.64-.48,1.64-1.31S56,22,55.13,21.59l-.46-.2c-1.26-.55-2-1.2-2-2.35,0-1.32,1.08-2.06,2.59-2.06a3.55,3.55,0,0,1,1.94.55l-.07,1.57h-.56l-.42-1.54a1.65,1.65,0,0,0-.75-.15c-.88,0-1.49.44-1.49,1.23s.41,1.09,1.15,1.41Z"/></g></g></svg>