<svg xmlns="http://www.w3.org/2000/svg" viewBox="0 0 83.75 30"><defs><style>.cls-1{fill:#009145;}.cls-2{fill:#fff;}</style></defs><g id="レイヤー_2" data-name="レイヤー 2"><g id="navi"><rect class="cls-1" width="83.75" height="30"/><path class="cls-2" d="M30.44,16.45l-.06,2.12H24.73v-.42l4.06-6.58H25.9l-.45,1.65h-.59L25,11.15h5.35v.44l-4.07,6.57h3.18l.48-1.71Z"/><path class="cls-2" d="M37,16.56l0,2H31.17v-.35l.95-.09c0-1,0-2,0-3v-.49c0-1,0-2,0-3l-.95-.09v-.36h5.59v2h-.54l-.38-1.54H33.56c0,1,0,2,0,3H35l.15-1.09h.47V16h-.47L35,15H33.53c0,1.13,0,2.16,0,3.18h2.49l.39-1.6Z"/><path class="cls-2" d="M44.67,11.6c0,1,0,2,0,3v.49c0,1,0,2,0,3l.95.09v.35H42.33v-.35l.91-.08c0-1,0-2,0-3.17H40.2c0,1.15,0,2.17,0,3.17l.91.08v.35H37.85v-.35l.95-.09c0-1,0-2,0-3v-.49c0-1,0-2,0-3l-.95-.1v-.36h3.29v.36l-.91.09c0,1,0,2,0,3h3.06c0-1,0-2,0-3l-.91-.09v-.36h3.29v.36Z"/><path class="cls-2" d="M46.52,15.41h2.77v.68H46.52Z"/><path class="cls-2" d="M58.34,11.6c0,1,0,2,0,3v.49c0,1,0,2,0,3l1,.09v.35H56v-.35l.92-.09c0-1,0-2,0-2.86l0-3.15-2.44,6.45H54l-2.51-6.41c0,1,0,2.33,0,2.75V18.1l1.05.12v.35H50v-.35l1.06-.12,0-6.46-1.05-.13v-.36h2.44l2.22,5.64,2.16-5.64h2.4v.36Z"/></g></g></svg>