<svg xmlns="http://www.w3.org/2000/svg" viewBox="0 0 236.25 40"><defs><style>.cls-1{fill:#a2a2a2;}.cls-2{fill:#fff;}</style></defs><g id="レイヤー_2" data-name="レイヤー 2"><g id="navi"><rect class="cls-1" width="236.25" height="40"/><path class="cls-2" d="M40.13,31.38a4.27,4.27,0,0,1-2.24.59,3.41,3.41,0,0,1-3.71-3.49c-2.42-.49-4.4-2.59-4.4-6.13,0-4,2.64-6.23,5.54-6.23s5.52,2.18,5.52,6.23c0,3.55-2.05,5.72-4.55,6.16a2.33,2.33,0,0,0,2.37,2.68,3.36,3.36,0,0,0,1.28-.26Zm-4.81-3.44c2.14,0,3.15-2.47,3.15-5.59s-1-5.57-3.15-5.57-3.14,2.5-3.14,5.57S33.17,27.94,35.32,27.94Z"/><path class="cls-2" d="M54.17,17l-1.62.22-.07,6.18c0,3.62-1.6,5.2-4.28,5.2s-4.5-1.34-4.5-4.93V21.89c0-1.57,0-3.17-.05-4.76L42.24,17v-.58h5.35V17L46,17.15c0,1.55,0,3.15,0,4.74v1.49c0,2.94,1.05,4,2.89,4s3-1.19,3-4.17l0-6L49.89,17v-.58h4.28Z"/><path class="cls-2" d="M66.44,27.73v.56H61.27v-.56l1.55-.18-1-3.1H58l-1,3.09,1.57.19v.56H54.86v-.56l1.38-.19,3.65-11.18h1.39l3.83,11.22Zm-4.82-3.87-1.76-5.49-1.7,5.49Z"/><path class="cls-2" d="M76.36,24.83l0,3.46h-9v-.56l1.51-.15c0-1.58,0-3.16,0-4.54V22c0-1.6,0-3.22,0-4.84L67.33,17v-.58h5.42V17l-1.6.16c0,1.58,0,3.18,0,4.69v1.07c0,1.49,0,3.11,0,4.72H74.8l.69-2.8Z"/><path class="cls-2" d="M81.52,17.13c0,1.6,0,3.2,0,4.84v.78c0,1.6,0,3.23,0,4.83l1.52.15v.56H77.7v-.56l1.52-.15c0-1.58,0-3.2,0-4.83V22c0-1.6,0-3.22,0-4.84L77.7,17v-.58H83V17Z"/><path class="cls-2" d="M90.43,17.08c0,1.61,0,3.24,0,4.89v.78c0,1.6,0,3.22,0,4.83l1.72.15v.56H86.43v-.56l1.72-.15c0-1.58,0-3.2,0-4.83V22c0-1.62,0-3.27,0-4.89H85.67L85,19.73H84.1l.11-3.32H94.37l.1,3.32h-.9l-.65-2.65Z"/><path class="cls-2" d="M101.59,23.33c0,2,0,3,0,4.25l1.73.15v.56H97.62v-.56l1.71-.15c0-1.15,0-2.16,0-3.95L96.14,17.1l-1-.11v-.58h5.25V17l-1.63.18,2.52,5.49,2.52-5.46L102.16,17v-.58H106V17l-1.4.21Z"/><path class="cls-2" d="M121.88,22.35c0,4-2.61,6.24-5.53,6.24s-5.53-2.16-5.53-6.24,2.64-6.23,5.53-6.23S121.88,18.3,121.88,22.35Zm-5.53,5.59c2.15,0,3.16-2.47,3.16-5.59s-1-5.57-3.16-5.57-3.13,2.5-3.13,5.57S114.21,27.94,116.35,27.94Z"/><path class="cls-2" d="M127.19,17.08c0,1.57,0,3.17,0,4.85h2.45l.24-1.74h.75v4.16h-.75l-.24-1.81h-2.45c0,1.78,0,3.43,0,5l1.71.16v.56h-5.54v-.56l1.52-.15c0-1.58,0-3.2,0-4.83V22c0-1.6,0-3.22,0-4.84L123.36,17v-.58h9v3.14h-.86l-.61-2.47Z"/><path class="cls-2" d="M143.7,17.08c0,1.61,0,3.24,0,4.89v.78c0,1.6,0,3.22,0,4.83l1.71.15v.56H139.7v-.56l1.71-.15c0-1.58,0-3.2,0-4.83V22c0-1.62,0-3.27,0-4.89h-2.48l-.68,2.65h-.89l.11-3.32h10.16l.1,3.32h-.9l-.65-2.65Z"/><path class="cls-2" d="M159.89,27.73v.56a5.73,5.73,0,0,1-1.66.21c-1.3,0-2-.37-2.16-1.46l-.58-2.46c-.27-1.33-.72-1.88-2.05-1.88h-.88c0,1.68,0,3.3.05,4.88l1.55.15v.56h-5.35v-.56l1.52-.15c0-1.58,0-3.2,0-4.83V22c0-1.6,0-3.22,0-4.84L148.81,17v-.58h5.41c2.74,0,4.28,1.14,4.28,3,0,1.36-.95,2.6-3.28,3a2.68,2.68,0,0,1,2.61,2.51l.65,2.69Zm-6.16-5.62a2.41,2.41,0,0,0,2.62-2.64A2.24,2.24,0,0,0,153.78,17h-1.17c-.05,1.61-.05,3.23-.05,5.07Z"/><path class="cls-2" d="M172.61,17l-1.61.22-.07,6.18c0,3.62-1.6,5.2-4.29,5.2s-4.5-1.34-4.5-4.93V21.89c0-1.57,0-3.17,0-4.76L160.69,17v-.58H166V17l-1.63.16c-.05,1.55-.05,3.15-.05,4.74v1.49c0,2.94,1.06,4,2.9,4s3-1.19,3-4.17l-.05-6L168.34,17v-.58h4.27Z"/><path class="cls-2" d="M178.71,21.39c2.36,1,3.23,2,3.23,3.71,0,2.1-1.65,3.49-4.42,3.49a7.09,7.09,0,0,1-3.6-.94L174,25h.9l.67,2.58a4,4,0,0,0,1.73.32c1.63,0,2.63-.77,2.63-2.1,0-1.12-.55-1.68-2-2.27l-.73-.32c-2-.88-3.17-1.92-3.17-3.76,0-2.12,1.73-3.32,4.14-3.32a5.6,5.6,0,0,1,3.11.9l-.11,2.51h-.9l-.67-2.46a2.6,2.6,0,0,0-1.2-.24c-1.41,0-2.39.7-2.39,2s.66,1.74,1.84,2.25Z"/><path class="cls-2" d="M189.28,17.08c0,1.61,0,3.24,0,4.89v.78c0,1.6,0,3.22,0,4.83l1.71.15v.56h-5.71v-.56l1.71-.15c0-1.58,0-3.2,0-4.83V22c0-1.62,0-3.27,0-4.89h-2.48l-.67,2.65h-.9l.11-3.32h10.17l.09,3.32h-.89l-.66-2.65Z"/></g></g></svg>