<svg xmlns="http://www.w3.org/2000/svg" viewBox="0 0 83.75 30"><defs><style>.cls-1{fill:#009145;}.cls-2{fill:#fff;}</style></defs><g id="レイヤー_2" data-name="レイヤー 2"><g id="navi"><rect class="cls-1" width="83.75" height="30"/><path class="cls-2" d="M30.84,12.56l0,2H25v-.35l.95-.09c0-1,0-2,0-3v-.49c0-1,0-2,0-3L25,7.51V7.15h5.59v2h-.54L29.7,7.57H27.41c0,1,0,2,0,3h1.5L29,9.51h.47V12H29l-.14-1H27.38c0,1.13,0,2.16,0,3.18H29.9l.39-1.6Z"/><path class="cls-2" d="M37.83,14.19a4.42,4.42,0,0,1-2.23.57,3.64,3.64,0,0,1-3.87-3.9A3.7,3.7,0,0,1,35.64,7a4.07,4.07,0,0,1,2.11.56l0,1.73h-.57l-.44-1.71a2.29,2.29,0,0,0-.9-.17c-1.48,0-2.6,1.15-2.6,3.49s1.1,3.48,2.6,3.48a2.59,2.59,0,0,0,1-.19l.44-1.69h.58Z"/><path class="cls-2" d="M45.64,10.86c0,2.51-1.63,3.9-3.45,3.9s-3.46-1.35-3.46-3.9S40.38,7,42.19,7,45.64,8.33,45.64,10.86Zm-3.45,3.49c1.34,0,2-1.54,2-3.49s-.63-3.48-2-3.48-2,1.56-2,3.48S40.85,14.35,42.19,14.35Z"/><path class="cls-2" d="M55.48,10.26a7,7,0,0,1-1.19,2.57l1.32,1.37.63.07,0,.31a4,4,0,0,1-.93.14,1.9,1.9,0,0,1-1.42-.52c-.16-.16-.31-.31-.45-.47a2.72,2.72,0,0,1-2.15,1,2.06,2.06,0,0,1-2.3-2c0-.9.52-1.62,1.73-2.18l-.13-.15a2.65,2.65,0,0,1-.69-1.72A1.72,1.72,0,0,1,51.82,7c1.17,0,1.8.59,1.8,1.43S53.07,9.76,52,10.29c.21.24.48.54.87,1s.86.95,1.25,1.36a6.53,6.53,0,0,0,.79-2.35L54,10.14V9.82h2.33v.32ZM53.21,13.5c-.43-.47-.82-.93-1.18-1.35l-1.15-1.38a1.93,1.93,0,0,0-.75,1.54A1.6,1.6,0,0,0,51.81,14,2.14,2.14,0,0,0,53.21,13.5ZM50.89,8.38a1.86,1.86,0,0,0,.47,1.2c.13.17.26.32.41.5a2.25,2.25,0,0,0,.91-1.66c0-.64-.33-1-.87-1A.92.92,0,0,0,50.89,8.38Z"/><path class="cls-2" d="M13.27,20.26c1.48.64,2,1.24,2,2.32,0,1.31-1,2.18-2.76,2.18a4.39,4.39,0,0,1-2.25-.59l.06-1.66h.56l.42,1.61a2.51,2.51,0,0,0,1.08.2c1,0,1.64-.48,1.64-1.31S13.7,22,12.82,21.59l-.46-.2c-1.26-.55-2-1.2-2-2.35C10.38,17.72,11.46,17,13,17a3.55,3.55,0,0,1,1.94.55l-.07,1.57h-.56l-.42-1.54a1.65,1.65,0,0,0-.75-.15c-.88,0-1.49.44-1.49,1.23s.41,1.09,1.15,1.41Z"/><path class="cls-2" d="M24.31,17.6c0,1,0,2,0,3v.49c0,1,0,2,0,3l1,.09v.35H22v-.35l.92-.09c0-1,0-2,0-2.86l0-3.15L20.5,24.57H20L17.5,18.16c0,1,.05,2.33.05,2.75V24.1l1.05.12v.35H16v-.35l1.06-.12,0-6.46-1.05-.13v-.35h2.44l2.22,5.63,2.16-5.63h2.4v.35Z"/><path class="cls-2" d="M33.07,24.22v.35H29.84v-.35l1-.11-.63-1.94H27.79L27.2,24.1l1,.12v.35H25.84v-.35l.86-.12,2.28-7h.87l2.39,7Zm-3-2.42L29,18.37,27.9,21.8Z"/><path class="cls-2" d="M40.55,24.22v.35a3.51,3.51,0,0,1-1,.13c-.81,0-1.24-.23-1.35-.91l-.36-1.54c-.17-.83-.45-1.17-1.28-1.17H36c0,1.05,0,2.06,0,3.05l1,.09v.35H33.63v-.35l.95-.09c0-1,0-2,0-3v-.49c0-1,0-2,0-3l-.95-.09v-.35H37c1.71,0,2.67.7,2.67,1.89,0,.85-.59,1.62-2,1.85a1.68,1.68,0,0,1,1.63,1.57l.41,1.68ZM36.7,20.71a1.5,1.5,0,0,0,1.64-1.65,1.4,1.4,0,0,0-1.61-1.52H36c0,1,0,2,0,3.17Z"/><path class="cls-2" d="M44.83,17.57c0,1,0,2,0,3.05v.49c0,1,0,2,0,3l1.07.09v.35H42.33v-.35l1.07-.09c0-1,0-2,0-3v-.49c0-1,0-2,0-3.05H41.85l-.42,1.65h-.56l.07-2.06h6.35l.06,2.06h-.56l-.41-1.65Z"/><path class="cls-2" d="M56.18,22.41l0,2.16H50.54v-.35l.94-.09c0-1,0-2,0-2.84v-.67c0-1,0-2,0-3l-1-.09v-.35h3.39v.35l-1,.11c0,1,0,2,0,2.92v.67c0,.93,0,1.94,0,2.95h2.28l.43-1.75Z"/><path class="cls-2" d="M59.41,17.6c0,1,0,2,0,3v.49c0,1,0,2,0,3l1,.09v.35H57v-.35l.95-.09c0-1,0-2,0-3v-.49c0-1,0-2,0-3L57,17.51v-.35h3.34v.35Z"/><path class="cls-2" d="M63.64,17.57c0,1,0,2,0,3h1.53l.15-1.09h.47v2.6h-.47L65.14,21H63.61c0,1.11,0,2.14,0,3.14l1.07.1v.35H61.25v-.35l1-.09c0-1,0-2,0-3v-.49c0-1,0-2,0-3l-1-.09v-.35h5.64v1.95h-.54L66,17.57Z"/><path class="cls-2" d="M73.54,22.56l0,2H67.72v-.35l1-.09c0-1,0-2,0-3v-.49c0-1,0-2,0-3l-1-.09v-.35h5.59v1.95h-.54l-.38-1.54H70.11c0,1,0,2,0,3h1.5l.15-1.09h.47V22h-.47L71.59,21H70.08c0,1.13,0,2.16,0,3.18H72.6l.39-1.6Z"/></g></g></svg>