<svg xmlns="http://www.w3.org/2000/svg" viewBox="0 0 236.25 40"><defs><style>.cls-1{fill:#a2a2a2;}.cls-2{fill:#fff;}</style></defs><g id="レイヤー_2" data-name="レイヤー 2"><g id="navi"><rect class="cls-1" width="236.25" height="40"/><path class="cls-2" d="M69,25.07l0,3.22H59.73v-.56l1.52-.15c0-1.58,0-3.2,0-4.83V22c0-1.6,0-3.22,0-4.84L59.73,17v-.58h9v3.14h-.86l-.61-2.47H63.55c0,1.57,0,3.17,0,4.85h2.4l.24-1.74h.75v4h-.75l-.23-1.68H63.51c0,1.81,0,3.46,0,5.09h4l.62-2.56Z"/><path class="cls-2" d="M80.8,31.38a4.27,4.27,0,0,1-2.24.59,3.41,3.41,0,0,1-3.71-3.49c-2.42-.49-4.4-2.59-4.4-6.13,0-4,2.64-6.23,5.54-6.23s5.52,2.18,5.52,6.23c0,3.55-2.05,5.72-4.55,6.16a2.34,2.34,0,0,0,2.37,2.68,3.36,3.36,0,0,0,1.28-.26ZM76,27.94c2.14,0,3.15-2.47,3.15-5.59s-1-5.57-3.15-5.57-3.14,2.5-3.14,5.57S73.84,27.94,76,27.94Z"/><path class="cls-2" d="M94.84,17l-1.62.22-.06,6.18c0,3.62-1.61,5.2-4.29,5.2s-4.5-1.34-4.5-4.93V21.89c0-1.57,0-3.17-.05-4.76L82.91,17v-.58h5.35V17l-1.63.16c0,1.55,0,3.15,0,4.74v1.49c0,2.94,1,4,2.89,4s3-1.19,3-4.17l0-6L90.56,17v-.58h4.28Z"/><path class="cls-2" d="M99.89,17.13c0,1.6,0,3.2,0,4.84v.78c0,1.6,0,3.23,0,4.83l1.52.15v.56H96.06v-.56l1.52-.15c0-1.58,0-3.2,0-4.83V22c0-1.6,0-3.22,0-4.84L96.06,17v-.58h5.35V17Z"/><path class="cls-2" d="M106.61,23.54c0,1.24,0,2.62,0,4l1.71.16v.56h-5.54v-.56l1.52-.15c0-1.58,0-3.2,0-4.83V22c0-1.6,0-3.22,0-4.84L102.83,17v-.58h4.77c3.38,0,4.8,1.35,4.8,3.52,0,2-1.34,3.61-5,3.61Zm0-6.5c0,1.61,0,3.26,0,4.93v.94h.78c2,0,2.88-1.22,2.88-3S109.38,17,107.5,17Z"/><path class="cls-2" d="M126.63,17.13c0,1.62,0,3.24,0,4.84v.78c0,1.62,0,3.23,0,4.83l1.54.15v.56h-5.29v-.56l1.48-.15c0-1.58,0-3.18,0-4.57l0-5.05-3.91,10.33h-.78l-4-10.26c0,1.6.08,3.73.08,4.4v5.11l1.68.19v.56h-4.16v-.56l1.69-.19.07-10.34L113.41,17v-.58h3.9l3.56,9,3.45-9h3.85V17Z"/><path class="cls-2" d="M138.92,25.07l0,3.22H129.6v-.56l1.52-.15c0-1.58,0-3.2,0-4.83V22c0-1.6,0-3.22,0-4.84L129.6,17v-.58h9v3.14h-.86l-.61-2.47h-3.67c0,1.57,0,3.17,0,4.85h2.4l.24-1.74h.75v4H136l-.23-1.68h-2.41c0,1.81,0,3.46,0,5.09h4l.62-2.56Z"/><path class="cls-2" d="M152,17l-1.48.21-.08,11.15h-1.1l-7.08-10,0,9.12,2.05.21v.56h-4.32v-.56l1.49-.19.08-10.07-.26-.34L140.17,17v-.58h3.38l6.28,8.71-.05-7.91L147.71,17v-.58H152Z"/><path class="cls-2" d="M159.3,17.08c0,1.61,0,3.24,0,4.89v.78c0,1.6,0,3.22,0,4.83l1.71.15v.56h-5.72v-.56l1.72-.15c0-1.58,0-3.2,0-4.83V22c0-1.62,0-3.27,0-4.89h-2.48l-.68,2.65H153l.11-3.32h10.16l.1,3.32h-.9l-.65-2.65Z"/></g></g></svg>