<svg xmlns="http://www.w3.org/2000/svg" viewBox="0 0 960 80.02"><defs><style>.cls-1{fill:#231815;}.cls-2{fill:none;stroke:#231815;stroke-miterlimit:10;}</style></defs><g id="レイヤー_2" data-name="レイヤー 2"><g id="Wire_frame" data-name="Wire frame"><path class="cls-1" d="M19.56,69.68c-.12.18-.32.26-.76.14a21.79,21.79,0,0,1-4.26,2.48,13.88,13.88,0,0,0,5.86,4.84l-.06.18a1.94,1.94,0,0,0-1.62,1.28c-3.52-2.2-5.74-5.7-6.64-11h-.32a13.8,13.8,0,0,1-2.26,1.6c3.94,3,4.06,8.36,2.58,10.06A3.2,3.2,0,0,1,9.64,80a1.31,1.31,0,0,0-.42-1,4.61,4.61,0,0,0-1.7-.56l0-.32c.82.08,2.24.16,2.7.16.28,0,.46,0,.58-.2a5.12,5.12,0,0,0,.54-3.42A26.24,26.24,0,0,1,2,78.76l-.14-.32a21.22,21.22,0,0,0,9.08-5.74c-.12-.34-.24-.66-.38-1a27.39,27.39,0,0,1-7.88,3.56l-.14-.32a22.24,22.24,0,0,0,7.22-4.7,7.79,7.79,0,0,0-.62-.8A27.71,27.71,0,0,1,2.9,71.82l-.16-.32A23,23,0,0,0,9.4,67.62H5l-.16-.56H14.9l1-1.26.84.68c.3-.54.64-1.22.9-1.82H4.88a3.21,3.21,0,0,1-1.12,2.66c-.56.38-1.36.38-1.6-.14a1,1,0,0,1,.56-1.28,3.57,3.57,0,0,0,1.54-3.08h.32a8.31,8.31,0,0,1,.28,1.24H10.3v-2.5l2.36.22c0,.28-.22.48-.72.54v1.74h5.72l.92-.94,1.68,1.62c-.16.16-.36.18-.76.2A13,13,0,0,1,17,66.72l.7.6c0,.2-.26.3-.54.3H12.46a14.62,14.62,0,0,0,1.8,4.26,22,22,0,0,0,3.32-3.5Z"/><path class="cls-1" d="M41.25,71.94s1.09.94,1.74,1.56a.49.49,0,0,1-.53.32H39.94v3.06a2.13,2.13,0,0,1-1.34.5h-.22V76.26H34.3v1.6c0,1.2-.28,1.94-2.56,2.14a1.46,1.46,0,0,0-.56-1.06,4.17,4.17,0,0,0-2-.58V78s2.5.18,3,.18.54-.12.54-.44V76.26h-6l-.16-.58h6.16V73.82H24.54l-.18-.56h8.32V71.4H26.82l-.18-.58h6V69h-4v.58c0,.14-.7.48-1.36.48H27.1V65.1l1.72.72h3.86V64.24H24.56l-.16-.6h8.28V61.52l2.34.26c0,.28-.24.48-.72.54v1.32h5.26l1.11-1.34s1.25.94,2,1.62c-.06.22-.24.32-.52.32H34.3v1.58h3.84l.82-.88,1.8,1.34a1.6,1.6,0,0,1-.8.38v2.56a2.44,2.44,0,0,1-1.36.46h-.26V69h-4v1.84h3.88l.8-.88,1.77,1.34a1.74,1.74,0,0,1-.81.38v1.6h.36ZM32.68,68.4v-2h-4v2Zm1.62-2v2h4v-2Zm0,6.86h4.08V71.4H34.3Zm4.08.56H34.3v1.86h4.08Z"/><path class="cls-1" d="M55,78.08c4.94-1,7.18-3.54,7.18-7.14a5.63,5.63,0,0,0-5.86-5.88c-.24,0-.48,0-.74,0a3.76,3.76,0,0,1,1,2.24,10.11,10.11,0,0,1-.64,3.32c-.84,2.44-3.14,6.26-5.3,6.26-1.42,0-2.84-2.22-2.84-4.74a7.77,7.77,0,0,1,2.76-5.7,8.72,8.72,0,0,1,5.9-2.14c4.26,0,7.46,2.84,7.46,7,0,3.44-2.26,6.8-8.84,7.18Zm-.2-12.84a7.51,7.51,0,0,0-3.7,2,6.39,6.39,0,0,0-2,4.52c0,1.82.82,3.28,1.64,3.28,1.26,0,3.08-3,3.86-4.78A9.4,9.4,0,0,0,55.34,67,3.27,3.27,0,0,0,54.76,65.24Z"/><path class="cls-1" d="M75.78,63.88a1.56,1.56,0,0,1-.84.4V76.76c0,.16-.76.52-1.3.52H73.4V75.92H70.92V77.7c0,.14-.5.52-1.28.52h-.26V62.7l1.76.72H73.2l.82-.94ZM70.92,64v5.34H73.4V64ZM73.4,75.34V69.9H70.92v5.44Zm2-6.56-.16-.6h4.74v-2.9H76l-.16-.6h4.14V61.62l2.3.22c0,.28-.22.48-.72.56v2.28H83.8l1-1.26s1.12.88,1.83,1.54c-.06.22-.26.32-.55.32H81.52v2.9h2.89l1-1.3s1.17.9,1.86,1.58c0,.22-.24.32-.5.32Zm10.35,1.48s1.08.86,1.7,1.46c0,.22-.26.32-.54.32H84v5.8c0,1.22-.26,1.92-2.4,2.12a1.46,1.46,0,0,0-.48-1.1,3.54,3.54,0,0,0-1.8-.58V78s2.2.14,2.64.14.48-.1.48-.38V72h-7l-.16-.58h7.18v-2.3l2.22.22c0,.26-.23.42-.66.5v1.58h.77Zm-8.83,2.5c4.72,1.52,3.26,4.78,1.68,3.54a7.74,7.74,0,0,0-1.88-3.4Z"/><path class="cls-1" d="M93.8,68.54v10.8c0,.22-.54.62-1.28.62h-.28V62.14l1.66.78h3.56l.78-.86,1.66,1.28a1.5,1.5,0,0,1-.74.36v5.36a2.2,2.2,0,0,1-1.28.44h-.24v-1Zm0-5.06V65.4h3.84V63.48Zm3.84,4.46V66H93.8v2Zm7.12,3.28a1.41,1.41,0,0,1-.74.34v6a2,2,0,0,1-1.28.52h-.24V77H98v.8c0,.16-.64.5-1.24.5h-.24v-8.2l1.58.7h4.18l.78-.86ZM98,71.34V73.5h4.46V71.34Zm4.46,5v-2.3H98v2.3Zm6.76-13a1.46,1.46,0,0,1-.84.38v14c0,1.24-.24,2-2.32,2.16a1.8,1.8,0,0,0-.42-1.16,3.31,3.31,0,0,0-1.64-.58V77.9s1.92.16,2.34.16.46-.14.46-.44V68.54h-4V69c0,.14-.68.48-1.32.48h-.2V62.2l1.6.72h3.72l.76-1Zm-6.42.1V65.4h4V63.48Zm4,4.46V66h-4v2Z"/><path class="cls-1" d="M127.22,67.24a3.7,3.7,0,0,1,1.65.5,2.6,2.6,0,0,1,1.2,1.72c0,.44-.31.48-1.15.72a39,39,0,0,0-5.52,2.12c.08,1.14.1,2.48.1,3.16s-.26.9-.74.9a.78.78,0,0,1-.82-.86c0-.5.08-1.48.1-2.5-1.84,1.08-3.24,2.3-3.24,3.44S119.94,78,121.86,78c3,0,4.12-.64,5-.64s1.3.24,1.3.76-.14.64-.82.84a19.78,19.78,0,0,1-4.48.54c-3.76,0-5-1.22-5-2.84s1.92-3.28,4.16-4.7c-.06-1.66-.38-2.28-1.4-2.28s-2.4,1.2-3.2,2.1-1.28,1.82-1.84,1.84-.76-.38-.76-1,.7-1.06,1.58-2A18.09,18.09,0,0,0,119.16,67a12.54,12.54,0,0,1-1.48.1c-1.62,0-2-.6-2.7-2.18l.38-.22a3,3,0,0,0,2.66,1.2,10.33,10.33,0,0,0,1.84-.2,8.57,8.57,0,0,0,.6-1.66c.1-.34.06-.52-.32-.7A4.7,4.7,0,0,0,119,63l0-.34a3.62,3.62,0,0,1,1.22-.26c.68,0,2.08.32,2.08.86,0,.28-.16.44-.36.86s-.4.8-.64,1.26a19.86,19.86,0,0,0,2.36-.8c.8-.34.94-.54,1.24-.54.52,0,1,.16,1,.64,0,.28-.18.48-.6.7a21.81,21.81,0,0,1-4.78,1.44,21.54,21.54,0,0,1-1.8,2.7c-.08.12,0,.22.12.14A4.7,4.7,0,0,1,121,69c1.24,0,2,.84,2.24,2.26,1.56-.84,3.48-1.64,4.6-2.24.34-.2.38-.4.1-.7a2.87,2.87,0,0,0-1-.7Z"/><path class="cls-1" d="M139.62,70.44a17,17,0,0,1-.26,2.18c4.68,2,3.26,5.46,1.68,4.14a7.42,7.42,0,0,0-1.76-3.66,10.81,10.81,0,0,1-4.3,6.72l-.24-.22a14.11,14.11,0,0,0,3.36-9.16h-3l-.14-.58h3.2c0-.36,0-.72,0-1.08V65.66h-.84a11.16,11.16,0,0,1-2.12,3.42l-.28-.2a21.65,21.65,0,0,0,1.86-7.3l2.26.5c0,.24-.26.44-.7.46a22.6,22.6,0,0,1-.78,2.56H140l1-1.24s1.08.88,1.76,1.5c-.06.2-.26.3-.54.3h-2.5v3.12c0,.34,0,.7,0,1.08h.72l.92-1.2s1,.84,1.68,1.46c0,.22-.24.32-.52.32Zm12,6.84s1.14.94,1.82,1.6c-.06.22-.24.32-.54.32H141.24l-.16-.6h6.48A31.9,31.9,0,0,0,149,73l2.36.54a.66.66,0,0,1-.7.44,24.93,24.93,0,0,1-2.7,4.6h2.66Zm-9.37-13.44-.16-.56h8.13l1-1.3s1.16.9,1.86,1.54c-.06.22-.24.32-.52.32ZM150,72.68v-.9h-5.22v.7c0,.14-.66.5-1.32.5h-.22V65.72l1.64.72h4.93l.82-.9,1.8,1.36a1.56,1.56,0,0,1-.86.42v4.92a2.14,2.14,0,0,1-1.3.44Zm-5.7.5c3.91,2.68,2.28,5.86.88,4.42A11.08,11.08,0,0,0,144,73.28Zm5.7-2V67h-5.22v4.2Z"/><path class="cls-1" d="M162,68.08c3.52,2,2.12,4.58.92,3.42a6.46,6.46,0,0,0-.16-1l-1.18.32v8.7a1.46,1.46,0,0,1-1.22.46h-.24v-6.4a.75.75,0,0,1-.64.3,12.79,12.79,0,0,1-2.12,4.52l-.34-.16A21,21,0,0,0,158.2,73l1.9.44V71.16c-.56.14-1.18.28-1.84.42a.68.68,0,0,1-.5.42l-.64-1.7c.38,0,.94,0,1.62-.06a58.85,58.85,0,0,0,3.46-6.5l2.12.82a.76.76,0,0,1-.82.34,49.26,49.26,0,0,1-4.14,5.32l3.24-.16a11.76,11.76,0,0,0-.86-1.88Zm.26-5.78c-.08.24-.34.4-.76.36a26.11,26.11,0,0,1-2.32,3c1.46,1.22.54,2.68-.46,1.92a6.09,6.09,0,0,0-1.64-2.7l.2-.16a6.8,6.8,0,0,1,1.46.62c.44-1.06.92-2.52,1.34-3.84Zm0,10.48c3.26,2.36,1.86,4.9.72,3.74a11.13,11.13,0,0,0-1-3.66Zm6.1-6.46c-.08.24-.3.42-.76.42a19.45,19.45,0,0,1-1.14,2.64l.88.34c-.08.18-.26.3-.62.36v9.4a1.67,1.67,0,0,1-1.18.46h-.26V71.42a14.93,14.93,0,0,1-1.44,1.8l-.3-.18a26.55,26.55,0,0,0,2.74-7.34Zm7.57-1.9a1.13,1.13,0,0,1-.74.2,10.64,10.64,0,0,1-1.14,1.26,16.89,16.89,0,0,1,1.54,1.3c0,.2-.24.3-.5.3h-2.63c-.38.78-.84,1.74-1.26,2.44H173l.79-.82,1.62,1.26a1.28,1.28,0,0,1-.72.36v8.6a2,2,0,0,1-1.28.48h-.2V78.6h-3.47v.8c0,.16-.56.52-1.2.52h-.24V69.24l1.54.68h.62c.12-.74.24-1.7.3-2.44H168l-.16-.58h5.34l.65-.82-.3.26-.27-.12c.15-.46.32-1.22.46-1.82h-7.88a2.85,2.85,0,0,1-.74,2.12.94.94,0,0,1-1.42-.14,1,1,0,0,1,.52-1.2,3.21,3.21,0,0,0,1.14-2.12l.32,0c.06.24.1.5.14.72H169V61.68l2.26.2c0,.26-.2.44-.68.54V63.8h3l.82-.82Zm-6.17,6.08v3.38h3.47V70.5Zm3.47,7.5V74.46h-3.47V78Z"/><path class="cls-1" d="M181,63.76v-.4a5.22,5.22,0,0,1,1.38-.2c1.06,0,2.58,1.2,2.58,1.84,0,.46-.42.64-.6,1.6a45.24,45.24,0,0,0-.74,7.58c0,2.46.72,3.4,3,3.4a9.64,9.64,0,0,0,7.61-4.2l.42.3a9,9,0,0,1-8.13,5.52c-2.74,0-4.2-1.34-4.2-4.86,0-3,.46-7.54.46-8.8,0-.8-.12-1.06-.46-1.28A3.6,3.6,0,0,0,181,63.76Z"/><path class="cls-1" d="M198.48,74.88c2.48.66,3.8,1.66,4.48,2.66a2.25,2.25,0,0,1,.46,1.34.94.94,0,0,1-1,1c-.46,0-.76-.26-1.06-.88a9.32,9.32,0,0,0-3.14-3.86Z"/><path class="cls-1" d="M213.52,68c1,3.54,0,5.84-.94,6.84-.62.66-1.52.86-1.9.38a1.1,1.1,0,0,1,.32-1.42c1.16-.88,2.24-3.18,2.2-5.8Zm4.8-1.7c0,.26-.22.46-.68.54V77.1c0,.46.18.64,1.18.64h2.48c1.12,0,1.94,0,2.3-.06a.6.6,0,0,0,.56-.34A21,21,0,0,0,225,74h.26l.06,3.52c.56.2.72.4.72.72,0,.82-.84,1.1-4.78,1.1h-2.64c-2,0-2.54-.34-2.54-1.78V66.06Zm2.84,0a11.22,11.22,0,0,0-4.88-4l.1-.28C224.24,63.14,223,67.3,221.16,66.28Zm6.32,8.34A9.6,9.6,0,0,0,224.74,68l.16-.2C231.39,71.12,229.08,76.62,227.48,74.62Z"/><path class="cls-1" d="M237,74.42c.92-.36,1.9-.78,2.88-1.2l.1.22c-1.32,1-3.24,2.36-5.8,3.94a.86.86,0,0,1-.42.58l-.88-2c.56-.18,1.48-.5,2.58-.94V68.22h-2.22l-.16-.58h2.38V62l2.26.24c0,.28-.2.48-.72.56v4.88h.52l.88-1.32s1,1,1.6,1.58c0,.22-.24.32-.52.32H237ZM251,77.5c.58.2.77.4.77.72,0,.82-.92,1.06-5.29,1.06h-3c-2.14,0-2.84-.36-2.84-1.94V69.48l-2.32.86-.38-.48,2.7-1V63.14l2.26.26c0,.24-.22.46-.72.54v4.34l2.42-.9v-5.8l2.24.24c0,.28-.2.48-.72.56v4.44l2.42-.9.17-.06.82-.88,1.68,1.36a1.24,1.24,0,0,1-.79.32c0,5.26-.27,7.06-1,7.78a2.47,2.47,0,0,1-1.78.64A1.51,1.51,0,0,0,247.4,74a1.73,1.73,0,0,0-1-.48v-.3c.42,0,1.06.08,1.36.08s.43,0,.54-.18c.36-.4.51-2.22.59-6.7l-2.79,1v8.32c0,.2-.66.54-1.22.54h-.3V68l-2.42.9V77c0,.6.26.82,1.44.82h2.9c1.28,0,2.24,0,2.69-.08a.77.77,0,0,0,.59-.3,17,17,0,0,0,.87-2.94h.24Z"/><path class="cls-1" d="M263.4,74.14a12.35,12.35,0,0,1,2.9.92c1.32.62,3,1.68,3,2.78a.62.62,0,0,1-.68.7c-.72,0-1.38-1.22-3.3-2.3a8.77,8.77,0,0,0-1.7-.76c0,.26,0,.52,0,.82,0,1.66-1.14,2.88-3.8,2.88-2.12,0-3.64-.9-3.64-2.44,0-1.94,2.36-2.82,4.9-2.82.38,0,.76,0,1.12,0-.08-1.54-.22-3.92-.24-5.22s-.06-3.7-.1-4.12a.72.72,0,0,0-.54-.74,6.83,6.83,0,0,0-1.42-.26l0-.38a4.71,4.71,0,0,1,1.62-.4c1.12,0,2.44.76,2.44,1.32s-.28.62-.44,1.2a13,13,0,0,0-.26,2.22,3.55,3.55,0,0,0,.44,0,9.69,9.69,0,0,0,2.56-.44,9.84,9.84,0,0,1,1.26-.46c.76,0,1.34.26,1.34.82,0,.28-.22.54-.74.74a13.14,13.14,0,0,1-3.44.54,3.66,3.66,0,0,1-1.46-.46c0,.22,0,.44,0,.64,0,.94.06,3.32.22,4.86Zm-1.18,1a10.2,10.2,0,0,0-2-.18c-1.9,0-3.22.74-3.22,1.64,0,.72.76,1.24,2.16,1.24C261.56,77.84,262.2,77,262.22,75.14Z"/><path class="cls-1" d="M279,63.5a4.12,4.12,0,0,1,1.84-.6c.86,0,1.68.28,1.78.68a17.7,17.7,0,0,0,1,2.8,15.34,15.34,0,0,0,3.3-1.82,1.38,1.38,0,0,1,1.26.2.7.7,0,0,1-.2.94,14.19,14.19,0,0,1-3.7,1.92,21.24,21.24,0,0,0,3.48,4.18c.48.46.64.68.66,1.06,0,.6-.3,1.46-.82,1.46s-.8-.32-1.38-.68a9.43,9.43,0,0,0-4.88-1.38c-2.2,0-3.84,1.2-3.84,2.8s1.66,2.48,4.7,2.48c1.48,0,2.2-.22,2.92-.22s1.22.26,1.22.8-1,1-3.6,1c-3.48,0-6.42-1.18-6.42-3.84,0-2.18,2.34-3.84,5.44-3.84a14.87,14.87,0,0,1,4.24.64c.22,0,.26,0,.1-.16a36.13,36.13,0,0,1-3-4,18.16,18.16,0,0,1-4.24.76c-2.08,0-2.8-.74-3.84-2.42l.34-.3a4.47,4.47,0,0,0,3.4,1.38,15.09,15.09,0,0,0,3.64-.62,27,27,0,0,0-1.32-2.38c-.34-.52-.92-.52-2.06-.54Z"/><path class="cls-1" d="M307.34,67.24a3.7,3.7,0,0,1,1.65.5,2.6,2.6,0,0,1,1.2,1.72c0,.44-.31.48-1.15.72a39,39,0,0,0-5.52,2.12c.08,1.14.1,2.48.1,3.16s-.26.9-.74.9a.78.78,0,0,1-.82-.86c0-.5.08-1.48.1-2.5-1.84,1.08-3.24,2.3-3.24,3.44S300.06,78,302,78c3,0,4.12-.64,5-.64s1.3.24,1.3.76-.13.64-.82.84a19.78,19.78,0,0,1-4.48.54c-3.76,0-5-1.22-5-2.84s1.92-3.28,4.16-4.7c-.06-1.66-.38-2.28-1.4-2.28s-2.4,1.2-3.2,2.1-1.28,1.82-1.84,1.84-.76-.38-.76-1,.7-1.06,1.58-2A18.09,18.09,0,0,0,299.28,67a12.54,12.54,0,0,1-1.48.1c-1.62,0-2-.6-2.7-2.18l.38-.22a3,3,0,0,0,2.66,1.2,10.33,10.33,0,0,0,1.84-.2,8.57,8.57,0,0,0,.6-1.66c.1-.34.06-.52-.32-.7A4.7,4.7,0,0,0,299.1,63l0-.34a3.62,3.62,0,0,1,1.22-.26c.68,0,2.08.32,2.08.86,0,.28-.16.44-.36.86s-.4.8-.64,1.26a19.86,19.86,0,0,0,2.36-.8c.8-.34.94-.54,1.24-.54.52,0,1,.16,1,.64,0,.28-.18.48-.6.7a21.81,21.81,0,0,1-4.78,1.44,21.54,21.54,0,0,1-1.8,2.7c-.08.12,0,.22.12.14a4.7,4.7,0,0,1,2.2-.72c1.24,0,2,.84,2.24,2.26,1.56-.84,3.48-1.64,4.6-2.24.34-.2.38-.4.1-.7a2.87,2.87,0,0,0-1-.7Z"/><path class="cls-1" d="M315,66.14c4.36.6,3.22,3.66,1.68,2.68a5.45,5.45,0,0,0-1.86-2.52Zm5.56-.08c-.78,2.26-2.24,6.42-2.52,7.32a6.14,6.14,0,0,0-.28,1.7c0,.92.64,1.82.58,3.48,0,.9-.54,1.46-1.24,1.46-.4,0-.68-.36-.76-1,.3-2.08.18-3.74-.26-4a1.78,1.78,0,0,0-1-.3v-.42h.88c.24,0,.34,0,.54-.4.38-.68.38-.68,3.68-7.88Zm-4.24-4.26c4.62.62,3.58,3.78,2,2.86A7,7,0,0,0,316.1,62Zm11.35,10.74a13.06,13.06,0,0,0,6,4.54l0,.2a1.86,1.86,0,0,0-1.36,1.42,12.74,12.74,0,0,1-5-6v6.78c0,.16-.68.5-1.26.5h-.3V74A15.55,15.55,0,0,1,319.38,79l-.2-.3a15,15,0,0,0,5.48-6.14h-4.54l-.16-.6h5.7V69.4l2.26.24c0,.26-.2.46-.7.52v1.78h3.21l1-1.32s1.18.92,1.88,1.6a.48.48,0,0,1-.52.32Zm-5-9c-.1,3.22-3.26,2.4-2.08.94a3.07,3.07,0,0,0,1.6-2.62l.3,0a8.11,8.11,0,0,1,.16,1.1h8.11l.92-1,1.66,1.6c-.14.16-.34.2-.74.22-.54.54-1.5,1.44-2.08,1.92l-.26-.12c.16-.5.4-1.42.58-2.1h-2v3.86c0,.2.07.28.49.28h1.14c.5,0,.88,0,1.06,0a.36.36,0,0,0,.34-.16,8.16,8.16,0,0,0,.52-1.52h.22l.08,1.54c.42.18.52.34.52.62,0,.6-.54.86-2.82.86H329c-1.36,0-1.58-.32-1.58-1.3V63.5h-1.66c-.42,3.44-1.86,5.5-5.38,6.76l-.12-.32c2.78-1.54,3.68-3.54,3.92-6.44Z"/><path class="cls-1" d="M349,66.5c3.52.4,5.65,2.84,5.65,5.88,0,3.32-2.17,6.26-9.29,6.6l-.1-.44c6.1-1.08,7.68-3.82,7.68-6.46a4.76,4.76,0,0,0-4.22-4.74A27.16,27.16,0,0,1,347,71.4c-.34.66-.68,1.24-1,1.78l.16.08c.44.24.88.56.88,1.08s-.3.6-.72.6a2.55,2.55,0,0,1-1.24-.5,9.59,9.59,0,0,1-1.6,1.54,4.6,4.6,0,0,1-2.88,1.2c-1.26,0-1.8-1.26-1.8-2.54a8.1,8.1,0,0,1,2.92-5.88c-.16-.48-.3-.94-.44-1.32a5.89,5.89,0,0,0-1.82-2.28l.24-.26a4.59,4.59,0,0,1,1.62.66,2.81,2.81,0,0,1,1.36,1.62c.06.22.12.48.18.74a9.32,9.32,0,0,1,4.68-1.48,14.36,14.36,0,0,0,.38-2c0-.46-.18-.58-.52-.68a5.06,5.06,0,0,0-1.2-.18l0-.36a2.93,2.93,0,0,1,1.3-.38c.9,0,2.34.78,2.34,1.4,0,.4-.3.66-.48,1.24Zm-5,7.06a8.63,8.63,0,0,1-1.34-2.1,17.22,17.22,0,0,1-.68-1.78,7,7,0,0,0-2,4.3c0,1.1.4,1.56.94,1.56a2.86,2.86,0,0,0,1.86-.78A9.71,9.71,0,0,0,344,73.56Zm3.28-6.26a7.44,7.44,0,0,0-4.24,1.46,9.41,9.41,0,0,0,.8,2.2,5.74,5.74,0,0,0,1.08,1.4c.32-.46.62-1,.9-1.48A22.11,22.11,0,0,0,347.3,67.3Z"/><path class="cls-1" d="M362.9,63.5c.28.6.62,1.2,1.14,1.2a23.28,23.28,0,0,0,4.12-.9c.54-.16.58-.4.9-.4.7,0,1.94,1,1.94,1.6,0,.42-.54.48-1.22,1.06a62.21,62.21,0,0,0-4.58,4.22c-.16.16-.06.32.12.24a9.91,9.91,0,0,1,3.42-.68c2.62,0,4.84,1.7,4.8,4.54,0,2.54-2.32,4.64-6.2,4.64-2.26,0-3.86-.94-3.86-2.46a2.15,2.15,0,0,1,2.38-2,3.33,3.33,0,0,1,3.32,2.84A3.66,3.66,0,0,0,372,73.94c.06-1.76-1.24-3.38-3.66-3.38-2.84,0-4.82,1.84-6.5,4-.36.44-.54.58-.88.56s-.66-.38-.62-.94.24-.74.76-1.26c2.8-2.88,6.58-6.48,7.48-7.84.22-.32.08-.44-.18-.38a19.07,19.07,0,0,0-3.08,1.14c-.38.18-.68.48-1,.48a2.17,2.17,0,0,1-1.78-1.62,3,3,0,0,1,0-1.18Zm4.9,14.18a2.43,2.43,0,0,0-2.3-2.3c-.74,0-1.26.4-1.26,1s.88,1.3,2.7,1.3C367.24,77.72,367.52,77.7,367.8,77.68Z"/><path class="cls-1" d="M378.46,77.18A2.81,2.81,0,1,1,381.28,80,2.8,2.8,0,0,1,378.46,77.18Zm.68,0a2.13,2.13,0,1,0,2.14-2.12A2.16,2.16,0,0,0,379.14,77.18Z"/><path class="cls-1" d="M396.32,62.86a4.49,4.49,0,0,1,1.26,0c.94.14,2.12.8,2.12,1.2s-.26.54-.58,1a13,13,0,0,1-.72,1.1,1.62,1.62,0,0,0,.3,0,27.93,27.93,0,0,0,3.84-.44c.54-.12.74-.5,1.1-.5.52,0,2,.88,2,1.5,0,.44-.68.6-1,1.12a24.83,24.83,0,0,1-12.76,11.44l-.3-.42c5.14-2.68,9.82-7.82,11.42-11.84.08-.26,0-.34-.2-.34a25.94,25.94,0,0,0-3,.48,4.66,4.66,0,0,1-1.12.26,1.84,1.84,0,0,1-.88-.48,18.08,18.08,0,0,1-6.12,5.2l-.28-.4c3.14-2.34,6-6.4,6-7.58,0-.38-.52-.74-1.2-1Z"/><path class="cls-1" d="M417.54,63.2a4.47,4.47,0,0,1,1.58-.38c1,0,2.14.72,2.14,1.08s-.3.52-.4,1.24-.1,1.42-.11,2.1a14.91,14.91,0,0,0,3.48-.68c.78,0,2,.64,2,1.18a.56.56,0,0,1-.58.6,40.91,40.91,0,0,0-4.86,0c0,1.78,0,4.82.05,6.3,0,1.14.16,1.68.16,2.28,0,.94-.72,1.92-1.36,1.92s-.6-.72-1.08-1.14a9.29,9.29,0,0,0-2.14-1.26l.14-.34c.84.16,1.84.4,2.42.46.26,0,.4-.08.42-.34.08-.78,0-3.54,0-5.92a23.13,23.13,0,0,1-9.24,7.2l-.28-.4c3.46-2.16,7-5.54,8.66-8.54-1.38.18-2.68.42-3.62.62a15.76,15.76,0,0,1-1.94.48c-.58,0-1.54-1-1.74-1.48a3.62,3.62,0,0,1-.14-1.16l.36-.14c.48.72.88,1.12,1.46,1.12,1.32,0,4.32-.4,6.46-.62,0-1,0-2.14-.06-2.82a.62.62,0,0,0-.48-.68,3.75,3.75,0,0,0-1.28-.3Z"/><path class="cls-1" d="M431.1,64.86v-.38a3.89,3.89,0,0,1,1.28-.28c.78,0,2.18.8,2.18,1.36s-.3.64-.36,1.4,0,5,0,6-.32,1.14-.76,1.14-.94-.74-.94-1.6c0-.52.2-1.26.22-2.82,0-.94,0-2.94-.12-3.7,0-.46-.08-.62-.4-.78A5.75,5.75,0,0,0,431.1,64.86Zm2.34,14.68-.24-.4c3.86-2.08,5.79-4.74,6.05-8.8a47.4,47.4,0,0,0,0-5c0-.38-.07-.64-.42-.84a4.34,4.34,0,0,0-1.2-.32l0-.38a3.78,3.78,0,0,1,1.51-.52c.8,0,2.24.84,2.24,1.32s-.36.58-.4,1.22c0,1.18-.14,3.36-.2,4.58C440.54,75.06,438.08,77.92,433.44,79.54Z"/><path class="cls-1" d="M448.24,68c.42.52.8,1,1.34,1,1.36,0,6.69-.8,10.07-1.12a19.87,19.87,0,0,0,2-.36c.94,0,2.14.5,2.14,1.14,0,.42-.16.6-.64.6s-1.2-.16-2.22-.16-2.46.06-4.16.22c.58.34,1.06.72,1.06,1.08s-.48.54-.77,1.24a13.39,13.39,0,0,1-7,7.84l-.38-.4c4.69-3.1,5.93-7.62,5.93-8.84a1.25,1.25,0,0,0-.28-.78c-1.58.22-3.31.54-3.93.7a8.9,8.9,0,0,1-1.72.46c-.52,0-1.46-.82-1.66-1.42a2.83,2.83,0,0,1-.14-1.08Zm3-4.26a3.33,3.33,0,0,0,2,.72,17.59,17.59,0,0,0,3.67-.5c1.14-.26,1.4-.58,1.78-.58,1,0,1.72.34,1.72.92,0,.32-.22.52-.86.64a38.78,38.78,0,0,1-6.25.82c-1.08,0-1.66-.64-2.34-1.78Z"/><path class="cls-1" d="M472.51,67a3.49,3.49,0,0,1,1.18.12c.72.24,1.56,1,1.56,1.48s-.32.4-.74.82c-.54.6-1.28,1.4-2.22,2.28.46.32.82.6.82.86s-.14.48-.16.88c-.08,2.14,0,4.36,0,5.18,0,.62-.24.94-.7.94-.68,0-1-.76-1-1.42,0-.28.12-.6.16-1.1a35.21,35.21,0,0,0,.18-4,1.77,1.77,0,0,0-.14-.62,20.67,20.67,0,0,1-5.92,3.5l-.2-.32c4.08-2.32,7.92-6.56,7.92-7.48,0-.32-.46-.64-.88-.84Z"/><path class="cls-1" d="M486.94,71c-.4,1.08-1.26,3.18-1.46,3.94a5.71,5.71,0,0,0-.32,1.46c0,.62.4,1.28.4,1.78s-.24.76-.7.76a1.41,1.41,0,0,1-1.06-.78,8.7,8.7,0,0,1-1.18-4.58,18.67,18.67,0,0,1,.94-5.22A12.11,12.11,0,0,0,484,66a3.24,3.24,0,0,0-1.1-2.16l.3-.26a4,4,0,0,1,1.16.62,3.52,3.52,0,0,1,1.44,2.24c0,.48-.28.86-.78,2a11.94,11.94,0,0,0-1.32,4.9,3.24,3.24,0,0,0,.26,1.58c.14.26.28.3.46,0,.46-.7,1.56-3,2-4Zm2,1.68a7,7,0,0,0,.57,1.66c.7,1.24,1.72,1.9,4.2,1.9a18.68,18.68,0,0,0,3.36-.36c.62,0,1.26.24,1.26.76,0,.94-1.9,1.18-4.14,1.18-3.32,0-5-1.2-5.49-3.32a6.89,6.89,0,0,1-.2-1.76Zm.21-6.1A9.35,9.35,0,0,1,494,65.2a6.45,6.45,0,0,1,2.8.46,1,1,0,0,1,.66.82c0,.32-.18.52-.62.58a7.94,7.94,0,0,0-1.78.38,31.75,31.75,0,0,0-3.28,1.76l-.32-.36c.88-.66,2.2-1.64,2.58-2s.26-.38-1.1-.38a12.3,12.3,0,0,0-3.66.62Z"/><path class="cls-1" d="M505.18,72.36c0,2.64.65,4.52,5.09,4.52a20.07,20.07,0,0,0,5.34-.8c.58,0,1.34.32,1.34.86s-.2.66-.88.9a18.86,18.86,0,0,1-5.46.64c-5.32,0-6.75-2.5-5.93-6.1Zm2.53-3.74c.94-.62,2.12-1.44,2.82-1.92.2-.16.18-.22-.1-.22-2.26,0-3.78-.18-5.05-1.94l.26-.32a6.11,6.11,0,0,0,3.89,1.06,22.45,22.45,0,0,0,3.74-.44c.82,0,2,.44,2,1,0,.4-.24.6-.8.7a14,14,0,0,0-2.14.52A44.88,44.88,0,0,0,508,69Z"/><path class="cls-1" d="M529.29,66.74a14.2,14.2,0,0,0,2.38-1,1.93,1.93,0,0,1,.74-.32c.38,0,1,.22,1,.7s-.28.66-1.24,1a29.07,29.07,0,0,1-3.36,1.06c-.28.94-.58,2-.93,2.92a51.3,51.3,0,0,1-3,7.32c-.3.52-.52.78-1,.78s-.72-.48-.72-1,.28-.78.64-1.42a27.89,27.89,0,0,0,3-6.1c.24-.66.46-1.42.66-2.18a15.07,15.07,0,0,1-2.08.2,2.74,2.74,0,0,1-2.88-2.12l.32-.24a3.54,3.54,0,0,0,2.44,1.08,10.41,10.41,0,0,0,2.57-.3,21,21,0,0,0,.46-2.5c0-.48-.06-.64-.42-.84a7.73,7.73,0,0,0-1.23-.42l0-.4a3.89,3.89,0,0,1,1.37-.2c.87,0,2.13.56,2.15,1a13.59,13.59,0,0,1-.6,1.84Zm1,7.38A5,5,0,0,0,531,76c.7,1.1,1.92,1.52,3.6,1.52a17.4,17.4,0,0,0,3.14-.38c.56,0,1.2.26,1.2.84s-.52.68-1.18.84a13.6,13.6,0,0,1-2.72.26c-2.54,0-4.34-.86-4.86-2.76a6.4,6.4,0,0,1-.3-2.16Zm1-4.46a9.51,9.51,0,0,1,3.82-.88,6.07,6.07,0,0,1,2.68.5,1.21,1.21,0,0,1,.74,1c0,.42-.34.58-.94.62a3.72,3.72,0,0,0-1.22.28,19.48,19.48,0,0,0-2.3.9l-.22-.32a19.19,19.19,0,0,0,2-1.44c.14-.12.08-.22-.1-.28a5.81,5.81,0,0,0-1.74-.24,13.28,13.28,0,0,0-2.58.3ZM535.61,64A7.46,7.46,0,0,1,538,65.32a1.54,1.54,0,0,1,.66,1.18.55.55,0,0,1-.58.58c-.32,0-.56-.42-.92-.9a9.44,9.44,0,0,0-1.8-1.86Zm1.74-1.24a8.06,8.06,0,0,1,2.38,1.1,1.61,1.61,0,0,1,.72,1.24.52.52,0,0,1-.54.58c-.34,0-.56-.44-1-.92a8.37,8.37,0,0,0-1.8-1.68Z"/><path class="cls-1" d="M550.79,69.5a11.06,11.06,0,0,1,5.82-1.94,4.8,4.8,0,0,1,5.06,4.62c0,2.92-2.06,5.48-7.62,6.72l-.2-.44c5-1.92,6.08-4.5,6.08-6.74a3.4,3.4,0,0,0-3.6-3.44,9.38,9.38,0,0,0-5.65,2.34,40.46,40.46,0,0,0,.2,5.5c0,.6.1,1,.1,1.46,0,.82-.35,1.8-1,1.8s-.7-.26-.78-.74a6.73,6.73,0,0,0-.38-1.38A14.8,14.8,0,0,0,547.54,75q-.57.84-1.08,1.56c-.28.4-.5.72-.84.72s-.64-.32-.64-.8a1.48,1.48,0,0,1,.48-1.14,50.67,50.67,0,0,0,4.3-5.56c0-.48.08-1,.14-1.42-.64.34-1.3.72-1.74,1s-.6.7-1,.7a2.36,2.36,0,0,1-1.76-1.52,3.58,3.58,0,0,1-.08-.9l.34-.12c.32.56.6.88,1,.88A15.53,15.53,0,0,0,550,67.06c.17-1.32.3-2.4.3-3a.61.61,0,0,0-.48-.7,5.85,5.85,0,0,0-1.14-.32v-.4A4,4,0,0,1,550,62.4c.94,0,2,.94,2,1.58a8.92,8.92,0,0,1-.44,1.4,13.12,13.12,0,0,0-.34,1.36l0,0c.35.18.8.6.8.86s-.21.44-.49.74-.56.64-.84,1Zm-1.16,6.6c0-.88,0-2.52,0-4.18-.56.84-1.18,1.76-1.8,2.64.54.66,1.2,1.38,1.46,1.7S549.6,76.44,549.63,76.1Z"/><path class="cls-1" d="M566.14,71.26a1.41,1.41,0,0,0,1,.58,2.4,2.4,0,0,0,1.08-.34c1.66-.78,4-2.2,6.39-2.2,2.78,0,4.38,1.84,4.38,3.78a4.4,4.4,0,0,1-2.78,4.06,13.38,13.38,0,0,1-6.3.9l0-.38c4-.34,7.56-1.66,7.56-4.8a2.64,2.64,0,0,0-2.84-2.76c-2,0-4,1.74-5,2.4s-1.37,1.06-1.86,1.06a2.19,2.19,0,0,1-1.64-1.16,2.62,2.62,0,0,1-.18-1Z"/><path class="cls-1" d="M590.79,66.54a14.2,14.2,0,0,0,2.38-1,1.93,1.93,0,0,1,.74-.32c.38,0,1,.22,1,.7s-.28.66-1.24,1A29.07,29.07,0,0,1,590.35,68c-.28.94-.58,2-.92,2.92a52.38,52.38,0,0,1-3,7.32c-.29.52-.52.78-1,.78s-.72-.48-.72-1,.28-.78.64-1.42a27.89,27.89,0,0,0,3-6.1,22.51,22.51,0,0,0,.66-2.18,15.07,15.07,0,0,1-2.08.2A2.74,2.74,0,0,1,584,66.4l.32-.24a3.54,3.54,0,0,0,2.44,1.08,10.36,10.36,0,0,0,2.57-.3,21,21,0,0,0,.46-2.5c0-.48-.06-.64-.42-.84a7.4,7.4,0,0,0-1.23-.42l0-.4a3.89,3.89,0,0,1,1.37-.2c.87,0,2.13.56,2.15,1a13.59,13.59,0,0,1-.6,1.84Zm1,7.38a5,5,0,0,0,.68,1.88c.7,1.1,1.92,1.52,3.6,1.52a17.4,17.4,0,0,0,3.14-.38c.56,0,1.2.26,1.2.84s-.52.68-1.18.84a13.6,13.6,0,0,1-2.72.26c-2.54,0-4.34-.86-4.86-2.76a6.4,6.4,0,0,1-.3-2.16Zm1-4.46a9.51,9.51,0,0,1,3.82-.88,6.07,6.07,0,0,1,2.68.5,1.21,1.21,0,0,1,.74,1c0,.42-.34.58-.94.62a3.72,3.72,0,0,0-1.22.28,19.48,19.48,0,0,0-2.3.9l-.22-.32a19.19,19.19,0,0,0,2-1.44c.14-.12.08-.22-.1-.28a5.81,5.81,0,0,0-1.74-.24,13.28,13.28,0,0,0-2.58.3Z"/><path class="cls-1" d="M612.8,67.78c-.13.18-.34.24-.78.28-.94,3.84-2.88,7.72-7,10.08l-.22-.24a17,17,0,0,0,5.52-10.06h-4.94l-.16-.56h5l.95-1ZM623,66.44c-.14.2-.32.28-.78.18a31.19,31.19,0,0,1-4.9,3.76,16,16,0,0,0,6.38,6l-.06.2a2,2,0,0,0-1.5,1.4c-3.36-2.56-5.9-6-7.1-12.56V77.74c0,1.28-.26,2-2.52,2.26a1.73,1.73,0,0,0-.53-1.2,3.83,3.83,0,0,0-2-.62v-.32s2.41.18,2.88.18.49-.12.49-.44v-16l2.34.26c-.06.28-.2.46-.7.54V64a20,20,0,0,0,2.06,6,33.54,33.54,0,0,0,3.8-4.86Z"/><path class="cls-1" d="M636.67,70.1a17.31,17.31,0,0,0,2.64-.58,11.44,11.44,0,0,1,1.26-.46c.54,0,1.14.22,1.14.7s-.26.6-.66.74a22.33,22.33,0,0,1-4.34.88c0,1.22.16,2.24.24,3.16a10.79,10.79,0,0,1,4.66,2,1.73,1.73,0,0,1,.8,1.28.63.63,0,0,1-.64.7c-.4,0-.62-.2-1-.56a10.4,10.4,0,0,0-3.68-2.18c0,.28,0,.54,0,.8,0,1.68-1.4,2.68-3.66,2.68-2.06,0-3.55-.92-3.55-2.44s2.07-2.54,4.61-2.54a11.37,11.37,0,0,1,1.18.06c0-.8-.08-1.78-.12-2.86-.8.06-1.6.1-2.38.1-2.79,0-4.21-1.42-2-3.46l.39.22c-1.17,1.56-.39,2,1.51,2,.8,0,1.62,0,2.42-.12v-.84c0-.58,0-1.2,0-1.82a27,27,0,0,1-2.84.16,4.13,4.13,0,0,1-4.13-2.24l.32-.26a4.75,4.75,0,0,0,3.53,1.26,24.27,24.27,0,0,0,3.16-.24c0-.92,0-1.66,0-1.86,0-.4-.1-.52-.44-.64a7.13,7.13,0,0,0-1.46-.3l0-.38a3.31,3.31,0,0,1,1.5-.4c1,0,2.28.58,2.28,1.16,0,.42-.28.62-.4,1.12-.06.3-.12.66-.18,1.1a27.69,27.69,0,0,0,2.78-.64,6.74,6.74,0,0,1,1.2-.44c.5,0,1.22.22,1.22.72s-.3.6-.74.76a28.47,28.47,0,0,1-4.58,1c-.06.72-.08,1.56-.08,2.5Zm-1,5.34a10.86,10.86,0,0,0-1.84-.16c-1.88,0-3.13.7-3.13,1.48s.74,1.24,2,1.24C635,78,635.67,77.3,635.69,75.44Z"/><path class="cls-1" d="M654.09,69.5a11.06,11.06,0,0,1,5.82-1.94A4.8,4.8,0,0,1,665,72.18c0,2.92-2.06,5.48-7.62,6.72l-.2-.44c5-1.92,6.08-4.5,6.08-6.74a3.4,3.4,0,0,0-3.6-3.44A9.32,9.32,0,0,0,654,70.62a38.88,38.88,0,0,0,.2,5.5c0,.6.1,1,.1,1.46,0,.82-.36,1.8-1,1.8s-.7-.26-.79-.74a6.13,6.13,0,0,0-.37-1.38A15.9,15.9,0,0,0,650.84,75q-.57.84-1.08,1.56c-.28.4-.5.72-.84.72s-.64-.32-.64-.8a1.48,1.48,0,0,1,.48-1.14,51.79,51.79,0,0,0,4.31-5.56c0-.48.08-1,.14-1.42-.64.34-1.3.72-1.75,1s-.59.7-1,.7a2.36,2.36,0,0,1-1.76-1.52,3.58,3.58,0,0,1-.08-.9l.34-.12c.32.56.6.88,1,.88a15.58,15.58,0,0,0,3.37-1.32c.16-1.32.3-2.4.3-3a.62.62,0,0,0-.48-.7,6.07,6.07,0,0,0-1.14-.32v-.4a3.92,3.92,0,0,1,1.32-.26c.94,0,2,.94,2,1.58a8.92,8.92,0,0,1-.44,1.4c-.08.28-.22.76-.34,1.36l0,0c.36.18.8.6.8.86s-.2.44-.48.74a12.77,12.77,0,0,0-.84,1Zm-1.16,6.6c0-.88,0-2.52,0-4.18-.57.84-1.19,1.76-1.81,2.64.54.66,1.2,1.38,1.47,1.7S652.91,76.44,652.93,76.1Z"/><path class="cls-1" d="M671.25,62.32l.24-.24a3.31,3.31,0,0,1,1.09.4,3.06,3.06,0,0,1,1.49,1.94,4.3,4.3,0,0,1-.3,1.24,14.59,14.59,0,0,0-.44,1.9c-.06.42.1.44.32.06,1-1.72,2.3-2.9,3.62-2.9,2.36,0,3.6,2.44,3.6,6.24,0,4.24-2,7.64-7.56,8.92l-.23-.42c5-2,6.07-5.2,6.07-8.72,0-3.32-.86-5.14-2.18-5.14a3.69,3.69,0,0,0-2.78,2.18,8,8,0,0,0-1,3.8c0,.84.12,1.46.12,2.18a.68.68,0,0,1-.68.74.91.91,0,0,1-.87-.62,6.26,6.26,0,0,1-.3-1.94c0-2.1.95-5.8.95-7A3.55,3.55,0,0,0,671.25,62.32Z"/><path class="cls-1" d="M693.37,64.18s1,.82,1.66,1.42c0,.22-.22.32-.5.32h-7.85l-.16-.58h5.93Zm-1.88,3.72.84-1.08s1,.76,1.58,1.34c-.06.22-.26.32-.54.32h-5.79l-.16-.58ZM687.58,71l-.16-.58h4l.88-1.1s1,.78,1.58,1.36c0,.22-.22.32-.5.32Zm5.91,7.58a2,2,0,0,1-1.27.48H692V78h-3V79.3c0,.14-.62.48-1.26.48h-.22V72.34L689,73h2.75l.79-.86,1.71,1.3a1.42,1.42,0,0,1-.8.38Zm-5.81-15.18-.16-.58h3.9l.92-1.16s1,.82,1.67,1.44c0,.22-.24.3-.51.3ZM692,77.38v-3.8h-3v3.8Zm11.9-6.3c-.16.18-.36.24-.84.26a14,14,0,0,1-3,4.72,15,15,0,0,0,5.3,2.32l0,.22a1.86,1.86,0,0,0-1.5,1.38,12.44,12.44,0,0,1-4.8-3,15.91,15.91,0,0,1-6.13,3l-.13-.3a15.23,15.23,0,0,0,5.5-3.56,12.81,12.81,0,0,1-2.3-5h-1.48l-.18-.58h6.9l1-1ZM694,69.72a6.82,6.82,0,0,0,2-5.42V61.92l1.78.72h2.3l.78-.86,1.56,1.34a1,1,0,0,1-.66.28v3.84c0,.2.06.26.38.26h.74a6.48,6.48,0,0,0,.72,0,.29.29,0,0,0,.28-.2,21.33,21.33,0,0,0,.58-2.34h.24l.06,2.42c.4.16.46.34.46.62,0,.6-.58.92-2.44.92h-1.1c-1.22,0-1.42-.34-1.42-1.34V63.22h-2.76V64.3A5.83,5.83,0,0,1,694.19,70Zm2.4,1.38a9.85,9.85,0,0,0,2.68,4.12,12.8,12.8,0,0,0,2.2-4.12Z"/><path class="cls-1" d="M713.25,67.28c-.06.16-.26.3-.62.34V79.5a1.86,1.86,0,0,1-1.25.46h-.24V69.2a17.16,17.16,0,0,1-2,2.72l-.3-.18a37.44,37.44,0,0,0,3.64-10.2l2.35.7c-.08.24-.3.42-.77.42a32.53,32.53,0,0,1-1.67,4.28Zm12.42-1.54s1.16.88,1.84,1.54c0,.2-.24.3-.5.3H715.93v2.9c0,2.72-.12,6.76-2.56,9.46l-.24-.2c1.34-2.82,1.4-6.3,1.4-9.26V66.3l1.66.7h8.5ZM714.33,64h3.4V61.52l2.14.22c0,.28-.2.48-.66.54V64H722V61.52l2.16.22c0,.26-.22.48-.7.54V64H725l.88-1.12a19.26,19.26,0,0,1,1.66,1.4.47.47,0,0,1-.5.32h-3.52V66c0,.1-.36.36-1.2.38H722V64.58h-2.8V66c0,.12-.44.36-1.22.36h-.26V64.58h-3.26Zm10.94,4.34,1.82,1.34a1.49,1.49,0,0,1-.84.42v7.86c0,1.16-.2,1.8-1.94,2a2,2,0,0,0-.3-1.08,1.64,1.64,0,0,0-1.14-.5V78s1.2.1,1.52.1.36-.12.36-.36V75.62h-2.56v3.66a1.36,1.36,0,0,1-1.14.44h-.24v-4.1h-2.5v3.8c0,.16-.58.5-1.18.5h-.24V68.52l1.52.7h6.14Zm-7,1.46v2.3h2.5v-2.3Zm2.5,5.26V72.68h-2.5V75Zm1.38-5.26v2.3h2.56v-2.3ZM724.75,75V72.68h-2.56V75Z"/><line class="cls-2" y1="50.09" x2="960" y2="50.09"/><path class="cls-1" d="M32.49,28,32.34,38H3.39V36.25l4.75-.45c.1-4.95.1-10,.1-15.1V18.25c0-5,0-10-.1-15.1L3.39,2.7V.9h28l.05,9.8h-2.7L26.79,3H15.34c-.15,4.9-.15,9.9-.15,15.15h7.5l.75-5.45h2.35V25.3H23.44l-.7-5.25H15.19c0,5.65,0,10.8.15,15.9H27.79l1.95-8Z"/><path class="cls-1" d="M69.24,47.65a13.28,13.28,0,0,1-7,1.85c-7.5,0-11.4-4.75-11.6-10.9-7.55-1.55-13.75-8.1-13.75-19.15C36.89,7,45.14,0,54.19,0S71.44,6.8,71.44,19.45c0,11.1-6.4,17.85-14.2,19.25-.1,5.2,2.85,8.35,7.4,8.35a10.76,10.76,0,0,0,4-.8Zm-15-10.75c6.7,0,9.85-7.7,9.85-17.45,0-9.6-3.15-17.4-9.85-17.4s-9.8,7.8-9.8,17.4C44.39,29.2,47.49,36.9,54.19,36.9Z"/><path class="cls-1" d="M113.09,2.7l-5,.7-.2,19.3c0,11.3-5,16.25-13.4,16.25s-14-4.2-14-15.4V18c0-4.9,0-9.9-.15-14.85l-4.4-.45V.9h16.7V2.7l-5.1.5c-.15,4.85-.15,9.85-.15,14.8v4.65c0,9.2,3.3,12.5,9,12.5,6.1,0,9.4-3.7,9.35-13l-.15-18.7-5.8-.75V.9h13.35Z"/><path class="cls-1" d="M128.89,3.15c-.15,5-.15,10-.15,15.1V20.7c0,5,0,10.1.15,15.1l4.75.45V38h-16.7V36.25l4.75-.45c.1-4.95.1-10,.1-15.1V18.25c0-5,0-10-.1-15.1l-4.75-.45V.9h16.7V2.7Z"/><path class="cls-1" d="M149.89,23.15c0,3.9,0,8.2.15,12.6l5.35.5V38h-17.3V36.25l4.75-.45c.1-4.95.1-10,.1-15.1V18.25c0-5,0-10-.1-15.1l-4.75-.45V.9H153c10.55,0,15,4.2,15,11,0,6.2-4.2,11.25-15.75,11.25ZM150,2.85c-.15,5.05-.15,10.2-.15,15.4V21.2h2.45c6.3,0,9-3.8,9-9.3,0-5.9-2.8-9-8.65-9Z"/><path class="cls-1" d="M212.44,3.15c-.05,5-.05,10.1-.05,15.1V20.7c0,5.05,0,10.1.05,15.1l4.8.45V38h-16.5V36.25l4.6-.45c.15-4.95,0-9.95.15-14.3l.1-15.75L193.39,38h-2.45L178.39,6c.15,5,.25,11.65.25,13.75v16l5.25.6V38h-13V36.25l5.3-.6.2-32.3-5.25-.65V.9h12.2l11.1,28.2L205.24.9h12V2.7Z"/><path class="cls-1" d="M250.84,28,250.69,38H221.74V36.25l4.75-.45c.1-4.95.1-10,.1-15.1V18.25c0-5,0-10-.1-15.1l-4.75-.45V.9h27.95l.05,9.8H247L245.14,3H233.69c-.15,4.9-.15,9.9-.15,15.15H241l.75-5.45h2.35V25.3h-2.35l-.7-5.25h-7.55c0,5.65,0,10.8.15,15.9h12.45l2-8Z"/><path class="cls-1" d="M291.84,2.7l-4.6.65L287,38.2h-3.45L261.44,7.1l.15,28.5,6.4.65V38h-13.5V36.25l4.65-.6.25-31.45-.8-1.05-3.8-.45V.9h10.55l19.6,27.2-.15-24.7-6.45-.7V.9h13.5Z"/><path class="cls-1" d="M314.54,3c-.1,5-.1,10.1-.1,15.25V20.7c0,5,0,10.05.1,15.1l5.35.45V38H302V36.25l5.35-.45c.05-4.95.05-10,.05-15.1V18.25c0-5.05,0-10.2-.05-15.25h-7.75l-2.1,8.25h-2.8L295.09.9h31.75l.3,10.35h-2.8l-2-8.25Z"/></g></g></svg>