<svg xmlns="http://www.w3.org/2000/svg" viewBox="0 0 375 90.47"><defs><style>.cls-1{fill:#231815;}.cls-2{fill:none;stroke:#231815;stroke-miterlimit:10;stroke-width:0.63px;}</style></defs><g id="レイヤー_2" data-name="レイヤー 2"><g id="Wire_frame" data-name="Wire frame"><path class="cls-1" d="M33.88,56.21c-.09.14-.25.21-.61.11a17.54,17.54,0,0,1-3.4,2,11.11,11.11,0,0,0,4.68,3.87l0,.14a1.56,1.56,0,0,0-1.3,1c-2.82-1.76-4.59-4.56-5.31-8.79h-.26a10.64,10.64,0,0,1-1.81,1.28c3.15,2.42,3.25,6.69,2.07,8a2.56,2.56,0,0,1-2,.58,1,1,0,0,0-.33-.82,3.63,3.63,0,0,0-1.36-.44l0-.26c.66.06,1.79.13,2.16.13s.37,0,.47-.16a4.13,4.13,0,0,0,.43-2.74,21.15,21.15,0,0,1-7.48,3.3l-.11-.26A17,17,0,0,0,27,58.63c-.1-.27-.19-.53-.31-.8a22.08,22.08,0,0,1-6.3,2.85l-.11-.26A17.75,17.75,0,0,0,26,56.66a6,6,0,0,0-.49-.64,22,22,0,0,1-5,1.9l-.13-.25a18.4,18.4,0,0,0,5.33-3.11H22.21l-.12-.45h8.06l.8-1,.68.55c.24-.43.51-1,.72-1.46H22.13a2.56,2.56,0,0,1-.89,2.13c-.45.31-1.09.31-1.28-.11a.82.82,0,0,1,.45-1,2.88,2.88,0,0,0,1.23-2.47h.25a6.05,6.05,0,0,1,.23,1h4.35v-2l1.89.18c0,.22-.18.38-.58.43v1.39h4.58L33.1,51l1.34,1.3c-.13.12-.29.14-.61.16a10.62,10.62,0,0,1-2,1.42c.19.16.38.34.56.48,0,.16-.21.24-.44.24H28.2A11.8,11.8,0,0,0,29.64,58a17.85,17.85,0,0,0,2.66-2.8Z"/><path class="cls-1" d="M51.23,58s.88.75,1.39,1.25a.39.39,0,0,1-.42.25h-2V62a1.73,1.73,0,0,1-1.08.4h-.17v-.89H45.67v1.28c0,1-.22,1.55-2.05,1.71a1.14,1.14,0,0,0-.45-.85,3.2,3.2,0,0,0-1.61-.46V62.9s2,.15,2.38.15.44-.1.44-.36V61.48H39.57L39.45,61h4.93V59.52H37.86l-.14-.44h6.66V57.59H39.69l-.15-.47h4.84V55.65H41.17v.46c0,.12-.56.39-1.08.39h-.18v-4l1.38.58h3.09V51.86h-6.5l-.13-.48h6.63v-1.7l1.87.21c0,.22-.19.38-.58.43v1.06h4.21l.88-1.08s1,.76,1.62,1.3c-.05.18-.19.26-.42.26H45.67v1.26h3.08l.65-.7,1.44,1.07a1.27,1.27,0,0,1-.64.3v2.05a1.89,1.89,0,0,1-1.09.37h-.2v-.56H45.67v1.47h3.11l.64-.7,1.41,1.07a1.36,1.36,0,0,1-.64.3v1.29h.28Zm-6.85-2.83v-1.6H41.17v1.6Zm1.29-1.6v1.6h3.24v-1.6Zm0,5.49h3.27V57.59H45.67Zm3.27.44H45.67V61h3.27Z"/><path class="cls-1" d="M62.2,62.93c4-.76,5.75-2.83,5.75-5.71a4.51,4.51,0,0,0-4.69-4.71l-.6,0a3,3,0,0,1,.8,1.8A7.93,7.93,0,0,1,63,57c-.67,2-2.51,5-4.24,5-1.14,0-2.27-1.77-2.27-3.79a6.22,6.22,0,0,1,2.21-4.56,7,7,0,0,1,4.72-1.71c3.41,0,6,2.27,6,5.6,0,2.75-1.81,5.44-7.08,5.75ZM62,52.66a6,6,0,0,0-3,1.61,5.14,5.14,0,0,0-1.59,3.62c0,1.46.66,2.63,1.32,2.63,1,0,2.46-2.44,3.09-3.83a7.64,7.64,0,0,0,.6-2.59A2.62,2.62,0,0,0,62,52.66Z"/><path class="cls-1" d="M78.86,51.57a1.3,1.3,0,0,1-.68.32v10c0,.12-.6.41-1,.41H77V61.2H75v1.43c0,.11-.4.42-1,.42h-.21V50.62l1.41.58h1.65l.66-.75ZM75,51.66v4.28h2V51.66Zm2,9.08V56.39H75v4.35Zm1.57-5.25L78.39,55h3.79V52.69H79l-.13-.48h3.31V49.76l1.85.18c0,.22-.18.38-.58.44v1.83h1.82l.8-1s.9.7,1.46,1.23c0,.18-.21.26-.43.26H83.45V55h2.3l.8-1A18.25,18.25,0,0,1,88,55.23c0,.18-.19.26-.4.26Zm8.27,1.18s.87.69,1.37,1.17c0,.18-.21.26-.44.26H85.45v4.64c0,1-.21,1.54-1.92,1.7a1.19,1.19,0,0,0-.38-.88,2.9,2.9,0,0,0-1.44-.47v-.24s1.76.12,2.11.12.38-.08.38-.31V58.1H78.58l-.12-.47H84.2V55.79L86,56c0,.21-.19.34-.53.4v1.26h.61Zm-7.05,2c3.77,1.21,2.6,3.82,1.34,2.83a6.21,6.21,0,0,0-1.5-2.72Z"/><path class="cls-1" d="M93.27,55.3v8.64c0,.18-.43.5-1,.5H92V50.18l1.33.62H96.2l.62-.69,1.33,1a1.16,1.16,0,0,1-.59.28v4.29a1.72,1.72,0,0,1-1,.36h-.2V55.3Zm0-4v1.54h3.07V51.25Zm3.07,3.57V53.25H93.27v1.57Zm5.7,2.62a1,1,0,0,1-.59.27v4.81a1.61,1.61,0,0,1-1,.41h-.19v-.88H96.66v.64c0,.13-.51.4-1,.4h-.19V56.53l1.26.56h3.35l.62-.69Zm-5.38.1v1.73h3.57V57.54Zm3.57,4V59.73H96.66v1.84Zm5.41-10.4a1.19,1.19,0,0,1-.67.3V62.71c0,1-.19,1.57-1.86,1.73a1.43,1.43,0,0,0-.33-.93,2.64,2.64,0,0,0-1.31-.46v-.26s1.53.13,1.87.13.37-.11.37-.36V55.3H100.5v.33c0,.12-.54.39-1,.39h-.16v-5.8l1.28.58h3l.6-.78Zm-5.14.08v1.54h3.21V51.25Zm3.21,3.57V53.25H100.5v1.57Z"/><path class="cls-1" d="M120,54.26a2.85,2.85,0,0,1,1.31.4,2,2,0,0,1,1,1.37c0,.36-.24.39-.91.58a30.86,30.86,0,0,0-4.42,1.7c.07.91.08,2,.08,2.53s-.2.72-.59.72a.63.63,0,0,1-.66-.69c0-.4.07-1.19.08-2-1.47.86-2.59,1.84-2.59,2.75s.91,1.23,2.45,1.23a24,24,0,0,0,4-.51c.64,0,1,.19,1,.61s-.11.51-.66.67a15.53,15.53,0,0,1-3.58.43c-3,0-4-1-4-2.27s1.53-2.62,3.32-3.76c0-1.33-.3-1.83-1.12-1.83s-1.92,1-2.56,1.69-1,1.45-1.47,1.47-.61-.31-.61-.77.56-.85,1.27-1.57a14.7,14.7,0,0,0,2.19-2.91,9.61,9.61,0,0,1-1.18.08c-1.3,0-1.59-.48-2.17-1.75l.31-.17a2.45,2.45,0,0,0,2.13,1,8.79,8.79,0,0,0,1.47-.16,7.11,7.11,0,0,0,.48-1.33c.08-.27.05-.42-.26-.56a3.71,3.71,0,0,0-.92-.29v-.27a2.88,2.88,0,0,1,1-.21c.54,0,1.66.26,1.66.69,0,.22-.13.35-.29.69s-.32.64-.51,1a15,15,0,0,0,1.89-.65c.64-.27.75-.43,1-.43.42,0,.8.13.8.51s-.14.39-.48.57a17.88,17.88,0,0,1-3.82,1.15,18.59,18.59,0,0,1-1.44,2.16c-.07.09,0,.17.09.11a3.75,3.75,0,0,1,1.76-.58c1,0,1.62.68,1.8,1.81,1.25-.67,2.78-1.31,3.68-1.79.27-.16.3-.32.08-.56a2.19,2.19,0,0,0-.79-.56Z"/><path class="cls-1" d="M129.93,56.82a15.55,15.55,0,0,1-.21,1.74c3.74,1.64,2.61,4.37,1.34,3.32A5.84,5.84,0,0,0,129.65,59a8.66,8.66,0,0,1-3.44,5.38l-.19-.18a11.3,11.3,0,0,0,2.69-7.33h-2.43l-.11-.47h2.56c0-.28,0-.57,0-.86V53h-.67a8.86,8.86,0,0,1-1.7,2.74l-.22-.16a17.44,17.44,0,0,0,1.49-5.84l1.81.4c0,.19-.21.35-.56.37a18.78,18.78,0,0,1-.63,2h2l.77-1s.86.71,1.41,1.2c0,.16-.21.24-.43.24h-2v2.5c0,.27,0,.56,0,.86h.57l.74-1s.83.68,1.35,1.17c0,.18-.2.26-.42.26Zm9.62,5.47s.91.76,1.45,1.28c0,.18-.19.26-.43.26h-9.35l-.13-.48h5.19a24.54,24.54,0,0,0,1.17-4.47l1.89.44a.53.53,0,0,1-.56.35,20.53,20.53,0,0,1-2.16,3.68h2.13Zm-7.5-10.75-.12-.45h6.5l.81-1s.93.72,1.49,1.23c0,.18-.19.26-.42.26Zm6.15,7.07v-.72H134v.56c0,.11-.52.4-1.05.4h-.18V53l1.31.58H138l.66-.72L140.14,54a1.26,1.26,0,0,1-.69.33v3.94a1.74,1.74,0,0,1-1,.35Zm-4.56.4c3.12,2.15,1.82,4.69.7,3.54a8.75,8.75,0,0,0-.91-3.46Zm4.56-1.57V54.08H134v3.36Z"/><path class="cls-1" d="M147.82,54.93c2.81,1.57,1.69,3.67.73,2.74a3.92,3.92,0,0,0-.13-.8l-.94.25v7a1.19,1.19,0,0,1-1,.36h-.19V59.33a.58.58,0,0,1-.51.24,10.21,10.21,0,0,1-1.7,3.62l-.27-.13a16.64,16.64,0,0,0,1-4.21l1.52.35V57.4l-1.47.33a.55.55,0,0,1-.4.34l-.51-1.36c.3,0,.75,0,1.29-.05a46.29,46.29,0,0,0,2.77-5.2l1.7.65a.6.6,0,0,1-.66.27,38.57,38.57,0,0,1-3.31,4.26l2.59-.13a9.51,9.51,0,0,0-.69-1.5Zm.2-4.63c-.06.2-.27.32-.6.29A22.66,22.66,0,0,1,145.56,53c1.17,1,.43,2.14-.37,1.54a4.87,4.87,0,0,0-1.31-2.17l.16-.12a5.72,5.72,0,0,1,1.17.49c.35-.85.73-2,1.07-3.07Zm0,8.39c2.6,1.89,1.48,3.92.57,3a8.88,8.88,0,0,0-.78-2.92Zm4.88-5.17c-.07.19-.24.34-.61.34a16.56,16.56,0,0,1-.91,2.11l.7.27c-.06.15-.21.24-.49.29v7.52a1.34,1.34,0,0,1-.95.37h-.21V57.6A11.52,11.52,0,0,1,149.32,59l-.24-.14A21.38,21.38,0,0,0,151.27,53ZM159,52a1,1,0,0,1-.59.16,9.16,9.16,0,0,1-.92,1,12,12,0,0,1,1.24,1,.37.37,0,0,1-.4.24h-2.1c-.31.62-.67,1.39-1,1.95h1.46l.62-.65,1.3,1A1,1,0,0,1,158,57v6.89a1.59,1.59,0,0,1-1,.38h-.16v-1h-2.77V64c0,.13-.45.42-1,.42h-.19V55.86l1.23.54h.49c.1-.59.2-1.36.24-1.95h-2.24L152.5,54h4.28l.51-.66c-.08.08-.16.14-.24.21l-.21-.1c.12-.37.26-1,.37-1.46H150.9a2.25,2.25,0,0,1-.59,1.7c-.32.27-.93.31-1.13-.11a.77.77,0,0,1,.41-1,2.56,2.56,0,0,0,.91-1.7l.26,0c.05.19.08.4.11.57h2.6V49.81l1.8.16c0,.21-.16.35-.54.43v1.1h2.42l.65-.65Zm-4.93,4.87v2.7h2.77v-2.7Zm2.77,6V60h-2.77v2.83Z"/><path class="cls-1" d="M163,51.47v-.32a4.79,4.79,0,0,1,1.11-.16c.85,0,2.06,1,2.06,1.47s-.33.52-.48,1.29a37,37,0,0,0-.59,6.06c0,2,.58,2.72,2.39,2.72a7.72,7.72,0,0,0,6.08-3.36l.34.24a7.22,7.22,0,0,1-6.5,4.42c-2.2,0-3.37-1.07-3.37-3.89,0-2.43.37-6,.37-7,0-.64-.09-.85-.37-1A3,3,0,0,0,163,51.47Z"/><path class="cls-1" d="M177,60.37a6,6,0,0,1,3.59,2.13,1.82,1.82,0,0,1,.37,1.07.76.76,0,0,1-.77.84c-.37,0-.61-.21-.85-.71a7.47,7.47,0,0,0-2.51-3.09Z"/><path class="cls-1" d="M189.05,54.88c.81,2.83,0,4.68-.76,5.48-.49.52-1.21.68-1.52.3a.89.89,0,0,1,.26-1.14,6,6,0,0,0,1.76-4.64Zm3.84-1.36c0,.21-.18.37-.55.43v8.2c0,.37.15.51.95.51h2c.9,0,1.56,0,1.84,0s.36-.09.45-.27a16.72,16.72,0,0,0,.64-2.7h.21l.05,2.81c.45.16.57.32.57.58,0,.66-.67.88-3.82.88H193.1c-1.59,0-2-.27-2-1.43V53.31Zm2.27,0a9.06,9.06,0,0,0-3.91-3.22l.08-.22C197.63,51,196.63,54.31,195.16,53.49Zm5.06,6.67A7.68,7.68,0,0,0,198,54.87l.12-.16C203.34,57.36,201.5,61.76,200.22,60.16Z"/><path class="cls-1" d="M207.86,60c.74-.28,1.52-.62,2.31-1l.08.18c-1.06.78-2.6,1.89-4.64,3.15a.71.71,0,0,1-.34.47l-.7-1.59c.44-.14,1.18-.4,2.06-.75V55h-1.78l-.12-.46h1.9V50l1.81.19c0,.23-.16.39-.58.45v3.91h.42l.7-1.06s.82.77,1.28,1.27c0,.17-.19.25-.41.25h-2ZM219,62.47c.47.16.61.32.61.58,0,.65-.73.84-4.22.84H213c-1.72,0-2.28-.28-2.28-1.55V56.05l-1.85.69-.31-.39,2.16-.8V51l1.81.2c0,.2-.17.37-.57.44v3.47l1.93-.72V49.73l1.8.19c0,.22-.16.38-.58.45v3.55l1.94-.72.12-.05.66-.7,1.35,1.09a1,1,0,0,1-.63.25c0,4.21-.22,5.65-.8,6.23a2,2,0,0,1-1.42.51,1.2,1.2,0,0,0-.2-.86,1.33,1.33,0,0,0-.78-.39V59c.34,0,.85.07,1.09.07s.33,0,.43-.15c.29-.32.4-1.77.46-5.36l-2.22.82v6.66c0,.16-.53.43-1,.43h-.24V54.87l-1.93.72v6.46c0,.48.2.66,1.15.66h2.32c1,0,1.79,0,2.14-.06a.64.64,0,0,0,.48-.25,13.35,13.35,0,0,0,.69-2.35h.2Z"/><path class="cls-1" d="M229,59.78a9.58,9.58,0,0,1,2.32.74c1.06.49,2.37,1.34,2.37,2.22a.49.49,0,0,1-.54.56c-.58,0-1.11-1-2.64-1.84a7.3,7.3,0,0,0-1.36-.61c0,.21,0,.42,0,.66,0,1.33-.91,2.3-3,2.3-1.7,0-2.92-.72-2.92-2,0-1.55,1.89-2.26,3.93-2.26.3,0,.6,0,.89,0-.06-1.24-.17-3.14-.19-4.18s-.05-3-.08-3.3a.57.57,0,0,0-.43-.59,5.58,5.58,0,0,0-1.14-.21l0-.3a3.6,3.6,0,0,1,1.3-.32c.89,0,2,.6,2,1s-.23.5-.35,1a9.86,9.86,0,0,0-.21,1.78,2.24,2.24,0,0,0,.35,0,7.5,7.5,0,0,0,2.05-.36,7.25,7.25,0,0,1,1-.36c.61,0,1.07.2,1.07.65,0,.23-.18.43-.59.59a10.55,10.55,0,0,1-2.75.44,3,3,0,0,1-1.17-.37,4.43,4.43,0,0,0,0,.51c0,.75.05,2.66.18,3.89Zm-.94.8a7.91,7.91,0,0,0-1.57-.14c-1.52,0-2.58.59-2.58,1.31s.61,1,1.73,1C227.48,62.74,228,62.07,228,60.58Z"/><path class="cls-1" d="M241.46,51.26a3.4,3.4,0,0,1,1.48-.48c.68,0,1.34.23,1.42.55a13.33,13.33,0,0,0,.82,2.24,12.37,12.37,0,0,0,2.64-1.46,1.14,1.14,0,0,1,1,.16.56.56,0,0,1-.16.75,11.31,11.31,0,0,1-3,1.54,16.8,16.8,0,0,0,2.78,3.35c.39.37.51.54.53.85,0,.48-.24,1.16-.66,1.16s-.64-.25-1.1-.54a7.6,7.6,0,0,0-3.91-1.1c-1.76,0-3.07,1-3.07,2.24s1.33,2,3.76,2c1.18,0,1.76-.18,2.34-.18s1,.21,1,.65-.78.83-2.88.83c-2.78,0-5.14-.95-5.14-3.08,0-1.74,1.88-3.07,4.36-3.07a12.22,12.22,0,0,1,3.39.51c.18,0,.21,0,.08-.12a29.4,29.4,0,0,1-2.37-3.19,14.64,14.64,0,0,1-3.39.61c-1.67,0-2.24-.59-3.07-1.94l.27-.24a3.59,3.59,0,0,0,2.72,1.11,12.17,12.17,0,0,0,2.91-.5c-.37-.7-.72-1.41-1-1.91s-.74-.41-1.65-.43Z"/><path class="cls-1" d="M264.11,54.26a2.85,2.85,0,0,1,1.31.4,2,2,0,0,1,1,1.37c0,.36-.24.39-.91.58a30.86,30.86,0,0,0-4.42,1.7c.06.91.08,2,.08,2.53s-.21.72-.59.72a.63.63,0,0,1-.66-.69c0-.4.06-1.19.08-2-1.47.86-2.59,1.84-2.59,2.75s.91,1.23,2.45,1.23a23.8,23.8,0,0,0,4-.51c.64,0,1,.19,1,.61s-.11.51-.65.67a15.71,15.71,0,0,1-3.59.43c-3,0-4-1-4-2.27S258.17,59.16,260,58c0-1.33-.3-1.83-1.12-1.83s-1.92,1-2.56,1.69-1,1.45-1.47,1.47-.61-.31-.61-.77.56-.85,1.26-1.57a14.38,14.38,0,0,0,2.2-2.91,9.77,9.77,0,0,1-1.19.08c-1.3,0-1.58-.48-2.16-1.75l.3-.17a2.45,2.45,0,0,0,2.13,1,9,9,0,0,0,1.48-.16,7.11,7.11,0,0,0,.48-1.33c.08-.27,0-.42-.26-.56a3.8,3.8,0,0,0-.93-.29l0-.27a2.83,2.83,0,0,1,1-.21c.55,0,1.67.26,1.67.69,0,.22-.13.35-.29.69l-.51,1a15,15,0,0,0,1.89-.65c.64-.27.75-.43,1-.43.42,0,.8.13.8.51s-.14.39-.48.57a18,18,0,0,1-3.83,1.15,16.3,16.3,0,0,1-1.44,2.16c-.06.09,0,.17.1.11a3.75,3.75,0,0,1,1.76-.58c1,0,1.62.68,1.79,1.81,1.25-.67,2.79-1.31,3.68-1.79.28-.16.31-.32.08-.56a2.24,2.24,0,0,0-.78-.56Z"/><path class="cls-1" d="M270.2,53.38c3.49.48,2.58,2.93,1.34,2.14a4.3,4.3,0,0,0-1.49-2Zm4.45-.07c-.63,1.81-1.79,5.14-2,5.86a4.74,4.74,0,0,0-.22,1.36,16.81,16.81,0,0,1,.46,2.79c0,.72-.43,1.17-1,1.17-.32,0-.55-.29-.61-.8.24-1.67.15-3-.21-3.24a1.41,1.41,0,0,0-.78-.24v-.33h.7c.19,0,.27,0,.44-.32.3-.55.3-.55,2.94-6.31Zm-3.4-3.41c3.7.5,2.87,3,1.57,2.29A5.5,5.5,0,0,0,271.11,50Zm9.08,8.6a10.45,10.45,0,0,0,4.8,3.63l0,.16A1.49,1.49,0,0,0,284,63.43a10.17,10.17,0,0,1-4-4.82V64c0,.13-.54.4-1,.4h-.24V59.7a12.38,12.38,0,0,1-5,3.95l-.16-.24A12,12,0,0,0,278,58.5h-3.63L274.2,58h4.56V56l1.81.19c0,.21-.16.37-.56.41V58h2.56l.8-1.06s.95.74,1.51,1.28a.39.39,0,0,1-.42.26Zm-4-7.24c-.08,2.58-2.6,1.93-1.66.76a2.47,2.47,0,0,0,1.28-2.1l.24,0a7.82,7.82,0,0,1,.13.88h6.48l.74-.77,1.33,1.28c-.12.13-.28.16-.6.17-.43.44-1.2,1.16-1.66,1.54l-.21-.09c.13-.41.32-1.14.47-1.69h-1.57v3.09c0,.16,0,.23.38.23h.91c.4,0,.71,0,.85,0a.27.27,0,0,0,.27-.13,5.86,5.86,0,0,0,.42-1.21h.18l.06,1.23c.34.14.42.27.42.5,0,.48-.44.68-2.26.68H281.4c-1.09,0-1.26-.25-1.26-1V51.26h-1.33a5.82,5.82,0,0,1-4.31,5.41l-.09-.25a5.7,5.7,0,0,0,3.13-5.16Z"/><path class="cls-1" d="M297.45,53.67a4.69,4.69,0,0,1,4.51,4.7c0,2.66-1.72,5-7.42,5.28l-.08-.35c4.88-.86,6.14-3.06,6.14-5.17a3.81,3.81,0,0,0-3.37-3.79,23,23,0,0,1-1.38,3.25c-.27.53-.55,1-.82,1.42l.13.07c.35.19.71.44.71.86s-.24.48-.58.48a2,2,0,0,1-1-.4A7.71,7.71,0,0,1,293,61.25a3.67,3.67,0,0,1-2.31,1c-1,0-1.44-1-1.44-2a6.49,6.49,0,0,1,2.34-4.71c-.13-.38-.24-.75-.36-1a4.67,4.67,0,0,0-1.45-1.83l.19-.21a3.85,3.85,0,0,1,1.3.53,2.3,2.3,0,0,1,1.09,1.3c0,.18.09.38.14.59a7.46,7.46,0,0,1,3.75-1.18,12,12,0,0,0,.3-1.57c0-.37-.14-.47-.42-.55a4.24,4.24,0,0,0-1-.14l0-.29a2.42,2.42,0,0,1,1-.3c.72,0,1.87.62,1.87,1.12,0,.32-.24.53-.38,1Zm-4,5.65a6.47,6.47,0,0,1-1.07-1.69,12.67,12.67,0,0,1-.55-1.42,5.62,5.62,0,0,0-1.6,3.44c0,.88.32,1.25.75,1.25a2.28,2.28,0,0,0,1.49-.62A7.92,7.92,0,0,0,293.45,59.32Zm2.62-5a6,6,0,0,0-3.39,1.16,7.46,7.46,0,0,0,.64,1.76,4.78,4.78,0,0,0,.86,1.13,13,13,0,0,0,.72-1.19A16.58,16.58,0,0,0,296.07,54.31Z"/><path class="cls-1" d="M308.55,51.26c.23.48.5,1,.91,1a18.59,18.59,0,0,0,3.3-.72c.43-.12.46-.32.72-.32.56,0,1.55.77,1.55,1.28,0,.34-.43.39-1,.85-.88.68-3,2.64-3.67,3.38-.13.13-.05.26.1.19a7.92,7.92,0,0,1,2.73-.54A3.58,3.58,0,0,1,317.07,60c0,2-1.86,3.72-5,3.72-1.8,0-3.09-.76-3.09-2a1.72,1.72,0,0,1,1.91-1.59,2.67,2.67,0,0,1,2.66,2.27,2.93,2.93,0,0,0,2.27-2.78,2.66,2.66,0,0,0-2.93-2.71c-2.27,0-3.86,1.48-5.2,3.22-.29.35-.43.47-.71.45s-.52-.3-.49-.75.19-.59.61-1c2.24-2.31,5.26-5.19,6-6.28.18-.25.07-.35-.14-.3a16.16,16.16,0,0,0-2.47.91c-.3.15-.54.39-.83.39a1.73,1.73,0,0,1-1.42-1.3,2.15,2.15,0,0,1,0-.94Zm3.92,11.35c-.21-1.18-.94-1.84-1.84-1.84-.59,0-1,.32-1,.83s.71,1,2.16,1C312,62.65,312.25,62.63,312.47,62.61Z"/><path class="cls-1" d="M321,62.21a2.25,2.25,0,1,1,2.25,2.26A2.24,2.24,0,0,1,321,62.21Zm.54,0a1.71,1.71,0,1,0,3.41,0,1.71,1.71,0,0,0-3.41,0Z"/><path class="cls-1" d="M24.18,76.75a3.48,3.48,0,0,1,1,0c.75.11,1.7.64,1.7,1s-.21.43-.47.83a8.25,8.25,0,0,1-.57.88,1,1,0,0,0,.24,0,21.09,21.09,0,0,0,3.07-.36c.43-.09.59-.39.88-.39s1.6.7,1.6,1.2-.54.48-.8.89A19.86,19.86,0,0,1,20.63,90l-.24-.34c4.11-2.14,7.86-6.26,9.14-9.47.06-.21,0-.28-.16-.28a20.6,20.6,0,0,0-2.39.39,4,4,0,0,1-.89.21,1.45,1.45,0,0,1-.71-.39,14.34,14.34,0,0,1-4.89,4.16l-.23-.32c2.51-1.87,4.8-5.12,4.8-6.06,0-.31-.41-.6-1-.84Z"/><path class="cls-1" d="M41.16,77a3.76,3.76,0,0,1,1.26-.3c.79,0,1.72.58,1.72.86s-.24.42-.32,1-.08,1.13-.1,1.68a11.71,11.71,0,0,0,2.79-.55c.62,0,1.56.52,1.56,1a.45.45,0,0,1-.46.48,31.45,31.45,0,0,0-3.89,0c0,1.42,0,3.86.05,5,0,.91.13,1.34.13,1.82,0,.76-.58,1.54-1.09,1.54s-.48-.57-.87-.91a7.15,7.15,0,0,0-1.71-1l.11-.27c.68.13,1.48.32,1.94.37.21,0,.32-.07.34-.28.06-.62,0-2.83,0-4.73a18.55,18.55,0,0,1-7.39,5.76L35,88.15a21.28,21.28,0,0,0,6.93-6.84c-1.1.15-2.14.34-2.89.5a12.19,12.19,0,0,1-1.56.38c-.46,0-1.23-.78-1.39-1.18a3.08,3.08,0,0,1-.11-.93l.29-.11c.38.58.7.9,1.17.9,1,0,3.45-.32,5.17-.5,0-.78,0-1.71,0-2.26a.49.49,0,0,0-.39-.54,2.78,2.78,0,0,0-1-.24Z"/><path class="cls-1" d="M52,78.35v-.3a3,3,0,0,1,1-.23c.62,0,1.74.64,1.74,1.09s-.23.52-.28,1.12,0,4,0,4.81-.26.91-.61.91-.75-.59-.75-1.28c0-.42.16-1,.18-2.26,0-.75,0-2.35-.1-3,0-.37-.06-.5-.32-.62A4.13,4.13,0,0,0,52,78.35ZM53.88,90.1l-.19-.32c3.09-1.66,4.62-3.79,4.83-7a34.1,34.1,0,0,0,0-4,.67.67,0,0,0-.33-.67,3.69,3.69,0,0,0-1-.26l0-.3a3,3,0,0,1,1.2-.42c.64,0,1.79.67,1.79,1.06s-.28.46-.32,1c0,1-.11,2.69-.16,3.67C59.56,86.52,57.59,88.81,53.88,90.1Z"/><path class="cls-1" d="M65.72,80.88c.33.42.64.8,1.07.8,1.09,0,5.35-.64,8-.89,1.12-.12,1.39-.29,1.62-.29.75,0,1.71.4,1.71.91,0,.34-.13.48-.51.48s-1-.13-1.78-.13-2,0-3.33.18c.47.27.85.57.85.86s-.38.43-.61,1a10.75,10.75,0,0,1-5.58,6.28l-.31-.32a10.2,10.2,0,0,0,4.74-7.08,1,1,0,0,0-.22-.62c-1.27.18-2.64.43-3.14.56A7.76,7.76,0,0,1,66.9,83a2,2,0,0,1-1.33-1.14,2.36,2.36,0,0,1-.11-.86Zm2.37-3.41a2.68,2.68,0,0,0,1.61.58,14.21,14.21,0,0,0,2.93-.4c.92-.21,1.12-.47,1.43-.47.78,0,1.37.28,1.37.74,0,.26-.17.42-.68.51a30.75,30.75,0,0,1-5,.66c-.86,0-1.33-.51-1.87-1.43Z"/><path class="cls-1" d="M85.13,80a2.82,2.82,0,0,1,.94.1c.58.19,1.25.8,1.25,1.18s-.25.32-.59.66-1,1.12-1.78,1.82c.37.26.66.49.66.69s-.11.39-.13.71c-.06,1.71,0,3.49,0,4.14s-.19.76-.56.76c-.54,0-.8-.61-.8-1.14,0-.22.1-.48.13-.88a29.42,29.42,0,0,0,.15-3.22,1.3,1.3,0,0,0-.12-.49,16.75,16.75,0,0,1-4.73,2.8l-.16-.26c3.26-1.86,6.33-5.25,6.33-6,0-.25-.36-.51-.7-.67Z"/><path class="cls-1" d="M96.68,83.3c-.32.86-1,2.54-1.17,3.15a4.54,4.54,0,0,0-.25,1.17c0,.5.32,1,.32,1.43a.53.53,0,0,1-.56.6,1.12,1.12,0,0,1-.85-.62,7,7,0,0,1-1-3.67A14.75,14.75,0,0,1,94,81.19a10.12,10.12,0,0,0,.38-2,2.62,2.62,0,0,0-.88-1.73l.24-.2a3.29,3.29,0,0,1,.93.49,2.85,2.85,0,0,1,1.15,1.8c0,.38-.22.68-.62,1.58a9.52,9.52,0,0,0-1.06,3.92,2.63,2.63,0,0,0,.21,1.27c.11.2.22.24.37,0,.36-.56,1.24-2.43,1.63-3.23Zm1.58,1.34A6,6,0,0,0,98.71,86c.56,1,1.38,1.52,3.36,1.52a14.71,14.71,0,0,0,2.69-.29c.5,0,1,.2,1,.61,0,.75-1.52,1-3.31,1-2.66,0-4-1-4.39-2.66a5.92,5.92,0,0,1-.16-1.41Zm.16-4.88a7.55,7.55,0,0,1,3.91-1.13,5.18,5.18,0,0,1,2.24.36.77.77,0,0,1,.53.66c0,.26-.14.42-.5.46a6.68,6.68,0,0,0-1.42.31,23.85,23.85,0,0,0-2.63,1.41l-.25-.29c.7-.53,1.76-1.31,2.06-1.6s.21-.31-.88-.31a9.82,9.82,0,0,0-2.93.5Z"/><path class="cls-1" d="M111.27,84.36c0,2.11.51,3.61,4.07,3.61a16,16,0,0,0,4.27-.64c.47,0,1.07.26,1.07.69s-.16.53-.7.72a15,15,0,0,1-4.37.51c-4.26,0-5.39-2-4.74-4.88Zm2-3c.75-.49,1.7-1.15,2.26-1.53.16-.13.14-.18-.08-.18-1.81,0-3-.14-4-1.55l.21-.26a4.9,4.9,0,0,0,3.11.85,18.12,18.12,0,0,0,3-.35c.65,0,1.6.35,1.6.8s-.19.48-.64.56a10.71,10.71,0,0,0-1.71.41,34.61,34.61,0,0,0-3.51,1.56Z"/><path class="cls-1" d="M130.55,79.86a12.37,12.37,0,0,0,1.91-.8,1.46,1.46,0,0,1,.59-.26c.3,0,.83.18.83.56s-.22.53-1,.83a22.83,22.83,0,0,1-2.69.85c-.22.75-.46,1.59-.74,2.34a40.13,40.13,0,0,1-2.4,5.86c-.24.41-.41.62-.81.62s-.58-.38-.58-.81.22-.63.51-1.14A22.11,22.11,0,0,0,128.57,83c.19-.53.37-1.14.53-1.75a12.38,12.38,0,0,1-1.67.16,2.19,2.19,0,0,1-2.3-1.69l.25-.2a2.8,2.8,0,0,0,2,.87,8.67,8.67,0,0,0,2-.24,15.83,15.83,0,0,0,.37-2c0-.39-.05-.52-.33-.68a5.64,5.64,0,0,0-1-.33l0-.32a3,3,0,0,1,1.1-.16c.69,0,1.7.45,1.71.83a9.88,9.88,0,0,1-.48,1.47Zm.83,5.9a4,4,0,0,0,.55,1.51,3.11,3.11,0,0,0,2.88,1.21,14,14,0,0,0,2.51-.3c.45,0,1,.21,1,.67s-.41.55-.94.68a11.5,11.5,0,0,1-2.18.2c-2,0-3.47-.68-3.89-2.21A5,5,0,0,1,131,85.8Zm.82-3.57a7.79,7.79,0,0,1,3.06-.7,4.86,4.86,0,0,1,2.14.4,1,1,0,0,1,.6.78c0,.34-.28.47-.76.5a2.84,2.84,0,0,0-1,.23,14.56,14.56,0,0,0-1.84.72l-.18-.26a17.42,17.42,0,0,0,1.6-1.15c.11-.1.07-.18-.08-.23a4.58,4.58,0,0,0-1.39-.19,11.06,11.06,0,0,0-2.07.24Zm3.41-4.53a6.12,6.12,0,0,1,1.91,1.06,1.21,1.21,0,0,1,.52,1,.44.44,0,0,1-.46.46c-.26,0-.45-.34-.74-.72a7.18,7.18,0,0,0-1.44-1.49Zm1.39-1a6.47,6.47,0,0,1,1.91.88,1.3,1.3,0,0,1,.57,1,.41.41,0,0,1-.43.47c-.27,0-.45-.35-.78-.74a6.64,6.64,0,0,0-1.44-1.34Z"/><path class="cls-1" d="M147.75,82.07a8.86,8.86,0,0,1,4.66-1.56,3.84,3.84,0,0,1,4.05,3.7c0,2.34-1.65,4.39-6.1,5.38l-.16-.35c4-1.54,4.87-3.6,4.87-5.4a2.72,2.72,0,0,0-2.88-2.75A7.47,7.47,0,0,0,147.67,83a32,32,0,0,0,.16,4.4c0,.48.08.79.08,1.17,0,.66-.28,1.44-.77,1.44s-.56-.2-.62-.59a5.27,5.27,0,0,0-.3-1.1,11.9,11.9,0,0,0-1.06-1.81c-.3.45-.59.86-.86,1.25s-.4.57-.68.57-.51-.25-.51-.64a1.18,1.18,0,0,1,.39-.91,41.21,41.21,0,0,0,3.44-4.45c0-.38.06-.77.11-1.14-.51.28-1,.58-1.39.79s-.48.56-.77.56a1.9,1.9,0,0,1-1.41-1.22,3,3,0,0,1-.06-.72l.27-.09c.25.44.48.7.78.7a12.57,12.57,0,0,0,2.69-1.06c.13-1,.24-1.92.24-2.38a.49.49,0,0,0-.38-.56,4.4,4.4,0,0,0-.92-.26v-.32a3.28,3.28,0,0,1,1.06-.21c.75,0,1.62.76,1.62,1.27a7.26,7.26,0,0,1-.35,1.12c-.07.22-.18.61-.28,1.09h0c.28.15.64.48.64.69s-.16.35-.39.59-.45.52-.67.82Zm-.92,5.28c0-.71,0-2,0-3.35-.45.68-.94,1.41-1.44,2.12.43.52,1,1.1,1.17,1.36S146.81,87.62,146.83,87.35Z"/><path class="cls-1" d="M160,83.48a1.16,1.16,0,0,0,.8.46,2,2,0,0,0,.86-.27c1.33-.63,3.19-1.76,5.11-1.76,2.23,0,3.51,1.47,3.51,3a3.53,3.53,0,0,1-2.23,3.25,10.67,10.67,0,0,1-5,.72l0-.3c3.2-.28,6-1.33,6-3.84a2.11,2.11,0,0,0-2.28-2.21c-1.56,0-3.21,1.39-4,1.92s-1.1.85-1.49.85a1.76,1.76,0,0,1-1.31-.93,2,2,0,0,1-.14-.82Z"/><path class="cls-1" d="M179.75,79.7a12.37,12.37,0,0,0,1.91-.8,1.52,1.52,0,0,1,.59-.26c.3,0,.83.18.83.56s-.22.53-1,.83a22.21,22.21,0,0,1-2.69.85c-.22.75-.46,1.59-.73,2.34a41.17,41.17,0,0,1-2.41,5.86c-.24.41-.41.62-.81.62s-.58-.38-.58-.81.23-.63.51-1.14a22.11,22.11,0,0,0,2.39-4.88c.19-.53.37-1.14.53-1.75a12.38,12.38,0,0,1-1.67.16,2.19,2.19,0,0,1-2.3-1.69l.25-.2a2.81,2.81,0,0,0,2,.87,8.8,8.8,0,0,0,2.05-.24,15.49,15.49,0,0,0,.36-2c0-.39,0-.52-.33-.68a5.64,5.64,0,0,0-1-.33l0-.32a3.09,3.09,0,0,1,1.1-.16c.69,0,1.7.45,1.71.83a9.88,9.88,0,0,1-.48,1.47Zm.84,5.9a4,4,0,0,0,.54,1.51A3.11,3.11,0,0,0,184,88.32a14,14,0,0,0,2.51-.3c.45,0,1,.21,1,.67s-.42.55-1,.68a11.5,11.5,0,0,1-2.18.2c-2,0-3.47-.68-3.89-2.21a5.29,5.29,0,0,1-.24-1.72ZM181.4,82a7.79,7.79,0,0,1,3.06-.7,4.82,4.82,0,0,1,2.14.4,1,1,0,0,1,.6.78c0,.34-.28.47-.76.5a3,3,0,0,0-1,.22,14.64,14.64,0,0,0-1.84.73l-.18-.26a17.42,17.42,0,0,0,1.6-1.15c.11-.1.07-.18-.08-.23a4.58,4.58,0,0,0-1.39-.19,11.06,11.06,0,0,0-2.07.24Z"/><path class="cls-1" d="M197.37,80.69c-.11.14-.27.19-.62.22A12.15,12.15,0,0,1,191.14,89l-.17-.19a13.58,13.58,0,0,0,4.41-8.05h-3.95l-.13-.45h4l.76-.77Zm8.16-1.07c-.11.16-.25.22-.62.14a24.65,24.65,0,0,1-3.92,3,12.69,12.69,0,0,0,5.1,4.83l-.05.16a1.59,1.59,0,0,0-1.2,1.13c-2.68-2-4.72-4.79-5.68-10.06v9.83c0,1-.21,1.63-2,1.81a1.37,1.37,0,0,0-.42-1,3.25,3.25,0,0,0-1.57-.5v-.25s1.92.14,2.31.14.38-.09.38-.35V75.71l1.87.21c-.05.22-.16.37-.56.43v1.33a16,16,0,0,0,1.65,4.79,26.88,26.88,0,0,0,3-3.89Z"/><path class="cls-1" d="M216.46,82.55a15.09,15.09,0,0,0,2.11-.47,10.21,10.21,0,0,1,1-.37c.43,0,.91.18.91.56s-.21.48-.53.6a18,18,0,0,1-3.47.7c0,1,.13,1.79.19,2.53a8.64,8.64,0,0,1,3.73,1.62,1.38,1.38,0,0,1,.64,1,.5.5,0,0,1-.51.56c-.32,0-.5-.16-.82-.45a8.29,8.29,0,0,0-2.94-1.74c0,.22,0,.43,0,.64,0,1.34-1.12,2.14-2.92,2.14s-2.84-.73-2.84-2,1.65-2,3.68-2a7.46,7.46,0,0,1,.95,0c0-.64-.07-1.43-.1-2.29-.64,0-1.28.08-1.9.08-2.23,0-3.36-1.14-1.59-2.77l.32.17c-.94,1.25-.32,1.62,1.2,1.62a18,18,0,0,0,1.94-.1V82c0-.46,0-1,0-1.45a21.77,21.77,0,0,1-2.28.12A3.3,3.3,0,0,1,210,78.88l.25-.21a3.77,3.77,0,0,0,2.82,1,19.72,19.72,0,0,0,2.53-.19c0-.74,0-1.33,0-1.49,0-.32-.08-.42-.35-.51a5.68,5.68,0,0,0-1.17-.24l0-.31a2.65,2.65,0,0,1,1.2-.32c.78,0,1.82.47,1.82.93s-.22.5-.32.9c0,.24-.09.53-.14.88.94-.18,1.76-.37,2.22-.51a5.49,5.49,0,0,1,1-.36c.4,0,1,.18,1,.58s-.24.48-.59.61a22.74,22.74,0,0,1-3.67.78c-.05.58-.06,1.25-.06,2Zm-.79,4.27a8.64,8.64,0,0,0-1.47-.13c-1.5,0-2.5.56-2.5,1.19s.6,1,1.6,1C215.15,88.87,215.66,88.31,215.67,86.82Z"/><path class="cls-1" d="M230.39,82.07a8.86,8.86,0,0,1,4.66-1.56,3.84,3.84,0,0,1,4,3.7c0,2.34-1.65,4.39-6.1,5.38l-.16-.35c4-1.54,4.87-3.6,4.87-5.4a2.72,2.72,0,0,0-2.88-2.75A7.47,7.47,0,0,0,230.31,83a32,32,0,0,0,.16,4.4c0,.48.08.79.08,1.17,0,.66-.28,1.44-.76,1.44s-.56-.2-.63-.59a5.27,5.27,0,0,0-.3-1.1,11.9,11.9,0,0,0-1.06-1.81c-.3.45-.59.86-.86,1.25s-.4.57-.68.57-.51-.25-.51-.64a1.18,1.18,0,0,1,.39-.91,41.21,41.21,0,0,0,3.44-4.45c0-.38.06-.77.11-1.14-.51.28-1,.58-1.39.79s-.48.56-.77.56a1.9,1.9,0,0,1-1.41-1.22,3,3,0,0,1-.06-.72l.27-.09c.25.44.48.7.78.7a12.37,12.37,0,0,0,2.69-1.06c.13-1,.24-1.92.24-2.38a.49.49,0,0,0-.38-.56,4.47,4.47,0,0,0-.91-.26v-.32a3.22,3.22,0,0,1,1.05-.21c.75,0,1.62.76,1.62,1.27a7.26,7.26,0,0,1-.35,1.12c-.07.22-.18.61-.28,1.09h0c.28.15.64.48.64.69s-.16.35-.39.59-.45.52-.67.82Zm-.92,5.28c0-.71,0-2,0-3.35-.45.68-.94,1.41-1.44,2.12.43.52,1,1.1,1.17,1.36S229.45,87.62,229.47,87.35Z"/><path class="cls-1" d="M244.12,76.32l.19-.19a2.5,2.5,0,0,1,.88.32A2.45,2.45,0,0,1,246.38,78a3.48,3.48,0,0,1-.24,1,11.17,11.17,0,0,0-.35,1.52c0,.34.08.36.25,0,.77-1.37,1.84-2.32,2.9-2.32,1.89,0,2.88,2,2.88,5,0,3.4-1.6,6.12-6,7.14l-.18-.33c4-1.59,4.85-4.16,4.85-7,0-2.66-.69-4.11-1.74-4.11a3,3,0,0,0-2.23,1.74,6.51,6.51,0,0,0-.8,3c0,.67.1,1.17.1,1.75a.55.55,0,0,1-.55.59.71.71,0,0,1-.68-.5A4.8,4.8,0,0,1,244.3,84c0-1.68.75-4.64.75-5.57A2.82,2.82,0,0,0,244.12,76.32Z"/><path class="cls-1" d="M261.82,77.81s.83.65,1.33,1.14c0,.17-.18.25-.4.25h-6.28l-.13-.46h4.74Zm-1.51,3,.68-.87s.76.61,1.26,1.07c-.05.18-.21.26-.43.26h-4.63l-.13-.46Zm-3.12,2.51-.13-.47h3.19L261,82s.79.63,1.27,1.09c0,.18-.18.26-.4.26Zm4.72,6.07a1.55,1.55,0,0,1-1,.38h-.2v-.91H258.3v1.07c0,.11-.5.38-1,.38h-.18v-6l1.25.54h2.19l.64-.68,1.36,1a1.12,1.12,0,0,1-.64.3Zm-4.64-12.15-.13-.47h3.13l.73-.93s.83.66,1.33,1.16c0,.17-.19.24-.4.24Zm3.44,11.15v-3H258.3v3Zm9.53-5c-.13.15-.29.19-.67.21a11.4,11.4,0,0,1-2.39,3.78,12.12,12.12,0,0,0,4.24,1.85v.18a1.47,1.47,0,0,0-1.2,1.1,9.83,9.83,0,0,1-3.85-2.4,12.65,12.65,0,0,1-4.89,2.4l-.12-.24a12.06,12.06,0,0,0,4.41-2.85,10.05,10.05,0,0,1-1.84-4h-1.19l-.14-.47h5.52l.8-.77Zm-7.93-1.09a5.45,5.45,0,0,0,1.59-4.34V76l1.42.58h1.84l.63-.69L269,77a.8.8,0,0,1-.53.22v3.08c0,.16.05.21.3.21h.6a4.06,4.06,0,0,0,.57,0,.25.25,0,0,0,.23-.16c.09-.22.28-1,.46-1.87h.19l.05,1.93c.32.13.37.28.37.5,0,.48-.47.74-1.95.74h-.89c-1,0-1.13-.28-1.13-1.08V77H265.1v.86a4.68,4.68,0,0,1-2.63,4.55Zm1.93,1.11a7.85,7.85,0,0,0,2.14,3.29,10.15,10.15,0,0,0,1.76-3.29Z"/><path class="cls-1" d="M277.72,80.29c-.05.13-.21.24-.5.27v9.51a1.4,1.4,0,0,1-1,.37H276V81.83A13.77,13.77,0,0,1,274.42,84l-.24-.14a30,30,0,0,0,2.92-8.16l1.87.56c-.06.19-.24.33-.61.33A25.46,25.46,0,0,1,277,80Zm9.94-1.23a18.66,18.66,0,0,1,1.47,1.23c0,.16-.19.24-.4.24h-8.86v2.32c0,2.18-.1,5.41-2.05,7.57l-.19-.16c1.07-2.26,1.12-5,1.12-7.41V79.51l1.32.56h6.81Zm-9.07-1.41h2.72v-2l1.71.18c0,.22-.16.38-.53.43v1.36h2.24v-2l1.73.18c0,.2-.18.38-.56.43v1.36h1.18l.71-.9s.83.63,1.33,1.12a.38.38,0,0,1-.4.26H285.9v1.1c0,.08-.29.29-1,.31h-.21V78.13h-2.24V79.3c0,.09-.35.29-1,.29h-.2V78.13H278.7Zm8.75,3.47,1.46,1.07a1.16,1.16,0,0,1-.67.34v6.29c0,.93-.17,1.44-1.56,1.59a1.58,1.58,0,0,0-.24-.87,1.33,1.33,0,0,0-.91-.4v-.25s1,.08,1.22.08.28-.1.28-.29V87h-2v2.93a1.09,1.09,0,0,1-.92.36h-.19V87h-2V90c0,.12-.46.4-.94.4h-.2V81.28l1.22.56h4.91Zm-5.57,1.17v1.84h2V82.29Zm2,4.21V84.61h-2V86.5Zm1.11-4.21v1.84h2V82.29Zm2,4.21V84.61h-2V86.5Z"/><line class="cls-2" y1="34.89" x2="375" y2="34.89"/><path class="cls-1" d="M38,16.77l-.09,6H20.49V21.75l2.85-.27c.06-3,.06-6,.06-9.06V11c0-3,0-6-.06-9.06l-2.85-.27V.54H37.26l0,5.88H35.67L34.53,1.8H27.66c-.09,2.94-.09,5.94-.09,9.09h4.5l.45-3.27h1.41v7.56H32.52L32.1,12H27.57c0,3.39,0,6.48.09,9.54h7.47l1.17-4.8Z"/><path class="cls-1" d="M60,28.59a8,8,0,0,1-4.2,1.11c-4.5,0-6.84-2.85-7-6.54-4.53-.93-8.25-4.86-8.25-11.49C40.59,4.17,45.54,0,51,0S61.32,4.08,61.32,11.67c0,6.66-3.84,10.71-8.52,11.55-.06,3.12,1.71,5,4.44,5a6.45,6.45,0,0,0,2.4-.48Zm-9-6.45c4,0,5.91-4.62,5.91-10.47S55,1.23,51,1.23s-5.88,4.68-5.88,10.44S47,22.14,51,22.14Z"/><path class="cls-1" d="M86.31,1.62l-3,.42-.12,11.58c0,6.78-3,9.75-8,9.75s-8.43-2.52-8.43-9.24V10.8c0-2.94,0-5.94-.09-8.91L64,1.62V.54H74V1.62l-3.06.3c-.09,2.91-.09,5.91-.09,8.88v2.79c0,5.52,2,7.5,5.43,7.5,3.66,0,5.64-2.22,5.61-7.8L81.78,2.07,78.3,1.62V.54h8Z"/><path class="cls-1" d="M95.79,1.89c-.09,3-.09,6-.09,9.06v1.47c0,3,0,6.06.09,9.06l2.85.27V22.8h-10V21.75l2.85-.27c.06-3,.06-6,.06-9.06V11c0-3,0-6-.06-9.06l-2.85-.27V.54h10V1.62Z"/><path class="cls-1" d="M108.39,13.89c0,2.34,0,4.92.09,7.56l3.21.3V22.8H101.31V21.75l2.85-.27c.06-3,.06-6,.06-9.06V11c0-3,0-6-.06-9.06l-2.85-.27V.54h8.94c6.33,0,9,2.52,9,6.6,0,3.72-2.52,6.75-9.45,6.75Zm.09-12.18c-.09,3-.09,6.12-.09,9.24v1.77h1.47c3.78,0,5.4-2.28,5.4-5.58,0-3.54-1.68-5.43-5.19-5.43Z"/><path class="cls-1" d="M145.92,1.89c0,3,0,6.06,0,9.06v1.47c0,3,0,6.06,0,9.06l2.88.27V22.8h-9.9V21.75l2.76-.27c.09-3,0-6,.09-8.58l.06-9.45L134.49,22.8H133L125.49,3.57c.09,3,.15,7,.15,8.25v9.57l3.15.36V22.8H121V21.75l3.18-.36L124.29,2l-3.15-.39V.54h7.32l6.66,16.92L141.6.54h7.2V1.62Z"/><path class="cls-1" d="M169,16.77l-.09,6H151.5V21.75l2.85-.27c.06-3,.06-6,.06-9.06V11c0-3,0-6-.06-9.06l-2.85-.27V.54h16.77l0,5.88h-1.62L165.54,1.8h-6.87c-.09,2.94-.09,5.94-.09,9.09h4.5l.45-3.27h1.41v7.56h-1.41L163.11,12h-4.53c0,3.39,0,6.48.09,9.54h7.47l1.17-4.8Z"/><path class="cls-1" d="M193.56,1.62,190.8,2l-.15,20.91h-2.07L175.32,4.26l.09,17.1,3.84.39V22.8h-8.1V21.75l2.79-.36.15-18.87-.48-.63-2.28-.27V.54h6.33l11.76,16.32L189.33,2l-3.87-.42V.54h8.1Z"/><path class="cls-1" d="M207.18,1.8c-.06,3-.06,6.06-.06,9.15v1.47c0,3,0,6,.06,9.06l3.21.27V22.8H199.68V21.75l3.21-.27c0-3,0-6,0-9.06V11c0-3,0-6.12,0-9.15h-4.65l-1.26,5H195.3l.21-6.21h19.05l.18,6.21h-1.68L211.83,1.8Z"/></g></g></svg>