<svg xmlns="http://www.w3.org/2000/svg" viewBox="0 0 375 90.45"><defs><style>.cls-1{fill:#231815;}.cls-2{fill:none;stroke:#231815;stroke-miterlimit:10;stroke-width:0.63px;}</style></defs><g id="レイヤー_2" data-name="レイヤー 2"><g id="Wire_frame" data-name="Wire frame"><path class="cls-1" d="M32.89,54.88s1,.77,1.57,1.3c-.05.17-.19.25-.42.25H31a10.13,10.13,0,0,1-1.94,4.37c5.37,1.72,4.79,4.13,3.37,3.54a16,16,0,0,0-4.17-2.69c-1.72,1.51-4.35,2.36-8.48,2.77l-.06-.27c3.45-.61,5.82-1.52,7.39-3a28.21,28.21,0,0,0-3-1c-.21.43-.4.83-.58,1.16a1.86,1.86,0,0,1-1.37-.09,51.15,51.15,0,0,0,2.27-4.76H20L19.86,56h4.77c.48-1.17.9-2.26,1.12-3l1.81.37c-.06.21-.22.35-.66.37-.19.56-.51,1.34-.89,2.24h6.05Zm1.6-2.27c-.11.13-.27.16-.59.18a11.69,11.69,0,0,1-2.07,1.8l-.17-.12a15.25,15.25,0,0,0,.75-1.93H22.18a2.44,2.44,0,0,1-.81,2.07c-.44.3-1.11.29-1.32-.16a.87.87,0,0,1,.47-1,2.57,2.57,0,0,0,1.12-2.34h.25a5.4,5.4,0,0,1,.26,1h4.32V49.66l1.89.18c0,.22-.18.38-.58.43v1.81h4.6l.75-.78ZM25.8,56.43c-.48,1.11-1,2.31-1.52,3.37a29.32,29.32,0,0,1,3.49.65,9.08,9.08,0,0,0,1.74-4Z"/><path class="cls-1" d="M39.94,54.88c.82,2.83,0,4.68-.75,5.48-.5.52-1.22.68-1.52.3s-.08-.8.25-1.14a6,6,0,0,0,1.77-4.64Zm3.84-1.36c0,.21-.17.37-.54.43v8.2c0,.37.14.51.94.51h2c.89,0,1.55,0,1.84,0a.48.48,0,0,0,.45-.27,16.72,16.72,0,0,0,.64-2.7h.21l0,2.81c.45.16.58.32.58.58,0,.66-.67.88-3.83.88H44c-1.58,0-2-.27-2-1.43V53.31Zm2.28,0a9.06,9.06,0,0,0-3.91-3.22l.08-.22C48.52,51,47.53,54.31,46.06,53.49Zm5,6.67a7.64,7.64,0,0,0-2.19-5.29l.13-.16C54.24,57.36,52.39,61.76,51.11,60.16Z"/><path class="cls-1" d="M63.82,53.07a4.12,4.12,0,0,1,1.23.29,2,2,0,0,1,1.07,1.38c0,.32-.37.48-1,.7a26.42,26.42,0,0,0-4,1.86c-1.33.77-2.93,2.05-2.93,3.46,0,.94.9,1.61,3.23,1.61a21.32,21.32,0,0,0,3.91-.46c.67,0,1.26.17,1.26.74,0,.25-.27.49-.62.6a16.22,16.22,0,0,1-4.08.4c-2.8,0-4.58-.91-4.58-2.65s1.81-3.38,2.91-4.18a2.72,2.72,0,0,1-.94-1.3,17.06,17.06,0,0,1-.71-3.31A.68.68,0,0,0,58,51.6c-.26-.1-.64-.19-.9-.26V51a3.6,3.6,0,0,1,1.1-.21c.83,0,1.71.58,1.73,1s-.11.52-.11.92a9.6,9.6,0,0,0,.33,2.3,2.35,2.35,0,0,0,.85,1.2c1.17-.7,2.71-1.49,3.24-1.79.24-.13.28-.26.19-.46a1.84,1.84,0,0,0-.77-.68Z"/><path class="cls-1" d="M76.17,50.29c-.07.19-.26.33-.61.32A26.31,26.31,0,0,1,74,54.05l.71.26a.58.58,0,0,1-.47.28V64a1.53,1.53,0,0,1-1.07.42h-.23V55.76a14.59,14.59,0,0,1-2,2.37L70.76,58a29.09,29.09,0,0,0,3.49-8.29ZM84.35,52s.93.76,1.49,1.27a.39.39,0,0,1-.42.26H75.67L75.54,53h8Zm-1,2.18s.89.71,1.44,1.22c0,.17-.21.25-.43.25H76.71l-.13-.46h6ZM76.58,57.3h6l.79-1s.89.72,1.44,1.25c0,.16-.21.24-.43.24H76.71Zm7,1.41L85,59.8a1.19,1.19,0,0,1-.64.3v3.81a1.74,1.74,0,0,1-1.09.4H83.1V63.25H78V64c0,.12-.54.4-1.07.4H76.7V58.85l1.36.58h4.88ZM77,51.28l-.13-.45h5.37l.8-1s.89.73,1.45,1.26c0,.16-.2.24-.43.24ZM83.1,62.79v-2.9H78v2.9Z"/><path class="cls-1" d="M93.08,58.79c3.78,1.13,2.8,3.47,1.6,2.61a6.73,6.73,0,0,0-1.6-2.29V64c0,.16-.5.45-.93.45h-.22V60a11.72,11.72,0,0,1-3.12,3.36l-.21-.24a13.34,13.34,0,0,0,3.09-5.41H90.6v.55c0,.09-.47.33-.93.33h-.16v-5l1.17.53h1.25V52.61H89.09L89,52.13h3v-2.4l1.73.19c0,.24-.16.38-.58.45v1.76h1.07l.8-1s.88.73,1.44,1.26c0,.18-.21.26-.43.26H93.08v1.55h1.18l.6-.62,1.26.94a1,1,0,0,1-.59.29V58a1.5,1.5,0,0,1-1,.35h-.17v-.61H93.08ZM90.6,57.27h1.33V54.61H90.6Zm2.48-2.66v2.66h1.33V54.61Zm1.63,9.64a11.57,11.57,0,0,0,3.46-3l1.54.9c-.08.14-.26.16-.53.09a12.15,12.15,0,0,1-4.32,2.26Zm7.46-14.44s1,.77,1.52,1.29c0,.16-.19.24-.41.24h-3a13,13,0,0,1-1.15,1.78h2.11l.61-.67,1.33,1a1,1,0,0,1-.58.28v7.13a1.68,1.68,0,0,1-1,.39h-.19v-.56H97.85v.35c0,.13-.48.42-1,.42h-.19V52.56l1.26.56h.7c.08-.48.16-1.18.23-1.78H96l-.13-.44h5.51Zm-4.32,3.78v1.85h3.55V53.59Zm0,4.24h3.55V55.91H97.85Zm3.55,2.41v-2H97.85v2Zm-1.28,1.06c4.36.94,3.64,3.75,2.24,3a8.39,8.39,0,0,0-2.4-2.84Z"/><path class="cls-1" d="M117.71,54.26a2.85,2.85,0,0,1,1.31.4A2,2,0,0,1,120,56c0,.36-.24.39-.91.58a30.86,30.86,0,0,0-4.42,1.7c.06.91.08,2,.08,2.53s-.21.72-.59.72a.63.63,0,0,1-.66-.69c0-.4.06-1.19.08-2-1.47.86-2.59,1.84-2.59,2.75s.91,1.23,2.45,1.23a23.8,23.8,0,0,0,4-.51c.64,0,1,.19,1,.61s-.11.51-.65.67a15.71,15.71,0,0,1-3.59.43c-3,0-4-1-4-2.27s1.54-2.62,3.33-3.76c0-1.33-.3-1.83-1.12-1.83s-1.92,1-2.56,1.69-1,1.45-1.47,1.47-.61-.31-.61-.77.56-.85,1.26-1.57a14,14,0,0,0,2.19-2.91,9.48,9.48,0,0,1-1.18.08c-1.3,0-1.58-.48-2.16-1.75l.3-.17a2.45,2.45,0,0,0,2.13,1,9,9,0,0,0,1.48-.16,7.11,7.11,0,0,0,.48-1.33c.08-.27,0-.42-.26-.56a3.8,3.8,0,0,0-.93-.29l0-.27a2.83,2.83,0,0,1,1-.21c.55,0,1.67.26,1.67.69,0,.22-.13.35-.29.69l-.51,1a15,15,0,0,0,1.89-.65c.64-.27.75-.43,1-.43.41,0,.8.13.8.51s-.15.39-.48.57a18.21,18.21,0,0,1-3.83,1.15,16.3,16.3,0,0,1-1.44,2.16c-.06.09,0,.17.1.11a3.75,3.75,0,0,1,1.76-.58c1,0,1.62.68,1.79,1.81,1.25-.67,2.79-1.31,3.68-1.79.28-.16.31-.32.08-.56a2.24,2.24,0,0,0-.78-.56Z"/><path class="cls-1" d="M129.75,58.13A9.75,9.75,0,0,1,134.07,57a3,3,0,0,1,3.28,3A3.07,3.07,0,0,1,134,63,3.59,3.59,0,0,1,131,61.25l.26-.24a3.69,3.69,0,0,0,2.5,1,2.19,2.19,0,0,0,2.4-2.25c0-1.17-.72-2.12-2.43-2.12A8.78,8.78,0,0,0,129.77,59c.06,2.23.25,2.8.25,3.4s-.48,1.55-1,1.55-.43-.53-.95-1a14.79,14.79,0,0,0-1.64-1.25c-.47.45-.66.66-.92.66a.84.84,0,0,1-.56-.31,1,1,0,0,1-.33-.78c0-.43.09-.56.48-.53a1.27,1.27,0,0,0,.94-.21c.55-.32,1.78-1.28,2.88-1.9V55.65a9.25,9.25,0,0,1-1.74.27c-.85,0-1.55-.21-2.16-1.74l.25-.19c.8.76,1.08.94,1.89.91a8.94,8.94,0,0,0,1.76-.32c0-1.12,0-2.13,0-2.52s-.09-.46-.35-.56a3.71,3.71,0,0,0-1-.12l-.05-.29a2.29,2.29,0,0,1,1.24-.37c.65,0,1.74.53,1.74.94s-.24.64-.35,1.16a8.89,8.89,0,0,0-.19,1.44c1.12-.43,1.61-.91,1.92-.91s.88,0,.89.51c0,.27-.19.48-.54.65a19.07,19.07,0,0,1-2.35.88c0,.71-.07,1.43-.07,2.12Zm-.85,1.36a26,26,0,0,0-2.17,1.84c.57.29,1.26.61,1.71.8s.46,0,.46-.3Zm4.85-6.69a5.06,5.06,0,0,1,2.18-.14A2.91,2.91,0,0,1,138.44,55a.61.61,0,0,1-.52.72c-.37.06-.58-.4-1.08-.32a6.55,6.55,0,0,0-1.26.44l-.18-.25a12.69,12.69,0,0,0,1.27-.88.4.4,0,0,0,0-.61,3.21,3.21,0,0,0-2.91-1Z"/><path class="cls-1" d="M145,54.24v.66c0,3-.21,6.86-3.05,9.51l-.22-.16c1.78-2.74,2-6.17,2-9.34V50.13l1.52.61h8.49l.67-.74,1.46,1.12a1.49,1.49,0,0,1-.68.3v3.27a2,2,0,0,1-1.08.37h-.21v-.82Zm0-3v2.58h8.85V51.2Zm11,6a1.26,1.26,0,0,1-.69.33V64c0,.12-.64.39-1.07.39H154V63.29h-7.16V64c0,.12-.49.41-1,.41h-.21V56.27l1.33.6h2.8V54.59l1.73.18c0,.21-.13.34-.48.4v1.7h2.85l.67-.76Zm-9.11.1V59.8h2.9V57.33Zm0,5.49h2.9V60.26h-2.9ZM151,57.33V59.8h3V57.33Zm3,5.49V60.26h-3v2.56Z"/><path class="cls-1" d="M164.18,57.09c-.37,1.07-.88,2.61-1,3.22a4.19,4.19,0,0,0-.16,1.07c0,.51.24.8.24,1.36a.52.52,0,0,1-.57.55c-.36,0-.64-.29-.88-.68a7.2,7.2,0,0,1-1-3.93c0-2.1,1-4.45,1-5.73a2.74,2.74,0,0,0-.93-1.78l.19-.23a4.07,4.07,0,0,1,1,.48,2.87,2.87,0,0,1,1.18,1.86,3.75,3.75,0,0,1-.51,1.35,9.62,9.62,0,0,0-1.07,3.87,4,4,0,0,0,.3,1.68c.13.24.26.24.4,0,.3-.52,1-2.2,1.44-3.27Zm3.75-5.89a3.62,3.62,0,0,1,1.28-.35c.65,0,1.71.46,1.71.93a8.05,8.05,0,0,0-.24,1.09c0,.36,0,.92,0,1.5a7.77,7.77,0,0,0,.83-.29,7,7,0,0,1,.88-.4c.4,0,.93.23.93.59s-.13.45-.51.63a10.56,10.56,0,0,1-2.08.65c.09,1.72.25,4.18-.41,5.61-.73,1.71-2.19,2.49-4,3.07l-.18-.3a5.72,5.72,0,0,0,3.09-3.33,13.62,13.62,0,0,0,.37-4.82,11.76,11.76,0,0,1-1.78.14,3,3,0,0,1-2.72-1.65l.19-.24a4.24,4.24,0,0,0,2.47.85,8.48,8.48,0,0,0,1.79-.22c-.05-.9-.11-1.91-.16-2.37s-.13-.47-.37-.55a5.58,5.58,0,0,0-1.07-.22Z"/><path class="cls-1" d="M182.2,51a2.67,2.67,0,0,1,1.2-.4c.72,0,1.76.37,1.76.8s-.25.66-.27,1.07c0,.2,0,.49,0,.84,2.73-.29,3.53-.45,3.85-.45.65,0,1.54.34,1.54.93,0,.35-.19.46-.54.46a20,20,0,0,0-4.87-.13c0,.77,0,1.65,0,2.45a3.13,3.13,0,0,1,.67,2.18c0,3-2.35,4.82-5.55,5.51l-.19-.37c1.95-.72,3.55-1.83,4.16-3.38-1.59.66-2.85-.62-2.85-2.24a2.2,2.2,0,0,1,2.16-2.32,2.65,2.65,0,0,1,.66.08c0-.47,0-1.12-.08-1.81a30.72,30.72,0,0,0-4.1.77c-.74.19-1,.46-1.51.46a2.15,2.15,0,0,1-1.53-1.25,3,3,0,0,1-.15-1l.29-.12c.42.56.71,1,1.25,1s3.84-.43,5.72-.65c0-.58-.08-1.11-.12-1.49s-.11-.4-.37-.48a4.58,4.58,0,0,0-1.07-.16Zm2,7.19c0-1-.44-1.54-1.13-1.54a1.38,1.38,0,0,0-1.3,1.51,1.34,1.34,0,0,0,1.28,1.47C183.87,59.62,184.23,59.22,184.23,58.18Z"/><path class="cls-1" d="M196.07,51.26c.22.48.5,1,.91,1a18.59,18.59,0,0,0,3.3-.72c.43-.12.46-.32.72-.32.56,0,1.55.77,1.55,1.28,0,.34-.43.39-1,.85-.88.68-3,2.64-3.67,3.38-.13.13,0,.26.1.19a7.92,7.92,0,0,1,2.73-.54A3.58,3.58,0,0,1,204.59,60c0,2-1.86,3.72-5,3.72-1.8,0-3.09-.76-3.09-2a1.72,1.72,0,0,1,1.91-1.59,2.67,2.67,0,0,1,2.66,2.27,2.93,2.93,0,0,0,2.27-2.78,2.66,2.66,0,0,0-2.93-2.71c-2.27,0-3.86,1.48-5.2,3.22-.29.35-.43.47-.71.45s-.52-.3-.49-.75.19-.59.61-1c2.24-2.31,5.26-5.19,6-6.28.18-.25.07-.35-.14-.3a16.16,16.16,0,0,0-2.47.91c-.3.15-.54.39-.83.39a1.73,1.73,0,0,1-1.42-1.3,2.15,2.15,0,0,1,0-.94ZM200,62.61c-.21-1.18-.94-1.84-1.84-1.84-.59,0-1,.32-1,.83s.71,1,2.16,1C199.54,62.65,199.77,62.63,200,62.61Z"/><path class="cls-1" d="M24.18,85c3.65.87,2.72,3.28,1.54,2.48a5,5,0,0,0-1.57-2.27v4.8c0,.13-.54.4-1,.4h-.24V86.2a12,12,0,0,1-3,3L19.7,89a12.57,12.57,0,0,0,2.79-4.61H20l-.13-.46h3V82.1l1.74.19c0,.19-.16.35-.51.4v1.22h1.31l.74-1s.8.66,1.31,1.16c-.05.17-.21.25-.43.25H24.15v.71Zm-4.32-3.15-.13-.46H24a21.72,21.72,0,0,0,.78-3.08l1.75.52a.53.53,0,0,1-.58.3,17.36,17.36,0,0,1-1.58,2.26h1.28l.73-1s.88.71,1.41,1.2c-.05.18-.21.26-.43.26ZM20,77.82h2.91V75.71l1.81.16c0,.23-.16.37-.54.43v1.52h1.05l.74-.94s.85.67,1.36,1.17c-.05.17-.21.25-.43.25H20.13Zm1.3.56C24,80,22.79,82,21.83,81a6.72,6.72,0,0,0-.7-2.58Zm11.91,1.81s.94.76,1.52,1.3c0,.18-.21.26-.44.26H32.7v8.3c0,.1-.42.4-1.07.4h-.21v-8.7H29.3v.51c0,2.88-.36,6.08-3.76,8.18l-.19-.21c2.34-2.18,2.69-5,2.69-8V77l1.42.46a18,18,0,0,0,3.4-1.74l1.47,1.2c-.14.14-.41.16-.83,0a27.15,27.15,0,0,1-4.2.94v3.41h3.09Z"/><path class="cls-1" d="M50.7,77.68A1.13,1.13,0,0,1,50,78V89.78a1.81,1.81,0,0,1-1.15.45h-.21V88.87H41.53v1c0,.16-.48.5-1.08.5h-.24V76.67l1.44.64h6.87l.71-.8Zm-9.17.1v5h7.15v-5ZM48.68,88.4V83.22H41.53V88.4Z"/><path class="cls-1" d="M63.94,80a14.52,14.52,0,0,0,6.61,6.28l0,.17a1.57,1.57,0,0,0-1.24,1.12A14.62,14.62,0,0,1,63.61,80V86.6h1.17l.81-1.14s.93.78,1.48,1.33c0,.17-.18.25-.4.25H63.61v3c0,.16-.53.44-1.06.44H62.3V87H59l-.11-.44H62.3V81.33a16.1,16.1,0,0,1-6.62,6.34l-.16-.23A17.27,17.27,0,0,0,61.35,80H55.83l-.15-.46H62.3V75.68l1.93.22c0,.24-.17.4-.62.48v3.11h4.14l.9-1.19s1,.82,1.65,1.4c0,.17-.21.25-.43.25Z"/><path class="cls-1" d="M78.79,82.08c-.1.15-.25.19-.58.24a13.08,13.08,0,0,1-1.47,5c1.52,1.31,3.65,1.57,6.8,1.57,1.13,0,3.59,0,4.81,0v.21a1.1,1.1,0,0,0-.85,1.08h-4c-3.38,0-5.6-.41-7.11-2.17a8.4,8.4,0,0,1-2.77,2.48l-.14-.23a8,8,0,0,0,2.35-3,11.91,11.91,0,0,1-1.34-3.4l.22-.09a8.91,8.91,0,0,0,1.39,2.85,16,16,0,0,0,.9-4.39H75.4L75,83a1.72,1.72,0,0,1-1.17-.11c.82-1.7,1.75-3.87,2.33-5.36H73.72L73.57,77h2.61l.64-.7,1.33,1.15a1.22,1.22,0,0,1-.75.25c-.39,1-1.11,2.55-1.78,4h1.22l.67-.72Zm8.53-3.55s.77.7,1.22,1.2c0,.18-.19.26-.42.26H86.41v2.27a1.67,1.67,0,0,1-1,.37h-.18V82.1H83.08v1.65h2l.75-1s.87.69,1.38,1.17c-.05.17-.19.25-.43.25H83.08v1.7h2.55l.83-1s.94.72,1.52,1.25c0,.17-.19.25-.43.25H83.08v1.71c0,.15-.53.39-1,.39h-.24v-2.1H78.09L78,85.91h3.87v-1.7h-3l-.13-.46h3.17V82.1H79l-.14-.45h3V80h-4l-.13-.47h4.13V77.89H79.06l-.14-.48h2.91V75.7l1.81.19c0,.22-.16.38-.56.45v1.07h2l.64-.67,1.4,1a1.5,1.5,0,0,1-.66.32v1.42h.24Zm-4.24,1h2.11V77.89H83.08Zm2.11.47H83.08v1.66h2.11Z"/><path class="cls-1" d="M96.87,77.81s.83.65,1.33,1.14c0,.17-.18.25-.4.25H91.52l-.12-.46h4.73Zm-1.5,3,.67-.87s.77.61,1.26,1.07c0,.18-.21.26-.43.26H92.25l-.13-.46ZM92.25,83.3l-.13-.47H95.3L96,82s.78.63,1.26,1.09c0,.18-.18.26-.4.26ZM97,89.37a1.61,1.61,0,0,1-1,.38h-.19v-.91H93.35v1.07c0,.11-.5.38-1,.38h-.17v-6l1.24.54h2.2l.64-.68,1.36,1a1.19,1.19,0,0,1-.64.3ZM92.33,77.22l-.13-.47h3.12l.73-.93A17.31,17.31,0,0,1,97.38,77c0,.17-.19.24-.4.24Zm3.44,11.15v-3H93.35v3Zm9.52-5c-.13.15-.29.19-.67.21a11.24,11.24,0,0,1-2.39,3.78,12.2,12.2,0,0,0,4.24,1.85v.18a1.48,1.48,0,0,0-1.2,1.1,9.79,9.79,0,0,1-3.84-2.4,12.76,12.76,0,0,1-4.9,2.4l-.11-.24a12.11,12.11,0,0,0,4.4-2.85,10.19,10.19,0,0,1-1.84-4H97.78l-.14-.47h5.52l.8-.77Zm-7.92-1.09A5.44,5.44,0,0,0,99,77.9V76l1.43.58h1.84l.62-.69L104.09,77a.8.8,0,0,1-.53.22v3.08c0,.16,0,.21.31.21h.59a4.06,4.06,0,0,0,.57,0,.24.24,0,0,0,.23-.16,17.16,17.16,0,0,0,.46-1.87h.19l0,1.93c.32.13.37.28.37.5,0,.48-.46.74-2,.74h-.88c-1,0-1.14-.28-1.14-1.08V77h-2.21v.86a4.67,4.67,0,0,1-2.62,4.55Zm1.92,1.11a7.85,7.85,0,0,0,2.14,3.29,10,10,0,0,0,1.76-3.29Z"/><path class="cls-1" d="M116,88.93c4-.76,5.75-2.83,5.75-5.71A4.51,4.51,0,0,0,117,78.51c-.2,0-.39,0-.6,0a3,3,0,0,1,.8,1.8,7.93,7.93,0,0,1-.51,2.65c-.67,2-2.51,5-4.24,5-1.14,0-2.27-1.77-2.27-3.79a6.22,6.22,0,0,1,2.21-4.56,7,7,0,0,1,4.72-1.71c3.41,0,6,2.27,6,5.6,0,2.75-1.81,5.44-7.08,5.75Zm-.16-10.27a6,6,0,0,0-3,1.61,5.14,5.14,0,0,0-1.59,3.62c0,1.46.66,2.63,1.32,2.63,1,0,2.46-2.44,3.09-3.83a7.64,7.64,0,0,0,.6-2.59A2.62,2.62,0,0,0,115.8,78.66Z"/><path class="cls-1" d="M132.34,76.29a.58.58,0,0,1-.62.32,24.14,24.14,0,0,1-1.92,4l1,.37a.55.55,0,0,1-.48.3V90a1.48,1.48,0,0,1-1,.41H129V81.76A15.87,15.87,0,0,1,127,84l-.23-.14a25.72,25.72,0,0,0,3.65-8.2Zm8,11.86s1,.78,1.63,1.34c-.05.18-.21.26-.45.26H131l-.12-.46h4.53v-4.9h-3.57l-.13-.47h3.7V79.84h-4l-.13-.46h7.86L140,78.3s1,.74,1.55,1.29c-.05.17-.19.25-.41.25h-4.34v4.08h2.14l.82-1s.91.7,1.47,1.23c0,.18-.19.26-.42.26h-4v4.9h2.64Zm-6.18-12.31c4.34.88,3.63,3.7,2.24,2.93A7.91,7.91,0,0,0,134,76Z"/><path class="cls-1" d="M152.28,82.55a14.77,14.77,0,0,0,2.11-.47,10.21,10.21,0,0,1,1-.37c.43,0,.91.18.91.56s-.2.48-.52.6a18.14,18.14,0,0,1-3.48.7c0,1,.13,1.79.19,2.53a8.64,8.64,0,0,1,3.73,1.62,1.39,1.39,0,0,1,.65,1,.5.5,0,0,1-.52.56c-.32,0-.49-.16-.81-.45a8.33,8.33,0,0,0-3-1.74c0,.22,0,.43,0,.64,0,1.34-1.12,2.14-2.93,2.14-1.65,0-2.84-.73-2.84-2s1.65-2,3.69-2a7.21,7.21,0,0,1,.94,0c0-.64-.06-1.43-.1-2.29-.64,0-1.28.08-1.9.08-2.23,0-3.36-1.14-1.59-2.77l.32.17c-.94,1.25-.32,1.62,1.21,1.62a17.82,17.82,0,0,0,1.93-.1V82c0-.46,0-1,0-1.45a21.58,21.58,0,0,1-2.27.12,3.3,3.3,0,0,1-3.3-1.79l.25-.21a3.78,3.78,0,0,0,2.82,1,19.72,19.72,0,0,0,2.53-.19c0-.74,0-1.33,0-1.49,0-.32-.08-.42-.35-.51a5.68,5.68,0,0,0-1.17-.24l0-.31a2.65,2.65,0,0,1,1.2-.32c.78,0,1.83.47,1.83.93s-.23.5-.33.9c0,.24-.09.53-.14.88.94-.18,1.76-.37,2.23-.51a5,5,0,0,1,1-.36c.4,0,1,.18,1,.58s-.24.48-.59.61a22.74,22.74,0,0,1-3.67.78c0,.58-.06,1.25-.06,2Zm-.78,4.27a8.76,8.76,0,0,0-1.48-.13c-1.5,0-2.49.56-2.49,1.19s.59,1,1.6,1C151,88.87,151.48,88.31,151.5,86.82Z"/><path class="cls-1" d="M163.29,80.53c0-.88-.2-1.34-1.25-2.13l.13-.22a3.92,3.92,0,0,1,1.15.24c.64.29,1.52,1,1.52,1.74s-.64,1.71-.64,3.46a3.37,3.37,0,0,0,1.5,3.15.41.41,0,0,0,.58-.13,24,24,0,0,0,1.55-2.89l.4.17a26,26,0,0,0-.91,3c-.11.79.14.84.14,1.24s-.52.8-1.28.49a5.14,5.14,0,0,1-3-4.88C163.17,82.55,163.29,81.36,163.29,80.53Zm7.47-.48.11-.35a5.07,5.07,0,0,1,3.19,1.57,5.36,5.36,0,0,1,1.39,3.57c0,.73-.25,1.08-.77,1.08a.62.62,0,0,1-.6-.57,10.22,10.22,0,0,0-.82-3.12A4.61,4.61,0,0,0,170.76,80.05Z"/><line class="cls-2" y1="34.89" x2="375" y2="34.89"/><path class="cls-1" d="M40,28.59a8,8,0,0,1-4.2,1.11c-4.5,0-6.84-2.85-7-6.54-4.53-.93-8.25-4.86-8.25-11.49C20.55,4.17,25.5,0,30.93,0S41.28,4.08,41.28,11.67c0,6.66-3.84,10.71-8.52,11.55-.06,3.12,1.71,5,4.44,5a6.45,6.45,0,0,0,2.4-.48Zm-9-6.45c4,0,5.91-4.62,5.91-10.47S35,1.23,30.93,1.23s-5.88,4.68-5.88,10.44S26.91,22.14,30.93,22.14Z"/><path class="cls-1" d="M66.27,1.62l-3,.42-.12,11.58c0,6.78-3,9.75-8,9.75s-8.43-2.52-8.43-9.24V10.8c0-2.94,0-5.94-.09-8.91l-2.64-.27V.54h10V1.62l-3.06.3c-.09,2.91-.09,5.91-.09,8.88v2.79c0,5.52,2,7.5,5.43,7.5,3.66,0,5.64-2.22,5.61-7.8L61.74,2.07l-3.48-.45V.54h8Z"/><path class="cls-1" d="M89.28,21.75V22.8H79.59V21.75l2.91-.33L80.61,15.6H73.44l-1.77,5.79,2.94.36V22.8h-7V21.75l2.58-.36L77,.45h2.61l7.17,21Zm-9-7.26L77,4.2,73.77,14.49Z"/><path class="cls-1" d="M107.88,16.32l-.06,6.48H91l0-1.05,2.82-.27c.06-3,.06-5.94.06-8.52V11c0-3,0-6-.06-9.06L91,1.62V.54h10.17V1.62l-3,.3c-.09,3-.09,6-.09,8.79v2c0,2.79,0,5.82.09,8.85H105l1.29-5.25Z"/><path class="cls-1" d="M117.57,1.89c-.09,3-.09,6-.09,9.06v1.47c0,3,0,6.06.09,9.06l2.85.27V22.8h-10V21.75l2.85-.27c.06-3,.06-6,.06-9.06V11c0-3,0-6-.06-9.06l-2.85-.27V.54h10V1.62Z"/><path class="cls-1" d="M134.28,1.8c-.06,3-.06,6.06-.06,9.15v1.47c0,3,0,6,.06,9.06l3.21.27V22.8H126.78V21.75l3.21-.27c0-3,0-6,0-9.06V11c0-3,0-6.12,0-9.15h-4.65l-1.26,5H122.4l.21-6.21h19l.18,6.21h-1.68L138.93,1.8Z"/><path class="cls-1" d="M155.19,13.5c0,3.69,0,5.7.06,8l3.24.27V22.8H147.75V21.75l3.21-.27c.06-2.16.06-4.05.06-7.41L145,1.83l-2-.21V.54h9.84V1.62L149.79,2l4.74,10.29L159.24,2l-3-.39V.54h7.2V1.62L160.83,2Z"/><path class="cls-1" d="M193.23,11.67c0,7.53-4.89,11.7-10.35,11.7s-10.38-4.05-10.38-11.7C172.5,4.17,177.45,0,182.88,0S193.23,4.08,193.23,11.67ZM182.88,22.14c4,0,5.91-4.62,5.91-10.47S186.9,1.23,182.88,1.23,177,5.91,177,11.67,178.86,22.14,182.88,22.14Z"/><path class="cls-1" d="M203.19,1.8c-.09,2.94-.09,5.94-.09,9.09h4.59l.45-3.27h1.41v7.8h-1.41L207.69,12H203.1c0,3.33,0,6.42.09,9.42l3.21.3V22.8H196V21.75l2.85-.27c.06-3,.06-6,.06-9.06V11c0-3,0-6-.06-9.06L196,1.62V.54h16.92l0,5.88h-1.62L210.21,1.8Z"/><path class="cls-1" d="M234.15,1.8c-.06,3-.06,6.06-.06,9.15v1.47c0,3,0,6,.06,9.06l3.21.27V22.8H226.65V21.75l3.21-.27c0-3,0-6,0-9.06V11c0-3,0-6.12,0-9.15h-4.65l-1.26,5h-1.68l.21-6.21h19.05l.18,6.21H240L238.8,1.8Z"/><path class="cls-1" d="M264.51,21.75V22.8a10.54,10.54,0,0,1-3.12.39c-2.43,0-3.72-.69-4.05-2.73l-1.08-4.62c-.51-2.49-1.35-3.51-3.84-3.51h-1.65c0,3.15,0,6.18.09,9.15l2.91.27V22.8h-10V21.75l2.85-.27c.06-3,.06-6,.06-9.06V11c0-3,0-6-.06-9.06l-2.85-.27V.54h10.14c5.13,0,8,2.13,8,5.7,0,2.55-1.77,4.86-6.15,5.55,3.24.45,4.29,1.92,4.89,4.71l1.23,5ZM253,11.22c3.42,0,4.92-2.16,4.92-5s-1.62-4.56-4.83-4.56h-2.19c-.09,3-.09,6.06-.09,9.51Z"/><path class="cls-1" d="M288.36,1.62l-3,.42-.12,11.58c0,6.78-3,9.75-8,9.75s-8.43-2.52-8.43-9.24V10.8c0-2.94,0-5.94-.09-8.91L266,1.62V.54h10V1.62l-3.06.3c-.09,2.91-.09,5.91-.09,8.88v2.79c0,5.52,2,7.5,5.43,7.5,3.66,0,5.64-2.22,5.61-7.8l-.09-11.22-3.48-.45V.54h8Z"/><path class="cls-1" d="M299.79,9.87c4.44,1.92,6.06,3.72,6.06,7,0,3.93-3.09,6.54-8.28,6.54a13.18,13.18,0,0,1-6.75-1.77l.18-5h1.68l1.26,4.83a7.53,7.53,0,0,0,3.24.6c3.06,0,4.92-1.44,4.92-3.93,0-2.1-1-3.15-3.66-4.26l-1.38-.6c-3.78-1.65-5.94-3.6-5.94-7,0-4,3.24-6.21,7.77-6.21a10.42,10.42,0,0,1,5.82,1.68l-.21,4.71h-1.68l-1.26-4.62a5,5,0,0,0-2.25-.45c-2.64,0-4.47,1.32-4.47,3.69,0,2.1,1.23,3.27,3.45,4.23Z"/><path class="cls-1" d="M319.62,1.8c-.06,3-.06,6.06-.06,9.15v1.47c0,3,0,6,.06,9.06l3.21.27V22.8H312.12V21.75l3.21-.27c0-3,0-6,0-9.06V11c0-3,0-6.12,0-9.15h-4.65l-1.26,5h-1.68L308,.54H327l.18,6.21H325.5L324.27,1.8Z"/></g></g></svg>