<svg xmlns="http://www.w3.org/2000/svg" viewBox="0 0 375 63.97"><defs><style>.cls-1{fill:#231815;}.cls-2{fill:none;stroke:#231815;stroke-miterlimit:10;stroke-width:0.63px;}</style></defs><g id="レイヤー_2" data-name="レイヤー 2"><g id="Wire_frame" data-name="Wire frame"><path class="cls-1" d="M22.2,53.09c1,0,5.81-.52,6.59-.67.48-.12.56-.36.88-.36.55,0,1.88,1.08,1.88,1.57s-.5.56-.74,1.09a15.54,15.54,0,0,1-9.49,8.74l-.23-.35c4.53-2.31,7.54-5.88,8.47-9.56.07-.21,0-.24-.18-.24a57.6,57.6,0,0,0-6,.9c-.43.09-.78.38-1.12.38-.54,0-1.33-.83-1.48-1.29a4.31,4.31,0,0,1-.15-1l.29-.11A1.66,1.66,0,0,0,22.2,53.09Zm8.55-2a1.71,1.71,0,1,1,1.71,1.71A1.7,1.7,0,0,1,30.75,51.1Zm.56,0A1.14,1.14,0,1,0,32.46,50,1.14,1.14,0,0,0,31.31,51.1Z"/><path class="cls-1" d="M37.35,54.35l.27-.14c.39.49.66.85,1.17.85,1,0,5.44-.58,6.58-.76.5-.08.66-.35,1-.35.53,0,1.62.9,1.62,1.36s-.66.55-.9,1a14.29,14.29,0,0,1-8.34,7.19l-.22-.37a15.2,15.2,0,0,0,7.36-7.73c.06-.21,0-.29-.19-.27-1.17.11-4.6.65-5.67.91-.48.11-.74.4-1.09.4s-1.2-.75-1.36-1.17A3.08,3.08,0,0,1,37.35,54.35Zm8.15-2.46a27.3,27.3,0,0,1-4.72.64c-.87,0-1.35-.48-1.89-1.43l.22-.19a2.71,2.71,0,0,0,1.6.59,10.43,10.43,0,0,0,2.66-.4c.91-.21,1.12-.45,1.44-.45.8,0,1.39.24,1.39.71C46.2,51.61,46,51.77,45.5,51.89Z"/><path class="cls-1" d="M53.72,51.89c.29.4.62.94,1.17.94a36.33,36.33,0,0,0,4.85-.77c.35-.09.56-.45.83-.45.53,0,1.7,1,1.7,1.37s-.56.51-.77.81a26.76,26.76,0,0,1-2.6,3.55C61.51,58.4,64,60.1,64,61.57a.65.65,0,0,1-.65.7c-.5,0-.79-.49-1.54-1.42a12.55,12.55,0,0,0-3.33-3.1,18.82,18.82,0,0,1-7.11,4.78l-.22-.37c3.76-1.95,7.59-5.81,9-9,.08-.22,0-.27-.19-.24-1,.14-3.17.69-4,.93-.51.14-.61.46-1,.46s-1.2-.77-1.39-1.21A3.08,3.08,0,0,1,53.4,52Z"/><path class="cls-1" d="M68.65,51.5c.35.48.56.83,1,.83,1.15,0,7.09-.65,8.06-.8.42-.06.6-.3.9-.3.48,0,1.74,1.1,1.74,1.62s-.7.49-1.07.75a35.6,35.6,0,0,1-3.47,2.18.62.62,0,0,1,0,.28,12.33,12.33,0,0,1-6.53,7.35L69,63.09c3.16-2,5.17-5.87,5.17-7,0-.49-.59-.75-1.28-1l.08-.31a4.49,4.49,0,0,1,1,0,3.65,3.65,0,0,1,1.41.45,14.17,14.17,0,0,0,2.76-2.55c.19-.3.11-.36-.21-.36-.75,0-5.14.67-6.89,1-.62.15-.68.48-1.1.48a2.31,2.31,0,0,1-1.47-1.23,2.57,2.57,0,0,1-.19-1.06Z"/><path class="cls-1" d="M85.14,53.94v-.32a3.14,3.14,0,0,1,1-.16c.61,0,1.82.7,1.82,1.23,0,.35-.3.51-.38.91a10.63,10.63,0,0,1-5.14,6.95l-.26-.31c2.52-2.05,4.12-5.41,4.12-7.46C86.33,54.29,85.58,54.06,85.14,53.94Zm3.24-2.07a2.61,2.61,0,0,1,1.1-.24c.72,0,1.83.64,1.83,1.07s-.34.4-.4.92c-.08.8-.21,4.86-.21,6.06,0,.21.11.27.29.19a19.31,19.31,0,0,0,6-4.19l.32.26a19.17,19.17,0,0,1-5.81,5.23c-.37.22-.61.7-1,.7s-1.15-.89-1.15-1.24.19-.44.24-1.08c.06-.88.16-5.12.06-6.65,0-.42-.45-.6-1.25-.71Z"/><path class="cls-1" d="M102.45,52.7c1,0,5.81-.51,6.6-.69.48-.09.69-.38,1-.38.56,0,1.81,1,1.81,1.49s-.56.69-.8,1.2a15.53,15.53,0,0,1-9.5,8.74l-.22-.35c4.53-2.31,7.54-5.89,8.47-9.57.06-.21,0-.26-.18-.26a54.3,54.3,0,0,0-6,.9c-.42.09-.78.43-1.12.43-.54,0-1.33-.85-1.49-1.31a4.38,4.38,0,0,1-.14-1l.29-.11C101.51,52.22,101.88,52.7,102.45,52.7Z"/><path class="cls-1" d="M115.89,54.46c.31.4.47.61.84.61,1,0,5.23-.48,6-.59.38,0,.52-.26.8-.26s1.48,1,1.48,1.41-.6.42-.89.59c-.51.32-1.52,1-2.56,1.49a.44.44,0,0,1,0,.26,9.68,9.68,0,0,1-5.18,5.68l-.18-.24c2.36-1.55,3.92-4.56,3.92-5.36,0-.38-.43-.59-.94-.79l0-.22a3.77,3.77,0,0,1,.81,0,2.69,2.69,0,0,1,1.17.32,7.41,7.41,0,0,0,1.92-1.84c.15-.24.08-.31-.16-.31-.54,0-3.76.58-5,.88-.46.12-.56.34-.91.34a1.79,1.79,0,0,1-1.2-1,2.06,2.06,0,0,1-.13-.85Z"/><path class="cls-1" d="M134.38,62.48c4-.77,5.74-2.83,5.74-5.71a4.51,4.51,0,0,0-4.69-4.71l-.59,0a3,3,0,0,1,.8,1.8,8.19,8.19,0,0,1-.51,2.65c-.67,2-2.51,5-4.24,5-1.14,0-2.28-1.77-2.28-3.79a6.22,6.22,0,0,1,2.21-4.56,7,7,0,0,1,4.72-1.71c3.41,0,6,2.27,6,5.6,0,2.75-1.8,5.44-7.07,5.74Zm-.16-10.27a6.07,6.07,0,0,0-3,1.61,5.12,5.12,0,0,0-1.58,3.62c0,1.46.66,2.63,1.31,2.63,1,0,2.47-2.44,3.09-3.83a7.44,7.44,0,0,0,.61-2.59A2.62,2.62,0,0,0,134.22,52.21Z"/><path class="cls-1" d="M147.64,54.43c.82,2.83,0,4.68-.75,5.48-.5.52-1.22.68-1.52.3s-.08-.8.25-1.14a6,6,0,0,0,1.76-4.64Zm3.84-1.36c0,.21-.18.37-.54.43v8.2c0,.37.14.51.94.51h2c.89,0,1.55,0,1.84-.05s.35-.09.44-.27a16.72,16.72,0,0,0,.64-2.7H157l.05,2.81c.45.16.58.32.58.58,0,.66-.67.88-3.83.88h-2.11c-1.59,0-2-.27-2-1.43V52.86Zm2.27,0a9,9,0,0,0-3.9-3.22l.08-.22C156.22,50.53,155.23,53.86,153.75,53Zm5.06,6.67a7.64,7.64,0,0,0-2.19-5.29l.13-.16C161.93,56.91,160.09,61.31,158.81,59.71Z"/><path class="cls-1" d="M166.46,59.55c.73-.28,1.52-.62,2.3-1l.08.18c-1.06.78-2.59,1.89-4.64,3.15a.71.71,0,0,1-.34.47l-.7-1.59c.45-.14,1.18-.4,2.06-.75V54.59h-1.77l-.13-.46h1.9V49.58l1.81.19c0,.23-.16.39-.57.45v3.91h.41l.71-1.06s.81.77,1.28,1.27c0,.17-.2.25-.42.25h-2ZM177.6,62c.46.16.6.32.6.58,0,.65-.73.84-4.22.84h-2.37c-1.71,0-2.27-.28-2.27-1.55V55.6l-1.86.69-.3-.39,2.16-.8V50.53l1.81.2c0,.2-.18.37-.58.44v3.47l1.94-.72V49.28l1.79.19c0,.22-.16.38-.58.45v3.55l1.94-.72.13,0,.65-.7,1.35,1.09a1,1,0,0,1-.63.25c0,4.21-.22,5.65-.8,6.23a2,2,0,0,1-1.42.51,1.25,1.25,0,0,0-.19-.86,1.4,1.4,0,0,0-.79-.39v-.24c.34,0,.85.07,1.09.07s.34,0,.43-.15c.29-.32.4-1.77.47-5.36l-2.23.82v6.66c0,.16-.53.43-1,.43h-.24V54.42l-1.94.72V61.6c0,.48.21.66,1.15.66H174a20.34,20.34,0,0,0,2.15-.07.61.61,0,0,0,.48-.24,14.33,14.33,0,0,0,.69-2.35h.19Z"/><path class="cls-1" d="M187.54,59.33a9.66,9.66,0,0,1,2.33.74c1,.49,2.37,1.34,2.37,2.22a.5.5,0,0,1-.55.56c-.57,0-1.1-1-2.64-1.84a7,7,0,0,0-1.36-.61c0,.21,0,.42,0,.66,0,1.33-.91,2.3-3,2.3-1.7,0-2.91-.72-2.91-2,0-1.55,1.89-2.26,3.92-2.26.3,0,.61,0,.89,0-.06-1.24-.17-3.14-.19-4.18s0-3-.08-3.3a.57.57,0,0,0-.43-.59,5.46,5.46,0,0,0-1.14-.21l0-.3a3.65,3.65,0,0,1,1.3-.32c.9,0,2,.6,2,1.05s-.22.5-.35,1a9.86,9.86,0,0,0-.21,1.78,2.3,2.3,0,0,0,.35,0,7.43,7.43,0,0,0,2.05-.36,7.25,7.25,0,0,1,1-.36c.61,0,1.07.2,1.07.65,0,.23-.17.43-.59.59a10.4,10.4,0,0,1-2.75.44,3,3,0,0,1-1.17-.37,4.43,4.43,0,0,0,0,.51c0,.75.05,2.66.18,3.89Zm-.94.8A7.91,7.91,0,0,0,185,60c-1.52,0-2.57.59-2.57,1.31s.6,1,1.72,1C186.07,62.29,186.58,61.62,186.6,60.13Z"/><path class="cls-1" d="M200.06,50.81a3.37,3.37,0,0,1,1.47-.48c.69,0,1.34.23,1.42.55a15.34,15.34,0,0,0,.82,2.24,12.37,12.37,0,0,0,2.64-1.46,1.14,1.14,0,0,1,1,.16.55.55,0,0,1-.16.75,11.31,11.31,0,0,1-3,1.54,17.14,17.14,0,0,0,2.78,3.35c.39.37.52.54.53.85,0,.48-.24,1.16-.65,1.16s-.65-.25-1.11-.54a7.56,7.56,0,0,0-3.9-1.1c-1.77,0-3.08,1-3.08,2.24s1.33,2,3.76,2c1.19,0,1.76-.18,2.34-.18s1,.21,1,.65-.79.83-2.88.83c-2.79,0-5.14-1-5.14-3.08,0-1.74,1.87-3.07,4.35-3.07a11.79,11.79,0,0,1,3.39.51c.18,0,.21,0,.08-.13a28.27,28.27,0,0,1-2.36-3.18A14.72,14.72,0,0,1,200,55c-1.66,0-2.24-.59-3.07-1.94l.27-.24a3.61,3.61,0,0,0,2.72,1.11,12.25,12.25,0,0,0,2.92-.5,20.94,20.94,0,0,0-1.06-1.91c-.27-.41-.74-.41-1.65-.43Z"/><path class="cls-1" d="M222.7,53.81a2.85,2.85,0,0,1,1.31.4,2,2,0,0,1,1,1.37c0,.36-.24.39-.91.58a30.86,30.86,0,0,0-4.42,1.7c.07.91.08,2,.08,2.53s-.21.72-.59.72a.63.63,0,0,1-.66-.69c0-.4.07-1.19.08-2-1.47.86-2.59,1.84-2.59,2.75s.91,1.23,2.45,1.23a24,24,0,0,0,4-.51c.64,0,1,.19,1,.61s-.11.51-.66.67a15.53,15.53,0,0,1-3.58.43c-3,0-4-1-4-2.27s1.54-2.62,3.33-3.76c0-1.33-.3-1.83-1.12-1.83s-1.92,1-2.56,1.68-1,1.46-1.47,1.48-.61-.31-.61-.77.56-.85,1.27-1.57a14.7,14.7,0,0,0,2.19-2.91,9.64,9.64,0,0,1-1.19.08c-1.29,0-1.58-.48-2.16-1.75l.31-.17a2.44,2.44,0,0,0,2.13,1,8.79,8.79,0,0,0,1.47-.16,7.11,7.11,0,0,0,.48-1.33c.08-.27.05-.42-.26-.56a3.71,3.71,0,0,0-.92-.29v-.27a2.88,2.88,0,0,1,1-.21c.54,0,1.66.26,1.66.69,0,.22-.13.35-.29.69s-.32.64-.51,1a13.65,13.65,0,0,0,1.89-.64c.64-.27.75-.43,1-.43.42,0,.8.13.8.51,0,.23-.14.39-.48.56a17.2,17.2,0,0,1-3.82,1.16,18.59,18.59,0,0,1-1.44,2.16c-.07.09,0,.17.09.11a3.75,3.75,0,0,1,1.76-.58c1,0,1.62.68,1.8,1.81,1.24-.67,2.78-1.31,3.68-1.79.27-.16.3-.32.08-.56a2.19,2.19,0,0,0-.79-.56Z"/><path class="cls-1" d="M241.72,51.23a1.06,1.06,0,0,1-.65.34V63.33a1.83,1.83,0,0,1-1.15.45h-.21V62.42h-7.16v1c0,.16-.48.5-1.07.5h-.24V50.22l1.44.64h6.87l.7-.8Zm-9.17.1v5h7.16v-5ZM239.71,62V56.77h-7.16V62Z"/><path class="cls-1" d="M261.41,52.78a.85.85,0,0,1-.6.16,11.13,11.13,0,0,1-1.92,1.51l-.19-.13a13.61,13.61,0,0,0,.59-1.62H249a2.48,2.48,0,0,1-.9,2.18c-.44.3-1,.29-1.23-.16a.78.78,0,0,1,.46-1,2.76,2.76,0,0,0,1.19-2.32h.26a7,7,0,0,1,.19.83h4.37v-3l1.84.18c0,.22-.16.37-.55.43v2.37h1.2a21.54,21.54,0,0,0,1.38-2.82l1.87.71c-.08.17-.3.28-.64.24a18.72,18.72,0,0,1-2.12,1.87h2.92l.77-.79ZM258.49,58,260,59.07a1.1,1.1,0,0,1-.66.32V61.7c0,.9-.2,1.46-1.84,1.62a1.41,1.41,0,0,0-.32-.9,2.48,2.48,0,0,0-1.28-.43v-.23s1.46.08,1.83.08.33-.08.33-.29v-2.4H254.6v4.36a1.21,1.21,0,0,1-1,.46h-.21V59.15H250v3.78c0,.13-.56.4-1.09.4h-.18V58.11l1.36.58h3.24V57.06h-2.1v.4c0,.11-.56.4-1.07.4H250V53.55l1.35.56h5.31l.64-.67,1.38,1a1.19,1.19,0,0,1-.61.31V57.3a1.9,1.9,0,0,1-1.06.35h-.21v-.59H254.6v1.63h3.3Zm-9-8.54c3.48.84,2.36,3.38,1.16,2.47a4.22,4.22,0,0,0-1.32-2.34Zm1.73,7.14h5.55v-2h-5.55Z"/><path class="cls-1" d="M269.51,56.85c-.32.86-1,2.54-1.17,3.15a4.54,4.54,0,0,0-.25,1.17c0,.5.32,1,.32,1.43a.52.52,0,0,1-.56.6,1.12,1.12,0,0,1-.85-.62,7,7,0,0,1-.95-3.67,14.75,14.75,0,0,1,.76-4.17,9.42,9.42,0,0,0,.38-2,2.6,2.6,0,0,0-.88-1.73l.24-.2a3.16,3.16,0,0,1,.93.49,2.85,2.85,0,0,1,1.15,1.8c0,.38-.22.68-.62,1.58A9.52,9.52,0,0,0,267,58.64a2.63,2.63,0,0,0,.21,1.27c.11.2.22.24.37,0,.37-.56,1.25-2.43,1.63-3.23Zm1.59,1.34a5.93,5.93,0,0,0,.44,1.33c.57,1,1.38,1.52,3.37,1.52a15,15,0,0,0,2.69-.29c.49,0,1,.2,1,.61,0,.75-1.52,1-3.31,1-2.66,0-4-1-4.38-2.66a5.45,5.45,0,0,1-.16-1.41Zm.16-4.88a7.54,7.54,0,0,1,3.9-1.14,5.12,5.12,0,0,1,2.24.37.77.77,0,0,1,.53.66c0,.26-.14.42-.49.46A6.63,6.63,0,0,0,276,54a23.77,23.77,0,0,0-2.62,1.41l-.26-.29c.7-.53,1.76-1.31,2.06-1.6s.21-.31-.88-.31a9.86,9.86,0,0,0-2.93.5Z"/><line class="cls-2" y1="34.44" x2="375" y2="34.44"/><line class="cls-2" y1="34.44" x2="375" y2="34.44"/><path class="cls-1" d="M41.19,21.3v1.05H31.5V21.3L34.41,21l-1.89-5.82H25.35l-1.77,5.79,2.94.36v1.05h-7V21.3l2.58-.36L28.92,0h2.61L38.7,21Zm-9-7.26L28.86,3.75,25.68,14Z"/><path class="cls-1" d="M67.35,1.44c0,3,0,6.06,0,9.06V12c0,3,0,6.06,0,9.06l2.88.27v1.05h-9.9V21.3L63.09,21c.09-3,0-6,.09-8.58L63.24,3,55.92,22.35H54.45L46.92,3.12c.09,3,.15,7,.15,8.25v9.57l3.15.36v1.05h-7.8V21.3l3.18-.36.12-19.38-3.15-.39V.09h7.32L56.55,17,63,.09h7.2V1.17Z"/><path class="cls-1" d="M90.39,16.32l-.09,6H72.93V21.3L75.78,21c.06-3,.06-6,.06-9.06V10.5c0-3,0-6-.06-9.06l-2.85-.27V.09H89.7l0,5.88H88.11L87,1.35H80.1C80,4.29,80,7.29,80,10.44h4.5L85,7.17h1.41v7.56H85l-.42-3.15H80c0,3.39,0,6.48.09,9.54h7.47l1.17-4.8Z"/><path class="cls-1" d="M115,1.17l-2.76.39-.15,20.91H110L96.75,3.81l.09,17.1,3.84.39v1.05h-8.1V21.3l2.79-.36.15-18.87L95,1.44l-2.28-.27V.09h6.33l11.76,16.32-.09-14.82-3.87-.42V.09H115Z"/><path class="cls-1" d="M124.59,1.44c-.09,3-.09,6-.09,9.06V12c0,3,0,6.06.09,9.06l2.85.27v1.05h-10V21.3l2.85-.27c.06-3,.06-6,.06-9.06V10.5c0-3,0-6-.06-9.06l-2.85-.27V.09h10V1.17Z"/><path class="cls-1" d="M141.3,1.35c-.06,3-.06,6.06-.06,9.15V12c0,3,0,6,.06,9.06l3.21.27v1.05H133.8V21.3L137,21c0-3,0-6,0-9.06V10.5c0-3,0-6.12,0-9.15h-4.65L131.1,6.3h-1.68l.21-6.21h19.05l.18,6.21h-1.68L146,1.35Z"/><path class="cls-1" d="M162.21,13.05c0,3.69,0,5.7.06,8l3.24.27v1.05H154.77V21.3L158,21c.06-2.16.06-4.05.06-7.41L152,1.38l-2-.21V.09h9.84V1.17l-3.06.33,4.74,10.29,4.71-10.23-3-.39V.09h7.2V1.17l-2.64.39Z"/></g></g></svg>