<svg xmlns="http://www.w3.org/2000/svg" viewBox="0 0 960 80"><defs><style>.cls-1{fill:#231815;}.cls-2{fill:none;stroke:#231815;stroke-miterlimit:10;}</style></defs><g id="レイヤー_2" data-name="レイヤー 2"><g id="Wire_frame" data-name="Wire frame"><path class="cls-1" d="M35.84,47.65a13.28,13.28,0,0,1-7,1.85c-7.5,0-11.4-4.75-11.6-10.9C9.69,37.05,3.49,30.5,3.49,19.45,3.49,7,11.74,0,20.79,0S38,6.8,38,19.45c0,11.1-6.4,17.85-14.2,19.25-.1,5.2,2.85,8.35,7.4,8.35a10.76,10.76,0,0,0,4-.8ZM20.79,36.9c6.7,0,9.85-7.7,9.85-17.45,0-9.6-3.15-17.4-9.85-17.4S11,9.85,11,19.45C11,29.2,14.09,36.9,20.79,36.9Z"/><path class="cls-1" d="M79.69,2.7l-5,.7-.2,19.3C74.39,34,69.44,39,61,39s-14-4.2-14-15.4V18c0-4.9,0-9.9-.15-14.85l-4.4-.45V.9h16.7V2.7L54,3.2c-.15,4.85-.15,9.85-.15,14.8v4.65c0,9.2,3.3,12.5,9,12.5,6.1,0,9.4-3.7,9.35-13l-.15-18.7-5.8-.75V.9H79.69Z"/><path class="cls-1" d="M118,36.25V38H101.89V36.25l4.85-.55L103.59,26h-12l-3,9.65,4.9.6V38H81.89V36.25l4.3-.6L97.59.75h4.35l12,35.05ZM103,24.15,97.49,7l-5.3,17.15Z"/><path class="cls-1" d="M149,27.2l-.1,10.8h-28.1l0-1.75,4.7-.45c.1-4.95.1-9.9.1-14.2V18.25c0-5,0-10-.1-15.1l-4.75-.45V.9h16.95V2.7l-5,.5c-.15,5-.15,10-.15,14.65V21.2c0,4.65,0,9.7.15,14.75h11.4l2.15-8.75Z"/><path class="cls-1" d="M165.19,3.15c-.15,5-.15,10-.15,15.1V20.7c0,5,0,10.1.15,15.1l4.75.45V38h-16.7V36.25L158,35.8c.1-4.95.1-10,.1-15.1V18.25c0-5,0-10-.1-15.1l-4.75-.45V.9h16.7V2.7Z"/><path class="cls-1" d="M193,3c-.1,5-.1,10.1-.1,15.25V20.7c0,5,0,10.05.1,15.1l5.35.45V38H180.54V36.25l5.35-.45c.05-4.95.05-10,.05-15.1V18.25c0-5.05,0-10.2-.05-15.25h-7.75L176,11.25h-2.8L173.59.9h31.75l.3,10.35h-2.8L200.79,3Z"/><path class="cls-1" d="M227.89,22.5c0,6.15,0,9.5.1,13.3l5.4.45V38h-17.9V36.25l5.35-.45c.1-3.6.1-6.75.1-12.35L210.89,3.05l-3.3-.35V.9H224V2.7l-5.1.55,7.9,17.15,7.85-17-4.95-.65V.9h12V2.7l-4.4.65Z"/><path class="cls-1" d="M291.29,19.45C291.29,32,283.14,39,274,39s-17.3-6.75-17.3-19.5C256.74,7,265,0,274,0S291.29,6.8,291.29,19.45ZM274,36.9c6.7,0,9.85-7.7,9.85-17.45,0-9.6-3.15-17.4-9.85-17.4s-9.8,7.8-9.8,17.4C264.24,29.2,267.34,36.9,274,36.9Z"/><path class="cls-1" d="M307.89,3c-.15,4.9-.15,9.9-.15,15.15h7.65l.75-5.45h2.35v13h-2.35l-.75-5.65h-7.65c0,5.55,0,10.7.15,15.7l5.35.5V38h-17.3V36.25l4.75-.45c.1-4.95.1-10,.1-15.1V18.25c0-5,0-10-.1-15.1l-4.75-.45V.9h28.2l.05,9.8h-2.7L319.59,3Z"/><path class="cls-1" d="M359.49,3c-.1,5-.1,10.1-.1,15.25V20.7c0,5,0,10.05.1,15.1l5.35.45V38H347V36.25l5.35-.45c.05-4.95.05-10,.05-15.1V18.25c0-5.05,0-10.2-.05-15.25h-7.75l-2.1,8.25h-2.8L340,.9h31.75l.3,10.35h-2.8L367.24,3Z"/><path class="cls-1" d="M410.09,36.25V38a17.57,17.57,0,0,1-5.2.65c-4.05,0-6.2-1.15-6.75-4.55l-1.8-7.7c-.85-4.15-2.25-5.85-6.4-5.85h-2.75c0,5.25,0,10.3.15,15.25l4.85.45V38h-16.7V36.25l4.75-.45c.1-4.95.1-10,.1-15.1V18.25c0-5,0-10-.1-15.1l-4.75-.45V.9h16.9c8.55,0,13.35,3.55,13.35,9.5,0,4.25-2.95,8.1-10.25,9.25,5.4.75,7.15,3.2,8.15,7.85l2.05,8.4ZM390.84,18.7c5.7,0,8.2-3.6,8.2-8.25,0-4.85-2.7-7.6-8.05-7.6h-3.65c-.15,5.05-.15,10.1-.15,15.85Z"/><path class="cls-1" d="M449.84,2.7l-5,.7-.2,19.3c0,11.3-5,16.25-13.4,16.25s-14.05-4.2-14.05-15.4V18c0-4.9,0-9.9-.15-14.85l-4.4-.45V.9h16.7V2.7l-5.1.5C424,8.05,424,13.05,424,18v4.65c0,9.2,3.3,12.5,9,12.5,6.1,0,9.4-3.7,9.35-13l-.15-18.7-5.8-.75V.9h13.35Z"/><path class="cls-1" d="M468.89,16.45c7.4,3.2,10.1,6.2,10.1,11.6,0,6.55-5.15,10.9-13.8,10.9a22,22,0,0,1-11.25-3l.3-8.3H457l2.1,8.05a12.54,12.54,0,0,0,5.4,1c5.1,0,8.2-2.4,8.2-6.55,0-3.5-1.7-5.25-6.1-7.1l-2.3-1c-6.3-2.75-9.9-6-9.9-11.75,0-6.6,5.4-10.35,12.95-10.35a17.36,17.36,0,0,1,9.7,2.8l-.35,7.85h-2.8L471.84,3a8.25,8.25,0,0,0-3.75-.75c-4.4,0-7.45,2.2-7.45,6.15,0,3.5,2.05,5.45,5.75,7.05Z"/><path class="cls-1" d="M501.94,3c-.1,5-.1,10.1-.1,15.25V20.7c0,5,0,10.05.1,15.1l5.35.45V38H489.44V36.25l5.35-.45c0-4.95,0-10,0-15.1V18.25c0-5.05,0-10.2,0-15.25H487l-2.1,8.25h-2.81L482.49.9h31.75l.3,10.35h-2.8L509.69,3Z"/><path class="cls-1" d="M18.32,68s1.24,1,2,1.62a.48.48,0,0,1-.53.32H16a12.73,12.73,0,0,1-2.42,5.46c6.71,2.14,6,5.16,4.2,4.42a20.07,20.07,0,0,0-5.2-3.36c-2.16,1.88-5.44,2.94-10.6,3.46l-.08-.34c4.32-.76,7.28-1.9,9.24-3.76a37.08,37.08,0,0,0-3.74-1.28c-.26.54-.5,1-.72,1.46a2.4,2.4,0,0,1-1.72-.12A63.22,63.22,0,0,0,7.76,70H2.22L2,69.38H8c.6-1.46,1.12-2.82,1.4-3.72l2.26.46c-.08.26-.28.44-.82.46-.24.7-.64,1.68-1.12,2.8h7.56Zm2-2.84c-.15.16-.35.2-.75.22A14.93,14.93,0,0,1,17,67.66l-.22-.16a19.38,19.38,0,0,0,.94-2.4H4.94a3,3,0,0,1-1,2.58c-.54.38-1.38.36-1.64-.2a1.08,1.08,0,0,1,.58-1.26,3.2,3.2,0,0,0,1.4-2.92l.32,0a6.68,6.68,0,0,1,.32,1.24h5.4v-3l2.36.22c0,.28-.22.48-.72.54v2.26h5.74l.94-1ZM9.46,70c-.6,1.38-1.28,2.88-1.9,4.2a36.38,36.38,0,0,1,4.36.82,11.43,11.43,0,0,0,2.18-5Z"/><path class="cls-1" d="M27.14,68c1,3.54,0,5.84-.94,6.84-.62.66-1.52.86-1.9.38a1.1,1.1,0,0,1,.32-1.42c1.16-.88,2.24-3.18,2.2-5.8Zm4.8-1.7c0,.26-.22.46-.68.54V77.1c0,.46.18.64,1.18.64h2.48c1.12,0,1.94,0,2.3-.06a.6.6,0,0,0,.56-.34,21,21,0,0,0,.8-3.38h.26l.06,3.52c.56.2.72.4.72.72,0,.82-.84,1.1-4.78,1.1H32.2c-2,0-2.54-.34-2.54-1.78V66.06Zm2.84,0a11.22,11.22,0,0,0-4.88-4L30,62C37.86,63.14,36.62,67.3,34.78,66.28Zm6.32,8.34A9.6,9.6,0,0,0,38.36,68l.16-.2C45,71.12,42.71,76.62,41.1,74.62Z"/><path class="cls-1" d="M57,65.76a5,5,0,0,1,1.54.36,2.48,2.48,0,0,1,1.34,1.72c0,.4-.46.6-1.3.88a32.78,32.78,0,0,0-5,2.32c-1.66,1-3.66,2.56-3.66,4.32,0,1.18,1.12,2,4,2a26.41,26.41,0,0,0,4.88-.58c.84,0,1.58.22,1.58.92,0,.32-.34.62-.78.76a20.51,20.51,0,0,1-5.1.5c-3.5,0-5.72-1.14-5.72-3.32S51,71.44,52.4,70.44a3.42,3.42,0,0,1-1.18-1.62,21.39,21.39,0,0,1-.88-4.14.87.87,0,0,0-.58-.76c-.32-.12-.8-.24-1.12-.32l0-.38A4.63,4.63,0,0,1,50,63c1,0,2.14.72,2.16,1.24,0,.36-.14.64-.14,1.14a11.93,11.93,0,0,0,.42,2.88,2.84,2.84,0,0,0,1.06,1.5c1.46-.88,3.38-1.86,4-2.24.3-.16.36-.32.24-.58a2.21,2.21,0,0,0-1-.84Z"/><path class="cls-1" d="M72.42,62.28c-.08.24-.32.42-.76.4a32.38,32.38,0,0,1-2,4.3l.88.32a.72.72,0,0,1-.58.36V79.44a1.92,1.92,0,0,1-1.34.52h-.28V69.12a19.25,19.25,0,0,1-2.44,3l-.28-.2A36.3,36.3,0,0,0,70,61.52ZM82.65,64.4s1.16.94,1.86,1.58a.48.48,0,0,1-.52.32H71.8l-.16-.58h10Zm-1.2,2.72s1.12.88,1.8,1.52c0,.22-.26.32-.54.32H73.1l-.16-.58h7.52ZM72.94,71h7.52l1-1.28s1.12.9,1.8,1.56c0,.2-.26.3-.54.3H73.1Zm8.77,1.76,1.78,1.36a1.42,1.42,0,0,1-.8.38V79.3a2.17,2.17,0,0,1-1.36.5h-.25V78.48H74.66v.9c0,.14-.68.5-1.34.5h-.24V73l1.7.72h6.1ZM73.4,63.52,73.24,63h6.7l1-1.32s1.12.92,1.82,1.58c-.06.2-.27.3-.54.3ZM81.08,77.9V74.28H74.66V77.9Z"/><path class="cls-1" d="M93.56,72.9c4.72,1.42,3.5,4.34,2,3.26a8.47,8.47,0,0,0-2-2.86v6.1c0,.2-.62.56-1.16.56h-.28V74.44a14.69,14.69,0,0,1-3.9,4.2l-.26-.3a16.65,16.65,0,0,0,3.86-6.76H90.46v.68c0,.12-.58.42-1.16.42h-.2V66.46l1.46.66h1.56V65.18H88.58l-.14-.6h3.68v-3l2.16.24c0,.3-.2.48-.72.56v2.2H94.9l1-1.3s1.1.92,1.8,1.58c-.06.22-.26.32-.54.32h-3.6v1.94H95l.74-.78,1.58,1.18a1.28,1.28,0,0,1-.74.36v4c0,.14-.72.44-1.18.44h-.22v-.76H93.56ZM90.46,71h1.66V67.68H90.46Zm3.1-3.32V71h1.66V67.68Zm2,12a14.33,14.33,0,0,0,4.32-3.78l1.92,1.12c-.1.18-.32.2-.66.12A15.28,15.28,0,0,1,95.78,80Zm9.32-18s1.21,1,1.91,1.62c0,.2-.25.3-.53.3h-3.72a15.75,15.75,0,0,1-1.44,2.22h2.64l.76-.84,1.67,1.28a1.24,1.24,0,0,1-.73.34v8.92a2.11,2.11,0,0,1-1.28.48H104v-.7H99.52v.44c0,.16-.6.52-1.24.52H98V65.12l1.58.7h.88c.1-.6.2-1.48.28-2.22H97.16L97,63h6.88Zm-5.4,4.72v2.32H104V66.4Zm0,5.3H104V69.3H99.52Zm4.44,3V72.28H99.52v2.44ZM102.36,76c5.45,1.18,4.55,4.68,2.81,3.72a10.63,10.63,0,0,0-3-3.54Z"/><path class="cls-1" d="M124.34,67.24a3.7,3.7,0,0,1,1.65.5,2.6,2.6,0,0,1,1.2,1.72c0,.44-.31.48-1.15.72a39,39,0,0,0-5.52,2.12c.08,1.14.1,2.48.1,3.16s-.26.9-.74.9a.78.78,0,0,1-.82-.86c0-.5.08-1.48.1-2.5-1.84,1.08-3.24,2.3-3.24,3.44S117.06,78,119,78c3,0,4.12-.64,5-.64s1.3.24,1.3.76-.13.64-.82.84a19.78,19.78,0,0,1-4.48.54c-3.76,0-5-1.22-5-2.84s1.92-3.28,4.16-4.7c-.06-1.66-.38-2.28-1.4-2.28s-2.4,1.2-3.2,2.1-1.28,1.82-1.84,1.84-.76-.38-.76-1,.7-1.06,1.58-2A18.09,18.09,0,0,0,116.28,67a12.54,12.54,0,0,1-1.48.1c-1.62,0-2-.6-2.7-2.18l.38-.22a3,3,0,0,0,2.66,1.2,10.33,10.33,0,0,0,1.84-.2,8.57,8.57,0,0,0,.6-1.66c.1-.34.06-.52-.32-.7A4.7,4.7,0,0,0,116.1,63l0-.34a3.62,3.62,0,0,1,1.22-.26c.68,0,2.08.32,2.08.86,0,.28-.16.44-.36.86s-.4.8-.64,1.26a19.86,19.86,0,0,0,2.36-.8c.8-.34.94-.54,1.24-.54.52,0,1,.16,1,.64,0,.28-.18.48-.6.7a21.81,21.81,0,0,1-4.78,1.44,21.54,21.54,0,0,1-1.8,2.7c-.08.12,0,.22.12.14a4.7,4.7,0,0,1,2.2-.72c1.24,0,2,.84,2.24,2.26,1.56-.84,3.48-1.64,4.6-2.24.34-.2.38-.4.1-.7a2.87,2.87,0,0,0-1-.7Z"/><path class="cls-1" d="M139.4,72.08a12.06,12.06,0,0,1,5.4-1.44c2.4,0,4.1,1.44,4.1,3.78a3.84,3.84,0,0,1-4.16,3.78,4.47,4.47,0,0,1-3.8-2.22l.32-.3a4.61,4.61,0,0,0,3.12,1.2,2.75,2.75,0,0,0,3-2.82c0-1.46-.9-2.64-3-2.64a10.92,10.92,0,0,0-4.92,1.7c.08,2.78.32,3.5.32,4.24,0,.92-.6,1.94-1.28,1.94-.52,0-.54-.66-1.18-1.26a17.74,17.74,0,0,0-2.06-1.56c-.58.56-.82.82-1.14.82a1,1,0,0,1-.7-.38,1.32,1.32,0,0,1-.42-1c0-.54.12-.7.6-.66a1.63,1.63,0,0,0,1.18-.26c.68-.4,2.22-1.6,3.6-2.38V69a11.88,11.88,0,0,1-2.18.34c-1.06,0-1.94-.26-2.7-2.18l.32-.24c1,1,1.34,1.18,2.36,1.14a10.32,10.32,0,0,0,2.2-.4c0-1.4,0-2.66,0-3.14s-.12-.58-.44-.7a4.59,4.59,0,0,0-1.3-.16l-.06-.36a2.9,2.9,0,0,1,1.54-.46c.82,0,2.18.66,2.18,1.18s-.3.8-.44,1.44a12.35,12.35,0,0,0-.24,1.8c1.4-.54,2-1.14,2.4-1.14s1.1,0,1.12.64c0,.34-.24.6-.68.82a23.38,23.38,0,0,1-2.94,1.1c-.06.88-.08,1.78-.08,2.64Zm-1.06,1.7a30.55,30.55,0,0,0-2.72,2.3c.72.36,1.58.76,2.14,1s.58,0,.58-.38Zm6.06-8.36a6.3,6.3,0,0,1,2.72-.18c1.66.28,3.1,1.64,3.14,3a.75.75,0,0,1-.66.9c-.46.08-.72-.5-1.34-.4a8.37,8.37,0,0,0-1.58.56l-.22-.32a15.43,15.43,0,0,0,1.58-1.1.5.5,0,0,0,0-.76c-.74-1.08-2.28-1.28-3.64-1.2Z"/><path class="cls-1" d="M158.42,67.22V68c0,3.7-.26,8.58-3.8,11.88l-.28-.2c2.22-3.42,2.44-7.7,2.44-11.66v-6l1.9.76h10.6l.85-.92,1.82,1.4a1.93,1.93,0,0,1-.85.38v4.08a2.5,2.5,0,0,1-1.36.46h-.26v-1Zm0-3.8v3.22h11.06V63.42ZM172.13,71a1.6,1.6,0,0,1-.87.4v8a2.12,2.12,0,0,1-1.34.48h-.24V78.52h-8.94v.9c0,.16-.62.52-1.28.52h-.26V69.76l1.66.74h3.5V67.66l2.16.22c0,.26-.16.42-.6.5V70.5h3.56l.84-.94Zm-11.39.12v3.08h3.62V71.08Zm0,6.86h3.62v-3.2h-3.62Zm5.18-6.86v3.08h3.76V71.08Zm3.76,6.86v-3.2h-3.76v3.2Z"/><path class="cls-1" d="M182.44,70.78c-.46,1.34-1.1,3.26-1.3,4a4.93,4.93,0,0,0-.2,1.34c0,.64.3,1,.3,1.7a.64.64,0,0,1-.72.68c-.44,0-.8-.36-1.1-.84a9.07,9.07,0,0,1-1.18-4.92c0-2.62,1.28-5.56,1.28-7.16a3.42,3.42,0,0,0-1.16-2.22l.24-.28a4.62,4.62,0,0,1,1.22.6A3.54,3.54,0,0,1,181.3,66a4.57,4.57,0,0,1-.64,1.68,12.15,12.15,0,0,0-1.34,4.84,5,5,0,0,0,.38,2.1c.16.3.32.3.5,0,.38-.64,1.26-2.74,1.8-4.08Zm4.68-7.36a4.7,4.7,0,0,1,1.6-.44c.82,0,2.14.58,2.14,1.16a10,10,0,0,0-.3,1.36c0,.46,0,1.16,0,1.88.4-.12.76-.24,1-.36a8.82,8.82,0,0,1,1.09-.5c.51,0,1.17.28,1.17.74s-.16.56-.64.78a13.33,13.33,0,0,1-2.61.82c.12,2.14.32,5.22-.5,7-.92,2.14-2.74,3.12-5,3.84l-.22-.38a7.13,7.13,0,0,0,3.86-4.16c.62-1.62.54-4.1.46-6a13.66,13.66,0,0,1-2.22.18,3.71,3.71,0,0,1-3.4-2.06l.24-.3A5.31,5.31,0,0,0,186.92,68a10.38,10.38,0,0,0,2.24-.28c-.06-1.12-.14-2.38-.2-3s-.16-.58-.46-.68a7.13,7.13,0,0,0-1.34-.28Z"/><path class="cls-1" d="M205,63.16a3.26,3.26,0,0,1,1.5-.5c.9,0,2.21.46,2.21,1s-.33.82-.34,1.34a9.4,9.4,0,0,0,0,1c3.42-.36,4.42-.56,4.82-.56.8,0,1.92.42,1.92,1.16,0,.44-.24.58-.68.58a24.83,24.83,0,0,0-6.09-.16c0,1,0,2.06,0,3.06a3.92,3.92,0,0,1,.84,2.72c0,3.8-2.94,6-6.94,6.88l-.24-.46c2.44-.9,4.44-2.28,5.2-4.22-2,.82-3.56-.78-3.56-2.8a2.75,2.75,0,0,1,2.7-2.9,3.41,3.41,0,0,1,.82.1c0-.58,0-1.4-.1-2.26a37.65,37.65,0,0,0-5.12,1c-.92.24-1.3.58-1.88.58a2.71,2.71,0,0,1-1.92-1.56,3.77,3.77,0,0,1-.18-1.26l.36-.14c.52.7.88,1.26,1.56,1.26s4.8-.54,7.14-.82c0-.72-.1-1.38-.14-1.86s-.14-.5-.46-.6a6,6,0,0,0-1.34-.2Zm2.54,9c0-1.22-.56-1.92-1.42-1.92a1.72,1.72,0,0,0-1.62,1.88,1.67,1.67,0,0,0,1.6,1.84C207,73.94,207.5,73.44,207.5,72.14Z"/><path class="cls-1" d="M222.3,63.5c.28.6.62,1.2,1.14,1.2a23.28,23.28,0,0,0,4.12-.9c.54-.16.58-.4.9-.4.7,0,1.94,1,1.94,1.6,0,.42-.54.48-1.22,1.06a62.21,62.21,0,0,0-4.58,4.22c-.16.16-.06.32.12.24a9.91,9.91,0,0,1,3.42-.68c2.62,0,4.84,1.7,4.8,4.54,0,2.54-2.32,4.64-6.2,4.64-2.26,0-3.86-.94-3.86-2.46a2.15,2.15,0,0,1,2.38-2,3.33,3.33,0,0,1,3.32,2.84,3.66,3.66,0,0,0,2.84-3.48c.06-1.76-1.24-3.38-3.66-3.38-2.84,0-4.82,1.84-6.5,4-.36.44-.54.58-.88.56s-.66-.38-.62-.94.24-.74.76-1.26c2.8-2.88,6.58-6.48,7.48-7.84.22-.32.08-.44-.18-.38a19.07,19.07,0,0,0-3.08,1.14c-.38.18-.68.48-1,.48a2.17,2.17,0,0,1-1.78-1.62,3,3,0,0,1,0-1.18Zm4.9,14.18a2.43,2.43,0,0,0-2.3-2.3c-.74,0-1.26.4-1.26,1s.88,1.3,2.7,1.3C226.64,77.72,226.92,77.7,227.2,77.68Z"/><path class="cls-1" d="M243.32,73.22c4.56,1.08,3.4,4.1,1.92,3.1a6.25,6.25,0,0,0-2-2.84v6c0,.16-.68.5-1.24.5h-.3V74.66A14.69,14.69,0,0,1,238,78.42l-.24-.28a15.57,15.57,0,0,0,3.48-5.76h-3.08L238,71.8h3.78V69.54l2.18.24c0,.24-.2.44-.64.5V71.8h1.64l.92-1.18s1,.82,1.64,1.44c-.06.22-.26.32-.54.32h-3.66v.88Zm-5.4-3.94-.16-.58h5.34a27,27,0,0,0,1-3.84l2.18.64a.65.65,0,0,1-.72.38,21.59,21.59,0,0,1-2,2.82h1.6l.92-1.24s1.1.88,1.76,1.5c-.06.22-.26.32-.54.32Zm.2-5.08h3.64V61.56l2.26.2c0,.28-.2.46-.68.54v1.9h1.32l.92-1.18s1.06.84,1.7,1.46c-.06.22-.26.32-.54.32h-8.48Zm1.62.7c3.38,2,1.84,4.52.64,3.32A8.2,8.2,0,0,0,239.5,65Zm14.89,2.26s1.18.94,1.9,1.62c-.06.22-.26.32-.54.32h-2V79.48c0,.12-.51.5-1.33.5h-.26V69.1h-2.65v.64c0,3.6-.46,7.6-4.7,10.22l-.24-.26c2.92-2.72,3.36-6.22,3.36-10V63.14l1.78.58a21.86,21.86,0,0,0,4.25-2.18L256,63c-.18.18-.52.2-1,0a32.5,32.5,0,0,1-5.24,1.18v4.26h3.86Z"/><path class="cls-1" d="M276.46,64a1.31,1.31,0,0,1-.82.42v14.7a2.27,2.27,0,0,1-1.44.56h-.26V78H265v1.2c0,.2-.6.62-1.34.62h-.3V62.76l1.8.8h8.58l.88-1ZM265,64.14v6.22h8.94V64.14Zm8.94,13.28V70.94H265v6.48Z"/><path class="cls-1" d="M293,66.86a18.13,18.13,0,0,0,8.27,7.84l-.06.22a1.92,1.92,0,0,0-1.54,1.4,18.27,18.27,0,0,1-7.09-9.44v8.28h1.46l1-1.42s1.16,1,1.84,1.66c-.06.22-.22.32-.5.32H292.6v3.7c0,.2-.66.56-1.32.56H291V75.72h-4.08l-.14-.56H291V68.58a20,20,0,0,1-8.26,7.92l-.2-.28a21.71,21.71,0,0,0,7.28-9.36h-6.9l-.18-.58H291V61.52l2.42.28c-.06.3-.22.5-.78.6v3.88h5.19l1.12-1.48s1.3,1,2.06,1.74c-.06.22-.26.32-.55.32Z"/><path class="cls-1" d="M311.58,69.52c-.12.18-.32.24-.72.3A16.62,16.62,0,0,1,309,76c1.9,1.64,4.56,2,8.5,2,1.4,0,4.49,0,6,0v.26a1.38,1.38,0,0,0-1.06,1.36H317.4c-4.22,0-7-.52-8.88-2.72a10.48,10.48,0,0,1-3.46,3.1l-.18-.28a10.16,10.16,0,0,0,2.94-3.78,15,15,0,0,1-1.68-4.24l.28-.12a11.14,11.14,0,0,0,1.74,3.56,20.21,20.21,0,0,0,1.12-5.48h-1.94l-.48,1a2.16,2.16,0,0,1-1.46-.14c1-2.12,2.18-4.84,2.9-6.7h-3.06l-.18-.56h3.26l.8-.88,1.66,1.44a1.63,1.63,0,0,1-.94.32c-.48,1.2-1.38,3.18-2.22,4.94h1.52l.84-.9Zm10.67-4.44s1,.88,1.52,1.5c0,.22-.24.32-.52.32h-2.14v2.84a2.11,2.11,0,0,1-1.31.46h-.22v-.66h-2.64V71.6h2.56l.95-1.2s1.08.86,1.72,1.46c-.06.22-.24.32-.54.32h-4.69V74.3h3.19l1-1.3s1.18.9,1.9,1.56c0,.22-.24.32-.54.32h-5.59V77c0,.18-.66.48-1.26.48h-.3V74.88H310.7l-.16-.58h4.84V72.18h-3.8l-.16-.58h4V69.54h-3.52l-.18-.56h3.7V66.9h-5l-.16-.58h5.16v-2h-3.46l-.18-.6h3.64V61.54l2.26.24c0,.28-.2.48-.7.56v1.34h2.44l.81-.84,1.74,1.3a1.65,1.65,0,0,1-.82.4v1.78h.3Zm-5.31,1.24h2.64v-2h-2.64Zm2.64.58h-2.64V69h2.64Z"/><path class="cls-1" d="M334.18,64.18s1,.82,1.66,1.42c0,.22-.22.32-.5.32H327.5l-.16-.58h5.92ZM332.3,67.9l.84-1.08s1,.76,1.58,1.34c-.06.22-.26.32-.54.32H328.4l-.16-.58ZM328.4,71l-.16-.58h4l.88-1.1s1,.78,1.58,1.36c0,.22-.22.32-.5.32Zm5.9,7.58a2,2,0,0,1-1.26.48h-.24V78h-3V79.3c0,.14-.62.48-1.26.48h-.22V72.34l1.56.68h2.74l.8-.86,1.7,1.3a1.42,1.42,0,0,1-.8.38Zm-5.8-15.18-.16-.58h3.9l.92-1.16s1,.82,1.66,1.44c0,.22-.24.3-.5.3Zm4.3,13.94v-3.8h-3v3.8Zm11.91-6.3c-.17.18-.37.24-.84.26a14,14,0,0,1-3,4.72,15.09,15.09,0,0,0,5.31,2.32l0,.22a1.84,1.84,0,0,0-1.5,1.38,12.4,12.4,0,0,1-4.81-3,15.93,15.93,0,0,1-6.12,3l-.14-.3a15.23,15.23,0,0,0,5.5-3.56,12.81,12.81,0,0,1-2.3-5h-1.48l-.18-.58H342l1-1Zm-9.91-1.36a6.82,6.82,0,0,0,2-5.42V61.92l1.78.72h2.3l.78-.86,1.57,1.34a1.08,1.08,0,0,1-.67.28v3.84c0,.2.06.26.38.26h.75a6.38,6.38,0,0,0,.71,0,.3.3,0,0,0,.29-.2,21.33,21.33,0,0,0,.58-2.34h.24l.05,2.42c.41.16.46.34.46.62,0,.6-.58.92-2.44.92h-1.1c-1.22,0-1.42-.34-1.42-1.34V63.22h-2.76V64.3A5.83,5.83,0,0,1,335,70Zm2.4,1.38a9.85,9.85,0,0,0,2.68,4.12,12.8,12.8,0,0,0,2.2-4.12Z"/><path class="cls-1" d="M358,78.08c4.94-1,7.19-3.54,7.19-7.14a5.64,5.64,0,0,0-5.87-5.88c-.24,0-.48,0-.74,0a3.76,3.76,0,0,1,1,2.24,10.11,10.11,0,0,1-.64,3.32c-.84,2.44-3.14,6.26-5.3,6.26-1.42,0-2.84-2.22-2.84-4.74a7.77,7.77,0,0,1,2.76-5.7,8.72,8.72,0,0,1,5.9-2.14c4.26,0,7.47,2.84,7.47,7,0,3.44-2.26,6.8-8.85,7.18Zm-.2-12.84a7.51,7.51,0,0,0-3.7,2,6.39,6.39,0,0,0-2,4.52c0,1.82.82,3.28,1.64,3.28,1.26,0,3.08-3,3.86-4.78a9.4,9.4,0,0,0,.76-3.24A3.27,3.27,0,0,0,357.84,65.24Z"/><path class="cls-1" d="M378.52,62.28a.72.72,0,0,1-.78.4,29,29,0,0,1-2.4,4.94l1.22.46a.73.73,0,0,1-.6.38v11a1.85,1.85,0,0,1-1.32.52h-.3V69.12a19.18,19.18,0,0,1-2.5,2.82l-.28-.18a32.16,32.16,0,0,0,4.56-10.24Zm9.94,14.82s1.29,1,2.05,1.68c-.06.22-.26.32-.56.32H376.86l-.16-.58h5.66V72.4H377.9l-.16-.58h4.62v-5.1h-5l-.16-.58H387l1.07-1.34s1.22.92,1.94,1.6c-.06.22-.24.32-.52.32h-5.43v5.1h2.69l1-1.28s1.15.88,1.85,1.54c0,.22-.24.32-.53.32h-5v6.12h3.31Zm-7.72-15.38c5.43,1.1,4.54,4.62,2.8,3.66a9.9,9.9,0,0,0-3-3.5Z"/><path class="cls-1" d="M403.44,70.1a16.79,16.79,0,0,0,2.64-.58,12.08,12.08,0,0,1,1.27-.46c.54,0,1.14.22,1.14.7s-.26.6-.66.74a22.47,22.47,0,0,1-4.35.88c0,1.22.16,2.24.24,3.16a10.79,10.79,0,0,1,4.67,2,1.73,1.73,0,0,1,.8,1.28.63.63,0,0,1-.64.7c-.4,0-.62-.2-1-.56a10.44,10.44,0,0,0-3.69-2.18c0,.28,0,.54,0,.8,0,1.68-1.41,2.68-3.67,2.68-2.06,0-3.54-.92-3.54-2.44s2.06-2.54,4.6-2.54a11.37,11.37,0,0,1,1.18.06c0-.8-.08-1.78-.12-2.86-.8.06-1.6.1-2.38.1-2.78,0-4.2-1.42-2-3.46l.4.22c-1.18,1.56-.4,2,1.5,2,.8,0,1.62,0,2.42-.12v-.84c0-.58,0-1.2,0-1.82a27,27,0,0,1-2.84.16,4.13,4.13,0,0,1-4.12-2.24l.32-.26a4.72,4.72,0,0,0,3.52,1.26,24.27,24.27,0,0,0,3.16-.24c0-.92,0-1.66,0-1.86,0-.4-.1-.52-.44-.64a7.13,7.13,0,0,0-1.46-.3l0-.38a3.31,3.31,0,0,1,1.5-.4c1,0,2.28.58,2.28,1.16,0,.42-.28.62-.39,1.12-.07.3-.12.66-.19,1.1a28,28,0,0,0,2.79-.64,6.74,6.74,0,0,1,1.2-.44c.5,0,1.22.22,1.22.72s-.3.6-.74.76a28.41,28.41,0,0,1-4.59,1c-.06.72-.08,1.56-.08,2.5Zm-1,5.34a10.86,10.86,0,0,0-1.84-.16c-1.88,0-3.12.7-3.12,1.48s.74,1.24,2,1.24C401.8,78,402.44,77.3,402.46,75.44Z"/><path class="cls-1" d="M417.2,67.58c0-1.1-.24-1.68-1.56-2.66l.16-.28a5.58,5.58,0,0,1,1.44.3c.8.36,1.9,1.32,1.9,2.18s-.8,2.14-.8,4.32,1.08,3.54,1.88,3.94a.51.51,0,0,0,.72-.16,30.13,30.13,0,0,0,1.94-3.62l.5.22a33.56,33.56,0,0,0-1.14,3.7c-.14,1,.18,1,.18,1.54s-.66,1-1.6.62c-1.58-.68-3.58-2.44-3.7-6.1C417.06,70.1,417.2,68.62,417.2,67.58Zm9.34-.6.14-.44a6.41,6.41,0,0,1,4,2A6.75,6.75,0,0,1,432.41,73c0,.92-.33,1.36-1,1.36a.78.78,0,0,1-.76-.72,13.06,13.06,0,0,0-1-3.9A5.81,5.81,0,0,0,426.54,67Z"/><line class="cls-2" y1="50.09" x2="960" y2="50.09"/></g></g></svg>