<svg xmlns="http://www.w3.org/2000/svg" viewBox="0 0 960 79.19"><defs><style>.cls-1{fill:#231815;}.cls-2{fill:none;stroke:#231815;stroke-miterlimit:10;}</style></defs><g id="レイヤー_2" data-name="レイヤー 2"><g id="Wire_frame" data-name="Wire frame"><path class="cls-1" d="M5,65.59c1.26,0,7.26-.64,8.24-.84.6-.14.7-.44,1.1-.44.68,0,2.34,1.34,2.34,2s-.62.7-.92,1.36A19.38,19.38,0,0,1,3.86,78.55l-.28-.44C9.24,75.23,13,70.77,14.16,66.17c.08-.26,0-.3-.22-.3A73.25,73.25,0,0,0,6.48,67c-.54.12-1,.48-1.4.48-.68,0-1.66-1-1.86-1.62A5.47,5.47,0,0,1,3,64.63l.36-.14A2.07,2.07,0,0,0,5,65.59Zm10.68-2.48a2.15,2.15,0,1,1,2.15,2.14A2.14,2.14,0,0,1,15.64,63.11Zm.7,0a1.44,1.44,0,1,0,1.45-1.42A1.44,1.44,0,0,0,16.34,63.11Z"/><path class="cls-1" d="M23.9,67.17l.34-.18c.48.62.82,1.06,1.46,1.06,1.18,0,6.8-.72,8.22-.94.62-.1.82-.44,1.21-.44.65,0,2,1.12,2,1.7s-.81.68-1.12,1.26a17.85,17.85,0,0,1-10.42,9l-.28-.46a19,19,0,0,0,9.2-9.66c.08-.26,0-.36-.24-.34-1.46.14-5.74.82-7.08,1.14-.6.14-.92.5-1.36.5s-1.5-.94-1.7-1.46A3.63,3.63,0,0,1,23.9,67.17Zm10.18-3.08a33.35,33.35,0,0,1-5.9.8c-1.08,0-1.68-.6-2.36-1.78l.28-.24a3.36,3.36,0,0,0,2,.74,12.9,12.9,0,0,0,3.32-.5c1.14-.26,1.4-.56,1.8-.56,1,0,1.74.3,1.74.88C35,63.75,34.72,64,34.08,64.09Z"/><path class="cls-1" d="M44.36,64.09c.36.5.78,1.18,1.46,1.18a45.58,45.58,0,0,0,6.06-1c.45-.12.71-.56,1-.56.67,0,2.13,1.18,2.13,1.7s-.7.64-1,1a34.81,34.81,0,0,1-3.25,4.44c3.27,1.32,6.43,3.44,6.43,5.28a.82.82,0,0,1-.82.88c-.62,0-1-.62-1.92-1.78a16,16,0,0,0-4.17-3.88,23.48,23.48,0,0,1-8.88,6l-.28-.46c4.7-2.44,9.48-7.26,11.28-11.3.11-.28,0-.34-.23-.3-1.25.18-4,.86-5,1.16-.64.18-.76.58-1.28.58s-1.5-1-1.74-1.52a4.07,4.07,0,0,1-.24-1.3Z"/><path class="cls-1" d="M63,63.61c.44.6.7,1,1.3,1,1.44,0,8.86-.82,10.08-1,.52-.08.74-.38,1.12-.38.6,0,2.19,1.38,2.19,2s-.89.62-1.35.94A45.22,45.22,0,0,1,72,69a.85.85,0,0,1-.06.36,15.43,15.43,0,0,1-8.16,9.18l-.32-.4c3.94-2.48,6.46-7.34,6.46-8.68,0-.62-.74-.94-1.6-1.26l.1-.38a5.62,5.62,0,0,1,1.3,0,4.44,4.44,0,0,1,1.76.56,17.77,17.77,0,0,0,3.44-3.18c.24-.38.14-.46-.26-.46-.94,0-6.42.84-8.6,1.28-.78.18-.86.6-1.38.6A2.92,2.92,0,0,1,62.86,65a3.45,3.45,0,0,1-.24-1.32Z"/><path class="cls-1" d="M83.64,66.65v-.4a4,4,0,0,1,1.28-.2c.76,0,2.28.88,2.28,1.54,0,.44-.38.64-.48,1.14a13.22,13.22,0,0,1-6.42,8.68L80,77c3.14-2.56,5.14-6.76,5.14-9.32C85.12,67.09,84.18,66.81,83.64,66.65Zm4-2.58a3.38,3.38,0,0,1,1.38-.3c.9,0,2.28.8,2.28,1.34s-.42.5-.5,1.14c-.1,1-.26,6.08-.26,7.58,0,.26.14.34.36.24a24.25,24.25,0,0,0,7.45-5.24l.4.32a24,24,0,0,1-7.27,6.54c-.46.28-.76.88-1.2.88S88.88,75.45,88.88,75s.24-.54.3-1.34c.08-1.1.2-6.4.08-8.32,0-.52-.56-.74-1.56-.88Z"/><path class="cls-1" d="M105.28,65.11c1.26,0,7.26-.64,8.24-.86.6-.12.86-.48,1.26-.48.7,0,2.27,1.24,2.27,1.86s-.71.86-1,1.5a19.38,19.38,0,0,1-11.86,10.92l-.28-.44c5.66-2.88,9.42-7.36,10.58-12,.08-.26,0-.32-.22-.32a68.06,68.06,0,0,0-7.46,1.12c-.52.12-1,.54-1.4.54-.68,0-1.66-1.06-1.86-1.64a5.46,5.46,0,0,1-.18-1.2l.36-.14C104.1,64.51,104.56,65.11,105.28,65.11Z"/><path class="cls-1" d="M122.08,67.31c.38.5.58.76,1,.76,1.22,0,6.54-.6,7.52-.74.48-.06.66-.32,1-.32.5,0,1.86,1.2,1.86,1.76s-.75.52-1.12.74c-.64.4-1.9,1.18-3.2,1.86a.48.48,0,0,1,0,.32,12.09,12.09,0,0,1-6.48,7.1l-.22-.3c2.94-1.94,4.9-5.7,4.9-6.7,0-.48-.54-.74-1.18-1l.06-.28a4.48,4.48,0,0,1,1,0,3.55,3.55,0,0,1,1.46.4,9.51,9.51,0,0,0,2.4-2.3c.18-.3.1-.38-.2-.38a62.31,62.31,0,0,0-6.3,1.1c-.58.14-.7.42-1.14.42a2.25,2.25,0,0,1-1.5-1.26,2.52,2.52,0,0,1-.16-1.06Z"/><path class="cls-1" d="M145.18,77.33c4.95-1,7.19-3.54,7.19-7.14a5.64,5.64,0,0,0-5.87-5.88c-.24,0-.48,0-.74,0a3.76,3.76,0,0,1,1,2.24,10.08,10.08,0,0,1-.63,3.32c-.85,2.44-3.15,6.26-5.31,6.26-1.42,0-2.84-2.22-2.84-4.74a7.77,7.77,0,0,1,2.76-5.7,8.72,8.72,0,0,1,5.9-2.14c4.27,0,7.47,2.84,7.47,7,0,3.44-2.26,6.8-8.85,7.18ZM145,64.49a7.51,7.51,0,0,0-3.7,2,6.39,6.39,0,0,0-2,4.52c0,1.82.82,3.28,1.64,3.28,1.26,0,3.08-3,3.86-4.78a9.4,9.4,0,0,0,.76-3.24A3.27,3.27,0,0,0,145,64.49Z"/><path class="cls-1" d="M161.76,67.27c1,3.54,0,5.84-.94,6.84-.62.66-1.52.86-1.9.38a1.1,1.1,0,0,1,.32-1.42c1.16-.88,2.24-3.18,2.2-5.8Zm4.8-1.7c0,.26-.22.46-.68.54V76.35c0,.46.18.64,1.18.64h2.49c1.12,0,1.94,0,2.29-.06a.6.6,0,0,0,.57-.34,21,21,0,0,0,.8-3.38h.26l.06,3.52c.56.2.72.4.72.72,0,.82-.84,1.1-4.79,1.1h-2.64c-2,0-2.54-.34-2.54-1.78V65.31Zm2.84,0a11.22,11.22,0,0,0-4.88-4l.1-.28C172.49,62.39,171.25,66.55,169.4,65.53Zm6.33,8.34A9.6,9.6,0,0,0,173,67.25l.16-.2C179.63,70.37,177.33,75.87,175.73,73.87Z"/><path class="cls-1" d="M185.28,73.67c.92-.36,1.9-.78,2.88-1.2l.1.22c-1.32,1-3.24,2.36-5.8,3.94a.86.86,0,0,1-.42.58l-.88-2c.56-.18,1.48-.5,2.58-.94V67.47h-2.22l-.16-.58h2.38V61.21l2.26.24c0,.28-.2.48-.72.56v4.88h.52l.88-1.32s1,1,1.6,1.58c0,.22-.24.32-.52.32h-2.48Zm13.93,3.08c.58.2.76.4.76.72,0,.82-.92,1.06-5.29,1.06h-3c-2.14,0-2.84-.36-2.84-1.94V68.73l-2.32.86-.38-.48,2.7-1V62.39l2.26.26c0,.24-.22.46-.72.54v4.34l2.42-.9v-5.8l2.25.24c0,.28-.21.48-.73.56v4.44l2.43-.9.16-.06.82-.88,1.68,1.36a1.24,1.24,0,0,1-.78.32c-.06,5.26-.28,7.06-1,7.78a2.49,2.49,0,0,1-1.79.64,1.51,1.51,0,0,0-.24-1.08,1.73,1.73,0,0,0-1-.48v-.3c.43,0,1.06.08,1.36.08s.43,0,.54-.18c.36-.4.51-2.22.59-6.7l-2.79,1V75c0,.2-.66.54-1.22.54h-.3v-8.3l-2.42.9v8.08c0,.6.26.82,1.44.82h2.9a26.89,26.89,0,0,0,2.69-.08.79.79,0,0,0,.6-.3,17.28,17.28,0,0,0,.86-2.94h.24Z"/><path class="cls-1" d="M211.64,73.39a12.29,12.29,0,0,1,2.91.92c1.32.62,3,1.68,3,2.78a.62.62,0,0,1-.68.7c-.72,0-1.38-1.22-3.31-2.3a8.77,8.77,0,0,0-1.7-.76c0,.26,0,.52,0,.82,0,1.66-1.14,2.88-3.8,2.88-2.12,0-3.64-.9-3.64-2.44,0-1.94,2.36-2.82,4.9-2.82.38,0,.76,0,1.12,0-.08-1.54-.22-3.92-.24-5.22s-.06-3.7-.1-4.12a.72.72,0,0,0-.54-.74,6.83,6.83,0,0,0-1.42-.26l0-.38a4.71,4.71,0,0,1,1.62-.4c1.12,0,2.45.76,2.45,1.32s-.29.62-.45,1.2a13,13,0,0,0-.26,2.22,3.55,3.55,0,0,0,.44,0,9.62,9.62,0,0,0,2.56-.44,9.81,9.81,0,0,1,1.27-.46c.76,0,1.34.26,1.34.82,0,.28-.22.54-.74.74a13.23,13.23,0,0,1-3.45.54,3.66,3.66,0,0,1-1.46-.46c0,.22,0,.44,0,.64,0,.94.06,3.32.22,4.86Zm-1.18,1a10.2,10.2,0,0,0-2-.18c-1.9,0-3.22.74-3.22,1.64,0,.72.76,1.24,2.16,1.24C209.8,77.09,210.44,76.25,210.46,74.39Z"/><path class="cls-1" d="M227.28,62.75a4.12,4.12,0,0,1,1.84-.6c.86,0,1.68.28,1.78.68a17.7,17.7,0,0,0,1,2.8,15.54,15.54,0,0,0,3.31-1.82,1.38,1.38,0,0,1,1.26.2.7.7,0,0,1-.2.94,14.19,14.19,0,0,1-3.7,1.92,21.24,21.24,0,0,0,3.48,4.18c.48.46.64.68.66,1.06,0,.6-.3,1.46-.82,1.46s-.8-.32-1.38-.68a9.5,9.5,0,0,0-4.89-1.38c-2.2,0-3.84,1.2-3.84,2.8s1.66,2.48,4.7,2.48c1.48,0,2.21-.22,2.92-.22s1.22.26,1.22.8-1,1-3.6,1c-3.48,0-6.42-1.18-6.42-3.84,0-2.18,2.34-3.84,5.44-3.84a14.87,14.87,0,0,1,4.24.64c.23,0,.27,0,.11-.16a34.91,34.91,0,0,1-3-4,18.16,18.16,0,0,1-4.24.76c-2.08,0-2.8-.74-3.84-2.42l.34-.3a4.47,4.47,0,0,0,3.4,1.38,15.09,15.09,0,0,0,3.64-.62,27,27,0,0,0-1.32-2.38c-.34-.52-.92-.52-2.06-.54Z"/><path class="cls-1" d="M255.59,66.49a3.61,3.61,0,0,1,1.64.5,2.56,2.56,0,0,1,1.2,1.72c0,.44-.3.48-1.14.72a39.52,39.52,0,0,0-5.53,2.12c.08,1.14.11,2.48.11,3.16s-.27.9-.74.9a.78.78,0,0,1-.83-.86c0-.5.08-1.48.1-2.5-1.84,1.08-3.24,2.3-3.24,3.44s1.14,1.54,3.06,1.54c3,0,4.13-.64,5-.64s1.3.24,1.3.76-.14.64-.82.84a19.78,19.78,0,0,1-4.48.54c-3.77,0-5-1.22-5-2.84s1.92-3.28,4.16-4.7c-.06-1.66-.38-2.28-1.4-2.28s-2.4,1.2-3.2,2.1-1.28,1.82-1.84,1.84-.76-.38-.76-1,.7-1.06,1.58-2a18.09,18.09,0,0,0,2.74-3.64,12.54,12.54,0,0,1-1.48.1c-1.62,0-2-.6-2.7-2.18l.38-.22a3,3,0,0,0,2.66,1.2,10.33,10.33,0,0,0,1.84-.2,8.57,8.57,0,0,0,.6-1.66c.1-.34.06-.52-.32-.7a4.7,4.7,0,0,0-1.16-.36l0-.34a3.62,3.62,0,0,1,1.22-.26c.68,0,2.09.32,2.09.86,0,.28-.17.44-.37.86s-.4.8-.64,1.26a20.76,20.76,0,0,0,2.37-.8c.8-.34.93-.54,1.24-.54.52,0,1,.16,1,.64,0,.28-.18.48-.6.7a22.12,22.12,0,0,1-4.79,1.44,21.54,21.54,0,0,1-1.8,2.7c-.08.12,0,.22.12.14a4.7,4.7,0,0,1,2.2-.72c1.24,0,2,.84,2.24,2.26,1.57-.84,3.49-1.64,4.61-2.24.34-.2.38-.4.1-.7a2.87,2.87,0,0,0-1-.7Z"/><path class="cls-1" d="M279.37,63.27a1.31,1.31,0,0,1-.82.42v14.7a2.27,2.27,0,0,1-1.44.56h-.26v-1.7h-9v1.2c0,.2-.6.62-1.34.62h-.3V62l1.8.8h8.59l.88-1Zm-11.47.12v6.22h9V63.39Zm9,13.28V70.19h-9v6.48Z"/><path class="cls-1" d="M304,65.21a1.13,1.13,0,0,1-.74.2,14,14,0,0,1-2.4,1.88l-.24-.16a16.64,16.64,0,0,0,.74-2H288.46a3.09,3.09,0,0,1-1.12,2.72c-.56.38-1.32.36-1.54-.2a1,1,0,0,1,.58-1.22,3.47,3.47,0,0,0,1.48-2.9l.32,0a7.68,7.68,0,0,1,.24,1h5.46V60.81l2.31.22c0,.28-.2.46-.69.54v3H297A27.23,27.23,0,0,0,298.73,61l2.34.88c-.1.22-.38.36-.8.3a23,23,0,0,1-2.66,2.34h3.66l1-1Zm-3.64,6.5,1.86,1.36a1.49,1.49,0,0,1-.82.4v2.88c0,1.12-.26,1.82-2.3,2a1.83,1.83,0,0,0-.4-1.12,3.15,3.15,0,0,0-1.6-.54v-.28s1.82.1,2.28.1.42-.1.42-.36v-3h-4.31v5.44a1.49,1.49,0,0,1-1.32.58h-.26v-6h-4.16v4.72c0,.16-.7.5-1.36.5h-.22V71.87l1.7.72h4v-2h-2.62v.5c0,.14-.7.5-1.34.5h-.22V66.17l1.68.7H298l.8-.84,1.72,1.28a1.49,1.49,0,0,1-.76.38v3.16a2.3,2.3,0,0,1-1.32.44h-.26v-.74h-2.75v2h4.13ZM289.1,61.05c4.34,1,2.94,4.22,1.44,3.08a5.18,5.18,0,0,0-1.64-2.92ZM291.26,70h6.95V67.45h-6.95Z"/><path class="cls-1" d="M314.1,70.29c-.4,1.08-1.26,3.18-1.46,3.94a5.71,5.71,0,0,0-.32,1.46c0,.62.4,1.28.4,1.78s-.24.76-.7.76a1.41,1.41,0,0,1-1.06-.78,8.7,8.7,0,0,1-1.18-4.58,18.67,18.67,0,0,1,.94-5.22,12.11,12.11,0,0,0,.48-2.44,3.24,3.24,0,0,0-1.1-2.16l.3-.26a4,4,0,0,1,1.16.62A3.52,3.52,0,0,1,313,65.65c0,.48-.28.86-.78,2a11.94,11.94,0,0,0-1.32,4.9,3.24,3.24,0,0,0,.26,1.58c.14.26.28.3.46,0,.46-.7,1.56-3,2-4Zm2,1.68a6.92,6.92,0,0,0,.56,1.66c.7,1.24,1.72,1.9,4.2,1.9a18.68,18.68,0,0,0,3.36-.36c.62,0,1.26.24,1.26.76,0,.94-1.9,1.18-4.14,1.18-3.32,0-5-1.2-5.49-3.32a6.89,6.89,0,0,1-.2-1.76Zm.2-6.1a9.35,9.35,0,0,1,4.88-1.42,6.45,6.45,0,0,1,2.8.46,1,1,0,0,1,.66.82c0,.32-.18.52-.62.58a7.94,7.94,0,0,0-1.78.38A31.75,31.75,0,0,0,319,68.45l-.32-.36c.88-.66,2.2-1.64,2.58-2s.26-.38-1.1-.38a12.35,12.35,0,0,0-3.66.62Z"/><line class="cls-2" y1="49.34" x2="960" y2="49.34"/><path class="cls-1" d="M37.89,35.5v1.75H21.74V35.5L26.59,35l-3.15-9.7h-12l-3,9.65,4.9.6v1.75H1.74V35.5L6,34.9,17.44,0h4.35l12,35.05Zm-15-12.1L17.34,6.25,12,23.4Z"/><path class="cls-1" d="M81.49,2.4c0,5.05,0,10.1,0,15.1V20c0,5.05,0,10.1,0,15.1l4.8.45v1.75H69.79V35.5l4.6-.45c.15-4.95,0-9.95.15-14.3L74.64,5,62.44,37.25H60L47.44,5.2c.15,5,.25,11.65.25,13.75v16l5.25.6v1.75h-13V35.5l5.3-.6.2-32.3L40.19,2V.15h12.2l11.1,28.2L74.29.15h12V2Z"/><path class="cls-1" d="M119.89,27.2l-.15,10.05H90.79V35.5l4.75-.45c.1-4.95.1-10,.1-15.1V17.5c0-5,0-10-.1-15.1L90.79,2V.15h27.95l.05,9.8h-2.7l-1.9-7.7H102.74c-.15,4.9-.15,9.9-.15,15.15h7.5l.75-5.45h2.35v12.6h-2.35l-.7-5.25h-7.55c0,5.65,0,10.8.15,15.9h12.45l2-8Z"/><path class="cls-1" d="M160.89,2l-4.6.65L156,37.45h-3.45l-22.1-31.1.15,28.5,6.4.65v1.75h-13.5V35.5l4.65-.6.25-31.45-.8-1.05L123.84,2V.15h10.55L154,27.35l-.15-24.7L147.39,2V.15h13.5Z"/><path class="cls-1" d="M176.89,2.4c-.15,5-.15,10-.15,15.1V20c0,5,0,10.1.15,15.1l4.75.45v1.75h-16.7V35.5l4.75-.45c.1-4.95.1-10,.1-15.1V17.5c0-5,0-10-.1-15.1L164.94,2V.15h16.7V2Z"/><path class="cls-1" d="M204.74,2.25c-.1,5-.1,10.1-.1,15.25V20c0,5,0,10.05.1,15.1l5.35.45v1.75H192.24V35.5l5.35-.45c0-4.95,0-10,0-15.1V17.5c0-5.05,0-10.2,0-15.25h-7.75l-2.1,8.25h-2.8L185.29.15H217l.3,10.35h-2.8l-2-8.25Z"/><path class="cls-1" d="M239.59,21.75c0,6.15,0,9.5.1,13.3l5.4.45v1.75h-17.9V35.5l5.35-.45c.1-3.6.1-6.75.1-12.35l-10-20.4L219.29,2V.15h16.4V2l-5.1.55,7.9,17.15,7.85-17-5-.65V.15h12V2L249,2.6Z"/></g></g></svg>