<svg xmlns="http://www.w3.org/2000/svg" viewBox="0 0 375 90.47"><defs><style>.cls-1{fill:#231815;}.cls-2{fill:none;stroke:#231815;stroke-miterlimit:10;stroke-width:0.63px;}</style></defs><g id="レイヤー_2" data-name="レイヤー 2"><g id="Wire_frame" data-name="Wire frame"><path class="cls-1" d="M34,62.77c.38.15.48.29.48.55,0,.56-.53.78-3.12.78H29.64c-1.36,0-1.65-.25-1.65-1.18V59H26.34c-.44,3.23-2.27,4.74-6.45,5.44l-.06-.24c3.44-1,4.77-2.46,5.09-5.2H23.78v.53c0,.14-.51.45-1.05.45h-.21V50.05l1.37.61h6.55l.67-.76L32.57,51a1.27,1.27,0,0,1-.69.3v8a1.68,1.68,0,0,1-1.07.42H30.6V59H29.26v3.67c0,.24.06.28.62.28h3c.21,0,.28-.07.34-.23a13.87,13.87,0,0,0,.58-2.16H34ZM23.78,51.14v2.08H30.6V51.14ZM30.6,53.7H23.78v2.16H30.6Zm-6.82,4.8H30.6V56.31H23.78Z"/><path class="cls-1" d="M40.05,54.47c.26.51.58.86.93.86a31.06,31.06,0,0,0,4.29-.91c.4-.11.53-.35.79-.35.49,0,1.58.64,1.58,1.16,0,.32-.56.48-1.12.88a39.74,39.74,0,0,0-3.17,2.77,4.41,4.41,0,0,1,1-.11,1.33,1.33,0,0,1,1.32.93c.16.53.33,1.2.46,1.7.21.75.46,1,1.15,1a14,14,0,0,0,2.63-.34c.67,0,1.1.28,1.1.71,0,.7-2,.86-3.33.86-1.76,0-2.29-.43-2.53-1.71-.11-.54-.22-1.22-.33-1.79s-.35-.77-.85-.77A2.12,2.12,0,0,0,42.5,60,22,22,0,0,0,40,63a1,1,0,0,1-.78.49.57.57,0,0,1-.59-.59c0-.61.33-.91.8-1.36.65-.63,2-1.83,2.78-2.61,1.22-1.15,2.72-2.66,3.38-3.41.26-.29.11-.46-.26-.37a19.9,19.9,0,0,0-2.94,1c-.46.24-.66.51-1,.51a1.83,1.83,0,0,1-1.56-1.16,2.16,2.16,0,0,1,0-1Zm1.57-4.13.23-.23a5.47,5.47,0,0,0,3,1.11,9,9,0,0,0,1-.12c.56,0,1.22.42,1.22,1,0,.24-.18.47-.61.47s-.69,0-1.1,0a17.72,17.72,0,0,0-2.76.7l-.12-.33c.64-.27,1.4-.61,1.88-.84A4.61,4.61,0,0,1,41.62,50.34Z"/><path class="cls-1" d="M57.8,50.67a3.12,3.12,0,0,1,1.06-.22,2.42,2.42,0,0,1,1.24.3c.29.19.2.55-.36,2.4,1.44-.46,1.77-.81,2-.81a.6.6,0,0,1,.66.56c0,.3-.32.51-.53.64a10.32,10.32,0,0,1-2.54.85,30.27,30.27,0,0,1-2.93,6.48c-.29.41-.51.72-.85.72S55,61.2,55,60.84a1.26,1.26,0,0,1,.31-.85,17.87,17.87,0,0,0,3-5.43,10.4,10.4,0,0,1-1.22.08c-1.24,0-1.8-.43-2.3-1.74l.27-.19a2.88,2.88,0,0,0,2.16.91,8,8,0,0,0,1.41-.16,9.54,9.54,0,0,0,.26-1.64.56.56,0,0,0-.35-.62,3.36,3.36,0,0,0-.74-.27Zm5.78,2.77a4.48,4.48,0,0,1,2.3.11c1,.36,1.55,1,1.55,1.73,0,.4-.16.67-.52.67s-.77-.33-1.51-.3a2.31,2.31,0,0,0-1.41.61,2,2,0,0,0-.32,1.47c0,.47.21,1.41.32,2.35a7.4,7.4,0,0,1,2.37,1c.83.51,1.28,1,1.28,1.52s-.22.63-.51.63-.56-.34-1-.71a6.19,6.19,0,0,0-2-1.34c0,.22,0,.43,0,.62,0,1.35-1,2.12-2.7,2.12s-2.63-.84-2.63-1.85c0-1.23,1.28-2.2,3.46-2.2.22,0,.45,0,.66,0,0-.66-.1-1.31-.1-1.89a2.71,2.71,0,0,1,.74-2.08,5.48,5.48,0,0,1,1.82-1.11c.26-.16.19-.35-.05-.52a3.07,3.07,0,0,0-1.77-.52ZM63,60.84a7.63,7.63,0,0,0-1.39-.13c-1.43,0-2.13.61-2.13,1.15s.5,1,1.65,1c1.44,0,1.87-.69,1.87-1.64Z"/><path class="cls-1" d="M73.64,54.53c0-.88-.19-1.34-1.25-2.13l.13-.22a3.92,3.92,0,0,1,1.15.24c.64.29,1.52,1,1.52,1.74s-.64,1.71-.64,3.46a3.39,3.39,0,0,0,1.5,3.15.41.41,0,0,0,.58-.13,24,24,0,0,0,1.55-2.89l.4.17a30.9,30.9,0,0,0-.91,3c-.11.79.15.84.15,1.24s-.53.8-1.28.49a5.13,5.13,0,0,1-3-4.88C73.53,56.55,73.64,55.36,73.64,54.53Zm7.47-.48.11-.35a5.07,5.07,0,0,1,3.19,1.57,5.36,5.36,0,0,1,1.39,3.57c0,.73-.25,1.08-.77,1.08a.63.63,0,0,1-.6-.57,10.22,10.22,0,0,0-.82-3.12A4.61,4.61,0,0,0,81.11,54.05Z"/><path class="cls-1" d="M97.45,53.07a4.12,4.12,0,0,1,1.23.29,2,2,0,0,1,1.07,1.38c0,.32-.37.48-1,.7a26.42,26.42,0,0,0-4,1.86c-1.33.77-2.93,2.05-2.93,3.46,0,.94.9,1.61,3.23,1.61a21.32,21.32,0,0,0,3.91-.46c.67,0,1.26.17,1.26.74,0,.25-.27.49-.62.6a16.22,16.22,0,0,1-4.08.4c-2.8,0-4.58-.91-4.58-2.65s1.81-3.38,2.91-4.18a2.72,2.72,0,0,1-.94-1.3,17.06,17.06,0,0,1-.71-3.31.68.68,0,0,0-.46-.61c-.26-.1-.64-.19-.9-.26V51a3.6,3.6,0,0,1,1.1-.21c.83,0,1.71.58,1.73,1s-.11.52-.11.92a9.6,9.6,0,0,0,.33,2.3,2.35,2.35,0,0,0,.85,1.2c1.17-.7,2.71-1.49,3.24-1.79.24-.13.28-.26.19-.46a1.84,1.84,0,0,0-.77-.68Z"/><path class="cls-1" d="M106.63,58.36c0,2.11.51,3.61,4.07,3.61a16,16,0,0,0,4.27-.64c.46,0,1.07.26,1.07.69s-.16.53-.7.72a15,15,0,0,1-4.37.51c-4.26,0-5.39-2-4.74-4.88Zm2-3c.75-.49,1.69-1.15,2.26-1.53.16-.13.14-.18-.08-.18-1.81,0-3-.14-4-1.55l.21-.26a4.88,4.88,0,0,0,3.1.85,18.14,18.14,0,0,0,3-.35c.65,0,1.6.35,1.6.8s-.19.48-.64.56a10.71,10.71,0,0,0-1.71.41,34.61,34.61,0,0,0-3.51,1.56Z"/><path class="cls-1" d="M122.79,51.12c.21.48.48,1,.9,1a25.63,25.63,0,0,0,3.58-.77c.35-.11.45-.34.66-.34.61,0,1.61.9,1.61,1.38s-.55.48-.89.75c-.82.64-3.46,3.19-4.08,3.86-.13.13-.08.17.08.09a7.82,7.82,0,0,1,3.28-.81c2.35,0,4.13,1.28,4.13,3.49s-2.15,4.29-8.09,4l0-.37c4.25-.36,6.78-1.81,6.78-4.22,0-1.46-1.23-2.39-2.94-2.39-2.16,0-4.27,1.65-5.84,3.48-.24.3-.4.51-.71.51s-.62-.39-.62-.88.69-1,1.58-1.78a65.84,65.84,0,0,0,5.4-5.67c.22-.32.22-.48-.18-.38a18.76,18.76,0,0,0-2.77,1c-.29.14-.51.37-.82.37a1.79,1.79,0,0,1-1.36-1.29,2.68,2.68,0,0,1,.08-1Z"/><path class="cls-1" d="M143.16,56.05c2.53,1.17,3.59,2.69,3.59,4.5,0,1.58-1.32,3.46-4.23,3.46a3.09,3.09,0,0,1-3.42-3.32,12.18,12.18,0,0,1,.09-1.37c-1.49-.34-2.35-1.14-2.35-2.07s.91-1.81,2.1-2.42a4.09,4.09,0,0,1-1.14-.51,2.47,2.47,0,0,1-1.06-1.71l.26-.15a3.38,3.38,0,0,0,1.47,1.3,6.35,6.35,0,0,0,1.78.39,20.66,20.66,0,0,0,.57-2.29.58.58,0,0,0-.4-.66,5.34,5.34,0,0,0-.8-.26l0-.32a4.53,4.53,0,0,1,1-.11c.82,0,1.82.85,1.82,1.31s-.24.47-.43.84a13.46,13.46,0,0,0-.62,1.53l.4,0c.61.06.83.38.83.7s-.24.45-.65.48a8.36,8.36,0,0,1-1,0c-.25.79-.56,1.84-.8,2.87.77,0,1.4,0,1.75,0s.72.22.72.6-.24.55-.86.63a9.36,9.36,0,0,1-1.83-.07,9.87,9.87,0,0,0-.11,1.2c0,1.57,1,2.29,2.49,2.29a2.81,2.81,0,0,0,3.11-2.73c0-1.76-1-2.8-2.5-3.89Zm-3.79,2.11c.16-1,.38-2,.57-2.81-1.07.06-2.44.94-2.44,1.68C137.5,57.52,138,58,139.37,58.16Z"/><path class="cls-1" d="M163.67,56.55s1,.73,1.56,1.24a.39.39,0,0,1-.42.26h-3.1a9.35,9.35,0,0,1-2,3.28c5.88,1.57,4.39,3.78,3,2.9a17.23,17.23,0,0,0-4-2.1c-1.76,1.27-4.29,2-8.1,2.34l-.06-.27c3.09-.55,5.34-1.3,7-2.52-.88-.3-1.86-.59-2.93-.88-.22.34-.43.64-.61.9a1.79,1.79,0,0,1-1.33-.24,31.45,31.45,0,0,0,2.26-3.41h-4.35l-.13-.46h4.75a23.25,23.25,0,0,0,1.09-2.1l1.78.4c-.05.19-.24.35-.68.32-.17.35-.44.83-.76,1.38h6.22Zm.08-5.49c-.16.14-.46.14-.92-.05a88.34,88.34,0,0,1-11.78,1.18l-.05-.3a69.78,69.78,0,0,0,11.36-2.21ZM152.28,52.8c3.62,1.39,2.42,4,1.2,3a6.61,6.61,0,0,0-1.36-2.85Zm4.06,5.25c-.48.79-1,1.65-1.52,2.4,1.35.16,2.5.35,3.49.56a7.63,7.63,0,0,0,1.84-3Zm0-5.84c3.33,1.5,1.87,4.11.7,3a5,5,0,0,0-.88-2.88Zm3,4.53a23.6,23.6,0,0,0,2.88-4.84l1.76.89a.58.58,0,0,1-.64.22,17.87,17.87,0,0,1-3.81,3.89Z"/><path class="cls-1" d="M171.33,54.71V64c0,.17-.54.49-1,.49h-.22V54.71h-1.68l-.13-.45h1.81V49.68l1.82.21c0,.22-.16.38-.58.45v3.92h.47l.7-1s.8.72,1.27,1.2c0,.18-.19.26-.4.26Zm12,3.65a1.09,1.09,0,0,1-.61.24c-.1,3.29-.39,4.75-1,5.28a2.14,2.14,0,0,1-1.44.48,1.1,1.1,0,0,0-.22-.79,2.42,2.42,0,0,0-1-.36v-.28c.45,0,1.15.1,1.44.1a.63.63,0,0,0,.48-.14c.32-.31.53-1.67.62-4.44h-1.37a7.84,7.84,0,0,1-3.17,5.92l-.24-.24a8.72,8.72,0,0,0,2.29-5.68h-1.44a1.49,1.49,0,0,1-.53.14c-.1,3.42-.35,4.8-.92,5.31a2,2,0,0,1-1.37.47,1,1,0,0,0-.19-.75,1.72,1.72,0,0,0-.87-.32V63c.39,0,1,.08,1.25.08a.53.53,0,0,0,.45-.15c.32-.3.53-1.6.61-4.48h-1.22a8,8,0,0,1-2.87,5.86l-.23-.24a9.39,9.39,0,0,0,2-5.62H172.5l-.14-.46h1.52c0-.64,0-1.27,0-1.86l1.65.14c0,.21-.16.37-.53.42,0,.4,0,.85-.06,1.3h1l.59-.63,1,.84-.07-.21h1.62c0-.64,0-1.28,0-1.89l1.68.16c0,.19-.16.37-.52.41,0,.42,0,.87-.08,1.32h1.19l.62-.64Zm-10-6.79h3.38A9,9,0,0,0,177,49.7l1.85.25c0,.26-.24.37-.59.4a9.76,9.76,0,0,1-.25,1.22h2.3l.64-.63,1.23,1a1,1,0,0,1-.62.24c-.16,1.75-.51,2.82-1.12,3.22a2.61,2.61,0,0,1-1.51.4,1,1,0,0,0-.25-.8,2.83,2.83,0,0,0-1.17-.38v-.26c.54,0,1.44.1,1.74.1a.73.73,0,0,0,.48-.1,4.23,4.23,0,0,0,.69-2.32h-2.56c-.64,1.76-2,3.31-4.94,4.22l-.13-.2a6.39,6.39,0,0,0,3.82-4h-3.1Z"/><path class="cls-1" d="M190.15,50.67a3.17,3.17,0,0,1,1.06-.22,2.48,2.48,0,0,1,1.25.3c.28.19.19.55-.37,2.4,1.44-.46,1.77-.81,2-.81a.6.6,0,0,1,.65.56c0,.3-.32.51-.53.64a10.17,10.17,0,0,1-2.54.85,30.27,30.27,0,0,1-2.93,6.48c-.29.41-.51.72-.85.72s-.57-.39-.57-.75a1.3,1.3,0,0,1,.3-.85,17.87,17.87,0,0,0,3-5.43,10.24,10.24,0,0,1-1.21.08c-1.25,0-1.81-.43-2.31-1.74l.27-.19a2.89,2.89,0,0,0,2.17.91,8,8,0,0,0,1.4-.16,9.54,9.54,0,0,0,.26-1.64.55.55,0,0,0-.35-.62,3.19,3.19,0,0,0-.74-.27Zm5.78,2.77a4.48,4.48,0,0,1,2.3.11c1,.36,1.56,1,1.56,1.73,0,.4-.16.67-.53.67s-.77-.33-1.51-.3a2.31,2.31,0,0,0-1.4.61,1.92,1.92,0,0,0-.32,1.47c0,.47.2,1.41.32,2.35a7.43,7.43,0,0,1,2.36,1c.84.51,1.29,1,1.29,1.52s-.23.63-.52.63-.56-.34-1-.71a6.35,6.35,0,0,0-2-1.34c0,.22,0,.43,0,.62,0,1.35-1,2.12-2.71,2.12s-2.62-.84-2.62-1.85c0-1.23,1.28-2.2,3.45-2.2q.35,0,.66,0c0-.66-.1-1.31-.1-1.89a2.75,2.75,0,0,1,.74-2.08,5.48,5.48,0,0,1,1.82-1.11c.26-.16.2-.35,0-.52a3.13,3.13,0,0,0-1.78-.52Zm-.58,7.4a7.55,7.55,0,0,0-1.39-.13c-1.42,0-2.13.61-2.13,1.15s.5,1,1.65,1c1.44,0,1.87-.69,1.87-1.64Z"/><path class="cls-1" d="M204.85,51.47v-.32A4.79,4.79,0,0,1,206,51c.85,0,2.06,1,2.06,1.47s-.33.52-.48,1.29a36,36,0,0,0-.59,6.06c0,2,.58,2.72,2.39,2.72a7.72,7.72,0,0,0,6.08-3.36l.33.24a7.19,7.19,0,0,1-6.49,4.42c-2.2,0-3.37-1.07-3.37-3.89,0-2.43.37-6,.37-7,0-.64-.09-.85-.37-1A3,3,0,0,0,204.85,51.47Z"/><path class="cls-1" d="M218.76,62.21A2.25,2.25,0,1,1,221,64.47,2.24,2.24,0,0,1,218.76,62.21Zm.54,0a1.71,1.71,0,1,0,3.41,0,1.71,1.71,0,0,0-3.41,0Z"/><path class="cls-1" d="M25,76.29c-.06.19-.25.33-.61.32a25.06,25.06,0,0,1-1.57,3.44l.71.26a.58.58,0,0,1-.47.28V90a1.53,1.53,0,0,1-1.07.42H21.8V81.76a15.17,15.17,0,0,1-2,2.37L19.62,84a28.81,28.81,0,0,0,3.49-8.29ZM33.21,78s.93.76,1.49,1.27a.39.39,0,0,1-.42.26H24.54L24.41,79h8Zm-1,2.18s.9.71,1.44,1.22c0,.17-.21.25-.43.25H25.58l-.13-.46h6Zm-6.8,3.14h6l.78-1s.9.72,1.44,1.25c0,.16-.21.24-.43.24H25.58Zm7,1.41,1.42,1.09a1.12,1.12,0,0,1-.64.3v3.81a1.71,1.71,0,0,1-1.09.4H32V89.25H26.82V90c0,.12-.54.4-1.07.4h-.19V84.85l1.36.58H31.8Zm-6.64-7.43-.13-.45h5.36l.8-1s.9.73,1.46,1.26c-.05.16-.21.24-.44.24ZM32,88.79v-2.9H26.82v2.9Z"/><path class="cls-1" d="M41.94,84.79c3.78,1.13,2.8,3.47,1.6,2.61a6.73,6.73,0,0,0-1.6-2.29V90c0,.16-.49.45-.93.45h-.22V86a11.72,11.72,0,0,1-3.12,3.36l-.21-.24a13.34,13.34,0,0,0,3.09-5.41H39.46v.55c0,.09-.46.33-.93.33h-.16v-5l1.17.53h1.25V78.61H38l-.12-.48h2.95v-2.4l1.73.19c0,.24-.16.38-.58.45v1.76H43l.81-1s.88.73,1.44,1.26c0,.18-.21.26-.44.26H41.94v1.55h1.19l.59-.62,1.26.94a1,1,0,0,1-.59.29V84c0,.11-.57.35-.94.35h-.18v-.61H41.94Zm-2.48-1.52h1.33V80.61H39.46Zm2.48-2.66v2.66h1.33V80.61Zm1.64,9.64a11.53,11.53,0,0,0,3.45-3l1.54.9c-.08.14-.26.16-.53.09a12.15,12.15,0,0,1-4.32,2.26ZM51,75.81s1,.77,1.52,1.29c0,.16-.19.24-.41.24h-3A12.14,12.14,0,0,1,48,79.12h2.11l.61-.67,1.33,1a1,1,0,0,1-.58.28v7.13a1.64,1.64,0,0,1-1,.39h-.19v-.56H46.71v.35c0,.13-.48.42-1,.42h-.19V78.56l1.26.56h.71c.08-.48.16-1.18.22-1.78h-2.9l-.12-.44h5.5Zm-4.32,3.78v1.85h3.56V79.59Zm0,4.24h3.56V81.91H46.71Zm3.56,2.41V84.29H46.71v1.95ZM49,87.3c4.35.94,3.63,3.75,2.24,3a8.5,8.5,0,0,0-2.4-2.84Z"/><path class="cls-1" d="M55.88,79.07a1.43,1.43,0,0,0,1,.8c.88,0,3.75-.83,6.44-1.45A22.81,22.81,0,0,1,67,77.71a3,3,0,0,1,1.2.21c.37.16.56.37.56.66s-.22.49-.62.49-.83,0-1.39,0a5.09,5.09,0,0,0-2.66.63c-.67.42-2.19,1.86-2.19,4.91a2.89,2.89,0,0,0,1.36,2.84,5.9,5.9,0,0,0,3,.49c.43,0,1,.35,1,.8s-.52.64-1.26.64a6.18,6.18,0,0,1-3.55-.86,3.89,3.89,0,0,1-1.6-3.6,6.72,6.72,0,0,1,2.52-5.46c.12-.08.1-.18-.08-.14a29.44,29.44,0,0,0-5,1.68,2.54,2.54,0,0,1-1,.44A2.09,2.09,0,0,1,55.62,80a3.05,3.05,0,0,1,0-.8Zm9.91,2.07a6.43,6.43,0,0,1,1.92,1.07,1.28,1.28,0,0,1,.51.93.44.44,0,0,1-.45.48c-.24,0-.42-.34-.74-.74a7.54,7.54,0,0,0-1.45-1.47Zm1.4-1.06a5.87,5.87,0,0,1,1.91.9,1.24,1.24,0,0,1,.57,1c0,.29-.14.45-.41.45s-.45-.34-.77-.74A8.18,8.18,0,0,0,67,80.35Z"/><path class="cls-1" d="M75.27,77.92a8.78,8.78,0,0,1-2.58,2.18l-.2-.19a11.26,11.26,0,0,0,2.62-4.25l1.68.72c-.08.18-.29.31-.64.24a8,8,0,0,1-.53.84H78.3l.72-.92s.78.66,1.28,1.12c0,.18-.2.26-.42.26h-3c1.63.93.62,2.32-.22,1.57a3.74,3.74,0,0,0-.52-1.57Zm5.89,8.53a14.59,14.59,0,0,0,6.31,2.34l0,.18a1.43,1.43,0,0,0-1.07,1.15,10.82,10.82,0,0,1-5.75-3.67h0V90.1c0,.13-.54.37-1,.37H79.3V87a14.68,14.68,0,0,1-6.69,3.25L72.49,90a13.75,13.75,0,0,0,5.57-3.54H72.92L72.79,86H79.3V84.47l1.81.17c0,.21-.16.36-.53.42V86h4.33l.78-1a17.24,17.24,0,0,1,1.49,1.17c0,.17-.18.25-.4.25Zm-8.39-2.69c.56-.06,1.51-.2,2.63-.38V80.87H73.32l-.13-.47h3.94l.7-.85s.8.61,1.33,1.06c0,.18-.21.26-.43.26H76.6v2.3c.73-.11,1.52-.26,2.32-.4L79,83c-1.15.45-2.8,1-5.09,1.79a.51.51,0,0,1-.37.36Zm6.34-4.32a10.9,10.9,0,0,0,2.27-3.78l1.67.63c-.06.17-.27.3-.61.27a9.55,9.55,0,0,1-.62.9H85.1l.77-1s.89.69,1.44,1.18a.36.36,0,0,1-.4.26H83.42c.86.46,1,1.07.85,1.46l1.2,1a.9.9,0,0,1-.53.23v2.72c0,.17,0,.19.27.19h1.06a.18.18,0,0,0,.2-.13,10.78,10.78,0,0,0,.42-1.47h.19l0,1.5c.33.13.38.24.38.47,0,.46-.43.72-1.83.72h-.8c-.94,0-1.07-.29-1.07-1V80.48H80.9v1c0,1.3-.4,2.88-3.93,3.75l-.13-.21c2.43-1,2.86-2.23,2.86-3.54V79.46l1.41.57h2.55l.33-.36a.69.69,0,0,1-.78-.12,3.56,3.56,0,0,0-.72-1.63H81.43a8.71,8.71,0,0,1-2.13,1.73Zm2,1.84c3.19.53,2.36,2.68,1.27,2A3.46,3.46,0,0,0,81,81.43Z"/><path class="cls-1" d="M95.63,76.58l.19-.28a3.52,3.52,0,0,1,1.07.32c.67.36,1.31,1.09,1.31,1.54s-.33.51-.93.94c-1.1.85-3.15,2.68-3.82,3.35-.45.46-.56.64-.56.83s.19.42.54.69a23.2,23.2,0,0,1,4.24,3.71,3.07,3.07,0,0,1,.79,1.7.71.71,0,0,1-.75.8.78.78,0,0,1-.68-.43,9.85,9.85,0,0,0-.78-1.39,19.27,19.27,0,0,0-3.81-3.91,1.18,1.18,0,0,1-.18-1.94c.82-1,3.16-3.29,3.86-4.17.27-.32.37-.48.37-.69S96.23,77,95.63,76.58Z"/><path class="cls-1" d="M118.22,77a1.2,1.2,0,0,1-.67.3v3.11a2.14,2.14,0,0,1-1.09.35h-.21v-.85h-9.17v.56c0,3-.19,7.11-3,9.93l-.22-.15c1.78-2.93,2-6.51,2-9.76V76l1.52.6h8.79l.67-.73Zm-2,2.45V77.1h-9.17v2.36Zm.16,6.29,1.76.16c0,.19-.16.33-.5.38v3.62c0,.13-.59.43-1,.43h-.21v-1h-7.68v.83c0,.12-.53.34-1,.34h-.22V85.76l1.68.16c0,.2-.15.34-.48.39v2.53h3.15V84.55h-2.51v.51c0,.11-.53.37-1,.37h-.22V81.09l1.69.18c0,.19-.14.33-.49.38v2.43h2.51V80.47l1.78.17c0,.23-.16.37-.53.42v3h2.61v-3l1.76.17c0,.19-.15.34-.5.39v3.15c0,.13-.56.38-1,.38h-.22v-.65h-2.61v4.29h3.28Z"/><path class="cls-1" d="M127.43,83.71a1,1,0,0,1-.64.25c-.18,3.37-.59,5.31-1.31,5.93a2.6,2.6,0,0,1-1.73.55,1.1,1.1,0,0,0-.26-.85,3.88,3.88,0,0,0-1.37-.45v-.25c.62,0,1.65.14,2,.14a.78.78,0,0,0,.58-.16c.45-.4.77-2.18.93-5.08h-2.2c0,.31-.06.6-.09.85a1.68,1.68,0,0,1-1.22.12c.23-1.65.46-4,.56-5.25L124,80h1.52V77.1h-3.36l-.13-.46h3.33l.64-.7,1.4,1.07a1.27,1.27,0,0,1-.68.3v3.54a1.69,1.69,0,0,1-1,.35h-.2v-.75h-1.77c0,.77-.15,1.89-.26,2.9h2l.68-.71Zm6.29,2.68c4,2,3,4.82,1.71,3.78a5.89,5.89,0,0,0-.57-1.59c-1.67.37-3.88.8-6.84,1.35a.58.58,0,0,1-.41.35l-.74-1.54c.9,0,2.4-.11,4.23-.26v-3.1h-2v.7c0,.12-.49.37-1,.37H128V81.28l1.22.55h1.91V80l1.66.17c0,.21-.14.32-.48.37v1.3h1.95l.6-.66,1.32,1a1.23,1.23,0,0,1-.6.29V85.8a1.6,1.6,0,0,1-1,.36h-.19v-.78h-2.1v3l2.4-.19a14.93,14.93,0,0,0-1.14-1.71Zm-.62-9.14c4.21,1.07,3.39,4,2.06,3.15a4,4,0,0,0-.59-1.3c-1.49.28-3.49.58-6.16,1a.54.54,0,0,1-.44.3l-.57-1.49h2.16a25.78,25.78,0,0,0,.91-3.16l2,.5c-.06.19-.24.33-.59.32a18,18,0,0,1-1.71,2.32c1.21,0,2.67,0,4.17-.1a7.11,7.11,0,0,0-1.37-1.37Zm-2,7.67V82.27h-2v2.65Zm1.18-2.65v2.65h2.1V82.27Z"/><path class="cls-1" d="M143.65,76.67a3.22,3.22,0,0,1,1.06-.22,2.48,2.48,0,0,1,1.25.3c.29.19.19.55-.37,2.4,1.44-.46,1.78-.81,2-.81a.6.6,0,0,1,.66.56c0,.3-.32.51-.53.64a10.27,10.27,0,0,1-2.55.85,30.27,30.27,0,0,1-2.93,6.48c-.28.41-.51.72-.84.72s-.58-.39-.58-.75a1.3,1.3,0,0,1,.3-.85,17.87,17.87,0,0,0,3-5.43,10.54,10.54,0,0,1-1.22.08c-1.25,0-1.81-.43-2.31-1.74l.28-.19a2.88,2.88,0,0,0,2.16.91,8.23,8.23,0,0,0,1.41-.16,9.39,9.39,0,0,0,.25-1.64.55.55,0,0,0-.35-.62,3.19,3.19,0,0,0-.74-.27Zm5.78,2.77a4.53,4.53,0,0,1,2.31.11c1,.36,1.55,1,1.55,1.73,0,.4-.16.67-.53.67s-.77-.33-1.5-.3a2.31,2.31,0,0,0-1.41.61,2,2,0,0,0-.32,1.47c0,.47.21,1.41.32,2.35a7.5,7.5,0,0,1,2.37,1c.83.51,1.28,1,1.28,1.52s-.23.63-.51.63-.56-.34-1-.71a6.41,6.41,0,0,0-2-1.34c0,.22,0,.43,0,.62,0,1.35-1,2.12-2.71,2.12s-2.62-.84-2.62-1.85c0-1.23,1.28-2.2,3.46-2.2.22,0,.44,0,.65,0,0-.66-.09-1.31-.09-1.89a2.74,2.74,0,0,1,.73-2.08,5.42,5.42,0,0,1,1.83-1.11c.25-.16.19-.35,0-.52a3.13,3.13,0,0,0-1.78-.52Zm-.57,7.4a7.74,7.74,0,0,0-1.4-.13c-1.42,0-2.13.61-2.13,1.15s.5,1,1.65,1c1.44,0,1.88-.69,1.88-1.64Z"/><path class="cls-1" d="M160.63,81.33c3.17,1.33,2.16,3.41,1.12,2.56a7.13,7.13,0,0,0-1.12-2.24V90c0,.16-.5.43-1,.43h-.26v-7a12.07,12.07,0,0,1-2.17,3.34l-.23-.2A18.1,18.1,0,0,0,159.17,80H157.3l-.13-.48h2.24V75.71l1.8.19c0,.24-.16.39-.58.45v3.19h.42l.72-1s.81.69,1.31,1.2a.39.39,0,0,1-.42.26h-2ZM171.16,86s.67.66,1.08,1.09c0,.18-.18.26-.41.26h-1.24v1.57c0,.86-.2,1.37-1.68,1.52a1.13,1.13,0,0,0-.31-.8,1.91,1.91,0,0,0-1.15-.4V89s1.33.09,1.63.09.34-.09.34-.32V87.35h-5.24V90c0,.13-.46.4-.94.4h-.19V87.35h-1.31l-.13-.47h1.44V82.11l1.23.56h1.9V81.51h-4l-.13-.47h2.45V79.65H163.1l-.13-.46h1.55v-1.3h-2l-.13-.47h2.13V75.78l1.68.17c0,.21-.19.37-.54.42v1h2V75.78l1.68.17c0,.23-.17.37-.54.43v1h1l.7-.88s.82.64,1.3,1.09c-.05.18-.19.26-.41.26h-2.55v1.3h.75l.64-.84s.76.6,1.22,1c0,.18-.19.26-.4.26h-2.21V81H170l.68-.88s.8.61,1.29,1.09c0,.18-.2.26-.41.26h-4.25v1.16h1.92l.57-.68L171.24,83a1.35,1.35,0,0,1-.65.31v3.49Zm-7-2.86v1.57h2V83.14Zm0,3.74h2V85.16h-2Zm1.48-7.69h2v-1.3h-2Zm0,1.85h2V79.65h-2Zm1.68,2.1v1.57h2.08V83.14Zm2.08,3.74V85.16h-2.08v1.72Z"/><path class="cls-1" d="M178.69,87.43c1.13,1.22,2.29,1.39,5.06,1.39,1.86,0,4.34,0,6.26-.06V89a1.15,1.15,0,0,0-.91,1.07h-5.33c-2.91,0-4.18-.38-5.28-2.33A28.38,28.38,0,0,1,176.13,90a.34.34,0,0,1-.2.4l-.82-1.55c.59-.24,1.5-.68,2.38-1.13V83h-2.24l-.09-.48h2.09l.71-.91,1.54,1.25a1.38,1.38,0,0,1-.81.32ZM176,76.18c4.1,1.13,3,4,1.66,3a6.6,6.6,0,0,0-1.82-2.87Zm8,2.56h-2.29a7.48,7.48,0,0,1-1.63,1.9l-.24-.16a13.45,13.45,0,0,0,1.56-4.54l1.86.56c-.06.19-.26.33-.61.33a9.49,9.49,0,0,1-.67,1.44h2V75.73l1.87.19c0,.22-.18.38-.59.45v1.9h1.81l.83-1s.91.73,1.5,1.26c0,.18-.2.26-.43.26h-3.71v2.33h2.35l.82-1s.94.73,1.52,1.26a.4.4,0,0,1-.42.26H179.46l-.13-.47H184Zm3.15,9.18v-1h-4.91v.74c0,.13-.53.42-1.06.42H181V82.42l1.34.57H187l.66-.7L189,83.36a1.19,1.19,0,0,1-.63.29v3.87c0,.12-.64.4-1,.4Zm0-1.48v-3h-4.91v3Z"/><path class="cls-1" d="M196.81,80.8c-.05.16-.21.26-.48.31V90a1.59,1.59,0,0,1-1.06.4H195V81.75a14.47,14.47,0,0,1-1.95,2.3l-.21-.14a28.83,28.83,0,0,0,3.52-8.23l1.92.62c-.06.2-.26.32-.62.32a25.8,25.8,0,0,1-1.83,3.85Zm6.38-.7a10.79,10.79,0,0,0,5,5.78l0,.19a1.79,1.79,0,0,0-.88,1.29,13.33,13.33,0,0,1-4.41-7.26h-.05v6.59h1l.72-1s.82.71,1.31,1.2c-.05.18-.19.26-.41.26h-2.61V90c0,.16-.56.47-1,.47h-.26v-3.3h-2.56l-.13-.45h2.69V81.94a14.92,14.92,0,0,1-4.83,5.42l-.18-.2a17.51,17.51,0,0,0,4.35-7.06h-3.76l-.13-.48h4.55V75.89l1.86.19c-.05.22-.18.38-.56.45v3.09h2.78l.82-1.06s.93.74,1.47,1.28c0,.18-.21.26-.42.26Z"/><line class="cls-2" y1="34.89" x2="375" y2="34.89"/><path class="cls-1" d="M29.61,9.87c4.44,1.92,6.06,3.72,6.06,7,0,3.93-3.09,6.54-8.28,6.54a13.18,13.18,0,0,1-6.75-1.77l.18-5H22.5l1.26,4.83a7.53,7.53,0,0,0,3.24.6c3.06,0,4.92-1.44,4.92-3.93,0-2.1-1-3.15-3.66-4.26l-1.38-.6c-3.78-1.65-5.94-3.6-5.94-7,0-4,3.24-6.21,7.77-6.21a10.42,10.42,0,0,1,5.82,1.68l-.21,4.71H32.64L31.38,1.77a5,5,0,0,0-2.25-.45c-2.64,0-4.47,1.32-4.47,3.69,0,2.1,1.23,3.27,3.45,4.23Z"/><path class="cls-1" d="M49.44,1.8c-.06,3-.06,6.06-.06,9.15v1.47c0,3,0,6,.06,9.06l3.21.27V22.8H41.94V21.75l3.21-.27c0-3,0-6,0-9.06V11c0-3,0-6.12,0-9.15H40.5l-1.26,5H37.56L37.77.54h19L57,6.75H55.32L54.09,1.8Z"/><path class="cls-1" d="M79.8,21.75V22.8a10.54,10.54,0,0,1-3.12.39c-2.43,0-3.72-.69-4.05-2.73l-1.08-4.62c-.51-2.49-1.35-3.51-3.84-3.51H66.06c0,3.15,0,6.18.09,9.15l2.91.27V22.8H59V21.75l2.85-.27c.06-3,.06-6,.06-9.06V11c0-3,0-6-.06-9.06L59,1.62V.54H69.18c5.13,0,8,2.13,8,5.7,0,2.55-1.77,4.86-6.15,5.55,3.24.45,4.29,1.92,4.89,4.71l1.23,5ZM68.25,11.22c3.42,0,4.92-2.16,4.92-5s-1.62-4.56-4.83-4.56H66.15c-.09,3-.09,6.06-.09,9.51Z"/><path class="cls-1" d="M103.65,1.62l-3,.42-.12,11.58c0,6.78-3,9.75-8,9.75S84,20.85,84,14.13V10.8c0-2.94,0-5.94-.09-8.91L81.3,1.62V.54h10V1.62l-3.06.3c-.09,2.91-.09,5.91-.09,8.88v2.79c0,5.52,2,7.5,5.43,7.5,3.66,0,5.64-2.22,5.61-7.8L99.12,2.07l-3.48-.45V.54h8Z"/><path class="cls-1" d="M124.35,21.66a13.26,13.26,0,0,1-6.69,1.71c-6.66,0-11.61-4.23-11.61-11.7S111.36,0,117.78,0a12.2,12.2,0,0,1,6.33,1.68l-.06,5.19h-1.71L121,1.74a6.86,6.86,0,0,0-2.7-.51c-4.44,0-7.8,3.45-7.8,10.47s3.3,10.44,7.8,10.44a7.77,7.77,0,0,0,2.94-.57l1.32-5.07h1.74Z"/><path class="cls-1" d="M138.18,1.8c-.06,3-.06,6.06-.06,9.15v1.47c0,3,0,6,.06,9.06l3.21.27V22.8H130.68V21.75l3.21-.27c0-3,0-6,0-9.06V11c0-3,0-6.12,0-9.15h-4.65l-1.26,5H126.3l.21-6.21h19l.18,6.21h-1.68L142.83,1.8Z"/><path class="cls-1" d="M170,1.62,167,2l-.12,11.58c0,6.78-3,9.75-8,9.75s-8.43-2.52-8.43-9.24V10.8c0-2.94,0-5.94-.09-8.91l-2.64-.27V.54h10V1.62l-3.06.3c-.09,2.91-.09,5.91-.09,8.88v2.79c0,5.52,2,7.5,5.43,7.5,3.66,0,5.64-2.22,5.61-7.8l-.09-11.22L162,1.62V.54h8Z"/><path class="cls-1" d="M193.05,21.75V22.8a10.54,10.54,0,0,1-3.12.39c-2.43,0-3.72-.69-4.05-2.73l-1.08-4.62c-.51-2.49-1.35-3.51-3.84-3.51h-1.65c0,3.15,0,6.18.09,9.15l2.91.27V22.8h-10V21.75l2.85-.27c.06-3,.06-6,.06-9.06V11c0-3,0-6-.06-9.06l-2.85-.27V.54h10.14c5.13,0,8,2.13,8,5.7,0,2.55-1.77,4.86-6.15,5.55,3.24.45,4.29,1.92,4.89,4.71l1.23,5ZM181.5,11.22c3.42,0,4.92-2.16,4.92-5s-1.62-4.56-4.83-4.56H179.4c-.09,3-.09,6.06-.09,9.51Z"/><path class="cls-1" d="M212.16,16.77l-.09,6H194.7V21.75l2.85-.27c.06-3,.06-6,.06-9.06V11c0-3,0-6-.06-9.06l-2.85-.27V.54h16.77l0,5.88h-1.62L208.74,1.8h-6.87c-.09,2.94-.09,5.94-.09,9.09h4.5l.45-3.27h1.41v7.56h-1.41L206.31,12h-4.53c0,3.39,0,6.48.09,9.54h7.47l1.17-4.8Z"/></g></g></svg>