<svg xmlns="http://www.w3.org/2000/svg" viewBox="0 0 960 80"><defs><style>.cls-1{fill:#231815;}.cls-2{fill:none;stroke:#231815;stroke-miterlimit:10;}</style></defs><g id="レイヤー_2" data-name="レイヤー 2"><g id="Wire_frame" data-name="Wire frame"><path class="cls-1" d="M19.74,77.88c.48.18.6.36.6.68,0,.7-.66,1-3.9,1H14.26c-1.7,0-2.06-.32-2.06-1.48V73.14H10.14c-.56,4-2.84,5.92-8.06,6.8L2,79.64c4.3-1.28,6-3.08,6.36-6.5H6.94v.66c0,.18-.64.56-1.32.56H5.36V62l1.72.76h8.18l.84-.94,1.82,1.42a1.64,1.64,0,0,1-.86.38v10a2.12,2.12,0,0,1-1.34.52h-.26v-1H13.78v4.58c0,.3.08.36.78.36h2c.84,0,1.52,0,1.78,0s.34-.08.42-.28a16.5,16.5,0,0,0,.72-2.7h.27ZM6.94,63.34v2.6h8.52v-2.6Zm8.52,3.2H6.94v2.7h8.52Zm-8.52,6h8.52V69.8H6.94Z"/><path class="cls-1" d="M27.28,67.5c.32.64.72,1.08,1.16,1.08a38.77,38.77,0,0,0,5.36-1.14c.5-.14.66-.44,1-.44.62,0,2,.8,2,1.46,0,.4-.7.6-1.4,1.1a48.19,48.19,0,0,0-4,3.46,5.48,5.48,0,0,1,1.24-.14A1.65,1.65,0,0,1,34.28,74c.2.66.42,1.5.58,2.12.26.94.58,1.28,1.44,1.28A17.58,17.58,0,0,0,39.58,77c.84,0,1.38.34,1.38.88C41,78.78,38.48,79,36.8,79c-2.2,0-2.86-.54-3.16-2.14-.14-.68-.28-1.52-.42-2.24s-.44-1-1.06-1a2.66,2.66,0,0,0-1.82.82,27.52,27.52,0,0,0-3.16,3.66,1.23,1.23,0,0,1-1,.62.71.71,0,0,1-.74-.74c0-.76.42-1.14,1-1.7.82-.78,2.48-2.28,3.48-3.26,1.52-1.44,3.4-3.32,4.22-4.26.32-.36.14-.58-.32-.46a24.27,24.27,0,0,0-3.68,1.3c-.58.3-.82.64-1.24.64A2.28,2.28,0,0,1,27,68.8a2.51,2.51,0,0,1,0-1.22Zm2-5.16.28-.28a6.74,6.74,0,0,0,3.7,1.38,10.22,10.22,0,0,0,1.28-.14c.7,0,1.52.52,1.52,1.2,0,.3-.22.58-.76.58s-.86,0-1.38,0a22.84,22.84,0,0,0-3.44.88l-.16-.42c.8-.34,1.76-.76,2.36-1A5.77,5.77,0,0,1,29.24,62.34Z"/><path class="cls-1" d="M49.46,62.76a3.87,3.87,0,0,1,1.32-.28,3.05,3.05,0,0,1,1.56.38c.36.24.24.68-.46,3,1.8-.58,2.22-1,2.56-1a.75.75,0,0,1,.82.7c0,.38-.4.64-.66.8a12.68,12.68,0,0,1-3.18,1.06,37.82,37.82,0,0,1-3.66,8.1c-.36.52-.64.9-1.06.9s-.72-.48-.72-.94a1.61,1.61,0,0,1,.38-1.06,22.34,22.34,0,0,0,3.74-6.78,13.52,13.52,0,0,1-1.52.1c-1.56,0-2.26-.54-2.88-2.18L46,65.3a3.59,3.59,0,0,0,2.7,1.14,10.09,10.09,0,0,0,1.76-.2,12,12,0,0,0,.32-2,.7.7,0,0,0-.44-.78,4,4,0,0,0-.92-.34Zm7.22,3.46a5.49,5.49,0,0,1,2.88.14c1.24.44,1.94,1.26,1.94,2.16,0,.5-.2.84-.66.84s-1-.42-1.88-.38a2.9,2.9,0,0,0-1.76.76,2.45,2.45,0,0,0-.4,1.84c0,.58.26,1.76.4,2.94a9.08,9.08,0,0,1,3,1.26c1,.64,1.6,1.28,1.6,1.9s-.28.78-.63.78-.71-.42-1.23-.88a8,8,0,0,0-2.54-1.68c0,.28,0,.54,0,.78,0,1.68-1.26,2.64-3.38,2.64s-3.28-1-3.28-2.3c0-1.54,1.6-2.76,4.32-2.76.28,0,.56,0,.82,0,0-.82-.12-1.64-.12-2.36a3.42,3.42,0,0,1,.92-2.6A6.76,6.76,0,0,1,59,68c.32-.2.24-.44-.06-.66a3.85,3.85,0,0,0-2.22-.64ZM56,75.46a9.53,9.53,0,0,0-1.74-.16c-1.78,0-2.66.76-2.66,1.44S52.18,78,53.62,78c1.8,0,2.34-.86,2.34-2Z"/><path class="cls-1" d="M69.26,67.58c0-1.1-.24-1.68-1.56-2.66l.16-.28a5.58,5.58,0,0,1,1.44.3c.8.36,1.9,1.32,1.9,2.18s-.8,2.14-.8,4.32,1.08,3.54,1.88,3.94a.51.51,0,0,0,.72-.16,30.13,30.13,0,0,0,1.94-3.62l.5.22a33.56,33.56,0,0,0-1.14,3.7c-.14,1,.18,1,.18,1.54s-.66,1-1.6.62c-1.58-.68-3.58-2.44-3.7-6.1C69.12,70.1,69.26,68.62,69.26,67.58ZM78.6,67l.14-.44a6.38,6.38,0,0,1,4,2A6.75,6.75,0,0,1,84.46,73c0,.92-.32,1.36-1,1.36a.77.77,0,0,1-.75-.72,13.13,13.13,0,0,0-1-3.9A5.75,5.75,0,0,0,78.6,67Z"/><path class="cls-1" d="M99,65.76a4.92,4.92,0,0,1,1.54.36,2.47,2.47,0,0,1,1.35,1.72c0,.4-.46.6-1.31.88a32.78,32.78,0,0,0-5,2.32c-1.66,1-3.66,2.56-3.66,4.32,0,1.18,1.12,2,4,2a26.58,26.58,0,0,0,4.89-.58c.84,0,1.58.22,1.58.92,0,.32-.34.62-.78.76a20.55,20.55,0,0,1-5.11.5c-3.5,0-5.72-1.14-5.72-3.32s2.26-4.22,3.64-5.22a3.42,3.42,0,0,1-1.18-1.62,21.39,21.39,0,0,1-.88-4.14.87.87,0,0,0-.58-.76c-.32-.12-.8-.24-1.12-.32l0-.38A4.63,4.63,0,0,1,92,63c1,0,2.14.72,2.16,1.24,0,.36-.14.64-.14,1.14a11.93,11.93,0,0,0,.42,2.88,2.84,2.84,0,0,0,1.06,1.5c1.46-.88,3.38-1.86,4-2.24.3-.16.36-.32.24-.58a2.16,2.16,0,0,0-1-.84Z"/><path class="cls-1" d="M110.5,72.36c0,2.64.64,4.52,5.08,4.52a20.07,20.07,0,0,0,5.34-.8c.58,0,1.34.32,1.34.86s-.2.66-.88.9a18.86,18.86,0,0,1-5.46.64c-5.32,0-6.74-2.5-5.92-6.1ZM113,68.62c.94-.62,2.12-1.44,2.82-1.92.2-.16.18-.22-.1-.22-2.26,0-3.78-.18-5-1.94l.26-.32a6.08,6.08,0,0,0,3.88,1.06,22.45,22.45,0,0,0,3.74-.44c.82,0,2,.44,2,1,0,.4-.24.6-.8.7a14,14,0,0,0-2.14.52A44.88,44.88,0,0,0,113.26,69Z"/><path class="cls-1" d="M130.7,63.32c.26.6.6,1.22,1.12,1.22a30.77,30.77,0,0,0,4.48-1c.44-.14.56-.42.82-.42.76,0,2,1.12,2,1.72s-.7.6-1.12.94c-1,.8-4.32,4-5.1,4.82-.16.16-.1.22.1.12a9.7,9.7,0,0,1,4.1-1c2.94,0,5.17,1.6,5.17,4.36s-2.69,5.36-10.11,5l-.06-.46c5.32-.46,8.48-2.26,8.48-5.28,0-1.82-1.54-3-3.68-3-2.7,0-5.34,2.06-7.3,4.34-.3.38-.5.64-.88.64s-.78-.48-.78-1.1.86-1.24,2-2.22A84,84,0,0,0,136.68,65c.28-.4.28-.6-.22-.48A24.68,24.68,0,0,0,133,65.74c-.36.18-.64.46-1,.46a2.24,2.24,0,0,1-1.7-1.6,3.16,3.16,0,0,1,.1-1.22Z"/><path class="cls-1" d="M156.16,69.48c3.16,1.46,4.48,3.36,4.48,5.62,0,2-1.64,4.32-5.28,4.32-2.84,0-4.28-1.68-4.28-4.14a14.37,14.37,0,0,1,.12-1.72c-1.86-.42-2.94-1.42-2.94-2.58s1.14-2.26,2.62-3a5.57,5.57,0,0,1-1.42-.64,3.1,3.1,0,0,1-1.32-2.14l.32-.18a4.26,4.26,0,0,0,1.84,1.62,7.78,7.78,0,0,0,2.22.48,28.93,28.93,0,0,0,.72-2.86.73.73,0,0,0-.5-.82,5.82,5.82,0,0,0-1-.32l0-.4a5.34,5.34,0,0,1,1.2-.14c1,0,2.28,1.06,2.28,1.64,0,.4-.3.58-.54,1a16.09,16.09,0,0,0-.78,1.92l.5,0c.76.08,1,.48,1,.88s-.3.56-.82.6c-.28,0-.74,0-1.2,0-.32,1-.7,2.3-1,3.58,1,0,1.74,0,2.18,0s.9.28.9.76-.3.68-1.08.78a11.71,11.71,0,0,1-2.28-.08,11.3,11.3,0,0,0-.14,1.5c0,2,1.26,2.86,3.12,2.86,2.54,0,3.88-1.66,3.88-3.42,0-2.2-1.3-3.5-3.12-4.86Zm-4.74,2.64c.2-1.26.48-2.54.72-3.52-1.34.08-3.06,1.18-3.06,2.1C149.08,71.32,149.68,71.86,151.42,72.12Z"/><path class="cls-1" d="M181.8,70.1s1.21.92,1.95,1.56a.48.48,0,0,1-.52.32h-3.89a11.81,11.81,0,0,1-2.54,4.1c7.35,2,5.49,4.72,3.76,3.62a20.9,20.9,0,0,0-4.94-2.62c-2.2,1.58-5.36,2.46-10.12,2.92l-.08-.34c3.86-.68,6.68-1.62,8.7-3.14-1.1-.38-2.32-.74-3.66-1.1l-.76,1.12a2.21,2.21,0,0,1-1.66-.3A41.37,41.37,0,0,0,170.86,72h-5.44l-.16-.58h5.94c.58-1,1.08-2,1.36-2.62l2.22.5c-.06.24-.3.44-.84.4-.22.44-.56,1-1,1.72h7.78Zm.11-6.86c-.2.18-.58.18-1.16-.06A110,110,0,0,1,166,64.66l-.06-.38a88.48,88.48,0,0,0,14.21-2.76Zm-14.35,2.18c4.52,1.74,3,5,1.5,3.7a8.18,8.18,0,0,0-1.7-3.56ZM172.64,72c-.6,1-1.26,2.06-1.9,3,1.68.2,3.12.44,4.36.7a9.69,9.69,0,0,0,2.3-3.7Zm0-7.3c4.16,1.88,2.34,5.14.88,3.7a6.32,6.32,0,0,0-1.1-3.6Zm3.72,5.66a29.36,29.36,0,0,0,3.6-6l2.21,1.1a.73.73,0,0,1-.81.28,22.48,22.48,0,0,1-4.76,4.86Z"/><path class="cls-1" d="M191.38,67.8V79.36c0,.22-.68.62-1.28.62h-.28V67.8h-2.1l-.16-.56h2.26V61.52l2.28.26c-.06.28-.2.48-.72.56v4.9H192l.88-1.26s1,.9,1.58,1.5c0,.22-.24.32-.5.32Zm15,4.56a1.23,1.23,0,0,1-.76.3c-.12,4.12-.48,5.94-1.24,6.6a2.72,2.72,0,0,1-1.8.6,1.42,1.42,0,0,0-.28-1,3.09,3.09,0,0,0-1.25-.46v-.34c.56.06,1.45.12,1.8.12a.79.79,0,0,0,.61-.18c.4-.38.66-2.08.78-5.54h-1.73a9.75,9.75,0,0,1-4,7.4l-.3-.3a10.87,10.87,0,0,0,2.86-7.1h-1.8v0a1.64,1.64,0,0,1-.66.18c-.12,4.28-.44,6-1.14,6.64a2.56,2.56,0,0,1-1.72.58,1.18,1.18,0,0,0-.24-.94,2.18,2.18,0,0,0-1.08-.4v-.36c.48,0,1.24.1,1.56.1a.68.68,0,0,0,.56-.18c.4-.38.66-2,.76-5.6h-1.52a10,10,0,0,1-3.58,7.32l-.3-.3a11.64,11.64,0,0,0,2.54-7h-1.68l-.18-.58h1.9c0-.8,0-1.58,0-2.32l2.06.18c0,.26-.2.46-.66.52,0,.5,0,1.06-.08,1.62h1.28l.74-.78,1.3,1-.08-.26h2c0-.8.07-1.6.07-2.36l2.1.2c0,.24-.2.46-.64.52,0,.52-.06,1.08-.1,1.64h1.48l.78-.8Zm-12.47-8.48h4.22a11.37,11.37,0,0,0,.32-2.34l2.32.32c-.05.32-.3.46-.74.5a12.81,12.81,0,0,1-.32,1.52h2.89l.8-.78L205,64.36a1.24,1.24,0,0,1-.78.3c-.2,2.18-.65,3.52-1.4,4a3.23,3.23,0,0,1-1.88.5,1.27,1.27,0,0,0-.33-1,3.52,3.52,0,0,0-1.46-.48v-.32c.68,0,1.8.12,2.18.12a.94.94,0,0,0,.61-.12c.34-.26.66-1.28.86-2.9h-3.21c-.8,2.2-2.52,4.14-6.18,5.28l-.16-.26a8,8,0,0,0,4.78-5h-3.88Z"/><path class="cls-1" d="M214.9,62.76a3.87,3.87,0,0,1,1.32-.28,3.05,3.05,0,0,1,1.56.38c.36.24.24.68-.46,3,1.8-.58,2.22-1,2.56-1a.75.75,0,0,1,.82.7c0,.38-.4.64-.66.8a12.68,12.68,0,0,1-3.18,1.06,37.82,37.82,0,0,1-3.66,8.1c-.36.52-.64.9-1.06.9s-.72-.48-.72-.94a1.61,1.61,0,0,1,.38-1.06,22.34,22.34,0,0,0,3.74-6.78,13.52,13.52,0,0,1-1.52.1c-1.56,0-2.26-.54-2.88-2.18l.34-.24a3.59,3.59,0,0,0,2.7,1.14,10.09,10.09,0,0,0,1.76-.2,12,12,0,0,0,.32-2,.7.7,0,0,0-.44-.78,4,4,0,0,0-.92-.34Zm7.22,3.46a5.49,5.49,0,0,1,2.88.14c1.25.44,1.95,1.26,1.95,2.16,0,.5-.2.84-.66.84s-1-.42-1.89-.38a2.9,2.9,0,0,0-1.76.76,2.45,2.45,0,0,0-.4,1.84c0,.58.26,1.76.4,2.94a9.08,9.08,0,0,1,3,1.26c1,.64,1.61,1.28,1.61,1.9s-.29.78-.65.78-.69-.42-1.22-.88a8,8,0,0,0-2.54-1.68c0,.28,0,.54,0,.78,0,1.68-1.26,2.64-3.38,2.64s-3.28-1-3.28-2.3c0-1.54,1.6-2.76,4.32-2.76.28,0,.56,0,.82,0,0-.82-.12-1.64-.12-2.36a3.42,3.42,0,0,1,.92-2.6A6.76,6.76,0,0,1,224.4,68c.32-.2.24-.44-.06-.66a3.85,3.85,0,0,0-2.22-.64Zm-.72,9.24a9.53,9.53,0,0,0-1.74-.16c-1.78,0-2.66.76-2.66,1.44s.62,1.22,2.06,1.22c1.8,0,2.34-.86,2.34-2Z"/><path class="cls-1" d="M233.28,63.76v-.4a5.22,5.22,0,0,1,1.38-.2c1.06,0,2.58,1.2,2.58,1.84,0,.46-.42.64-.6,1.6a45.24,45.24,0,0,0-.74,7.58c0,2.46.72,3.4,3,3.4a9.64,9.64,0,0,0,7.61-4.2l.42.3a9,9,0,0,1-8.13,5.52c-2.74,0-4.2-1.34-4.2-4.86,0-3,.46-7.54.46-8.8,0-.8-.12-1.06-.46-1.28A3.6,3.6,0,0,0,233.28,63.76Z"/><path class="cls-1" d="M250.66,77.18A2.81,2.81,0,1,1,253.48,80,2.8,2.8,0,0,1,250.66,77.18Zm.68,0a2.13,2.13,0,1,0,2.14-2.12A2.16,2.16,0,0,0,251.34,77.18Z"/><path class="cls-1" d="M269.58,62.28c-.08.24-.32.42-.76.4a32.38,32.38,0,0,1-2,4.3l.88.32a.72.72,0,0,1-.58.36V79.44a1.92,1.92,0,0,1-1.34.52h-.28V69.12a19.25,19.25,0,0,1-2.44,3l-.28-.2a36.3,36.3,0,0,0,4.36-10.36Zm10.23,2.12s1.16.94,1.86,1.58a.48.48,0,0,1-.52.32H269l-.16-.58h10Zm-1.2,2.72s1.12.88,1.8,1.52c0,.22-.26.32-.54.32h-9.61l-.16-.58h7.53ZM270.1,71h7.53l1-1.28s1.12.9,1.8,1.56c0,.2-.26.3-.54.3h-9.61Zm8.77,1.76,1.78,1.36a1.42,1.42,0,0,1-.8.38V79.3a2.17,2.17,0,0,1-1.36.5h-.24V78.48h-6.43v.9c0,.14-.68.5-1.34.5h-.24V73l1.7.72H278Zm-8.31-9.28L270.4,63h6.7l1-1.32s1.12.92,1.82,1.58c-.06.2-.26.3-.54.3Zm7.69,14.38V74.28h-6.43V77.9Z"/><path class="cls-1" d="M290.72,72.9c4.72,1.42,3.5,4.34,2,3.26a8.47,8.47,0,0,0-2-2.86v6.1c0,.2-.62.56-1.16.56h-.28V74.44a14.69,14.69,0,0,1-3.9,4.2l-.26-.3A16.65,16.65,0,0,0,289,71.58h-1.36v.68c0,.12-.58.42-1.16.42h-.2V66.46l1.46.66h1.56V65.18h-3.54l-.14-.6h3.68v-3l2.16.24c0,.3-.2.48-.72.56v2.2h1.34l1-1.3s1.1.92,1.8,1.58c-.06.22-.26.32-.54.32h-3.6v1.94h1.48l.74-.78,1.58,1.18a1.28,1.28,0,0,1-.74.36v4c0,.14-.72.44-1.18.44h-.22v-.76h-1.66Zm-3.1-1.9h1.66V67.68h-1.66Zm3.1-3.32V71h1.66V67.68Zm2,12a14.33,14.33,0,0,0,4.32-3.78L299,77.06c-.09.18-.31.2-.66.12a15.2,15.2,0,0,1-5.4,2.82Zm9.33-18s1.2,1,1.9,1.62c0,.2-.24.3-.52.3h-3.72a14.94,14.94,0,0,1-1.45,2.22H301l.76-.84,1.66,1.28a1.21,1.21,0,0,1-.72.34v8.92a2.11,2.11,0,0,1-1.28.48h-.24v-.7h-4.45v.44c0,.16-.6.52-1.24.52h-.24V65.12l1.59.7h.88c.09-.6.2-1.48.28-2.22h-3.63l-.16-.56h6.89Zm-5.41,4.72v2.32h4.45V66.4Zm0,5.3h4.45V69.3h-4.45Zm4.45,3V72.28h-4.45v2.44ZM299.53,76c5.44,1.18,4.54,4.68,2.8,3.72a10.48,10.48,0,0,0-3-3.54Z"/><path class="cls-1" d="M308.14,65.76a1.81,1.81,0,0,0,1.28,1c1.1,0,4.68-1,8.05-1.82a29.27,29.27,0,0,1,4.62-.88,3.73,3.73,0,0,1,1.5.26c.46.2.7.46.7.82s-.28.62-.78.62-1-.06-1.74-.06a6.36,6.36,0,0,0-3.32.78c-.84.52-2.74,2.32-2.74,6.14,0,2.22.92,3.08,1.7,3.54a7.36,7.36,0,0,0,3.72.62c.54,0,1.26.44,1.26,1s-.66.8-1.58.8a7.77,7.77,0,0,1-4.44-1.08c-1.29-.9-2-2.16-2-4.5a8.33,8.33,0,0,1,3.16-6.82c.14-.1.12-.22-.1-.18a37,37,0,0,0-6.29,2.1,3.18,3.18,0,0,1-1.28.56,2.61,2.61,0,0,1-2-1.78,4.17,4.17,0,0,1,0-1Zm12.39,2.58a7.82,7.82,0,0,1,2.4,1.34,1.57,1.57,0,0,1,.64,1.16.55.55,0,0,1-.56.6c-.3,0-.52-.42-.92-.92a9.09,9.09,0,0,0-1.82-1.84ZM322.29,67a7.56,7.56,0,0,1,2.38,1.12,1.56,1.56,0,0,1,.72,1.24c0,.36-.18.56-.52.56s-.56-.42-1-.92a10,10,0,0,0-1.84-1.66Z"/><path class="cls-1" d="M332.38,64.32A11.07,11.07,0,0,1,329.16,67l-.26-.24a14,14,0,0,0,3.28-5.3l2.1.9c-.1.22-.36.38-.8.3a9.17,9.17,0,0,1-.66,1h3.34l.9-1.14s1,.82,1.6,1.4c-.06.22-.24.32-.52.32h-3.8c2,1.16.78,2.9-.28,2a4.63,4.63,0,0,0-.64-2ZM339.75,75a18.23,18.23,0,0,0,7.88,2.92l0,.22a1.81,1.81,0,0,0-1.34,1.44A13.58,13.58,0,0,1,339.08,75H339v4.56c0,.16-.68.46-1.32.46h-.28V75.66a18.31,18.31,0,0,1-8.36,4.06l-.16-.32a17.18,17.18,0,0,0,7-4.42h-6.42l-.16-.58h8.14V72.5l2.26.22c0,.26-.2.44-.66.52V74.4h5.41l1-1.2s1.16.82,1.86,1.46c0,.22-.22.32-.5.32Zm-10.49-3.36c.7-.08,1.88-.26,3.28-.48V68h-2.6l-.16-.58h4.92l.88-1.06s1,.76,1.66,1.32c-.06.22-.26.32-.54.32H334v2.88c.92-.14,1.9-.32,2.9-.5l.06.3c-1.44.56-3.5,1.3-6.36,2.24a.6.6,0,0,1-.46.44Zm7.92-5.4A13.63,13.63,0,0,0,340,61.5l2.09.78c-.08.22-.35.38-.77.34a11.16,11.16,0,0,1-.78,1.12h4.11l1-1.22s1.12.86,1.8,1.48a.45.45,0,0,1-.5.32h-4.36c1.08.58,1.28,1.34,1.06,1.82l1.5,1.28a1.07,1.07,0,0,1-.66.28v3.4c0,.22,0,.24.34.24h1.32a.23.23,0,0,0,.26-.16,14.33,14.33,0,0,0,.52-1.84h.24l0,1.88c.42.16.48.3.48.58,0,.58-.54.9-2.28.9h-1c-1.18,0-1.35-.36-1.35-1.28v-3.9h-3.62v1.3c0,1.62-.5,3.6-4.92,4.68l-.16-.26c3-1.22,3.58-2.78,3.58-4.42V66.24l1.76.72h3.19l.42-.46a.88.88,0,0,1-1-.14,4.46,4.46,0,0,0-.9-2h-1.33a11,11,0,0,1-2.66,2.16Zm2.54,2.3c4,.66,2.95,3.34,1.58,2.44a4.24,4.24,0,0,0-1.78-2.26Z"/><path class="cls-1" d="M357.82,62.64l.24-.34a4,4,0,0,1,1.34.4c.84.44,1.64,1.36,1.64,1.92s-.42.64-1.16,1.18c-1.38,1.06-3.94,3.34-4.78,4.18-.56.58-.7.8-.7,1s.24.52.68.86a28.89,28.89,0,0,1,5.3,4.64,3.78,3.78,0,0,1,1,2.12.89.89,0,0,1-.94,1,1,1,0,0,1-.84-.54,14.18,14.18,0,0,0-1-1.74,24.12,24.12,0,0,0-4.76-4.88,1.77,1.77,0,0,1-.76-1.3,1.68,1.68,0,0,1,.54-1.12c1-1.22,3.94-4.12,4.82-5.22.34-.4.46-.6.46-.86S358.58,63.2,357.82,62.64Z"/><path class="cls-1" d="M386.07,63.18a1.57,1.57,0,0,1-.84.38v3.88a2.53,2.53,0,0,1-1.36.44h-.26V66.82H372.14v.7c0,3.76-.24,8.88-3.78,12.4l-.28-.18c2.22-3.66,2.44-8.14,2.44-12.2v-5.6l1.9.76h11l.84-.92Zm-2.46,3.06V63.3H372.14v2.94Zm.2,7.86,2.2.2c0,.24-.2.42-.62.48V79.3c0,.16-.74.54-1.32.54h-.26v-1.3H374.2v1c0,.14-.66.42-1.22.42h-.28V74.12l2.1.2c0,.24-.18.42-.6.48V78h3.94V72.6H375v.64c0,.14-.66.46-1.22.46h-.28V68.28l2.12.22c0,.24-.18.42-.62.48v3h3.14V67.5l2.23.22c0,.28-.2.46-.66.52V72H383V68.3l2.2.22c0,.24-.18.42-.62.48v3.94c0,.16-.7.48-1.3.48H383V72.6h-3.26V78h4.1Z"/><path class="cls-1" d="M397.58,71.56a1.2,1.2,0,0,1-.8.3c-.22,4.22-.74,6.64-1.64,7.42A3.25,3.25,0,0,1,393,80a1.38,1.38,0,0,0-.32-1.06,5,5,0,0,0-1.72-.56V78c.78.06,2.06.18,2.48.18a1,1,0,0,0,.72-.2c.56-.5,1-2.72,1.16-6.34h-2.74c0,.38-.08.74-.12,1.06a2.08,2.08,0,0,1-1.52.14c.28-2.06.58-5,.7-6.56l1.64.62h1.9V63.3H391l-.16-.58H395l.8-.88,1.74,1.34a1.57,1.57,0,0,1-.84.38V68a2.19,2.19,0,0,1-1.26.44h-.24v-.94h-2.22c-.06,1-.18,2.36-.32,3.62h2.48l.86-.88Zm7.87,3.34c5,2.52,3.74,6,2.14,4.72a7.24,7.24,0,0,0-.72-2c-2.08.46-4.85,1-8.55,1.68a.74.74,0,0,1-.52.44l-.92-1.92c1.12,0,3-.14,5.28-.32V73.64h-2.48v.88c0,.14-.62.46-1.22.46h-.2V68.52l1.52.68h2.38V66.9l2.09.22c0,.26-.19.4-.61.46V69.2h2.44l.75-.82,1.66,1.24a1.67,1.67,0,0,1-.76.36v4.18a2,2,0,0,1-1.23.46h-.23v-1h-2.63v3.78l3-.24A17.67,17.67,0,0,0,405.22,75Zm-.78-11.42c5.26,1.34,4.24,5,2.58,3.94a4.89,4.89,0,0,0-.75-1.62c-1.86.34-4.36.72-7.7,1.2a.66.66,0,0,1-.54.38l-.72-1.86c.64,0,1.58,0,2.7,0a32,32,0,0,0,1.14-3.94l2.46.62c-.08.24-.3.42-.74.4a21.82,21.82,0,0,1-2.14,2.9c1.52,0,3.34-.06,5.23-.12a9.08,9.08,0,0,0-1.73-1.72Zm-2.51,9.58v-3.3h-2.48v3.3Zm1.48-3.3v3.3h2.63v-3.3Z"/><path class="cls-1" d="M417.86,62.76a3.87,3.87,0,0,1,1.32-.28,3.05,3.05,0,0,1,1.56.38c.36.24.24.68-.46,3,1.8-.58,2.22-1,2.56-1a.76.76,0,0,1,.83.7c0,.38-.41.64-.67.8a12.68,12.68,0,0,1-3.18,1.06,37.82,37.82,0,0,1-3.66,8.1c-.36.52-.64.9-1.06.9s-.72-.48-.72-.94a1.61,1.61,0,0,1,.38-1.06,22.34,22.34,0,0,0,3.74-6.78,13.52,13.52,0,0,1-1.52.1c-1.56,0-2.26-.54-2.88-2.18l.34-.24a3.59,3.59,0,0,0,2.7,1.14,10.09,10.09,0,0,0,1.76-.2,12,12,0,0,0,.32-2,.7.7,0,0,0-.44-.78,4,4,0,0,0-.92-.34Zm7.22,3.46a5.52,5.52,0,0,1,2.89.14c1.24.44,1.94,1.26,1.94,2.16,0,.5-.2.84-.66.84s-1-.42-1.88-.38a2.88,2.88,0,0,0-1.76.76,2.45,2.45,0,0,0-.4,1.84c0,.58.25,1.76.4,2.94a9.08,9.08,0,0,1,3,1.26c1,.64,1.6,1.28,1.6,1.9s-.28.78-.64.78-.7-.42-1.22-.88a8,8,0,0,0-2.55-1.68,7.28,7.28,0,0,1,0,.78c0,1.68-1.26,2.64-3.38,2.64s-3.28-1-3.28-2.3c0-1.54,1.6-2.76,4.32-2.76.29,0,.56,0,.83,0,0-.82-.12-1.64-.12-2.36a3.42,3.42,0,0,1,.91-2.6A6.9,6.9,0,0,1,427.37,68c.32-.2.24-.44-.06-.66a3.86,3.86,0,0,0-2.23-.64Zm-.71,9.24a9.73,9.73,0,0,0-1.75-.16c-1.78,0-2.66.76-2.66,1.44S420.58,78,422,78c1.8,0,2.35-.86,2.35-2Z"/><path class="cls-1" d="M439.08,68.58c4,1.66,2.7,4.26,1.4,3.2a9,9,0,0,0-1.4-2.8V79.42c0,.2-.62.54-1.2.54h-.32V71.24a15.2,15.2,0,0,1-2.72,4.18l-.28-.26a22.76,22.76,0,0,0,2.7-8.22h-2.34l-.16-.6h2.8V61.56l2.24.24c0,.3-.2.48-.72.56v4h.52l.9-1.22s1,.86,1.64,1.5a.48.48,0,0,1-.52.32h-2.54Zm13.17,5.84s.84.82,1.34,1.36c0,.22-.22.32-.5.32h-1.56v2c0,1.08-.24,1.72-2.1,1.9a1.39,1.39,0,0,0-.38-1,2.46,2.46,0,0,0-1.44-.5v-.3s1.66.12,2,.12.42-.12.42-.4V76.1h-6.55v3.34c0,.16-.58.5-1.18.5h-.24V76.1h-1.64l-.16-.58h1.8v-6l1.54.7H446V68.8h-5l-.16-.58h3.06V66.48h-1.78L442,65.9h1.94V64.28h-2.5l-.16-.58h2.66V61.64l2.1.22c0,.26-.24.46-.67.52V63.7h2.52V61.64l2.1.22c0,.28-.22.46-.68.54v1.3h1.2l.88-1.1s1,.8,1.62,1.36c-.06.22-.24.32-.52.32h-3.18V65.9h.94l.8-1s.94.74,1.52,1.3c0,.22-.24.32-.5.32h-2.76v1.74h1.52l.86-1.1a19.49,19.49,0,0,1,1.6,1.36c0,.22-.24.32-.5.32h-5.33v1.46h2.41l.72-.86,1.76,1.32a1.64,1.64,0,0,1-.82.38v4.36Zm-8.73-3.58v2H446v-2Zm0,4.68H446V73.36h-2.51Zm1.85-9.62h2.52V64.28h-2.52Zm0,2.32h2.52V66.48h-2.52Zm2.09,2.62v2h2.61v-2Zm2.61,4.68V73.36h-2.61v2.16Z"/><path class="cls-1" d="M461.66,76.2c1.4,1.52,2.86,1.74,6.32,1.74,2.32,0,5.43,0,7.83-.08v.28a1.44,1.44,0,0,0-1.14,1.34H468c-3.64,0-5.22-.48-6.6-2.92a33.22,33.22,0,0,1-2.94,2.9.43.43,0,0,1-.26.5l-1-1.94c.74-.3,1.88-.84,3-1.4v-5.9h-2.8l-.12-.6h2.62l.88-1.14,1.92,1.56a1.62,1.62,0,0,1-1,.4Zm-3.38-14.06c5.12,1.42,3.78,5,2.08,3.74a8.31,8.31,0,0,0-2.28-3.58Zm10,3.2H465.4a9.21,9.21,0,0,1-2,2.38l-.3-.2a16.76,16.76,0,0,0,2-5.68l2.32.7c-.08.24-.32.42-.76.42a12.39,12.39,0,0,1-.84,1.8h2.52V61.58l2.34.24c0,.28-.22.48-.73.56v2.38h2.26l1-1.32s1.14.92,1.88,1.58c-.06.22-.26.32-.54.32h-4.64v2.92h2.94l1-1.32s1.18.92,1.9,1.58a.49.49,0,0,1-.52.32H462.62l-.16-.58h5.8Zm3.95,11.48v-1.3h-6.15v.92c0,.16-.66.52-1.32.52h-.24v-7l1.68.72H472l.83-.88,1.74,1.34a1.57,1.57,0,0,1-.78.36v4.84a2.12,2.12,0,0,1-1.33.5Zm0-1.86V71.24h-6.15V75Z"/><path class="cls-1" d="M484.3,67.92c-.06.2-.26.32-.6.38V79.46a1.91,1.91,0,0,1-1.32.5h-.3V69.1A18.49,18.49,0,0,1,479.64,72l-.26-.18a36.05,36.05,0,0,0,4.4-10.28l2.4.78c-.08.24-.32.4-.78.4a31.25,31.25,0,0,1-2.28,4.8Zm8-.88a13.43,13.43,0,0,0,6.2,7.22l0,.24a2.22,2.22,0,0,0-1.1,1.62c-2.56-1.9-4.58-5.4-5.52-9.08h-.07v8.24H493l.91-1.26s1,.88,1.64,1.5c-.06.22-.24.32-.52.32h-3.27v3.54c0,.2-.7.58-1.3.58h-.32V75.84h-3.2l-.16-.56h3.36V69.34a18.67,18.67,0,0,1-6,6.78l-.22-.26A21.91,21.91,0,0,0,489.32,67h-4.7l-.16-.6h5.68V61.78l2.32.24c0,.28-.21.48-.7.56v3.86h3.49l1-1.32s1.16.92,1.84,1.6c0,.22-.26.32-.52.32Z"/><line class="cls-2" y1="50.09" x2="960" y2="50.09"/><path class="cls-1" d="M18.59,16.45c7.4,3.2,10.1,6.2,10.1,11.6,0,6.55-5.15,10.9-13.8,10.9A22,22,0,0,1,3.64,36l.3-8.3h2.8l2.1,8.05a12.54,12.54,0,0,0,5.4,1c5.1,0,8.2-2.4,8.2-6.55,0-3.5-1.7-5.25-6.1-7.1l-2.3-1c-6.3-2.75-9.9-6-9.9-11.75C4.14,3.75,9.54,0,17.09,0a17.36,17.36,0,0,1,9.7,2.8l-.35,7.85h-2.8L21.54,3a8.25,8.25,0,0,0-3.75-.75c-4.4,0-7.45,2.2-7.45,6.15,0,3.5,2.05,5.45,5.75,7.05Z"/><path class="cls-1" d="M51.64,3c-.1,5-.1,10.1-.1,15.25V20.7c0,5,0,10.05.1,15.1l5.35.45V38H39.14V36.25l5.35-.45c0-4.95,0-10,0-15.1V18.25c0-5.05,0-10.2,0-15.25H36.74l-2.1,8.25h-2.8L32.19.9H63.94l.3,10.35h-2.8L59.39,3Z"/><path class="cls-1" d="M102.24,36.25V38a17.57,17.57,0,0,1-5.2.65c-4.05,0-6.2-1.15-6.75-4.55l-1.8-7.7c-.85-4.15-2.25-5.85-6.4-5.85H79.34c0,5.25,0,10.3.15,15.25l4.85.45V38H67.64V36.25l4.75-.45c.1-4.95.1-10,.1-15.1V18.25c0-5,0-10-.1-15.1L67.64,2.7V.9h16.9c8.55,0,13.35,3.55,13.35,9.5,0,4.25-3,8.1-10.25,9.25,5.4.75,7.15,3.2,8.15,7.85l2,8.4ZM83,18.7c5.7,0,8.2-3.6,8.2-8.25,0-4.85-2.7-7.6-8-7.6H79.49c-.15,5.05-.15,10.1-.15,15.85Z"/><path class="cls-1" d="M142,2.7l-5.05.7-.2,19.3c-.05,11.3-5,16.25-13.4,16.25s-14-4.2-14-15.4V18c0-4.9,0-9.9-.15-14.85l-4.4-.45V.9h16.7V2.7l-5.1.5c-.15,4.85-.15,9.85-.15,14.8v4.65c0,9.2,3.3,12.5,9,12.5,6.1,0,9.4-3.7,9.35-13l-.15-18.7-5.8-.75V.9H142Z"/><path class="cls-1" d="M176.49,36.1A22.1,22.1,0,0,1,165.34,39C154.24,39,146,31.9,146,19.45S154.84,0,165.54,0a20.33,20.33,0,0,1,10.55,2.8l-.1,8.65h-2.85l-2.2-8.55a11.44,11.44,0,0,0-4.5-.85c-7.4,0-13,5.75-13,17.45s5.5,17.4,13,17.4a12.94,12.94,0,0,0,4.9-.95l2.2-8.45h2.9Z"/><path class="cls-1" d="M199.54,3c-.1,5-.1,10.1-.1,15.25V20.7c0,5,0,10.05.1,15.1l5.35.45V38H187V36.25l5.35-.45c.05-4.95.05-10,.05-15.1V18.25c0-5.05,0-10.2-.05-15.25h-7.75l-2.1,8.25h-2.8L180.09.9h31.75l.3,10.35h-2.8L207.29,3Z"/><path class="cls-1" d="M252.54,2.7l-5,.7-.2,19.3c0,11.3-5,16.25-13.4,16.25s-14-4.2-14-15.4V18c0-4.9,0-9.9-.15-14.85l-4.4-.45V.9H232V2.7l-5.1.5c-.15,4.85-.15,9.85-.15,14.8v4.65c0,9.2,3.3,12.5,9,12.5,6.1,0,9.4-3.7,9.35-13L245,3.45l-5.8-.75V.9h13.35Z"/><path class="cls-1" d="M291,36.25V38a17.57,17.57,0,0,1-5.2.65c-4.05,0-6.2-1.15-6.75-4.55l-1.8-7.7c-.85-4.15-2.25-5.85-6.4-5.85h-2.75c0,5.25,0,10.3.15,15.25l4.85.45V38h-16.7V36.25l4.75-.45c.1-4.95.1-10,.1-15.1V18.25c0-5,0-10-.1-15.1l-4.75-.45V.9h16.9c8.55,0,13.35,3.55,13.35,9.5,0,4.25-2.95,8.1-10.25,9.25,5.4.75,7.15,3.2,8.15,7.85l2,8.4ZM271.74,18.7c5.7,0,8.2-3.6,8.2-8.25,0-4.85-2.7-7.6-8.05-7.6h-3.65c-.15,5.05-.15,10.1-.15,15.85Z"/><path class="cls-1" d="M322.84,28,322.69,38H293.74V36.25l4.75-.45c.1-4.95.1-10,.1-15.1V18.25c0-5,0-10-.1-15.1l-4.75-.45V.9h27.95l.05,9.8H319L317.14,3H305.69c-.15,4.9-.15,9.9-.15,15.15H313l.75-5.45h2.35V25.3h-2.35l-.7-5.25h-7.55c0,5.65,0,10.8.15,15.9h12.45l1.95-8Z"/></g></g></svg>