<svg xmlns="http://www.w3.org/2000/svg" viewBox="0 0 960 80"><defs><style>.cls-1{fill:#231815;}.cls-2{fill:none;stroke:#231815;stroke-miterlimit:10;}</style></defs><g id="レイヤー_2" data-name="レイヤー 2"><g id="Wire_frame" data-name="Wire frame"><path class="cls-1" d="M18.28,76.9s1.32,1,2.1,1.72c-.05.22-.25.32-.54.32H2.1l-.18-.6H9.68V61.74l2.44.26c-.06.3-.22.5-.72.58v6.54h4.22l1.14-1.46s1.3,1,2.06,1.7c-.06.22-.24.32-.54.32H11.4v8.66h5.74Z"/><path class="cls-1" d="M27.66,65.28a4.52,4.52,0,0,1-3,3.92l-.18-.28a5.09,5.09,0,0,0,1.78-4.32V62.34l1.82.6a29.88,29.88,0,0,0,3.84-1.4L33.38,63c-.2.18-.56.16-1-.06a43.7,43.7,0,0,1-4.7.52v1.2h3.84l.88-1.1s1,.78,1.62,1.36c0,.22-.24.32-.52.32H31.22v2.58a1.61,1.61,0,0,1-1.24.4h-.24v-3ZM24.8,79.64a22.1,22.1,0,0,0,6.56-2.94l1.86,1.38c-.16.2-.52.22-1,.06A27,27,0,0,1,24.9,80Zm16-16.12s1.08.82,1.73,1.44c0,.22-.23.32-.5.32H39.32v2.56a1.22,1.22,0,0,1-.74.32l1.55,1.2a1.59,1.59,0,0,1-.75.34v6.86A2.4,2.4,0,0,1,38,77h-.26V76.2H29.54v.62c0,.16-.68.5-1.32.5H28V68.16l1.7.74H37.6l.62-.68H37.8V65.28H35.72c-.18,1.12-.88,2.42-3.12,3.28l-.16-.3a4.24,4.24,0,0,0,1.9-3.9V62.28l1.68.56a39,39,0,0,0,4-1.3l1.5,1.52c-.22.18-.58.16-1-.06-1.22.18-3,.36-4.72.44V64.7h4.12Zm-11.3,6v1.64h8.24V69.48Zm0,2.2v1.66h8.24V71.68Zm8.24,3.92V73.92H29.54V75.6Zm-3,1.54c9.83.44,7,3.74,5.22,2.54a16.17,16.17,0,0,0-5.28-2.24Z"/><path class="cls-1" d="M60.42,67.24a3.61,3.61,0,0,1,1.64.5,2.56,2.56,0,0,1,1.2,1.72c0,.44-.3.48-1.14.72A39,39,0,0,0,56.6,72.3c.08,1.14.1,2.48.1,3.16s-.26.9-.74.9a.78.78,0,0,1-.82-.86c0-.5.08-1.48.1-2.5C53.4,74.08,52,75.3,52,76.44S53.14,78,55.06,78c3,0,4.12-.64,5-.64s1.3.24,1.3.76-.14.64-.82.84a19.78,19.78,0,0,1-4.48.54c-3.76,0-5-1.22-5-2.84s1.92-3.28,4.16-4.7c-.06-1.66-.38-2.28-1.4-2.28s-2.4,1.2-3.2,2.1-1.28,1.82-1.84,1.84-.76-.38-.76-1,.7-1.06,1.58-2A18.09,18.09,0,0,0,52.36,67a12.54,12.54,0,0,1-1.48.1c-1.62,0-2-.6-2.7-2.18l.38-.22a3,3,0,0,0,2.66,1.2,10.33,10.33,0,0,0,1.84-.2,8.57,8.57,0,0,0,.6-1.66c.1-.34.06-.52-.32-.7A4.7,4.7,0,0,0,52.18,63l0-.34a3.62,3.62,0,0,1,1.22-.26c.68,0,2.08.32,2.08.86,0,.28-.16.44-.36.86s-.4.8-.64,1.26a19.86,19.86,0,0,0,2.36-.8c.8-.34.94-.54,1.24-.54.52,0,1,.16,1,.64,0,.28-.18.48-.6.7a21.81,21.81,0,0,1-4.78,1.44,21.54,21.54,0,0,1-1.8,2.7c-.08.12,0,.22.12.14a4.7,4.7,0,0,1,2.2-.72c1.24,0,2,.84,2.24,2.26C58,70.38,60,69.58,61.08,69c.34-.2.38-.4.1-.7a2.87,2.87,0,0,0-1-.7Z"/><path class="cls-1" d="M72.12,69.48c3.88,1.74,2.5,4.32,1.22,3.22a8.65,8.65,0,0,0-1.22-2.76v9.48c0,.2-.64.52-1.22.52h-.32V71.3a15.6,15.6,0,0,1-2.52,4L67.78,75a23,23,0,0,0,2.56-8.16H68.1l-.16-.58h2.64V61.56l2.24.24c0,.3-.2.48-.7.56V66.3h.4l.9-1.22s1,.86,1.6,1.48c-.06.22-.24.32-.52.32H72.12Zm6.36,6.4c-.12.2-.28.3-.72.22a12,12,0,0,1-4.26,3l-.2-.26a12,12,0,0,0,3.26-4ZM74.42,63.42l-.16-.56h9.46l1-1.2s1.12.84,1.81,1.46c-.07.22-.24.3-.53.3h-3.6v1.94H84l.7-.84,1.53,1.16a1,1,0,0,1-.71.32v3.72a1.67,1.67,0,0,1-1.21.38h-.25v-.68H76.46v.66c0,.12-.44.42-1.18.42H75V64.66l1.64.7h1.46V63.42Zm10.29,9.1s1.09.82,1.75,1.42c0,.22-.23.32-.5.32h-4.8V78c0,1.12-.3,1.82-2.3,2a1.4,1.4,0,0,0-.4-1,3.77,3.77,0,0,0-1.74-.52v-.3s2,.14,2.46.14.46-.1.46-.34V74.26H74.46l-.16-.58h9.46Zm-1.25-2.44s1.08.82,1.79,1.42a.5.5,0,0,1-.54.32H75.88l-.16-.56H82.5Zm-7-1.22h1.68V65.92H76.46Zm2.92-5.44v1.94h1.74V63.42Zm0,5.44h1.74V65.92H79.38Zm3.06,6.3c5.11,1.36,4,4.66,2.43,3.62a9.24,9.24,0,0,0-2.63-3.48Zm-.08-9.24v2.94h1.72V65.92Z"/><path class="cls-1" d="M90.34,64.24c4.1.34,3.06,3.2,1.58,2.36a5.36,5.36,0,0,0-1.76-2.2Zm16.41,9.4s1.26,1,2,1.66a.52.52,0,0,1-.54.3h-7.87v3.9c0,.18-.72.48-1.34.48h-.3V75.6H90.6L90.42,75h8.3V73a2,2,0,0,1-1,.26h-.26v-6.8a11.74,11.74,0,0,1-2.28,1.9l-.26-.24a16.77,16.77,0,0,0,3.72-6.7l2.2.84c-.08.22-.32.4-.76.34-.26.54-.54,1-.84,1.54h2.56a22.15,22.15,0,0,0,.7-2.62l2.33.58c-.07.24-.29.42-.73.4a13.83,13.83,0,0,1-1.62,1.64h3l1-1.24s1.12.86,1.85,1.5c0,.22-.24.32-.54.32H103.3v1.84h1.76L106,65.4s1,.84,1.7,1.44c0,.22-.24.32-.52.32H103.3v1.92h1.83l.91-1.2s1,.86,1.69,1.46c-.06.2-.26.3-.54.3H103.3v2H106l1-1.26s1.15.88,1.81,1.52a.48.48,0,0,1-.52.32H99v.58s0,.1-.14.18l2.1.2c0,.2-.18.36-.56.44V75h5.28ZM91.66,69.36c.26,0,.34,0,.58-.32.42-.54.42-.54,4.12-5.52l.3.16c-.78,1.42-2.68,4.46-3,5.08a3.07,3.07,0,0,0-.42,1.3c0,.66.56,1.26.5,2.4a1,1,0,0,1-1.14,1.1c-.34,0-.6-.26-.68-.76.2-1.58.1-2.56-.32-2.8a2.59,2.59,0,0,0-.94-.24v-.4ZM92,61.62c4.14.5,3,3.38,1.58,2.48a5.49,5.49,0,0,0-1.76-2.32Zm7,3.12v1.84h2.8V64.74Zm2.8,2.42H99v1.92h2.8Zm0,2.48H99v2h2.8Z"/><path class="cls-1" d="M118.94,71c-.4,1.08-1.26,3.18-1.46,3.94a5.71,5.71,0,0,0-.32,1.46c0,.62.4,1.28.4,1.78s-.24.76-.7.76a1.41,1.41,0,0,1-1.06-.78,8.7,8.7,0,0,1-1.18-4.58,18.67,18.67,0,0,1,.94-5.22A12.11,12.11,0,0,0,116,66a3.24,3.24,0,0,0-1.1-2.16l.3-.26a4,4,0,0,1,1.16.62,3.52,3.52,0,0,1,1.44,2.24c0,.48-.28.86-.78,2a11.94,11.94,0,0,0-1.32,4.9,3.24,3.24,0,0,0,.26,1.58c.14.26.28.3.46,0,.46-.7,1.56-3,2-4Zm2,1.68a7.38,7.38,0,0,0,.56,1.66c.7,1.24,1.72,1.9,4.2,1.9a18.68,18.68,0,0,0,3.36-.36c.63,0,1.26.24,1.26.76,0,.94-1.9,1.18-4.14,1.18-3.32,0-5-1.2-5.48-3.32a6.89,6.89,0,0,1-.2-1.76Zm.2-6.1A9.35,9.35,0,0,1,126,65.2a6.45,6.45,0,0,1,2.8.46.93.93,0,0,1,.66.82c0,.32-.17.52-.62.58a7.94,7.94,0,0,0-1.78.38,31.75,31.75,0,0,0-3.28,1.76l-.32-.36c.88-.66,2.2-1.64,2.58-2s.26-.38-1.1-.38a12.35,12.35,0,0,0-3.66.62Z"/><path class="cls-1" d="M134.62,77.18A2.81,2.81,0,1,1,137.44,80,2.8,2.8,0,0,1,134.62,77.18Zm.68,0a2.13,2.13,0,1,0,2.14-2.12A2.16,2.16,0,0,0,135.3,77.18Z"/><path class="cls-1" d="M150,66.34c1.26,0,7.26-.64,8.24-.84.6-.14.7-.44,1.1-.44.68,0,2.34,1.34,2.34,2s-.62.7-.92,1.36A19.38,19.38,0,0,1,148.9,79.3l-.28-.44C154.28,76,158,71.52,159.2,66.92c.08-.26,0-.3-.22-.3a73.25,73.25,0,0,0-7.46,1.12c-.54.12-1,.48-1.4.48-.68,0-1.66-1-1.86-1.62a5.47,5.47,0,0,1-.18-1.22l.36-.14A2.07,2.07,0,0,0,150,66.34Zm10.68-2.48A2.15,2.15,0,1,1,162.83,66,2.14,2.14,0,0,1,160.68,63.86Zm.7,0a1.44,1.44,0,1,0,1.45-1.42A1.44,1.44,0,0,0,161.38,63.86Z"/><path class="cls-1" d="M168.48,65.1a4.19,4.19,0,0,1,1.48-.46c.92,0,2.3,1,2.3,1.52s-.44.68-.5,1.32c-.12,1.08-.24,6.26-.24,8.12,0,.2.06.26.24.22a31.31,31.31,0,0,0,11.12-7.22l.37.36a28.75,28.75,0,0,1-10.61,8.46c-.66.34-.68.84-1.16.84s-1.7-1.24-1.7-1.76c0-.34.36-.64.38-1.32.06-1.38.08-7.26,0-8.76,0-.44-.2-.68-1.62-1Z"/><path class="cls-1" d="M188.2,74.18a20.38,20.38,0,0,1,8.3,2.22c.79.5,1.21,1,1.21,1.54a.75.75,0,0,1-.85.8c-.5,0-1-.46-1.74-1a21.84,21.84,0,0,0-7-3.12Zm.78-5.44a16.22,16.22,0,0,1,5.66,1.12c.82.36,1.32.8,1.32,1.46a.7.7,0,0,1-.74.74c-.34,0-.66-.24-1.26-.62a23,23,0,0,0-5.08-2.28Zm8.4-2a.71.71,0,0,1-.7.74c-.5,0-.76-.26-1.38-.72a17.4,17.4,0,0,0-5.78-2.52l.08-.42a19.71,19.71,0,0,1,6.26,1.24C197,65.66,197.38,66.16,197.38,66.78Z"/><path class="cls-1" d="M204.74,64.36c.44.6.7,1,1.3,1,1.44,0,8.86-.82,10.08-1,.52-.08.74-.38,1.12-.38.6,0,2.18,1.38,2.18,2s-.88.62-1.34.94a45.22,45.22,0,0,1-4.34,2.72.85.85,0,0,1-.06.36,15.43,15.43,0,0,1-8.16,9.18l-.32-.4c3.94-2.48,6.46-7.34,6.46-8.68,0-.62-.74-.94-1.6-1.26l.1-.38a5.62,5.62,0,0,1,1.3,0,4.44,4.44,0,0,1,1.76.56,17.77,17.77,0,0,0,3.44-3.18c.24-.38.14-.46-.26-.46-.94,0-6.42.84-8.6,1.28-.78.18-.86.6-1.38.6a2.92,2.92,0,0,1-1.84-1.54,3.45,3.45,0,0,1-.24-1.32Z"/><path class="cls-1" d="M231.54,70.64c2.48,1.32,5.1,4,5.1,6.28a1,1,0,0,1-.93,1.1c-.79,0-.75-.88-1.47-2.7-2.9.66-7.8,1.46-9.5,1.86-.42.08-.88.62-1.24.62-.64,0-1.58-1.06-1.72-1.74a2.16,2.16,0,0,1,0-.8l.26-.14a2,2,0,0,0,1.18.54c.18,0,.56,0,1.08-.06,1.48-2.7,4.16-8.66,4.16-9.7,0-.46-.36-.84-1-1.3l.12-.32a4.62,4.62,0,0,1,1.28.2c.92.28,1.92,1.22,1.92,1.74s-.54.58-.8,1.08c-.94,1.88-3,5.78-4.4,8.18,2.46-.26,6.18-.7,8.3-1.06A13,13,0,0,0,231.22,71Z"/><path class="cls-1" d="M245.76,62.76a3.87,3.87,0,0,1,1.32-.28,3.05,3.05,0,0,1,1.56.38c.36.24.24.68-.46,3,1.8-.58,2.22-1,2.57-1a.76.76,0,0,1,.82.7c0,.38-.4.64-.66.8a12.93,12.93,0,0,1-3.19,1.06,37.82,37.82,0,0,1-3.66,8.1c-.36.52-.64.9-1.06.9s-.72-.48-.72-.94a1.61,1.61,0,0,1,.38-1.06,22.34,22.34,0,0,0,3.74-6.78,13.52,13.52,0,0,1-1.52.1c-1.56,0-2.26-.54-2.88-2.18l.34-.24a3.59,3.59,0,0,0,2.7,1.14,10.09,10.09,0,0,0,1.76-.2,12,12,0,0,0,.32-2,.7.7,0,0,0-.44-.78,4,4,0,0,0-.92-.34ZM253,66.22a5.49,5.49,0,0,1,2.88.14c1.24.44,1.94,1.26,1.94,2.16,0,.5-.2.84-.66.84s-1-.42-1.88-.38a2.9,2.9,0,0,0-1.76.76,2.45,2.45,0,0,0-.4,1.84c0,.58.26,1.76.4,2.94a9.08,9.08,0,0,1,3,1.26c1,.64,1.6,1.28,1.6,1.9s-.28.78-.64.78-.7-.42-1.22-.88a8,8,0,0,0-2.54-1.68c0,.28,0,.54,0,.78,0,1.68-1.26,2.64-3.38,2.64S247,78.28,247,77c0-1.54,1.6-2.76,4.33-2.76.28,0,.55,0,.82,0,0-.82-.12-1.64-.12-2.36a3.38,3.38,0,0,1,.92-2.6A6.76,6.76,0,0,1,255.27,68c.32-.2.24-.44-.06-.66a3.85,3.85,0,0,0-2.22-.64Zm-.72,9.24a9.73,9.73,0,0,0-1.75-.16c-1.78,0-2.66.76-2.66,1.44s.62,1.22,2.06,1.22c1.8,0,2.35-.86,2.35-2Z"/><path class="cls-1" d="M266.74,67.44c0,3.76-.26,8.94-3.86,12.48l-.3-.18c2.3-3.7,2.52-8.2,2.52-12.28V62l1.9.82h10.57l.84-.92,1.82,1.4a1.82,1.82,0,0,1-.86.38v4a2.21,2.21,0,0,1-1.34.46h-.26v-1h-11Zm12.55,1.2a25,25,0,0,1,1.92,1.64.48.48,0,0,1-.52.32h-6.55v2.94h3l.84-.9,1.8,1.36a1.56,1.56,0,0,1-.86.42v4.9a2.06,2.06,0,0,1-1.32.5h-.27V78.64h-7.94v.82c0,.16-.66.52-1.32.52h-.22V72.84l1.66.7h3.08V70.6h-5.68l-.16-.6h5.84V67.42l2.24.22c0,.26-.2.44-.66.52V70h4.11ZM266.74,63.4v3.16h11V63.4Zm2.62,10.72v3.94h7.94V74.12Z"/><path class="cls-1" d="M287.92,68c1,3.54,0,5.84-.94,6.84-.62.66-1.52.86-1.9.38a1.1,1.1,0,0,1,.32-1.42c1.16-.88,2.24-3.18,2.2-5.8Zm4.8-1.7c0,.26-.22.46-.68.54V77.1c0,.46.18.64,1.18.64h2.49c1.12,0,1.94,0,2.29-.06a.6.6,0,0,0,.57-.34,21,21,0,0,0,.8-3.38h.26l.06,3.52c.56.2.72.4.72.72,0,.82-.84,1.1-4.78,1.1H293c-2,0-2.54-.34-2.54-1.78V66.06Zm2.84,0a11.22,11.22,0,0,0-4.88-4l.1-.28C298.65,63.14,297.41,67.3,295.56,66.28Zm6.33,8.34A9.6,9.6,0,0,0,299.15,68l.16-.2C305.79,71.12,303.49,76.62,301.89,74.62Z"/><path class="cls-1" d="M311.44,74.42c.92-.36,1.9-.78,2.88-1.2l.1.22c-1.32,1-3.24,2.36-5.8,3.94a.86.86,0,0,1-.42.58l-.88-2c.56-.18,1.48-.5,2.58-.94V68.22h-2.22l-.16-.58h2.38V62l2.26.24c0,.28-.2.48-.72.56v4.88H312l.88-1.32s1,1,1.6,1.58c0,.22-.24.32-.52.32h-2.48Zm13.93,3.08c.58.2.76.4.76.72,0,.82-.92,1.06-5.29,1.06h-3c-2.14,0-2.84-.36-2.84-1.94V69.48l-2.32.86-.38-.48,2.7-1V63.14l2.26.26c0,.24-.22.46-.72.54v4.34l2.42-.9v-5.8l2.25.24c0,.28-.21.48-.73.56v4.44l2.43-.9.16-.06.82-.88,1.68,1.36a1.24,1.24,0,0,1-.78.32c-.06,5.26-.28,7.06-1,7.78a2.49,2.49,0,0,1-1.79.64A1.51,1.51,0,0,0,321.8,74a1.73,1.73,0,0,0-1-.48v-.3c.43,0,1.06.08,1.36.08s.43,0,.54-.18c.36-.4.51-2.22.59-6.7l-2.79,1v8.32c0,.2-.66.54-1.22.54H319V68l-2.42.9V77c0,.6.26.82,1.44.82h2.9a26.76,26.76,0,0,0,2.69-.08.79.79,0,0,0,.6-.3,17.28,17.28,0,0,0,.86-2.94h.24Z"/><path class="cls-1" d="M335.32,63.44a3.51,3.51,0,0,1,1.46-.32c.84,0,2.44.72,2.44,1.26s-.46.72-.7,1.28-.46,1.14-.8,1.94a12.07,12.07,0,0,1,1.58-.16c1.52,0,2.44.86,2.44,3.3s-.7,5.28-2,6.82a3.22,3.22,0,0,1-2.48,1.22c-.7,0-.86-.28-1.12-1-.12-.34-.28-.56-1.34-1.54l.2-.3a6.92,6.92,0,0,0,2.4,1.1,1.67,1.67,0,0,0,1.52-.94,12.1,12.1,0,0,0,1.44-5.82c0-1.34-.34-2-1.4-2a8.19,8.19,0,0,0-1.72.28c-.56,1.34-1.22,2.86-1.82,4.12a59.11,59.11,0,0,1-2.94,5.54c-.34.56-.6.72-1,.72a.81.81,0,0,1-.7-.9,1.4,1.4,0,0,1,.36-1,30.21,30.21,0,0,0,3.1-4.92c.46-.92.94-2,1.38-3.06-.68.24-1.3.48-1.7.64a4.41,4.41,0,0,1-1.62.56c-.54,0-1.34-.84-1.5-1.54a2.54,2.54,0,0,1,.1-1.22l.36-.06c.26.58.44,1.16,1,1.16a34.61,34.61,0,0,0,3.84-.76,15.17,15.17,0,0,0,1-3.16.55.55,0,0,0-.32-.56,5.71,5.71,0,0,0-1.52-.34Zm7.78,4a5.48,5.48,0,0,1,3.51,1.6A5.33,5.33,0,0,1,348,72.78c0,.92-.32,1.64-1,1.64s-.58-.58-1.18-.72a11.1,11.1,0,0,0-2.33,0l-.09-.44a24.62,24.62,0,0,0,2.4-.6c.42-.16.52-.36.5-.88a4.46,4.46,0,0,0-.78-2.28,3.94,3.94,0,0,0-2.58-1.62ZM344,64a7.11,7.11,0,0,1,2.4,1.3,1.57,1.57,0,0,1,.66,1.16.54.54,0,0,1-.54.6c-.32,0-.56-.42-.94-.9a9.37,9.37,0,0,0-1.82-1.84Zm1.82-1.32a7.14,7.14,0,0,1,2.38,1.12,1.58,1.58,0,0,1,.74,1.24.5.5,0,0,1-.54.56c-.32,0-.54-.44-1-.92A9.6,9.6,0,0,0,345.53,63Z"/><path class="cls-1" d="M352.56,74.88c2.48.66,3.8,1.66,4.48,2.66a2.25,2.25,0,0,1,.46,1.34.94.94,0,0,1-1,1c-.46,0-.76-.26-1.06-.88a9.32,9.32,0,0,0-3.14-3.86Z"/><path class="cls-1" d="M367.8,66.06a3.17,3.17,0,0,0,2,1,36.15,36.15,0,0,0,4.42-.46c3-.44,2.78-1,3.31-1,.84,0,2.14.52,2.14,1s-.22.64-.82.72c-.76.1-3.09.32-5,.52.68.3,1.22.68,1.22,1.08s-.28.72-.36,1.3c-.09.86-.24,2.54-.32,3.94,1.47-.12,2.9-.24,4.09-.3a10.76,10.76,0,0,0,1.46-.26c.88,0,2.58.8,2.58,1.54a.62.62,0,0,1-.7.66,27.68,27.68,0,0,0-12.67.24,10.32,10.32,0,0,1-1.76.52c-.64,0-1.64-1-1.88-1.46a2.54,2.54,0,0,1-.24-1.18l.34-.14a2.25,2.25,0,0,0,1.68,1c.68,0,3.06-.24,5.64-.48.08-1.44.14-3.5.14-4.44A2.67,2.67,0,0,0,372.5,68c-1.34.2-2.34.4-2.88.4a1.93,1.93,0,0,1-1.32-.8,4.59,4.59,0,0,1-.82-1.38Z"/><path class="cls-1" d="M392.1,62.86a4.49,4.49,0,0,1,1.26,0c.94.14,2.12.8,2.12,1.2s-.26.54-.58,1a13,13,0,0,1-.72,1.1,1.62,1.62,0,0,0,.3,0,27.91,27.91,0,0,0,3.85-.44c.54-.12.74-.5,1.1-.5.52,0,2,.88,2,1.5,0,.44-.68.6-1,1.12a24.85,24.85,0,0,1-12.77,11.44l-.3-.42c5.14-2.68,9.83-7.82,11.43-11.84.08-.26,0-.34-.21-.34a26.64,26.64,0,0,0-3,.48,4.66,4.66,0,0,1-1.12.26,1.84,1.84,0,0,1-.88-.48,18.08,18.08,0,0,1-6.12,5.2l-.28-.4c3.14-2.34,6-6.4,6-7.58,0-.38-.52-.74-1.2-1Z"/><path class="cls-1" d="M416.07,72.4A20.22,20.22,0,0,0,419,68.52c.14-.24,0-.38-.24-.34A53,53,0,0,0,413,69.92c-.1,1.68-.14,3.48-.14,4.66,0,1.68.28,1.84,2.55,1.84a18.23,18.23,0,0,0,4.14-.48c.64,0,1.54.26,1.54.86,0,.44-.4.64-.94.74a23.57,23.57,0,0,1-4.06.38c-3.29,0-4.51-.24-4.53-3,0-1.32,0-3.22,0-4.56-.9.32-2,.72-2.72,1s-.86.68-1.46.68a3.37,3.37,0,0,1-2-1.5,2.48,2.48,0,0,1-.12-1.18l.3-.1c.4.56.76,1,1.3,1a31.81,31.81,0,0,0,4.68-1.18c0-1.62.08-3.6,0-4.38,0-.5-.64-.64-1.62-.82l0-.36a5,5,0,0,1,1.62-.34c.84,0,2.18.8,2.18,1.3s-.4.74-.5,1.4-.16,1.58-.24,2.78l5.23-1.46c.6-.18.8-.56,1.12-.56.66,0,2.16,1.2,2.16,1.76s-.68.56-1.12,1a26.26,26.26,0,0,1-4.11,3.28Z"/><path class="cls-1" d="M427.46,65.1a4.19,4.19,0,0,1,1.48-.46c.92,0,2.3,1,2.3,1.52s-.44.68-.5,1.32c-.12,1.08-.24,6.26-.24,8.12,0,.2.06.26.24.22a31.43,31.43,0,0,0,11.13-7.22l.36.36a28.67,28.67,0,0,1-10.61,8.46c-.66.34-.68.84-1.16.84s-1.7-1.24-1.7-1.76c0-.34.36-.64.38-1.32.06-1.38.08-7.26,0-8.76,0-.44-.2-.68-1.62-1Z"/><path class="cls-1" d="M460.83,66.48l.44.28c-2.38,4.3-6.08,7.6-10.53,10.42-.46.28-.7.82-1.18.82A4,4,0,0,1,447,76.34a4.3,4.3,0,0,1-.4-1.46l.3-.2c.56.62,1.22,1.3,1.88,1.3C450.5,76,458,70.64,460.83,66.48ZM447,64.58c2.42.54,5.32,1.84,5.32,3.54a.86.86,0,0,1-.86.92c-.42,0-.74-.26-1.24-.9A13.25,13.25,0,0,0,446.74,65Z"/><path class="cls-1" d="M466.41,63.36a5.56,5.56,0,0,1,1.42-.34c.9,0,2.38.82,2.38,1.34s-.38.58-.46,1.24c-.12.9-.16,2.26-.18,3.4a15.89,15.89,0,0,1,5,1.7,2.11,2.11,0,0,1,1.22,1.68.79.79,0,0,1-.8.86c-.82,0-1-.82-2.3-1.88a14.1,14.1,0,0,0-3.08-1.66c0,1.56,0,4.66,0,6.68,0,.92.06,1.54.06,1.86,0,.68-.2,1-.74,1-.78,0-1.18-1.08-1.18-2,0-.46.17-.86.25-1.66.17-1.48.17-4.58.17-6,0-1.62,0-3.88-.14-4.86-.08-.64-.58-.8-1.57-.92Z"/><path class="cls-1" d="M485,72.72a2,2,0,1,1,2-2A2,2,0,0,1,485,72.72Z"/><path class="cls-1" d="M498.67,62.86a4.42,4.42,0,0,1,1.25,0c.95.14,2.12.8,2.12,1.2s-.25.54-.58,1a12.86,12.86,0,0,1-.71,1.1,1.57,1.57,0,0,0,.29,0,27.91,27.91,0,0,0,3.85-.44c.54-.12.74-.5,1.1-.5.52,0,2,.88,2,1.5,0,.44-.68.6-1,1.12a24.85,24.85,0,0,1-12.77,11.44l-.3-.42c5.14-2.68,9.83-7.82,11.43-11.84.08-.26,0-.34-.2-.34a25.94,25.94,0,0,0-3,.48,4.62,4.62,0,0,1-1.13.26,1.86,1.86,0,0,1-.87-.48,18.21,18.21,0,0,1-6.13,5.2l-.28-.4c3.14-2.34,6-6.4,6-7.58,0-.38-.51-.74-1.2-1Z"/><path class="cls-1" d="M519.89,63.2a4.47,4.47,0,0,1,1.58-.38c1,0,2.14.72,2.14,1.08s-.3.52-.4,1.24-.1,1.42-.12,2.1a14.91,14.91,0,0,0,3.48-.68c.78,0,2,.64,2,1.18a.56.56,0,0,1-.58.6,40.91,40.91,0,0,0-4.86,0c0,1.78,0,4.82.06,6.3,0,1.14.16,1.68.16,2.28,0,.94-.72,1.92-1.36,1.92s-.6-.72-1.08-1.14a9.29,9.29,0,0,0-2.14-1.26l.14-.34c.84.16,1.84.4,2.42.46.26,0,.4-.08.42-.34.08-.78,0-3.54,0-5.92a23.17,23.17,0,0,1-9.25,7.2l-.28-.4c3.47-2.16,7-5.54,8.67-8.54-1.38.18-2.68.42-3.62.62a15.84,15.84,0,0,1-2,.48c-.58,0-1.54-1-1.74-1.48a3.62,3.62,0,0,1-.14-1.16l.36-.14c.48.72.89,1.12,1.47,1.12,1.32,0,4.32-.4,6.46-.62,0-1,0-2.14-.06-2.82a.62.62,0,0,0-.48-.68,3.75,3.75,0,0,0-1.28-.3Z"/><path class="cls-1" d="M533.45,64.86v-.38a3.89,3.89,0,0,1,1.28-.28c.78,0,2.18.8,2.18,1.36s-.3.64-.36,1.4,0,5,0,6-.32,1.14-.76,1.14-.94-.74-.94-1.6c0-.52.2-1.26.22-2.82,0-.94,0-2.94-.12-3.7,0-.46-.08-.62-.4-.78A5.75,5.75,0,0,0,533.45,64.86Zm2.34,14.68-.24-.4c3.86-2.08,5.78-4.74,6-8.8a42.59,42.59,0,0,0,0-5c0-.38-.06-.64-.42-.84a4.24,4.24,0,0,0-1.2-.32l0-.38a3.74,3.74,0,0,1,1.5-.52c.8,0,2.24.84,2.24,1.32s-.36.58-.4,1.22c0,1.18-.14,3.36-.2,4.58C542.89,75.06,540.43,77.92,535.79,79.54Z"/><path class="cls-1" d="M550.58,68c.43.52.81,1,1.35,1,1.36,0,6.68-.8,10.06-1.12a19.87,19.87,0,0,0,2-.36c.94,0,2.14.5,2.14,1.14,0,.42-.16.6-.64.6s-1.2-.16-2.22-.16-2.46.06-4.16.22c.58.34,1.06.72,1.06,1.08s-.48.54-.76,1.24a13.43,13.43,0,0,1-7,7.84l-.38-.4c4.68-3.1,5.92-7.62,5.92-8.84a1.25,1.25,0,0,0-.28-.78c-1.58.22-3.3.54-3.92.7a8.9,8.9,0,0,1-1.72.46c-.52,0-1.46-.82-1.66-1.42a2.83,2.83,0,0,1-.14-1.08Zm3-4.26a3.33,3.33,0,0,0,2,.72,17.4,17.4,0,0,0,3.66-.5c1.14-.26,1.4-.58,1.78-.58,1,0,1.72.34,1.72.92,0,.32-.22.52-.86.64a38.8,38.8,0,0,1-6.24.82c-1.08,0-1.66-.64-2.34-1.78Z"/><path class="cls-1" d="M574.85,67a3.49,3.49,0,0,1,1.18.12c.72.24,1.56,1,1.56,1.48s-.32.4-.74.82c-.54.6-1.28,1.4-2.22,2.28.46.32.82.6.82.86s-.14.48-.16.88c-.08,2.14,0,4.36,0,5.18,0,.62-.24.94-.7.94-.68,0-1-.76-1-1.42,0-.28.12-.6.16-1.1a35.21,35.21,0,0,0,.18-4,1.77,1.77,0,0,0-.14-.62,20.67,20.67,0,0,1-5.92,3.5l-.2-.32c4.08-2.32,7.92-6.56,7.92-7.48,0-.32-.46-.64-.88-.84Z"/><line class="cls-2" y1="50.09" x2="960" y2="50.09"/><path class="cls-1" d="M32.49,28,32.34,38H3.39V36.25l4.75-.45c.1-4.95.1-10,.1-15.1V18.25c0-5,0-10-.1-15.1L3.39,2.7V.9h28l.05,9.8h-2.7L26.79,3H15.34c-.15,4.9-.15,9.9-.15,15.15h7.5l.75-5.45h2.35V25.3H23.44l-.7-5.25H15.19c0,5.65,0,10.8.15,15.9H27.79l1.95-8Z"/><path class="cls-1" d="M67.44,36.1A22.1,22.1,0,0,1,56.29,39c-11.1,0-19.35-7.05-19.35-19.5S45.79,0,56.49,0A20.33,20.33,0,0,1,67,2.8l-.1,8.65H64.09L61.89,2.9a11.44,11.44,0,0,0-4.5-.85c-7.4,0-13,5.75-13,17.45s5.5,17.4,13,17.4a12.94,12.94,0,0,0,4.9-.95l2.2-8.45h2.9Z"/><path class="cls-1" d="M106.49,19.45C106.49,32,98.34,39,89.24,39s-17.3-6.75-17.3-19.5C71.94,7,80.19,0,89.24,0S106.49,6.8,106.49,19.45ZM89.24,36.9c6.7,0,9.85-7.7,9.85-17.45,0-9.6-3.15-17.4-9.85-17.4s-9.8,7.8-9.8,17.4C79.44,29.2,82.54,36.9,89.24,36.9Z"/><path class="cls-1" d="M155.69,16.45a34.89,34.89,0,0,1-5.95,12.85c1.95,2.05,4,4.2,6.6,6.85l3.15.35-.05,1.55a20.55,20.55,0,0,1-4.7.7,9.49,9.49,0,0,1-7.1-2.6c-.8-.8-1.55-1.55-2.25-2.35a13.58,13.58,0,0,1-10.75,5c-7.35,0-11.5-4.6-11.5-9.95,0-4.5,2.6-8.1,8.65-10.9l-.65-.75c-2.5-3.1-3.45-5.8-3.45-8.6,0-5.15,3.95-8.4,9.7-8.4s9,2.95,9,7.15c0,3.9-2.75,6.6-8.3,9.25,1,1.2,2.4,2.7,4.35,4.8,2.35,2.65,4.3,4.75,6.25,6.8a32.64,32.64,0,0,0,3.95-11.75l-4.55-.6v-1.6h11.65v1.6Zm-11.35,16.2c-2.15-2.35-4.1-4.65-5.9-6.75-2.65-3.15-4.2-5-5.75-6.9a9.67,9.67,0,0,0-3.75,7.7,8,8,0,0,0,8.4,8.35A10.7,10.7,0,0,0,144.34,32.65Zm-11.6-25.6c0,1.85.5,3.55,2.35,6,.65.85,1.3,1.6,2,2.5,2.8-2.55,4.55-5.1,4.55-8.3s-1.65-5-4.35-5A4.59,4.59,0,0,0,132.74,7.05Z"/><path class="cls-1" d="M191.59,16.45c7.4,3.2,10.1,6.2,10.1,11.6,0,6.55-5.15,10.9-13.8,10.9a22,22,0,0,1-11.25-3l.3-8.3h2.8l2.1,8.05a12.54,12.54,0,0,0,5.4,1c5.1,0,8.2-2.4,8.2-6.55,0-3.5-1.7-5.25-6.1-7.1l-2.3-1c-6.3-2.75-9.9-6-9.9-11.75,0-6.6,5.4-10.35,13-10.35a17.36,17.36,0,0,1,9.7,2.8l-.35,7.85h-2.8L194.54,3a8.25,8.25,0,0,0-3.75-.75c-4.4,0-7.45,2.2-7.45,6.15,0,3.5,2,5.45,5.75,7.05Z"/><path class="cls-1" d="M246.79,3.15c0,5,0,10.1,0,15.1V20.7c0,5.05,0,10.1,0,15.1l4.8.45V38h-16.5V36.25l4.6-.45c.15-4.95.05-9.95.15-14.3l.1-15.75L227.74,38h-2.45L212.74,6c.15,5,.25,11.65.25,13.75v16l5.25.6V38h-13V36.25l5.3-.6.2-32.3-5.25-.65V.9h12.2l11.1,28.2L239.59.9h12V2.7Z"/><path class="cls-1" d="M290.59,36.25V38H274.44V36.25l4.85-.55L276.14,26H264.19l-2.95,9.65,4.9.6V38h-11.7V36.25l4.3-.6L270.14.75h4.35L286.44,35.8Zm-15-12.1L270,7l-5.3,17.15Z"/><path class="cls-1" d="M328,36.25V38a17.57,17.57,0,0,1-5.2.65c-4.05,0-6.2-1.15-6.75-4.55l-1.8-7.7c-.85-4.15-2.25-5.85-6.4-5.85h-2.75c0,5.25,0,10.3.15,15.25l4.85.45V38h-16.7V36.25l4.75-.45c.1-4.95.1-10,.1-15.1V18.25c0-5,0-10-.1-15.1l-4.75-.45V.9h16.9c8.55,0,13.35,3.55,13.35,9.5,0,4.25-2.95,8.1-10.25,9.25,5.4.75,7.15,3.2,8.15,7.85l2,8.4ZM308.74,18.7c5.7,0,8.2-3.6,8.2-8.25,0-4.85-2.7-7.6-8.05-7.6h-3.65c-.15,5.05-.15,10.1-.15,15.85Z"/><path class="cls-1" d="M349.39,3c-.1,5-.1,10.1-.1,15.25V20.7c0,5,0,10.05.1,15.1l5.35.45V38H336.89V36.25l5.35-.45c.05-4.95.05-10,.05-15.1V18.25c0-5.05,0-10.2-.05-15.25h-7.75l-2.1,8.25h-2.8L329.94.9h31.75l.3,10.35h-2.8L357.14,3Z"/><path class="cls-1" d="M406.14,27.2,406,38h-28.1l.05-1.75,4.7-.45c.1-4.95.1-9.9.1-14.2V18.25c0-5,0-10-.1-15.1l-4.75-.45V.9h16.95V2.7l-5,.5c-.15,5-.15,10-.15,14.65V21.2c0,4.65,0,9.7.15,14.75h11.4l2.15-8.75Z"/><path class="cls-1" d="M422.29,3.15c-.15,5-.15,10-.15,15.1V20.7c0,5,0,10.1.15,15.1l4.75.45V38h-16.7V36.25l4.75-.45c.1-4.95.1-10,.1-15.1V18.25c0-5,0-10-.1-15.1l-4.75-.45V.9H427V2.7Z"/><path class="cls-1" d="M443.44,3c-.15,4.9-.15,9.9-.15,15.15h7.65l.75-5.45H454v13h-2.35l-.75-5.65h-7.65c0,5.55,0,10.7.15,15.7l5.35.5V38h-17.3V36.25l4.75-.45c.1-4.95.1-10,.1-15.1V18.25c0-5,0-10-.1-15.1l-4.75-.45V.9h28.2l.05,9.8H457L455.14,3Z"/><path class="cls-1" d="M492.94,28,492.79,38h-29V36.25l4.75-.45c.1-4.95.1-10,.1-15.1V18.25c0-5,0-10-.1-15.1l-4.75-.45V.9h28l0,9.8h-2.7L487.24,3H475.79c-.15,4.9-.15,9.9-.15,15.15h7.5l.75-5.45h2.35V25.3h-2.35l-.7-5.25h-7.55c0,5.65,0,10.8.15,15.9h12.45l1.95-8Z"/></g></g></svg>