<?xml version="1.0" encoding="utf-8"?>
<!-- Generator: Adobe Illustrator 24.1.1, SVG Export Plug-In . SVG Version: 6.00 Build 0)  -->
<svg version="1.1" id="レイヤー_1" xmlns="http://www.w3.org/2000/svg" xmlns:xlink="http://www.w3.org/1999/xlink" x="0px"
	 y="0px" viewBox="0 0 178.3 48" style="enable-background:new 0 0 178.3 48;" xml:space="preserve">
<style type="text/css">
	.st0{fill:#2CA1DB;}
	.st1{fill:#FFFFFF;}
	.st2{enable-background:new    ;}
</style>
<g>
	<rect class="st0" width="178.3" height="48"/>
</g>
<path class="st1" d="M150.1,21.7V20l6.4,3.7v0.7l-6.4,3.7v-1.8l4.1-2.2L150.1,21.7z"/>
<g class="st2">
	<path class="st1" d="M61.6,21.3c-1.3,0.4-2.6,0.8-3.7,1.2l-0.4-0.9c1-0.2,2.5-0.7,4-1.1L61.6,21.3z M62.7,28.8
		c-1.1,0.7-2.9,1.3-4.3,1.7c-0.2-0.2-0.5-0.6-0.8-0.8c1.4-0.3,3.2-0.8,4.2-1.4L62.7,28.8z M61.2,19.7c-0.7-0.4-2-0.9-3-1.2l0.5-0.7
		c1,0.3,2.3,0.7,3,1.1L61.2,19.7z M59.4,22.5h9.2v5.7h-9.2V22.5z M60.4,24.2h7.1v-1h-7.1V24.2z M60.4,25.8h7.1v-1h-7.1V25.8z
		 M60.4,27.5h7.1v-1h-7.1V27.5z M63.7,19.3c-0.4,0.4-0.8,0.9-1.3,1.2c-0.2-0.2-0.5-0.4-0.8-0.5c1.1-0.7,1.8-1.7,2.1-2.5l1,0.2
		c-0.1,0.3-0.3,0.6-0.5,0.9h4.9l0.2,0l0.7,0.2c-0.4,0.7-0.9,1.5-1.4,2l-0.9-0.3c0.3-0.3,0.6-0.7,0.9-1.1h-2.3c0.3,1.1,1.1,2.1,4,2.6
		c-0.2,0.2-0.4,0.6-0.5,0.9c-2.4-0.4-3.4-1.3-4-2.4c-0.6,1.1-1.6,1.7-3.6,2.1c-0.1-0.2-0.3-0.6-0.5-0.8c2.3-0.4,3.2-1.1,3.5-2.4
		H63.7z M65.9,28.4c1.5,0.5,3.2,1.1,4.3,1.6L69,30.5c-0.9-0.5-2.4-1.1-4-1.6L65.9,28.4z"/>
	<path class="st1" d="M77.5,23.4c0.4,0.4,1.8,2.3,2.1,2.8L79,27.1c-0.3-0.5-0.9-1.6-1.4-2.4v5.8h-1v-5.8c-0.5,1.5-1.2,3.1-2,4
		c-0.1-0.3-0.4-0.8-0.5-1c0.8-1,1.7-2.8,2.2-4.4h-2v-1h2.3v-4.7h1v4.7h2.3v1h-2.3V23.4z M75.2,21.7c-0.1-0.8-0.4-2.1-0.8-3.1
		l0.8-0.2c0.4,1,0.7,2.3,0.8,3.1L75.2,21.7z M79.9,18.6c-0.3,1.1-0.8,2.4-1.2,3.2L78,21.5c0.3-0.8,0.7-2.2,0.9-3.2L79.9,18.6z
		 M85.4,26.5v4h-1v-3.8L80,27.4l-0.2-1l4.6-0.8v-8.1h1v8l1.7-0.3l0.2,1L85.4,26.5z M82.5,24.5C82,24,81,23.2,80.2,22.8l0.5-0.7
		c0.8,0.4,1.9,1.1,2.4,1.6L82.5,24.5z M83.1,21c-0.5-0.5-1.4-1.3-2.2-1.8l0.5-0.7c0.8,0.5,1.8,1.2,2.2,1.7L83.1,21z"/>
	<path class="st1" d="M96.2,20.7h-5.3v-0.9h5.3V20.7z M95.7,29.6h-3.2v0.7h-0.9v-4.8h4.1V29.6z M95.7,22.6h-4.1v-0.8h4.1V22.6z
		 M91.6,23.6h4.1v0.9h-4.1V23.6z M95.7,18.8h-4V18h4V18.8z M92.5,26.4v2.4h2.3v-2.4H92.5z M103.9,21.8v0.8h-7.7v-0.8h3.3v-0.9h-2.6
		v-0.8h2.6v-0.9h-3v-0.8h3v-1h1v1h3.1v0.8h-3.1v0.9h2.9v0.8h-2.9v0.9H103.9z M103,29.4c0,0.5-0.1,0.8-0.5,0.9
		c-0.4,0.1-1,0.1-1.8,0.1c0-0.3-0.2-0.6-0.3-0.9c0.6,0,1.2,0,1.4,0c0.2,0,0.2-0.1,0.2-0.2v-1.5h-3.8v2.6h-1v-7h5.8V29.4z M98.2,24.3
		v1h3.8v-1H98.2z M102,27.1v-1h-3.8v1H102z"/>
	<path class="st1" d="M112.8,26.5c-1.5,0.9-3.2,1.9-4.5,2.6l-0.6-0.9c1.2-0.6,3-1.6,4.8-2.6L112.8,26.5z M119.7,22.1
		c-0.9,1-2.1,2.2-3,3c1.1,1.5,2.4,2.7,4,3.4c-0.3,0.2-0.6,0.6-0.8,0.9c-2.3-1.1-4.1-3.3-5.3-6V29c0,0.8-0.2,1.1-0.7,1.3
		c-0.5,0.2-1.3,0.2-2.6,0.2c-0.1-0.3-0.2-0.8-0.4-1.1c1,0,1.9,0,2.2,0c0.3,0,0.4-0.1,0.4-0.4v-8.1h-5.6v-1h5.6v-2.3h1.1v2.3h5.7v1
		h-5.7v0.2c0.4,1.1,0.9,2.2,1.5,3.2c0.9-0.8,2-1.9,2.6-2.8L119.7,22.1z M111.1,24.9c-0.4-0.8-1.4-1.9-2.3-2.6l0.8-0.5
		c0.9,0.8,1.9,1.8,2.3,2.6L111.1,24.9z M116.7,17.6c0.9,0.4,2,1.1,2.6,1.6l-0.7,0.7c-0.6-0.5-1.7-1.2-2.6-1.7L116.7,17.6z"/>
</g>
</svg>
