<svg xmlns="http://www.w3.org/2000/svg" viewBox="0 0 24.63 35.1"><defs><style>.cls-1{fill:#231815;stroke:#231815;stroke-miterlimit:10;}.cls-2{fill:none;}</style></defs><title>button_sp_close_menu</title><g id="レイヤー_2" data-name="レイヤー 2"><g id="レイヤー_1-2" data-name="レイヤー 1"><rect class="cls-1" x="-0.35" y="10" width="24" height="4" transform="translate(-5.07 11.75) rotate(-45)"/><rect class="cls-1" x="-0.35" y="10" width="24" height="4" transform="translate(11.9 -4.72) rotate(45)"/><path d="M.35,27.64H1.47l1.41,3.92c.17.51.34,1,.52,1.53h.05c.17-.51.33-1,.5-1.53l1.4-3.92H6.47V35H5.6V30.91c0-.63.07-1.52.12-2.16h0L5.1,30.42,3.71,34.23H3.09L1.7,30.42l-.58-1.67h0c0,.64.11,1.53.11,2.16V35H.35Z"/><path d="M8,32.26a2.63,2.63,0,0,1,2.45-2.86c1.38,0,2.16,1,2.16,2.55a3.55,3.55,0,0,1,0,.52H8.89a1.8,1.8,0,0,0,1.8,1.9,2.34,2.34,0,0,0,1.36-.43l.33.6a3.23,3.23,0,0,1-1.8.56A2.6,2.6,0,0,1,8,32.26Zm3.81-.44c0-1.1-.5-1.69-1.35-1.69a1.67,1.67,0,0,0-1.56,1.69Z"/><path d="M13.93,29.54h.75l.08.78h0a2.6,2.6,0,0,1,1.82-.92c1.14,0,1.66.74,1.66,2.13V35h-.91V31.65c0-1-.31-1.45-1-1.45a2.07,2.07,0,0,0-1.49.83V35h-.91Z"/><path d="M20,33V29.54h.91v3.33c0,1,.3,1.44,1,1.44.56,0,1-.27,1.47-.92V29.54h.91V35h-.76l-.07-.85h0a2.33,2.33,0,0,1-1.8,1C20.48,35.1,20,34.36,20,33Z"/><rect class="cls-2" width="24.63" height="35.1"/></g></g></svg>