<svg xmlns="http://www.w3.org/2000/svg" xmlns:xlink="http://www.w3.org/1999/xlink" viewBox="0 0 121 41"><defs><style>.cls-1{stroke:#fff;stroke-miterlimit:10;fill:url(#新規グラデーションスウォ_182);}.cls-2{fill:#fff;}</style><linearGradient id="新規グラデーションスウォ_182" x1="60.5" y1="43.02" x2="60.5" y2="-0.41" gradientUnits="userSpaceOnUse"><stop offset="0" stop-color="#9ecd73"/><stop offset="0.19" stop-color="#6db935"/><stop offset="0.5" stop-color="#5db530"/><stop offset="0.75" stop-color="#77bd41"/><stop offset="1" stop-color="#a9d285"/></linearGradient></defs><title>button_header_contact_li</title><g id="レイヤー_2" data-name="レイヤー 2"><g id="レイヤー_1-2" data-name="レイヤー 1"><rect class="cls-1" x="0.5" y="0.5" width="120" height="40" rx="4"/><path class="cls-2" d="M29.3,17c-.71.44-1.78,1.08-3.34,1.88a.58.58,0,0,1-.34.33l-.77-1.65c.78-.09,2.59-.38,4.42-.71Zm-4.11,9a12.38,12.38,0,0,0,4.29-2.26l1.65,1.09c-.11.14-.36.19-.75.1a14.42,14.42,0,0,1-5.14,1.24Zm.61-11.74c3.71,0,2.8,2.81,1.34,2a4.62,4.62,0,0,0-1.44-1.93ZM33.37,24v-.51H28.65v.35c0,.14-.65.48-1.27.48h-.24V18.23l1.6.63h4.5l.69-.75,1.44,1.1a.86.86,0,0,1-.47.23v4.2a2.41,2.41,0,0,1-1.27.38ZM33,15.64c.38,1.1,1.48,1.76,4,2.06v.17a1.1,1.1,0,0,0-1.05,1.18A3.77,3.77,0,0,1,32.8,16c-.55,1.56-2,2.31-4.35,2.67l0-.16c1.84-.63,2.73-1.45,3-2.83h-.87a6.34,6.34,0,0,1-2,1.2l-.1-.1a5.83,5.83,0,0,0,1.66-2.86l2,.44c0,.13-.14.19-.48.18a5.56,5.56,0,0,1-.64.77h3.8l.71-.73,1.26,1.21a.69.69,0,0,1-.5.15,8.8,8.8,0,0,1-1.88,1l-.13-.07c.17-.31.38-.78.54-1.17Zm-4.34,3.59v1h4.72v-1Zm4.72,1.41H28.65v1.05h4.72Zm0,2.51V22.07H28.65v1.08Zm-2,.91c7.29.09,4.68,2.78,3.3,1.78a9.11,9.11,0,0,0-3.34-1.61Z"/><path class="cls-2" d="M48.19,20.05c3.5.73,2.33,3.26,1.06,2.33a4.61,4.61,0,0,0-1.06-2.13V25.6c0,.16-.6.5-1.12.5H46.8V21.85a10.41,10.41,0,0,1-2.2,2.3L44.46,24a12.44,12.44,0,0,0,1.9-4.63H44.57l-.1-.37H46.8V13.92l1.87.18c0,.19-.12.32-.48.37V19h.43l.7-.94s.83.65,1.33,1.1c0,.15-.17.21-.36.21h-2.1Zm-3.46-5c2.84,1.56,1.46,3.8.42,2.7a7.74,7.74,0,0,0-.56-2.65Zm3.76,3c.17-.75.38-2,.53-3l1.73.52c0,.16-.21.27-.49.29A21.92,21.92,0,0,1,48.7,18.1Zm7.21,2.6s.81.53,1.33.91a.3.3,0,0,1-.29.27l-1.63.33v3.44c0,.16-.64.52-1.2.52h-.29V22.42l-3.39.69-.17-.34,3.56-.72V13.9l1.94.2c0,.18-.1.32-.45.37v7.28h0Zm-5.21-2.44c3.6.39,2.61,3,1.29,2.18a4.44,4.44,0,0,0-1.39-2.09Zm.25-3.11c3.51.6,2.39,3.15,1.1,2.22a4.87,4.87,0,0,0-1.21-2.14Z"/><path class="cls-2" d="M68.34,15.62s.75.61,1.21,1.05c0,.14-.16.2-.34.2H64.32l-.1-.37h3.44Zm-.5,1.71s.73.6,1.17,1c0,.14-.16.21-.33.21H65l-.11-.37h2.34Zm0,1.69s.73.6,1.17,1c0,.13-.16.2-.33.2H65l-.11-.37h2.34ZM68,21l1.32,1a.92.92,0,0,1-.5.25v3c0,.11-.65.39-1.11.39h-.23v-.78H66.18v.85c0,.13-.58.43-1.14.43h-.2v-5l1.39.57h1.12Zm-3-5.72-.1-.38h2.21l.67-.88s.77.61,1.23,1a.31.31,0,0,1-.33.21Zm2.5,9.23V22H66.18v2.45Zm7.78-7.2s.84.65,1.34,1.11c0,.15-.16.21-.35.21h-7l-.1-.37H72V17.09H70l-.1-.35H72V15.66H69.6l-.1-.37H72V14l2,.17c0,.18-.13.31-.48.35v.8h.81l.74-.95s.82.65,1.32,1.11a.31.31,0,0,1-.34.21H73.44v1.08h.68l.69-.89s.77.61,1.24,1a.32.32,0,0,1-.35.21H73.44v1.12h1.1Zm-.58,1.57,1.43,1.08a.93.93,0,0,1-.48.23v4.21c0,1-.21,1.58-1.8,1.73A2.38,2.38,0,0,0,73.59,25a1.32,1.32,0,0,0-.92-.48v-.19s1,.07,1.23.07.25-.08.25-.25V23.08H71.52v2.48c0,.15-.61.48-1.22.48h-.22V19l1.51.61H74Zm-3.15,1.1v1.19h2.63V19.93Zm2.63,2.79V21.49H71.52v1.23Z"/><path class="cls-2" d="M95.43,18.74c-.06.13-.19.18-.49.15a21.93,21.93,0,0,1-2.73,1.79,8.3,8.3,0,0,0,3.94,2.67l0,.15A1.84,1.84,0,0,0,94.81,25c-1.94-1.28-3.21-2.91-3.92-6.16v5.45c0,1.08-.24,1.69-2.08,1.84A1.79,1.79,0,0,0,88.45,25a2.23,2.23,0,0,0-1.29-.54v-.17s1.55.1,1.86.1.3-.08.3-.26V21.31a45,45,0,0,1-3.46,3,.53.53,0,0,1-.26.4l-1.19-1.64c.86-.34,2.84-1.22,4.91-2.22V17.09H84.38l-.1-.38h5V13.94l2,.21c0,.18-.13.3-.46.35v2.21h2.85l.85-1.08s1,.73,1.53,1.25c0,.14-.17.21-.36.21H90.89V18A8.13,8.13,0,0,0,92,20.39a19.88,19.88,0,0,0,1.61-2.82Zm-9.74-1c4,.91,2.7,3.88,1.23,2.76a5.72,5.72,0,0,0-1.34-2.68Zm5.85-3.34C95,14.33,94.09,17,92.7,16.23a3.87,3.87,0,0,0-1.26-1.73Z"/></g></g></svg>