<svg xmlns="http://www.w3.org/2000/svg" viewBox="0 0 187.5 60"><defs><style>.cls-1{isolation:isolate;}.cls-2{fill:#e50044;mix-blend-mode:multiply;}.cls-3{fill:#fff;}</style></defs><g class="cls-1"><g id="レイヤー_2" data-name="レイヤー 2"><g id="head"><rect class="cls-2" x="0.64" y="0.64" width="186.21" height="58.71"/><path class="cls-3" d="M186.21,1.29V58.71H1.29V1.29H186.21M187.5,0H0V60H187.5V0Z"/><path class="cls-3" d="M61.18,36.33a46.86,46.86,0,0,1,4.4,1.8L63.45,39a31.34,31.34,0,0,0-4-1.82l1.39-.8H56.32l1.4.61a19.12,19.12,0,0,1-4.81,2,17.35,17.35,0,0,0-1.36-1.35,18.07,18.07,0,0,0,4.25-1.29H53.53V30.06h3.22A4.69,4.69,0,0,0,56,29v.06l-3.92,1.13-.67-1.61c1.14-.21,2.79-.6,4.42-1L56,29c2.45-.4,3.27-1.06,3.61-2.16H58.53a8.55,8.55,0,0,1-1.24,1.24,4.69,4.69,0,0,0-1.37-.87,6.65,6.65,0,0,0,2.27-2.68l1.62.26c-.13.27-.25.51-.4.76H64l.27-.05,1.22.31A10.92,10.92,0,0,1,64,28.12l-1.42-.45a8.7,8.7,0,0,0,.6-.85H61.46c.34,1,1.2,1.84,4.32,2.21a5.11,5.11,0,0,0-.91,1.5c-.37-.06-.71-.13-1-.2v6Zm-5.83-9.09A20.43,20.43,0,0,0,52.12,26l.81-1.25a20.57,20.57,0,0,1,3.25,1.11Zm-.05,4.58H62v-.66H55.3Zm0,1.7H62v-.66H55.3Zm0,1.71H62v-.68H55.3ZM63,30.06a4.7,4.7,0,0,1-2.36-1.66,5,5,0,0,1-2.8,1.66Z"/><path class="cls-3" d="M80.06,35.46a20.19,20.19,0,0,0-1.11-2v5.41H77.26V33.43a15.76,15.76,0,0,1-1.78,3.79,10.63,10.63,0,0,0-.83-1.9,14.37,14.37,0,0,0,2-4H74.93V29.62h2.33V24.57H79v5.05h2.29v1.71H79v.11c.45.44,1.92,2.17,2.24,2.6Zm-4.45-6.14a15,15,0,0,0-.7-3.54l1.28-.34A15.63,15.63,0,0,1,77,29Zm5.9-3.62c-.4,1.23-.84,2.7-1.23,3.59L79.12,29A25.37,25.37,0,0,0,80,25.36Zm6,9V38.9H85.77V35.05l-4.3.77-.28-1.71,4.58-.82V24.5H87.5V33l1.57-.29.28,1.71Zm-5.28-5.6a13.68,13.68,0,0,1,2.6,1.77l-.93,1.47a12.83,12.83,0,0,0-2.53-1.91Zm2.24-.56a12.43,12.43,0,0,0-2.39-2L83,25.34a11.64,11.64,0,0,1,2.45,1.87Z"/><path class="cls-3" d="M104.13,28.51H98.27V27.06h5.86Zm-.49,9.59h-3.15v.6H99V33.44h4.69Zm0-7.5H99V29.2h4.62ZM99,31.31h4.62v1.38H99Zm4.58-4.93H99V25h4.54Zm-3.09,8.51v1.78h1.59V34.89Zm12.11-5.83v1.31h-8.47V29.06h3.35v-.62h-2.59V27.21h2.59v-.55h-3V25.34h3v-.83h1.74v.83h3.11v1.32h-3.11v.55h2.87v1.23h-2.87v.62Zm-.83,8.15c0,.77-.14,1.17-.66,1.4a5.44,5.44,0,0,1-2.22.26,5.82,5.82,0,0,0-.48-1.46c.57,0,1.2,0,1.4,0s.25-.06.25-.23V36.05h-3.2v2.84h-1.68V31h6.59Zm-4.91-5V33h3.2v-.7Zm3.2,2.61v-.72h-3.2v.72Z"/><path class="cls-3" d="M127.38,34.66c-1.52,1-3.24,2-4.58,2.81l-1.14-1.68c1.28-.63,3.27-1.75,5.11-2.81ZM135.3,30a36.66,36.66,0,0,1-3,3.06,11.06,11.06,0,0,0,4,3.14,8,8,0,0,0-1.35,1.64,12.8,12.8,0,0,1-5.08-5.34v4.14c0,1.08-.2,1.59-.85,1.88a7.2,7.2,0,0,1-3,.37,7,7,0,0,0-.63-1.93c.94,0,1.92,0,2.22,0s.4-.09.4-.37v-8h-5.81V26.84H128V24.53h1.87v2.31H133a21.92,21.92,0,0,0-2.13-1.25l1.06-1.16A18.57,18.57,0,0,1,134.77,26l-.71.8h1.72v1.77h-6v.16a15.71,15.71,0,0,0,1.44,2.94,19.38,19.38,0,0,0,2.42-2.8Zm-10.25,2.86a14.68,14.68,0,0,0-2.31-2.79l1.4-1a14.37,14.37,0,0,1,2.41,2.7Z"/></g></g></g></svg>