<svg xmlns="http://www.w3.org/2000/svg" xmlns:xlink="http://www.w3.org/1999/xlink" viewBox="0 0 121 41"><defs><style>.cls-1{fill:url(#新規グラデーションスウォ_29);}.cls-2{fill:none;stroke:#fff;stroke-miterlimit:10;}.cls-3{fill:#fff;}</style><linearGradient id="新規グラデーションスウォ_29" x1="60.5" y1="43.02" x2="60.5" y2="-0.41" gradientUnits="userSpaceOnUse"><stop offset="0" stop-color="#de1575"/><stop offset="1" stop-color="#e55f9e"/></linearGradient></defs><title>button_header_contents_tel_li</title><g id="レイヤー_2" data-name="レイヤー 2"><g id="レイヤー_1-2" data-name="レイヤー 1"><rect class="cls-1" x="0.5" y="0.5" width="120" height="40" rx="4"/><rect class="cls-2" x="0.5" y="0.5" width="120" height="40" rx="4"/><path class="cls-3" d="M31.81,20.3A9.17,9.17,0,0,0,37,23.68l0,.15a1.67,1.67,0,0,0-1.22,1.36,8.17,8.17,0,0,1-4.2-4.77v5.13c0,.17-.68.55-1.26.55H30V21.79a12.76,12.76,0,0,1-5.24,3.67l-.12-.16a12.51,12.51,0,0,0,4.47-5H25L24.84,20H30V16.48H25.52l-.11-.37H30V13.9l2,.2c0,.18-.13.31-.48.36v1.65h2.35l.89-1.1s1,.75,1.59,1.26c0,.14-.18.21-.36.21H31.59V20h2.77l.92-1.13s1,.75,1.63,1.27c0,.14-.17.21-.37.21ZM27,16.68c3.56,1.17,2.05,3.85.73,2.66a6.44,6.44,0,0,0-.85-2.6Zm5.26,2.92a22.77,22.77,0,0,0,1.12-3l2,.76c-.06.16-.25.26-.53.24a10.7,10.7,0,0,1-2.38,2.05Z"/><path class="cls-3" d="M49.06,20.6a43.1,43.1,0,0,1-3.54,2.83.5.5,0,0,1-.29.4l-.82-1.68,1.52-.52V17.85H44.69l-.1-.37h1.34V14.07l2,.18c0,.19-.12.32-.48.35v2.77l.58-1a13.56,13.56,0,0,1,1.13,1.26c0,.14-.15.2-.34.2H47.4v3.24c.52-.19,1.06-.41,1.61-.62Zm6.4-.41,1.32,1.11a.8.8,0,0,1-.53.22c-.2,2.46-.56,3.67-1.24,4.15a2.5,2.5,0,0,1-1.54.41,1.52,1.52,0,0,0-.22-.95,1.79,1.79,0,0,0-1-.46V24.5a10,10,0,0,1-2.57,1.6l-.1-.17a8.16,8.16,0,0,0,3.31-4.64h-.4A9.24,9.24,0,0,1,48,25.2L47.84,25a9.45,9.45,0,0,0,3.29-3.73H50.7a9.36,9.36,0,0,1-3.49,2.36l-.11-.17a8.35,8.35,0,0,0,2.82-3.57H48.27l-.11-.38h6.4l.81-1s.91.71,1.46,1.2c0,.14-.16.21-.36.21H51.65a7.22,7.22,0,0,1-.65,1h3.7ZM51,18.67c0,.13-.63.46-1.24.46h-.21V14.06l1.52.6h2.7l.71-.76L55.87,15a.78.78,0,0,1-.49.26v3.18a2,2,0,0,1-1.24.46h-.26v-.52H51ZM51,15v1.29h2.9V15Zm2.9,3V16.68H51V18Zm.56,3.29a7.51,7.51,0,0,1-2.14,3.19c.41,0,1.06.08,1.32.08a.75.75,0,0,0,.45-.1c.31-.26.57-1.31.74-3.17Z"/><path class="cls-3" d="M76.56,19.58a.74.74,0,0,1-.55.17,16.3,16.3,0,0,1-3.24,2.45l-.1-.09a18.69,18.69,0,0,0,1.51-2.71h-3v4.79c0,1-.3,1.78-2.24,1.91a1.61,1.61,0,0,0-.4-1.11A2.74,2.74,0,0,0,67,24.45v-.17s1.89.1,2.25.1.31-.08.31-.25V19.4H64.41L64.3,19h6.22a8.32,8.32,0,0,0-2.86-2.58l.07-.16a7.2,7.2,0,0,1,3,.72,15.15,15.15,0,0,0,1.86-1.65H66L65.86,15h7l.9-.82,1.43,1.37a.84.84,0,0,1-.56.14,20.86,20.86,0,0,1-3.47,1.53c.91.67.84,1.49.4,1.82h2.67l.89-.87Z"/><path class="cls-3" d="M96.3,17.07a.79.79,0,0,1-.58.26c-.14,4.74-.4,7.27-1.18,8.07a2.59,2.59,0,0,1-2,.68A1.43,1.43,0,0,0,92.23,25a3.26,3.26,0,0,0-1.5-.61v-.17c.7.05,1.73.13,2.09.13a.66.66,0,0,0,.52-.18c.51-.44.74-3.11.87-7.09H90.92a8.84,8.84,0,0,1-1.62,2.05c1,1.09.06,2.24-.81,1.5a4.56,4.56,0,0,0-.26-1l-.65.22v5.86a1.41,1.41,0,0,1-1.14.39h-.25V21.87l-.18,0A7.85,7.85,0,0,1,84.19,25l-.2-.1a14.1,14.1,0,0,0,.79-3.68l1.41.33V20.27l-1.37.41a.49.49,0,0,1-.37.28L84,19.52c.35,0,.92,0,1.63-.07a24.49,24.49,0,0,0,1.89-3.91l1.86.7c-.06.15-.23.25-.52.21a20.38,20.38,0,0,1-2.75,3l2-.11a7.66,7.66,0,0,0-.57-1.11l.13-.07a4,4,0,0,1,1.42.78,18.35,18.35,0,0,0,1.38-5l2,.61a.51.51,0,0,1-.51.28,14,14,0,0,1-.82,1.88h2.94l.83-.86ZM88,14.53c0,.17-.22.28-.51.26a9.53,9.53,0,0,1-1.65,1.75c1.28.86.45,2.2-.52,1.55a4.39,4.39,0,0,0-1.14-2l.12-.09a4,4,0,0,1,1.11.32,23,23,0,0,0,.65-2.43Zm-.22,6.54c3.06,1.28,1.7,3.61.57,2.54a6.47,6.47,0,0,0-.71-2.48Zm2.82-2.4c3.5,1.38,2.15,4,.87,2.9a6.81,6.81,0,0,0-1-2.83Z"/></g></g></svg>