<svg xmlns="http://www.w3.org/2000/svg" viewBox="0 0 187.5 60"><defs><style>.cls-1{isolation:isolate;}.cls-2{fill:#6fb92c;mix-blend-mode:multiply;}.cls-3{fill:#fff;}</style></defs><g class="cls-1"><g id="レイヤー_2" data-name="レイヤー 2"><g id="head"><rect class="cls-2" x="0.64" y="0.64" width="186.23" height="58.73"/><path class="cls-3" d="M186.23,1.27V58.73H1.27V1.27h185M187.5,0H0V60H187.5V0Z"/><path class="cls-3" d="M59.7,32.07a10.88,10.88,0,0,0,6.2,4l0,.19a2,2,0,0,0-1.45,1.6,9.65,9.65,0,0,1-5-5.66V38.3c0,.2-.81.65-1.5.65h-.36V33.84a15,15,0,0,1-6.21,4.35L51.23,38a14.9,14.9,0,0,0,5.3-5.94h-5l-.14-.42h6.15V27.53H52.23l-.12-.43h5.47V24.48l2.43.23c0,.22-.16.37-.57.43v2h2.79l1.05-1.31s1.17.9,1.89,1.5c0,.17-.21.24-.43.24h-5.3v4.12h3.28l1.1-1.34s1.18.9,1.92,1.51c0,.17-.2.25-.43.25Zm-5.77-4.29c4.23,1.39,2.43,4.57.86,3.15a7.61,7.61,0,0,0-1-3.09Zm6.25,3.46a27.64,27.64,0,0,0,1.32-3.51l2.32.92a.59.59,0,0,1-.64.27,13,13,0,0,1-2.82,2.44Z"/><path class="cls-3" d="M80.17,32.42A50.32,50.32,0,0,1,76,35.79a.64.64,0,0,1-.36.48l-1-2c.38-.12,1-.34,1.8-.62V29.17H75l-.13-.45h1.59v-4l2.32.22c0,.21-.14.37-.57.41V28.6l.69-1.17a16.7,16.7,0,0,1,1.34,1.49c0,.17-.18.25-.4.25H78.2V33l1.91-.74ZM87.76,32l1.57,1.31a1,1,0,0,1-.63.26c-.23,2.92-.66,4.35-1.46,4.92a3,3,0,0,1-1.84.49,1.79,1.79,0,0,0-.26-1.12A2.09,2.09,0,0,0,84,37.25v-.2A11.37,11.37,0,0,1,80.94,39l-.12-.2a9.67,9.67,0,0,0,3.93-5.51h-.47a11,11,0,0,1-5.39,4.65l-.17-.22a11.08,11.08,0,0,0,3.9-4.43h-.51A11,11,0,0,1,78,36.05l-.14-.2a9.9,9.9,0,0,0,3.35-4.24h-2l-.12-.45H86.7l1-1.22s1.08.83,1.75,1.42c-.05.17-.2.25-.44.25H83.24a8.69,8.69,0,0,1-.77,1.2h4.4Zm-5.31-1.81c0,.16-.75.54-1.48.54h-.24v-6l1.8.7h3.21l.83-.89,1.68,1.3a1,1,0,0,1-.58.3v3.77a2.33,2.33,0,0,1-1.47.55h-.31v-.61H82.45Zm0-4.33v1.52h3.44V25.81Zm3.44,3.53V27.78H82.45v1.56Zm.67,3.9A9,9,0,0,1,84,37c.5,0,1.27.09,1.58.09a.89.89,0,0,0,.52-.12c.37-.31.68-1.56.88-3.77Z"/><path class="cls-3" d="M112.8,31.22a.85.85,0,0,1-.65.2,19.43,19.43,0,0,1-3.84,2.9l-.12-.11A20.72,20.72,0,0,0,110,31H106.4v5.67c0,1.25-.35,2.12-2.65,2.27a1.9,1.9,0,0,0-.48-1.31,3.24,3.24,0,0,0-1.79-.65v-.2s2.24.12,2.67.12c.28,0,.37-.09.37-.29V31H98.39l-.14-.45h7.39a9.82,9.82,0,0,0-3.39-3.07l.08-.19a8.57,8.57,0,0,1,3.62.85,18.56,18.56,0,0,0,2.21-2h-7.92l-.13-.43h8.25l1.06-1,1.7,1.62a1,1,0,0,1-.66.17,26.59,26.59,0,0,1-4.12,1.82c1.08.79,1,1.76.48,2.16H110l1.06-1Z"/><path class="cls-3" d="M136.24,28.24a1,1,0,0,1-.7.31c-.17,5.62-.47,8.63-1.4,9.57a3.07,3.07,0,0,1-2.36.81,1.71,1.71,0,0,0-.37-1.29,3.92,3.92,0,0,0-1.79-.73v-.2c.83.06,2,.16,2.48.16a.77.77,0,0,0,.62-.22c.6-.52.88-3.69,1-8.41h-3.9a10.24,10.24,0,0,1-1.93,2.43c1.16,1.29.08,2.66-1,1.79a5.83,5.83,0,0,0-.31-1.21l-.77.26v7a1.7,1.7,0,0,1-1.36.46h-.29v-5a1.46,1.46,0,0,1-.22,0,9.18,9.18,0,0,1-2.16,3.65l-.23-.12a17,17,0,0,0,.94-4.37l1.67.41V32l-1.62.48a.6.6,0,0,1-.45.34l-.49-1.72c.41,0,1.09,0,1.92-.07a29.12,29.12,0,0,0,2.26-4.65l2.2.84c-.07.17-.28.29-.61.24A23.75,23.75,0,0,1,124.17,31l2.35-.13a9.54,9.54,0,0,0-.68-1.32l.15-.08a5,5,0,0,1,1.69.92,21.58,21.58,0,0,0,1.63-5.9l2.36.72a.58.58,0,0,1-.6.33,15.61,15.61,0,0,1-1,2.23h3.48l1-1Zm-9.83-3c-.06.2-.26.34-.6.31a11.17,11.17,0,0,1-2,2.08c1.51,1,.52,2.61-.62,1.84a5.33,5.33,0,0,0-1.35-2.38L122,27a5.29,5.29,0,0,1,1.33.39,27.39,27.39,0,0,0,.77-2.89ZM126.15,33c3.62,1.53,2,4.29.68,3a7.83,7.83,0,0,0-.85-2.94Zm3.35-2.84c4.15,1.64,2.54,4.8,1,3.44a8.15,8.15,0,0,0-1.19-3.36Z"/></g></g></g></svg>