<?xml version="1.0" encoding="utf-8"?>
<!-- Generator: Adobe Illustrator 24.0.1, SVG Export Plug-In . SVG Version: 6.00 Build 0)  -->
<svg version="1.1" id="レイヤー_1" xmlns="http://www.w3.org/2000/svg" xmlns:xlink="http://www.w3.org/1999/xlink" x="0px"
	 y="0px" viewBox="0 0 390 127.1" style="enable-background:new 0 0 390 127.1;" xml:space="preserve">
<style type="text/css">
	.st0{fill:#009FE8;}
	.st1{fill:#FFFFFF;}
</style>
<g>
	<g>
		<g>
			<rect x="0.9" y="1.8" class="st0" width="388.1" height="125.2"/>
			<path class="st1" d="M388.1,2.7V126H1.9V2.7H388.1 M390,0.9H0v127.1h390V0.9L390,0.9z"/>
		</g>
	</g>
	<g>
		<g>
			<path class="st1" d="M135,63.6c2.3,3.5,6.8,6,10.9,7.1l-0.1,0.3c-1.2,0.2-2.2,1.3-2.6,2.8c-4.1-2-7.1-5.3-8.8-10v10.8
				c0,0.4-1.4,1.1-2.6,1.1h-0.6v-9c-2.6,3.2-6.4,5.9-11,7.7l-0.2-0.3c4.1-2.6,7.5-6.6,9.4-10.5h-8.8l-0.2-0.7h10.9v-7.3h-9.4
				l-0.2-0.8h9.7v-4.6l4.3,0.4c-0.1,0.4-0.3,0.7-1,0.8v3.5h4.9l1.9-2.3c0,0,2.1,1.6,3.3,2.6c-0.1,0.3-0.4,0.4-0.8,0.4h-9.4v7.3h5.8
				l1.9-2.4c0,0,2.1,1.6,3.4,2.7c-0.1,0.3-0.4,0.4-0.8,0.4H135z M124.8,56c7.5,2.4,4.3,8.1,1.5,5.6c-0.1-1.9-1-3.9-1.8-5.4L124.8,56
				z M135.9,62.1c0.7-1.5,1.7-4,2.3-6.2l4.1,1.6c-0.1,0.3-0.5,0.5-1.1,0.5c-1.5,1.7-3.3,3.3-5,4.3L135.9,62.1z"/>
			<path class="st1" d="M171.1,64.2c-1.5,1.4-4,3.5-7.4,5.9c-0.1,0.4-0.3,0.7-0.6,0.8l-1.7-3.5c0.7-0.2,1.8-0.6,3.2-1.1v-7.9H162
				l-0.2-0.8h2.8v-7.1l4.1,0.4c-0.1,0.4-0.2,0.7-1,0.7v5.8l1.2-2.1c0,0,1.6,1.6,2.4,2.6c-0.1,0.3-0.3,0.4-0.7,0.4h-2.9v6.8
				c1.1-0.4,2.2-0.9,3.4-1.3L171.1,64.2z M184.5,63.3l2.8,2.3c-0.2,0.2-0.5,0.4-1.1,0.5c-0.4,5.1-1.2,7.7-2.6,8.7
				c-0.9,0.6-1.9,0.9-3.2,0.9c0-0.8-0.1-1.6-0.5-2c-0.4-0.4-1.1-0.8-2-1v-0.4c-1.5,1.3-3.3,2.4-5.4,3.3l-0.2-0.4
				c3.6-2.4,5.8-5.8,6.9-9.7h-0.8c-1.9,3.5-5.3,6.3-9.5,8.2l-0.3-0.4c3-2,5.4-4.8,6.9-7.8h-0.9c-1.8,2.1-4.3,3.7-7.3,5l-0.2-0.4
				c2.7-1.9,4.7-4.7,5.9-7.5h-3.5l-0.2-0.8h13.4l1.7-2.2c0,0,1.9,1.5,3.1,2.5c-0.1,0.3-0.4,0.4-0.8,0.4h-10.1
				c-0.4,0.7-0.8,1.4-1.4,2.1h7.8L184.5,63.3z M175.2,60.2c0,0.3-1.3,1-2.6,1h-0.4V50.5l3.2,1.3h5.7l1.5-1.6l3,2.3
				c-0.2,0.2-0.5,0.4-1,0.5v6.6c0,0.2-1.5,1-2.6,1h-0.5v-1.1h-6.1V60.2z M175.2,52.5v2.7h6.1v-2.7H175.2z M181.2,58.7V56h-6.1v2.7
				H181.2z M182.4,65.6c-0.9,2.6-2.4,4.8-4.5,6.7c0.9,0.1,2.2,0.2,2.8,0.2c0.4,0,0.7-0.1,0.9-0.2c0.7-0.5,1.2-2.7,1.6-6.6H182.4z"/>
			<path class="st1" d="M228.7,62.1c-0.2,0.2-0.5,0.3-1.1,0.4c-1.6,1.7-4.5,3.8-6.8,5.1l-0.2-0.2c1.1-1.5,2.4-3.9,3.2-5.7h-6.3v10
				c0,2.2-0.6,3.7-4.7,4c-0.1-1-0.3-1.8-0.8-2.3c-0.5-0.5-1.3-0.9-3.2-1.1v-0.4c0,0,3.9,0.2,4.7,0.2c0.5,0,0.7-0.2,0.7-0.5v-9.9
				h-10.8l-0.2-0.8h13c-0.8-1.4-3-3.7-6-5.4l0.1-0.3c3,0.2,5.1,0.8,6.4,1.5c1.4-1,2.9-2.4,3.9-3.5h-14l-0.2-0.8h14.6l1.9-1.7l3,2.9
				c-0.2,0.2-0.5,0.3-1.2,0.3c-1.8,1.1-4.8,2.3-7.3,3.2c1.9,1.4,1.8,3.1,0.8,3.8h5.6l1.9-1.8L228.7,62.1z"/>
			<path class="st1" d="M270.1,56.8c-0.2,0.3-0.6,0.5-1.2,0.5c-0.3,9.9-0.8,15.2-2.5,16.9c-1,1-2.2,1.4-4.2,1.4c0-1-0.2-1.9-0.7-2.3
				c-0.5-0.5-1.7-1-3.2-1.3v-0.4c1.5,0.1,3.6,0.3,4.4,0.3c0.5,0,0.8-0.1,1.1-0.4c1.1-0.9,1.6-6.5,1.8-14.8h-6.9
				c-1,1.7-2.1,3.1-3.4,4.3c2,2.3,0.1,4.7-1.7,3.2c-0.1-0.7-0.3-1.4-0.5-2.1l-1.4,0.5v12.3c0,0.2-0.9,0.8-2.4,0.8h-0.5v-8.8
				c-0.1,0-0.2,0.1-0.4,0.1c-0.9,2.6-2.2,4.9-3.8,6.5l-0.4-0.2c0.8-2,1.4-5,1.7-7.7l2.9,0.7v-2.6c-0.9,0.3-1.8,0.5-2.9,0.8
				c-0.2,0.4-0.5,0.6-0.8,0.6l-0.9-3c0.7,0,1.9-0.1,3.4-0.1c1.5-2.5,3.1-5.8,4-8.2l3.9,1.5c-0.1,0.3-0.5,0.5-1.1,0.4
				c-1.3,1.8-3.5,4.3-5.8,6.2c1.3-0.1,2.7-0.1,4.1-0.2c-0.4-0.9-0.8-1.7-1.2-2.3L252,59c1.3,0.5,2.3,1,3,1.6
				c1.3-2.7,2.4-6.6,2.9-10.4l4.2,1.3c-0.1,0.3-0.5,0.6-1.1,0.6c-0.5,1.4-1.1,2.7-1.7,3.9h6.2l1.7-1.8L270.1,56.8z M252.7,51.5
				c-0.1,0.4-0.5,0.6-1.1,0.5c-1,1.4-2.3,2.7-3.5,3.7c2.7,1.8,0.9,4.6-1.1,3.2c-0.3-1.5-1.4-3.2-2.4-4.2l0.2-0.2
				c1,0.2,1.7,0.4,2.3,0.7c0.5-1.5,1-3.3,1.4-5.1L252.7,51.5z M252.3,65.2c6.4,2.7,3.6,7.6,1.2,5.3c-0.1-1.7-0.8-3.8-1.5-5.2
				L252.3,65.2z M258.2,60.2c7.3,2.9,4.5,8.5,1.8,6.1c-0.1-2-1.1-4.3-2.1-5.9L258.2,60.2z"/>
		</g>
	</g>
</g>
</svg>
