<?xml version="1.0" encoding="utf-8"?>
<!-- Generator: Adobe Illustrator 24.0.1, SVG Export Plug-In . SVG Version: 6.00 Build 0)  -->
<svg version="1.1" id="レイヤー_1" xmlns="http://www.w3.org/2000/svg" xmlns:xlink="http://www.w3.org/1999/xlink" x="0px"
	 y="0px" viewBox="0 0 178.3 48" style="enable-background:new 0 0 178.3 48;" xml:space="preserve">
<style type="text/css">
	.st0{fill:#009FE8;}
	.st1{fill:#FFFFFF;}
</style>
<rect class="st0" width="178.3" height="48"/>
<g>
	<g>
		<g>
			<path class="st1" d="M49.2,24.2c1.5,2.3,4.5,4,7.3,4.7l0,0.2C55.6,29.3,55,30,54.7,31c-2.7-1.3-4.7-3.5-5.9-6.7v7.2
				c0,0.2-0.9,0.8-1.8,0.8h-0.4v-6c-1.8,2.2-4.3,3.9-7.3,5.1l-0.2-0.2c2.8-1.7,5-4.4,6.2-7h-5.8l-0.2-0.5h7.2v-4.8h-6.3l-0.1-0.5
				h6.4v-3.1l2.8,0.3c0,0.3-0.2,0.4-0.7,0.5v2.3h3.3l1.2-1.5c0,0,1.4,1.1,2.2,1.8c0,0.2-0.3,0.3-0.5,0.3h-6.2v4.8h3.9l1.3-1.6
				c0,0,1.4,1.1,2.3,1.8c-0.1,0.2-0.2,0.3-0.5,0.3H49.2z M42.4,19.2c5,1.6,2.9,5.4,1,3.7c-0.1-1.3-0.6-2.6-1.2-3.6L42.4,19.2z
				 M49.7,23.2c0.5-1,1.1-2.6,1.6-4.1l2.7,1.1c-0.1,0.2-0.3,0.4-0.7,0.3c-1,1.1-2.2,2.2-3.3,2.9L49.7,23.2z"/>
			<path class="st1" d="M73.2,24.6c-1,0.9-2.6,2.3-4.9,4c0,0.3-0.2,0.5-0.4,0.6l-1.1-2.4c0.5-0.1,1.2-0.4,2.1-0.7v-5.3h-1.7L67,20.3
				h1.9v-4.7l2.7,0.3c0,0.3-0.2,0.4-0.7,0.5v3.9l0.8-1.4c0,0,1.1,1.1,1.6,1.8c-0.1,0.2-0.2,0.3-0.5,0.3h-1.9v4.5
				c0.7-0.3,1.5-0.6,2.2-0.9L73.2,24.6z M82.1,24l1.8,1.5c-0.1,0.2-0.4,0.3-0.7,0.3c-0.3,3.4-0.8,5.1-1.7,5.8
				c-0.6,0.4-1.3,0.6-2.2,0.6c0-0.6-0.1-1.1-0.3-1.3c-0.2-0.3-0.7-0.5-1.3-0.7V30c-1,0.9-2.2,1.6-3.6,2.2L74,32
				c2.4-1.6,3.9-3.9,4.6-6.5H78c-1.3,2.4-3.5,4.2-6.3,5.5l-0.2-0.3c2-1.3,3.6-3.2,4.6-5.2h-0.6c-1.2,1.4-2.9,2.5-4.9,3.3l-0.2-0.2
				c1.8-1.3,3.1-3.1,3.9-5h-2.3L72,23.1h8.9l1.1-1.4c0,0,1.3,1,2,1.7c-0.1,0.2-0.2,0.3-0.5,0.3h-6.7c-0.3,0.5-0.6,1-0.9,1.4h5.2
				L82.1,24z M75.9,21.9c0,0.2-0.9,0.6-1.7,0.6h-0.3v-7.1l2.1,0.8h3.8l1-1.1l2,1.5c-0.1,0.1-0.3,0.3-0.7,0.4v4.4
				c0,0.2-1,0.7-1.7,0.7H80v-0.7h-4V21.9z M75.9,16.8v1.8h4v-1.8H75.9z M80,21v-1.8h-4V21H80z M80.7,25.6c-0.6,1.7-1.6,3.2-3,4.5
				c0.6,0.1,1.5,0.1,1.8,0.1c0.3,0,0.4,0,0.6-0.1c0.4-0.4,0.8-1.8,1-4.4H80.7z"/>
			<path class="st1" d="M111.6,23.2c-0.2,0.2-0.4,0.2-0.8,0.2c-1.1,1.1-3,2.6-4.5,3.4l-0.1-0.1c0.7-1,1.6-2.6,2.1-3.8H104v6.7
				c0,1.5-0.4,2.5-3.1,2.7c-0.1-0.7-0.2-1.2-0.6-1.5s-0.9-0.6-2.1-0.8v-0.2c0,0,2.6,0.1,3.1,0.1c0.3,0,0.4-0.1,0.4-0.3v-6.6h-7.2
				l-0.2-0.5h8.7c-0.5-0.9-2-2.5-4-3.6l0.1-0.2c2,0.1,3.4,0.5,4.3,1c0.9-0.7,1.9-1.6,2.6-2.3h-9.3l-0.2-0.5h9.7l1.3-1.1l2,1.9
				c-0.2,0.1-0.4,0.2-0.8,0.2c-1.2,0.7-3.2,1.6-4.8,2.1c1.3,0.9,1.2,2.1,0.6,2.5h3.7l1.3-1.2L111.6,23.2z"/>
			<path class="st1" d="M139.1,19.7c-0.1,0.2-0.4,0.3-0.8,0.4c-0.2,6.6-0.6,10.1-1.7,11.2c-0.7,0.7-1.5,1-2.8,1
				c0-0.7-0.1-1.2-0.4-1.5c-0.4-0.4-1.2-0.7-2.1-0.9v-0.2c1,0.1,2.4,0.2,2.9,0.2c0.3,0,0.5-0.1,0.7-0.3c0.7-0.6,1-4.3,1.2-9.9h-4.6
				c-0.7,1.1-1.4,2.1-2.3,2.8c1.4,1.5,0.1,3.1-1.1,2.1c-0.1-0.5-0.2-0.9-0.4-1.4l-0.9,0.3v8.2c0,0.1-0.6,0.5-1.6,0.5H125v-5.9
				c-0.1,0-0.2,0-0.3,0c-0.6,1.7-1.5,3.3-2.5,4.3l-0.3-0.1c0.5-1.3,0.9-3.3,1.1-5.1l2,0.5v-1.8c-0.6,0.2-1.2,0.4-1.9,0.6
				c-0.1,0.2-0.3,0.4-0.5,0.4l-0.6-2c0.5,0,1.3,0,2.3-0.1c1-1.7,2-3.8,2.6-5.5l2.6,1c-0.1,0.2-0.3,0.3-0.7,0.3
				c-0.9,1.2-2.4,2.8-3.8,4.2c0.8,0,1.8-0.1,2.8-0.1c-0.2-0.6-0.5-1.1-0.8-1.6l0.2-0.1c0.9,0.3,1.5,0.7,2,1.1
				c0.9-1.8,1.6-4.4,1.9-6.9l2.8,0.9c-0.1,0.2-0.3,0.4-0.7,0.4c-0.3,0.9-0.7,1.8-1.1,2.6h4.1l1.2-1.2L139.1,19.7z M127.6,16.1
				c-0.1,0.2-0.3,0.4-0.7,0.4c-0.7,0.9-1.5,1.8-2.3,2.4c1.8,1.2,0.6,3.1-0.7,2.2c-0.2-1-0.9-2.1-1.6-2.8l0.2-0.1
				c0.6,0.1,1.1,0.3,1.6,0.5c0.3-1,0.7-2.2,0.9-3.4L127.6,16.1z M127.2,25.3c4.3,1.8,2.4,5,0.8,3.6c0-1.1-0.5-2.5-1-3.5L127.2,25.3z
				 M131.2,21.9c4.9,1.9,3,5.6,1.2,4c-0.1-1.3-0.8-2.9-1.4-4L131.2,21.9z"/>
		</g>
	</g>
</g>
</svg>
