<svg xmlns="http://www.w3.org/2000/svg" xmlns:xlink="http://www.w3.org/1999/xlink" viewBox="0 0 184.09 59.98"><defs><style>.cls-1{fill:url(#シルバー3);}.cls-2{fill:url(#シルバー3-2);}.cls-3{stroke:#411720;stroke-miterlimit:10;stroke-width:1.11px;fill:url(#シルバー3-3);}.cls-4{fill:#411720;}</style><linearGradient id="シルバー3" x1="197.75" y1="55.04" x2="-6.12" y2="6.72" gradientUnits="userSpaceOnUse"><stop offset="0" stop-color="#fff"/><stop offset="0.5" stop-color="#b3b3b3"/><stop offset="1" stop-color="#fff"/></linearGradient><linearGradient id="シルバー3-2" x1="92.05" y1="59.79" x2="92.05" y2="-19.45" gradientTransform="translate(62.06 122.03) rotate(-90)" xlink:href="#シルバー3"/><linearGradient id="シルバー3-3" x1="5.15" y1="-5.39" x2="178.94" y2="65.37" gradientTransform="translate(62.06 122.03) rotate(-90)" xlink:href="#シルバー3"/></defs><title>btn_print</title><g id="レイヤー_2" data-name="レイヤー 2"><g id="レイヤー_1-2" data-name="レイヤー 1"><rect class="cls-1" width="184.09" height="59.98"/><rect class="cls-2" x="63.11" y="-61.01" width="57.88" height="181.99" transform="translate(122.03 -62.06) rotate(90)"/><rect class="cls-3" x="64.16" y="-59.96" width="55.78" height="179.89" transform="translate(122.03 -62.06) rotate(90)"/><path class="cls-4" d="M64,24.87c-.12.12-.28.14-.55.05a16.58,16.58,0,0,1-3.29.73v2.84h1.51l.77-1s.89.72,1.42,1.22c0,.14-.17.21-.36.21H60.12v3.54h1.49l.81-1.12s.93.76,1.49,1.28c0,.14-.18.2-.38.2H60.12V34c0,.11-.41.43-1.27.43h-.2v-10l1.6.64c.75-.46,1.63-1.06,2.36-1.62Zm5.91.3a1,1,0,0,1-.52.26v6.62c0,1-.21,1.58-1.9,1.74a1.9,1.9,0,0,0-.27-1.06,1.67,1.67,0,0,0-1.05-.49v-.16s1.19.06,1.46.06.26-.08.26-.24V25.18H65.58v9.67c0,.12-.45.48-1.21.48H64.1V24l1.66.79h2l.68-.8Z"/><path class="cls-4" d="M79.33,26.76v.87c0,2.17,0,5.17-1.89,7.2l-.17-.09A22.2,22.2,0,0,0,78,27.63v-4l1.53.57h3.31l.63-.68,1.34,1a1,1,0,0,1-.49.25V27a2,2,0,0,1-1.13.37H83v-.6Zm0-2.16v1.8H83V24.6Zm4.39,3.58,1.31,1a1,1,0,0,1-.54.25v3.2c0,.92-.15,1.45-1.32,1.58a2.79,2.79,0,0,0-.12-1,.7.7,0,0,0-.51-.4v-.19l.56,0c.15,0,.18-.07.18-.19V29.21h-.79v5.71c0,.13-.53.38-1,.38h-.23V29.21h-.73V33.9c0,.09-.39.37-1,.37h-.21v-6l1.36.53h.57V27.27l1.68.17c0,.18-.13.31-.47.35v1.05h.67ZM86.59,32c0,.13-.58.4-1.1.4h-.25v-8l1.82.18c0,.18-.13.31-.47.36Zm2.82-8.35c0,.19-.15.31-.47.36v9.61c0,1-.21,1.55-1.8,1.69a1.92,1.92,0,0,0-.28-1,1.87,1.87,0,0,0-1.08-.47v-.18s1.26.09,1.51.09.27-.08.27-.25v-10Z"/><path class="cls-4" d="M101.53,24.33a2.13,2.13,0,0,1,1.16-.46c.73,0,1.65.33,1.65.76s-.21.61-.25.92a3.72,3.72,0,0,0,0,.55c2.37-.27,2.62-.43,2.83-.43.68,0,1.54.37,1.54,1s-.26.5-.64.5A15.21,15.21,0,0,0,104,27c0,.63,0,1.35,0,2a2.63,2.63,0,0,1,.54,1.76c0,2.65-2.17,4-5,4.43l-.11-.25a5.37,5.37,0,0,0,3.38-2.59c-1.28.36-2.23-.71-2.23-2a1.88,1.88,0,0,1,1.85-2,2.89,2.89,0,0,1,.53.05c0-.33,0-.79-.07-1.27a20.86,20.86,0,0,0-3,.61c-.6.18-.87.45-1.32.45A1.9,1.9,0,0,1,97.2,27a2.87,2.87,0,0,1-.08-.92l.2-.08c.46.53.65.74,1.1.74s3-.28,4.43-.46c0-.44-.07-.85-.11-1.1a.44.44,0,0,0-.31-.4,4,4,0,0,0-.87-.22Zm1.57,5.81c0-.63-.25-1.15-.79-1.15a1.07,1.07,0,0,0-1,1.19,1,1,0,0,0,1,1.08C102.88,31.26,103.1,30.88,103.1,30.14Z"/><path class="cls-4" d="M118.24,24.47c.21.41.54.79.87.79a13.86,13.86,0,0,0,2.5-.54c.51-.17.51-.36.78-.36.6,0,1.61.81,1.61,1.36,0,.36-.45.46-.87.76a24.05,24.05,0,0,0-2.92,2.42c-.14.15-.06.24.07.2a6.16,6.16,0,0,1,2.14-.44,2.94,2.94,0,0,1,3.18,3c0,1.72-1.54,3.11-4.19,3.11-1.5,0-2.62-.66-2.62-1.78a1.53,1.53,0,0,1,1.72-1.4,2.23,2.23,0,0,1,2.23,1.75,2.26,2.26,0,0,0,1.52-2.15,2,2,0,0,0-2.22-2c-1.76,0-3,1.28-4.09,2.7-.31.4-.43.51-.75.5s-.57-.35-.55-.84a1.74,1.74,0,0,1,.66-1c1.26-1.23,4-3.77,4.63-4.69.21-.28.09-.37-.12-.33a6.69,6.69,0,0,0-1.76.8,1.48,1.48,0,0,1-.73.34A1.62,1.62,0,0,1,118,25.32a2.82,2.82,0,0,1,.11-.84Zm3.31,9.15c-.15-.86-.67-1.41-1.37-1.41-.49,0-.81.24-.81.64s.59.79,1.58.79Z"/></g></g></svg>