<svg xmlns="http://www.w3.org/2000/svg" xmlns:xlink="http://www.w3.org/1999/xlink" viewBox="0 0 184.09 59.98"><defs><style>.cls-1{fill:url(#シルバー3);}.cls-2{fill:url(#シルバー3-2);}.cls-3{stroke:#411720;stroke-miterlimit:10;stroke-width:1.11px;fill:url(#シルバー3-3);}.cls-4{fill:#411720;}</style><linearGradient id="シルバー3" x1="197.75" y1="55.04" x2="-6.12" y2="6.72" gradientUnits="userSpaceOnUse"><stop offset="0" stop-color="#fff"/><stop offset="0.5" stop-color="#b3b3b3"/><stop offset="1" stop-color="#fff"/></linearGradient><linearGradient id="シルバー3-2" x1="92.05" y1="59.79" x2="92.05" y2="-19.45" gradientTransform="translate(62.06 122.03) rotate(-90)" xlink:href="#シルバー3"/><linearGradient id="シルバー3-3" x1="5.15" y1="-5.39" x2="178.94" y2="65.37" gradientTransform="translate(62.06 122.03) rotate(-90)" xlink:href="#シルバー3"/></defs><title>btn_close</title><g id="レイヤー_2" data-name="レイヤー 2"><g id="レイヤー_1-2" data-name="レイヤー 1"><rect class="cls-1" width="184.09" height="59.98"/><rect class="cls-2" x="63.11" y="-61.01" width="57.88" height="181.99" transform="translate(122.03 -62.06) rotate(90)"/><rect class="cls-3" x="64.16" y="-59.96" width="55.78" height="179.89" transform="translate(122.03 -62.06) rotate(90)"/><path class="cls-4" d="M70.1,27.81v7c0,.2-.56.57-1.23.57h-.24V23.6l1.52.65h1.76l.63-.69,1.33,1a.76.76,0,0,1-.46.25v3.35a2.18,2.18,0,0,1-1.14.35H72v-.71Zm0-3.18v1.22H72V24.63ZM72,27.45V26.19H70.1v1.26Zm3.35,5.64c0,.91-.21,1.63-1.66,1.76a2,2,0,0,0-.2-1,1.24,1.24,0,0,0-1-.48v-.16s1,.06,1.29.06.23-.06.23-.2l0-1.74a9.26,9.26,0,0,1-3.47,2.35l-.1-.18a8.18,8.18,0,0,0,2.76-3.22H70.78l-.11-.37H74l0-1.4,1.8.15c0,.18-.14.31-.46.36v.89h.34L76.3,29s.71.62,1.12,1.05a.31.31,0,0,1-.34.21H75.35Zm4.42-8.49a.87.87,0,0,1-.53.26v8.7c0,1-.2,1.61-1.84,1.75a2.12,2.12,0,0,0-.24-1.06,1.45,1.45,0,0,0-1-.49v-.19s1.09.09,1.34.09.25-.1.25-.27V27.81h-2V28c0,.13-.62.45-1.21.45H74.4V23.67l1.45.58h1.83l.68-.79Zm-4,0v1.22h2V24.63Zm2,2.82V26.19h-2v1.26Z"/><path class="cls-4" d="M88.69,24.6v-.21a3,3,0,0,1,1-.24c.88,0,2.1,1,2.1,1.49,0,.36-.35.57-.49,1.22a22.65,22.65,0,0,0-.56,4.47c0,1.47.4,2,1.92,2a6.81,6.81,0,0,0,5-2.57l.23.17a5.88,5.88,0,0,1-5.4,3.89c-1.79,0-2.9-.94-2.9-3.34,0-1.84.27-4.45.27-5.41,0-.63-.06-.86-.3-1.07A2.35,2.35,0,0,0,88.69,24.6Zm5.69,3.3a6.67,6.67,0,0,0-1.28-1.5l.14-.18a4.43,4.43,0,0,1,1.84.94,1,1,0,0,1,.41.78.46.46,0,0,1-.49.48C94.78,28.42,94.6,28.24,94.38,27.9Zm1.31-1.22a5.28,5.28,0,0,0-1.33-1.37l.12-.18a3.86,3.86,0,0,1,1.82.77,1.08,1.08,0,0,1,.5.86.43.43,0,0,1-.45.46C96.09,27.22,95.94,27,95.69,26.68Z"/><path class="cls-4" d="M108.17,24.47c.22.41.54.79.87.79a13.94,13.94,0,0,0,2.51-.54c.5-.17.5-.36.77-.36.6,0,1.62.81,1.62,1.36,0,.36-.45.46-.88.76a24.69,24.69,0,0,0-2.91,2.42c-.14.15-.07.24.06.2a6.28,6.28,0,0,1,2.15-.44,2.94,2.94,0,0,1,3.17,3c0,1.72-1.54,3.11-4.19,3.11-1.5,0-2.62-.66-2.62-1.78a1.53,1.53,0,0,1,1.72-1.4,2.24,2.24,0,0,1,2.24,1.75,2.28,2.28,0,0,0,1.52-2.15,2,2,0,0,0-2.23-2c-1.76,0-3,1.28-4.08,2.7-.31.4-.44.51-.76.5s-.57-.35-.54-.84a1.67,1.67,0,0,1,.65-1c1.26-1.23,4-3.77,4.63-4.69.22-.28.09-.37-.12-.33a6.83,6.83,0,0,0-1.76.8,1.48,1.48,0,0,1-.73.34,1.6,1.6,0,0,1-1.37-1.32,2.51,2.51,0,0,1,.1-.84Zm3.31,9.15c-.15-.86-.66-1.41-1.37-1.41-.49,0-.81.24-.81.64s.59.79,1.58.79Z"/></g></g></svg>