<?xml version="1.0" encoding="utf-8"?>
<!-- Generator: Adobe Illustrator 23.0.6, SVG Export Plug-In . SVG Version: 6.00 Build 0)  -->
<svg version="1.1" id="レイヤー_1" xmlns="http://www.w3.org/2000/svg" xmlns:xlink="http://www.w3.org/1999/xlink" x="0px"
	 y="0px" viewBox="0 0 350 150" style="enable-background:new 0 0 350 150;" xml:space="preserve">
<style type="text/css">
	.st0{fill:#FFFFFF;}
	.st1{fill:#2F2725;}
	.st2{fill:#8F0019;}
	.st3{fill:#00437C;}
	.st4{fill:#1E1100;}
	.st5{fill:#1F1E1D;}
</style>
<g>
	<title>thumbs_title_plank_d</title>
	<g>
		<g id="レイヤー_1-2">
			<rect y="0" class="st0" width="350" height="150"/>
		</g>
	</g>
	<path class="st1" d="M7.9,135.8c0.1,0.1,0.2,0.2,0.2,0.3s-0.2,0.3-0.5,0.5c0,0.6,0,1.1,0,2.3c0,2.7,0.1,6,0.1,7.4
		c0,0.4,0,0.9,0,1.2c0,0.7-0.2,1.2-1,1.2c-0.5,0-0.7-0.2-0.7-0.6c0-0.1,0.2-3.6,0.2-4.3s0-2.5,0.1-6.1c-0.8,1.2-1.8,2.2-3,3.1
		l-0.1-0.1c1.8-2.6,3.2-5.4,4.3-8.3c0.1-0.4,0.1-0.7,0.2-1.1l1.7,1c0.1,0.1,0.3,0.2,0.3,0.3c0,0.3-0.4,0.4-0.8,0.6
		c-0.3,0.6-0.6,1.2-1.3,2.5L7.9,135.8z M14.7,136v4.8h2.1l0.6-0.9c0.1-0.1,0.2-0.2,0.3-0.2c0.1,0,0.2,0.1,0.3,0.2l1.2,0.9
		c0.1,0.1,0.2,0.2,0.2,0.3c0,0.2-0.2,0.2-0.3,0.2h-4.5v5.7h3.2l0.8-1c0.1-0.1,0.2-0.2,0.3-0.2s0.2,0.1,0.3,0.2l1.1,1
		c0.1,0.1,0.2,0.2,0.2,0.3s-0.2,0.2-0.3,0.2h-9.6c-0.7,0-1.5,0.1-2.2,0.2l-0.4-0.7c0.9,0.1,2,0.1,2.9,0.1h2.3v-5.7h-1.3
		c-0.7,0-1.5,0.1-2.2,0.2l-0.4-0.8c0.9,0.1,2,0.1,2.9,0.1h1V136h-2.1c-0.7,0-1.5,0.1-2.2,0.2l-0.4-0.8c1.5,0.1,2.7,0.1,2.9,0.1h5.8
		l0.7-0.9c0.1-0.2,0.2-0.3,0.3-0.3c0.1,0,0.2,0.1,0.3,0.2l1.2,0.9c0.1,0.1,0.2,0.2,0.2,0.3c0,0.2-0.2,0.2-0.3,0.2L14.7,136z
		 M12.3,131.4c0.8,0.4,2.8,1.3,2.8,2.8c0,0.4-0.2,0.9-0.8,0.9s-0.8-0.5-0.9-1.1c-0.3-0.9-0.7-1.7-1.2-2.5L12.3,131.4z"/>
	<path class="st1" d="M39.1,137.7c0,0.8,0.1,4.4,0.1,5c0,0.2-0.1,0.5-0.2,0.6c-0.2,0.2-0.5,0.3-0.9,0.3c-0.3,0-0.5-0.3-0.5-0.6
		c0,0,0,0,0,0c0-0.1,0-0.5,0-0.6h-8.9c-0.3,2.7-2,5.1-4.4,6.2l-0.1-0.1c2.3-2.2,3.3-4.4,3.3-9.3c0-1.2-0.1-2.4-0.3-3.6l2,0.9h8.2
		L38,136c0.1-0.1,0.2-0.2,0.3-0.2c0.1,0,0.2,0.1,0.3,0.1l1,0.7c0.1,0.1,0.2,0.2,0.2,0.3C39.8,137.2,39.5,137.4,39.1,137.7z
		 M41.2,133.9H27.6c-0.7,0-1.5,0-2.2,0.2l-0.4-0.8c1.3,0.1,2.7,0.1,2.9,0.1h10.7l0.9-1c0.1-0.1,0.2-0.2,0.3-0.2
		c0.1,0,0.3,0.1,0.3,0.2l1.3,1c0.1,0.1,0.2,0.2,0.2,0.3C41.5,133.9,41.4,133.9,41.2,133.9L41.2,133.9z M37.7,137.1h-8.7
		c0.1,1.7,0,3.3-0.1,5h8.9L37.7,137.1z"/>
	<path class="st1" d="M61.8,144h-4.4c0,0.4,0,2.2,0,2.6c0,1.4-1.1,2-2.2,2.1c-0.3-0.9-0.9-1.5-1.8-1.9v-0.1c1.3,0.1,1.8,0.1,2,0.1
		c0.5,0,0.6-0.2,0.6-0.6c0-0.2,0-2,0-2.3h-8.2c-0.7,0-1.5,0.1-2.2,0.2l-0.4-0.7c1.2,0.1,2.5,0.1,2.9,0.1h8c0-0.6-0.1-1.3-0.3-1.9
		l1.8,0.5c0.2,0,0.3,0.2,0.3,0.3s-0.2,0.4-0.5,0.5c0,0.3,0,0.4,0,0.6h2.3l0.6-0.7c0.2-0.2,0.2-0.2,0.3-0.2c0.2,0,0.3,0.1,0.4,0.2
		l0.9,0.7c0.1,0.1,0.2,0.2,0.2,0.3S62,144,61.8,144z M61.1,134.1h-6.5v1.7h3.6l0.5-0.5c0.2-0.2,0.2-0.2,0.3-0.2s0.2,0.1,0.4,0.2
		l0.7,0.6c0.1,0.1,0.2,0.2,0.2,0.3s-0.1,0.3-0.7,0.5c-0.1,1.2,0.1,3.2,0.1,4.4c0,0.5-0.3,0.9-0.8,0.9c0,0,0,0-0.1,0
		c-0.6,0-0.5-0.5-0.5-0.8h-8.6c0,0.3,0.1,1-0.9,1c-0.6,0-0.6-0.4-0.6-0.6s0-0.6,0-0.7c0.1-0.8,0.1-2.5,0.1-3.3c0-0.9,0-1.8-0.2-2.7
		l1.6,0.8h3.6c0-0.4,0-0.8,0-1.7H49c-0.7,0-1.5,0-2.2,0.2l-0.4-0.8c1.3,0.1,2.6,0.1,2.9,0.1h3.9c0.1-0.8-0.1-1.6-0.4-2.4l1.7,0.5
		c0.3,0.1,0.5,0.2,0.5,0.4s-0.2,0.4-0.5,0.6v1h4.3l0.7-0.8c0.2-0.1,0.2-0.2,0.3-0.2s0.2,0,0.4,0.2l1,0.8c0.1,0.1,0.2,0.2,0.2,0.3
		C61.3,134,61.2,134.1,61.1,134.1L61.1,134.1z M53.3,136.2h-3.6v2h3.7L53.3,136.2z M49.6,138.7v2h3.6v-2H49.6z M51.7,147.4
		c-0.6,0-0.6-0.1-1.1-1.5c-0.2-0.6-0.5-1.1-0.9-1.6l0.1-0.1c1.1,0.4,2.8,1,2.8,2.4C52.5,147,52.2,147.3,51.7,147.4L51.7,147.4z
		 M58.2,136.2h-3.7v2h3.7V136.2z M58.2,138.7h-3.7v2h3.7L58.2,138.7z"/>
	<path class="st1" d="M78.3,138.2l0.6-0.8c0.1-0.1,0.1-0.2,0.2-0.2s0.2,0,0.4,0.2l0.9,0.8c0,0.1,0.2,0.1,0.2,0.3s-0.4,0.5-0.8,0.6
		c-0.1,2.1,0.1,5.4,0.1,7.5c0,0.7,0,1.7-2.1,2c-0.1-0.7-0.2-1.2-1.7-1.9v-0.1c0.6,0.1,1.2,0.1,1.8,0.1c0.5,0,0.6-0.1,0.6-0.6
		c0-0.3,0-1.7,0-2h-5.7c0,1,0,1.9,0,2.9s0,1.5-1,1.5c-0.3,0-0.5-0.1-0.5-0.4c0,0,0-0.1,0-0.1c0-0.2,0.1-1.7,0.1-2
		c0-1.5,0.1-2.4,0.1-6.4c-1.4,1.9-3.2,3.5-5.3,4.7l-0.1-0.1c2.7-2.5,4.9-5.5,6.5-8.8h-3.3c-0.7,0-1.5,0.1-2.2,0.2l-0.4-0.7
		c1.3,0.1,2.6,0.1,2.9,0.1h3.3c1-2.4,1-2.8,1-3.7l2.1,0.9c0.1,0.1,0.2,0.2,0.2,0.3c0,0.2-0.3,0.3-0.9,0.5c-0.2,0.4-0.3,0.8-0.9,1.9
		h5.9l0.8-1c0.1-0.1,0.2-0.2,0.3-0.2s0.2,0.1,0.3,0.2l1.3,1c0.1,0.1,0.2,0.2,0.2,0.3c0,0.2-0.2,0.2-0.3,0.2h-8.8
		c-0.5,0.9-1,1.8-1.5,2.7l0.3,0.2L78.3,138.2z M72.8,138.7v2.2h5.7v-2.2H72.8z M72.8,141.4v2.3h5.7v-2.3H72.8z"/>
	<path class="st1" d="M93.8,136.3c0.5-1,0.8-2.1,1.1-3.1H90c-0.7,0-1.5,0.1-2.2,0.2l-0.4-0.8c1,0.1,1.9,0.1,2.9,0.1h11.2l0.8-0.8
		c0.1-0.1,0.2-0.2,0.3-0.3c0.1,0,0.2,0.1,0.4,0.2l1.1,0.8c0.1,0.1,0.2,0.2,0.2,0.3s-0.2,0.2-0.3,0.2h-7.3c-0.7,1.1-1.6,2.2-2.4,3.1
		h6.9l0.5-0.6c0.2-0.2,0.2-0.2,0.4-0.2c0.1,0,0.2,0.1,0.3,0.2l0.9,0.7c0.1,0.1,0.1,0.1,0.2,0.2c0,0.2-0.1,0.2-0.8,0.6
		c0,2.1,0,4.8,0,7c0,0.9,0.1,2.3,0.1,3.1c0,0.5-0.3,0.9-0.8,0.9c0,0-0.1,0-0.1,0c-0.6,0-0.6-0.3-0.5-1.4H90.6c0,0.1,0,0.5,0,0.6
		c0,0.5-0.4,0.9-0.9,0.9c0,0,0,0-0.1,0c-0.6,0-0.6-0.4-0.6-0.6s0.1-1,0.1-1.1c0-2.1,0.1-6.4,0.1-8.2c0-1-0.1-2.1-0.3-3.1l1.9,0.9
		L93.8,136.3z M90.6,136.8v9.7h2.5v-9.7H90.6z M97.2,139.6v-2.9h-2.9v2.9H97.2z M97.2,142.9v-2.9h-2.9v2.9H97.2z M97.2,146.4v-3.1
		h-2.9v3.1H97.2z M101.3,146.4v-9.7h-2.8v9.7H101.3z"/>
	<path class="st1" d="M107.6,144.4c1.6-2.2,2.7-4.6,3.5-7.2h-0.4c-0.7,0-1.5,0.1-2.2,0.2l-0.4-0.8c1.1,0.1,2.2,0.1,3.2,0.1
		c0-0.9,0-2.2,0-3.1c-1,0.2-2,0.3-3.1,0.3v-0.1c1.8-0.5,3.5-1.3,5.1-2.1c0.2-0.1,0.3-0.3,0.4-0.4l1.3,1.1c0.1,0.1,0.1,0.2,0.1,0.3
		c0,0.2-0.2,0.2-0.4,0.2h-0.6c-0.6,0.2-1.2,0.4-1.8,0.6c0,0.9,0,2.6,0,3.3h0.4l0.4-0.7c0.1-0.1,0.2-0.2,0.3-0.2s0.3,0.1,0.4,0.2
		l0.8,0.7c0.1,0.1,0.2,0.2,0.2,0.3c0,0.2-0.2,0.2-0.3,0.2h-2.2c0,0.4,0,1.2,0,1.7c1.8,0.7,2.5,1.8,2.5,2.4c0,0.4-0.3,0.7-0.7,0.8
		c0,0,0,0,0,0c-0.4,0-0.5-0.2-0.9-1.2c-0.1-0.6-0.4-1.2-0.9-1.6c0,3.3,0,3.7,0.1,5.1c0,1.3,0.1,2.8,0.1,3.4c0,0.3,0,1.1-0.9,1.1
		c-0.5,0-0.6-0.3-0.6-0.6c0-0.6,0.2-3.4,0.2-3.9c0-1.9,0-2.6,0-4.2c-0.8,1.8-2,3.4-3.6,4.6L107.6,144.4z M113.7,148.4
		c1.3-0.6,3.4-1.9,3.9-2.7l1.4,1c0.1,0.1,0.2,0.2,0.2,0.3c0,0.3-0.4,0.2-0.9,0.2c-1.4,0.7-2.9,1.1-4.5,1.3L113.7,148.4z
		 M122.1,133.4l0.5-0.8c0.1-0.1,0.2-0.3,0.3-0.3s0.2,0.1,0.4,0.2l0.9,0.8c0.1,0.1,0.2,0.2,0.2,0.3c0,0.2-0.2,0.2-0.3,0.2h-4v1.5h1.5
		l0.4-0.7c0.1-0.1,0.2-0.2,0.3-0.2s0.2,0.1,0.3,0.2l0.8,0.7c0.1,0.1,0.2,0.2,0.2,0.3s-0.2,0.2-0.3,0.2H120v1.7h3.1l0.6-0.8
		c0.1-0.1,0.2-0.2,0.3-0.2s0.2,0.1,0.3,0.2l0.8,0.8c0.1,0.1,0.2,0.2,0.2,0.3s-0.2,0.2-0.3,0.2h-7.8c-0.7,0-1.5,0-2.2,0.2l-0.4-0.8
		c1,0.1,1.9,0.1,2.9,0.1h1.2v-1.7h-0.4c-0.8,0-1.5,0.1-2.3,0.2l-0.4-0.8c0.6,0,1.4,0.1,3,0.1c0-0.7,0-1.2,0-1.5h-1.2
		c-0.7,0-1.5,0-2.2,0.2l-0.4-0.8c1.4,0.1,2.6,0.1,2.9,0.1h0.9c0-0.7-0.1-1.4-0.3-2l1.9,0.6c0.1,0,0.3,0.1,0.3,0.3
		c0,0.2-0.4,0.5-0.5,0.5v0.7L122.1,133.4z M121.6,139.3l0.4-0.5c0.1-0.1,0.2-0.2,0.3-0.2s0.2,0.1,0.3,0.2l0.7,0.6
		c0.1,0.1,0.2,0.2,0.2,0.3c0,0.2-0.2,0.3-0.6,0.5c0,0.2,0,0.5,0,0.7c0,0.6,0.2,3.4,0.2,4c0.1,0.4-0.2,0.8-0.7,0.9
		c-0.1,0-0.1,0-0.2,0c-0.5,0-0.5-0.2-0.5-0.6h-4.5c0,0.4,0.1,0.9-0.8,0.9c-0.3,0-0.5-0.1-0.5-0.4c0,0,0-0.2,0-0.4c0-0.7,0-2.7,0-3.6
		c0.1-1,0-2-0.2-3l1.5,0.7L121.6,139.3z M117.3,139.7v1.3h4.5v-1.3L117.3,139.7z M117.3,141.5v1.4h4.5v-1.4H117.3z M117.3,143.3v1.4
		h4.5v-1.4H117.3z M120.5,145.9c1.7,0.1,4.1,1,4.1,2.1c0,0.4-0.3,0.7-0.8,0.7c-0.4,0-0.9-0.5-1.2-0.8c-0.6-0.7-1.3-1.4-2.2-1.9
		V145.9z"/>
	<path class="st2" d="M152.9,127.5v1.4c-4.3,6.6-5.8,10.3-6.1,16.4c-0.1,0.7-0.1,2.4-1.5,2.4c-0.8,0-1.4-0.7-1.4-1.5c0,0,0,0,0,0
		c0-1.9,1.9-7.6,7.6-16.6h-4.6c-3.9,0-4.5,1.8-5.1,3.5L141,133l1.1-5.5L152.9,127.5z"/>
	<path class="st2" d="M163.4,147.7c-1.9-0.1-3.5-1.2-4.4-2.9c-1.1-1.9-1.6-5.2-1.6-7.7c0-5.7,2.4-10.1,6.1-10.1
		c2.8,0,6.1,3,6.1,10.3C169.4,143.9,166.6,147.7,163.4,147.7z M160.4,131.5c-0.4,1.9-0.7,3.9-0.6,5.9c0,6,1.4,9.4,3.6,9.4
		c1.9,0,2.7-2.5,3-3.5c0.4-1.9,0.7-3.9,0.6-5.9c0-6.1-1.5-9.4-3.6-9.4C161.4,127.9,160.6,130.5,160.4,131.5L160.4,131.5z"/>
	<path class="st2" d="M177.1,146.1c0,0.9-0.7,1.6-1.6,1.6c-0.9,0-1.6-0.7-1.6-1.6c0-0.9,0.7-1.6,1.6-1.6c0,0,0,0,0,0
		C176.4,144.6,177.1,145.3,177.1,146.1z"/>
	<path class="st2" d="M187.7,147.7c-1.9-0.1-3.5-1.2-4.4-2.9c-1.1-1.9-1.6-5.2-1.6-7.7c0-5.7,2.4-10.1,6.1-10.1
		c2.8,0,6.1,3,6.1,10.3C193.8,143.9,191,147.7,187.7,147.7z M184.7,131.5c-0.4,1.9-0.6,3.9-0.6,5.9c0,6,1.4,9.4,3.6,9.4
		c1.9,0,2.7-2.5,3-3.5c0.5-1.9,0.7-3.9,0.6-5.9c0-6.1-1.5-9.4-3.6-9.4C185.8,127.9,185,130.5,184.7,131.5L184.7,131.5z"/>
	<path class="st2" d="M203,135.3c0.7-0.4,1.5-0.7,2.4-0.7c2.7,0,4.8,2.7,4.8,6c0,3.8-2.7,7.1-5.8,7.1s-6.2-3.5-6.2-9.3
		c0-6.2,3.5-11.4,7.6-11.4c1.8,0,3.1,1.1,3.1,2.4c0,0.7-0.5,1.4-1.3,1.4c0,0-0.1,0-0.1,0c-0.5,0-1.4-0.4-1.5-1.9c0-0.6-0.1-1-0.8-1
		c-0.8,0-1.5,0.4-2,1c-2.4,2.6-2.5,6.6-2.6,9C201.2,136.9,202,136,203,135.3z M202.1,145.3c0.4,0.8,1.3,1.4,2.2,1.4
		c1.4,0,3.4-1.5,3.4-5.9c0-1.2-0.3-5-3.1-5c-1,0-2.7,0.8-4,3.7C200.8,141,201,143.6,202.1,145.3L202.1,145.3z"/>
	<path class="st1" d="M217.4,137.9v1.5c0.8-0.9,1.9-1.5,3.1-1.5c1.1-0.1,2.1,0.6,2.3,1.7c0.8-1,2.1-1.6,3.4-1.7c1.7,0,2.4,1,2.4,3.1
		v4.4c0,0.7,0.4,1.1,0.9,1.1h0.3v0.6h-3.9v-0.6h0.4c0.7,0,1-0.5,1-1.1v-4.3c0-0.5-0.1-2.4-1.6-2.4c-1.1,0.1-2.1,0.7-2.7,1.6
		c0,0.2,0,0.4,0,0.6v4.4c0,0.8,0.4,1.1,0.9,1.1h0.6v0.6h-4.3v-0.6h0.6c0.5,0,1-0.4,1-1.1v-4.3c0-0.4-0.1-2.4-1.6-2.4
		c-1,0.1-2,0.6-2.5,1.5v5.2c0,0.8,0.4,1.1,0.9,1.1h0.3v0.6h-3.9v-0.6h0.3c0.6,0,0.9-0.4,0.9-1.1v-5.7c0.1-0.4-0.2-0.8-0.7-0.9
		c0,0-0.1,0-0.1,0c-0.2,0-0.4,0-0.6,0.1l-0.1-0.4L217.4,137.9z M227.2,136.8c0.3-0.4,0.7-0.8,1.1-1.2c0.4-0.4,1.1-1.2,1.1-1.8
		c0-0.2-0.1-0.7-0.6-0.7c-0.3,0-0.6,0.2-0.6,0.5c0,0.1,0.2,0.4,0.2,0.5c0,0.3-0.3,0.5-0.5,0.5c-0.3,0-0.6-0.3-0.6-0.6c0,0,0,0,0,0
		c0.1-0.8,0.8-1.4,1.7-1.4c0.7-0.1,1.3,0.5,1.4,1.2c0,0,0,0.1,0,0.1c0,0.5-0.2,0.9-0.6,1.2c-0.2,0.2-1.4,1.1-1.6,1.4h1.2
		c0.5,0,0.6-0.4,0.7-0.6l0.3,0.1l-0.4,1.3h-2.7V136.8z"/>
	<path class="st3" d="M0,57.1v-1.6h2.2c2.4,0,4.1-0.8,5.1-2.3c0.6-0.9,0.9-3,0.9-6.2V10.1c0-3.6-0.4-5.8-1.2-6.7
		C5.8,2.1,4,1.4,2.2,1.6H0V0h23.2c8.5,0,15,1,19.5,2.9c4.5,2,8.3,5.4,10.7,9.7c2.8,4.7,4.2,10.2,4.1,15.7c0,7.9-2.4,14.6-7.2,19.9
		c-5.4,6-13.7,8.9-24.8,8.9L0,57.1z M16.3,52.9c3,0.7,6,1.1,9,1.2c6.1,0.2,12-2.3,16.2-6.9c4.3-4.6,6.4-10.8,6.4-18.6
		c0-7.8-2.2-14-6.5-18.7c-4.3-4.5-9.8-6.8-16.5-6.8c-2.9,0.1-5.8,0.5-8.6,1.2V52.9z"/>
	<path class="st4" d="M77.7,42.1l0.2,3.8h-0.4c-0.1-0.5-0.2-1-0.4-1.4c-0.2-0.4-0.6-0.8-1-1c-0.5-0.2-1-0.3-1.6-0.3h-2.2v12.2
		c-0.1,0.6,0,1.3,0.3,1.8c0.4,0.4,0.9,0.5,1.4,0.5h0.6v0.4h-6.8v-0.4h0.6c0.6,0.1,1.1-0.2,1.4-0.6c0.2-0.5,0.3-1.1,0.3-1.7V43.1H68
		c-0.5,0-1.1,0-1.6,0.2c-0.4,0.2-0.8,0.5-1.1,0.9c-0.3,0.5-0.5,1.1-0.5,1.7h-0.4l0.2-3.8L77.7,42.1z"/>
	<path class="st4" d="M91.4,42.1H97v0.4h-0.3c-0.3,0-0.6,0.1-0.9,0.3c-0.4,0.2-0.8,0.5-1.1,0.8c-0.5,0.5-0.9,1.1-1.2,1.7l-3.9,6.1v4
		c-0.1,0.6,0,1.3,0.3,1.9c0.4,0.4,0.9,0.5,1.4,0.5H92v0.4h-6.8v-0.4h0.6c0.6,0.1,1.1-0.2,1.4-0.6c0.2-0.5,0.3-1.1,0.3-1.7v-3.8
		L83,44.9c-0.3-0.5-0.6-1-1-1.5c-0.3-0.3-0.7-0.5-1.2-0.7c-0.2-0.1-0.4-0.1-0.7-0.1v-0.4H87v0.4h-0.3c-0.3,0-0.7,0.1-1,0.3
		c-0.3,0.1-0.5,0.5-0.5,0.8c0.1,0.6,0.4,1.1,0.7,1.5l3.3,5.2l3.2-5c0.4-0.5,0.6-1,0.7-1.7c0-0.2-0.1-0.4-0.2-0.6
		c-0.1-0.2-0.3-0.3-0.5-0.4c-0.3-0.1-0.7-0.2-1-0.2L91.4,42.1z"/>
	<path class="st4" d="M103.8,50.6v4.7c-0.1,0.6,0,1.3,0.3,1.9c0.4,0.4,0.9,0.6,1.4,0.5h0.6v0.4h-6.9v-0.4h0.6
		c0.6,0.1,1.1-0.2,1.4-0.7c0.2-0.6,0.3-1.1,0.2-1.7V45c0.1-0.6,0-1.3-0.3-1.9c-0.4-0.4-0.9-0.6-1.4-0.5h-0.6v-0.4h5.9
		c1.1,0,2.3,0.1,3.4,0.5c0.8,0.3,1.6,0.8,2.1,1.5c0.6,0.7,0.9,1.6,0.8,2.5c0,1.2-0.4,2.4-1.3,3.2c-1,0.9-2.3,1.3-3.7,1.2
		c-0.4,0-0.8,0-1.2-0.1C104.8,50.8,104.3,50.8,103.8,50.6z M103.8,50c0.4,0.1,0.8,0.1,1.1,0.2c0.3,0,0.5,0.1,0.8,0.1
		c0.8,0,1.6-0.4,2.1-1c0.6-0.7,0.9-1.6,0.9-2.5c0-0.7-0.1-1.3-0.4-1.9c-0.3-0.6-0.7-1-1.2-1.3c-0.5-0.3-1.2-0.4-1.8-0.4
		c-0.5,0-1,0.1-1.6,0.2V50z"/>
	<path class="st4" d="M118.9,43v6.3h3.5c0.6,0.1,1.3-0.1,1.8-0.4c0.5-0.5,0.7-1.2,0.7-1.9h0.4v5.6h-0.4c0-0.5-0.2-1-0.3-1.5
		c-0.2-0.3-0.4-0.5-0.7-0.7c-0.5-0.2-1-0.3-1.5-0.2h-3.5v5.3c0,0.4,0,0.9,0.1,1.3c0.1,0.2,0.2,0.3,0.3,0.4c0.3,0.1,0.6,0.2,0.9,0.1
		h2.7c0.7,0,1.3,0,2-0.2c0.4-0.2,0.9-0.4,1.2-0.8c0.6-0.7,1.1-1.4,1.5-2.2h0.5l-1.4,4h-12.4v-0.4h0.6c0.4,0,0.7-0.1,1.1-0.3
		c0.2-0.1,0.4-0.3,0.5-0.6c0.1-0.5,0.2-1,0.1-1.5V44.9c0.1-0.6,0-1.3-0.3-1.9c-0.4-0.3-0.9-0.5-1.4-0.5h-0.6v-0.4h12.4l0.2,3.5h-0.5
		c-0.1-0.6-0.3-1.2-0.6-1.7c-0.2-0.3-0.5-0.6-0.9-0.7c-0.5-0.1-1.1-0.2-1.7-0.2L118.9,43z"/>
	<path class="st4" d="M141.8,37.8c-3.2,2.8-4.9,6.9-4.8,11.2c-0.1,4.2,1.7,8.3,4.8,11.2v0.1h-1.5c-3-3-4.7-7-4.6-11.3
		c-0.1-4.2,1.6-8.3,4.6-11.3L141.8,37.8L141.8,37.8z"/>
	<path class="st4" d="M154.5,41.8v0.4c-0.9,0.1-1.7,0.3-2.6,0.6c-0.7,0.4-1.4,0.8-1.9,1.4c-0.6,0.6-1.2,1.3-1.6,2.1
		c-0.5,0.9-0.8,1.8-1.1,2.8c1-0.7,2.2-1.2,3.4-1.2c1.1,0,2.1,0.5,2.9,1.3c0.8,0.9,1.2,2.2,1.2,3.4c0,1.3-0.4,2.6-1.2,3.7
		c-0.9,1.3-2.3,2-3.9,2c-1,0-2-0.4-2.8-1.1c-1.5-1.4-2.3-3.4-2.2-5.5c0-1.4,0.3-2.8,0.9-4.1c0.6-1.3,1.4-2.4,2.5-3.4
		c0.9-0.9,1.9-1.5,3.1-2c0.9-0.3,1.8-0.5,2.7-0.5L154.5,41.8z M147.1,50.1c-0.1,0.9-0.2,1.7-0.2,2.6c0,0.8,0.2,1.7,0.4,2.5
		c0.2,0.8,0.7,1.5,1.2,2.1c0.4,0.4,0.9,0.6,1.5,0.5c0.7,0,1.4-0.4,1.8-1c0.6-0.8,0.9-1.8,0.8-2.8c0-1.2-0.2-2.4-0.8-3.5
		c-0.4-0.9-1.3-1.5-2.3-1.5c-0.3,0-0.7,0.1-1,0.2C148.1,49.5,147.6,49.7,147.1,50.1z"/>
	<path class="st4" d="M165.8,49c0,1.4-1.1,2.5-2.5,2.5c-1.4,0-2.5-1.1-2.5-2.5s1.1-2.5,2.5-2.5c0,0,0,0,0,0
		C164.6,46.5,165.8,47.6,165.8,49z"/>
	<path class="st4" d="M173.2,42.1h8.6v0.5l-5.4,15.9h-1.3l4.8-14.5h-4.4c-0.6,0-1.3,0.1-1.9,0.3c-0.7,0.4-1.3,1-1.6,1.7l-0.3-0.1
		L173.2,42.1z"/>
	<path class="st4" d="M189.3,43v6.3h2.9c0.5,0,1.1-0.1,1.5-0.5c0.4-0.5,0.6-1.1,0.6-1.8h0.4v5.4h-0.4c0-0.5-0.1-0.9-0.2-1.4
		c-0.1-0.3-0.4-0.5-0.6-0.7c-0.4-0.2-0.8-0.2-1.2-0.2h-2.9v5c0,0.5,0,1.1,0.1,1.6c0.1,0.2,0.3,0.4,0.5,0.5c0.3,0.2,0.7,0.3,1.1,0.3
		h0.6v0.4h-6.9v-0.4h0.6c0.5,0,1.1-0.2,1.4-0.6c0.3-0.6,0.4-1.2,0.3-1.8V45c0-0.5,0-1.1-0.2-1.6c-0.1-0.2-0.3-0.4-0.5-0.5
		c-0.3-0.2-0.7-0.3-1.1-0.3h-0.6v-0.4h11.9l0.2,3.5h-0.4c-0.1-0.6-0.4-1.1-0.7-1.7c-0.3-0.3-0.6-0.6-1-0.8c-0.6-0.2-1.2-0.3-1.9-0.2
		L189.3,43z"/>
	<path class="st4" d="M199.6,60.1c3.1-2.8,4.9-6.9,4.8-11.1c0.1-4.2-1.7-8.3-4.8-11.1v-0.1h1.4c3,2.9,4.7,7,4.6,11.3
		c0.1,4.2-1.6,8.3-4.6,11.3h-1.4V60.1z"/>
	<path class="st1" d="M24.4,100.4c2.4,2,3.8,5,3.7,8.1c0,6.7-5.5,11.5-12.7,11.5c-5.9,0-10.9-3.3-10.9-7.7c-0.2-1.7,1.1-3.3,2.8-3.5
		c0.1,0,0.2,0,0.3,0c1.5,0,2.7,1.2,2.7,2.7c0,0,0,0,0,0c0,0.6-0.1,1.2-0.3,1.8c-0.1,0.4-0.2,0.8-0.2,1.2c0,2.1,2.3,3.6,4.9,3.6
		c4.2,0,8.5-4.1,8.5-9.7s-4.1-10-8.5-10c-0.3,0-1.9,0.2-2.2,0.2c-0.6,0.1-1.1-0.4-1.2-1c0-0.1,0-0.1,0-0.2c0-0.7,0.5-1.2,1.2-1.2
		c0,0,0,0,0,0c0.3,0,2,0.3,2.3,0.3c4.6,0,7.5-4.1,7.5-8.5S19.9,80,15.5,80c-2.9,0-4.4,2.1-4.4,3.7c0,0.3,0.1,0.6,0.2,0.8
		c0.1,0.4,0.2,0.9,0.2,1.3c0.1,1.6-1.2,2.9-2.8,3c0,0,0,0,0,0c-1.6-0.1-2.8-1.4-2.7-2.9c0,0,0-0.1,0-0.1c0-3,3.5-7.6,10.5-7.6
		c6.7,0,10.9,4.4,10.9,9.2c-0.1,2-0.8,4-2,5.6c-1.7,2.3-4.2,3.9-6.9,4.6C20.6,98,22.7,99,24.4,100.4z"/>
	<path class="st1" d="M48.7,90h-1.5c-1.5-0.2-2.8,0.8-3,2.3c0,0.2,0,0.4,0,0.6v21.9c-0.1,1.5,1,2.8,2.4,2.9c0.2,0,0.4,0,0.6,0h1.1
		c4.7,0,9.1-2.6,11.3-6.9l1.1,0.5l-3,7.7H36.6v-1.3H38c1.5,0.2,2.8-0.9,3-2.4c0-0.2,0-0.3,0-0.5V92.9c0.1-1.5-1-2.8-2.4-2.9
		c-0.2,0-0.4,0-0.6,0h-1.4v-1.3h12.1V90z"/>
	<path class="st1" d="M67.4,88.6h11.9c9.7,0,15.7,5,15.7,14.9c0,7.1-3.7,15.4-15.4,15.4H67.4v-1.3h1.4c1.5,0.2,2.8-0.9,3-2.4
		c0-0.2,0-0.3,0-0.5V92.9c0.1-1.5-1-2.8-2.5-2.9c-0.2,0-0.3,0-0.5,0h-1.4V88.6z M75.1,114.8c-0.1,1.5,1,2.8,2.4,2.9
		c0.2,0,0.3,0,0.5,0h2c7.5,0,11.3-6.7,11.3-14.4C91.4,98,89.2,90,80.2,90h-2.2c-1.5-0.2-2.8,0.9-2.9,2.4c0,0.2,0,0.3,0,0.5V114.8z"
		/>
	<path class="st1" d="M117,100.3l9.2,14.7c1.1,1.6,2.9,2.6,4.9,2.6h0.6v1.4h-11.8v-1.3h1c0.8,0.1,1.6-0.5,1.7-1.4c0,0,0,0,0,0
		c0-0.6-0.2-1.2-0.6-1.7l-7.3-11.8l-3.9,4.3v7.7c-0.1,1.5,1,2.8,2.5,2.9c0.2,0,0.3,0,0.5,0h1.2v1.3h-11.6v-1.3h1.2
		c1.5,0.2,2.8-0.8,3-2.3c0-0.2,0-0.4,0-0.6V92.9c0.1-1.5-1-2.8-2.4-2.9c-0.2,0-0.4,0-0.6,0h-1.2v-1.4h11.6V90h-1.2
		c-1.5-0.2-2.8,0.9-3,2.4c0,0.2,0,0.3,0,0.5v12.2L122,92.8c0.3-0.4,0.5-0.8,0.5-1.3c0-1.2-1.3-1.4-2.2-1.4h-1.1v-1.4H131V90h-0.8
		c-2.6-0.1-5,1-6.7,3L117,100.3z"/>
	<path class="st1" d="M138.4,108.6h4.5v-4.5h0.9v4.5h4.5v0.9h-4.5v4.4h-0.9v-4.4h-4.5V108.6z"/>
	<path class="st1" d="M159.3,100.9h-0.6c-1.1,0-1.5,0.4-1.5,1.2c0,0.4,0.1,0.9,0.2,1.3l3.1,11.8l3.6-12c-0.5-1.6-0.9-2.3-2.3-2.3
		h-0.6V100h7v0.9h-0.9c-0.6-0.1-1.2,0.3-1.3,1c0,0.1,0,0.2,0,0.3c0,0.5,0.1,1,0.3,1.5l3.2,11.4l3-11.9c0.1-0.3,0.1-0.7,0.2-1
		c0-0.9-0.9-1.3-1.6-1.3h-0.8V100h6.1v0.9h-0.5c-1.5,0-2.1,0.8-2.4,2.2l-4.1,16.4h-0.6l-4.2-14.8l-4.5,14.9h-0.6l-4.2-16.5
		c-0.5-1.8-1.2-2.1-2.1-2.1h-0.6V100h6.9V100.9z"/>
	<path class="st1" d="M188.9,100.9h-1.2c-0.9-0.1-1.7,0.6-1.8,1.5c0,0.1,0,0.2,0,0.3v13.7c-0.1,0.9,0.6,1.7,1.5,1.8
		c0.1,0,0.2,0,0.3,0h1.2v0.8h-8.2v-0.8h1.2c0.9,0.1,1.8-0.6,1.9-1.5c0-0.1,0-0.2,0-0.3v-13.7c0.1-0.9-0.6-1.7-1.5-1.8
		c-0.1,0-0.2,0-0.3,0h-1.2V100h8.2V100.9z"/>
	<path class="st1" d="M207.9,104.7c-1-1.5-2.8-4.3-6.3-4.3c-4.1,0-6.2,4.2-6.2,8.8c0,5,2.4,9.1,6.8,9.1c3.7,0,5.5-3.4,6.2-4.7
		l0.7,0.4c-1,2-2.8,5.5-7.7,5.5c-5.5,0-8.2-4.4-8.2-9.6c0-6.1,3.8-10.4,8.2-10.4c0.7,0,1.5,0.1,2.2,0.3c0.2,0,1.4,0.4,1.6,0.4
		c0.6-0.1,1.2-0.3,1.7-0.6l1.8,4.7L207.9,104.7z"/>
	<path class="st1" d="M213.9,108.6h4.5v-4.5h0.9v4.5h4.5v0.9h-4.5v4.4h-0.9v-4.4h-4.5V108.6z"/>
	<path class="st1" d="M240.1,104.1l-0.8,0.3c-0.8-1.5-2.3-4-5.7-4c-1.8-0.1-3.4,1.2-3.6,3.1c0,0.1,0,0.2,0,0.4c0,2.2,1.6,3,5,4.2
		c0.9,0.3,1.7,0.7,2.6,1.1c2,1,3.4,2.3,3.4,4.8c0.1,3-2.4,5.5-5.4,5.6c-0.1,0-0.2,0-0.2,0c-0.9,0-1.9-0.2-2.8-0.5
		c-0.3-0.2-0.7-0.2-1.1-0.3c-0.7,0.1-1.5,0.3-2.1,0.7l-1.9-5l1-0.5c0.5,1,1.2,1.9,2.1,2.7c1.3,1.2,2.9,1.9,4.7,1.9
		c2.1,0.1,3.8-1.6,3.8-3.6c0-0.1,0-0.2,0-0.3c0-2.4-1.5-3.2-4.8-4.4c-3.7-1.2-6-2.6-6-5.7c-0.1-2.7,2.1-4.9,4.8-5c0.1,0,0.3,0,0.4,0
		c0.6,0,1.2,0.1,1.9,0.2c0.5,0.1,1,0.2,1.6,0.3c0.5,0.1,1.1-0.1,1.4-0.5L240.1,104.1z"/>
	<path class="st1" d="M253.3,100.9h-1.2c-0.9-0.1-1.7,0.6-1.8,1.5c0,0.1,0,0.2,0,0.3v13.7c-0.1,0.9,0.6,1.7,1.5,1.8
		c0.1,0,0.2,0,0.3,0h1.2v0.8h-8.2v-0.8h1.2c0.9,0.1,1.8-0.6,1.9-1.5c0-0.1,0-0.2,0-0.3v-13.7c0.1-0.9-0.6-1.7-1.5-1.8
		c-0.1,0-0.2,0-0.3,0h-1.2V100h8.2V100.9z"/>
	<path class="st1" d="M272.3,104.7c-1-1.5-2.8-4.3-6.3-4.3c-4.2,0-6.2,4.2-6.2,8.8c0,5,2.4,9.1,6.8,9.1c3.7,0,5.5-3.4,6.2-4.7
		l0.7,0.4c-1,2-2.8,5.5-7.7,5.5c-5.5,0-8.2-4.4-8.2-9.6c0-6.1,3.8-10.4,8.2-10.4c0.7,0,1.5,0.1,2.2,0.3c0.2,0,1.4,0.4,1.6,0.4
		c0.6-0.1,1.2-0.3,1.7-0.6l1.9,4.7L272.3,104.7z"/>
	<path class="st1" d="M146,87.7c-0.2,0.1-0.2,0.1-0.3,0.6c-0.2,1.4-0.8,2.6-1.8,3.6c-0.5,0.6-1.2,1.1-1.9,1.3v-0.1
		c1.2-0.8,2.2-2,2.7-3.4c0.3-0.7,0.5-1.5,0.6-2.3c0-0.1,0-0.1-0.1-0.1c-0.7,0-1.8,0.1-2.5,0.2l-1,0.1c-0.1,0-0.2-0.1-0.3-0.1
		c0,0.2,0.1,1.9,0.1,2.1s-0.1,0.4-0.2,0.4s-0.4-0.3-0.4-0.7c0-1.9,0-2.1-0.6-2.5c0.1,0,0.3,0,0.4,0c0.2,0,0.3,0,0.6,0.3
		c0.1,0.1,0.3,0.1,0.4,0.1L143,87c0-0.4,0-0.9-0.1-1.3c-0.1-0.2-0.1-0.2-0.7-0.4c0.2-0.2,0.4-0.3,0.6-0.3c0.2,0,0.9,0.3,0.9,0.5
		c0,0-0.1,0.4-0.1,0.5c-0.1,0.3-0.1,0.7-0.1,1l1.4-0.1c0.2,0,0.3-0.1,0.4-0.2c0.1-0.1,0.1-0.1,0.1-0.1c0.3,0.2,0.5,0.5,0.7,0.9
		C146.2,87.5,146.1,87.6,146,87.7z"/>
	<path class="st1" d="M151.4,88.8h-0.3c-0.2,0-0.5-0.1-0.7-0.1c-0.2,0-0.4,0-0.7,0c0,1.7,0,2,0,2.5c0,0.1,0,0.7,0,0.8
		c0,0.5-0.2,1.1-0.4,1.1s-0.1-0.1-0.2-0.4s-0.1-0.4-0.8-0.9v-0.1c0.2,0.1,0.5,0.2,0.8,0.3c0.1,0,0.1,0,0.1-0.2s0-1,0-2.2
		c-0.6,1.2-1.6,2.1-2.8,2.7v-0.1c1.1-0.9,2-2,2.7-3.3c-0.5,0.1-1,0.2-1.5,0.3c-0.1,0.1-0.2,0.1-0.3,0.1c-0.4-0.1-0.6-0.5-0.7-0.9
		c0-0.1,0-0.2,0.1-0.3c0.1,0.3,0.4,0.5,0.7,0.6c0.3,0,1.2-0.1,1.9-0.2c0-1.5,0-1.7-0.6-1.8c0.1-0.1,0.3-0.2,0.4-0.2s0.8,0.3,0.8,0.5
		c0,0.1-0.1,0.3-0.1,0.4c0,0.4,0,0.7,0,1.1c0.1,0,0.8-0.1,0.8-0.1c0.1,0,0.2-0.1,0.4-0.1c0,0,0.6,0.1,0.6,0.5
		C151.6,88.7,151.6,88.8,151.4,88.8C151.5,88.8,151.4,88.8,151.4,88.8z"/>
	<path class="st1" d="M158.6,89.3h-0.3c-0.3,0-0.7-0.1-1-0.1c-1.3-0.1-2.6,0-3.9,0.2l-0.3,0.1c-0.2,0-0.7-0.7-0.7-1.2
		c0-0.2,0-0.4,0.1-0.5c0.3,0.8,0.6,0.8,1.5,0.8c0.6,0,3.5,0,3.9-0.1c0.1,0,0.3-0.1,0.4-0.1s0.9,0.1,0.9,0.5S158.7,89.3,158.6,89.3z"
		/>
	<path class="st1" d="M164.9,87.3c-0.2,0.1-0.3,0.2-0.5,0.7c-0.6,1.7-1.7,3.2-3.1,4.4c-0.5,0.4-1.1,0.7-1.7,0.9v-0.1
		c2.1-1.5,3.7-3.7,4.5-6.2c-0.4,0-1,0.2-1.3,0.2h-0.3c-0.2,0-0.3-0.1-0.4-0.2c-0.6,1-1.4,1.9-2.4,2.5v-0.1c1-1.1,1.8-2.4,2.3-3.9
		c0-0.1,0-0.2-0.5-0.5c0.1-0.1,0.3-0.1,0.4-0.1c0.4,0,1,0.5,1,0.8c0,0.1,0,0.2-0.2,0.3s-0.3,0.5-0.4,0.6c0.6,0,1.2,0,1.7-0.2
		c0.1,0,0.4-0.3,0.5-0.3s0.7,0.6,0.7,0.8S165.1,87.1,164.9,87.3z"/>
	<path class="st1" d="M170.4,85.7c-0.1,0.1-0.2,0.2-0.3,0.3l-1.3,1.6c0.1,0.1,0.4,0.3,0.4,0.5c0,0.1-0.1,0.3-0.1,0.4
		c0,0,0,0.9,0,1.1c0,0.5,0,2.6,0,3c0,0.2,0,0.7-0.3,0.7s-0.5-0.6-0.5-0.8s0.1-0.5,0.1-0.6c0.1-0.6,0.1-1.3,0.1-1.9
		c0-0.4,0-1.5-0.1-1.7c0-0.1,0-0.1-0.1-0.2c-0.9,1-1.9,1.9-3.1,2.5l0,0c2.1-1.7,4.4-4.9,4.4-5.4c0-0.3-0.1-0.3-0.4-0.7
		c0.1,0,0.2-0.1,0.4-0.1c0.5,0.1,1,0.5,1.1,1C170.7,85.5,170.7,85.6,170.4,85.7z"/>
	<path class="st1" d="M173.9,87.2c-0.1,0-0.3-0.1-0.5-0.5c-0.4-0.5-0.9-0.9-1.4-1.2c1.1-0.1,2.3,0.4,2.3,1.3
		C174.2,87,174.1,87.2,173.9,87.2z M174.7,90.9c-0.2,0.2-1,0.9-1.2,1.1l-0.3,0.4c0,0-0.1,0.1-0.1,0.1c-0.3,0-0.9-0.9-0.9-1.4
		c0-0.2,0-0.3,0.1-0.5c0.2,0.5,0.5,0.7,0.6,0.7c0.7-0.4,1.4-1,2-1.6c1.1-1,2-2.1,2.8-3.2l0,0C177.1,88.1,176,89.7,174.7,90.9z"/>
	<path class="st1" d="M183.2,87.3c-0.2,0.1-0.3,0.2-0.5,0.7c-0.6,1.7-1.7,3.2-3.1,4.4c-0.5,0.4-1.1,0.7-1.7,0.9v-0.1
		c2.1-1.5,3.7-3.7,4.5-6.2c-0.4,0-1,0.2-1.3,0.2h-0.3c-0.2,0-0.3-0.1-0.4-0.2c-0.6,1-1.4,1.9-2.4,2.5v-0.1c1-1.1,1.8-2.4,2.3-3.9
		c0-0.1,0-0.2-0.5-0.5c0.1-0.1,0.3-0.1,0.4-0.1c0.4,0,1,0.5,1,0.8c0,0.1,0,0.2-0.2,0.3s-0.3,0.5-0.4,0.6c0.6,0,1.2,0,1.7-0.2
		c0.1,0,0.4-0.3,0.5-0.3s0.7,0.6,0.7,0.8S183.4,87.1,183.2,87.3z"/>
	<path class="st1" d="M189.9,87c-0.2,0.2-0.2,0.2-0.3,1s-0.3,2-0.4,2.6c0,0,0,0.1,0,0.1c0,0.1,0,0.1,0.2,0.2s0.3,0.2,0.3,0.4
		c0,0.1-0.1,0.2-0.2,0.3c0,0,0,0,0,0h-0.2c-0.5-0.1-1.1-0.1-1.6-0.1c-0.7,0-1.4,0-2.1,0.1c0,0.2,0,0.6-0.2,0.6s-0.5-0.8-0.5-1
		c0-0.1,0-0.4,0-0.5c0-1.3-0.1-2.6-0.3-3.8c-0.1-0.4-0.2-0.5-0.6-0.7c0.1-0.1,0.3-0.2,0.4-0.2c0.2,0,0.4,0.1,0.8,0.4
		c0.1,0.1,0.2,0.1,0.3,0.1l0.6-0.1c0.4,0,2.2-0.2,2.6-0.2c0.2,0,0.3-0.1,0.5-0.2c0.1-0.1,0.1-0.1,0.1-0.1c0.3,0.2,0.6,0.5,0.8,0.9
		C190.1,86.8,190,86.8,189.9,87z M188.8,86.7c-0.2,0-1.4,0.1-2.4,0.2c-0.1,0-0.5,0.1-0.6,0.1s-0.4-0.1-0.4-0.1s0,0,0,0.1
		s0.2,4.1,0.2,4.1c0.3,0,2.8-0.2,3.1-0.2c0-0.4,0.4-3.3,0.4-3.9C189,86.8,188.9,86.7,188.8,86.7L188.8,86.7z"/>
	<path class="st1" d="M197.1,89.3h-0.3c-0.3,0-0.7-0.1-1-0.1c-1.3-0.1-2.6,0-3.9,0.2l-0.3,0.1c-0.2,0-0.7-0.7-0.7-1.2
		c0-0.2,0-0.4,0.1-0.5c0.3,0.8,0.6,0.8,1.5,0.8c0.6,0,3.5,0,3.9-0.1c0.1,0,0.3-0.1,0.4-0.1s0.9,0.1,0.9,0.5S197.2,89.3,197.1,89.3z"
		/>
	<path class="st1" d="M204.7,88c-0.1,0-0.3,0.1-0.4,0.2c-0.5,0.6-1,1.1-1.6,1.5v-0.1c0.4-0.6,0.8-1.3,1.1-2c-0.6,0.2-1.8,0.7-2.6,1
		c0,0.2,0,0.8,0,1.5c0,1.6,0,1.9,1.2,1.9c0.5,0,0.9-0.1,1.3-0.2c0.1,0,0.2,0,0.3,0c0.4,0,0.8,0.2,0.8,0.4c0,0.1-0.1,0.3-0.2,0.3
		c-0.5,0.2-1,0.2-1.6,0.2c-2.2,0-2.3-0.6-2.3-2.7c0-0.5,0-0.8,0-1.1c-0.2,0.1-1.2,0.4-1.4,0.6s-0.3,0.2-0.4,0.2
		c-0.4-0.2-0.7-0.6-0.8-1.1c0-0.2,0-0.3,0.1-0.5c0.2,0.4,0.4,0.7,0.7,0.7c0.2,0,0.3,0,0.5-0.1l1.2-0.4c0-1.6,0-1.9,0-1.9
		c0-0.8-0.2-0.8-0.8-1.1c0.2-0.2,0.4-0.3,0.6-0.3c0.3,0,1,0.3,1,0.6c0,0.1-0.1,0.3-0.1,0.4c-0.1,0.7-0.2,1.4-0.2,2.1
		c0.9-0.2,1.7-0.5,2.6-0.9l0.2-0.2c0,0,0.1-0.1,0.1-0.1c0.1,0,0.9,0.7,0.9,1S205.1,87.9,204.7,88z M204.6,86.4c-0.1,0-0.2,0-0.5-0.4
		c-0.3-0.3-0.6-0.5-0.9-0.8c1.2,0,1.6,0.5,1.6,0.9C204.8,86.3,204.7,86.4,204.6,86.4L204.6,86.4z M205.4,85.8c-0.1,0-0.1,0-0.4-0.4
		c-0.3-0.3-0.7-0.6-1.1-0.8c0.3,0,1.6,0,1.6,0.9C205.6,85.5,205.6,85.8,205.4,85.8L205.4,85.8z"/>
	<path class="st1" d="M206.5,89.4c-0.2,0-0.3-0.2-0.4-0.5c-0.2-0.4-0.4-0.8-0.6-1.2c0.6,0.1,1.3,0.7,1.3,1.3
		C206.8,89.2,206.7,89.4,206.5,89.4z M210.2,88.3c0,0.1-0.4,1-0.5,1.2c-1.3,2.9-2.9,3.4-3.5,3.6V93c2.7-1.5,3.4-5,3.4-5.1
		s-0.4-0.5-0.5-0.6c0.1,0,0.3-0.1,0.4-0.1c0.4,0,0.8,0.6,0.8,0.7S210.3,88.1,210.2,88.3z M208,88.9c-0.2,0-0.2-0.1-0.4-0.6
		c-0.1-0.4-0.3-0.8-0.5-1.1c0.6,0.2,1,0.7,1.2,1.3C208.3,88.7,208.2,88.9,208,88.9L208,88.9z"/>
	<path class="st1" d="M214.4,90.2c-0.1,0-0.2-0.1-0.4-0.3c-0.4-0.8-1.1-1.4-1.9-1.8c0,0.4,0,2.3,0,2.7s0.1,1.5,0.1,1.8
		s0,0.9-0.3,0.9s-0.4-0.6-0.4-0.9c0-0.2,0-0.5,0.1-0.7c0.1-0.8,0.1-2.6,0.1-3.5c0-0.5,0-2.6-0.1-3s-0.2-0.3-0.7-0.5
		c0.2-0.1,0.4-0.2,0.6-0.3c0.1,0,1,0.2,1,0.6c0,0.1-0.1,0.4-0.1,0.5c-0.1,0.7-0.1,1.4-0.1,2.2c0.9,0.2,1.7,0.6,2.3,1.2
		c0.2,0.2,0.3,0.5,0.3,0.7C214.7,90.1,214.6,90.2,214.4,90.2z"/>
	<path class="st1" d="M225.6,88.9c-0.1,0-0.2-0.1-0.4-0.3c-0.5-0.5-1.1-0.8-1.7-1.1c0.2,0,0.5-0.1,0.8-0.1c1.1,0,1.6,0.5,1.6,1
		C225.9,88.7,225.8,88.9,225.6,88.9z M226.4,86.5c-0.1,0-0.2-0.1-0.3-0.2c-0.4-0.5-1-1-1.6-1.2c0.2,0,0.4,0,0.6,0
		c1.1,0,1.6,0.6,1.6,1.1C226.6,86.3,226.6,86.5,226.4,86.5z M226.1,92.1c-0.2,0.2-0.4,0.4-0.6,0.6c-0.1,0.1-0.1,0.1-0.2,0.2
		c-0.5-0.3-0.9-0.8-0.9-1.5c0-0.1,0-0.2,0-0.2c0.2,0.3,0.6,0.6,0.7,0.6c0.6,0,3.3-2.7,4.8-5h0.1C229.2,88.9,227.9,90.7,226.1,92.1z"
		/>
	<path class="st1" d="M236.1,92c-0.1,0-0.3-0.1-0.4-0.1c-0.4-0.1-0.8-0.2-1.2-0.2c-1.1,0-2.2,0.2-3.2,0.5c-0.2,0.1-0.3,0.2-0.5,0.2
		c-0.4-0.2-0.7-0.6-0.7-1.1c0-0.1,0-0.1,0-0.2c0.2,0.3,0.4,0.6,0.7,0.6l0.7-0.1l2-0.2c0-0.2,0.2-1.3,0.4-3c-0.5,0.1-0.9,0.2-1.4,0.3
		c-0.1,0-0.6,0.2-0.6,0.2c-0.3-0.2-0.5-0.5-0.6-0.9c0-0.1,0-0.2,0.1-0.3c0.1,0.3,0.4,0.5,0.6,0.5c0.6-0.1,1.2-0.2,1.8-0.3
		c0.1,0,0.2-0.2,0.3-0.2s0.7,0.6,0.7,0.7s0,0.1-0.2,0.3s-0.1,0.1-0.1,0.3l-0.4,2.3c0.2,0,1,0,1.2-0.1s0.4-0.1,0.4-0.1
		s0.7,0.3,0.7,0.6C236.3,91.9,236.2,92,236.1,92C236.1,92,236.1,92,236.1,92z"/>
	<path class="st1" d="M243.1,89.3h-0.3c-0.3,0-0.7-0.1-1-0.1c-1.3-0.1-2.6,0-3.9,0.2l-0.3,0.1c-0.2,0-0.7-0.7-0.7-1.2
		c0-0.2,0-0.4,0.1-0.5c0.3,0.8,0.6,0.8,1.5,0.8c0.6,0,3.5,0,3.9-0.1c0.1,0,0.3-0.1,0.4-0.1s0.9,0.1,0.9,0.5S243.2,89.3,243.1,89.3z"
		/>
	<path class="st1" d="M250.2,92.6c-0.2,0-0.2-0.1-0.6-0.8c-0.5-0.9-1.1-1.7-1.8-2.4c-0.9,1.5-2.3,2.7-4,3.2v-0.1
		c2.3-1.5,4-3.7,4.8-6.3c-0.9,0.1-1.7,0.3-2.5,0.7c-0.1,0.1-0.2,0.2-0.3,0.2c-0.3-0.2-0.6-0.6-0.6-1c0-0.2,0-0.4,0.1-0.5
		c0.3,0.6,0.4,0.7,0.6,0.7c0.8-0.1,1.7-0.2,2.5-0.4c0.1,0,0.4-0.3,0.4-0.3c0.3,0.2,0.6,0.5,0.8,0.8c0,0.1,0,0.1-0.3,0.3
		c-0.1,0-0.1,0.1-0.2,0.2c-0.3,0.8-0.7,1.6-1.2,2.4c0.8,0.4,2.5,1.7,2.5,2.8C250.5,92.5,250.4,92.6,250.2,92.6z M250.2,85.9
		c-0.1,0-0.1-0.1-0.4-0.5c-0.2-0.4-0.5-0.7-0.9-0.9c0.4,0,0.8,0.1,1.1,0.3c0.3,0.1,0.5,0.4,0.5,0.7
		C250.5,85.9,250.3,85.9,250.2,85.9L250.2,85.9z M251.2,85.3c-0.1,0-0.1,0-0.5-0.5c-0.2-0.3-0.5-0.6-0.9-0.8c0.3,0,1.6,0.1,1.6,1
		C251.3,85.3,251.2,85.3,251.2,85.3L251.2,85.3z"/>
	<path class="st1" d="M256.2,85.7c-0.1,0.1-0.2,0.2-0.3,0.3l-1.3,1.6c0.1,0.1,0.4,0.3,0.4,0.5c0,0.1-0.1,0.3-0.1,0.4
		c0,0,0,0.9,0,1.1c0,0.5,0,2.6,0,3c0,0.2,0,0.7-0.3,0.7s-0.5-0.6-0.5-0.8s0.1-0.5,0.1-0.6c0.1-0.6,0.1-1.3,0.1-1.9
		c0-0.4,0-1.5-0.1-1.7c0-0.1,0-0.1-0.1-0.2c-0.9,1-1.9,1.9-3.1,2.5l0,0c2.1-1.7,4.4-4.9,4.4-5.4c0-0.3-0.1-0.3-0.4-0.7
		c0.1,0,0.2-0.1,0.4-0.1c0.5,0.1,1,0.5,1.1,1C256.4,85.5,256.4,85.6,256.2,85.7z"/>
	<path class="st1" d="M259.6,87.2c-0.1,0-0.2-0.1-0.5-0.5c-0.4-0.5-0.9-0.9-1.5-1.2c1.1-0.1,2.3,0.4,2.3,1.3
		C259.9,87,259.8,87.2,259.6,87.2z M260.4,90.9c-0.2,0.2-1,0.9-1.2,1.1l-0.3,0.4c0,0-0.1,0.1-0.1,0.1c-0.3,0-0.9-0.9-0.9-1.4
		c0-0.2,0-0.3,0.1-0.5c0.2,0.5,0.5,0.7,0.6,0.7c0.8-0.4,1.4-1,2-1.6c1.1-1,2-2.1,2.8-3.2l0,0C262.8,88.1,261.8,89.7,260.4,90.9
		L260.4,90.9z"/>
	<path class="st1" d="M268.9,87.3c-0.2,0.1-0.3,0.2-0.5,0.7c-0.6,1.7-1.7,3.2-3.1,4.4c-0.5,0.4-1.1,0.7-1.7,0.9v-0.1
		c2.1-1.5,3.7-3.7,4.5-6.2c-0.4,0-1,0.2-1.3,0.2h-0.3c-0.2,0-0.3-0.1-0.5-0.2c-0.6,1-1.4,1.9-2.4,2.5v-0.1c1-1.1,1.8-2.4,2.3-3.9
		c0-0.1,0-0.2-0.5-0.5c0.1-0.1,0.3-0.1,0.4-0.1c0.4,0,1,0.5,1,0.8c0,0.1,0,0.2-0.2,0.3s-0.3,0.5-0.4,0.6c0.6,0,1.2,0,1.7-0.2
		c0.1,0,0.4-0.3,0.5-0.3s0.7,0.6,0.7,0.8S269.1,87.1,268.9,87.3z"/>
	<path class="st1" d="M275.6,87c-0.2,0.2-0.2,0.2-0.3,1s-0.3,2-0.4,2.6c0,0,0,0.1,0,0.1c0,0.1,0,0.1,0.2,0.2s0.3,0.2,0.3,0.4
		c0,0.1-0.1,0.2-0.2,0.3c0,0,0,0,0,0h-0.2c-0.5-0.1-1.1-0.1-1.6-0.1c-0.7,0-1.3,0-2,0.1c0,0.2,0,0.6-0.2,0.6s-0.5-0.8-0.5-1
		c0-0.1,0-0.4,0-0.5c0-1.3-0.1-2.6-0.3-3.8c-0.1-0.4-0.2-0.5-0.6-0.7c0.1-0.1,0.3-0.2,0.5-0.2c0.2,0,0.4,0.1,0.8,0.4
		c0.1,0.1,0.2,0.1,0.3,0.1l0.6-0.1c0.4,0,2.2-0.2,2.6-0.2c0.2,0,0.3-0.1,0.5-0.2c0.1-0.1,0.1-0.1,0.1-0.1c0.3,0.2,0.6,0.5,0.8,0.9
		C275.8,86.8,275.8,86.8,275.6,87z M274.5,86.7c-0.2,0-1.4,0.1-2.4,0.2c-0.1,0-0.5,0.1-0.6,0.1s-0.4-0.1-0.4-0.1s0,0,0,0.1
		s0.2,4.1,0.2,4.1c0.3,0,2.8-0.2,3.1-0.2c0-0.4,0.4-3.3,0.4-3.9C274.7,86.8,274.6,86.7,274.5,86.7L274.5,86.7z"/>
	<path class="st1" d="M282.8,89.3h-0.3c-0.3,0-0.7-0.1-1-0.1c-1.3-0.1-2.6,0-3.9,0.2l-0.3,0.1c-0.2,0-0.7-0.7-0.7-1.2
		c0-0.2,0-0.4,0.1-0.5c0.3,0.8,0.6,0.8,1.5,0.8c0.6,0,3.5,0,3.9-0.1c0.1,0,0.3-0.1,0.4-0.1s0.9,0.1,0.9,0.5S282.9,89.3,282.8,89.3z"
		/>
	<path class="st1" d="M289.1,87.3c-0.2,0.1-0.3,0.2-0.5,0.7c-0.6,1.7-1.7,3.2-3.1,4.4c-0.5,0.4-1.1,0.7-1.7,0.9v-0.1
		c2.1-1.5,3.7-3.7,4.5-6.2c-0.4,0-1,0.2-1.3,0.2h-0.3c-0.2,0-0.3-0.1-0.5-0.2c-0.6,1-1.4,1.9-2.4,2.5v-0.1c1-1.1,1.8-2.4,2.3-3.9
		c0-0.1,0-0.2-0.5-0.5c0.1-0.1,0.3-0.1,0.4-0.1c0.4,0,1,0.5,1,0.8c0,0.1,0,0.2-0.2,0.3s-0.3,0.5-0.4,0.6c0.6,0,1.2,0,1.7-0.2
		c0.1,0,0.4-0.3,0.5-0.3s0.7,0.6,0.7,0.8S289.4,87.1,289.1,87.3z"/>
	<g>
		<path class="st5" d="M241.6,148.7c-2.9-2.3-4.4-5.7-4.4-9.1s1.5-6.7,4.4-9.1l0.2,0.3c-3.5,3.7-3.6,7.4-3.6,8.8
			c0,1.4,0.1,5.1,3.6,8.8L241.6,148.7z"/>
		<path class="st5" d="M253.3,134.7c0.1,0.1,0.2,0.2,0.2,0.3c0,0.2-0.2,0.3-0.8,0.4c-0.2,0.3-0.8,0.9-1.6,1.9
			c-0.7,0.9-1.3,1.6-1.8,2.1c0.1,0,1.7-0.1,2.7-0.2c-0.1-0.1-0.3-0.6-0.8-1.1l0.1-0.1c1.5,0.6,2.6,1.4,2.6,2.3
			c0,0.4-0.2,0.8-0.7,0.8c-0.4,0-0.6-0.2-0.8-0.9c0-0.1-0.1-0.3-0.2-0.6l-1.7,0.4c0,0.8,0.1,4.6,0.1,5c0,0.4,0.1,2.1,0.1,2.4
			c0,0.5-0.4,0.8-0.9,0.8c-0.4,0-0.5-0.2-0.5-0.6c0-0.3,0.1-1.5,0.1-1.8c0-0.6,0-2.4,0.1-5.6c-1.2,0.3-2.1,0.5-2.4,0.5
			c-0.1,0.2-0.3,0.5-0.5,0.5c-0.2,0-0.3-0.2-0.3-0.3l-0.4-1.6c0.3,0.1,0.9,0.1,1.3,0.1c0.6,0,1.4,0,1.7,0c1.3-1.7,2.4-4.1,2.7-4.8
			c0.1-0.2,0.1-0.5,0.1-0.7L253.3,134.7z M245.9,147c0.8-1.8,1.3-4.2,1.3-5.5l1.5,0.6c0.1,0.1,0.3,0.2,0.3,0.3
			c0,0.1-0.1,0.2-0.6,0.4C247.8,144.5,247.3,145.6,245.9,147L245.9,147z M246.6,134.7c0.5,0.1,1.1,0.3,1.6,0.5
			c0.5-1,1.3-3.1,1.2-4.2l1.8,0.9c0.1,0.1,0.2,0.2,0.2,0.3c0,0.3-0.3,0.3-0.7,0.4c-0.9,1.1-1,1.3-2.3,2.8c0.5,0.3,1.1,0.8,1.1,1.5
			c0,0.4-0.3,0.9-0.8,0.9c-0.4,0-0.5-0.2-1-1.1c-0.4-1-0.9-1.4-1.3-1.8L246.6,134.7z M251.1,141.8c0.8,0.3,2.6,1.2,2.6,2.5
			c0,0.6-0.4,0.9-0.8,0.9c-0.5,0-0.6-0.4-0.8-1.2C251.8,143,251.4,142.5,251.1,141.8L251.1,141.8z M260,135.8l0.6-0.5
			c0.1-0.1,0.2-0.2,0.3-0.2c0.1,0,0.2,0.1,0.3,0.2l0.9,0.8c0.1,0.1,0.2,0.2,0.2,0.3c0,0.1-0.4,0.4-0.7,0.6c-0.1,5.2-0.1,7.5-1.1,9.4
			c-0.7,1.3-1.9,1.8-2.9,1.8c-0.1-0.9-0.7-1.5-1.7-2.1l0-0.1c0.9,0.2,2,0.4,2.5,0.4c1.9,0,2-6.2,2-8.1c0-0.3,0-1.6,0-2h-5.1
			c-0.9,1.7-1.6,2.4-1.8,2.7l-0.1-0.1c1.4-2.8,2-5.9,2-6.9c0-0.2-0.1-0.5-0.1-0.7l2,0.9c0.1,0,0.2,0.1,0.2,0.3
			c0,0.2-0.3,0.3-0.7,0.5c-0.2,0.6-0.5,1.5-1.2,2.9H260z M254.9,139.4c1.8,0.7,2.7,1.3,2.7,2.3c0,0.4-0.2,0.9-0.7,0.9
			c-0.5,0-0.6-0.2-1-1.5c-0.1-0.5-0.5-1.1-0.9-1.6L254.9,139.4z"/>
		<path class="st5" d="M273.5,146.8h-7.4v-0.5c0.4-1.2,1.3-2.5,2.8-4.2c2.8-3.2,3.7-4.2,3.7-6.1c0-1.4-0.9-2.6-2.5-2.6
			c-1.3,0-2.1,0.8-2.1,1.5c0,0.1,0,0.3,0.2,0.6c0.2,0.4,0.4,0.6,0.4,0.9c0,0.6-0.4,1-1,1c-0.7,0-1.1-0.6-1.1-1.3
			c0-1.4,1.3-3.3,4-3.3c2.3,0,3.7,1.5,3.7,3.5c0,1.9-1.1,2.9-2.8,4.4c-0.6,0.5-3.1,2.6-4,4.7h2.6c2.6,0,3.2-1,3.8-2.6l0.6,0.2
			L273.5,146.8z"/>
		<path class="st5" d="M278.7,146.2h1c1,0,1.3-0.4,1.3-1.1v-10.1c0-0.6-0.5-0.7-0.9-0.7h-1.4v-0.6h0.3c1.4,0,2.8-0.7,3-0.8
			c0.1-0.1,0.2-0.1,0.3-0.1c0.2,0,0.2,0.1,0.2,0.3v12c0,0.8,0.4,1.1,1.3,1.1h1v0.6h-6.2V146.2z"/>
		<path class="st5" d="M291.4,146.1c0,0.6-0.5,1.1-1.1,1.1c-0.6,0-1.1-0.5-1.1-1.1s0.5-1.1,1.1-1.1
			C290.8,145,291.4,145.5,291.4,146.1z"/>
		<path class="st5" d="M295.6,146.2h1c1,0,1.3-0.4,1.3-1.1v-10.1c0-0.6-0.5-0.7-0.9-0.7h-1.4v-0.6h0.3c1.4,0,2.8-0.7,3-0.8
			c0.1-0.1,0.2-0.1,0.3-0.1c0.2,0,0.2,0.1,0.2,0.3v12c0,0.8,0.4,1.1,1.3,1.1h1v0.6h-6.2V146.2z"/>
		<path class="st5" d="M311,141.4c-0.4,0.2-1,0.5-1.6,0.5c-1.9,0-3.3-1.9-3.3-4.2c0-2.6,1.9-4.9,4-4.9c2.1,0,4.3,2.4,4.3,6.5
			c0,4.3-2.4,7.9-5.3,7.9c-1.3,0-2.1-0.7-2.1-1.6c0-0.7,0.5-1,1-1c0.4,0,1,0.2,1,1.3c0,0.4,0.1,0.7,0.6,0.7s1-0.2,1.4-0.7
			c1.7-1.8,1.8-4.6,1.8-6.3C312.3,140.2,311.9,140.8,311,141.4z M311.6,134.4c-0.3-0.5-0.8-1-1.5-1c-1,0-2.4,1-2.4,4.1
			c0,0.9,0.2,3.5,2.1,3.5c0.7,0,1.9-0.5,2.8-2.5C312.5,137.4,312.4,135.6,311.6,134.4z"/>
		<path class="st5" d="M321.8,143.7c-1.5,0.6-2.2,0.9-2.8,1.1c-0.1,0.3-0.2,0.6-0.5,0.6c-0.1,0-0.2-0.1-0.3-0.3l-0.9-1.7
			c0.2,0,0.4,0.1,0.7,0.1c0.5,0,1-0.1,2.2-0.4v-6.5c-0.5,0-1.4,0-2.2,0.2l-0.4-0.7c0.9,0.1,1.5,0.1,2.6,0.1c0-3.7-0.1-4.2-0.3-5
			l1.8,0.6c0.2,0.1,0.4,0.1,0.4,0.3s0,0.2-0.5,0.6c0,0.6,0,3,0,3.5h0.4l0.6-0.9c0.1-0.1,0.2-0.2,0.3-0.2c0.1,0,0.2,0.1,0.3,0.2
			l0.9,0.9c0.1,0.1,0.2,0.2,0.2,0.3c0,0.2-0.1,0.2-0.3,0.2h-2.4c0,0.2,0,5.9,0,6.2c0.6-0.1,3-0.7,3.6-0.8v0.1
			C324,142.8,322.3,143.5,321.8,143.7z M334.6,141.3h-5.1c0,2.3,0,2.6,0.1,3.4c0,0.4,0.1,2.2,0.1,2.6c0,0.8-0.7,1-1,1
			c-0.6,0-0.6-0.5-0.6-0.7c0-0.2,0.1-3.9,0.1-4.6c0-0.2,0-1.4,0-1.7h-2.7c-0.5,0-1.4,0-2.2,0.2l-0.4-0.7c1,0.1,1.9,0.1,2.9,0.1h2.4
			c0-4,0-4.2,0-7.9H326c-0.5,0-1.4,0-2.2,0.2l-0.4-0.7c1,0.1,1.9,0.1,2.9,0.1h5.1l0.6-0.9c0.1-0.2,0.2-0.2,0.3-0.2
			c0.1,0,0.2,0.1,0.4,0.2l1.2,0.9c0.1,0.1,0.2,0.2,0.2,0.3c0,0.2-0.2,0.2-0.3,0.2h-4.3c0.1,2.2,0,5.7,0.1,7.9h2.6l0.7-1.1
			c0.1-0.1,0.1-0.2,0.3-0.2s0.2,0.1,0.4,0.2l1.3,1.1c0.1,0.1,0.2,0.1,0.2,0.3C334.9,141.3,334.7,141.3,334.6,141.3z M326.1,139
			c-0.5,0-0.6-0.3-0.9-1.6c-0.1-0.2-0.5-1.9-1.2-2.7l0.1-0.1c1.1,0.5,2.8,2,2.8,3.4C327,138.7,326.4,139,326.1,139z M333.1,135.7
			c-0.9,1.2-2,2.7-2.9,3.6l-0.1,0c0.6-1.4,1.6-3.8,1.7-5.2l1.6,0.9c0.1,0.1,0.2,0.2,0.2,0.4C333.7,135.5,333.7,135.5,333.1,135.7z"
			/>
		<path class="st5" d="M339,148.7l-0.2-0.3c3.5-3.7,3.6-7.4,3.6-8.8c0-1.4-0.1-5.1-3.6-8.8l0.2-0.3c2.9,2.3,4.4,5.7,4.4,9.1
			S341.9,146.4,339,148.7z"/>
	</g>
</g>
</svg>
