<svg xmlns="http://www.w3.org/2000/svg" viewBox="0 0 350 150"><defs><style>.cls-1{fill:#fff;}.cls-2{fill:#2f2725;}.cls-3{fill:#8f0019;}.cls-4{fill:#00437c;}.cls-5{fill:#1e1100;}</style></defs><title>thumbs_title_plank_n</title><g id="レイヤー_2" data-name="レイヤー 2"><g id="レイヤー_1-2" data-name="レイヤー 1"><rect class="cls-1" width="350" height="150"/><path class="cls-2" d="M10.55,135.78c.12.08.21.17.21.29s-.17.3-.51.54c0,.64,0,1.11,0,2.34,0,2.68.06,6,.12,7.35,0,.41,0,.94,0,1.2,0,.72-.16,1.19-1,1.19-.47,0-.66-.19-.66-.64,0-.13.21-3.64.21-4.31s0-2.53.08-6.07a13.65,13.65,0,0,1-3,3.09l-.11-.08a33.49,33.49,0,0,0,4.26-8.33,7.27,7.27,0,0,0,.18-1.11l1.7,1c.15.1.26.19.26.34,0,.34-.37.45-.79.57-.28.6-.58,1.22-1.26,2.48Zm6.77.23v4.75h2.13l.64-.87c.05-.07.19-.22.3-.22a.94.94,0,0,1,.34.18l1.21.87a.47.47,0,0,1,.18.28c0,.21-.17.21-.28.21H17.32v5.73h3.22l.81-1c.1-.11.21-.25.3-.25s.23.12.34.21l1.09,1c.08.08.19.17.19.28s-.17.21-.28.21H13.36a13.64,13.64,0,0,0-2.22.17l-.36-.73c.92.07,2,.11,2.88.11H16v-5.73h-1.3a13.42,13.42,0,0,0-2.22.17l-.38-.75c.92.09,2,.13,2.9.13h1V136H13.87a13.35,13.35,0,0,0-2.2.17l-.38-.75c1.54.13,2.67.13,2.88.13h5.75l.68-.91c.11-.17.19-.28.32-.28a1,1,0,0,1,.34.21l1.22.94a.42.42,0,0,1,.19.28c0,.19-.19.21-.28.21Zm-2.43-4.6c.83.38,2.79,1.32,2.79,2.81,0,.43-.19.9-.78.9s-.79-.52-.94-1.13a9.18,9.18,0,0,0-1.17-2.47Z"/><path class="cls-2" d="M41.67,137.71c0,.81.13,4.44.13,5a.78.78,0,0,1-.2.62,1.38,1.38,0,0,1-.87.34.53.53,0,0,1-.49-.59c0-.09,0-.49,0-.56H31.35a7.83,7.83,0,0,1-4.43,6.24l-.08-.12c2.3-2.24,3.32-4.43,3.32-9.33a18.68,18.68,0,0,0-.3-3.63l2,.92h8.23l.59-.62a.4.4,0,0,1,.3-.19.59.59,0,0,1,.3.15l1,.72a.45.45,0,0,1,.17.3C42.37,137.25,42.13,137.42,41.67,137.71Zm2.19-3.81H30.2a11.54,11.54,0,0,0-2.21.17l-.38-.76c1.29.12,2.66.14,2.91.14H41.18l.87-1c.11-.13.21-.25.3-.25a.62.62,0,0,1,.34.19l1.28,1a.36.36,0,0,1,.17.26C44.14,133.86,44,133.9,43.86,133.9Zm-3.58,3.2H31.55a43.39,43.39,0,0,1-.13,5h8.86Z"/><path class="cls-2" d="M64.41,144H60c0,.38,0,2.19,0,2.6,0,1.43-1.1,2-2.23,2.15A3.06,3.06,0,0,0,56,146.83v-.15c1.3.07,1.83.11,2,.11.54,0,.56-.25.6-.57,0-.17,0-2,0-2.26H50.37a13.42,13.42,0,0,0-2.23.17l-.37-.73c1.24.09,2.54.11,2.9.11h8a5.12,5.12,0,0,0-.26-1.9l1.79.47c.22,0,.33.17.33.3s-.24.38-.54.53c0,.26,0,.37,0,.6h2.26l.62-.74c.15-.17.25-.24.34-.24a.74.74,0,0,1,.43.23l.89.71c.11.1.19.19.19.3S64.6,144,64.41,144Zm-.74-9.89H57.13v1.68h3.58l.46-.51c.15-.17.22-.23.32-.23s.22.08.39.21l.72.58c.11.1.17.17.17.27s-.13.28-.68.52c-.06,1.23.11,3.21.11,4.43a.88.88,0,0,1-.88.94c-.59,0-.53-.47-.51-.84H52.23a.8.8,0,0,1-.88,1c-.57,0-.57-.36-.57-.59s0-.56,0-.66c.06-.77.08-2.49.08-3.28a12.41,12.41,0,0,0-.19-2.67l1.62.83h3.56c0-.4,0-.81,0-1.68h-4.2a12,12,0,0,0-2.22.17l-.36-.76c1.26.12,2.56.14,2.88.14h3.88a5,5,0,0,0-.41-2.36l1.69.49c.34.09.55.19.55.36s-.19.39-.55.56v1h4.28l.7-.78c.15-.15.22-.22.32-.22s.19,0,.36.19l1,.77a.46.46,0,0,1,.19.3C64,134,63.79,134.07,63.67,134.07Zm-7.78,2.13H52.23v2h3.66Zm-3.66,2.43v2h3.64l0-2Zm2.13,8.72c-.56,0-.62-.15-1.13-1.54a3.42,3.42,0,0,0-.94-1.55l.08-.13c1.11.42,2.79,1,2.79,2.36A.83.83,0,0,1,54.36,147.35Zm6.47-11.15h-3.7v2h3.7Zm0,2.43h-3.7l0,2h3.68Z"/><path class="cls-2" d="M80.9,138.23l.59-.79c.05-.07.13-.19.22-.19s.17,0,.36.21l.93.83c0,.06.17.15.17.26s-.4.46-.78.64c-.07,2.08.13,5.39.13,7.47,0,.69,0,1.69-2.07,2-.13-.68-.24-1.2-1.69-1.92v-.11a12.4,12.4,0,0,0,1.83.09c.45,0,.59-.06.59-.58,0-.32,0-1.74,0-2H75.46c0,1,0,1.9,0,2.86s0,1.51-1,1.51A.48.48,0,0,1,74,148c0-.2.09-1.67.11-2,0-1.49.06-2.45.1-6.41a18.06,18.06,0,0,1-5.3,4.71l-.06-.13a29.5,29.5,0,0,0,6.5-8.84H72a13.49,13.49,0,0,0-2.22.17l-.36-.73c1.28.09,2.62.11,2.88.11h3.28c1-2.36,1-2.81,1-3.66l2.09.91a.39.39,0,0,1,.23.32c0,.22-.3.34-.87.49-.19.41-.34.75-.9,1.94H83l.85-1c.13-.15.18-.23.3-.23s.19.08.34.19l1.32,1a.42.42,0,0,1,.18.3c0,.17-.15.19-.28.19h-8.8A23.88,23.88,0,0,1,75.34,138l.31.22Zm-5.44.46v2.24h5.69v-2.24Zm0,2.69v2.32h5.69v-2.32Z"/><path class="cls-2" d="M96.44,136.31a19.94,19.94,0,0,0,1.11-3.15H92.63a13.14,13.14,0,0,0-2.22.17l-.38-.75c1,.08,1.93.13,2.9.13h11.24l.83-.81a1.14,1.14,0,0,1,.35-.28c.1,0,.17.06.36.21l1.06.84c.07.06.19.17.19.29s-.19.2-.31.2H99.32a31.81,31.81,0,0,1-2.43,3.15h6.86l.53-.55c.19-.18.24-.24.36-.24a.78.78,0,0,1,.34.19l.86.73a.34.34,0,0,1,.15.25c0,.17-.07.22-.75.6,0,2.13,0,4.83,0,7,0,.89.09,2.28.09,3.15a.85.85,0,0,1-.94.89c-.56,0-.56-.3-.53-1.38H93.18c0,.08,0,.51,0,.6a.87.87,0,0,1-.92.87c-.61,0-.61-.41-.61-.58s.06-1,.06-1.15c0-2.06.13-6.39.13-8.18a13.55,13.55,0,0,0-.26-3.09l1.94.94Zm-3.26.45v9.69h2.51v-9.69Zm6.65,2.87v-2.87H97v2.87Zm0,3.3v-2.85H97v2.85Zm0,3.52v-3.07H97v3.07Zm4.07,0v-9.69h-2.79v9.69Z"/><path class="cls-2" d="M110.24,144.36a24.62,24.62,0,0,0,3.51-7.22h-.44a13.58,13.58,0,0,0-2.22.17l-.36-.75c1.08.09,2.17.13,3.15.13,0-.91,0-2.24,0-3.05a18,18,0,0,1-3.07.33v-.15a30,30,0,0,0,5.09-2.11,1.29,1.29,0,0,0,.39-.45l1.3,1.09a.33.33,0,0,1,.14.27c0,.19-.19.19-.36.19l-.55,0a14.78,14.78,0,0,1-1.75.56c0,.87,0,2.6,0,3.34h.36l.45-.68c.07-.11.17-.25.28-.25s.26.14.36.21l.81.68a.43.43,0,0,1,.19.3c0,.19-.19.19-.29.19h-2.16c0,.36,0,1.21,0,1.66,1.84.66,2.46,1.79,2.46,2.37a.72.72,0,0,1-.69.76c-.46,0-.51-.19-.89-1.25a3.43,3.43,0,0,0-.88-1.64c0,3.28,0,3.66.07,5.09,0,1.28.08,2.77.08,3.45,0,.34,0,1.09-1,1.09-.49,0-.54-.28-.54-.64,0-.62.15-3.39.17-3.95,0-1.85,0-2.59,0-4.23a12.32,12.32,0,0,1-3.57,4.6Zm6.05,4c1.32-.64,3.45-1.88,3.9-2.71l1.36,1a.33.33,0,0,1,.17.28c0,.27-.44.25-.91.25a15.1,15.1,0,0,1-4.48,1.3Zm8.37-15,.47-.75c.09-.15.19-.26.28-.26s.25.13.36.22l.92.76a.38.38,0,0,1,.19.3c0,.17-.15.19-.28.19h-4v1.54h1.51l.45-.68c.08-.11.15-.22.29-.22s.22.11.34.2l.77.66c.11.1.19.19.19.3s-.17.19-.29.19H122.6v1.7h3.13l.55-.77c.09-.15.21-.25.3-.25s.23.11.34.23l.81.75c.09.1.19.19.19.3s-.15.19-.29.19H119.8a12.86,12.86,0,0,0-2.23.17l-.37-.75c1,.07,1.94.13,2.9.13h1.22v-1.7h-.45a11.94,11.94,0,0,0-2.22.19l-.36-.75c.56,0,1.39.11,3,.11,0-.73,0-1.19,0-1.54h-1.24a12.58,12.58,0,0,0-2.22.17l-.38-.76c1.37.11,2.58.13,2.9.13h.92a5.22,5.22,0,0,0-.33-2l1.92.58a.29.29,0,0,1,.26.28c0,.25-.43.46-.53.49v.66Zm-.44,5.9.44-.47c.07-.07.19-.19.26-.19s.23.12.3.17l.74.62a.51.51,0,0,1,.21.34c0,.19-.23.34-.55.49a6.17,6.17,0,0,0,0,.7c0,.64.15,3.45.15,4a.77.77,0,0,1-.87.87c-.49,0-.49-.24-.47-.64h-4.48c0,.43,0,.87-.85.87-.32,0-.49-.1-.49-.44,0,0,0-.18,0-.45,0-.7,0-2.73,0-3.56a12,12,0,0,0-.21-3l1.49.66Zm-4.29.45V141h4.48v-1.34Zm0,1.79v1.36h4.48v-1.36Zm0,1.81v1.4h4.48v-1.4Zm3.16,2.57c1.7.15,4.09,1,4.09,2.13a.76.76,0,0,1-.75.73c-.43,0-.87-.47-1.19-.83a9.2,9.2,0,0,0-2.15-1.9Z"/><path class="cls-3" d="M145.75,129.63l-.24,6.79a5.7,5.7,0,0,1,4.17-1.86c3.88,0,5.74,3.21,5.74,6.17a6.85,6.85,0,0,1-6.65,7c-3.07,0-5.09-2.29-5.09-4a1.52,1.52,0,0,1,1.56-1.67,1.33,1.33,0,0,1,1.4,1.4,2.72,2.72,0,0,1-.14.81,4.27,4.27,0,0,0-.08.75c0,1.16,1.22,1.75,2.29,1.75,2.18,0,4.23-2.07,4.23-5.68,0-3.42-1.8-5.31-3.77-5.31a5.86,5.86,0,0,0-4.2,2.35l-.4-.22.4-10.39h9.37l-.54,2.12Z"/><path class="cls-3" d="M167.16,139.36a4.53,4.53,0,0,1-2.34.7c-2.67,0-4.82-2.7-4.82-6,0-3.72,2.66-7.09,5.76-7.09s6.2,3.5,6.2,9.3c0,6.22-3.51,11.39-7.63,11.39-1.8,0-3.07-1.08-3.07-2.35a1.35,1.35,0,0,1,1.38-1.4c.53,0,1.42.35,1.48,1.86,0,.59.08,1,.81,1a2.64,2.64,0,0,0,2-.94c2.4-2.64,2.53-6.63,2.64-9A7,7,0,0,1,167.16,139.36Zm.89-10a2.68,2.68,0,0,0-2.18-1.45c-1.43,0-3.45,1.51-3.45,5.92,0,1.24.3,5,3.07,5,1,0,2.75-.75,4-3.66C169.4,133.7,169.18,131.11,168.05,129.36Z"/><path class="cls-3" d="M179.74,146.12a1.57,1.57,0,1,1-1.56-1.57A1.58,1.58,0,0,1,179.74,146.12Z"/><path class="cls-3" d="M186.55,129.63l-.24,6.79a5.7,5.7,0,0,1,4.17-1.86c3.88,0,5.74,3.21,5.74,6.17a6.85,6.85,0,0,1-6.65,7c-3.07,0-5.09-2.29-5.09-4a1.52,1.52,0,0,1,1.56-1.67,1.33,1.33,0,0,1,1.4,1.4,3,3,0,0,1-.13.81,3.55,3.55,0,0,0-.09.75c0,1.16,1.22,1.75,2.29,1.75,2.19,0,4.23-2.07,4.23-5.68,0-3.42-1.8-5.31-3.77-5.31a5.86,5.86,0,0,0-4.2,2.35l-.4-.22.4-10.39h9.37l-.54,2.12Z"/><path class="cls-3" d="M212.86,141.75a6,6,0,0,1-6.35,5.93c-3.07,0-5.82-1.78-5.82-4.85,0-2.91,2.32-4.28,4.8-5.74-1.43-.83-4-2.34-4-5.28,0-2.66,2.1-4.82,5.39-4.82,3.69,0,4.93,2.75,4.93,4.26,0,2.29-2.21,4-3.37,4.82C211,137.63,212.86,139,212.86,141.75Zm-9.91,1a3.88,3.88,0,0,0,3.88,4,4.2,4.2,0,0,0,4.1-4.07c0-2.55-2.67-4.06-4.64-5.17C205.08,138.44,203,140.08,203,142.75Zm6.87-11.21a3.39,3.39,0,0,0-3.34-3.63,3.11,3.11,0,0,0-3.18,3.2c0,1.89,1.54,2.83,4.34,4.5A5.12,5.12,0,0,0,209.82,131.54Z"/><path class="cls-2" d="M220,137.89v1.49a4.24,4.24,0,0,1,3.11-1.49,2.1,2.1,0,0,1,2.27,1.7,4.68,4.68,0,0,1,3.37-1.7c1.66,0,2.41,1,2.41,3.09v4.45c0,.72.38,1.13.94,1.13h.34v.61h-3.94v-.61h.36c.66,0,.94-.51.94-1.13V141.1c0-.53-.07-2.4-1.64-2.4a3.58,3.58,0,0,0-2.67,1.64,4.21,4.21,0,0,1,0,.64v4.45c0,.79.43,1.13.94,1.13H227v.61h-4.34v-.61h.55c.52,0,1-.36,1-1.13V141.1c0-.4-.06-2.4-1.64-2.4a3.38,3.38,0,0,0-2.55,1.49v5.24c0,.79.44,1.13,1,1.13h.34v.61h-3.92v-.61h.34c.56,0,.94-.39.94-1.13v-5.67a.78.78,0,0,0-.77-.89,1.57,1.57,0,0,0-.57.08l-.09-.36Zm9.75-1.11a10.49,10.49,0,0,1,1.09-1.2,3.37,3.37,0,0,0,1.07-1.83c0-.25-.15-.7-.58-.7a.62.62,0,0,0-.64.51c0,.08.17.41.17.49a.52.52,0,0,1-.53.49.58.58,0,0,1-.56-.64,1.59,1.59,0,0,1,1.65-1.36,1.27,1.27,0,0,1,1.38,1.28,1.54,1.54,0,0,1-.58,1.23c-.21.21-1.38,1.15-1.57,1.41h1.17c.49,0,.64-.38.74-.64l.3.1-.4,1.3h-2.71Z"/><path class="cls-2" d="M243.58,149.13a11.55,11.55,0,0,1,0-18.25l.17.27a12.72,12.72,0,0,0,0,17.71Z"/><path class="cls-2" d="M255.42,135a.38.38,0,0,1,.24.34c0,.17-.2.28-.79.4-.24.3-.77.92-1.58,1.92s-1.34,1.56-1.85,2.09c.1,0,1.68-.07,2.68-.21a5.35,5.35,0,0,0-.78-1.07l.1-.11c1.47.56,2.6,1.41,2.6,2.28a.72.72,0,0,1-.72.77c-.45,0-.64-.23-.81-.87,0-.05-.09-.32-.21-.6l-1.71.38c0,.81.06,4.67.06,5s.07,2.07.07,2.41a.85.85,0,0,1-.9.81c-.4,0-.51-.25-.51-.57s.07-1.54.07-1.8c0-.61,0-2.45.06-5.64l-2.37.53c-.12.19-.31.55-.47.55s-.31-.23-.34-.34l-.42-1.61a6.34,6.34,0,0,0,1.34.14c.58,0,1.45,0,1.75,0a24.86,24.86,0,0,0,2.7-4.88,2.63,2.63,0,0,0,.11-.76ZM248,147.39a15.26,15.26,0,0,0,1.32-5.5l1.55.56c.13.06.26.17.26.27s-.11.22-.6.41a11.58,11.58,0,0,1-2.43,4.32Zm.72-12.38a8.54,8.54,0,0,1,1.62.53,10.23,10.23,0,0,0,1.24-4.22l1.79.88a.35.35,0,0,1,.23.29c0,.28-.28.33-.72.41-.88,1.13-1,1.3-2.3,2.77a2,2,0,0,1,1.12,1.49.85.85,0,0,1-.78.9c-.43,0-.54-.22-1-1.15a5.08,5.08,0,0,0-1.26-1.79Zm4.45,7.18c.77.34,2.65,1.19,2.65,2.47a.86.86,0,0,1-.83.92c-.5,0-.6-.37-.84-1.24a5.4,5.4,0,0,0-1-2.07Zm9-6.09.57-.52c.09-.1.21-.21.26-.21s.21.11.27.17l.9.77a.41.41,0,0,1,.17.28c0,.14-.36.4-.7.64-.11,5.22-.15,7.56-1.15,9.48a3.28,3.28,0,0,1-2.92,1.85,3.27,3.27,0,0,0-1.71-2.13l0-.11a18.45,18.45,0,0,0,2.5.37c1.91,0,2-6.21,2-8.16,0-.32,0-1.65,0-2h-5.08a10.89,10.89,0,0,1-1.85,2.69l-.11-.07a20.13,20.13,0,0,0,2-6.94,5.45,5.45,0,0,0-.09-.72l2,.87a.3.3,0,0,1,.21.27c0,.18-.28.32-.74.52a19.67,19.67,0,0,1-1.24,2.92ZM257,139.7c1.79.74,2.68,1.34,2.68,2.36a.78.78,0,0,1-.76.88c-.49,0-.64-.2-1.05-1.5a4.73,4.73,0,0,0-.95-1.62Z"/><path class="cls-2" d="M269.48,146.56h1c1,0,1.32-.37,1.32-1.15V135.22c0-.59-.55-.68-.91-.68H269.5V134h.34a7.06,7.06,0,0,0,3.07-.8.6.6,0,0,1,.27-.11c.17,0,.2.11.2.26v12.1c0,.81.4,1.15,1.32,1.15h1v.61h-6.26Z"/><path class="cls-2" d="M288.37,143.38a4.2,4.2,0,0,1-4.45,4.14c-2.15,0-4.07-1.24-4.07-3.39s1.62-3,3.36-4c-1-.59-2.81-1.64-2.81-3.7a3.46,3.46,0,0,1,3.77-3.37,3.17,3.17,0,0,1,3.45,3c0,1.6-1.55,2.77-2.36,3.37C287,140.49,288.37,141.44,288.37,143.38Zm-6.94.7a2.72,2.72,0,0,0,2.72,2.8A2.93,2.93,0,0,0,287,144c0-1.79-1.86-2.85-3.24-3.62C282.92,141.06,281.43,142.21,281.43,144.08Zm4.81-7.84a2.38,2.38,0,0,0-2.34-2.55,2.18,2.18,0,0,0-2.22,2.24c0,1.32,1.07,2,3,3.15A3.57,3.57,0,0,0,286.24,136.24Z"/><path class="cls-2" d="M293.75,146.43a1.1,1.1,0,1,1-1.1-1.09A1.11,1.11,0,0,1,293.75,146.43Z"/><path class="cls-2" d="M301.17,147.52a3.81,3.81,0,0,1-3.09-2,11.75,11.75,0,0,1-1.15-5.37c0-4,1.72-7.07,4.24-7.07,1.94,0,4.24,2.09,4.24,7.24C305.41,144.9,303.47,147.52,301.17,147.52Zm-2.11-11.32a17.23,17.23,0,0,0-.43,4.09c0,4.2,1,6.59,2.54,6.59,1.3,0,1.89-1.73,2.09-2.45a17.11,17.11,0,0,0,.45-4.14c0-4.3-1-6.6-2.54-6.6C299.83,133.69,299.25,135.54,299.06,136.2Z"/><path class="cls-2" d="M315.86,147.17h-7.41v-.51a12.7,12.7,0,0,1,2.77-4.22c2.77-3.21,3.71-4.28,3.71-6.17a2.42,2.42,0,0,0-2.5-2.58c-1.32,0-2.11.79-2.11,1.47a1.1,1.1,0,0,0,.18.59,1.57,1.57,0,0,1,.4.94,1,1,0,0,1-1,1.05,1.19,1.19,0,0,1-1.07-1.32,3.77,3.77,0,0,1,4.05-3.37,3.44,3.44,0,0,1,3.77,3.51c0,1.9-1.09,2.94-2.79,4.39a16.13,16.13,0,0,0-4.07,4.73h2.6c2.64,0,3.26-1,3.83-2.58l.56.2Z"/><path class="cls-2" d="M324.43,144c-1.47.58-2.16.86-2.79,1.13-.11.28-.22.6-.47.6-.09,0-.22-.09-.32-.28l-.92-1.75a4.32,4.32,0,0,0,.68.07,10.08,10.08,0,0,0,2.2-.36V136.9a12.48,12.48,0,0,0-2.26.16l-.38-.75c.93.08,1.53.11,2.64.13,0-3.71-.15-4.27-.34-5l1.81.57c.25.07.4.15.4.33s0,.23-.53.57c0,.57,0,3,0,3.54h.46l.6-.9c.09-.13.19-.23.28-.23a.58.58,0,0,1,.34.21l.87.89c.09.11.19.18.19.28s-.15.21-.29.21h-2.45c0,.22,0,5.93,0,6.29l3.58-.77v.13A27.56,27.56,0,0,1,324.43,144Zm12.86-2.41h-5.15c0,2.33,0,2.6.06,3.46,0,.38.11,2.23.11,2.64a1,1,0,0,1-1,1c-.62,0-.62-.49-.62-.73s.1-3.94.1-4.68c0-.24,0-1.41,0-1.67h-2.69a12.86,12.86,0,0,0-2.21.16l-.37-.75c1,.08,1.92.13,2.9.13h2.37c0-4,0-4.26,0-7.95h-2.11a13.21,13.21,0,0,0-2.22.17l-.36-.75c1,.09,1.92.13,2.88.13h5.19l.56-.91c.1-.17.19-.24.27-.24s.18.06.35.19l1.17.92c.1.08.19.15.19.28s-.19.21-.28.21h-4.37c.05,2.21,0,5.75.05,7.95h2.66l.68-1.09c.05-.09.15-.25.26-.25s.21.08.36.21l1.3,1.1a.36.36,0,0,1,.19.28C337.57,141.61,337.38,141.63,337.29,141.63Zm-8.5-2.32c-.53,0-.61-.29-.91-1.59a7.46,7.46,0,0,0-1.17-2.71l.1-.09c1.13.54,2.81,2,2.81,3.39A.9.9,0,0,1,328.79,139.31Zm7-3.32a38.5,38.5,0,0,1-2.9,3.58l-.1,0a20.84,20.84,0,0,0,1.75-5.22l1.66.87a.5.5,0,0,1,.25.38C336.44,135.76,336.38,135.78,335.78,136Z"/><path class="cls-2" d="M341.7,149.13l-.17-.27a12.72,12.72,0,0,0,0-17.71l.17-.27a11.55,11.55,0,0,1,0,18.25Z"/><path class="cls-4" d="M76.4,27.49v4.87q2.71-4.87,5.58-4.87a3,3,0,0,1,2.16.79A2.43,2.43,0,0,1,85,30.12a2.18,2.18,0,0,1-.62,1.56,2,2,0,0,1-1.46.64,3.13,3.13,0,0,1-1.86-.82,3.15,3.15,0,0,0-1.53-.82,1.4,1.4,0,0,0-.92.48,11.15,11.15,0,0,0-2.2,3.19V44.74a6.48,6.48,0,0,0,.45,2.73,2.38,2.38,0,0,0,1.09,1.06,4.81,4.81,0,0,0,2.24.43v.85H69.08V49a4.64,4.64,0,0,0,2.46-.52,2,2,0,0,0,.83-1.21,12,12,0,0,0,.12-2.3v-8.4A35.87,35.87,0,0,0,72.34,32,1.83,1.83,0,0,0,71.77,31a1.61,1.61,0,0,0-1-.33,4.62,4.62,0,0,0-1.66.35l-.23-.85,6.55-2.65Z"/><path class="cls-4" d="M0,0H15.49L50.37,42.8V9.89q0-5.26-1.18-6.57-1.56-1.75-4.92-1.76h-2V0H62.15V1.56h-2q-3.62,0-5.13,2.19-.93,1.33-.93,6.14V58H52.56L14.94,12V47.17q0,5.27,1.14,6.57A6.29,6.29,0,0,0,21,55.5h2v1.56H3.16V55.5h2c2.45,0,4.17-.73,5.18-2.18q.93-1.35.93-6.15V7.49A25.94,25.94,0,0,0,7.47,3.66,13.69,13.69,0,0,0,3.7,1.94,13.05,13.05,0,0,0,0,1.56Z"/><path class="cls-5" d="M113.76,42.11l.18,3.77h-.45a4.52,4.52,0,0,0-.36-1.42,2.36,2.36,0,0,0-1-1,3.47,3.47,0,0,0-1.6-.32h-2.26V55.38a3.33,3.33,0,0,0,.32,1.85,1.77,1.77,0,0,0,1.38.49h.56v.44h-6.8v-.44h.56a1.65,1.65,0,0,0,1.45-.61,3.67,3.67,0,0,0,.26-1.73V43.12h-1.93a5.48,5.48,0,0,0-1.6.16,2.17,2.17,0,0,0-1,.87,3.44,3.44,0,0,0-.52,1.73h-.45l.19-3.77Z"/><path class="cls-5" d="M127.54,42.11h5.6v.44h-.31a2.49,2.49,0,0,0-.9.27,3.46,3.46,0,0,0-1.07.78,11,11,0,0,0-1.2,1.66l-3.87,6.1v4a3.21,3.21,0,0,0,.33,1.85,1.84,1.84,0,0,0,1.42.49h.53v.44h-6.82v-.44h.57a1.63,1.63,0,0,0,1.44-.61,3.67,3.67,0,0,0,.26-1.73v-3.8l-4.4-6.72a15.19,15.19,0,0,0-1.06-1.48,4,4,0,0,0-1.16-.71,1.5,1.5,0,0,0-.68-.12v-.44h6.86v.44h-.35a2.13,2.13,0,0,0-1,.26.83.83,0,0,0-.46.78,3.71,3.71,0,0,0,.72,1.54l3.35,5.17,3.15-4.95a3.69,3.69,0,0,0,.71-1.65,1,1,0,0,0-.18-.59,1.05,1.05,0,0,0-.49-.41,2.34,2.34,0,0,0-1-.15Z"/><path class="cls-5" d="M139.92,50.65v4.67a3.27,3.27,0,0,0,.33,1.88,1.71,1.71,0,0,0,1.37.52h.61v.44h-6.88v-.44H136a1.6,1.6,0,0,0,1.45-.66,3.83,3.83,0,0,0,.24-1.74V45a3.41,3.41,0,0,0-.32-1.88,1.72,1.72,0,0,0-1.37-.52h-.61v-.44h5.89a10.28,10.28,0,0,1,3.39.45,4.65,4.65,0,0,1,2.1,1.49,3.86,3.86,0,0,1,.85,2.5,4.2,4.2,0,0,1-1.3,3.2A5.09,5.09,0,0,1,142.62,51a9.42,9.42,0,0,1-1.25-.09C140.92,50.84,140.44,50.76,139.92,50.65Zm0-.68c.42.08.79.14,1.12.18a6.72,6.72,0,0,0,.82.06,2.83,2.83,0,0,0,2.13-1,3.46,3.46,0,0,0,.89-2.46,4.51,4.51,0,0,0-.42-1.94,3,3,0,0,0-1.21-1.34,3.59,3.59,0,0,0-1.78-.44,7.06,7.06,0,0,0-1.55.23Z"/><path class="cls-5" d="M155,43v6.34h3.53a2.9,2.9,0,0,0,1.83-.41A2.69,2.69,0,0,0,161,47h.44v5.59H161a6.22,6.22,0,0,0-.33-1.51,1.53,1.53,0,0,0-.7-.65,3.53,3.53,0,0,0-1.49-.23H155v5.29a4.45,4.45,0,0,0,.1,1.29.7.7,0,0,0,.33.37,2.06,2.06,0,0,0,.9.13H159a7.76,7.76,0,0,0,2-.18,3,3,0,0,0,1.18-.75,9.12,9.12,0,0,0,1.5-2.21h.48l-1.39,4H150.38v-.44H151a2.28,2.28,0,0,0,1.08-.27,1,1,0,0,0,.51-.57,5.54,5.54,0,0,0,.14-1.55V44.91a3.44,3.44,0,0,0-.31-1.89,1.85,1.85,0,0,0-1.42-.47h-.57v-.44h12.37l.18,3.52h-.46a5.59,5.59,0,0,0-.55-1.74,1.82,1.82,0,0,0-.9-.72,5.26,5.26,0,0,0-1.67-.18Z"/><path class="cls-2" d="M28.18,119H6.75v-1.47c1.09-3.44,3.65-7.26,8-12.22,8-9.27,10.74-12.38,10.74-17.83,0-4.09-2.62-7.47-7.25-7.47-3.82,0-6.11,2.29-6.11,4.25a3,3,0,0,0,.55,1.69,4.74,4.74,0,0,1,1.14,2.73,3,3,0,0,1-2.94,3c-1.91,0-3.11-1.8-3.11-3.82,0-4,3.87-9.76,11.72-9.76,6.76,0,10.91,4.26,10.91,10.15,0,5.5-3.16,8.5-8.07,12.7-1.86,1.53-9.06,7.69-11.78,13.69h7.52c7.64,0,9.44-2.94,11.08-7.47l1.63.6Z"/><path class="cls-2" d="M51.3,90H49.85a2.67,2.67,0,0,0-3,2.87v21.89a2.67,2.67,0,0,0,3,2.87H51a12.63,12.63,0,0,0,11.26-6.86l1.08.54-3,7.65H39.21v-1.33h1.42a2.7,2.7,0,0,0,3-2.87V92.89a2.68,2.68,0,0,0-3-2.87H39.21V88.65H51.3Z"/><path class="cls-2" d="M70,88.65H82c9.72,0,15.74,5,15.74,14.95C97.71,110.71,94,119,82.34,119H70v-1.33h1.41a2.69,2.69,0,0,0,3-2.87V92.89a2.69,2.69,0,0,0-3-2.87H70Zm7.69,26.13a2.67,2.67,0,0,0,3,2.87h2c7.52,0,11.3-6.73,11.3-14.38C94,98,91.81,90,82.84,90H80.68a2.67,2.67,0,0,0-3,2.87Z"/><path class="cls-2" d="M119.57,100.28,128.79,115a5.87,5.87,0,0,0,4.9,2.62h.58V119H122.52v-1.33h1a1.51,1.51,0,0,0,1.66-1.37,3.36,3.36,0,0,0-.58-1.71l-7.35-11.75-3.95,4.28v7.68a2.7,2.7,0,0,0,3,2.87h1.17V119H105.9v-1.33h1.16a2.67,2.67,0,0,0,3-2.87V92.89a2.67,2.67,0,0,0-3-2.87H105.9V88.65h11.55V90h-1.17a2.7,2.7,0,0,0-3,2.87v12.25l11.34-12.38a2,2,0,0,0,.54-1.33c0-1.2-1.28-1.41-2.2-1.41h-1.08V88.65h11.72V90h-.75a8.16,8.16,0,0,0-6.65,3Z"/><path class="cls-2" d="M141,108.65h4.5v-4.48h.93v4.48H151v.92h-4.49V114h-.93v-4.45H141Z"/><path class="cls-2" d="M161.94,100.88h-.65c-1.12,0-1.51.44-1.51,1.19a5.59,5.59,0,0,0,.24,1.3l3.06,11.79,3.64-12c-.5-1.56-.89-2.26-2.26-2.26h-.55V100h7v.86H170a1.14,1.14,0,0,0-1.3,1.24,5.77,5.77,0,0,0,.26,1.51l3.23,11.43,3-11.9a4.66,4.66,0,0,0,.16-1c0-.94-.86-1.27-1.59-1.27h-.83V100H179v.86h-.49c-1.48,0-2.08.85-2.41,2.18l-4.13,16.41h-.63l-4.18-14.85-4.49,14.85h-.55L157.83,103c-.46-1.82-1.24-2.13-2.1-2.13h-.65V100h6.86Z"/><path class="cls-2" d="M191.54,100.88h-1.25a1.66,1.66,0,0,0-1.84,1.79v13.69a1.67,1.67,0,0,0,1.84,1.79h1.25V119h-8.23v-.83h1.22a1.69,1.69,0,0,0,1.87-1.79V102.67a1.67,1.67,0,0,0-1.87-1.79h-1.22V100h8.23Z"/><path class="cls-2" d="M210.52,104.67c-1-1.46-2.83-4.29-6.31-4.29-4.15,0-6.21,4.24-6.21,8.76,0,5,2.45,9.14,6.81,9.14,3.69,0,5.5-3.38,6.18-4.7l.7.41c-1,2-2.83,5.48-7.66,5.48-5.48,0-8.16-4.44-8.16-9.55,0-6.08,3.77-10.39,8.16-10.39a7.39,7.39,0,0,1,2.18.31c.21,0,1.43.39,1.58.39a3.68,3.68,0,0,0,1.75-.63l1.84,4.68Z"/><path class="cls-2" d="M216.46,108.65H221v-4.48h.93v4.48h4.49v.92H221.9V114H221v-4.45h-4.51Z"/><path class="cls-2" d="M242.75,104.1l-.78.31c-.83-1.46-2.34-4-5.66-4a3.32,3.32,0,0,0-3.56,3.43c0,2.16,1.56,3,5,4.16a19.36,19.36,0,0,1,2.55,1.09c2,1,3.4,2.26,3.4,4.8a5.5,5.5,0,0,1-5.64,5.61,9.06,9.06,0,0,1-2.77-.52,2.85,2.85,0,0,0-1.07-.26,4.75,4.75,0,0,0-2.08.73l-1.92-5,1-.47a9.21,9.21,0,0,0,2.05,2.7,7.26,7.26,0,0,0,4.67,1.92,3.75,3.75,0,0,0,3.85-3.92c0-2.39-1.53-3.22-4.83-4.36-3.66-1.25-6-2.6-6-5.72a4.9,4.9,0,0,1,5.22-5,9,9,0,0,1,1.85.2,13,13,0,0,0,1.55.29,1.82,1.82,0,0,0,1.46-.49Z"/><path class="cls-2" d="M255.92,100.88h-1.25a1.66,1.66,0,0,0-1.84,1.79v13.69a1.66,1.66,0,0,0,1.84,1.79h1.25V119h-8.24v-.83h1.22a1.68,1.68,0,0,0,1.87-1.79V102.67a1.67,1.67,0,0,0-1.87-1.79h-1.22V100h8.24Z"/><path class="cls-2" d="M274.9,104.67c-1-1.46-2.83-4.29-6.31-4.29-4.16,0-6.21,4.24-6.21,8.76,0,5,2.44,9.14,6.8,9.14,3.69,0,5.51-3.38,6.19-4.7l.7.41c-1,2-2.83,5.48-7.66,5.48-5.49,0-8.16-4.44-8.16-9.55,0-6.08,3.77-10.39,8.16-10.39a7.43,7.43,0,0,1,2.18.31c.2,0,1.42.39,1.58.39a3.61,3.61,0,0,0,1.74-.63l1.84,4.68Z"/><path class="cls-2" d="M148.59,87.69c-.17.11-.19.14-.3.61a7.13,7.13,0,0,1-1.76,3.63,4.92,4.92,0,0,1-1.94,1.33l0-.07a7.17,7.17,0,0,0,2.66-3.44,12.86,12.86,0,0,0,.6-2.29c0-.09,0-.11-.15-.11-.71,0-1.79.07-2.5.15l-1,.13a1.24,1.24,0,0,1-.29-.12c0,.18.07,1.95.07,2.1s-.08.42-.19.42-.44-.28-.44-.7c0-1.94,0-2.14-.55-2.51a2.19,2.19,0,0,1,.42,0c.22,0,.28,0,.61.27a.62.62,0,0,0,.39.1l1.38-.11a12.44,12.44,0,0,0-.07-1.3c-.07-.17-.13-.23-.73-.4a.94.94,0,0,1,.63-.32c.23,0,.9.26.9.53a4.55,4.55,0,0,1-.13.49,6.71,6.71,0,0,0-.07,1l1.41-.09a.78.78,0,0,0,.44-.22c.08-.08.1-.1.15-.1a2.93,2.93,0,0,1,.73.86C148.83,87.52,148.76,87.59,148.59,87.69Z"/><path class="cls-2" d="M154.05,88.84l-.27,0a3.75,3.75,0,0,0-.71-.07,4.54,4.54,0,0,0-.66,0c0,1.65,0,2,0,2.52,0,.13,0,.66,0,.77,0,.49-.22,1.06-.44,1.06s-.14-.07-.23-.37-.11-.36-.76-.93l0-.09a2.29,2.29,0,0,0,.78.29c.07,0,.13,0,.14-.22s0-1,0-2.24a6.69,6.69,0,0,1-2.81,2.7l0-.11a9.67,9.67,0,0,0,2.68-3.31,7,7,0,0,0-1.5.32,2.58,2.58,0,0,1-.31.13,1,1,0,0,1-.66-.87,1.74,1.74,0,0,1,0-.34.8.8,0,0,0,.69.57c.26,0,1.18-.11,1.89-.19,0-1.51,0-1.66-.65-1.82.15-.13.26-.24.44-.24s.82.29.82.52a4,4,0,0,1-.15.4,5.46,5.46,0,0,0,0,1.08c.07,0,.82-.11.84-.13a2.54,2.54,0,0,1,.37-.1s.64.1.64.46A.19.19,0,0,1,154.05,88.84Z"/><path class="cls-2" d="M161.17,89.31l-.31,0a7.39,7.39,0,0,0-1-.05,16.63,16.63,0,0,0-3.9.2l-.34.1c-.23,0-.71-.69-.71-1.19a1.49,1.49,0,0,1,.11-.52c.3.82.58.82,1.5.82.61,0,3.49,0,3.9-.13.05,0,.31-.09.36-.09s.94.11.94.53S161.28,89.31,161.17,89.31Z"/><path class="cls-2" d="M167.5,87.28c-.21.11-.29.21-.48.67a9.94,9.94,0,0,1-3.14,4.39,5.32,5.32,0,0,1-1.74.91v-.07a12.56,12.56,0,0,0,4.54-6.2c-.37,0-1,.15-1.34.22l-.28,0a.85.85,0,0,1-.45-.18,7.06,7.06,0,0,1-2.35,2.5l0-.09a10.49,10.49,0,0,0,2.31-3.9c0-.11,0-.19-.49-.54a1.3,1.3,0,0,1,.44-.08c.35,0,1,.49,1,.77,0,.1,0,.15-.21.35s-.31.46-.43.63a5.76,5.76,0,0,0,1.74-.19c.08,0,.38-.32.47-.32s.73.64.73.85S167.75,87.14,167.5,87.28Z"/><path class="cls-2" d="M173.06,85.73a2.54,2.54,0,0,0-.34.34l-1.27,1.62c.14.09.44.32.44.47a2,2,0,0,1-.11.4s0,.89,0,1.1c0,.49,0,2.62,0,3,0,.23,0,.67-.27.67s-.47-.59-.47-.82.08-.51.09-.6a17.56,17.56,0,0,0,.1-1.93c0-.37,0-1.54-.07-1.71a.33.33,0,0,0-.11-.2,10,10,0,0,1-3.13,2.49l0,0c2.06-1.66,4.4-4.92,4.4-5.39,0-.26-.1-.34-.46-.65a1,1,0,0,1,.36-.07,1.42,1.42,0,0,1,1.1,1C173.3,85.54,173.28,85.56,173.06,85.73Z"/><path class="cls-2" d="M176.5,87.2c-.15,0-.26-.13-.54-.48a4.45,4.45,0,0,0-1.45-1.22c1.06-.09,2.32.37,2.32,1.27C176.83,87,176.68,87.2,176.5,87.2Zm.77,3.69c-.18.18-1,.91-1.17,1.09l-.28.38a.24.24,0,0,1-.15.06c-.31,0-.9-.9-.9-1.41a1.78,1.78,0,0,1,.09-.47c.21.48.46.71.65.71a10.11,10.11,0,0,0,2.05-1.6,18.68,18.68,0,0,0,2.82-3.25l.05,0A11.48,11.48,0,0,1,177.27,90.89Z"/><path class="cls-2" d="M185.77,87.28c-.2.11-.28.21-.48.67a9.94,9.94,0,0,1-3.14,4.39,5.37,5.37,0,0,1-1.73.91l0-.07a12.56,12.56,0,0,0,4.54-6.2c-.37,0-1,.15-1.33.22l-.29,0a.91.91,0,0,1-.45-.18,7,7,0,0,1-2.35,2.5l0-.09a10.49,10.49,0,0,0,2.31-3.9c0-.11,0-.19-.49-.54a1.33,1.33,0,0,1,.44-.08c.35,0,1,.49,1,.77,0,.1,0,.15-.2.35s-.32.46-.44.63a5.76,5.76,0,0,0,1.74-.19c.08,0,.38-.32.47-.32s.73.64.73.85S186,87.14,185.77,87.28Z"/><path class="cls-2" d="M192.49,87c-.2.17-.21.18-.34,1s-.3,2-.42,2.56a.5.5,0,0,0,0,.12c0,.07,0,.09.17.22s.28.25.28.4a.23.23,0,0,1-.24.26l-.17,0a7.48,7.48,0,0,0-1.58-.1,15.55,15.55,0,0,0-2,.12c0,.21,0,.6-.24.6s-.46-.75-.46-1c0-.08,0-.41,0-.47a31,31,0,0,0-.27-3.85c-.09-.38-.24-.49-.6-.65A.81.81,0,0,1,187,86c.23,0,.36.09.79.4a.42.42,0,0,0,.28.08l.63-.06c.42,0,2.24-.16,2.6-.24a.67.67,0,0,0,.46-.24c0-.07.09-.08.12-.08a2.45,2.45,0,0,1,.78.87C192.7,86.79,192.64,86.85,192.49,87Zm-1.1-.29c-.25,0-1.39.08-2.43.21-.09,0-.53.08-.63.08s-.35-.13-.42-.13,0,0,0,.1.2,4.06.2,4.08c.28,0,2.76-.16,3.12-.19,0-.36.37-3.29.37-3.91C191.56,86.8,191.53,86.68,191.39,86.68Z"/><path class="cls-2" d="M199.69,89.31l-.31,0a7.39,7.39,0,0,0-1-.05,16.68,16.68,0,0,0-3.91.2l-.33.1c-.23,0-.71-.69-.71-1.19a1.64,1.64,0,0,1,.1-.52c.31.82.58.82,1.5.82.61,0,3.5,0,3.9-.13.06,0,.31-.09.37-.09s.94.11.94.53S199.79,89.31,199.69,89.31Z"/><path class="cls-2" d="M207.32,88a.45.45,0,0,0-.35.19,10.34,10.34,0,0,1-1.59,1.51l0-.07a9.86,9.86,0,0,0,1.1-2c-.63.22-1.75.66-2.62,1,0,.25,0,.81,0,1.47,0,1.64,0,1.91,1.17,1.91a3.28,3.28,0,0,0,1.32-.23,1,1,0,0,1,.31,0c.43,0,.76.17.76.43a.33.33,0,0,1-.21.31,4.37,4.37,0,0,1-1.58.19c-2.24,0-2.28-.61-2.28-2.74,0-.52,0-.85,0-1.09-.22.1-1.19.44-1.37.57s-.29.22-.4.22a1.3,1.3,0,0,1-.76-1.13,1.08,1.08,0,0,1,.1-.46c.17.36.35.72.7.72a2.07,2.07,0,0,0,.5-.1l1.24-.41c0-1.55,0-1.87,0-1.95,0-.75-.17-.82-.78-1.05a1.06,1.06,0,0,1,.61-.29c.32,0,1,.26,1,.58a1.94,1.94,0,0,1-.11.43,20.91,20.91,0,0,0-.21,2.11,13,13,0,0,0,2.57-.94l.23-.24a.18.18,0,0,1,.13-.08c.09,0,.92.65.92,1S207.68,87.92,207.32,88Zm-.13-1.56c-.12,0-.16,0-.5-.43a4.84,4.84,0,0,0-.89-.76c1.22,0,1.61.49,1.61.89C207.41,86.34,207.31,86.45,207.19,86.45Zm.84-.67c-.09,0-.1,0-.4-.36a4,4,0,0,0-1-.84c.3,0,1.65,0,1.65.92C208.23,85.54,208.23,85.78,208,85.78Z"/><path class="cls-2" d="M209.13,89.38c-.2,0-.29-.24-.38-.51a5.42,5.42,0,0,0-.65-1.17c.58.11,1.28.69,1.28,1.29C209.38,89.2,209.29,89.38,209.13,89.38Zm3.65-1.08c-.05.07-.42,1-.5,1.2-1.27,2.92-2.85,3.43-3.47,3.63l0-.1c2.66-1.51,3.42-5,3.42-5.11s-.35-.51-.47-.58a1.41,1.41,0,0,1,.39-.08c.38,0,.84.57.84.7S213,88.07,212.78,88.3Zm-2.13.62c-.18,0-.21-.1-.36-.59a4.75,4.75,0,0,0-.53-1.11,1.73,1.73,0,0,1,1.16,1.28C210.92,88.73,210.82,88.92,210.65,88.92Z"/><path class="cls-2" d="M217.05,90.16c-.13,0-.24-.14-.39-.32a4.72,4.72,0,0,0-1.88-1.77c0,.42,0,2.3,0,2.68s0,1.52,0,1.77,0,.86-.35.86-.41-.62-.41-.9a6.4,6.4,0,0,1,.06-.73c.11-.85.12-2.55.12-3.46,0-.47,0-2.61-.08-3s-.25-.34-.71-.53a1.08,1.08,0,0,1,.58-.26c.13,0,1,.22,1,.57,0,.08-.1.45-.12.54a16.23,16.23,0,0,0-.13,2.17A4.54,4.54,0,0,1,217.07,89a1.08,1.08,0,0,1,.27.72C217.34,90.06,217.16,90.16,217.05,90.16Z"/><path class="cls-2" d="M228.26,88.87c-.13,0-.21-.08-.43-.27a5.41,5.41,0,0,0-1.68-1.07,4.07,4.07,0,0,1,.75-.07c1.07,0,1.6.49,1.6,1C228.5,88.73,228.4,88.87,228.26,88.87Zm.71-2.36c-.1,0-.2-.09-.32-.23A3.94,3.94,0,0,0,227,85.05a3.21,3.21,0,0,1,.55,0c1.14,0,1.65.61,1.65,1.1C229.24,86.26,229.18,86.51,229,86.51Zm-.21,5.62a4.29,4.29,0,0,0-.6.63.35.35,0,0,1-.23.16,1.58,1.58,0,0,1-.86-1.46,1.05,1.05,0,0,1,0-.24c.17.28.56.62.7.62.56,0,3.34-2.74,4.78-5l0,0A12.8,12.8,0,0,1,228.76,92.13Z"/><path class="cls-2" d="M238.67,92a1.58,1.58,0,0,1-.39-.13,3.1,3.1,0,0,0-1.19-.18,10.55,10.55,0,0,0-3.18.47,3,3,0,0,1-.48.23,1.11,1.11,0,0,1-.7-1.09,2,2,0,0,1,0-.22c.2.29.42.56.73.56l.69-.1,2-.24c0-.2.24-1.29.41-3a8.1,8.1,0,0,0-1.38.31c-.11,0-.62.24-.64.24A1.08,1.08,0,0,1,234,88a.85.85,0,0,1,0-.26.7.7,0,0,0,.64.47,11.34,11.34,0,0,0,1.8-.33c.06,0,.24-.24.3-.24s.67.55.67.73,0,.11-.24.27-.1.08-.15.32l-.44,2.34c.19,0,1,0,1.2-.07s.36-.08.42-.08.7.33.7.63A.24.24,0,0,1,238.67,92Z"/><path class="cls-2" d="M245.74,89.31l-.31,0a7.39,7.39,0,0,0-1-.05,16.56,16.56,0,0,0-3.9.2l-.34.1c-.23,0-.71-.69-.71-1.19a1.49,1.49,0,0,1,.11-.52c.3.82.57.82,1.5.82.61,0,3.49,0,3.9-.13,0,0,.31-.09.36-.09s.94.11.94.53S245.85,89.31,245.74,89.31Z"/><path class="cls-2" d="M252.86,92.64c-.19,0-.23-.08-.57-.81a9.25,9.25,0,0,0-1.8-2.38,7.24,7.24,0,0,1-4,3.21v-.07a11.44,11.44,0,0,0,4.76-6.26,10.11,10.11,0,0,0-2.48.67c-.15.12-.2.15-.26.15a1.44,1.44,0,0,1-.62-1,1.31,1.31,0,0,1,.08-.52c.28.59.41.66.64.66a13.63,13.63,0,0,0,2.49-.41c.08,0,.38-.33.45-.33a2.38,2.38,0,0,1,.76.84c0,.11,0,.13-.33.29-.08,0-.11.11-.16.21a12.39,12.39,0,0,1-1.25,2.42c.78.44,2.52,1.66,2.52,2.83C253.12,92.48,253,92.64,252.86,92.64Zm0-6.7c-.11,0-.15-.06-.44-.51a2.84,2.84,0,0,0-.91-.87,1.86,1.86,0,0,1,1.09.31.72.72,0,0,1,.46.71C253.07,85.93,252.91,85.94,252.87,85.94Zm.91-.61c-.11,0-.15,0-.54-.53a3,3,0,0,0-.88-.79c.28,0,1.59.11,1.59,1C254,85.3,253.82,85.33,253.78,85.33Z"/><path class="cls-2" d="M258.78,85.73a2.54,2.54,0,0,0-.34.34l-1.27,1.62c.14.09.44.32.44.47a2,2,0,0,1-.11.4s0,.89,0,1.1c0,.49,0,2.62,0,3,0,.23,0,.67-.27.67s-.47-.59-.47-.82.09-.51.09-.6A17.56,17.56,0,0,0,257,90c0-.37,0-1.54-.07-1.71a.38.38,0,0,0-.1-.2,10.21,10.21,0,0,1-3.13,2.49l0,0c2.06-1.66,4.4-4.92,4.4-5.39,0-.26-.1-.34-.45-.65a.91.91,0,0,1,.35-.07,1.42,1.42,0,0,1,1.1,1C259,85.54,259,85.56,258.78,85.73Z"/><path class="cls-2" d="M262.22,87.2c-.15,0-.26-.13-.54-.48a4.45,4.45,0,0,0-1.45-1.22c1.06-.09,2.32.37,2.32,1.27C262.55,87,262.4,87.2,262.22,87.2Zm.77,3.69c-.18.18-1,.91-1.17,1.09l-.28.38a.24.24,0,0,1-.15.06c-.31,0-.9-.9-.9-1.41a1.78,1.78,0,0,1,.09-.47c.21.48.46.71.65.71a9.84,9.84,0,0,0,2-1.6,18.68,18.68,0,0,0,2.82-3.25l0,0A11.48,11.48,0,0,1,263,90.89Z"/><path class="cls-2" d="M271.49,87.28c-.2.11-.28.21-.48.67a9.94,9.94,0,0,1-3.14,4.39,5.37,5.37,0,0,1-1.73.91l0-.07a12.56,12.56,0,0,0,4.54-6.2c-.37,0-1,.15-1.33.22l-.29,0a.91.91,0,0,1-.45-.18,7,7,0,0,1-2.35,2.5l0-.09a10.49,10.49,0,0,0,2.31-3.9c0-.11,0-.19-.48-.54a1.25,1.25,0,0,1,.43-.08c.35,0,1,.49,1,.77,0,.1,0,.15-.2.35s-.32.46-.44.63a5.76,5.76,0,0,0,1.74-.19c.08,0,.38-.32.47-.32s.74.64.74.85S271.74,87.14,271.49,87.28Z"/><path class="cls-2" d="M278.21,87c-.2.17-.21.18-.34,1s-.3,2-.42,2.56a.5.5,0,0,0,0,.12c0,.07,0,.09.17.22s.28.25.28.4a.23.23,0,0,1-.24.26l-.17,0a7.48,7.48,0,0,0-1.58-.1,15.55,15.55,0,0,0-2.05.12c0,.21,0,.6-.24.6s-.46-.75-.46-1c0-.08,0-.41,0-.47a31,31,0,0,0-.27-3.85c-.09-.38-.24-.49-.6-.65a.84.84,0,0,1,.45-.18c.23,0,.37.09.79.4a.43.43,0,0,0,.28.08l.63-.06c.42,0,2.24-.16,2.6-.24a.67.67,0,0,0,.46-.24c.06-.07.09-.08.12-.08a2.45,2.45,0,0,1,.78.87C278.42,86.79,278.36,86.85,278.21,87Zm-1.1-.29c-.25,0-1.39.08-2.43.21-.09,0-.53.08-.63.08s-.35-.13-.42-.13,0,0,0,.1.2,4.06.2,4.08c.28,0,2.76-.16,3.12-.19,0-.36.37-3.29.37-3.91C277.28,86.8,277.25,86.68,277.11,86.68Z"/><path class="cls-2" d="M285.41,89.31l-.31,0a7.46,7.46,0,0,0-1-.05,16.63,16.63,0,0,0-3.9.2l-.33.1c-.23,0-.71-.69-.71-1.19a1.64,1.64,0,0,1,.1-.52c.31.82.58.82,1.5.82.61,0,3.5,0,3.9-.13.06,0,.31-.09.37-.09s.94.11.94.53S285.51,89.31,285.41,89.31Z"/><path class="cls-2" d="M291.73,87.28c-.2.11-.28.21-.48.67a9.94,9.94,0,0,1-3.14,4.39,5.37,5.37,0,0,1-1.73.91l0-.07A12.56,12.56,0,0,0,290.9,87c-.36,0-1,.15-1.33.22l-.29,0a.91.91,0,0,1-.45-.18,7,7,0,0,1-2.35,2.5l0-.09a10.49,10.49,0,0,0,2.31-3.9c0-.11,0-.19-.48-.54a1.25,1.25,0,0,1,.43-.08c.35,0,1,.49,1,.77,0,.1,0,.15-.2.35s-.32.46-.44.63a5.76,5.76,0,0,0,1.74-.19c.08,0,.38-.32.47-.32s.74.64.74.85S292,87.14,291.73,87.28Z"/></g></g></svg>