<svg xmlns="http://www.w3.org/2000/svg" viewBox="0 0 350 150.43"><defs><style>.cls-1{fill:#fff;}.cls-2{fill:#2f2725;}.cls-3{fill:#8f0019;}.cls-4{fill:#00437c;}.cls-5{fill:#1e1100;}</style></defs><title>thumbs_title_plank_a</title><g id="レイヤー_2" data-name="レイヤー 2"><g id="レイヤー_1-2" data-name="レイヤー 1"><rect class="cls-1" width="350" height="150"/><path class="cls-2" d="M6.37,137.09a.37.37,0,0,1,.2.28c0,.15-.17.3-.51.55,0,.64,0,1.11,0,2.33,0,2.68,0,6,.11,7.35,0,.42,0,.94,0,1.21,0,.71-.17,1.19-1,1.19-.47,0-.66-.19-.66-.64,0-.14.2-3.64.2-4.32s0-2.53.08-6.07a13.65,13.65,0,0,1-3,3.09L1.75,142A33.49,33.49,0,0,0,6,133.66a7.6,7.6,0,0,0,.19-1.11l1.69,1c.15.09.27.18.27.34,0,.33-.38.45-.8.56-.28.6-.58,1.23-1.26,2.49Zm6.76.22v4.75h2.13l.64-.86c.06-.08.19-.23.3-.23a.79.79,0,0,1,.34.19l1.21.86a.48.48,0,0,1,.19.29c0,.2-.17.2-.29.2H13.13v5.73h3.22l.81-1c.1-.11.21-.24.3-.24s.23.11.34.2l1.1,1c.07.07.19.17.19.28s-.17.21-.29.21H9.17a13.64,13.64,0,0,0-2.22.17l-.36-.74c.92.08,2,.11,2.88.11h2.32v-5.73h-1.3a13.49,13.49,0,0,0-2.22.17l-.38-.75c.93.09,2,.13,2.9.13h1v-4.75H9.68a13.43,13.43,0,0,0-2.2.17l-.38-.75c1.55.13,2.68.13,2.88.13h5.75l.68-.9c.11-.17.19-.29.32-.29s.21.12.34.21l1.22.94a.42.42,0,0,1,.19.29c0,.18-.19.2-.28.2Zm-2.43-4.59c.83.37,2.79,1.31,2.79,2.8,0,.44-.19.91-.77.91s-.8-.53-1-1.13a9.19,9.19,0,0,0-1.16-2.47Z"/><path class="cls-2" d="M37.49,139c0,.81.13,4.45.13,5.05a.78.78,0,0,1-.21.62,1.38,1.38,0,0,1-.87.34.53.53,0,0,1-.49-.58c0-.1,0-.49,0-.57H27.16a7.81,7.81,0,0,1-4.43,6.24l-.08-.11c2.3-2.25,3.32-4.43,3.32-9.33a18.09,18.09,0,0,0-.3-3.64l2,.92h8.23l.59-.62a.43.43,0,0,1,.3-.19.56.56,0,0,1,.3.15l1,.72a.47.47,0,0,1,.17.3C38.18,138.56,37.94,138.73,37.49,139Zm2.18-3.81H26a11.59,11.59,0,0,0-2.21.17l-.37-.75c1.28.11,2.65.13,2.9.13H37l.86-1c.12-.13.21-.24.3-.24a.56.56,0,0,1,.34.19l1.28,1c.06.06.17.13.17.27S39.78,135.2,39.67,135.2Zm-3.58,3.21H27.37a45.49,45.49,0,0,1-.14,5h8.86Z"/><path class="cls-2" d="M60.22,145.27H55.79c0,.37,0,2.18,0,2.6,0,1.43-1.09,2-2.22,2.15a3.1,3.1,0,0,0-1.76-1.89V148c1.3.08,1.83.11,2,.11.54,0,.56-.24.6-.56,0-.17,0-2,0-2.26H46.18a13.25,13.25,0,0,0-2.22.17l-.38-.74c1.24.09,2.54.11,2.9.11h8a5.12,5.12,0,0,0-.26-1.9l1.79.47c.22.06.34.17.34.3s-.25.38-.55.53c0,.26,0,.38,0,.6h2.26l.62-.73c.16-.17.25-.25.34-.25a.79.79,0,0,1,.44.23l.88.72a.38.38,0,0,1,.19.3C60.52,145.21,60.41,145.27,60.22,145.27Zm-.73-9.9H53v1.68h3.58l.45-.51c.15-.17.23-.23.32-.23a.77.77,0,0,1,.4.21l.71.59c.11.09.17.17.17.26s-.13.28-.68.53c0,1.22.12,3.2.12,4.43a.88.88,0,0,1-.89.94c-.59,0-.53-.47-.51-.85H48.05a.8.8,0,0,1-.89,1c-.56,0-.56-.36-.56-.59s0-.56,0-.65c.06-.78.08-2.49.08-3.28a12.51,12.51,0,0,0-.19-2.68l1.62.83H51.7c0-.4,0-.81,0-1.68h-4.2a12.07,12.07,0,0,0-2.22.17l-.36-.75c1.26.11,2.56.13,2.88.13h3.89a5.14,5.14,0,0,0-.42-2.36l1.7.49c.34.1.54.19.54.36s-.19.4-.54.57v.94h4.27l.7-.77c.15-.15.23-.23.32-.23s.19.06.36.19l1,.77a.49.49,0,0,1,.19.3C59.77,135.33,59.6,135.37,59.49,135.37ZM51.7,137.5H48.05v2H51.7Zm-3.65,2.43v2h3.63l0-2Zm2.13,8.73c-.57,0-.63-.15-1.14-1.55a3.39,3.39,0,0,0-.94-1.54l.08-.13c1.11.41,2.79,1,2.79,2.35A.84.84,0,0,1,50.18,148.66Zm6.46-11.16H53v2h3.69Zm0,2.43H53v2h3.68Z"/><path class="cls-2" d="M76.72,139.54l.58-.79c.06-.08.13-.19.23-.19s.17,0,.35.2l.93.83c0,.06.17.15.17.27s-.4.45-.77.64c-.08,2.07.13,5.39.13,7.46,0,.7,0,1.7-2.08,2-.13-.68-.24-1.21-1.69-1.93l0-.11a11.05,11.05,0,0,0,1.83.1c.45,0,.58-.06.58-.59,0-.32,0-1.73,0-2H71.27c0,1,0,1.91,0,2.87s0,1.51-.94,1.51a.49.49,0,0,1-.55-.53c0-.21.09-1.68.11-2,0-1.49.06-2.45.1-6.41a18.1,18.1,0,0,1-5.3,4.72l0-.14a29.76,29.76,0,0,0,6.5-8.83H67.78a13.29,13.29,0,0,0-2.22.16l-.36-.73c1.28.09,2.62.11,2.89.11h3.27c1-2.35,1-2.8,1-3.65l2.1.9a.41.41,0,0,1,.22.32c0,.23-.3.34-.86.49-.19.42-.34.76-.91,1.94h5.88l.85-1c.13-.15.19-.22.3-.22s.19.07.34.19l1.32,1a.39.39,0,0,1,.19.3c0,.17-.15.19-.29.19h-8.8a24.32,24.32,0,0,1-1.52,2.67l.3.23Zm-5.45.45v2.24H77V140Zm0,2.69V145H77v-2.32Z"/><path class="cls-2" d="M92.25,137.62a18.71,18.71,0,0,0,1.11-3.15H88.45a13.17,13.17,0,0,0-2.23.17l-.37-.76c1,.08,1.92.14,2.9.14H100l.83-.81c.15-.16.3-.29.36-.29s.17.06.35.21l1.06.85a.4.4,0,0,1,.19.28c0,.19-.19.21-.3.21H95.14a36.21,36.21,0,0,1-2.43,3.15h6.85l.53-.55c.19-.19.25-.25.36-.25a.84.84,0,0,1,.34.19l.87.74a.36.36,0,0,1,.15.24c0,.17-.08.23-.76.61,0,2.12,0,4.82,0,7,0,.88.09,2.28.09,3.15a.84.84,0,0,1-.94.88c-.56,0-.56-.3-.53-1.37H89c0,.07,0,.5,0,.6a.87.87,0,0,1-.92.87c-.6,0-.6-.42-.6-.59s.05-1,.05-1.15c0-2.05.13-6.39.13-8.18a13.05,13.05,0,0,0-.26-3.09l1.94,1Zm-3.26.45v9.68H91.5v-9.68Zm6.65,2.86v-2.86H92.76v2.86Zm0,3.3v-2.85H92.76v2.85Zm0,3.52v-3.07H92.76v3.07Zm4.07,0v-9.68H96.93v9.68Z"/><path class="cls-2" d="M106.05,145.66a24.25,24.25,0,0,0,3.51-7.22h-.43a13.68,13.68,0,0,0-2.23.17l-.36-.75c1.08.09,2.17.13,3.15.13,0-.9,0-2.24,0-3.05a18,18,0,0,1-3.07.34v-.15a30.89,30.89,0,0,0,5.09-2.11,1.27,1.27,0,0,0,.4-.46l1.3,1.1a.33.33,0,0,1,.13.26c0,.19-.19.19-.36.19l-.55,0a15.59,15.59,0,0,1-1.75.57c0,.86,0,2.6,0,3.33h.36l.45-.68c.08-.11.17-.24.28-.24a.7.7,0,0,1,.36.21l.81.67a.43.43,0,0,1,.19.31c0,.18-.19.18-.28.18h-2.17c0,.36,0,1.21,0,1.66,1.85.66,2.47,1.79,2.47,2.38a.73.73,0,0,1-.7.75c-.45,0-.51-.19-.89-1.24a3.34,3.34,0,0,0-.88-1.64c0,3.28,0,3.65.07,5.09,0,1.28.08,2.77.08,3.44,0,.34,0,1.1-.94,1.1-.49,0-.55-.29-.55-.64,0-.63.15-3.4.17-4,0-1.85,0-2.58,0-4.22a12.48,12.48,0,0,1-3.56,4.6Zm6,4c1.32-.64,3.45-1.89,3.9-2.72l1.36,1a.35.35,0,0,1,.17.29c0,.26-.43.24-.9.24a14.94,14.94,0,0,1-4.49,1.3Zm8.37-15,.47-.76c.1-.15.19-.26.28-.26s.25.13.36.23l.93.75a.42.42,0,0,1,.18.3c0,.17-.15.19-.28.19h-4v1.55h1.5l.46-.68c.07-.12.15-.23.28-.23s.22.11.34.21l.77.66a.42.42,0,0,1,.19.3c0,.17-.17.19-.28.19h-3.26v1.69h3.12l.55-.77c.1-.15.21-.24.3-.24s.23.11.34.22l.81.76a.44.44,0,0,1,.19.3c0,.19-.15.19-.28.19h-7.84a12.86,12.86,0,0,0-2.23.17l-.37-.76c1,.08,1.94.13,2.9.13h1.22v-1.69h-.45a11.94,11.94,0,0,0-2.22.19l-.36-.76c.57,0,1.4.12,3,.12,0-.74,0-1.19,0-1.55h-1.25a12.58,12.58,0,0,0-2.22.17l-.38-.75c1.38.11,2.58.13,2.9.13h.93a5.46,5.46,0,0,0-.34-2l1.92.59a.27.27,0,0,1,.26.28c0,.24-.43.45-.52.49v.66Zm-.43,5.9.43-.48c.08-.07.19-.18.26-.18s.23.11.31.17l.73.62a.49.49,0,0,1,.21.34c0,.19-.23.34-.55.49a6.07,6.07,0,0,0,0,.69c0,.64.15,3.45.15,4a.77.77,0,0,1-.86.87c-.49,0-.49-.25-.47-.65h-4.49c0,.44.06.87-.85.87-.32,0-.49-.09-.49-.43,0,0,0-.19,0-.45,0-.7,0-2.74,0-3.57a11.94,11.94,0,0,0-.21-3l1.49.66Zm-4.3.45v1.34h4.49V141Zm0,1.79v1.36h4.49v-1.36Zm0,1.81V146h4.49v-1.39Zm3.17,2.56c1.69.15,4.09,1,4.09,2.13a.77.77,0,0,1-.76.74c-.43,0-.86-.48-1.19-.83a9.28,9.28,0,0,0-2.14-1.91Z"/><path class="cls-3" d="M144.18,136.65a4.53,4.53,0,0,1,2.34-.7c2.67,0,4.82,2.69,4.82,6,0,3.74-2.67,7.08-5.76,7.08s-6.2-3.47-6.2-9.29c0-6.22,3.5-11.39,7.62-11.39,1.81,0,3.07,1.08,3.07,2.37a1.34,1.34,0,0,1-1.37,1.4c-.54,0-1.43-.35-1.48-1.89,0-.59-.08-1-.81-1a2.77,2.77,0,0,0-2,1c-2.4,2.64-2.54,6.6-2.64,9A6.58,6.58,0,0,1,144.18,136.65Zm-.89,10a2.67,2.67,0,0,0,2.18,1.46c1.43,0,3.45-1.49,3.45-5.93,0-1.21-.3-5-3.07-5-1,0-2.75.75-4,3.66C141.94,142.3,142.16,144.89,143.29,146.61Z"/><path class="cls-3" d="M167.88,143.06a6,6,0,0,1-6.36,5.92c-3.07,0-5.82-1.78-5.82-4.85,0-2.9,2.32-4.28,4.8-5.73-1.43-.84-4-2.35-4-5.28,0-2.67,2.1-4.82,5.39-4.82,3.69,0,4.93,2.74,4.93,4.25,0,2.29-2.21,4-3.37,4.82C166,138.94,167.88,140.28,167.88,143.06Zm-9.92,1a3.89,3.89,0,0,0,3.88,4,4.2,4.2,0,0,0,4.1-4.07c0-2.56-2.67-4.07-4.64-5.17C160.09,139.74,158,141.39,158,144.05Zm6.87-11.2a3.4,3.4,0,0,0-3.34-3.64,3.11,3.11,0,0,0-3.18,3.21c0,1.88,1.54,2.83,4.34,4.5A5.15,5.15,0,0,0,164.83,132.85Z"/><path class="cls-3" d="M175.55,147.42a1.56,1.56,0,1,1-1.56-1.56A1.58,1.58,0,0,1,175.55,147.42Z"/><path class="cls-3" d="M190.71,148.47H180.13v-.73c.54-1.69,1.8-3.58,4-6,4-4.58,5.3-6.11,5.3-8.81a3.46,3.46,0,0,0-3.58-3.69c-1.88,0-3,1.13-3,2.1a1.47,1.47,0,0,0,.27.84,2.26,2.26,0,0,1,.57,1.35,1.49,1.49,0,0,1-1.45,1.5,1.69,1.69,0,0,1-1.54-1.88c0-2,1.91-4.82,5.79-4.82,3.34,0,5.39,2.1,5.39,5,0,2.72-1.57,4.2-4,6.27-.91.76-4.47,3.8-5.82,6.76h3.72c3.77,0,4.66-1.45,5.47-3.69l.81.3Z"/><path class="cls-3" d="M198.79,130.94l-.24,6.78a5.69,5.69,0,0,1,4.17-1.85c3.88,0,5.74,3.2,5.74,6.16a6.84,6.84,0,0,1-6.65,6.95c-3.07,0-5.09-2.29-5.09-4a1.53,1.53,0,0,1,1.56-1.67,1.33,1.33,0,0,1,1.4,1.4,2.64,2.64,0,0,1-.13.81,3.55,3.55,0,0,0-.08.75c0,1.16,1.21,1.76,2.29,1.76,2.18,0,4.22-2.08,4.22-5.69,0-3.42-1.8-5.3-3.77-5.3a5.86,5.86,0,0,0-4.2,2.34l-.4-.21.4-10.4h9.37l-.53,2.13Z"/><path class="cls-2" d="M215.83,139.2v1.49a4.24,4.24,0,0,1,3.11-1.49,2.09,2.09,0,0,1,2.26,1.69,4.7,4.7,0,0,1,3.37-1.69c1.66,0,2.41,1,2.41,3.09v4.45c0,.71.38,1.13,1,1.13h.33v.6h-3.93v-.6h.35c.66,0,.95-.51.95-1.13V142.4c0-.53-.08-2.39-1.64-2.39a3.55,3.55,0,0,0-2.68,1.64,4.11,4.11,0,0,1,0,.64v4.45c0,.79.43,1.13.94,1.13h.55v.6H218.5v-.6h.55c.53,0,1-.36,1-1.13V142.4c0-.39-.06-2.39-1.64-2.39a3.32,3.32,0,0,0-2.54,1.49v5.24c0,.79.43,1.13.94,1.13h.34v.6h-3.92v-.6h.34c.56,0,.94-.4.94-1.13v-5.68a.77.77,0,0,0-.77-.88,1.85,1.85,0,0,0-.57.07l-.09-.35Zm9.74-1.11a10.33,10.33,0,0,1,1.09-1.21,3.35,3.35,0,0,0,1.08-1.83c0-.24-.15-.7-.59-.7a.63.63,0,0,0-.64.51c0,.08.17.42.17.49a.52.52,0,0,1-.53.49.58.58,0,0,1-.56-.64,1.58,1.58,0,0,1,1.66-1.35,1.27,1.27,0,0,1,1.37,1.28,1.5,1.5,0,0,1-.58,1.22c-.21.21-1.38,1.15-1.57,1.42h1.17c.49,0,.64-.38.74-.64l.3.09-.4,1.3h-2.71Z"/><path class="cls-2" d="M239.39,150.43a11.54,11.54,0,0,1,0-18.24l.17.26a12.75,12.75,0,0,0,0,17.72Z"/><path class="cls-2" d="M251.23,136.3a.36.36,0,0,1,.24.34c0,.16-.2.28-.79.39-.24.3-.77.92-1.58,1.92s-1.34,1.57-1.85,2.09c.1,0,1.68-.07,2.68-.2a5.52,5.52,0,0,0-.77-1.08l.09-.11c1.47.57,2.6,1.41,2.6,2.28a.71.71,0,0,1-.71.77c-.46,0-.65-.22-.81-.86,0-.06-.1-.32-.21-.61l-1.72.38c0,.81.06,4.67.06,5s.08,2.07.08,2.41a.86.86,0,0,1-.91.81c-.4,0-.51-.24-.51-.56s.08-1.55.08-1.81c0-.6,0-2.45.05-5.63l-2.37.52c-.11.19-.3.55-.47.55s-.3-.23-.34-.34l-.42-1.6a7.15,7.15,0,0,0,1.34.13c.59,0,1.45,0,1.75,0a23.32,23.32,0,0,0,2.7-4.88,2.61,2.61,0,0,0,.11-.75Zm-7.44,12.4a15.52,15.52,0,0,0,1.32-5.51l1.54.57c.13.05.26.17.26.26s-.11.23-.6.42a11.62,11.62,0,0,1-2.43,4.31Zm.71-12.39a10.24,10.24,0,0,1,1.62.53,10.35,10.35,0,0,0,1.25-4.22l1.79.89a.34.34,0,0,1,.22.28c0,.28-.28.34-.71.41-.89,1.13-1,1.3-2.3,2.77a2,2,0,0,1,1.11,1.49.84.84,0,0,1-.77.91c-.44,0-.55-.23-1-1.15a5.11,5.11,0,0,0-1.27-1.79Zm4.45,7.18c.77.34,2.66,1.19,2.66,2.47a.87.87,0,0,1-.83.93c-.51,0-.61-.38-.85-1.25a5.33,5.33,0,0,0-1-2.07Zm9-6.08.56-.53c.1-.09.21-.21.27-.21s.2.12.26.17l.9.78a.37.37,0,0,1,.17.28c0,.13-.35.39-.69.64-.12,5.22-.15,7.56-1.15,9.48a3.27,3.27,0,0,1-2.92,1.84,3.31,3.31,0,0,0-1.72-2.13l0-.11a19.07,19.07,0,0,0,2.51.38c1.9,0,2-6.22,2-8.16,0-.32,0-1.66,0-2h-5.09a11.29,11.29,0,0,1-1.85,2.7l-.11-.08a20.13,20.13,0,0,0,2-6.94,4.18,4.18,0,0,0-.09-.71l2,.87a.29.29,0,0,1,.21.26c0,.19-.28.32-.73.53a22.38,22.38,0,0,1-1.25,2.92Zm-5.15,3.6c1.79.73,2.68,1.34,2.68,2.35a.79.79,0,0,1-.76.89c-.48,0-.64-.21-1-1.51a4.86,4.86,0,0,0-.94-1.62Z"/><path class="cls-2" d="M271.61,148.47H264.2V148a12.86,12.86,0,0,1,2.77-4.22c2.77-3.2,3.72-4.28,3.72-6.16a2.42,2.42,0,0,0-2.51-2.58c-1.32,0-2.11.79-2.11,1.47a1,1,0,0,0,.19.58,1.64,1.64,0,0,1,.39.94,1,1,0,0,1-1,1.06,1.19,1.19,0,0,1-1.07-1.32,3.77,3.77,0,0,1,4.05-3.38,3.44,3.44,0,0,1,3.77,3.51c0,1.9-1.09,2.94-2.79,4.39a16.41,16.41,0,0,0-4.07,4.73h2.6c2.64,0,3.26-1,3.83-2.58l.56.21Z"/><path class="cls-2" d="M279.92,148.83a3.83,3.83,0,0,1-3.09-2,11.75,11.75,0,0,1-1.15-5.37c0-4,1.72-7.07,4.24-7.07,1.94,0,4.24,2.1,4.24,7.24C284.16,146.21,282.22,148.83,279.92,148.83Zm-2.11-11.33a17.29,17.29,0,0,0-.43,4.09c0,4.2,1,6.6,2.54,6.6,1.3,0,1.89-1.74,2.09-2.45a17.13,17.13,0,0,0,.46-4.15c0-4.3-1-6.59-2.55-6.59C278.58,135,278,136.84,277.81,137.5Z"/><path class="cls-2" d="M289.56,147.73a1.1,1.1,0,1,1-1.1-1.09A1.11,1.11,0,0,1,289.56,147.73Z"/><path class="cls-2" d="M296.15,140.2a3.15,3.15,0,0,1,1.64-.49c1.87,0,3.38,1.88,3.38,4.16,0,2.62-1.87,5-4,5s-4.33-2.43-4.33-6.5c0-4.36,2.45-8,5.33-8,1.27,0,2.15.76,2.15,1.66a.94.94,0,0,1-1,1c-.38,0-1-.24-1-1.32,0-.41,0-.67-.56-.67a2,2,0,0,0-1.38.67c-1.67,1.85-1.77,4.62-1.84,6.32A4.54,4.54,0,0,1,296.15,140.2Zm-.62,7a1.86,1.86,0,0,0,1.53,1c1,0,2.41-1,2.41-4.15,0-.85-.21-3.48-2.15-3.48-.71,0-1.92.52-2.81,2.56A9.11,9.11,0,0,0,295.53,147.17Z"/><path class="cls-2" d="M310,134.35h.78v9.58h2.13v.6h-2.13v2.19c0,.83.41,1.15,1.31,1.15h.31v.6h-4.79v-.6h.3c.89,0,1.32-.31,1.32-1.15v-2.19h-5.07v-.66Zm-.77,2.49-4.35,7.09h4.35Z"/><path class="cls-2" d="M320.25,145.34l-2.79,1.13c-.12.28-.23.61-.47.61s-.23-.1-.32-.29l-.93-1.75a3.43,3.43,0,0,0,.68.08,10.93,10.93,0,0,0,2.21-.36V138.2a11.85,11.85,0,0,0-2.27.17l-.37-.75c.92.07,1.52.11,2.64.13,0-3.72-.16-4.28-.34-5l1.81.57c.24.08.39.15.39.34s0,.23-.53.56c0,.57,0,3,0,3.55h.45l.6-.91c.1-.13.19-.22.28-.22a.53.53,0,0,1,.34.2l.87.89c.09.11.19.19.19.28s-.15.21-.28.21h-2.45c0,.23,0,5.94,0,6.29l3.58-.77v.13A26,26,0,0,1,320.25,145.34Zm12.85-2.41H328c0,2.34,0,2.6.06,3.47,0,.37.11,2.22.11,2.64a1,1,0,0,1-1,1c-.63,0-.63-.5-.63-.74s.1-3.94.1-4.67c0-.25,0-1.42,0-1.68h-2.7a12.85,12.85,0,0,0-2.2.17l-.38-.75c1,.07,1.92.13,2.9.13h2.38c0-4,0-4.26,0-8H324.5a13.28,13.28,0,0,0-2.22.17l-.36-.75c1,.09,1.93.13,2.89.13H330l.56-.9c.1-.17.19-.25.27-.25s.19.06.36.19l1.16.92a.38.38,0,0,1,.19.29c0,.19-.19.2-.28.2h-4.37c.05,2.21,0,5.75.05,8h2.66l.68-1.1c.06-.09.15-.24.26-.24s.21.07.36.21l1.3,1.09a.38.38,0,0,1,.19.28C333.38,142.91,333.19,142.93,333.1,142.93Zm-8.5-2.32c-.53,0-.6-.28-.9-1.58a7.86,7.86,0,0,0-1.17-2.72l.09-.09c1.13.55,2.81,2,2.81,3.39A.89.89,0,0,1,324.6,140.61Zm7-3.32a36,36,0,0,1-2.9,3.59l-.1,0a21.15,21.15,0,0,0,1.76-5.22l1.66.86a.52.52,0,0,1,.24.38C332.25,137.07,332.19,137.09,331.59,137.29Z"/><path class="cls-2" d="M337.52,150.43l-.17-.26a12.75,12.75,0,0,0,0-17.72l.17-.26a11.55,11.55,0,0,1,0,18.24Z"/><path class="cls-4" d="M67.62,43.21a7.1,7.1,0,0,1-4.12-6.56,7.42,7.42,0,0,1,2.42-5.54,8.66,8.66,0,0,1,6.22-2.32,9.43,9.43,0,0,1,5.37,1.52H82.1a6,6,0,0,1,1.19.06.36.36,0,0,1,.23.2,1.38,1.38,0,0,1,.15.76,2.08,2.08,0,0,1-.12.85.5.5,0,0,1-.25.19,5.86,5.86,0,0,1-1.2.07H79.29a7.32,7.32,0,0,1-1,9.54,8.79,8.79,0,0,1-6.22,2.15,12.27,12.27,0,0,1-3.29-.47,6,6,0,0,0-1.41,1.57A2.46,2.46,0,0,0,67,46.38a1.09,1.09,0,0,0,.39.78,2.89,2.89,0,0,0,1.53.54c.44.07,1.54.12,3.31.17q4.88.12,6.32.33a6,6,0,0,1,3.52,1.63,4.5,4.5,0,0,1,1.31,3.27,6.86,6.86,0,0,1-2.51,5,13.54,13.54,0,0,1-9.63,3.46,13.82,13.82,0,0,1-7.72-2.06c-1.18-.79-1.77-1.61-1.77-2.47A2.62,2.62,0,0,1,62,55.92a13.28,13.28,0,0,1,1.65-2.44c.11-.14.92-1,2.42-2.56a7.17,7.17,0,0,1-1.74-1.31,1.93,1.93,0,0,1-.51-1.31,3.85,3.85,0,0,1,.67-1.94A15.12,15.12,0,0,1,67.62,43.21Zm-.24,7.9a12.09,12.09,0,0,0-1.68,2.25,4.08,4.08,0,0,0-.57,1.92,2.41,2.41,0,0,0,1.37,2,13.08,13.08,0,0,0,6.84,1.46c2.85,0,4.94-.5,6.29-1.5a4.12,4.12,0,0,0,2-3.21,1.79,1.79,0,0,0-1.2-1.75,16,16,0,0,0-4.88-.61A78.64,78.64,0,0,1,67.38,51.11Zm4.36-21.18a3.68,3.68,0,0,0-2.94,1.4,6.49,6.49,0,0,0-1.18,4.28,9.18,9.18,0,0,0,1.61,5.8A3.81,3.81,0,0,0,72.35,43a3.72,3.72,0,0,0,3-1.35,6.43,6.43,0,0,0,1.16-4.24,9.54,9.54,0,0,0-1.63-5.89A3.76,3.76,0,0,0,71.74,29.93Z"/><path class="cls-4" d="M38.76,39.26H16.66l-3.87,9a14.3,14.3,0,0,0-1.43,5,2.88,2.88,0,0,0,1.24,2.29q1.24,1,5.37,1.29v1.56H0V56.81c2.38-.42,3.93-1,4.63-1.64q2.14-2,4.75-8.21L29.46,0h1.47L50.79,47.47c1.6,3.81,3.05,6.29,4.36,7.42a8.84,8.84,0,0,0,5.45,1.92v1.56H38.08V56.81c2.28-.11,3.81-.49,4.61-1.14a2.92,2.92,0,0,0,1.2-2.35,17.41,17.41,0,0,0-1.68-5.85Zm-1.18-3.11L27.9,13.09,18,36.15Z"/><path class="cls-5" d="M109.57,43.42l.18,3.76h-.45a4.6,4.6,0,0,0-.36-1.42,2.32,2.32,0,0,0-1-1,3.38,3.38,0,0,0-1.61-.33H104.1V56.68a3.31,3.31,0,0,0,.32,1.85,1.79,1.79,0,0,0,1.39.5h.55v.43h-6.8V59h.57a1.63,1.63,0,0,0,1.44-.62,3.64,3.64,0,0,0,.26-1.73V44.42H99.9a5.4,5.4,0,0,0-1.6.17,2.2,2.2,0,0,0-1,.86,3.47,3.47,0,0,0-.52,1.73h-.45l.19-3.76Z"/><path class="cls-5" d="M123.36,43.42H129v.43h-.31a2.44,2.44,0,0,0-.9.28,3.38,3.38,0,0,0-1.08.78,10.87,10.87,0,0,0-1.19,1.65l-3.87,6.1v4a3.19,3.19,0,0,0,.33,1.85,1.83,1.83,0,0,0,1.42.5h.52v.43h-6.82V59h.57a1.62,1.62,0,0,0,1.44-.62,3.52,3.52,0,0,0,.26-1.73v-3.8l-4.4-6.72a13.57,13.57,0,0,0-1.06-1.48,4.38,4.38,0,0,0-1.15-.71,1.58,1.58,0,0,0-.69-.12v-.43h6.86v.43h-.35a2.09,2.09,0,0,0-1,.26.85.85,0,0,0-.47.79,3.75,3.75,0,0,0,.72,1.53l3.35,5.18,3.15-5A3.67,3.67,0,0,0,125,45a1.07,1.07,0,0,0-.17-.59,1.24,1.24,0,0,0-.49-.41,2.4,2.4,0,0,0-1-.15Z"/><path class="cls-5" d="M135.74,52v4.67a3.33,3.33,0,0,0,.33,1.89,1.72,1.72,0,0,0,1.36.52H138v.43h-6.87V59h.6a1.62,1.62,0,0,0,1.46-.67,4,4,0,0,0,.23-1.74V46.26a3.3,3.3,0,0,0-.32-1.88,1.71,1.71,0,0,0-1.37-.53h-.6v-.43h5.88a10.34,10.34,0,0,1,3.4.44,4.77,4.77,0,0,1,2.09,1.5,3.82,3.82,0,0,1,.85,2.49,4.23,4.23,0,0,1-1.29,3.2,5.14,5.14,0,0,1-3.67,1.23,11.5,11.5,0,0,1-1.25-.08C136.73,52.14,136.25,52.06,135.74,52Zm0-.68q.62.12,1.11.18a6.87,6.87,0,0,0,.83.06,2.81,2.81,0,0,0,2.12-.95,3.45,3.45,0,0,0,.89-2.47,4.46,4.46,0,0,0-.42-1.93,2.94,2.94,0,0,0-1.21-1.34,3.47,3.47,0,0,0-1.77-.44,6.88,6.88,0,0,0-1.55.22Z"/><path class="cls-5" d="M150.76,44.29v6.35h3.53a2.86,2.86,0,0,0,1.84-.42,2.67,2.67,0,0,0,.68-1.92h.44v5.59h-.44a6.09,6.09,0,0,0-.33-1.5,1.39,1.39,0,0,0-.7-.65,3.51,3.51,0,0,0-1.49-.24h-3.53v5.29a5,5,0,0,0,.1,1.3.72.72,0,0,0,.33.36,2,2,0,0,0,.9.14h2.72a7.23,7.23,0,0,0,2-.19,3,3,0,0,0,1.18-.75,9,9,0,0,0,1.51-2.21H160l-1.39,4H146.2V59h.56a2.18,2.18,0,0,0,1.08-.28,1,1,0,0,0,.52-.56,5.72,5.72,0,0,0,.13-1.55V46.21a3.37,3.37,0,0,0-.31-1.88,1.8,1.8,0,0,0-1.42-.48h-.56v-.43h12.36l.18,3.51h-.46a5.79,5.79,0,0,0-.55-1.74,2,2,0,0,0-.89-.72,5.35,5.35,0,0,0-1.67-.18Z"/><path class="cls-2" d="M22.85,101.74a10.12,10.12,0,0,1,3.71,8.07c0,6.71-5.51,11.51-12.71,11.51C8,121.32,3,118,3,113.63a3.15,3.15,0,0,1,3.11-3.49,2.67,2.67,0,0,1,2.67,2.73,4.39,4.39,0,0,1-.33,1.74,3.9,3.9,0,0,0-.16,1.26c0,2.07,2.34,3.59,4.91,3.59,4.2,0,8.45-4.14,8.45-9.65s-4.14-10-8.51-10c-.32,0-1.85.22-2.18.22a1.08,1.08,0,0,1-1.2-1.15A1.24,1.24,0,0,1,11,97.65c.32,0,2,.33,2.34.33,4.58,0,7.47-4.09,7.47-8.51,0-4.25-2.56-8.18-6.87-8.18-2.89,0-4.42,2.07-4.42,3.65a3.86,3.86,0,0,0,.17.82,5.34,5.34,0,0,1,.16,1.31,2.88,2.88,0,0,1-2.78,3,2.83,2.83,0,0,1-2.73-3c0-3,3.49-7.63,10.47-7.63,6.71,0,10.91,4.36,10.91,9.16a9.41,9.41,0,0,1-2,5.56A13,13,0,0,1,16.8,98.8,14.51,14.51,0,0,1,22.85,101.74Z"/><path class="cls-2" d="M47.12,91.32H45.66a2.67,2.67,0,0,0-2.95,2.87v21.9A2.66,2.66,0,0,0,45.66,119h1.13A12.56,12.56,0,0,0,58,112.1l1.09.54-3,7.64H35V119h1.41a2.69,2.69,0,0,0,3-2.86V94.19a2.68,2.68,0,0,0-3-2.87H35V90H47.12Z"/><path class="cls-2" d="M65.85,90H77.78c9.72,0,15.75,5,15.75,15,0,7.1-3.74,15.37-15.38,15.37H65.85V119h1.42a2.68,2.68,0,0,0,3-2.86V94.19a2.68,2.68,0,0,0-3-2.87H65.85Zm7.69,26.14A2.66,2.66,0,0,0,76.49,119h2c7.52,0,11.31-6.73,11.31-14.37,0-5.28-2.16-13.26-11.14-13.26H76.49a2.67,2.67,0,0,0-2.95,2.87Z"/><path class="cls-2" d="M115.38,101.59l9.22,14.75a5.89,5.89,0,0,0,4.9,2.61h.59v1.33H118.33V119h1a1.51,1.51,0,0,0,1.66-1.37,3.36,3.36,0,0,0-.58-1.7l-7.36-11.76-4,4.28v7.69a2.7,2.7,0,0,0,3,2.86h1.16v1.33H101.71V119h1.16a2.66,2.66,0,0,0,2.95-2.86V94.19a2.67,2.67,0,0,0-2.95-2.87h-1.16V90h11.55v1.37H112.1a2.7,2.7,0,0,0-3,2.87v12.26l11.35-12.39a2.05,2.05,0,0,0,.54-1.32c0-1.21-1.29-1.42-2.2-1.42h-1.08V90h11.71v1.37h-.75a8.14,8.14,0,0,0-6.64,3Z"/><path class="cls-2" d="M136.84,110h4.51v-4.47h.92V110h4.49v.93h-4.49v4.45h-.92v-4.45h-4.51Z"/><path class="cls-2" d="M157.75,102.18h-.65c-1.12,0-1.51.44-1.51,1.2a5.61,5.61,0,0,0,.24,1.29l3.06,11.79,3.64-12c-.5-1.56-.88-2.26-2.26-2.26h-.55v-.86h7v.86h-.91a1.14,1.14,0,0,0-1.3,1.25,5.38,5.38,0,0,0,.26,1.5L168,116.36l3-11.89a4.73,4.73,0,0,0,.16-1c0-.93-.86-1.27-1.58-1.27h-.83v-.86h6v.86h-.5c-1.48,0-2.08.86-2.41,2.18l-4.13,16.42h-.62l-4.19-14.86-4.49,14.86h-.54l-4.26-16.47c-.47-1.82-1.25-2.13-2.11-2.13h-.65v-.86h6.86Z"/><path class="cls-2" d="M187.35,102.18h-1.24a1.67,1.67,0,0,0-1.85,1.79v13.69a1.67,1.67,0,0,0,1.85,1.79h1.24v.83h-8.23v-.83h1.22a1.69,1.69,0,0,0,1.87-1.79V104a1.67,1.67,0,0,0-1.87-1.79h-1.22v-.86h8.23Z"/><path class="cls-2" d="M206.33,106c-1-1.45-2.83-4.28-6.31-4.28-4.15,0-6.2,4.23-6.2,8.75,0,5,2.44,9.14,6.8,9.14,3.69,0,5.51-3.37,6.18-4.7l.7.42c-1,2-2.83,5.48-7.66,5.48-5.48,0-8.15-4.44-8.15-9.56,0-6.08,3.76-10.39,8.15-10.39a7.73,7.73,0,0,1,2.18.31c.21,0,1.43.39,1.59.39a3.78,3.78,0,0,0,1.74-.62l1.84,4.67Z"/><path class="cls-2" d="M212.28,110h4.5v-4.47h.93V110h4.49v.93h-4.49v4.45h-.93v-4.45h-4.5Z"/><path class="cls-2" d="M238.56,105.4l-.77.31c-.84-1.45-2.34-4-5.67-4a3.31,3.31,0,0,0-3.55,3.43c0,2.15,1.55,3,5,4.15a20.65,20.65,0,0,1,2.54,1.09c2,1,3.4,2.26,3.4,4.81a5.51,5.51,0,0,1-5.63,5.61,9.07,9.07,0,0,1-2.78-.52A2.85,2.85,0,0,0,230,120a4.66,4.66,0,0,0-2.07.72l-1.93-5,1-.47A9.39,9.39,0,0,0,229,118a7.29,7.29,0,0,0,4.68,1.92,3.74,3.74,0,0,0,3.84-3.92c0-2.39-1.53-3.22-4.83-4.37-3.66-1.24-6-2.59-6-5.71a4.9,4.9,0,0,1,5.22-5,8.41,8.41,0,0,1,1.84.21,12.61,12.61,0,0,0,1.56.28,1.8,1.8,0,0,0,1.45-.49Z"/><path class="cls-2" d="M251.73,102.18h-1.25a1.66,1.66,0,0,0-1.84,1.79v13.69a1.66,1.66,0,0,0,1.84,1.79h1.25v.83H243.5v-.83h1.22a1.69,1.69,0,0,0,1.87-1.79V104a1.67,1.67,0,0,0-1.87-1.79H243.5v-.86h8.23Z"/><path class="cls-2" d="M270.71,106c-1-1.45-2.83-4.28-6.31-4.28-4.16,0-6.21,4.23-6.21,8.75,0,5,2.44,9.14,6.81,9.14,3.68,0,5.5-3.37,6.18-4.7l.7.42c-1,2-2.83,5.48-7.66,5.48-5.48,0-8.16-4.44-8.16-9.56,0-6.08,3.77-10.39,8.16-10.39a7.73,7.73,0,0,1,2.18.31c.21,0,1.43.39,1.58.39a3.7,3.7,0,0,0,1.74-.62l1.85,4.67Z"/><path class="cls-2" d="M144.4,89c-.17.11-.19.14-.29.6a7.16,7.16,0,0,1-1.77,3.63,4.86,4.86,0,0,1-1.94,1.34l0-.08A7.19,7.19,0,0,0,143,91.06a13.11,13.11,0,0,0,.6-2.3c0-.09,0-.11-.14-.11-.71,0-1.79.08-2.51.15l-1,.13a1.24,1.24,0,0,1-.29-.12c0,.19.07,2,.07,2.11s-.08.42-.18.42-.45-.28-.45-.7c0-1.94,0-2.15-.55-2.51a1.56,1.56,0,0,1,.42-.06c.22,0,.28,0,.61.27a.58.58,0,0,0,.39.11l1.38-.12a8.5,8.5,0,0,0-.07-1.29c-.07-.18-.13-.24-.72-.4a1,1,0,0,1,.62-.33c.24,0,.9.26.9.53,0,0-.1.42-.12.5a4.6,4.6,0,0,0-.07,1l1.41-.1a.64.64,0,0,0,.43-.22c.08-.07.11-.09.15-.09a2.8,2.8,0,0,1,.73.86C144.64,88.83,144.58,88.89,144.4,89Z"/><path class="cls-2" d="M149.86,90.14l-.27,0a3.15,3.15,0,0,0-.71-.08,4.65,4.65,0,0,0-.66,0c0,1.65,0,2,0,2.53,0,.13,0,.65,0,.76,0,.5-.22,1.07-.44,1.07s-.14-.08-.23-.38-.11-.36-.76-.93l0-.08a2.61,2.61,0,0,0,.78.29c.07,0,.13,0,.14-.23s0-1,0-2.24a6.75,6.75,0,0,1-2.81,2.7l0-.1a9.84,9.84,0,0,0,2.68-3.32,7.07,7.07,0,0,0-1.5.32,2.58,2.58,0,0,1-.31.13,1,1,0,0,1-.66-.87,1.08,1.08,0,0,1,.06-.33c.1.22.28.57.68.57s1.19-.11,1.9-.2c0-1.51,0-1.66-.66-1.82a.7.7,0,0,1,.44-.24c.25,0,.82.3.82.52s-.13.34-.14.4a5.54,5.54,0,0,0-.05,1.09l.84-.13a3.68,3.68,0,0,1,.37-.11s.65.11.65.46A.19.19,0,0,1,149.86,90.14Z"/><path class="cls-2" d="M157,90.61l-.32,0a7.66,7.66,0,0,0-1,0,17,17,0,0,0-3.9.19l-.33.1c-.23,0-.71-.69-.71-1.19a1.6,1.6,0,0,1,.1-.51c.3.82.58.82,1.5.82.61,0,3.49,0,3.9-.13.05,0,.31-.1.36-.1s.95.12.95.54S157.09,90.61,157,90.61Z"/><path class="cls-2" d="M163.31,88.59c-.2.11-.28.2-.48.67a9.91,9.91,0,0,1-3.14,4.38,5.39,5.39,0,0,1-1.73.92l0-.08a12.49,12.49,0,0,0,4.54-6.19c-.37,0-1,.15-1.33.21l-.29,0a.91.91,0,0,1-.45-.18,6.89,6.89,0,0,1-2.35,2.5l0-.09a10.49,10.49,0,0,0,2.31-3.89c0-.11,0-.2-.49-.54a1.2,1.2,0,0,1,.44-.09c.35,0,1,.5,1,.78,0,.09,0,.15-.2.34s-.32.46-.44.64a6.08,6.08,0,0,0,1.74-.2c.08,0,.38-.32.47-.32a2.06,2.06,0,0,1,.73.85C163.58,88.42,163.56,88.45,163.31,88.59Z"/><path class="cls-2" d="M168.87,87a2.26,2.26,0,0,0-.34.33L167.26,89c.14.08.44.31.44.46a1.68,1.68,0,0,1-.11.4s0,.89,0,1.11c0,.48,0,2.62,0,3,0,.22,0,.67-.27.67s-.47-.6-.47-.82.09-.52.1-.61c.06-.56.09-1.34.09-1.92,0-.37,0-1.55-.07-1.72a.35.35,0,0,0-.1-.19,10.37,10.37,0,0,1-3.13,2.49l0-.06c2.06-1.66,4.4-4.92,4.4-5.38,0-.26-.1-.35-.45-.66a1.14,1.14,0,0,1,.35-.07,1.43,1.43,0,0,1,1.1,1C169.11,86.84,169.09,86.86,168.87,87Z"/><path class="cls-2" d="M172.31,88.5c-.15,0-.25-.13-.54-.47a4.29,4.29,0,0,0-1.45-1.23c1.06-.09,2.32.38,2.32,1.27A.39.39,0,0,1,172.31,88.5Zm.77,3.7c-.18.17-1,.9-1.16,1.09s-.24.32-.29.37a.19.19,0,0,1-.15.07c-.31,0-.9-.91-.9-1.41a1.78,1.78,0,0,1,.09-.48c.21.49.46.71.65.71A10.11,10.11,0,0,0,173.37,91a18.81,18.81,0,0,0,2.83-3.26l0,0A11.44,11.44,0,0,1,173.08,92.2Z"/><path class="cls-2" d="M181.58,88.59c-.2.11-.28.2-.48.67A10,10,0,0,1,178,93.64a5.44,5.44,0,0,1-1.74.92l0-.08a12.49,12.49,0,0,0,4.54-6.19c-.36,0-1,.15-1.33.21l-.28,0a.9.9,0,0,1-.46-.18,6.89,6.89,0,0,1-2.35,2.5l0-.09a10.49,10.49,0,0,0,2.31-3.89c0-.11,0-.2-.48-.54a1.13,1.13,0,0,1,.43-.09c.36,0,1,.5,1,.78,0,.09,0,.15-.2.34a7,7,0,0,0-.43.64,6,6,0,0,0,1.73-.2c.08,0,.38-.32.47-.32s.74.65.74.85S181.83,88.45,181.58,88.59Z"/><path class="cls-2" d="M188.31,88.28c-.21.17-.22.18-.35,1s-.3,2-.42,2.56a.53.53,0,0,0,0,.12c0,.08,0,.1.16.23s.28.25.28.4a.23.23,0,0,1-.24.25l-.17,0a8.56,8.56,0,0,0-1.58-.09,16.25,16.25,0,0,0-2,.11c0,.21,0,.61-.23.61s-.47-.76-.47-1c0-.07,0-.41,0-.47A31.1,31.1,0,0,0,183,88.1c-.08-.37-.24-.48-.6-.64a.78.78,0,0,1,.45-.19c.23,0,.37.09.79.4a.42.42,0,0,0,.29.09c.09,0,.54-.06.62-.07.42,0,2.24-.16,2.6-.23a.65.65,0,0,0,.46-.25c.06-.07.09-.08.12-.08a2.41,2.41,0,0,1,.78.88C188.51,88.09,188.46,88.16,188.31,88.28Zm-1.1-.3c-.26,0-1.4.08-2.44.21-.09,0-.52.09-.63.09s-.35-.13-.42-.13,0,0,0,.09.19,4.06.19,4.09c.29,0,2.76-.17,3.12-.2,0-.35.37-3.28.37-3.91C187.37,88.1,187.34,88,187.21,88Z"/><path class="cls-2" d="M195.5,90.61l-.31,0a7.87,7.87,0,0,0-1,0,17,17,0,0,0-3.9.19l-.34.1c-.23,0-.71-.69-.71-1.19a1.45,1.45,0,0,1,.11-.51c.3.82.57.82,1.5.82.61,0,3.49,0,3.9-.13.05,0,.31-.1.36-.1s.94.12.94.54S195.61,90.61,195.5,90.61Z"/><path class="cls-2" d="M203.14,89.31a.48.48,0,0,0-.36.19A10.34,10.34,0,0,1,201.19,91V91a10,10,0,0,0,1.09-2.06c-.63.23-1.75.67-2.62,1,0,.25,0,.81,0,1.48,0,1.64,0,1.91,1.17,1.91a3.53,3.53,0,0,0,1.32-.23.89.89,0,0,1,.3-.06c.43,0,.76.18.76.44a.34.34,0,0,1-.21.31,4.74,4.74,0,0,1-1.58.18c-2.23,0-2.28-.6-2.28-2.73,0-.52,0-.86,0-1.09-.21.09-1.19.44-1.37.57a.83.83,0,0,1-.39.21,1.29,1.29,0,0,1-.77-1.13,1.16,1.16,0,0,1,.1-.46c.17.37.36.72.7.72a1.72,1.72,0,0,0,.51-.1l1.23-.41c0-1.55,0-1.87,0-2,0-.75-.17-.81-.78-1a1,1,0,0,1,.6-.28c.33,0,1,.26,1,.57a1.7,1.7,0,0,1-.11.43,20.91,20.91,0,0,0-.21,2.11,14,14,0,0,0,2.57-.93l.23-.24a.26.26,0,0,1,.13-.09c.09,0,.93.66.93,1S203.49,89.22,203.14,89.31ZM203,87.76c-.12,0-.16-.06-.49-.43a5.87,5.87,0,0,0-.9-.77c1.22,0,1.61.5,1.61.9C203.22,87.64,203.12,87.76,203,87.76Zm.85-.68c-.09,0-.11,0-.41-.36a4,4,0,0,0-1.05-.84c.3,0,1.65,0,1.65.92C204,86.84,204,87.08,203.85,87.08Z"/><path class="cls-2" d="M204.94,90.69c-.2,0-.28-.25-.38-.52a5.38,5.38,0,0,0-.65-1.16c.59.11,1.29.69,1.29,1.28C205.2,90.51,205.11,90.69,204.94,90.69Zm3.65-1.09c-.05.08-.42,1-.49,1.21-1.28,2.92-2.86,3.42-3.48,3.63l0-.11c2.66-1.51,3.42-5,3.42-5.11s-.35-.5-.47-.58a1.51,1.51,0,0,1,.39-.07,1.18,1.18,0,0,1,.84.7C208.78,89.34,208.76,89.37,208.59,89.6Zm-2.13.63c-.18,0-.21-.1-.36-.6a4.55,4.55,0,0,0-.53-1.11,1.74,1.74,0,0,1,1.16,1.29C206.73,90,206.63,90.23,206.46,90.23Z"/><path class="cls-2" d="M212.87,91.46c-.14,0-.25-.14-.39-.32a4.8,4.8,0,0,0-1.89-1.77c0,.42,0,2.3,0,2.69s0,1.52,0,1.76,0,.87-.34.87-.42-.63-.42-.91a6.3,6.3,0,0,1,.06-.72c.11-.85.12-2.55.12-3.47,0-.46,0-2.61-.08-3s-.25-.35-.71-.54a1.12,1.12,0,0,1,.58-.26c.14,0,1,.23,1,.57a5.29,5.29,0,0,1-.13.54,16.47,16.47,0,0,0-.12,2.18,4.42,4.42,0,0,1,2.28,1.16,1.08,1.08,0,0,1,.27.72C213.15,91.37,213,91.46,212.87,91.46Z"/><path class="cls-2" d="M224.07,90.17c-.12,0-.2-.07-.42-.27A5.43,5.43,0,0,0,222,88.84a3.32,3.32,0,0,1,.75-.08c1.08,0,1.6.5,1.6,1C224.31,90,224.21,90.17,224.07,90.17Zm.71-2.36c-.1,0-.2-.08-.32-.22a3.94,3.94,0,0,0-1.61-1.23,3.2,3.2,0,0,1,.56-.06c1.13,0,1.64.62,1.64,1.1C225.05,87.56,225,87.81,224.78,87.81Zm-.2,5.63a3.9,3.9,0,0,0-.61.62.32.32,0,0,1-.23.16,1.59,1.59,0,0,1-.86-1.45,1.13,1.13,0,0,1,0-.25c.18.28.57.63.7.63.57,0,3.34-2.74,4.78-5l.05,0A12.79,12.79,0,0,1,224.58,93.44Z"/><path class="cls-2" d="M234.48,93.3a2.26,2.26,0,0,1-.39-.13,2.91,2.91,0,0,0-1.18-.19,10.3,10.3,0,0,0-3.19.48,4,4,0,0,1-.48.22,1.11,1.11,0,0,1-.7-1.08,2.15,2.15,0,0,1,0-.23c.21.29.42.56.74.56l.68-.1,2-.23c0-.21.24-1.3.42-3a8.22,8.22,0,0,0-1.39.31l-.64.24a1.06,1.06,0,0,1-.55-.88.82.82,0,0,1,0-.26.72.72,0,0,0,.64.46,11.23,11.23,0,0,0,1.81-.32s.24-.25.29-.25.67.55.67.73,0,.11-.24.27-.09.09-.15.32-.41,2.25-.44,2.34c.19,0,1,0,1.21-.06s.35-.09.41-.09.7.34.7.64A.24.24,0,0,1,234.48,93.3Z"/><path class="cls-2" d="M241.55,90.61l-.31,0a7.87,7.87,0,0,0-1,0,17,17,0,0,0-3.9.19l-.34.1c-.23,0-.71-.69-.71-1.19a1.45,1.45,0,0,1,.11-.51c.3.82.58.82,1.5.82.61,0,3.49,0,3.9-.13,0,0,.31-.1.36-.1s.94.12.94.54S241.66,90.61,241.55,90.61Z"/><path class="cls-2" d="M248.67,93.94c-.19,0-.23-.07-.57-.81a9,9,0,0,0-1.8-2.38,7.21,7.21,0,0,1-4,3.21V93.9a11.48,11.48,0,0,0,4.75-6.27,10.85,10.85,0,0,0-2.48.68c-.15.12-.2.15-.26.15a1.44,1.44,0,0,1-.62-1,1.13,1.13,0,0,1,.09-.52c.27.58.4.66.64.66a13.77,13.77,0,0,0,2.49-.41c.07,0,.37-.34.44-.34a2.38,2.38,0,0,1,.76.84c0,.11,0,.13-.33.29a.42.42,0,0,0-.16.22,12.28,12.28,0,0,1-1.25,2.41c.78.44,2.52,1.66,2.52,2.84C248.93,93.78,248.79,93.94,248.67,93.94Zm0-6.7c-.1,0-.15,0-.44-.5a2.86,2.86,0,0,0-.9-.88,1.85,1.85,0,0,1,1.09.32.71.71,0,0,1,.45.71C248.88,87.23,248.72,87.24,248.68,87.24Zm.91-.6c-.11,0-.15-.06-.53-.54a3.49,3.49,0,0,0-.89-.79c.28,0,1.6.11,1.6,1C249.77,86.61,249.63,86.64,249.59,86.64Z"/><path class="cls-2" d="M254.59,87a2.26,2.26,0,0,0-.34.33L253,89c.14.08.44.31.44.46a2.34,2.34,0,0,1-.1.4s0,.89,0,1.11c0,.48,0,2.62,0,3,0,.22,0,.67-.27.67s-.47-.6-.47-.82.09-.52.1-.61c.06-.56.09-1.34.09-1.92,0-.37,0-1.55-.07-1.72a.3.3,0,0,0-.1-.19,10.37,10.37,0,0,1-3.13,2.49l0-.06c2.06-1.66,4.4-4.92,4.4-5.38,0-.26-.1-.35-.45-.66a1.14,1.14,0,0,1,.35-.07,1.43,1.43,0,0,1,1.1,1C254.83,86.84,254.81,86.86,254.59,87Z"/><path class="cls-2" d="M258,88.5c-.15,0-.25-.13-.54-.47A4.29,4.29,0,0,0,256,86.8c1.06-.09,2.32.38,2.32,1.27A.39.39,0,0,1,258,88.5Zm.78,3.7c-.19.17-1,.9-1.17,1.09s-.24.32-.29.37a.18.18,0,0,1-.15.07c-.31,0-.89-.91-.89-1.41a1.83,1.83,0,0,1,.08-.48c.21.49.47.71.65.71a10.11,10.11,0,0,0,2-1.59,18.81,18.81,0,0,0,2.83-3.26l0,0A11.49,11.49,0,0,1,258.81,92.2Z"/><path class="cls-2" d="M267.3,88.59c-.2.11-.28.2-.47.67a10.06,10.06,0,0,1-3.14,4.38,5.44,5.44,0,0,1-1.74.92l0-.08a12.43,12.43,0,0,0,4.54-6.19c-.36,0-1,.15-1.33.21l-.28,0a.85.85,0,0,1-.45-.18,7.06,7.06,0,0,1-2.35,2.5l-.05-.09a10.57,10.57,0,0,0,2.32-3.89c0-.11,0-.2-.49-.54a1.16,1.16,0,0,1,.43-.09c.36,0,1,.5,1,.78,0,.09,0,.15-.2.34a7,7,0,0,0-.43.64,6,6,0,0,0,1.73-.2c.08,0,.38-.32.47-.32s.74.65.74.85S267.55,88.45,267.3,88.59Z"/><path class="cls-2" d="M274,88.28c-.21.17-.22.18-.35,1s-.3,2-.42,2.56a.53.53,0,0,0,0,.12c0,.08,0,.1.16.23s.28.25.28.4a.22.22,0,0,1-.24.25l-.17,0a8.49,8.49,0,0,0-1.58-.09,15.89,15.89,0,0,0-2,.11c0,.21,0,.61-.24.61s-.46-.76-.46-1c0-.07,0-.41,0-.47a31.1,31.1,0,0,0-.27-3.85c-.08-.37-.23-.48-.6-.64a.78.78,0,0,1,.45-.19c.23,0,.37.09.79.4a.42.42,0,0,0,.29.09c.09,0,.54-.06.63-.07.41,0,2.23-.16,2.59-.23a.65.65,0,0,0,.46-.25c.06-.07.09-.08.12-.08a2.32,2.32,0,0,1,.78.88C274.23,88.09,274.18,88.16,274,88.28Zm-1.1-.3c-.26,0-1.39.08-2.44.21-.09,0-.52.09-.63.09s-.35-.13-.42-.13,0,0,0,.09.19,4.06.19,4.09c.29,0,2.76-.17,3.12-.2,0-.35.37-3.28.37-3.91C273.09,88.1,273.06,88,272.93,88Z"/><path class="cls-2" d="M281.22,90.61l-.31,0a7.87,7.87,0,0,0-1,0,17,17,0,0,0-3.9.19l-.34.1c-.23,0-.71-.69-.71-1.19a1.45,1.45,0,0,1,.11-.51c.3.82.57.82,1.5.82.61,0,3.49,0,3.9-.13,0,0,.31-.1.36-.1s.94.12.94.54S281.33,90.61,281.22,90.61Z"/><path class="cls-2" d="M287.54,88.59c-.2.11-.28.2-.47.67a10.06,10.06,0,0,1-3.14,4.38,5.44,5.44,0,0,1-1.74.92l0-.08a12.43,12.43,0,0,0,4.54-6.19c-.36,0-1,.15-1.33.21l-.28,0a.85.85,0,0,1-.45-.18,7.06,7.06,0,0,1-2.35,2.5l-.05-.09a10.42,10.42,0,0,0,2.32-3.89c0-.11,0-.2-.49-.54a1.16,1.16,0,0,1,.43-.09c.36,0,1,.5,1,.78,0,.09,0,.15-.2.34a7,7,0,0,0-.43.64,6,6,0,0,0,1.73-.2c.08,0,.38-.32.47-.32s.74.65.74.85S287.79,88.45,287.54,88.59Z"/></g></g></svg>